%TF.GenerationSoftware,KiCad,Pcbnew,(5.1.6)-1*%
%TF.CreationDate,2020-08-10T23:05:38-07:00*%
%TF.ProjectId,Wire-Free-DAQ,57697265-2d46-4726-9565-2d4441512e6b,rev?*%
%TF.SameCoordinates,Original*%
%TF.FileFunction,Soldermask,Bot*%
%TF.FilePolarity,Negative*%
%FSLAX46Y46*%
G04 Gerber Fmt 4.6, Leading zero omitted, Abs format (unit mm)*
G04 Created by KiCad (PCBNEW (5.1.6)-1) date 2020-08-10 23:05:38*
%MOMM*%
%LPD*%
G01*
G04 APERTURE LIST*
%ADD10C,1.050800*%
%ADD11R,1.050800X2.550800*%
%ADD12R,0.450800X1.450800*%
%ADD13R,2.350800X1.950800*%
%ADD14R,1.850800X1.950800*%
%ADD15R,0.610800X0.540800*%
%ADD16R,0.540800X0.610800*%
%ADD17C,1.550800*%
G04 APERTURE END LIST*
D10*
%TO.C,H2*%
X119000000Y-54000000D03*
%TD*%
%TO.C,H1*%
X151000000Y-54000000D03*
%TD*%
D11*
%TO.C,J11*%
X149083000Y-45559600D03*
%TD*%
%TO.C,J10*%
X146543000Y-45559600D03*
%TD*%
%TO.C,J9*%
X144003000Y-45559600D03*
%TD*%
D12*
%TO.C,J2*%
X130688800Y-48303400D03*
X131338800Y-48303400D03*
X131988800Y-48303400D03*
X132638800Y-48303400D03*
X133288800Y-48303400D03*
D13*
X128238800Y-45453400D03*
X135738800Y-45453400D03*
D14*
X130838800Y-45453400D03*
X133138800Y-45453400D03*
%TD*%
D15*
%TO.C,R32*%
X124953000Y-47263600D03*
X124953000Y-48173600D03*
%TD*%
%TO.C,R31*%
X125765800Y-48173600D03*
X125765800Y-47263600D03*
%TD*%
%TO.C,L11*%
G36*
G01*
X127679700Y-52489700D02*
X127179300Y-52489700D01*
G75*
G02*
X126944100Y-52254500I0J235200D01*
G01*
X126944100Y-51784100D01*
G75*
G02*
X127179300Y-51548900I235200J0D01*
G01*
X127679700Y-51548900D01*
G75*
G02*
X127914900Y-51784100I0J-235200D01*
G01*
X127914900Y-52254500D01*
G75*
G02*
X127679700Y-52489700I-235200J0D01*
G01*
G37*
G36*
G01*
X127679700Y-53819700D02*
X127179300Y-53819700D01*
G75*
G02*
X126944100Y-53584500I0J235200D01*
G01*
X126944100Y-53114100D01*
G75*
G02*
X127179300Y-52878900I235200J0D01*
G01*
X127679700Y-52878900D01*
G75*
G02*
X127914900Y-53114100I0J-235200D01*
G01*
X127914900Y-53584500D01*
G75*
G02*
X127679700Y-53819700I-235200J0D01*
G01*
G37*
%TD*%
D16*
%TO.C,R30*%
X127643200Y-51033300D03*
X126733200Y-51033300D03*
%TD*%
%TO.C,R29*%
X141310600Y-53306600D03*
X140400600Y-53306600D03*
%TD*%
D15*
%TO.C,R28*%
X135214600Y-52542400D03*
X135214600Y-51632400D03*
%TD*%
%TO.C,C61*%
G36*
G01*
X126455500Y-52434700D02*
X125965100Y-52434700D01*
G75*
G02*
X125749900Y-52219500I0J215200D01*
G01*
X125749900Y-51789100D01*
G75*
G02*
X125965100Y-51573900I215200J0D01*
G01*
X126455500Y-51573900D01*
G75*
G02*
X126670700Y-51789100I0J-215200D01*
G01*
X126670700Y-52219500D01*
G75*
G02*
X126455500Y-52434700I-215200J0D01*
G01*
G37*
G36*
G01*
X126455500Y-53794700D02*
X125965100Y-53794700D01*
G75*
G02*
X125749900Y-53579500I0J215200D01*
G01*
X125749900Y-53149100D01*
G75*
G02*
X125965100Y-52933900I215200J0D01*
G01*
X126455500Y-52933900D01*
G75*
G02*
X126670700Y-53149100I0J-215200D01*
G01*
X126670700Y-53579500D01*
G75*
G02*
X126455500Y-53794700I-215200J0D01*
G01*
G37*
%TD*%
%TO.C,C60*%
G36*
G01*
X142462400Y-50990800D02*
X142952800Y-50990800D01*
G75*
G02*
X143168000Y-51206000I0J-215200D01*
G01*
X143168000Y-51636400D01*
G75*
G02*
X142952800Y-51851600I-215200J0D01*
G01*
X142462400Y-51851600D01*
G75*
G02*
X142247200Y-51636400I0J215200D01*
G01*
X142247200Y-51206000D01*
G75*
G02*
X142462400Y-50990800I215200J0D01*
G01*
G37*
G36*
G01*
X142462400Y-49630800D02*
X142952800Y-49630800D01*
G75*
G02*
X143168000Y-49846000I0J-215200D01*
G01*
X143168000Y-50276400D01*
G75*
G02*
X142952800Y-50491600I-215200J0D01*
G01*
X142462400Y-50491600D01*
G75*
G02*
X142247200Y-50276400I0J215200D01*
G01*
X142247200Y-49846000D01*
G75*
G02*
X142462400Y-49630800I215200J0D01*
G01*
G37*
%TD*%
%TO.C,C59*%
G36*
G01*
X136565200Y-50343600D02*
X136565200Y-50834000D01*
G75*
G02*
X136350000Y-51049200I-215200J0D01*
G01*
X135919600Y-51049200D01*
G75*
G02*
X135704400Y-50834000I0J215200D01*
G01*
X135704400Y-50343600D01*
G75*
G02*
X135919600Y-50128400I215200J0D01*
G01*
X136350000Y-50128400D01*
G75*
G02*
X136565200Y-50343600I0J-215200D01*
G01*
G37*
G36*
G01*
X137925200Y-50343600D02*
X137925200Y-50834000D01*
G75*
G02*
X137710000Y-51049200I-215200J0D01*
G01*
X137279600Y-51049200D01*
G75*
G02*
X137064400Y-50834000I0J215200D01*
G01*
X137064400Y-50343600D01*
G75*
G02*
X137279600Y-50128400I215200J0D01*
G01*
X137710000Y-50128400D01*
G75*
G02*
X137925200Y-50343600I0J-215200D01*
G01*
G37*
%TD*%
D16*
%TO.C,R27*%
X127617800Y-56964200D03*
X126707800Y-56964200D03*
%TD*%
%TO.C,C58*%
G36*
G01*
X127033200Y-55943300D02*
X127033200Y-56308700D01*
G75*
G02*
X126875500Y-56466400I-157700J0D01*
G01*
X126560100Y-56466400D01*
G75*
G02*
X126402400Y-56308700I0J157700D01*
G01*
X126402400Y-55943300D01*
G75*
G02*
X126560100Y-55785600I157700J0D01*
G01*
X126875500Y-55785600D01*
G75*
G02*
X127033200Y-55943300I0J-157700D01*
G01*
G37*
G36*
G01*
X127923200Y-55943300D02*
X127923200Y-56308700D01*
G75*
G02*
X127765500Y-56466400I-157700J0D01*
G01*
X127450100Y-56466400D01*
G75*
G02*
X127292400Y-56308700I0J157700D01*
G01*
X127292400Y-55943300D01*
G75*
G02*
X127450100Y-55785600I157700J0D01*
G01*
X127765500Y-55785600D01*
G75*
G02*
X127923200Y-55943300I0J-157700D01*
G01*
G37*
%TD*%
D15*
%TO.C,R3*%
X121447800Y-52623000D03*
X121447800Y-53533000D03*
%TD*%
%TO.C,R2*%
X122286000Y-52623000D03*
X122286000Y-53533000D03*
%TD*%
%TO.C,R1*%
X123073400Y-52623000D03*
X123073400Y-53533000D03*
%TD*%
%TO.C,R20*%
X140012660Y-55391600D03*
X140012660Y-56301600D03*
%TD*%
%TO.C,R18*%
X139202400Y-55391600D03*
X139202400Y-56301600D03*
%TD*%
%TO.C,R21*%
X125984000Y-62003600D03*
X125984000Y-62913600D03*
%TD*%
%TO.C,R19*%
X123469400Y-62029000D03*
X123469400Y-62939000D03*
%TD*%
D16*
%TO.C,R14*%
X134018600Y-59682000D03*
X133108600Y-59682000D03*
%TD*%
D15*
%TO.C,R13*%
X141183600Y-51607000D03*
X141183600Y-52517000D03*
%TD*%
%TO.C,R11*%
X143418800Y-62854800D03*
X143418800Y-61944800D03*
%TD*%
%TO.C,R10*%
X142606000Y-61944800D03*
X142606000Y-62854800D03*
%TD*%
%TO.C,R7*%
X137703800Y-52491600D03*
X137703800Y-51581600D03*
%TD*%
%TO.C,R6*%
X136891000Y-52491600D03*
X136891000Y-51581600D03*
%TD*%
%TO.C,L9*%
G36*
G01*
X124753600Y-52866200D02*
X125254000Y-52866200D01*
G75*
G02*
X125489200Y-53101400I0J-235200D01*
G01*
X125489200Y-53571800D01*
G75*
G02*
X125254000Y-53807000I-235200J0D01*
G01*
X124753600Y-53807000D01*
G75*
G02*
X124518400Y-53571800I0J235200D01*
G01*
X124518400Y-53101400D01*
G75*
G02*
X124753600Y-52866200I235200J0D01*
G01*
G37*
G36*
G01*
X124753600Y-51536200D02*
X125254000Y-51536200D01*
G75*
G02*
X125489200Y-51771400I0J-235200D01*
G01*
X125489200Y-52241800D01*
G75*
G02*
X125254000Y-52477000I-235200J0D01*
G01*
X124753600Y-52477000D01*
G75*
G02*
X124518400Y-52241800I0J235200D01*
G01*
X124518400Y-51771400D01*
G75*
G02*
X124753600Y-51536200I235200J0D01*
G01*
G37*
%TD*%
%TO.C,L3*%
G36*
G01*
X133750000Y-53462800D02*
X133750000Y-53963200D01*
G75*
G02*
X133514800Y-54198400I-235200J0D01*
G01*
X133044400Y-54198400D01*
G75*
G02*
X132809200Y-53963200I0J235200D01*
G01*
X132809200Y-53462800D01*
G75*
G02*
X133044400Y-53227600I235200J0D01*
G01*
X133514800Y-53227600D01*
G75*
G02*
X133750000Y-53462800I0J-235200D01*
G01*
G37*
G36*
G01*
X135080000Y-53462800D02*
X135080000Y-53963200D01*
G75*
G02*
X134844800Y-54198400I-235200J0D01*
G01*
X134374400Y-54198400D01*
G75*
G02*
X134139200Y-53963200I0J235200D01*
G01*
X134139200Y-53462800D01*
G75*
G02*
X134374400Y-53227600I235200J0D01*
G01*
X134844800Y-53227600D01*
G75*
G02*
X135080000Y-53462800I0J-235200D01*
G01*
G37*
%TD*%
%TO.C,L2*%
G36*
G01*
X140023800Y-62403600D02*
X140023800Y-62904000D01*
G75*
G02*
X139788600Y-63139200I-235200J0D01*
G01*
X139318200Y-63139200D01*
G75*
G02*
X139083000Y-62904000I0J235200D01*
G01*
X139083000Y-62403600D01*
G75*
G02*
X139318200Y-62168400I235200J0D01*
G01*
X139788600Y-62168400D01*
G75*
G02*
X140023800Y-62403600I0J-235200D01*
G01*
G37*
G36*
G01*
X141353800Y-62403600D02*
X141353800Y-62904000D01*
G75*
G02*
X141118600Y-63139200I-235200J0D01*
G01*
X140648200Y-63139200D01*
G75*
G02*
X140413000Y-62904000I0J235200D01*
G01*
X140413000Y-62403600D01*
G75*
G02*
X140648200Y-62168400I235200J0D01*
G01*
X141118600Y-62168400D01*
G75*
G02*
X141353800Y-62403600I0J-235200D01*
G01*
G37*
%TD*%
%TO.C,L1*%
G36*
G01*
X142233600Y-57984000D02*
X142233600Y-58484400D01*
G75*
G02*
X141998400Y-58719600I-235200J0D01*
G01*
X141528000Y-58719600D01*
G75*
G02*
X141292800Y-58484400I0J235200D01*
G01*
X141292800Y-57984000D01*
G75*
G02*
X141528000Y-57748800I235200J0D01*
G01*
X141998400Y-57748800D01*
G75*
G02*
X142233600Y-57984000I0J-235200D01*
G01*
G37*
G36*
G01*
X143563600Y-57984000D02*
X143563600Y-58484400D01*
G75*
G02*
X143328400Y-58719600I-235200J0D01*
G01*
X142858000Y-58719600D01*
G75*
G02*
X142622800Y-58484400I0J235200D01*
G01*
X142622800Y-57984000D01*
G75*
G02*
X142858000Y-57748800I235200J0D01*
G01*
X143328400Y-57748800D01*
G75*
G02*
X143563600Y-57984000I0J-235200D01*
G01*
G37*
%TD*%
D17*
%TO.C,J7*%
X129804400Y-62882400D03*
%TD*%
%TO.C,J6*%
X127264400Y-62882400D03*
%TD*%
%TO.C,J5*%
X124724400Y-62882400D03*
%TD*%
%TO.C,J4*%
X122184400Y-62882400D03*
%TD*%
%TO.C,C57*%
G36*
G01*
X123883600Y-60566100D02*
X123883600Y-60931500D01*
G75*
G02*
X123725900Y-61089200I-157700J0D01*
G01*
X123410500Y-61089200D01*
G75*
G02*
X123252800Y-60931500I0J157700D01*
G01*
X123252800Y-60566100D01*
G75*
G02*
X123410500Y-60408400I157700J0D01*
G01*
X123725900Y-60408400D01*
G75*
G02*
X123883600Y-60566100I0J-157700D01*
G01*
G37*
G36*
G01*
X124773600Y-60566100D02*
X124773600Y-60931500D01*
G75*
G02*
X124615900Y-61089200I-157700J0D01*
G01*
X124300500Y-61089200D01*
G75*
G02*
X124142800Y-60931500I0J157700D01*
G01*
X124142800Y-60566100D01*
G75*
G02*
X124300500Y-60408400I157700J0D01*
G01*
X124615900Y-60408400D01*
G75*
G02*
X124773600Y-60566100I0J-157700D01*
G01*
G37*
%TD*%
%TO.C,C56*%
G36*
G01*
X120817700Y-55361400D02*
X120452300Y-55361400D01*
G75*
G02*
X120294600Y-55203700I0J157700D01*
G01*
X120294600Y-54888300D01*
G75*
G02*
X120452300Y-54730600I157700J0D01*
G01*
X120817700Y-54730600D01*
G75*
G02*
X120975400Y-54888300I0J-157700D01*
G01*
X120975400Y-55203700D01*
G75*
G02*
X120817700Y-55361400I-157700J0D01*
G01*
G37*
G36*
G01*
X120817700Y-56251400D02*
X120452300Y-56251400D01*
G75*
G02*
X120294600Y-56093700I0J157700D01*
G01*
X120294600Y-55778300D01*
G75*
G02*
X120452300Y-55620600I157700J0D01*
G01*
X120817700Y-55620600D01*
G75*
G02*
X120975400Y-55778300I0J-157700D01*
G01*
X120975400Y-56093700D01*
G75*
G02*
X120817700Y-56251400I-157700J0D01*
G01*
G37*
%TD*%
%TO.C,C55*%
G36*
G01*
X124635200Y-57729300D02*
X124635200Y-58094700D01*
G75*
G02*
X124477500Y-58252400I-157700J0D01*
G01*
X124162100Y-58252400D01*
G75*
G02*
X124004400Y-58094700I0J157700D01*
G01*
X124004400Y-57729300D01*
G75*
G02*
X124162100Y-57571600I157700J0D01*
G01*
X124477500Y-57571600D01*
G75*
G02*
X124635200Y-57729300I0J-157700D01*
G01*
G37*
G36*
G01*
X125525200Y-57729300D02*
X125525200Y-58094700D01*
G75*
G02*
X125367500Y-58252400I-157700J0D01*
G01*
X125052100Y-58252400D01*
G75*
G02*
X124894400Y-58094700I0J157700D01*
G01*
X124894400Y-57729300D01*
G75*
G02*
X125052100Y-57571600I157700J0D01*
G01*
X125367500Y-57571600D01*
G75*
G02*
X125525200Y-57729300I0J-157700D01*
G01*
G37*
%TD*%
%TO.C,C52*%
G36*
G01*
X124645600Y-58635700D02*
X124645600Y-59001100D01*
G75*
G02*
X124487900Y-59158800I-157700J0D01*
G01*
X124172500Y-59158800D01*
G75*
G02*
X124014800Y-59001100I0J157700D01*
G01*
X124014800Y-58635700D01*
G75*
G02*
X124172500Y-58478000I157700J0D01*
G01*
X124487900Y-58478000D01*
G75*
G02*
X124645600Y-58635700I0J-157700D01*
G01*
G37*
G36*
G01*
X125535600Y-58635700D02*
X125535600Y-59001100D01*
G75*
G02*
X125377900Y-59158800I-157700J0D01*
G01*
X125062500Y-59158800D01*
G75*
G02*
X124904800Y-59001100I0J157700D01*
G01*
X124904800Y-58635700D01*
G75*
G02*
X125062500Y-58478000I157700J0D01*
G01*
X125377900Y-58478000D01*
G75*
G02*
X125535600Y-58635700I0J-157700D01*
G01*
G37*
%TD*%
%TO.C,C51*%
G36*
G01*
X124647400Y-55925900D02*
X124647400Y-56291300D01*
G75*
G02*
X124489700Y-56449000I-157700J0D01*
G01*
X124174300Y-56449000D01*
G75*
G02*
X124016600Y-56291300I0J157700D01*
G01*
X124016600Y-55925900D01*
G75*
G02*
X124174300Y-55768200I157700J0D01*
G01*
X124489700Y-55768200D01*
G75*
G02*
X124647400Y-55925900I0J-157700D01*
G01*
G37*
G36*
G01*
X125537400Y-55925900D02*
X125537400Y-56291300D01*
G75*
G02*
X125379700Y-56449000I-157700J0D01*
G01*
X125064300Y-56449000D01*
G75*
G02*
X124906600Y-56291300I0J157700D01*
G01*
X124906600Y-55925900D01*
G75*
G02*
X125064300Y-55768200I157700J0D01*
G01*
X125379700Y-55768200D01*
G75*
G02*
X125537400Y-55925900I0J-157700D01*
G01*
G37*
%TD*%
%TO.C,C50*%
G36*
G01*
X128590100Y-58511000D02*
X128224700Y-58511000D01*
G75*
G02*
X128067000Y-58353300I0J157700D01*
G01*
X128067000Y-58037900D01*
G75*
G02*
X128224700Y-57880200I157700J0D01*
G01*
X128590100Y-57880200D01*
G75*
G02*
X128747800Y-58037900I0J-157700D01*
G01*
X128747800Y-58353300D01*
G75*
G02*
X128590100Y-58511000I-157700J0D01*
G01*
G37*
G36*
G01*
X128590100Y-59401000D02*
X128224700Y-59401000D01*
G75*
G02*
X128067000Y-59243300I0J157700D01*
G01*
X128067000Y-58927900D01*
G75*
G02*
X128224700Y-58770200I157700J0D01*
G01*
X128590100Y-58770200D01*
G75*
G02*
X128747800Y-58927900I0J-157700D01*
G01*
X128747800Y-59243300D01*
G75*
G02*
X128590100Y-59401000I-157700J0D01*
G01*
G37*
%TD*%
%TO.C,C49*%
G36*
G01*
X120452300Y-57373200D02*
X120817700Y-57373200D01*
G75*
G02*
X120975400Y-57530900I0J-157700D01*
G01*
X120975400Y-57846300D01*
G75*
G02*
X120817700Y-58004000I-157700J0D01*
G01*
X120452300Y-58004000D01*
G75*
G02*
X120294600Y-57846300I0J157700D01*
G01*
X120294600Y-57530900D01*
G75*
G02*
X120452300Y-57373200I157700J0D01*
G01*
G37*
G36*
G01*
X120452300Y-56483200D02*
X120817700Y-56483200D01*
G75*
G02*
X120975400Y-56640900I0J-157700D01*
G01*
X120975400Y-56956300D01*
G75*
G02*
X120817700Y-57114000I-157700J0D01*
G01*
X120452300Y-57114000D01*
G75*
G02*
X120294600Y-56956300I0J157700D01*
G01*
X120294600Y-56640900D01*
G75*
G02*
X120452300Y-56483200I157700J0D01*
G01*
G37*
%TD*%
%TO.C,C48*%
G36*
G01*
X124634700Y-56827600D02*
X124634700Y-57193000D01*
G75*
G02*
X124477000Y-57350700I-157700J0D01*
G01*
X124161600Y-57350700D01*
G75*
G02*
X124003900Y-57193000I0J157700D01*
G01*
X124003900Y-56827600D01*
G75*
G02*
X124161600Y-56669900I157700J0D01*
G01*
X124477000Y-56669900D01*
G75*
G02*
X124634700Y-56827600I0J-157700D01*
G01*
G37*
G36*
G01*
X125524700Y-56827600D02*
X125524700Y-57193000D01*
G75*
G02*
X125367000Y-57350700I-157700J0D01*
G01*
X125051600Y-57350700D01*
G75*
G02*
X124893900Y-57193000I0J157700D01*
G01*
X124893900Y-56827600D01*
G75*
G02*
X125051600Y-56669900I157700J0D01*
G01*
X125367000Y-56669900D01*
G75*
G02*
X125524700Y-56827600I0J-157700D01*
G01*
G37*
%TD*%
%TO.C,C46*%
G36*
G01*
X124119700Y-52923000D02*
X123754300Y-52923000D01*
G75*
G02*
X123596600Y-52765300I0J157700D01*
G01*
X123596600Y-52449900D01*
G75*
G02*
X123754300Y-52292200I157700J0D01*
G01*
X124119700Y-52292200D01*
G75*
G02*
X124277400Y-52449900I0J-157700D01*
G01*
X124277400Y-52765300D01*
G75*
G02*
X124119700Y-52923000I-157700J0D01*
G01*
G37*
G36*
G01*
X124119700Y-53813000D02*
X123754300Y-53813000D01*
G75*
G02*
X123596600Y-53655300I0J157700D01*
G01*
X123596600Y-53339900D01*
G75*
G02*
X123754300Y-53182200I157700J0D01*
G01*
X124119700Y-53182200D01*
G75*
G02*
X124277400Y-53339900I0J-157700D01*
G01*
X124277400Y-53655300D01*
G75*
G02*
X124119700Y-53813000I-157700J0D01*
G01*
G37*
%TD*%
%TO.C,C41*%
G36*
G01*
X148606400Y-57869700D02*
X149096800Y-57869700D01*
G75*
G02*
X149312000Y-58084900I0J-215200D01*
G01*
X149312000Y-58515300D01*
G75*
G02*
X149096800Y-58730500I-215200J0D01*
G01*
X148606400Y-58730500D01*
G75*
G02*
X148391200Y-58515300I0J215200D01*
G01*
X148391200Y-58084900D01*
G75*
G02*
X148606400Y-57869700I215200J0D01*
G01*
G37*
G36*
G01*
X148606400Y-56509700D02*
X149096800Y-56509700D01*
G75*
G02*
X149312000Y-56724900I0J-215200D01*
G01*
X149312000Y-57155300D01*
G75*
G02*
X149096800Y-57370500I-215200J0D01*
G01*
X148606400Y-57370500D01*
G75*
G02*
X148391200Y-57155300I0J215200D01*
G01*
X148391200Y-56724900D01*
G75*
G02*
X148606400Y-56509700I215200J0D01*
G01*
G37*
%TD*%
%TO.C,C37*%
G36*
G01*
X147115200Y-57887900D02*
X147605600Y-57887900D01*
G75*
G02*
X147820800Y-58103100I0J-215200D01*
G01*
X147820800Y-58533500D01*
G75*
G02*
X147605600Y-58748700I-215200J0D01*
G01*
X147115200Y-58748700D01*
G75*
G02*
X146900000Y-58533500I0J215200D01*
G01*
X146900000Y-58103100D01*
G75*
G02*
X147115200Y-57887900I215200J0D01*
G01*
G37*
G36*
G01*
X147115200Y-56527900D02*
X147605600Y-56527900D01*
G75*
G02*
X147820800Y-56743100I0J-215200D01*
G01*
X147820800Y-57173500D01*
G75*
G02*
X147605600Y-57388700I-215200J0D01*
G01*
X147115200Y-57388700D01*
G75*
G02*
X146900000Y-57173500I0J215200D01*
G01*
X146900000Y-56743100D01*
G75*
G02*
X147115200Y-56527900I215200J0D01*
G01*
G37*
%TD*%
%TO.C,C33*%
G36*
G01*
X133459400Y-56349700D02*
X133459400Y-56715100D01*
G75*
G02*
X133301700Y-56872800I-157700J0D01*
G01*
X132986300Y-56872800D01*
G75*
G02*
X132828600Y-56715100I0J157700D01*
G01*
X132828600Y-56349700D01*
G75*
G02*
X132986300Y-56192000I157700J0D01*
G01*
X133301700Y-56192000D01*
G75*
G02*
X133459400Y-56349700I0J-157700D01*
G01*
G37*
G36*
G01*
X134349400Y-56349700D02*
X134349400Y-56715100D01*
G75*
G02*
X134191700Y-56872800I-157700J0D01*
G01*
X133876300Y-56872800D01*
G75*
G02*
X133718600Y-56715100I0J157700D01*
G01*
X133718600Y-56349700D01*
G75*
G02*
X133876300Y-56192000I157700J0D01*
G01*
X134191700Y-56192000D01*
G75*
G02*
X134349400Y-56349700I0J-157700D01*
G01*
G37*
%TD*%
%TO.C,C32*%
G36*
G01*
X138724700Y-62270200D02*
X138359300Y-62270200D01*
G75*
G02*
X138201600Y-62112500I0J157700D01*
G01*
X138201600Y-61797100D01*
G75*
G02*
X138359300Y-61639400I157700J0D01*
G01*
X138724700Y-61639400D01*
G75*
G02*
X138882400Y-61797100I0J-157700D01*
G01*
X138882400Y-62112500D01*
G75*
G02*
X138724700Y-62270200I-157700J0D01*
G01*
G37*
G36*
G01*
X138724700Y-63160200D02*
X138359300Y-63160200D01*
G75*
G02*
X138201600Y-63002500I0J157700D01*
G01*
X138201600Y-62687100D01*
G75*
G02*
X138359300Y-62529400I157700J0D01*
G01*
X138724700Y-62529400D01*
G75*
G02*
X138882400Y-62687100I0J-157700D01*
G01*
X138882400Y-63002500D01*
G75*
G02*
X138724700Y-63160200I-157700J0D01*
G01*
G37*
%TD*%
%TO.C,C31*%
G36*
G01*
X141943000Y-60007300D02*
X141943000Y-60372700D01*
G75*
G02*
X141785300Y-60530400I-157700J0D01*
G01*
X141469900Y-60530400D01*
G75*
G02*
X141312200Y-60372700I0J157700D01*
G01*
X141312200Y-60007300D01*
G75*
G02*
X141469900Y-59849600I157700J0D01*
G01*
X141785300Y-59849600D01*
G75*
G02*
X141943000Y-60007300I0J-157700D01*
G01*
G37*
G36*
G01*
X142833000Y-60007300D02*
X142833000Y-60372700D01*
G75*
G02*
X142675300Y-60530400I-157700J0D01*
G01*
X142359900Y-60530400D01*
G75*
G02*
X142202200Y-60372700I0J157700D01*
G01*
X142202200Y-60007300D01*
G75*
G02*
X142359900Y-59849600I157700J0D01*
G01*
X142675300Y-59849600D01*
G75*
G02*
X142833000Y-60007300I0J-157700D01*
G01*
G37*
%TD*%
%TO.C,C29*%
G36*
G01*
X133434000Y-58661100D02*
X133434000Y-59026500D01*
G75*
G02*
X133276300Y-59184200I-157700J0D01*
G01*
X132960900Y-59184200D01*
G75*
G02*
X132803200Y-59026500I0J157700D01*
G01*
X132803200Y-58661100D01*
G75*
G02*
X132960900Y-58503400I157700J0D01*
G01*
X133276300Y-58503400D01*
G75*
G02*
X133434000Y-58661100I0J-157700D01*
G01*
G37*
G36*
G01*
X134324000Y-58661100D02*
X134324000Y-59026500D01*
G75*
G02*
X134166300Y-59184200I-157700J0D01*
G01*
X133850900Y-59184200D01*
G75*
G02*
X133693200Y-59026500I0J157700D01*
G01*
X133693200Y-58661100D01*
G75*
G02*
X133850900Y-58503400I157700J0D01*
G01*
X134166300Y-58503400D01*
G75*
G02*
X134324000Y-58661100I0J-157700D01*
G01*
G37*
%TD*%
%TO.C,C28*%
G36*
G01*
X140162700Y-52191600D02*
X140528100Y-52191600D01*
G75*
G02*
X140685800Y-52349300I0J-157700D01*
G01*
X140685800Y-52664700D01*
G75*
G02*
X140528100Y-52822400I-157700J0D01*
G01*
X140162700Y-52822400D01*
G75*
G02*
X140005000Y-52664700I0J157700D01*
G01*
X140005000Y-52349300D01*
G75*
G02*
X140162700Y-52191600I157700J0D01*
G01*
G37*
G36*
G01*
X140162700Y-51301600D02*
X140528100Y-51301600D01*
G75*
G02*
X140685800Y-51459300I0J-157700D01*
G01*
X140685800Y-51774700D01*
G75*
G02*
X140528100Y-51932400I-157700J0D01*
G01*
X140162700Y-51932400D01*
G75*
G02*
X140005000Y-51774700I0J157700D01*
G01*
X140005000Y-51459300D01*
G75*
G02*
X140162700Y-51301600I157700J0D01*
G01*
G37*
%TD*%
%TO.C,C26*%
G36*
G01*
X133459400Y-55460700D02*
X133459400Y-55826100D01*
G75*
G02*
X133301700Y-55983800I-157700J0D01*
G01*
X132986300Y-55983800D01*
G75*
G02*
X132828600Y-55826100I0J157700D01*
G01*
X132828600Y-55460700D01*
G75*
G02*
X132986300Y-55303000I157700J0D01*
G01*
X133301700Y-55303000D01*
G75*
G02*
X133459400Y-55460700I0J-157700D01*
G01*
G37*
G36*
G01*
X134349400Y-55460700D02*
X134349400Y-55826100D01*
G75*
G02*
X134191700Y-55983800I-157700J0D01*
G01*
X133876300Y-55983800D01*
G75*
G02*
X133718600Y-55826100I0J157700D01*
G01*
X133718600Y-55460700D01*
G75*
G02*
X133876300Y-55303000I157700J0D01*
G01*
X134191700Y-55303000D01*
G75*
G02*
X134349400Y-55460700I0J-157700D01*
G01*
G37*
%TD*%
%TO.C,C25*%
G36*
G01*
X137835700Y-62270200D02*
X137470300Y-62270200D01*
G75*
G02*
X137312600Y-62112500I0J157700D01*
G01*
X137312600Y-61797100D01*
G75*
G02*
X137470300Y-61639400I157700J0D01*
G01*
X137835700Y-61639400D01*
G75*
G02*
X137993400Y-61797100I0J-157700D01*
G01*
X137993400Y-62112500D01*
G75*
G02*
X137835700Y-62270200I-157700J0D01*
G01*
G37*
G36*
G01*
X137835700Y-63160200D02*
X137470300Y-63160200D01*
G75*
G02*
X137312600Y-63002500I0J157700D01*
G01*
X137312600Y-62687100D01*
G75*
G02*
X137470300Y-62529400I157700J0D01*
G01*
X137835700Y-62529400D01*
G75*
G02*
X137993400Y-62687100I0J-157700D01*
G01*
X137993400Y-63002500D01*
G75*
G02*
X137835700Y-63160200I-157700J0D01*
G01*
G37*
%TD*%
%TO.C,C24*%
G36*
G01*
X141943000Y-59118300D02*
X141943000Y-59483700D01*
G75*
G02*
X141785300Y-59641400I-157700J0D01*
G01*
X141469900Y-59641400D01*
G75*
G02*
X141312200Y-59483700I0J157700D01*
G01*
X141312200Y-59118300D01*
G75*
G02*
X141469900Y-58960600I157700J0D01*
G01*
X141785300Y-58960600D01*
G75*
G02*
X141943000Y-59118300I0J-157700D01*
G01*
G37*
G36*
G01*
X142833000Y-59118300D02*
X142833000Y-59483700D01*
G75*
G02*
X142675300Y-59641400I-157700J0D01*
G01*
X142359900Y-59641400D01*
G75*
G02*
X142202200Y-59483700I0J157700D01*
G01*
X142202200Y-59118300D01*
G75*
G02*
X142359900Y-58960600I157700J0D01*
G01*
X142675300Y-58960600D01*
G75*
G02*
X142833000Y-59118300I0J-157700D01*
G01*
G37*
%TD*%
%TO.C,C22*%
G36*
G01*
X133434000Y-57772100D02*
X133434000Y-58137500D01*
G75*
G02*
X133276300Y-58295200I-157700J0D01*
G01*
X132960900Y-58295200D01*
G75*
G02*
X132803200Y-58137500I0J157700D01*
G01*
X132803200Y-57772100D01*
G75*
G02*
X132960900Y-57614400I157700J0D01*
G01*
X133276300Y-57614400D01*
G75*
G02*
X133434000Y-57772100I0J-157700D01*
G01*
G37*
G36*
G01*
X134324000Y-57772100D02*
X134324000Y-58137500D01*
G75*
G02*
X134166300Y-58295200I-157700J0D01*
G01*
X133850900Y-58295200D01*
G75*
G02*
X133693200Y-58137500I0J157700D01*
G01*
X133693200Y-57772100D01*
G75*
G02*
X133850900Y-57614400I157700J0D01*
G01*
X134166300Y-57614400D01*
G75*
G02*
X134324000Y-57772100I0J-157700D01*
G01*
G37*
%TD*%
%TO.C,C21*%
G36*
G01*
X139273700Y-52191600D02*
X139639100Y-52191600D01*
G75*
G02*
X139796800Y-52349300I0J-157700D01*
G01*
X139796800Y-52664700D01*
G75*
G02*
X139639100Y-52822400I-157700J0D01*
G01*
X139273700Y-52822400D01*
G75*
G02*
X139116000Y-52664700I0J157700D01*
G01*
X139116000Y-52349300D01*
G75*
G02*
X139273700Y-52191600I157700J0D01*
G01*
G37*
G36*
G01*
X139273700Y-51301600D02*
X139639100Y-51301600D01*
G75*
G02*
X139796800Y-51459300I0J-157700D01*
G01*
X139796800Y-51774700D01*
G75*
G02*
X139639100Y-51932400I-157700J0D01*
G01*
X139273700Y-51932400D01*
G75*
G02*
X139116000Y-51774700I0J157700D01*
G01*
X139116000Y-51459300D01*
G75*
G02*
X139273700Y-51301600I157700J0D01*
G01*
G37*
%TD*%
%TO.C,C19*%
G36*
G01*
X133459400Y-54571700D02*
X133459400Y-54937100D01*
G75*
G02*
X133301700Y-55094800I-157700J0D01*
G01*
X132986300Y-55094800D01*
G75*
G02*
X132828600Y-54937100I0J157700D01*
G01*
X132828600Y-54571700D01*
G75*
G02*
X132986300Y-54414000I157700J0D01*
G01*
X133301700Y-54414000D01*
G75*
G02*
X133459400Y-54571700I0J-157700D01*
G01*
G37*
G36*
G01*
X134349400Y-54571700D02*
X134349400Y-54937100D01*
G75*
G02*
X134191700Y-55094800I-157700J0D01*
G01*
X133876300Y-55094800D01*
G75*
G02*
X133718600Y-54937100I0J157700D01*
G01*
X133718600Y-54571700D01*
G75*
G02*
X133876300Y-54414000I157700J0D01*
G01*
X134191700Y-54414000D01*
G75*
G02*
X134349400Y-54571700I0J-157700D01*
G01*
G37*
%TD*%
%TO.C,C18*%
G36*
G01*
X136946700Y-62270200D02*
X136581300Y-62270200D01*
G75*
G02*
X136423600Y-62112500I0J157700D01*
G01*
X136423600Y-61797100D01*
G75*
G02*
X136581300Y-61639400I157700J0D01*
G01*
X136946700Y-61639400D01*
G75*
G02*
X137104400Y-61797100I0J-157700D01*
G01*
X137104400Y-62112500D01*
G75*
G02*
X136946700Y-62270200I-157700J0D01*
G01*
G37*
G36*
G01*
X136946700Y-63160200D02*
X136581300Y-63160200D01*
G75*
G02*
X136423600Y-63002500I0J157700D01*
G01*
X136423600Y-62687100D01*
G75*
G02*
X136581300Y-62529400I157700J0D01*
G01*
X136946700Y-62529400D01*
G75*
G02*
X137104400Y-62687100I0J-157700D01*
G01*
X137104400Y-63002500D01*
G75*
G02*
X136946700Y-63160200I-157700J0D01*
G01*
G37*
%TD*%
%TO.C,C17*%
G36*
G01*
X141930800Y-60896300D02*
X141930800Y-61261700D01*
G75*
G02*
X141773100Y-61419400I-157700J0D01*
G01*
X141457700Y-61419400D01*
G75*
G02*
X141300000Y-61261700I0J157700D01*
G01*
X141300000Y-60896300D01*
G75*
G02*
X141457700Y-60738600I157700J0D01*
G01*
X141773100Y-60738600D01*
G75*
G02*
X141930800Y-60896300I0J-157700D01*
G01*
G37*
G36*
G01*
X142820800Y-60896300D02*
X142820800Y-61261700D01*
G75*
G02*
X142663100Y-61419400I-157700J0D01*
G01*
X142347700Y-61419400D01*
G75*
G02*
X142190000Y-61261700I0J157700D01*
G01*
X142190000Y-60896300D01*
G75*
G02*
X142347700Y-60738600I157700J0D01*
G01*
X142663100Y-60738600D01*
G75*
G02*
X142820800Y-60896300I0J-157700D01*
G01*
G37*
%TD*%
%TO.C,C16*%
G36*
G01*
X135870100Y-52191600D02*
X136235500Y-52191600D01*
G75*
G02*
X136393200Y-52349300I0J-157700D01*
G01*
X136393200Y-52664700D01*
G75*
G02*
X136235500Y-52822400I-157700J0D01*
G01*
X135870100Y-52822400D01*
G75*
G02*
X135712400Y-52664700I0J157700D01*
G01*
X135712400Y-52349300D01*
G75*
G02*
X135870100Y-52191600I157700J0D01*
G01*
G37*
G36*
G01*
X135870100Y-51301600D02*
X136235500Y-51301600D01*
G75*
G02*
X136393200Y-51459300I0J-157700D01*
G01*
X136393200Y-51774700D01*
G75*
G02*
X136235500Y-51932400I-157700J0D01*
G01*
X135870100Y-51932400D01*
G75*
G02*
X135712400Y-51774700I0J157700D01*
G01*
X135712400Y-51459300D01*
G75*
G02*
X135870100Y-51301600I157700J0D01*
G01*
G37*
%TD*%
%TO.C,C14*%
G36*
G01*
X138384700Y-52191600D02*
X138750100Y-52191600D01*
G75*
G02*
X138907800Y-52349300I0J-157700D01*
G01*
X138907800Y-52664700D01*
G75*
G02*
X138750100Y-52822400I-157700J0D01*
G01*
X138384700Y-52822400D01*
G75*
G02*
X138227000Y-52664700I0J157700D01*
G01*
X138227000Y-52349300D01*
G75*
G02*
X138384700Y-52191600I157700J0D01*
G01*
G37*
G36*
G01*
X138384700Y-51301600D02*
X138750100Y-51301600D01*
G75*
G02*
X138907800Y-51459300I0J-157700D01*
G01*
X138907800Y-51774700D01*
G75*
G02*
X138750100Y-51932400I-157700J0D01*
G01*
X138384700Y-51932400D01*
G75*
G02*
X138227000Y-51774700I0J157700D01*
G01*
X138227000Y-51459300D01*
G75*
G02*
X138384700Y-51301600I157700J0D01*
G01*
G37*
%TD*%
%TO.C,C5*%
G36*
G01*
X144465100Y-62270200D02*
X144099700Y-62270200D01*
G75*
G02*
X143942000Y-62112500I0J157700D01*
G01*
X143942000Y-61797100D01*
G75*
G02*
X144099700Y-61639400I157700J0D01*
G01*
X144465100Y-61639400D01*
G75*
G02*
X144622800Y-61797100I0J-157700D01*
G01*
X144622800Y-62112500D01*
G75*
G02*
X144465100Y-62270200I-157700J0D01*
G01*
G37*
G36*
G01*
X144465100Y-63160200D02*
X144099700Y-63160200D01*
G75*
G02*
X143942000Y-63002500I0J157700D01*
G01*
X143942000Y-62687100D01*
G75*
G02*
X144099700Y-62529400I157700J0D01*
G01*
X144465100Y-62529400D01*
G75*
G02*
X144622800Y-62687100I0J-157700D01*
G01*
X144622800Y-63002500D01*
G75*
G02*
X144465100Y-63160200I-157700J0D01*
G01*
G37*
%TD*%
M02*
