%TF.GenerationSoftware,KiCad,Pcbnew,(5.1.6)-1*%
%TF.CreationDate,2020-08-10T23:20:37-07:00*%
%TF.ProjectId,Wire-Free-DAQ,57697265-2d46-4726-9565-2d4441512e6b,rev?*%
%TF.SameCoordinates,Original*%
%TF.FileFunction,Copper,L1,Top*%
%TF.FilePolarity,Positive*%
%FSLAX46Y46*%
G04 Gerber Fmt 4.6, Leading zero omitted, Abs format (unit mm)*
G04 Created by KiCad (PCBNEW (5.1.6)-1) date 2020-08-10 23:20:37*
%MOMM*%
%LPD*%
G01*
G04 APERTURE LIST*
%TA.AperFunction,SMDPad,CuDef*%
%ADD10R,4.100000X4.100000*%
%TD*%
%TA.AperFunction,SMDPad,CuDef*%
%ADD11R,0.780000X0.260000*%
%TD*%
%TA.AperFunction,SMDPad,CuDef*%
%ADD12R,0.260000X0.780000*%
%TD*%
%TA.AperFunction,SMDPad,CuDef*%
%ADD13R,1.060000X0.650000*%
%TD*%
%TA.AperFunction,SMDPad,CuDef*%
%ADD14C,0.370000*%
%TD*%
%TA.AperFunction,SMDPad,CuDef*%
%ADD15R,0.260000X0.660000*%
%TD*%
%TA.AperFunction,SMDPad,CuDef*%
%ADD16R,0.400000X0.500000*%
%TD*%
%TA.AperFunction,SMDPad,CuDef*%
%ADD17R,1.050000X2.200000*%
%TD*%
%TA.AperFunction,SMDPad,CuDef*%
%ADD18R,1.000000X1.050000*%
%TD*%
%TA.AperFunction,SMDPad,CuDef*%
%ADD19R,1.400000X1.200000*%
%TD*%
%TA.AperFunction,SMDPad,CuDef*%
%ADD20R,1.200000X2.000000*%
%TD*%
%TA.AperFunction,SMDPad,CuDef*%
%ADD21R,0.560000X0.490000*%
%TD*%
%TA.AperFunction,SMDPad,CuDef*%
%ADD22R,0.490000X0.560000*%
%TD*%
%TA.AperFunction,SMDPad,CuDef*%
%ADD23R,3.400000X1.000000*%
%TD*%
%TA.AperFunction,SMDPad,CuDef*%
%ADD24R,2.620000X0.870000*%
%TD*%
%TA.AperFunction,SMDPad,CuDef*%
%ADD25R,3.130000X1.470000*%
%TD*%
%TA.AperFunction,SMDPad,CuDef*%
%ADD26R,1.400000X0.900000*%
%TD*%
%TA.AperFunction,SMDPad,CuDef*%
%ADD27R,1.000000X0.700000*%
%TD*%
%TA.AperFunction,SMDPad,CuDef*%
%ADD28R,1.450000X1.200000*%
%TD*%
%TA.AperFunction,SMDPad,CuDef*%
%ADD29R,0.700000X1.000000*%
%TD*%
%TA.AperFunction,SMDPad,CuDef*%
%ADD30R,1.150000X1.200000*%
%TD*%
%TA.AperFunction,ViaPad*%
%ADD31C,0.450000*%
%TD*%
%TA.AperFunction,Conductor*%
%ADD32C,0.152400*%
%TD*%
%TA.AperFunction,Conductor*%
%ADD33C,0.508000*%
%TD*%
%TA.AperFunction,Conductor*%
%ADD34C,0.203200*%
%TD*%
%TA.AperFunction,Conductor*%
%ADD35C,0.304800*%
%TD*%
%TA.AperFunction,Conductor*%
%ADD36C,0.635000*%
%TD*%
%TA.AperFunction,Conductor*%
%ADD37C,0.127000*%
%TD*%
G04 APERTURE END LIST*
D10*
%TO.P,U1,49*%
%TO.N,GND*%
X136506600Y-57209700D03*
D11*
%TO.P,U1,48*%
%TO.N,/Deserializer/LOCK*%
X139891600Y-54459700D03*
%TO.P,U1,47*%
%TO.N,Net-(U1-Pad47)*%
X139891600Y-54959700D03*
%TO.P,U1,46*%
%TO.N,/Deserializer/SEL*%
X139891600Y-55459700D03*
%TO.P,U1,45*%
%TO.N,/Deserializer/VDD18_P0*%
X139891600Y-55959700D03*
%TO.P,U1,44*%
%TO.N,GND*%
X139891600Y-56459700D03*
%TO.P,U1,43*%
X139891600Y-56959700D03*
%TO.P,U1,42*%
%TO.N,Net-(C3-Pad1)*%
X139891600Y-57459700D03*
%TO.P,U1,41*%
%TO.N,Net-(C2-Pad1)*%
X139891600Y-57959700D03*
%TO.P,U1,40*%
%TO.N,/Deserializer/VDD18_FPD0*%
X139891600Y-58459700D03*
%TO.P,U1,39*%
%TO.N,Net-(U1-Pad39)*%
X139891600Y-58959700D03*
%TO.P,U1,38*%
%TO.N,Net-(U1-Pad38)*%
X139891600Y-59459700D03*
%TO.P,U1,37*%
%TO.N,/Deserializer/MODE*%
X139891600Y-59959700D03*
D12*
%TO.P,U1,36*%
%TO.N,/Deserializer/VDD18_P0*%
X139256600Y-60594700D03*
%TO.P,U1,35*%
%TO.N,/Deserializer/IDX*%
X138756600Y-60594700D03*
%TO.P,U1,34*%
%TO.N,/Deserializer/VDD11_FPD*%
X138256600Y-60594700D03*
%TO.P,U1,33*%
%TO.N,Net-(U1-Pad33)*%
X137756600Y-60594700D03*
%TO.P,U1,32*%
%TO.N,Net-(U1-Pad32)*%
X137256600Y-60594700D03*
%TO.P,U1,31*%
%TO.N,/Deserializer/VDD18_FPD0*%
X136756600Y-60594700D03*
%TO.P,U1,30*%
%TO.N,/Deserializer/PDB*%
X136256600Y-60594700D03*
%TO.P,U1,29*%
%TO.N,+3V3*%
X135756600Y-60594700D03*
%TO.P,U1,28*%
%TO.N,/Deserializer/GPIO0*%
X135256600Y-60594700D03*
%TO.P,U1,27*%
%TO.N,/Deserializer/GPIO1*%
X134756600Y-60594700D03*
%TO.P,U1,26*%
%TO.N,/Deserializer/GPIO2*%
X134256600Y-60594700D03*
%TO.P,U1,25*%
%TO.N,/Deserializer/GPIO3*%
X133756600Y-60594700D03*
D11*
%TO.P,U1,24*%
%TO.N,/Deserializer/ROUT0*%
X133121600Y-59959700D03*
%TO.P,U1,23*%
%TO.N,/Deserializer/ROUT1*%
X133121600Y-59459700D03*
%TO.P,U1,22*%
%TO.N,/Deserializer/ROUT2*%
X133121600Y-58959700D03*
%TO.P,U1,21*%
%TO.N,/Deserializer/ROUT3*%
X133121600Y-58459700D03*
%TO.P,U1,20*%
%TO.N,/Deserializer/VDD11_DVP*%
X133121600Y-57959700D03*
%TO.P,U1,19*%
%TO.N,/Deserializer/ROUT4*%
X133121600Y-57459700D03*
%TO.P,U1,18*%
%TO.N,/Deserializer/ROUT5*%
X133121600Y-56959700D03*
%TO.P,U1,17*%
%TO.N,/Deserializer/VDD18*%
X133121600Y-56459700D03*
%TO.P,U1,16*%
%TO.N,/Deserializer/ROUT6*%
X133121600Y-55959700D03*
%TO.P,U1,15*%
%TO.N,/Deserializer/ROUT7*%
X133121600Y-55459700D03*
%TO.P,U1,14*%
%TO.N,/Deserializer/ROUT8*%
X133121600Y-54959700D03*
%TO.P,U1,13*%
%TO.N,/Deserializer/ROUT9*%
X133121600Y-54459700D03*
D12*
%TO.P,U1,12*%
%TO.N,/Deserializer/ROUT10*%
X133756600Y-53824700D03*
%TO.P,U1,11*%
%TO.N,/Deserializer/ROUT11*%
X134256600Y-53824700D03*
%TO.P,U1,10*%
%TO.N,/Deserializer/HSYNC*%
X134756600Y-53824700D03*
%TO.P,U1,9*%
%TO.N,/Deserializer/VSYNC*%
X135256600Y-53824700D03*
%TO.P,U1,8*%
%TO.N,/Deserializer/PCLK*%
X135756600Y-53824700D03*
%TO.P,U1,7*%
%TO.N,+3V3*%
X136256600Y-53824700D03*
%TO.P,U1,6*%
%TO.N,Net-(U1-Pad6)*%
X136756600Y-53824700D03*
%TO.P,U1,5*%
%TO.N,/Deserializer/OEN*%
X137256600Y-53824700D03*
%TO.P,U1,4*%
%TO.N,/Deserializer/OSS_SEL*%
X137756600Y-53824700D03*
%TO.P,U1,3*%
%TO.N,/Deserializer/VDD11_D*%
X138256600Y-53824700D03*
%TO.P,U1,2*%
%TO.N,/Deserializer/I2C_SCL*%
X138756600Y-53824700D03*
%TO.P,U1,1*%
%TO.N,/Deserializer/I2C_SDA*%
X139256600Y-53824700D03*
%TD*%
%TO.P,J1,MP*%
%TO.N,GND*%
%TA.AperFunction,SMDPad,CuDef*%
G36*
G01*
X121822600Y-44685599D02*
X121822600Y-45985601D01*
G75*
G02*
X121572601Y-46235600I-249999J0D01*
G01*
X120872599Y-46235600D01*
G75*
G02*
X120622600Y-45985601I0J249999D01*
G01*
X120622600Y-44685599D01*
G75*
G02*
X120872599Y-44435600I249999J0D01*
G01*
X121572601Y-44435600D01*
G75*
G02*
X121822600Y-44685599I0J-249999D01*
G01*
G37*
%TD.AperFunction*%
%TA.AperFunction,SMDPad,CuDef*%
G36*
G01*
X125422600Y-44685599D02*
X125422600Y-45985601D01*
G75*
G02*
X125172601Y-46235600I-249999J0D01*
G01*
X124472599Y-46235600D01*
G75*
G02*
X124222600Y-45985601I0J249999D01*
G01*
X124222600Y-44685599D01*
G75*
G02*
X124472599Y-44435600I249999J0D01*
G01*
X125172601Y-44435600D01*
G75*
G02*
X125422600Y-44685599I0J-249999D01*
G01*
G37*
%TD.AperFunction*%
%TO.P,J1,2*%
%TA.AperFunction,SMDPad,CuDef*%
G36*
G01*
X122822600Y-48585600D02*
X122822600Y-49835600D01*
G75*
G02*
X122672600Y-49985600I-150000J0D01*
G01*
X122372600Y-49985600D01*
G75*
G02*
X122222600Y-49835600I0J150000D01*
G01*
X122222600Y-48585600D01*
G75*
G02*
X122372600Y-48435600I150000J0D01*
G01*
X122672600Y-48435600D01*
G75*
G02*
X122822600Y-48585600I0J-150000D01*
G01*
G37*
%TD.AperFunction*%
%TO.P,J1,1*%
%TO.N,+BATT*%
%TA.AperFunction,SMDPad,CuDef*%
G36*
G01*
X123822600Y-48585600D02*
X123822600Y-49835600D01*
G75*
G02*
X123672600Y-49985600I-150000J0D01*
G01*
X123372600Y-49985600D01*
G75*
G02*
X123222600Y-49835600I0J150000D01*
G01*
X123222600Y-48585600D01*
G75*
G02*
X123372600Y-48435600I150000J0D01*
G01*
X123672600Y-48435600D01*
G75*
G02*
X123822600Y-48585600I0J-150000D01*
G01*
G37*
%TD.AperFunction*%
%TD*%
%TO.P,C62,2*%
%TO.N,GND*%
%TA.AperFunction,SMDPad,CuDef*%
G36*
G01*
X129825900Y-51143200D02*
X130290900Y-51143200D01*
G75*
G02*
X130493400Y-51345700I0J-202500D01*
G01*
X130493400Y-51750700D01*
G75*
G02*
X130290900Y-51953200I-202500J0D01*
G01*
X129825900Y-51953200D01*
G75*
G02*
X129623400Y-51750700I0J202500D01*
G01*
X129623400Y-51345700D01*
G75*
G02*
X129825900Y-51143200I202500J0D01*
G01*
G37*
%TD.AperFunction*%
%TO.P,C62,1*%
%TO.N,+3V3*%
%TA.AperFunction,SMDPad,CuDef*%
G36*
G01*
X129825900Y-49783200D02*
X130290900Y-49783200D01*
G75*
G02*
X130493400Y-49985700I0J-202500D01*
G01*
X130493400Y-50390700D01*
G75*
G02*
X130290900Y-50593200I-202500J0D01*
G01*
X129825900Y-50593200D01*
G75*
G02*
X129623400Y-50390700I0J202500D01*
G01*
X129623400Y-49985700D01*
G75*
G02*
X129825900Y-49783200I202500J0D01*
G01*
G37*
%TD.AperFunction*%
%TD*%
D13*
%TO.P,U5,5*%
%TO.N,Net-(R28-Pad1)*%
X139118400Y-52377000D03*
%TO.P,U5,4*%
%TO.N,+5V*%
X139118400Y-50477000D03*
%TO.P,U5,3*%
%TO.N,+BATT*%
X141318400Y-50477000D03*
%TO.P,U5,2*%
%TO.N,GND*%
X141318400Y-51427000D03*
%TO.P,U5,1*%
%TO.N,/MCU/CHR_STAT*%
X141318400Y-52377000D03*
%TD*%
D14*
%TO.P,U4,K10*%
%TO.N,/Deserializer/ROUT8*%
X129594400Y-62621600D03*
%TO.P,U4,K9*%
%TO.N,/Deserializer/ROUT6*%
X128794400Y-62621600D03*
%TO.P,U4,K8*%
%TO.N,/MCU/DAT2*%
X127994400Y-62621600D03*
%TO.P,U4,K7*%
%TO.N,Net-(U4-PadK7)*%
X127194400Y-62621600D03*
%TO.P,U4,K6*%
%TO.N,/MCU/IR_REV*%
X126394400Y-62621600D03*
%TO.P,U4,K5*%
%TO.N,Net-(U4-PadK5)*%
X125594400Y-62621600D03*
%TO.P,U4,K4*%
%TO.N,/MCU/STATUS_LED*%
X124794400Y-62621600D03*
%TO.P,U4,K3*%
%TO.N,/MCU/MISO*%
X123994400Y-62621600D03*
%TO.P,U4,K2*%
%TO.N,Net-(U4-PadK2)*%
X123194400Y-62621600D03*
%TO.P,U4,K1*%
%TO.N,Net-(U4-PadK1)*%
X122394400Y-62621600D03*
%TO.P,U4,J10*%
%TO.N,Net-(U4-PadJ10)*%
X129594400Y-61821600D03*
%TO.P,U4,J9*%
%TO.N,/Deserializer/ROUT5*%
X128794400Y-61821600D03*
%TO.P,U4,J8*%
%TO.N,/Deserializer/ROUT7*%
X127994400Y-61821600D03*
%TO.P,U4,J7*%
%TO.N,Net-(U4-PadJ7)*%
X127194400Y-61821600D03*
%TO.P,U4,J6*%
%TO.N,Net-(U4-PadJ6)*%
X126394400Y-61821600D03*
%TO.P,U4,J5*%
%TO.N,Net-(U4-PadJ5)*%
X125594400Y-61821600D03*
%TO.P,U4,J4*%
%TO.N,/MCU/SCK*%
X124794400Y-61821600D03*
%TO.P,U4,J3*%
%TO.N,/Deserializer/PCLK*%
X123994400Y-61821600D03*
%TO.P,U4,J2*%
%TO.N,Net-(U4-PadJ2)*%
X123194400Y-61821600D03*
%TO.P,U4,J1*%
%TO.N,/Deserializer/HSYNC*%
X122394400Y-61821600D03*
%TO.P,U4,H10*%
%TO.N,/Deserializer/ROUT3*%
X129594400Y-61021600D03*
%TO.P,U4,H9*%
%TO.N,/Deserializer/ROUT4*%
X128794400Y-61021600D03*
%TO.P,U4,H8*%
%TO.N,/MCU/DAT3*%
X127994400Y-61021600D03*
%TO.P,U4,H7*%
%TO.N,/MCU/CLK*%
X127194400Y-61021600D03*
%TO.P,U4,H6*%
%TO.N,/Deserializer/VSYNC*%
X126394400Y-61021600D03*
%TO.P,U4,H5*%
%TO.N,/MCU/MOSI*%
X125594400Y-61021600D03*
%TO.P,U4,H4*%
%TO.N,Net-(U4-PadH4)*%
X124794400Y-61021600D03*
%TO.P,U4,H3*%
%TO.N,/MCU/SS_N*%
X123994400Y-61021600D03*
%TO.P,U4,H2*%
%TO.N,Net-(U4-PadH2)*%
X123194400Y-61021600D03*
%TO.P,U4,H1*%
%TO.N,/MCU/IR_OUT*%
X122394400Y-61021600D03*
%TO.P,U4,G10*%
%TO.N,Net-(U4-PadG10)*%
X129594400Y-60221600D03*
%TO.P,U4,G9*%
%TO.N,Net-(U4-PadG9)*%
X128794400Y-60221600D03*
%TO.P,U4,G8*%
%TO.N,/MCU/SWDIO*%
X127994400Y-60221600D03*
%TO.P,U4,G7*%
%TO.N,+3V3*%
X127194400Y-60221600D03*
%TO.P,U4,G6*%
%TO.N,+1V2*%
X126394400Y-60221600D03*
%TO.P,U4,G5*%
%TO.N,/Deserializer/ROUT9*%
X125594400Y-60221600D03*
%TO.P,U4,G4*%
%TO.N,Net-(U4-PadG4)*%
X124794400Y-60221600D03*
%TO.P,U4,G3*%
%TO.N,Net-(U4-PadG3)*%
X123994400Y-60221600D03*
%TO.P,U4,G2*%
%TO.N,/Deserializer/GPIO3*%
X123194400Y-60221600D03*
%TO.P,U4,G1*%
%TO.N,/Deserializer/GPIO1*%
X122394400Y-60221600D03*
%TO.P,U4,F10*%
%TO.N,Net-(U4-PadF10)*%
X129594400Y-59421600D03*
%TO.P,U4,F9*%
%TO.N,/Deserializer/ROUT2*%
X128794400Y-59421600D03*
%TO.P,U4,F8*%
%TO.N,Net-(U4-PadF8)*%
X127994400Y-59421600D03*
%TO.P,U4,F7*%
%TO.N,Net-(U4-PadF7)*%
X127194400Y-59421600D03*
%TO.P,U4,F6*%
%TO.N,GND*%
X126394400Y-59421600D03*
%TO.P,U4,F5*%
X125594400Y-59421600D03*
%TO.P,U4,F4*%
X124794400Y-59421600D03*
%TO.P,U4,F3*%
%TO.N,+3V3*%
X123994400Y-59421600D03*
%TO.P,U4,F2*%
%TO.N,/Deserializer/GPIO2*%
X123194400Y-59421600D03*
%TO.P,U4,F1*%
%TO.N,/Deserializer/GPIO0*%
X122394400Y-59421600D03*
%TO.P,U4,E10*%
%TO.N,Net-(U4-PadE10)*%
X129594400Y-58621600D03*
%TO.P,U4,E9*%
%TO.N,/MCU/SWDCLK*%
X128794400Y-58621600D03*
%TO.P,U4,E8*%
%TO.N,Net-(U4-PadE8)*%
X127994400Y-58621600D03*
%TO.P,U4,E7*%
%TO.N,GND*%
X127194400Y-58621600D03*
%TO.P,U4,E6*%
%TO.N,/MCU/VDDPLLUSB*%
X126394400Y-58621600D03*
%TO.P,U4,E5*%
%TO.N,+3V3*%
X125594400Y-58621600D03*
%TO.P,U4,E4*%
%TO.N,GND*%
X124794400Y-58621600D03*
%TO.P,U4,E3*%
%TO.N,/MCU/LED_B*%
X123994400Y-58621600D03*
%TO.P,U4,E2*%
%TO.N,/MCU/RESET_N*%
X123194400Y-58621600D03*
%TO.P,U4,E1*%
%TO.N,/MCU/VBUS_DET*%
X122394400Y-58621600D03*
%TO.P,U4,D10*%
%TO.N,Net-(U4-PadD10)*%
X129594400Y-57821600D03*
%TO.P,U4,D9*%
%TO.N,Net-(U4-PadD9)*%
X128794400Y-57821600D03*
%TO.P,U4,D8*%
%TO.N,Net-(U4-PadD8)*%
X127994400Y-57821600D03*
%TO.P,U4,D7*%
%TO.N,/MCU/VDDPLL*%
X127194400Y-57821600D03*
%TO.P,U4,D6*%
%TO.N,+1V2*%
X126394400Y-57821600D03*
%TO.P,U4,D5*%
%TO.N,Net-(U4-PadD5)*%
X125594400Y-57821600D03*
%TO.P,U4,D4*%
%TO.N,GND*%
X124794400Y-57821600D03*
%TO.P,U4,D3*%
%TO.N,Net-(U4-PadD3)*%
X123994400Y-57821600D03*
%TO.P,U4,D2*%
%TO.N,/MCU/LED_G*%
X123194400Y-57821600D03*
%TO.P,U4,D1*%
%TO.N,Net-(U4-PadD1)*%
X122394400Y-57821600D03*
%TO.P,U4,C10*%
%TO.N,Net-(U4-PadC10)*%
X129594400Y-57021600D03*
%TO.P,U4,C9*%
%TO.N,Net-(U4-PadC9)*%
X128794400Y-57021600D03*
%TO.P,U4,C8*%
%TO.N,/Deserializer/I2C_SCL*%
X127994400Y-57021600D03*
%TO.P,U4,C7*%
%TO.N,/MCU/DAT0*%
X127194400Y-57021600D03*
%TO.P,U4,C6*%
%TO.N,+1V2*%
X126394400Y-57021600D03*
%TO.P,U4,C5*%
%TO.N,+3V3*%
X125594400Y-57021600D03*
%TO.P,U4,C4*%
%TO.N,GND*%
X124794400Y-57021600D03*
%TO.P,U4,C3*%
%TO.N,+1V2*%
X123994400Y-57021600D03*
%TO.P,U4,C2*%
%TO.N,+3V3*%
X123194400Y-57021600D03*
%TO.P,U4,C1*%
%TO.N,/MCU/LED_R*%
X122394400Y-57021600D03*
%TO.P,U4,B10*%
%TO.N,/MCU/CHR_STAT*%
X129594400Y-56221600D03*
%TO.P,U4,B9*%
%TO.N,/Deserializer/I2C_SDA*%
X128794400Y-56221600D03*
%TO.P,U4,B8*%
%TO.N,Net-(U4-PadB8)*%
X127994400Y-56221600D03*
%TO.P,U4,B7*%
%TO.N,Net-(U4-PadB7)*%
X127194400Y-56221600D03*
%TO.P,U4,B6*%
%TO.N,Net-(U4-PadB6)*%
X126394400Y-56221600D03*
%TO.P,U4,B5*%
%TO.N,Net-(U4-PadB5)*%
X125594400Y-56221600D03*
%TO.P,U4,B4*%
%TO.N,/MCU/D+*%
X124794400Y-56221600D03*
%TO.P,U4,B3*%
%TO.N,/MCU/VDDUTMIC*%
X123994400Y-56221600D03*
%TO.P,U4,B2*%
%TO.N,Net-(U4-PadB2)*%
X123194400Y-56221600D03*
%TO.P,U4,B1*%
%TO.N,Net-(U4-PadB1)*%
X122394400Y-56221600D03*
%TO.P,U4,A10*%
%TO.N,Net-(U4-PadA10)*%
X129594400Y-55421600D03*
%TO.P,U4,A9*%
%TO.N,/MCU/CMD*%
X128794400Y-55421600D03*
%TO.P,U4,A8*%
%TO.N,GND*%
X127994400Y-55421600D03*
%TO.P,U4,A7*%
%TO.N,/MCU/DAT1*%
X127194400Y-55421600D03*
%TO.P,U4,A6*%
%TO.N,/Deserializer/LOCK*%
X126394400Y-55421600D03*
%TO.P,U4,A5*%
%TO.N,Net-(U4-PadA5)*%
X125594400Y-55421600D03*
%TO.P,U4,A4*%
%TO.N,/MCU/D-*%
X124794400Y-55421600D03*
%TO.P,U4,A3*%
%TO.N,Net-(C58-Pad2)*%
X123994400Y-55421600D03*
%TO.P,U4,A2*%
%TO.N,/MCU/XOUT*%
X123194400Y-55421600D03*
%TO.P,U4,A1*%
%TO.N,/MCU/XIN*%
X122394400Y-55421600D03*
%TD*%
D15*
%TO.P,U2,10*%
%TO.N,Net-(L8-Pad1)*%
X145278500Y-47930000D03*
%TO.P,U2,9*%
%TO.N,+BATT*%
X144778500Y-47930000D03*
%TO.P,U2,8*%
%TO.N,GND*%
X144278500Y-47930000D03*
%TO.P,U2,7*%
%TO.N,+BATT*%
X143778500Y-47930000D03*
%TO.P,U2,6*%
%TO.N,Net-(L7-Pad1)*%
X143278500Y-47930000D03*
%TO.P,U2,5*%
%TO.N,+BATT*%
X143278500Y-45260000D03*
%TO.P,U2,4*%
%TO.N,+1V8*%
X143778500Y-45260000D03*
%TO.P,U2,3*%
%TO.N,+BATT*%
X144278500Y-45260000D03*
%TO.P,U2,2*%
%TO.N,GND*%
X144778500Y-45260000D03*
%TO.P,U2,1*%
%TO.N,+3V3*%
X145278500Y-45260000D03*
%TD*%
D16*
%TO.P,D1,4*%
%TO.N,Net-(D1-Pad4)*%
X120843800Y-50015000D03*
%TO.P,D1,3*%
%TO.N,Net-(D1-Pad3)*%
X121543800Y-50015000D03*
%TO.P,D1,2*%
%TO.N,Net-(D1-Pad2)*%
X121543800Y-51315000D03*
%TO.P,D1,1*%
%TO.N,+3V3*%
X120843800Y-51315000D03*
%TD*%
D17*
%TO.P,J3,2*%
%TO.N,GND*%
X148813000Y-61757200D03*
D18*
%TO.P,J3,1*%
%TO.N,/Deserializer/COAX+*%
X147338000Y-60232200D03*
D17*
%TO.P,J3,2*%
%TO.N,GND*%
X145863000Y-61757200D03*
%TD*%
D19*
%TO.P,Y1,4*%
%TO.N,GND*%
X123116400Y-51364400D03*
%TO.P,Y1,3*%
%TO.N,/MCU/XOUT*%
X125316400Y-51364400D03*
%TO.P,Y1,2*%
%TO.N,GND*%
X125316400Y-53064400D03*
%TO.P,Y1,1*%
%TO.N,/MCU/XIN*%
X123116400Y-53064400D03*
%TD*%
D20*
%TO.P,U3,11*%
%TO.N,GND*%
X143983000Y-52984400D03*
%TO.P,U3,10*%
%TO.N,Net-(R16-Pad1)*%
%TA.AperFunction,SMDPad,CuDef*%
G36*
G01*
X143183000Y-53921900D02*
X143183000Y-54046900D01*
G75*
G02*
X143120500Y-54109400I-62500J0D01*
G01*
X142420500Y-54109400D01*
G75*
G02*
X142358000Y-54046900I0J62500D01*
G01*
X142358000Y-53921900D01*
G75*
G02*
X142420500Y-53859400I62500J0D01*
G01*
X143120500Y-53859400D01*
G75*
G02*
X143183000Y-53921900I0J-62500D01*
G01*
G37*
%TD.AperFunction*%
%TO.P,U3,9*%
%TO.N,GND*%
%TA.AperFunction,SMDPad,CuDef*%
G36*
G01*
X143183000Y-53421900D02*
X143183000Y-53546900D01*
G75*
G02*
X143120500Y-53609400I-62500J0D01*
G01*
X142420500Y-53609400D01*
G75*
G02*
X142358000Y-53546900I0J62500D01*
G01*
X142358000Y-53421900D01*
G75*
G02*
X142420500Y-53359400I62500J0D01*
G01*
X143120500Y-53359400D01*
G75*
G02*
X143183000Y-53421900I0J-62500D01*
G01*
G37*
%TD.AperFunction*%
%TO.P,U3,8*%
%TO.N,Net-(C36-Pad1)*%
%TA.AperFunction,SMDPad,CuDef*%
G36*
G01*
X143183000Y-52921900D02*
X143183000Y-53046900D01*
G75*
G02*
X143120500Y-53109400I-62500J0D01*
G01*
X142420500Y-53109400D01*
G75*
G02*
X142358000Y-53046900I0J62500D01*
G01*
X142358000Y-52921900D01*
G75*
G02*
X142420500Y-52859400I62500J0D01*
G01*
X143120500Y-52859400D01*
G75*
G02*
X143183000Y-52921900I0J-62500D01*
G01*
G37*
%TD.AperFunction*%
%TO.P,U3,7*%
%TA.AperFunction,SMDPad,CuDef*%
G36*
G01*
X143183000Y-52421900D02*
X143183000Y-52546900D01*
G75*
G02*
X143120500Y-52609400I-62500J0D01*
G01*
X142420500Y-52609400D01*
G75*
G02*
X142358000Y-52546900I0J62500D01*
G01*
X142358000Y-52421900D01*
G75*
G02*
X142420500Y-52359400I62500J0D01*
G01*
X143120500Y-52359400D01*
G75*
G02*
X143183000Y-52421900I0J-62500D01*
G01*
G37*
%TD.AperFunction*%
%TO.P,U3,6*%
%TA.AperFunction,SMDPad,CuDef*%
G36*
G01*
X143183000Y-51921900D02*
X143183000Y-52046900D01*
G75*
G02*
X143120500Y-52109400I-62500J0D01*
G01*
X142420500Y-52109400D01*
G75*
G02*
X142358000Y-52046900I0J62500D01*
G01*
X142358000Y-51921900D01*
G75*
G02*
X142420500Y-51859400I62500J0D01*
G01*
X143120500Y-51859400D01*
G75*
G02*
X143183000Y-51921900I0J-62500D01*
G01*
G37*
%TD.AperFunction*%
%TO.P,U3,5*%
%TO.N,+BATT*%
%TA.AperFunction,SMDPad,CuDef*%
G36*
G01*
X145608000Y-51921900D02*
X145608000Y-52046900D01*
G75*
G02*
X145545500Y-52109400I-62500J0D01*
G01*
X144845500Y-52109400D01*
G75*
G02*
X144783000Y-52046900I0J62500D01*
G01*
X144783000Y-51921900D01*
G75*
G02*
X144845500Y-51859400I62500J0D01*
G01*
X145545500Y-51859400D01*
G75*
G02*
X145608000Y-51921900I0J-62500D01*
G01*
G37*
%TD.AperFunction*%
%TO.P,U3,4*%
%TO.N,Net-(L5-Pad1)*%
%TA.AperFunction,SMDPad,CuDef*%
G36*
G01*
X145608000Y-52421900D02*
X145608000Y-52546900D01*
G75*
G02*
X145545500Y-52609400I-62500J0D01*
G01*
X144845500Y-52609400D01*
G75*
G02*
X144783000Y-52546900I0J62500D01*
G01*
X144783000Y-52421900D01*
G75*
G02*
X144845500Y-52359400I62500J0D01*
G01*
X145545500Y-52359400D01*
G75*
G02*
X145608000Y-52421900I0J-62500D01*
G01*
G37*
%TD.AperFunction*%
%TO.P,U3,3*%
%TO.N,GND*%
%TA.AperFunction,SMDPad,CuDef*%
G36*
G01*
X145608000Y-52921900D02*
X145608000Y-53046900D01*
G75*
G02*
X145545500Y-53109400I-62500J0D01*
G01*
X144845500Y-53109400D01*
G75*
G02*
X144783000Y-53046900I0J62500D01*
G01*
X144783000Y-52921900D01*
G75*
G02*
X144845500Y-52859400I62500J0D01*
G01*
X145545500Y-52859400D01*
G75*
G02*
X145608000Y-52921900I0J-62500D01*
G01*
G37*
%TD.AperFunction*%
%TO.P,U3,2*%
%TO.N,Net-(L5-Pad2)*%
%TA.AperFunction,SMDPad,CuDef*%
G36*
G01*
X145608000Y-53421900D02*
X145608000Y-53546900D01*
G75*
G02*
X145545500Y-53609400I-62500J0D01*
G01*
X144845500Y-53609400D01*
G75*
G02*
X144783000Y-53546900I0J62500D01*
G01*
X144783000Y-53421900D01*
G75*
G02*
X144845500Y-53359400I62500J0D01*
G01*
X145545500Y-53359400D01*
G75*
G02*
X145608000Y-53421900I0J-62500D01*
G01*
G37*
%TD.AperFunction*%
%TO.P,U3,1*%
%TO.N,V_OUT*%
%TA.AperFunction,SMDPad,CuDef*%
G36*
G01*
X145608000Y-53921900D02*
X145608000Y-54046900D01*
G75*
G02*
X145545500Y-54109400I-62500J0D01*
G01*
X144845500Y-54109400D01*
G75*
G02*
X144783000Y-54046900I0J62500D01*
G01*
X144783000Y-53921900D01*
G75*
G02*
X144845500Y-53859400I62500J0D01*
G01*
X145545500Y-53859400D01*
G75*
G02*
X145608000Y-53921900I0J-62500D01*
G01*
G37*
%TD.AperFunction*%
%TD*%
D21*
%TO.P,R26,2*%
%TO.N,/MCU/DAT0*%
X128851900Y-50070300D03*
%TO.P,R26,1*%
%TO.N,+3V3*%
X128851900Y-50980300D03*
%TD*%
%TO.P,R25,2*%
%TO.N,/MCU/DAT1*%
X128039100Y-50070300D03*
%TO.P,R25,1*%
%TO.N,+3V3*%
X128039100Y-50980300D03*
%TD*%
%TO.P,R24,2*%
%TO.N,/MCU/DAT2*%
X133614400Y-50057600D03*
%TO.P,R24,1*%
%TO.N,+3V3*%
X133614400Y-50967600D03*
%TD*%
%TO.P,R23,2*%
%TO.N,/MCU/DAT3*%
X132776200Y-50057600D03*
%TO.P,R23,1*%
%TO.N,+3V3*%
X132776200Y-50967600D03*
%TD*%
%TO.P,R22,2*%
%TO.N,/MCU/CMD*%
X131938000Y-50057600D03*
%TO.P,R22,1*%
%TO.N,+3V3*%
X131938000Y-50967600D03*
%TD*%
D22*
%TO.P,R17,2*%
%TO.N,Net-(R16-Pad1)*%
X142121200Y-55008400D03*
%TO.P,R17,1*%
%TO.N,GND*%
X141211200Y-55008400D03*
%TD*%
%TO.P,R16,2*%
%TO.N,V_OUT*%
X143772200Y-55008400D03*
%TO.P,R16,1*%
%TO.N,Net-(R16-Pad1)*%
X142862200Y-55008400D03*
%TD*%
D21*
%TO.P,R15,2*%
%TO.N,Net-(L4-Pad2)*%
X146220400Y-58486000D03*
%TO.P,R15,1*%
%TO.N,V_OUT*%
X146220400Y-57576000D03*
%TD*%
%TO.P,R12,2*%
%TO.N,+1V8*%
X141793200Y-62854800D03*
%TO.P,R12,1*%
%TO.N,/Deserializer/VDD11_FPD*%
X141793200Y-61944800D03*
%TD*%
%TO.P,R9,2*%
%TO.N,GND*%
X143418800Y-62854800D03*
%TO.P,R9,1*%
%TO.N,/Deserializer/MODE*%
X143418800Y-61944800D03*
%TD*%
%TO.P,R8,2*%
%TO.N,/Deserializer/MODE*%
X142606000Y-61944800D03*
%TO.P,R8,1*%
%TO.N,/Deserializer/VDD18*%
X142606000Y-62854800D03*
%TD*%
D22*
%TO.P,R5,1*%
%TO.N,Net-(C3-Pad2)*%
X142633600Y-57065800D03*
%TO.P,R5,2*%
%TO.N,GND*%
X143543600Y-57065800D03*
%TD*%
D21*
%TO.P,R4,2*%
%TO.N,/Deserializer/PDB*%
X135062200Y-61942600D03*
%TO.P,R4,1*%
%TO.N,+1V8*%
X135062200Y-62852600D03*
%TD*%
%TO.P,L10,2*%
%TO.N,/MCU/VDDPLL*%
%TA.AperFunction,SMDPad,CuDef*%
G36*
G01*
X127476200Y-53018300D02*
X127476200Y-53493300D01*
G75*
G02*
X127253700Y-53715800I-222500J0D01*
G01*
X126808700Y-53715800D01*
G75*
G02*
X126586200Y-53493300I0J222500D01*
G01*
X126586200Y-53018300D01*
G75*
G02*
X126808700Y-52795800I222500J0D01*
G01*
X127253700Y-52795800D01*
G75*
G02*
X127476200Y-53018300I0J-222500D01*
G01*
G37*
%TD.AperFunction*%
%TO.P,L10,1*%
%TO.N,+1V2*%
%TA.AperFunction,SMDPad,CuDef*%
G36*
G01*
X128806200Y-53018300D02*
X128806200Y-53493300D01*
G75*
G02*
X128583700Y-53715800I-222500J0D01*
G01*
X128138700Y-53715800D01*
G75*
G02*
X127916200Y-53493300I0J222500D01*
G01*
X127916200Y-53018300D01*
G75*
G02*
X128138700Y-52795800I222500J0D01*
G01*
X128583700Y-52795800D01*
G75*
G02*
X128806200Y-53018300I0J-222500D01*
G01*
G37*
%TD.AperFunction*%
%TD*%
D23*
%TO.P,L8,2*%
%TO.N,+3V3*%
X147820600Y-47024200D03*
%TO.P,L8,1*%
%TO.N,Net-(L8-Pad1)*%
X147820600Y-49124200D03*
%TD*%
%TO.P,L7,2*%
%TO.N,+1V8*%
X140759400Y-46998800D03*
%TO.P,L7,1*%
%TO.N,Net-(L7-Pad1)*%
X140759400Y-49098800D03*
%TD*%
D24*
%TO.P,L6,2*%
%TO.N,V_OUT*%
X148148400Y-55251600D03*
%TO.P,L6,1*%
%TO.N,Net-(L4-Pad2)*%
X148148400Y-58301600D03*
%TD*%
D25*
%TO.P,L5,2*%
%TO.N,Net-(L5-Pad2)*%
X147820600Y-53546800D03*
%TO.P,L5,1*%
%TO.N,Net-(L5-Pad1)*%
X147820600Y-51186800D03*
%TD*%
%TO.P,L4,2*%
%TO.N,Net-(L4-Pad2)*%
%TA.AperFunction,SMDPad,CuDef*%
G36*
G01*
X145314900Y-58268200D02*
X144839900Y-58268200D01*
G75*
G02*
X144617400Y-58045700I0J222500D01*
G01*
X144617400Y-57600700D01*
G75*
G02*
X144839900Y-57378200I222500J0D01*
G01*
X145314900Y-57378200D01*
G75*
G02*
X145537400Y-57600700I0J-222500D01*
G01*
X145537400Y-58045700D01*
G75*
G02*
X145314900Y-58268200I-222500J0D01*
G01*
G37*
%TD.AperFunction*%
%TO.P,L4,1*%
%TO.N,/Deserializer/COAX+*%
%TA.AperFunction,SMDPad,CuDef*%
G36*
G01*
X145314900Y-59598200D02*
X144839900Y-59598200D01*
G75*
G02*
X144617400Y-59375700I0J222500D01*
G01*
X144617400Y-58930700D01*
G75*
G02*
X144839900Y-58708200I222500J0D01*
G01*
X145314900Y-58708200D01*
G75*
G02*
X145537400Y-58930700I0J-222500D01*
G01*
X145537400Y-59375700D01*
G75*
G02*
X145314900Y-59598200I-222500J0D01*
G01*
G37*
%TD.AperFunction*%
%TD*%
D26*
%TO.P,J8,G5*%
%TO.N,Net-(J8-PadG5)*%
X137242400Y-49070200D03*
D27*
%TO.P,J8,G4*%
%TO.N,Net-(J8-PadG4)*%
X137442400Y-47920200D03*
D28*
%TO.P,J8,G3*%
%TO.N,GND*%
X137217400Y-46770200D03*
D29*
%TO.P,J8,P1*%
%TO.N,/MCU/DAT2*%
X135592400Y-45280200D03*
%TO.P,J8,P2*%
%TO.N,/MCU/DAT3*%
X134492400Y-45280200D03*
%TO.P,J8,P7*%
%TO.N,/MCU/DAT0*%
X128992400Y-45280200D03*
%TO.P,J8,P6*%
%TO.N,GND*%
X130092400Y-45280200D03*
%TO.P,J8,P3*%
%TO.N,/MCU/CMD*%
X133392400Y-45280200D03*
%TO.P,J8,P4*%
%TO.N,+3V3*%
X132292400Y-45280200D03*
%TO.P,J8,P5*%
%TO.N,/MCU/CLK*%
X131192400Y-45280200D03*
%TO.P,J8,P8*%
%TO.N,/MCU/DAT1*%
X127892400Y-45280200D03*
D30*
%TO.P,J8,G1*%
%TO.N,GND*%
X126817400Y-46330200D03*
%TO.P,J8,G2*%
X126817400Y-48920200D03*
%TD*%
%TO.P,C54,2*%
%TO.N,GND*%
%TA.AperFunction,SMDPad,CuDef*%
G36*
G01*
X120805000Y-55348200D02*
X120465000Y-55348200D01*
G75*
G02*
X120320000Y-55203200I0J145000D01*
G01*
X120320000Y-54913200D01*
G75*
G02*
X120465000Y-54768200I145000J0D01*
G01*
X120805000Y-54768200D01*
G75*
G02*
X120950000Y-54913200I0J-145000D01*
G01*
X120950000Y-55203200D01*
G75*
G02*
X120805000Y-55348200I-145000J0D01*
G01*
G37*
%TD.AperFunction*%
%TO.P,C54,1*%
%TO.N,+1V2*%
%TA.AperFunction,SMDPad,CuDef*%
G36*
G01*
X120805000Y-56238200D02*
X120465000Y-56238200D01*
G75*
G02*
X120320000Y-56093200I0J145000D01*
G01*
X120320000Y-55803200D01*
G75*
G02*
X120465000Y-55658200I145000J0D01*
G01*
X120805000Y-55658200D01*
G75*
G02*
X120950000Y-55803200I0J-145000D01*
G01*
X120950000Y-56093200D01*
G75*
G02*
X120805000Y-56238200I-145000J0D01*
G01*
G37*
%TD.AperFunction*%
%TD*%
%TO.P,C53,2*%
%TO.N,GND*%
%TA.AperFunction,SMDPad,CuDef*%
G36*
G01*
X130929800Y-50667600D02*
X131269800Y-50667600D01*
G75*
G02*
X131414800Y-50812600I0J-145000D01*
G01*
X131414800Y-51102600D01*
G75*
G02*
X131269800Y-51247600I-145000J0D01*
G01*
X130929800Y-51247600D01*
G75*
G02*
X130784800Y-51102600I0J145000D01*
G01*
X130784800Y-50812600D01*
G75*
G02*
X130929800Y-50667600I145000J0D01*
G01*
G37*
%TD.AperFunction*%
%TO.P,C53,1*%
%TO.N,+3V3*%
%TA.AperFunction,SMDPad,CuDef*%
G36*
G01*
X130929800Y-49777600D02*
X131269800Y-49777600D01*
G75*
G02*
X131414800Y-49922600I0J-145000D01*
G01*
X131414800Y-50212600D01*
G75*
G02*
X131269800Y-50357600I-145000J0D01*
G01*
X130929800Y-50357600D01*
G75*
G02*
X130784800Y-50212600I0J145000D01*
G01*
X130784800Y-49922600D01*
G75*
G02*
X130929800Y-49777600I145000J0D01*
G01*
G37*
%TD.AperFunction*%
%TD*%
%TO.P,C47,2*%
%TO.N,GND*%
%TA.AperFunction,SMDPad,CuDef*%
G36*
G01*
X120465000Y-57398600D02*
X120805000Y-57398600D01*
G75*
G02*
X120950000Y-57543600I0J-145000D01*
G01*
X120950000Y-57833600D01*
G75*
G02*
X120805000Y-57978600I-145000J0D01*
G01*
X120465000Y-57978600D01*
G75*
G02*
X120320000Y-57833600I0J145000D01*
G01*
X120320000Y-57543600D01*
G75*
G02*
X120465000Y-57398600I145000J0D01*
G01*
G37*
%TD.AperFunction*%
%TO.P,C47,1*%
%TO.N,+3V3*%
%TA.AperFunction,SMDPad,CuDef*%
G36*
G01*
X120465000Y-56508600D02*
X120805000Y-56508600D01*
G75*
G02*
X120950000Y-56653600I0J-145000D01*
G01*
X120950000Y-56943600D01*
G75*
G02*
X120805000Y-57088600I-145000J0D01*
G01*
X120465000Y-57088600D01*
G75*
G02*
X120320000Y-56943600I0J145000D01*
G01*
X120320000Y-56653600D01*
G75*
G02*
X120465000Y-56508600I145000J0D01*
G01*
G37*
%TD.AperFunction*%
%TD*%
%TO.P,C45,2*%
%TO.N,GND*%
%TA.AperFunction,SMDPad,CuDef*%
G36*
G01*
X120805000Y-58829000D02*
X120465000Y-58829000D01*
G75*
G02*
X120320000Y-58684000I0J145000D01*
G01*
X120320000Y-58394000D01*
G75*
G02*
X120465000Y-58249000I145000J0D01*
G01*
X120805000Y-58249000D01*
G75*
G02*
X120950000Y-58394000I0J-145000D01*
G01*
X120950000Y-58684000D01*
G75*
G02*
X120805000Y-58829000I-145000J0D01*
G01*
G37*
%TD.AperFunction*%
%TO.P,C45,1*%
%TO.N,+3V3*%
%TA.AperFunction,SMDPad,CuDef*%
G36*
G01*
X120805000Y-59719000D02*
X120465000Y-59719000D01*
G75*
G02*
X120320000Y-59574000I0J145000D01*
G01*
X120320000Y-59284000D01*
G75*
G02*
X120465000Y-59139000I145000J0D01*
G01*
X120805000Y-59139000D01*
G75*
G02*
X120950000Y-59284000I0J-145000D01*
G01*
X120950000Y-59574000D01*
G75*
G02*
X120805000Y-59719000I-145000J0D01*
G01*
G37*
%TD.AperFunction*%
%TD*%
%TO.P,C44,2*%
%TO.N,/MCU/XOUT*%
%TA.AperFunction,SMDPad,CuDef*%
G36*
G01*
X127104200Y-51195800D02*
X126764200Y-51195800D01*
G75*
G02*
X126619200Y-51050800I0J145000D01*
G01*
X126619200Y-50760800D01*
G75*
G02*
X126764200Y-50615800I145000J0D01*
G01*
X127104200Y-50615800D01*
G75*
G02*
X127249200Y-50760800I0J-145000D01*
G01*
X127249200Y-51050800D01*
G75*
G02*
X127104200Y-51195800I-145000J0D01*
G01*
G37*
%TD.AperFunction*%
%TO.P,C44,1*%
%TO.N,GND*%
%TA.AperFunction,SMDPad,CuDef*%
G36*
G01*
X127104200Y-52085800D02*
X126764200Y-52085800D01*
G75*
G02*
X126619200Y-51940800I0J145000D01*
G01*
X126619200Y-51650800D01*
G75*
G02*
X126764200Y-51505800I145000J0D01*
G01*
X127104200Y-51505800D01*
G75*
G02*
X127249200Y-51650800I0J-145000D01*
G01*
X127249200Y-51940800D01*
G75*
G02*
X127104200Y-52085800I-145000J0D01*
G01*
G37*
%TD.AperFunction*%
%TD*%
%TO.P,C43,2*%
%TO.N,/MCU/XIN*%
%TA.AperFunction,SMDPad,CuDef*%
G36*
G01*
X121277800Y-53233000D02*
X121617800Y-53233000D01*
G75*
G02*
X121762800Y-53378000I0J-145000D01*
G01*
X121762800Y-53668000D01*
G75*
G02*
X121617800Y-53813000I-145000J0D01*
G01*
X121277800Y-53813000D01*
G75*
G02*
X121132800Y-53668000I0J145000D01*
G01*
X121132800Y-53378000D01*
G75*
G02*
X121277800Y-53233000I145000J0D01*
G01*
G37*
%TD.AperFunction*%
%TO.P,C43,1*%
%TO.N,GND*%
%TA.AperFunction,SMDPad,CuDef*%
G36*
G01*
X121277800Y-52343000D02*
X121617800Y-52343000D01*
G75*
G02*
X121762800Y-52488000I0J-145000D01*
G01*
X121762800Y-52778000D01*
G75*
G02*
X121617800Y-52923000I-145000J0D01*
G01*
X121277800Y-52923000D01*
G75*
G02*
X121132800Y-52778000I0J145000D01*
G01*
X121132800Y-52488000D01*
G75*
G02*
X121277800Y-52343000I145000J0D01*
G01*
G37*
%TD.AperFunction*%
%TD*%
%TO.P,C42,2*%
%TO.N,GND*%
%TA.AperFunction,SMDPad,CuDef*%
G36*
G01*
X145079600Y-56282500D02*
X145079600Y-56747500D01*
G75*
G02*
X144877100Y-56950000I-202500J0D01*
G01*
X144472100Y-56950000D01*
G75*
G02*
X144269600Y-56747500I0J202500D01*
G01*
X144269600Y-56282500D01*
G75*
G02*
X144472100Y-56080000I202500J0D01*
G01*
X144877100Y-56080000D01*
G75*
G02*
X145079600Y-56282500I0J-202500D01*
G01*
G37*
%TD.AperFunction*%
%TO.P,C42,1*%
%TO.N,V_OUT*%
%TA.AperFunction,SMDPad,CuDef*%
G36*
G01*
X146439600Y-56282500D02*
X146439600Y-56747500D01*
G75*
G02*
X146237100Y-56950000I-202500J0D01*
G01*
X145832100Y-56950000D01*
G75*
G02*
X145629600Y-56747500I0J202500D01*
G01*
X145629600Y-56282500D01*
G75*
G02*
X145832100Y-56080000I202500J0D01*
G01*
X146237100Y-56080000D01*
G75*
G02*
X146439600Y-56282500I0J-202500D01*
G01*
G37*
%TD.AperFunction*%
%TD*%
%TO.P,C40,2*%
%TO.N,GND*%
%TA.AperFunction,SMDPad,CuDef*%
G36*
G01*
X145079600Y-54961700D02*
X145079600Y-55426700D01*
G75*
G02*
X144877100Y-55629200I-202500J0D01*
G01*
X144472100Y-55629200D01*
G75*
G02*
X144269600Y-55426700I0J202500D01*
G01*
X144269600Y-54961700D01*
G75*
G02*
X144472100Y-54759200I202500J0D01*
G01*
X144877100Y-54759200D01*
G75*
G02*
X145079600Y-54961700I0J-202500D01*
G01*
G37*
%TD.AperFunction*%
%TO.P,C40,1*%
%TO.N,V_OUT*%
%TA.AperFunction,SMDPad,CuDef*%
G36*
G01*
X146439600Y-54961700D02*
X146439600Y-55426700D01*
G75*
G02*
X146237100Y-55629200I-202500J0D01*
G01*
X145832100Y-55629200D01*
G75*
G02*
X145629600Y-55426700I0J202500D01*
G01*
X145629600Y-54961700D01*
G75*
G02*
X145832100Y-54759200I202500J0D01*
G01*
X146237100Y-54759200D01*
G75*
G02*
X146439600Y-54961700I0J-202500D01*
G01*
G37*
%TD.AperFunction*%
%TD*%
%TO.P,C39,2*%
%TO.N,GND*%
%TA.AperFunction,SMDPad,CuDef*%
G36*
G01*
X147794600Y-45910900D02*
X147794600Y-45055900D01*
G75*
G02*
X148027100Y-44823400I232500J0D01*
G01*
X148492100Y-44823400D01*
G75*
G02*
X148724600Y-45055900I0J-232500D01*
G01*
X148724600Y-45910900D01*
G75*
G02*
X148492100Y-46143400I-232500J0D01*
G01*
X148027100Y-46143400D01*
G75*
G02*
X147794600Y-45910900I0J232500D01*
G01*
G37*
%TD.AperFunction*%
%TO.P,C39,1*%
%TO.N,+3V3*%
%TA.AperFunction,SMDPad,CuDef*%
G36*
G01*
X146154600Y-45910900D02*
X146154600Y-45055900D01*
G75*
G02*
X146387100Y-44823400I232500J0D01*
G01*
X146852100Y-44823400D01*
G75*
G02*
X147084600Y-45055900I0J-232500D01*
G01*
X147084600Y-45910900D01*
G75*
G02*
X146852100Y-46143400I-232500J0D01*
G01*
X146387100Y-46143400D01*
G75*
G02*
X146154600Y-45910900I0J232500D01*
G01*
G37*
%TD.AperFunction*%
%TD*%
%TO.P,C38,2*%
%TO.N,GND*%
%TA.AperFunction,SMDPad,CuDef*%
G36*
G01*
X140734600Y-45030500D02*
X140734600Y-45885500D01*
G75*
G02*
X140502100Y-46118000I-232500J0D01*
G01*
X140037100Y-46118000D01*
G75*
G02*
X139804600Y-45885500I0J232500D01*
G01*
X139804600Y-45030500D01*
G75*
G02*
X140037100Y-44798000I232500J0D01*
G01*
X140502100Y-44798000D01*
G75*
G02*
X140734600Y-45030500I0J-232500D01*
G01*
G37*
%TD.AperFunction*%
%TO.P,C38,1*%
%TO.N,+1V8*%
%TA.AperFunction,SMDPad,CuDef*%
G36*
G01*
X142374600Y-45030500D02*
X142374600Y-45885500D01*
G75*
G02*
X142142100Y-46118000I-232500J0D01*
G01*
X141677100Y-46118000D01*
G75*
G02*
X141444600Y-45885500I0J232500D01*
G01*
X141444600Y-45030500D01*
G75*
G02*
X141677100Y-44798000I232500J0D01*
G01*
X142142100Y-44798000D01*
G75*
G02*
X142374600Y-45030500I0J-232500D01*
G01*
G37*
%TD.AperFunction*%
%TD*%
%TO.P,C36,2*%
%TO.N,GND*%
%TA.AperFunction,SMDPad,CuDef*%
G36*
G01*
X142740200Y-50441800D02*
X142400200Y-50441800D01*
G75*
G02*
X142255200Y-50296800I0J145000D01*
G01*
X142255200Y-50006800D01*
G75*
G02*
X142400200Y-49861800I145000J0D01*
G01*
X142740200Y-49861800D01*
G75*
G02*
X142885200Y-50006800I0J-145000D01*
G01*
X142885200Y-50296800D01*
G75*
G02*
X142740200Y-50441800I-145000J0D01*
G01*
G37*
%TD.AperFunction*%
%TO.P,C36,1*%
%TO.N,Net-(C36-Pad1)*%
%TA.AperFunction,SMDPad,CuDef*%
G36*
G01*
X142740200Y-51331800D02*
X142400200Y-51331800D01*
G75*
G02*
X142255200Y-51186800I0J145000D01*
G01*
X142255200Y-50896800D01*
G75*
G02*
X142400200Y-50751800I145000J0D01*
G01*
X142740200Y-50751800D01*
G75*
G02*
X142885200Y-50896800I0J-145000D01*
G01*
X142885200Y-51186800D01*
G75*
G02*
X142740200Y-51331800I-145000J0D01*
G01*
G37*
%TD.AperFunction*%
%TD*%
%TO.P,C35,2*%
%TO.N,GND*%
%TA.AperFunction,SMDPad,CuDef*%
G36*
G01*
X143982000Y-48857700D02*
X143982000Y-49322700D01*
G75*
G02*
X143779500Y-49525200I-202500J0D01*
G01*
X143374500Y-49525200D01*
G75*
G02*
X143172000Y-49322700I0J202500D01*
G01*
X143172000Y-48857700D01*
G75*
G02*
X143374500Y-48655200I202500J0D01*
G01*
X143779500Y-48655200D01*
G75*
G02*
X143982000Y-48857700I0J-202500D01*
G01*
G37*
%TD.AperFunction*%
%TO.P,C35,1*%
%TO.N,+BATT*%
%TA.AperFunction,SMDPad,CuDef*%
G36*
G01*
X145342000Y-48857700D02*
X145342000Y-49322700D01*
G75*
G02*
X145139500Y-49525200I-202500J0D01*
G01*
X144734500Y-49525200D01*
G75*
G02*
X144532000Y-49322700I0J202500D01*
G01*
X144532000Y-48857700D01*
G75*
G02*
X144734500Y-48655200I202500J0D01*
G01*
X145139500Y-48655200D01*
G75*
G02*
X145342000Y-48857700I0J-202500D01*
G01*
G37*
%TD.AperFunction*%
%TD*%
%TO.P,C34,2*%
%TO.N,GND*%
%TA.AperFunction,SMDPad,CuDef*%
G36*
G01*
X143956600Y-50534100D02*
X143956600Y-50999100D01*
G75*
G02*
X143754100Y-51201600I-202500J0D01*
G01*
X143349100Y-51201600D01*
G75*
G02*
X143146600Y-50999100I0J202500D01*
G01*
X143146600Y-50534100D01*
G75*
G02*
X143349100Y-50331600I202500J0D01*
G01*
X143754100Y-50331600D01*
G75*
G02*
X143956600Y-50534100I0J-202500D01*
G01*
G37*
%TD.AperFunction*%
%TO.P,C34,1*%
%TO.N,+BATT*%
%TA.AperFunction,SMDPad,CuDef*%
G36*
G01*
X145316600Y-50534100D02*
X145316600Y-50999100D01*
G75*
G02*
X145114100Y-51201600I-202500J0D01*
G01*
X144709100Y-51201600D01*
G75*
G02*
X144506600Y-50999100I0J202500D01*
G01*
X144506600Y-50534100D01*
G75*
G02*
X144709100Y-50331600I202500J0D01*
G01*
X145114100Y-50331600D01*
G75*
G02*
X145316600Y-50534100I0J-202500D01*
G01*
G37*
%TD.AperFunction*%
%TD*%
%TO.P,C30,2*%
%TO.N,+3V3*%
%TA.AperFunction,SMDPad,CuDef*%
G36*
G01*
X132590600Y-62244800D02*
X132250600Y-62244800D01*
G75*
G02*
X132105600Y-62099800I0J145000D01*
G01*
X132105600Y-61809800D01*
G75*
G02*
X132250600Y-61664800I145000J0D01*
G01*
X132590600Y-61664800D01*
G75*
G02*
X132735600Y-61809800I0J-145000D01*
G01*
X132735600Y-62099800D01*
G75*
G02*
X132590600Y-62244800I-145000J0D01*
G01*
G37*
%TD.AperFunction*%
%TO.P,C30,1*%
%TO.N,GND*%
%TA.AperFunction,SMDPad,CuDef*%
G36*
G01*
X132590600Y-63134800D02*
X132250600Y-63134800D01*
G75*
G02*
X132105600Y-62989800I0J145000D01*
G01*
X132105600Y-62699800D01*
G75*
G02*
X132250600Y-62554800I145000J0D01*
G01*
X132590600Y-62554800D01*
G75*
G02*
X132735600Y-62699800I0J-145000D01*
G01*
X132735600Y-62989800D01*
G75*
G02*
X132590600Y-63134800I-145000J0D01*
G01*
G37*
%TD.AperFunction*%
%TD*%
%TO.P,C27,2*%
%TO.N,/Deserializer/VDD11_FPD*%
%TA.AperFunction,SMDPad,CuDef*%
G36*
G01*
X140236000Y-62244800D02*
X139896000Y-62244800D01*
G75*
G02*
X139751000Y-62099800I0J145000D01*
G01*
X139751000Y-61809800D01*
G75*
G02*
X139896000Y-61664800I145000J0D01*
G01*
X140236000Y-61664800D01*
G75*
G02*
X140381000Y-61809800I0J-145000D01*
G01*
X140381000Y-62099800D01*
G75*
G02*
X140236000Y-62244800I-145000J0D01*
G01*
G37*
%TD.AperFunction*%
%TO.P,C27,1*%
%TO.N,GND*%
%TA.AperFunction,SMDPad,CuDef*%
G36*
G01*
X140236000Y-63134800D02*
X139896000Y-63134800D01*
G75*
G02*
X139751000Y-62989800I0J145000D01*
G01*
X139751000Y-62699800D01*
G75*
G02*
X139896000Y-62554800I145000J0D01*
G01*
X140236000Y-62554800D01*
G75*
G02*
X140381000Y-62699800I0J-145000D01*
G01*
X140381000Y-62989800D01*
G75*
G02*
X140236000Y-63134800I-145000J0D01*
G01*
G37*
%TD.AperFunction*%
%TD*%
%TO.P,C23,2*%
%TO.N,+3V3*%
%TA.AperFunction,SMDPad,CuDef*%
G36*
G01*
X133479600Y-62244800D02*
X133139600Y-62244800D01*
G75*
G02*
X132994600Y-62099800I0J145000D01*
G01*
X132994600Y-61809800D01*
G75*
G02*
X133139600Y-61664800I145000J0D01*
G01*
X133479600Y-61664800D01*
G75*
G02*
X133624600Y-61809800I0J-145000D01*
G01*
X133624600Y-62099800D01*
G75*
G02*
X133479600Y-62244800I-145000J0D01*
G01*
G37*
%TD.AperFunction*%
%TO.P,C23,1*%
%TO.N,GND*%
%TA.AperFunction,SMDPad,CuDef*%
G36*
G01*
X133479600Y-63134800D02*
X133139600Y-63134800D01*
G75*
G02*
X132994600Y-62989800I0J145000D01*
G01*
X132994600Y-62699800D01*
G75*
G02*
X133139600Y-62554800I145000J0D01*
G01*
X133479600Y-62554800D01*
G75*
G02*
X133624600Y-62699800I0J-145000D01*
G01*
X133624600Y-62989800D01*
G75*
G02*
X133479600Y-63134800I-145000J0D01*
G01*
G37*
%TD.AperFunction*%
%TD*%
%TO.P,C20,2*%
%TO.N,/Deserializer/VDD11_FPD*%
%TA.AperFunction,SMDPad,CuDef*%
G36*
G01*
X139347000Y-62244800D02*
X139007000Y-62244800D01*
G75*
G02*
X138862000Y-62099800I0J145000D01*
G01*
X138862000Y-61809800D01*
G75*
G02*
X139007000Y-61664800I145000J0D01*
G01*
X139347000Y-61664800D01*
G75*
G02*
X139492000Y-61809800I0J-145000D01*
G01*
X139492000Y-62099800D01*
G75*
G02*
X139347000Y-62244800I-145000J0D01*
G01*
G37*
%TD.AperFunction*%
%TO.P,C20,1*%
%TO.N,GND*%
%TA.AperFunction,SMDPad,CuDef*%
G36*
G01*
X139347000Y-63134800D02*
X139007000Y-63134800D01*
G75*
G02*
X138862000Y-62989800I0J145000D01*
G01*
X138862000Y-62699800D01*
G75*
G02*
X139007000Y-62554800I145000J0D01*
G01*
X139347000Y-62554800D01*
G75*
G02*
X139492000Y-62699800I0J-145000D01*
G01*
X139492000Y-62989800D01*
G75*
G02*
X139347000Y-63134800I-145000J0D01*
G01*
G37*
%TD.AperFunction*%
%TD*%
%TO.P,C15,2*%
%TO.N,/Deserializer/VDD11_DVP*%
%TA.AperFunction,SMDPad,CuDef*%
G36*
G01*
X131498400Y-58307800D02*
X131158400Y-58307800D01*
G75*
G02*
X131013400Y-58162800I0J145000D01*
G01*
X131013400Y-57872800D01*
G75*
G02*
X131158400Y-57727800I145000J0D01*
G01*
X131498400Y-57727800D01*
G75*
G02*
X131643400Y-57872800I0J-145000D01*
G01*
X131643400Y-58162800D01*
G75*
G02*
X131498400Y-58307800I-145000J0D01*
G01*
G37*
%TD.AperFunction*%
%TO.P,C15,1*%
%TO.N,GND*%
%TA.AperFunction,SMDPad,CuDef*%
G36*
G01*
X131498400Y-59197800D02*
X131158400Y-59197800D01*
G75*
G02*
X131013400Y-59052800I0J145000D01*
G01*
X131013400Y-58762800D01*
G75*
G02*
X131158400Y-58617800I145000J0D01*
G01*
X131498400Y-58617800D01*
G75*
G02*
X131643400Y-58762800I0J-145000D01*
G01*
X131643400Y-59052800D01*
G75*
G02*
X131498400Y-59197800I-145000J0D01*
G01*
G37*
%TD.AperFunction*%
%TD*%
%TO.P,C13,2*%
%TO.N,/Deserializer/VDD11_FPD*%
%TA.AperFunction,SMDPad,CuDef*%
G36*
G01*
X138458000Y-62244800D02*
X138118000Y-62244800D01*
G75*
G02*
X137973000Y-62099800I0J145000D01*
G01*
X137973000Y-61809800D01*
G75*
G02*
X138118000Y-61664800I145000J0D01*
G01*
X138458000Y-61664800D01*
G75*
G02*
X138603000Y-61809800I0J-145000D01*
G01*
X138603000Y-62099800D01*
G75*
G02*
X138458000Y-62244800I-145000J0D01*
G01*
G37*
%TD.AperFunction*%
%TO.P,C13,1*%
%TO.N,GND*%
%TA.AperFunction,SMDPad,CuDef*%
G36*
G01*
X138458000Y-63134800D02*
X138118000Y-63134800D01*
G75*
G02*
X137973000Y-62989800I0J145000D01*
G01*
X137973000Y-62699800D01*
G75*
G02*
X138118000Y-62554800I145000J0D01*
G01*
X138458000Y-62554800D01*
G75*
G02*
X138603000Y-62699800I0J-145000D01*
G01*
X138603000Y-62989800D01*
G75*
G02*
X138458000Y-63134800I-145000J0D01*
G01*
G37*
%TD.AperFunction*%
%TD*%
%TO.P,C12,2*%
%TO.N,/Deserializer/VDD11_FPD*%
%TA.AperFunction,SMDPad,CuDef*%
G36*
G01*
X141125000Y-62244800D02*
X140785000Y-62244800D01*
G75*
G02*
X140640000Y-62099800I0J145000D01*
G01*
X140640000Y-61809800D01*
G75*
G02*
X140785000Y-61664800I145000J0D01*
G01*
X141125000Y-61664800D01*
G75*
G02*
X141270000Y-61809800I0J-145000D01*
G01*
X141270000Y-62099800D01*
G75*
G02*
X141125000Y-62244800I-145000J0D01*
G01*
G37*
%TD.AperFunction*%
%TO.P,C12,1*%
%TO.N,GND*%
%TA.AperFunction,SMDPad,CuDef*%
G36*
G01*
X141125000Y-63134800D02*
X140785000Y-63134800D01*
G75*
G02*
X140640000Y-62989800I0J145000D01*
G01*
X140640000Y-62699800D01*
G75*
G02*
X140785000Y-62554800I145000J0D01*
G01*
X141125000Y-62554800D01*
G75*
G02*
X141270000Y-62699800I0J-145000D01*
G01*
X141270000Y-62989800D01*
G75*
G02*
X141125000Y-63134800I-145000J0D01*
G01*
G37*
%TD.AperFunction*%
%TD*%
%TO.P,C11,2*%
%TO.N,/Deserializer/VDD18*%
%TA.AperFunction,SMDPad,CuDef*%
G36*
G01*
X131158400Y-56179400D02*
X131498400Y-56179400D01*
G75*
G02*
X131643400Y-56324400I0J-145000D01*
G01*
X131643400Y-56614400D01*
G75*
G02*
X131498400Y-56759400I-145000J0D01*
G01*
X131158400Y-56759400D01*
G75*
G02*
X131013400Y-56614400I0J145000D01*
G01*
X131013400Y-56324400D01*
G75*
G02*
X131158400Y-56179400I145000J0D01*
G01*
G37*
%TD.AperFunction*%
%TO.P,C11,1*%
%TO.N,GND*%
%TA.AperFunction,SMDPad,CuDef*%
G36*
G01*
X131158400Y-55289400D02*
X131498400Y-55289400D01*
G75*
G02*
X131643400Y-55434400I0J-145000D01*
G01*
X131643400Y-55724400D01*
G75*
G02*
X131498400Y-55869400I-145000J0D01*
G01*
X131158400Y-55869400D01*
G75*
G02*
X131013400Y-55724400I0J145000D01*
G01*
X131013400Y-55434400D01*
G75*
G02*
X131158400Y-55289400I145000J0D01*
G01*
G37*
%TD.AperFunction*%
%TD*%
%TO.P,C10,2*%
%TO.N,/Deserializer/VDD18_FPD0*%
%TA.AperFunction,SMDPad,CuDef*%
G36*
G01*
X136934000Y-62244800D02*
X136594000Y-62244800D01*
G75*
G02*
X136449000Y-62099800I0J145000D01*
G01*
X136449000Y-61809800D01*
G75*
G02*
X136594000Y-61664800I145000J0D01*
G01*
X136934000Y-61664800D01*
G75*
G02*
X137079000Y-61809800I0J-145000D01*
G01*
X137079000Y-62099800D01*
G75*
G02*
X136934000Y-62244800I-145000J0D01*
G01*
G37*
%TD.AperFunction*%
%TO.P,C10,1*%
%TO.N,GND*%
%TA.AperFunction,SMDPad,CuDef*%
G36*
G01*
X136934000Y-63134800D02*
X136594000Y-63134800D01*
G75*
G02*
X136449000Y-62989800I0J145000D01*
G01*
X136449000Y-62699800D01*
G75*
G02*
X136594000Y-62554800I145000J0D01*
G01*
X136934000Y-62554800D01*
G75*
G02*
X137079000Y-62699800I0J-145000D01*
G01*
X137079000Y-62989800D01*
G75*
G02*
X136934000Y-63134800I-145000J0D01*
G01*
G37*
%TD.AperFunction*%
%TD*%
%TO.P,C9,2*%
%TO.N,/Deserializer/VDD18_P0*%
%TA.AperFunction,SMDPad,CuDef*%
G36*
G01*
X141206400Y-60909000D02*
X141206400Y-61249000D01*
G75*
G02*
X141061400Y-61394000I-145000J0D01*
G01*
X140771400Y-61394000D01*
G75*
G02*
X140626400Y-61249000I0J145000D01*
G01*
X140626400Y-60909000D01*
G75*
G02*
X140771400Y-60764000I145000J0D01*
G01*
X141061400Y-60764000D01*
G75*
G02*
X141206400Y-60909000I0J-145000D01*
G01*
G37*
%TD.AperFunction*%
%TO.P,C9,1*%
%TO.N,GND*%
%TA.AperFunction,SMDPad,CuDef*%
G36*
G01*
X142096400Y-60909000D02*
X142096400Y-61249000D01*
G75*
G02*
X141951400Y-61394000I-145000J0D01*
G01*
X141661400Y-61394000D01*
G75*
G02*
X141516400Y-61249000I0J145000D01*
G01*
X141516400Y-60909000D01*
G75*
G02*
X141661400Y-60764000I145000J0D01*
G01*
X141951400Y-60764000D01*
G75*
G02*
X142096400Y-60909000I0J-145000D01*
G01*
G37*
%TD.AperFunction*%
%TD*%
%TO.P,C8,2*%
%TO.N,+3V3*%
%TA.AperFunction,SMDPad,CuDef*%
G36*
G01*
X134368600Y-62244800D02*
X134028600Y-62244800D01*
G75*
G02*
X133883600Y-62099800I0J145000D01*
G01*
X133883600Y-61809800D01*
G75*
G02*
X134028600Y-61664800I145000J0D01*
G01*
X134368600Y-61664800D01*
G75*
G02*
X134513600Y-61809800I0J-145000D01*
G01*
X134513600Y-62099800D01*
G75*
G02*
X134368600Y-62244800I-145000J0D01*
G01*
G37*
%TD.AperFunction*%
%TO.P,C8,1*%
%TO.N,GND*%
%TA.AperFunction,SMDPad,CuDef*%
G36*
G01*
X134368600Y-63134800D02*
X134028600Y-63134800D01*
G75*
G02*
X133883600Y-62989800I0J145000D01*
G01*
X133883600Y-62699800D01*
G75*
G02*
X134028600Y-62554800I145000J0D01*
G01*
X134368600Y-62554800D01*
G75*
G02*
X134513600Y-62699800I0J-145000D01*
G01*
X134513600Y-62989800D01*
G75*
G02*
X134368600Y-63134800I-145000J0D01*
G01*
G37*
%TD.AperFunction*%
%TD*%
%TO.P,C7,2*%
%TO.N,/Deserializer/VDD18_FPD0*%
%TA.AperFunction,SMDPad,CuDef*%
G36*
G01*
X141689000Y-58673800D02*
X141689000Y-59013800D01*
G75*
G02*
X141544000Y-59158800I-145000J0D01*
G01*
X141254000Y-59158800D01*
G75*
G02*
X141109000Y-59013800I0J145000D01*
G01*
X141109000Y-58673800D01*
G75*
G02*
X141254000Y-58528800I145000J0D01*
G01*
X141544000Y-58528800D01*
G75*
G02*
X141689000Y-58673800I0J-145000D01*
G01*
G37*
%TD.AperFunction*%
%TO.P,C7,1*%
%TO.N,GND*%
%TA.AperFunction,SMDPad,CuDef*%
G36*
G01*
X142579000Y-58673800D02*
X142579000Y-59013800D01*
G75*
G02*
X142434000Y-59158800I-145000J0D01*
G01*
X142144000Y-59158800D01*
G75*
G02*
X141999000Y-59013800I0J145000D01*
G01*
X141999000Y-58673800D01*
G75*
G02*
X142144000Y-58528800I145000J0D01*
G01*
X142434000Y-58528800D01*
G75*
G02*
X142579000Y-58673800I0J-145000D01*
G01*
G37*
%TD.AperFunction*%
%TD*%
%TO.P,C6,2*%
%TO.N,/Deserializer/VDD18_P0*%
%TA.AperFunction,SMDPad,CuDef*%
G36*
G01*
X141765200Y-55981400D02*
X141765200Y-56321400D01*
G75*
G02*
X141620200Y-56466400I-145000J0D01*
G01*
X141330200Y-56466400D01*
G75*
G02*
X141185200Y-56321400I0J145000D01*
G01*
X141185200Y-55981400D01*
G75*
G02*
X141330200Y-55836400I145000J0D01*
G01*
X141620200Y-55836400D01*
G75*
G02*
X141765200Y-55981400I0J-145000D01*
G01*
G37*
%TD.AperFunction*%
%TO.P,C6,1*%
%TO.N,GND*%
%TA.AperFunction,SMDPad,CuDef*%
G36*
G01*
X142655200Y-55981400D02*
X142655200Y-56321400D01*
G75*
G02*
X142510200Y-56466400I-145000J0D01*
G01*
X142220200Y-56466400D01*
G75*
G02*
X142075200Y-56321400I0J145000D01*
G01*
X142075200Y-55981400D01*
G75*
G02*
X142220200Y-55836400I145000J0D01*
G01*
X142510200Y-55836400D01*
G75*
G02*
X142655200Y-55981400I0J-145000D01*
G01*
G37*
%TD.AperFunction*%
%TD*%
%TO.P,C4,2*%
%TO.N,/Deserializer/MODE*%
%TA.AperFunction,SMDPad,CuDef*%
G36*
G01*
X144452400Y-62244800D02*
X144112400Y-62244800D01*
G75*
G02*
X143967400Y-62099800I0J145000D01*
G01*
X143967400Y-61809800D01*
G75*
G02*
X144112400Y-61664800I145000J0D01*
G01*
X144452400Y-61664800D01*
G75*
G02*
X144597400Y-61809800I0J-145000D01*
G01*
X144597400Y-62099800D01*
G75*
G02*
X144452400Y-62244800I-145000J0D01*
G01*
G37*
%TD.AperFunction*%
%TO.P,C4,1*%
%TO.N,GND*%
%TA.AperFunction,SMDPad,CuDef*%
G36*
G01*
X144452400Y-63134800D02*
X144112400Y-63134800D01*
G75*
G02*
X143967400Y-62989800I0J145000D01*
G01*
X143967400Y-62699800D01*
G75*
G02*
X144112400Y-62554800I145000J0D01*
G01*
X144452400Y-62554800D01*
G75*
G02*
X144597400Y-62699800I0J-145000D01*
G01*
X144597400Y-62989800D01*
G75*
G02*
X144452400Y-63134800I-145000J0D01*
G01*
G37*
%TD.AperFunction*%
%TD*%
%TO.P,C3,2*%
%TO.N,Net-(C3-Pad2)*%
%TA.AperFunction,SMDPad,CuDef*%
G36*
G01*
X141541800Y-57235800D02*
X141541800Y-56895800D01*
G75*
G02*
X141686800Y-56750800I145000J0D01*
G01*
X141976800Y-56750800D01*
G75*
G02*
X142121800Y-56895800I0J-145000D01*
G01*
X142121800Y-57235800D01*
G75*
G02*
X141976800Y-57380800I-145000J0D01*
G01*
X141686800Y-57380800D01*
G75*
G02*
X141541800Y-57235800I0J145000D01*
G01*
G37*
%TD.AperFunction*%
%TO.P,C3,1*%
%TO.N,Net-(C3-Pad1)*%
%TA.AperFunction,SMDPad,CuDef*%
G36*
G01*
X140651800Y-57235800D02*
X140651800Y-56895800D01*
G75*
G02*
X140796800Y-56750800I145000J0D01*
G01*
X141086800Y-56750800D01*
G75*
G02*
X141231800Y-56895800I0J-145000D01*
G01*
X141231800Y-57235800D01*
G75*
G02*
X141086800Y-57380800I-145000J0D01*
G01*
X140796800Y-57380800D01*
G75*
G02*
X140651800Y-57235800I0J145000D01*
G01*
G37*
%TD.AperFunction*%
%TD*%
%TO.P,C2,2*%
%TO.N,/Deserializer/COAX+*%
%TA.AperFunction,SMDPad,CuDef*%
G36*
G01*
X141534180Y-58124800D02*
X141534180Y-57784800D01*
G75*
G02*
X141679180Y-57639800I145000J0D01*
G01*
X141969180Y-57639800D01*
G75*
G02*
X142114180Y-57784800I0J-145000D01*
G01*
X142114180Y-58124800D01*
G75*
G02*
X141969180Y-58269800I-145000J0D01*
G01*
X141679180Y-58269800D01*
G75*
G02*
X141534180Y-58124800I0J145000D01*
G01*
G37*
%TD.AperFunction*%
%TO.P,C2,1*%
%TO.N,Net-(C2-Pad1)*%
%TA.AperFunction,SMDPad,CuDef*%
G36*
G01*
X140644180Y-58124800D02*
X140644180Y-57784800D01*
G75*
G02*
X140789180Y-57639800I145000J0D01*
G01*
X141079180Y-57639800D01*
G75*
G02*
X141224180Y-57784800I0J-145000D01*
G01*
X141224180Y-58124800D01*
G75*
G02*
X141079180Y-58269800I-145000J0D01*
G01*
X140789180Y-58269800D01*
G75*
G02*
X140644180Y-58124800I0J145000D01*
G01*
G37*
%TD.AperFunction*%
%TD*%
%TO.P,C1,2*%
%TO.N,/Deserializer/PDB*%
%TA.AperFunction,SMDPad,CuDef*%
G36*
G01*
X136070400Y-62244800D02*
X135730400Y-62244800D01*
G75*
G02*
X135585400Y-62099800I0J145000D01*
G01*
X135585400Y-61809800D01*
G75*
G02*
X135730400Y-61664800I145000J0D01*
G01*
X136070400Y-61664800D01*
G75*
G02*
X136215400Y-61809800I0J-145000D01*
G01*
X136215400Y-62099800D01*
G75*
G02*
X136070400Y-62244800I-145000J0D01*
G01*
G37*
%TD.AperFunction*%
%TO.P,C1,1*%
%TO.N,GND*%
%TA.AperFunction,SMDPad,CuDef*%
G36*
G01*
X136070400Y-63134800D02*
X135730400Y-63134800D01*
G75*
G02*
X135585400Y-62989800I0J145000D01*
G01*
X135585400Y-62699800D01*
G75*
G02*
X135730400Y-62554800I145000J0D01*
G01*
X136070400Y-62554800D01*
G75*
G02*
X136215400Y-62699800I0J-145000D01*
G01*
X136215400Y-62989800D01*
G75*
G02*
X136070400Y-63134800I-145000J0D01*
G01*
G37*
%TD.AperFunction*%
%TD*%
D31*
%TO.N,GND*%
X140066000Y-50919000D03*
X141666200Y-54398800D03*
X135468600Y-48683800D03*
X135468600Y-47896400D03*
X124394401Y-59863311D03*
X130007600Y-52417600D03*
X148829000Y-59199400D03*
X147355800Y-59174000D03*
X123560922Y-59829130D03*
X130414000Y-55592600D03*
X143250000Y-59750000D03*
X121716800Y-48768000D03*
X127584200Y-58242200D03*
X124206000Y-50571400D03*
X126796800Y-45339000D03*
X126796800Y-49936400D03*
X137210800Y-45745400D03*
X148818600Y-63246000D03*
X145872200Y-63246000D03*
X143060800Y-56151400D03*
X144170400Y-57327800D03*
X144526000Y-47244000D03*
X143205200Y-61087000D03*
X144272000Y-63500000D03*
X138277600Y-63500000D03*
X133299200Y-63500000D03*
X128375190Y-54991000D03*
X122809000Y-58242200D03*
X120650000Y-54356000D03*
X121310400Y-58140600D03*
X120726200Y-52628800D03*
X125207000Y-59834400D03*
X139304000Y-45458000D03*
X136764000Y-63492000D03*
X143985200Y-52341400D03*
X143959800Y-53509800D03*
X138303000Y-57200800D03*
X136525000Y-57200800D03*
X138303000Y-55422800D03*
X136499600Y-55448200D03*
X134747000Y-55422800D03*
X134721600Y-57226200D03*
X134696200Y-59004200D03*
X136499600Y-59004200D03*
X138303000Y-59029600D03*
X121716800Y-49352200D03*
X147559000Y-44619800D03*
X144855052Y-45997900D03*
X129271000Y-46778800D03*
%TO.N,/Deserializer/IDX*%
X140218400Y-61206000D03*
%TO.N,/Deserializer/VDD18_P0*%
X139812000Y-60596400D03*
X140828000Y-56126000D03*
%TO.N,/Deserializer/VDD18_FPD0*%
X140751800Y-58793000D03*
X136764000Y-61333000D03*
%TO.N,+3V3*%
X130896600Y-49420400D03*
X136129000Y-53128800D03*
X140802600Y-59529600D03*
X128369301Y-51652339D03*
X134706600Y-49763300D03*
X126036098Y-59021599D03*
X134579600Y-61383800D03*
X133121400Y-60477400D03*
X126009400Y-63474600D03*
X123469400Y-63474600D03*
X121332001Y-59033399D03*
X120827800Y-51943000D03*
X121386600Y-56819800D03*
X125966200Y-57416700D03*
X127594600Y-59809000D03*
X145603200Y-46016800D03*
X145603200Y-46804200D03*
X121588654Y-61904686D03*
%TO.N,/Deserializer/VDD18*%
X142595600Y-63474600D03*
X132065000Y-56456200D03*
%TO.N,/Deserializer/VDD11_D*%
X138465800Y-53103400D03*
%TO.N,/Deserializer/VDD11_DVP*%
X132369800Y-57980200D03*
%TO.N,+BATT*%
X140396200Y-50309400D03*
X124358400Y-48818800D03*
X124358400Y-49657000D03*
X145745200Y-49936400D03*
X145008600Y-49911000D03*
X143789400Y-47218600D03*
X142910804Y-44543600D03*
X144917400Y-44543600D03*
%TO.N,V_OUT*%
X148829000Y-56126000D03*
X147355800Y-56126000D03*
X143789400Y-55727600D03*
X145389600Y-54483000D03*
%TO.N,+1V8*%
X141945600Y-53840000D03*
X136814800Y-49892779D03*
X133843000Y-52062000D03*
X143750000Y-59000000D03*
X142875000Y-45974000D03*
X142875000Y-46761400D03*
X140899177Y-63521000D03*
X135051800Y-63474600D03*
%TO.N,/MCU/VDDUTMIC*%
X124089400Y-54551200D03*
%TO.N,/MCU/VDDPLL*%
X126009400Y-56616600D03*
%TO.N,+1V2*%
X128318500Y-52227100D03*
X124838700Y-50284000D03*
X121343800Y-55821200D03*
X126009400Y-58216800D03*
X125180680Y-60594641D03*
%TO.N,Net-(D1-Pad2)*%
X121513600Y-51943000D03*
%TO.N,/MCU/SWDIO*%
X127580214Y-61448078D03*
%TO.N,/MCU/SWDCLK*%
X128377769Y-59797651D03*
%TO.N,/MCU/DAT2*%
X128305800Y-63492000D03*
X133749999Y-49250000D03*
%TO.N,/MCU/DAT3*%
X133169900Y-49407700D03*
X128371600Y-61391800D03*
%TO.N,/MCU/DAT0*%
X127594600Y-54957600D03*
X129042400Y-49445800D03*
%TO.N,/MCU/CMD*%
X129918261Y-53110667D03*
X132369829Y-49395000D03*
%TO.N,/MCU/CLK*%
X129451359Y-53636718D03*
X126807200Y-61409200D03*
%TO.N,/MCU/DAT1*%
X128255000Y-49420402D03*
X126822200Y-55016400D03*
%TO.N,/Deserializer/OEN*%
X137068800Y-53078000D03*
%TO.N,/Deserializer/OSS_SEL*%
X137754600Y-53103400D03*
%TO.N,/Deserializer/I2C_SCL*%
X128382000Y-57421400D03*
X139100800Y-54602000D03*
%TO.N,/Deserializer/I2C_SDA*%
X128352689Y-55821601D03*
X139812000Y-53840000D03*
%TO.N,/Deserializer/LOCK*%
X140665200Y-54424200D03*
X128917721Y-54259100D03*
%TO.N,/Deserializer/GPIO0*%
X135443200Y-59859800D03*
X120635000Y-60215400D03*
%TO.N,/Deserializer/GPIO1*%
X134757400Y-59809000D03*
X121219200Y-60647200D03*
%TO.N,/Deserializer/GPIO2*%
X122819400Y-59783600D03*
X133730988Y-61366400D03*
%TO.N,/Deserializer/GPIO3*%
X133171237Y-61162114D03*
X122819400Y-60621800D03*
%TO.N,/Deserializer/ROUT3*%
X132496800Y-60494798D03*
X132014200Y-58462800D03*
%TO.N,/Deserializer/ROUT4*%
X131744684Y-60480990D03*
X132039600Y-57472200D03*
%TO.N,/Deserializer/ROUT5*%
X131597400Y-61493400D03*
X132369800Y-56964200D03*
%TO.N,/Deserializer/ROUT6*%
X131633212Y-62730000D03*
X132369800Y-55948200D03*
%TO.N,/Deserializer/ROUT7*%
X131074400Y-63209010D03*
X132065000Y-55440200D03*
%TO.N,/Deserializer/ROUT8*%
X130199562Y-61853674D03*
X132373115Y-54952352D03*
%TO.N,/Deserializer/ROUT9*%
X125994400Y-59834400D03*
X132065000Y-54449600D03*
%TO.N,/Deserializer/ROUT10*%
X131785600Y-53814600D03*
%TO.N,/Deserializer/ROUT11*%
X133258800Y-52773200D03*
%TO.N,/Deserializer/HSYNC*%
X134467600Y-52730400D03*
X122794000Y-61434600D03*
%TO.N,/Deserializer/VSYNC*%
X134478000Y-52087400D03*
X126781800Y-59817000D03*
%TO.N,/Deserializer/PCLK*%
X134503400Y-51452400D03*
X124394200Y-61434600D03*
%TO.N,Net-(D1-Pad4)*%
X121183400Y-50647600D03*
%TO.N,Net-(D1-Pad3)*%
X121920000Y-50622200D03*
%TO.N,/MCU/LED_B*%
X123596400Y-57429400D03*
%TO.N,/MCU/LED_G*%
X122785197Y-57453295D03*
%TO.N,/MCU/LED_R*%
X121818400Y-57404000D03*
%TO.N,Net-(C58-Pad2)*%
X123622600Y-54957600D03*
%TO.N,+5V*%
X137494800Y-49883400D03*
X129753600Y-48734600D03*
X129728200Y-47896400D03*
%TO.N,/MCU/D-*%
X124800600Y-54551198D03*
%TO.N,/MCU/D+*%
X125228810Y-55027876D03*
%TO.N,/MCU/VDDPLLUSB*%
X125600700Y-54043200D03*
X126807200Y-58234200D03*
%TO.N,Net-(R28-Pad1)*%
X135392400Y-49826800D03*
%TO.N,/MCU/CHR_STAT*%
X141183600Y-54043200D03*
X130972800Y-51731800D03*
%TO.N,/MCU/VBUS_DET*%
X121905000Y-58208800D03*
X125969000Y-49979200D03*
%TO.N,/MCU/IR_OUT*%
X121610479Y-61328087D03*
X126731000Y-47388400D03*
%TD*%
D32*
%TO.N,/Deserializer/PDB*%
X136256600Y-60594700D02*
X136256600Y-61598600D01*
X136256600Y-61598600D02*
X135900400Y-61954800D01*
X135062200Y-61942600D02*
X135888200Y-61942600D01*
X135888200Y-61942600D02*
X135900400Y-61954800D01*
D33*
%TO.N,GND*%
X140574000Y-51427000D02*
X140066000Y-50919000D01*
X141318400Y-51427000D02*
X140574000Y-51427000D01*
D32*
X141211200Y-55008400D02*
X141211200Y-54853800D01*
X141211200Y-54853800D02*
X141666200Y-54398800D01*
X126934200Y-51773498D02*
X127454900Y-51252798D01*
X127454900Y-50594500D02*
X126796800Y-49936400D01*
X127454900Y-51252798D02*
X127454900Y-50594500D01*
X126934200Y-51795800D02*
X126934200Y-51773498D01*
X124394200Y-59863110D02*
X124394401Y-59863311D01*
X124394200Y-58221800D02*
X124394200Y-59863110D01*
X124794400Y-57821600D02*
X124394200Y-58221800D01*
D34*
X130058400Y-52366800D02*
X130007600Y-52417600D01*
X130058400Y-51548200D02*
X130058400Y-52366800D01*
X131099800Y-50957600D02*
X130649000Y-50957600D01*
X130649000Y-50957600D02*
X130058400Y-51548200D01*
D32*
X130414000Y-55592600D02*
X131315200Y-55592600D01*
X131315200Y-55592600D02*
X131328400Y-55579400D01*
X130414000Y-57993400D02*
X130414000Y-55592600D01*
X131328400Y-58907800D02*
X130414000Y-57993400D01*
X144282400Y-62844800D02*
X144282400Y-63489600D01*
X144282400Y-63489600D02*
X144272000Y-63500000D01*
X142343800Y-58843800D02*
X143250000Y-59750000D01*
X142289000Y-58843800D02*
X142343800Y-58843800D01*
X127204800Y-58621600D02*
X127584200Y-58242200D01*
X127194400Y-58621600D02*
X127204800Y-58621600D01*
X139891600Y-56459700D02*
X139891600Y-56959700D01*
X139891600Y-56959700D02*
X138544100Y-56959700D01*
X138544100Y-56959700D02*
X138303000Y-57200800D01*
D33*
X126817400Y-45359600D02*
X126796800Y-45339000D01*
X126817400Y-46330200D02*
X126817400Y-45359600D01*
X126817400Y-49915800D02*
X126796800Y-49936400D01*
X126817400Y-48920200D02*
X126817400Y-49915800D01*
X137217400Y-45752000D02*
X137210800Y-45745400D01*
X137217400Y-46770200D02*
X137217400Y-45752000D01*
X148813000Y-63240400D02*
X148818600Y-63246000D01*
X148813000Y-61757200D02*
X148813000Y-63240400D01*
X145863000Y-63236800D02*
X145872200Y-63246000D01*
X145863000Y-61757200D02*
X145863000Y-63236800D01*
D32*
X142365200Y-56151400D02*
X143060800Y-56151400D01*
D35*
X143908400Y-57065800D02*
X144170400Y-57327800D01*
X143543600Y-57065800D02*
X143908400Y-57065800D01*
X144278500Y-47491500D02*
X144526000Y-47244000D01*
X144278500Y-47930000D02*
X144278500Y-47491500D01*
D36*
X143551600Y-50766600D02*
X143983000Y-51198000D01*
X143983000Y-51198000D02*
X143983000Y-52984400D01*
X142570200Y-50151800D02*
X142936800Y-50151800D01*
X142936800Y-50151800D02*
X143551600Y-50766600D01*
X144674600Y-54682400D02*
X143959800Y-53967600D01*
X143959800Y-53967600D02*
X143959800Y-53509800D01*
X144674600Y-55194200D02*
X144674600Y-54682400D01*
X144674600Y-56515000D02*
X144674600Y-55194200D01*
D35*
X142770500Y-53484400D02*
X143483000Y-53484400D01*
X143483000Y-53484400D02*
X143983000Y-52984400D01*
X145195500Y-52984400D02*
X143983000Y-52984400D01*
D33*
X140269600Y-45458000D02*
X139304000Y-45458000D01*
D35*
X144278500Y-47930000D02*
X144278500Y-48388700D01*
X144278500Y-48388700D02*
X143577000Y-49090200D01*
D32*
X143197200Y-61079000D02*
X143205200Y-61087000D01*
X141806400Y-61079000D02*
X143197200Y-61079000D01*
X143418800Y-62854800D02*
X144272400Y-62854800D01*
X144272400Y-62854800D02*
X144282400Y-62844800D01*
X138288000Y-63489600D02*
X138277600Y-63500000D01*
X138288000Y-62844800D02*
X138288000Y-63489600D01*
X138288000Y-62844800D02*
X140955000Y-62844800D01*
X135900400Y-62844800D02*
X136764000Y-62844800D01*
X133309600Y-63489600D02*
X133299200Y-63500000D01*
X133309600Y-62844800D02*
X133309600Y-63489600D01*
X133309600Y-62844800D02*
X134198600Y-62844800D01*
X132420600Y-62844800D02*
X133309600Y-62844800D01*
X126394400Y-59421600D02*
X127194400Y-58621600D01*
X125594400Y-59421600D02*
X125594400Y-59447000D01*
X125594400Y-59447000D02*
X125207000Y-59834400D01*
X128375190Y-55040810D02*
X128375190Y-54991000D01*
X127994400Y-55421600D02*
X128375190Y-55040810D01*
X120650000Y-54356000D02*
X120650000Y-55043200D01*
X120650000Y-55043200D02*
X120635000Y-55058200D01*
X120635000Y-58539000D02*
X120912000Y-58539000D01*
X120912000Y-58539000D02*
X121310400Y-58140600D01*
X120858400Y-57688600D02*
X121310400Y-58140600D01*
X120635000Y-57688600D02*
X120858400Y-57688600D01*
X126934200Y-51795800D02*
X126585000Y-51795800D01*
X126585000Y-51795800D02*
X125316400Y-53064400D01*
X120730400Y-52633000D02*
X120726200Y-52628800D01*
X121447800Y-52633000D02*
X120730400Y-52633000D01*
X121447800Y-52633000D02*
X121847800Y-52633000D01*
X121847800Y-52633000D02*
X123116400Y-51364400D01*
X124794400Y-57021600D02*
X124794400Y-57821600D01*
X124794400Y-59421800D02*
X125207000Y-59834400D01*
X124794400Y-59421600D02*
X124794400Y-59421800D01*
X124794400Y-58621600D02*
X124794400Y-59421600D01*
X127194400Y-58621600D02*
X127194600Y-58621600D01*
X125609801Y-59406199D02*
X125594400Y-59421600D01*
X136764000Y-62844800D02*
X136764000Y-63492000D01*
D33*
X148259600Y-45483400D02*
X147559000Y-44782800D01*
X147559000Y-44782800D02*
X147559000Y-44619800D01*
D35*
X144778500Y-45921348D02*
X144855052Y-45997900D01*
X144778500Y-45260000D02*
X144778500Y-45921348D01*
D32*
X130092400Y-45280200D02*
X130092400Y-45957400D01*
X130092400Y-45957400D02*
X129271000Y-46778800D01*
%TO.N,/Deserializer/COAX+*%
X147156400Y-60232200D02*
X147338000Y-60232200D01*
X147156400Y-60232200D02*
X147037940Y-60229291D01*
X147037940Y-60229291D02*
X146919765Y-60220574D01*
X146919765Y-60220574D02*
X146802161Y-60206069D01*
X146802161Y-60206069D02*
X146685410Y-60185811D01*
X146685410Y-60185811D02*
X146569793Y-60159849D01*
X146569793Y-60159849D02*
X146455590Y-60128244D01*
X146455590Y-60128244D02*
X146343075Y-60091074D01*
X146343075Y-60091074D02*
X146232520Y-60048428D01*
X146232520Y-60048428D02*
X146124190Y-60000409D01*
X146124190Y-60000409D02*
X146018347Y-59947132D01*
X146018347Y-59947132D02*
X145915245Y-59888726D01*
X145915245Y-59888726D02*
X145815134Y-59825331D01*
X145815134Y-59825331D02*
X145718254Y-59757100D01*
X145718254Y-59757100D02*
X145624838Y-59684198D01*
X145624838Y-59684198D02*
X145535112Y-59606800D01*
X145535112Y-59606800D02*
X145449293Y-59525093D01*
X145449293Y-59525093D02*
X145077400Y-59153200D01*
X144586106Y-58661906D02*
X145077400Y-59153200D01*
X144586106Y-58661906D02*
X144500285Y-58580198D01*
X144500285Y-58580198D02*
X144410560Y-58502800D01*
X144410560Y-58502800D02*
X144317144Y-58429898D01*
X144317144Y-58429898D02*
X144220264Y-58361667D01*
X144220264Y-58361667D02*
X144120153Y-58298272D01*
X144120153Y-58298272D02*
X144017051Y-58239866D01*
X144017051Y-58239866D02*
X143911208Y-58186589D01*
X143911208Y-58186589D02*
X143802879Y-58138570D01*
X143802879Y-58138570D02*
X143692323Y-58095924D01*
X143692323Y-58095924D02*
X143579808Y-58058754D01*
X143579808Y-58058754D02*
X143465605Y-58027150D01*
X143465605Y-58027150D02*
X143349989Y-58001187D01*
X143349989Y-58001187D02*
X143233238Y-57980929D01*
X143233238Y-57980929D02*
X143115634Y-57966424D01*
X143115634Y-57966424D02*
X142997459Y-57957707D01*
X142997459Y-57957707D02*
X142879000Y-57954800D01*
X142879000Y-57954800D02*
X141824180Y-57954800D01*
D35*
%TO.N,Net-(C2-Pad1)*%
X139891600Y-57959700D02*
X140929280Y-57959700D01*
X140929280Y-57959700D02*
X140934180Y-57954800D01*
%TO.N,Net-(C3-Pad2)*%
X141831800Y-57065800D02*
X142633600Y-57065800D01*
%TO.N,Net-(C3-Pad1)*%
X139891600Y-57459700D02*
X140514074Y-57459700D01*
X140514074Y-57459700D02*
X140907974Y-57065800D01*
X140907974Y-57065800D02*
X140941800Y-57065800D01*
D32*
%TO.N,/Deserializer/MODE*%
X143418800Y-61944800D02*
X144272400Y-61944800D01*
X144272400Y-61944800D02*
X144282400Y-61954800D01*
X139891600Y-59959700D02*
X142711638Y-59959700D01*
X142711638Y-59959700D02*
X144282400Y-61530462D01*
X144282400Y-61530462D02*
X144282400Y-61954800D01*
X142606000Y-61944800D02*
X143418800Y-61944800D01*
%TO.N,/Deserializer/IDX*%
X138756600Y-60988800D02*
X138999200Y-61231400D01*
X138756600Y-60594700D02*
X138756600Y-60988800D01*
X138999200Y-61231400D02*
X140193000Y-61231400D01*
X140193000Y-61231400D02*
X140218400Y-61206000D01*
%TO.N,/Deserializer/VDD18_P0*%
X140433800Y-60596400D02*
X139812000Y-60596400D01*
X140916400Y-61079000D02*
X140433800Y-60596400D01*
X141475200Y-56151400D02*
X140853400Y-56151400D01*
X140853400Y-56151400D02*
X140828000Y-56126000D01*
X139810300Y-60594700D02*
X139812000Y-60596400D01*
X139256600Y-60594700D02*
X139810300Y-60594700D01*
X140661700Y-55959700D02*
X140828000Y-56126000D01*
X139891600Y-55959700D02*
X140661700Y-55959700D01*
%TO.N,/Deserializer/VDD18_FPD0*%
X141399000Y-58843800D02*
X140802600Y-58843800D01*
X140802600Y-58843800D02*
X140751800Y-58793000D01*
X136764000Y-61954800D02*
X136764000Y-61333000D01*
X140418500Y-58459700D02*
X140751800Y-58793000D01*
X139891600Y-58459700D02*
X140418500Y-58459700D01*
X136756600Y-61325600D02*
X136764000Y-61333000D01*
X136756600Y-60594700D02*
X136756600Y-61325600D01*
D34*
%TO.N,+3V3*%
X130896600Y-49420400D02*
X130896600Y-49864400D01*
X132292400Y-47897600D02*
X130896600Y-49293400D01*
X130896600Y-49864400D02*
X131099800Y-50067600D01*
X132292400Y-45280200D02*
X132292400Y-47897600D01*
X130896600Y-49293400D02*
X130896600Y-49420400D01*
D32*
X136256600Y-53256400D02*
X136129000Y-53128800D01*
X136256600Y-53824700D02*
X136256600Y-53256400D01*
X128039100Y-50980300D02*
X128039100Y-51322138D01*
X128039100Y-51322138D02*
X128369301Y-51652339D01*
X128039100Y-50980300D02*
X128851900Y-50980300D01*
X134706600Y-49875400D02*
X134706600Y-49763300D01*
X133614400Y-50967600D02*
X134706600Y-49875400D01*
X131938000Y-50967600D02*
X133614400Y-50967600D01*
X128255000Y-50993000D02*
X128255000Y-50931700D01*
X125994399Y-59021599D02*
X126036098Y-59021599D01*
X125594400Y-58621600D02*
X125994399Y-59021599D01*
D34*
X131099800Y-50067600D02*
X130179000Y-50067600D01*
X130179000Y-50067600D02*
X130058400Y-50188200D01*
D32*
X134198600Y-61954800D02*
X134198600Y-61764800D01*
X134198600Y-61764800D02*
X134579600Y-61383800D01*
X134624569Y-61338831D02*
X134579600Y-61383800D01*
X134814569Y-61338831D02*
X134624569Y-61338831D01*
X133309600Y-61954800D02*
X132420600Y-61954800D01*
X134198600Y-61954800D02*
X133309600Y-61954800D01*
X121332001Y-59033399D02*
X121030601Y-59033399D01*
X120843800Y-51927000D02*
X120827800Y-51943000D01*
X120843800Y-51315000D02*
X120843800Y-51927000D01*
X120635000Y-56798600D02*
X121365400Y-56798600D01*
X121365400Y-56798600D02*
X121386600Y-56819800D01*
X122806199Y-56633399D02*
X121573001Y-56633399D01*
X123194400Y-57021600D02*
X122806199Y-56633399D01*
X121573001Y-56633399D02*
X121386600Y-56819800D01*
X125594400Y-57044900D02*
X125966200Y-57416700D01*
X125594400Y-57021600D02*
X125594400Y-57044900D01*
X127194400Y-60209200D02*
X127594600Y-59809000D01*
X127194400Y-60221600D02*
X127194400Y-60209200D01*
X123994400Y-59421600D02*
X123606199Y-59033399D01*
X123606199Y-59033399D02*
X121332001Y-59033399D01*
X121030601Y-59033399D02*
X120635000Y-59429000D01*
X120800201Y-56633399D02*
X120635000Y-56798600D01*
X135756600Y-60980462D02*
X135398231Y-61338831D01*
X135756600Y-60594700D02*
X135756600Y-60980462D01*
X135398231Y-61338831D02*
X134814569Y-61338831D01*
%TO.N,/Deserializer/VDD18*%
X142606000Y-63464200D02*
X142595600Y-63474600D01*
X142606000Y-62854800D02*
X142606000Y-63464200D01*
X131328400Y-56469400D02*
X132051800Y-56469400D01*
X132051800Y-56469400D02*
X132065000Y-56456200D01*
X132068500Y-56459700D02*
X132065000Y-56456200D01*
X133121600Y-56459700D02*
X132068500Y-56459700D01*
%TO.N,/Deserializer/VDD11_FPD*%
X140955000Y-61954800D02*
X141783200Y-61954800D01*
X141783200Y-61954800D02*
X141793200Y-61944800D01*
X140066000Y-61954800D02*
X140955000Y-61954800D01*
X139177000Y-61954800D02*
X140066000Y-61954800D01*
X138288000Y-61954800D02*
X139177000Y-61954800D01*
X138256600Y-60594700D02*
X138256600Y-61923400D01*
X138256600Y-61923400D02*
X138288000Y-61954800D01*
%TO.N,/Deserializer/VDD11_D*%
X138256600Y-53312600D02*
X138465800Y-53103400D01*
X138256600Y-53824700D02*
X138256600Y-53312600D01*
%TO.N,/Deserializer/VDD11_DVP*%
X132369800Y-57980200D02*
X131366000Y-57980200D01*
X131366000Y-57980200D02*
X131328400Y-58017800D01*
X132390300Y-57959700D02*
X132369800Y-57980200D01*
X133121600Y-57959700D02*
X132390300Y-57959700D01*
D33*
%TO.N,+BATT*%
X140563800Y-50477000D02*
X140396200Y-50309400D01*
X141318400Y-50477000D02*
X140563800Y-50477000D01*
D35*
X144778500Y-47930000D02*
X144778500Y-48931700D01*
X144778500Y-48931700D02*
X144937000Y-49090200D01*
X143778500Y-47229500D02*
X143789400Y-47218600D01*
X143778500Y-47930000D02*
X143778500Y-47229500D01*
X143278500Y-44911296D02*
X142910804Y-44543600D01*
X143278500Y-45260000D02*
X143278500Y-44911296D01*
X144536400Y-44543600D02*
X144917400Y-44543600D01*
X144278500Y-45260000D02*
X144278500Y-44801500D01*
X144278500Y-44801500D02*
X144536400Y-44543600D01*
%TO.N,Net-(C36-Pad1)*%
X142770500Y-52984400D02*
X142770500Y-51242100D01*
X142770500Y-51242100D02*
X142570200Y-51041800D01*
D32*
%TO.N,V_OUT*%
X143789400Y-55727600D02*
X143789400Y-55025600D01*
X143789400Y-55025600D02*
X143772200Y-55008400D01*
%TO.N,+1V8*%
X141793200Y-62854800D02*
X141127000Y-63521000D01*
X141127000Y-63521000D02*
X140899177Y-63521000D01*
X135062200Y-63464200D02*
X135051800Y-63474600D01*
X135062200Y-62852600D02*
X135062200Y-63464200D01*
%TO.N,/MCU/XIN*%
X123116400Y-54378800D02*
X122394400Y-55100800D01*
X123116400Y-53064400D02*
X123116400Y-54378800D01*
X122394400Y-55100800D02*
X122394400Y-55421600D01*
X121447800Y-53523000D02*
X122657800Y-53523000D01*
X122657800Y-53523000D02*
X123116400Y-53064400D01*
%TO.N,/MCU/XOUT*%
X124606800Y-51364400D02*
X124180600Y-51790600D01*
X124180600Y-51790600D02*
X124180600Y-53748231D01*
X125316400Y-51364400D02*
X124606800Y-51364400D01*
X124180600Y-53748231D02*
X123194400Y-54734431D01*
X123194400Y-54734431D02*
X123194400Y-55421600D01*
X126934200Y-50905800D02*
X125775000Y-50905800D01*
X125775000Y-50905800D02*
X125316400Y-51364400D01*
%TO.N,/MCU/VDDUTMIC*%
X124089400Y-54869398D02*
X124089400Y-54551200D01*
X124382601Y-55162599D02*
X124089400Y-54869398D01*
X124382601Y-55833399D02*
X124382601Y-55162599D01*
X123994400Y-56221600D02*
X124382601Y-55833399D01*
%TO.N,/MCU/VDDPLL*%
X127031200Y-53255800D02*
X125982601Y-54304399D01*
X125982601Y-56589801D02*
X126009400Y-56616600D01*
X125982601Y-54304399D02*
X125982601Y-56589801D01*
X126782601Y-57409801D02*
X126782601Y-56835263D01*
X126563938Y-56616600D02*
X126009400Y-56616600D01*
X127194400Y-57821600D02*
X126782601Y-57409801D01*
X126782601Y-56835263D02*
X126563938Y-56616600D01*
%TO.N,+1V2*%
X128361200Y-53255800D02*
X128361200Y-52295200D01*
X128318500Y-52252500D02*
X128318500Y-52227100D01*
X128361200Y-52295200D02*
X128318500Y-52252500D01*
X121343800Y-55821200D02*
X120762000Y-55821200D01*
X126394400Y-57021600D02*
X126394400Y-57821600D01*
X126394400Y-57831800D02*
X126009400Y-58216800D01*
X126394400Y-57821600D02*
X126394400Y-57831800D01*
X126006199Y-60609801D02*
X125195840Y-60609801D01*
X126394400Y-60221600D02*
X126006199Y-60609801D01*
X125195840Y-60609801D02*
X125180680Y-60594641D01*
X123582601Y-56609801D02*
X123582601Y-55966932D01*
X123994400Y-57021600D02*
X123582601Y-56609801D01*
X123582601Y-55966932D02*
X123436869Y-55821200D01*
X120762000Y-55821200D02*
X120635000Y-55948200D01*
X123436869Y-55821200D02*
X121343800Y-55821200D01*
%TO.N,Net-(D1-Pad2)*%
X121543800Y-51912800D02*
X121513600Y-51943000D01*
X121543800Y-51315000D02*
X121543800Y-51912800D01*
%TO.N,/MCU/SWDIO*%
X127584200Y-61444092D02*
X127580214Y-61448078D01*
X127584200Y-60631800D02*
X127584200Y-61444092D01*
X127994400Y-60221600D02*
X127584200Y-60631800D01*
X127994400Y-60221600D02*
X127994400Y-60222000D01*
%TO.N,/MCU/SWDCLK*%
X128794400Y-58621600D02*
X128382601Y-59033399D01*
X128382601Y-59792819D02*
X128377769Y-59797651D01*
X128382601Y-59033399D02*
X128382601Y-59792819D01*
%TO.N,/MCU/DAT2*%
X127994400Y-62621600D02*
X127994400Y-63180600D01*
X127994400Y-63180600D02*
X128305800Y-63492000D01*
X133614400Y-50057600D02*
X133614400Y-49385599D01*
X135592400Y-45280200D02*
X135592400Y-47136954D01*
X133614400Y-49385599D02*
X133749999Y-49250000D01*
X135592400Y-47136954D02*
X133749999Y-48979355D01*
X133749999Y-48979355D02*
X133749999Y-49250000D01*
%TO.N,/MCU/DAT3*%
X132776200Y-49801400D02*
X133169900Y-49407700D01*
X134492400Y-45280200D02*
X134492400Y-47805102D01*
X134492400Y-47805102D02*
X133169900Y-49127602D01*
X133169900Y-49127602D02*
X133169900Y-49407700D01*
X132776200Y-50057600D02*
X132776200Y-49801400D01*
X128001400Y-61021600D02*
X128371600Y-61391800D01*
X127994400Y-61021600D02*
X128001400Y-61021600D01*
%TO.N,/MCU/DAT0*%
X127594600Y-56621400D02*
X127594600Y-54957600D01*
X127194400Y-57021600D02*
X127594600Y-56621400D01*
X129067800Y-50083000D02*
X129067800Y-49471200D01*
X129067800Y-49471200D02*
X129042400Y-49445800D01*
X128817401Y-49220801D02*
X129042400Y-49445800D01*
X128992400Y-45280200D02*
X128817401Y-45455199D01*
X128817401Y-45455199D02*
X128817401Y-49220801D01*
%TO.N,/MCU/CMD*%
X133392400Y-48372429D02*
X132369829Y-49395000D01*
X133392400Y-45280200D02*
X133392400Y-48372429D01*
X129918261Y-54297739D02*
X129918261Y-53110667D01*
X128794400Y-55421600D02*
X129918261Y-54297739D01*
X131938000Y-50057600D02*
X131938000Y-49826829D01*
X131938000Y-49826829D02*
X132369829Y-49395000D01*
%TO.N,/MCU/CLK*%
X131192400Y-47994300D02*
X129385300Y-49801400D01*
X131192400Y-45280200D02*
X131192400Y-47994300D01*
X129385300Y-53570659D02*
X129451359Y-53636718D01*
X129385300Y-49801400D02*
X129385300Y-53570659D01*
X127194400Y-61021600D02*
X127194400Y-61022000D01*
X127194400Y-61022000D02*
X126807200Y-61409200D01*
%TO.N,/MCU/DAT1*%
X128255000Y-50083000D02*
X128255000Y-49420402D01*
X127892400Y-45280200D02*
X127892400Y-49057802D01*
X127892400Y-49057802D02*
X128255000Y-49420402D01*
X127194400Y-55388600D02*
X126822200Y-55016400D01*
X127194400Y-55421600D02*
X127194400Y-55388600D01*
D33*
%TO.N,Net-(L4-Pad2)*%
X145077400Y-57823200D02*
X145740200Y-58486000D01*
X145740200Y-58486000D02*
X146220400Y-58486000D01*
X146220400Y-58486000D02*
X147964000Y-58486000D01*
X147964000Y-58486000D02*
X148148400Y-58301600D01*
D35*
%TO.N,Net-(L5-Pad2)*%
X145195500Y-53484400D02*
X147758200Y-53484400D01*
X147758200Y-53484400D02*
X147820600Y-53546800D01*
%TO.N,Net-(L5-Pad1)*%
X145940400Y-52484400D02*
X147238000Y-51186800D01*
X145195500Y-52484400D02*
X145940400Y-52484400D01*
X147238000Y-51186800D02*
X147820600Y-51186800D01*
%TO.N,Net-(L7-Pad1)*%
X140759400Y-49098800D02*
X142109700Y-49098800D01*
X142109700Y-49098800D02*
X143278500Y-47930000D01*
%TO.N,Net-(L8-Pad1)*%
X147820600Y-49124200D02*
X146472700Y-49124200D01*
X146472700Y-49124200D02*
X145278500Y-47930000D01*
D32*
%TO.N,/Deserializer/OEN*%
X137256600Y-53265800D02*
X137068800Y-53078000D01*
X137256600Y-53824700D02*
X137256600Y-53265800D01*
%TO.N,/Deserializer/OSS_SEL*%
X137756600Y-53105400D02*
X137754600Y-53103400D01*
X137756600Y-53824700D02*
X137756600Y-53105400D01*
%TO.N,Net-(R16-Pad1)*%
X142770500Y-53984400D02*
X142770500Y-54916700D01*
X142770500Y-54916700D02*
X142862200Y-55008400D01*
X142121200Y-55008400D02*
X142862200Y-55008400D01*
%TO.N,/Deserializer/I2C_SCL*%
X128382000Y-57421400D02*
X128382000Y-57409200D01*
X128382000Y-57409200D02*
X127994400Y-57021600D01*
X138756600Y-54257800D02*
X139100800Y-54602000D01*
X138756600Y-53824700D02*
X138756600Y-54257800D01*
%TO.N,/Deserializer/I2C_SDA*%
X128352689Y-55821601D02*
X128394401Y-55821601D01*
X128394401Y-55821601D02*
X128794400Y-56221600D01*
X139796700Y-53824700D02*
X139812000Y-53840000D01*
X139256600Y-53824700D02*
X139796700Y-53824700D01*
%TO.N,/Deserializer/LOCK*%
X139891600Y-54459700D02*
X140629700Y-54459700D01*
X140629700Y-54459700D02*
X140665200Y-54424200D01*
X128905021Y-54271800D02*
X128917721Y-54259100D01*
X126858000Y-54271800D02*
X128905021Y-54271800D01*
X126393999Y-55421199D02*
X126393999Y-54735801D01*
X126394400Y-55421600D02*
X126393999Y-55421199D01*
X126393999Y-54735801D02*
X126858000Y-54271800D01*
D37*
%TO.N,/Deserializer/GPIO0*%
X135256600Y-60046400D02*
X135443200Y-59859800D01*
X135256600Y-60594700D02*
X135256600Y-60046400D01*
D32*
X120812800Y-60215400D02*
X120635000Y-60215400D01*
X122394400Y-59421600D02*
X121606600Y-59421600D01*
X121606600Y-59421600D02*
X120812800Y-60215400D01*
D37*
%TO.N,/Deserializer/GPIO1*%
X134756600Y-59809800D02*
X134757400Y-59809000D01*
X134756600Y-60594700D02*
X134756600Y-59809800D01*
D32*
X121644800Y-60221600D02*
X121219200Y-60647200D01*
X122394400Y-60221600D02*
X121644800Y-60221600D01*
%TO.N,/Deserializer/GPIO2*%
X123181400Y-59421600D02*
X122819400Y-59783600D01*
X123194400Y-59421600D02*
X123181400Y-59421600D01*
D37*
X134256600Y-61111700D02*
X134001900Y-61366400D01*
X134001900Y-61366400D02*
X133730988Y-61366400D01*
X134256600Y-60594700D02*
X134256600Y-61111700D01*
D32*
%TO.N,/Deserializer/GPIO3*%
X133189186Y-61162114D02*
X133171237Y-61162114D01*
X133756600Y-60594700D02*
X133189186Y-61162114D01*
X123194400Y-60246800D02*
X122819400Y-60621800D01*
X123194400Y-60221600D02*
X123194400Y-60246800D01*
%TO.N,/Deserializer/ROUT2*%
X131729099Y-59809801D02*
X132579200Y-58959700D01*
X128794400Y-59421600D02*
X129182601Y-59809801D01*
X129182601Y-59809801D02*
X131729099Y-59809801D01*
X132579200Y-58959700D02*
X133121600Y-58959700D01*
%TO.N,/Deserializer/ROUT3*%
X131969998Y-61021600D02*
X132496800Y-60494798D01*
X129594400Y-61021600D02*
X131969998Y-61021600D01*
X133121600Y-58459700D02*
X132017300Y-58459700D01*
X132017300Y-58459700D02*
X132014200Y-58462800D01*
%TO.N,/Deserializer/ROUT4*%
X129206199Y-60609801D02*
X131615873Y-60609801D01*
X128794400Y-61021600D02*
X129206199Y-60609801D01*
X131615873Y-60609801D02*
X131744684Y-60480990D01*
X132052100Y-57459700D02*
X132039600Y-57472200D01*
X133121600Y-57459700D02*
X132052100Y-57459700D01*
X128794400Y-61021600D02*
X128794400Y-61019800D01*
%TO.N,/Deserializer/ROUT5*%
X128794400Y-61821600D02*
X129195201Y-61420799D01*
X129195201Y-61420799D02*
X131524799Y-61420799D01*
X131524799Y-61420799D02*
X131597400Y-61493400D01*
X132374300Y-56959700D02*
X132369800Y-56964200D01*
X133121600Y-56959700D02*
X132374300Y-56959700D01*
X128794400Y-61821600D02*
X128794400Y-61807200D01*
%TO.N,/Deserializer/ROUT6*%
X128794400Y-62621600D02*
X129182600Y-63009800D01*
X130474402Y-62730000D02*
X131633212Y-62730000D01*
X130194602Y-63009800D02*
X130474402Y-62730000D01*
X129182600Y-63009800D02*
X130194602Y-63009800D01*
X132381300Y-55959700D02*
X132369800Y-55948200D01*
X133121600Y-55959700D02*
X132381300Y-55959700D01*
%TO.N,/Deserializer/ROUT7*%
X130849401Y-63434009D02*
X131074400Y-63209010D01*
X128406199Y-62233399D02*
X128406199Y-62899599D01*
X127994400Y-61821600D02*
X128406199Y-62233399D01*
X128406199Y-62899599D02*
X128940609Y-63434009D01*
X128940609Y-63434009D02*
X130849401Y-63434009D01*
X132084500Y-55459700D02*
X132065000Y-55440200D01*
X133121600Y-55459700D02*
X132084500Y-55459700D01*
%TO.N,/Deserializer/ROUT8*%
X129594400Y-62621600D02*
X130199562Y-62016438D01*
X130199562Y-62016438D02*
X130199562Y-61853674D01*
X132380463Y-54959700D02*
X132373115Y-54952352D01*
X133121600Y-54959700D02*
X132380463Y-54959700D01*
%TO.N,/Deserializer/ROUT9*%
X125607200Y-60221600D02*
X125994400Y-59834400D01*
X125594400Y-60221600D02*
X125607200Y-60221600D01*
X132075100Y-54459700D02*
X132065000Y-54449600D01*
X133121600Y-54459700D02*
X132075100Y-54459700D01*
%TO.N,/Deserializer/ROUT10*%
X131795700Y-53824700D02*
X131785600Y-53814600D01*
X133756600Y-53824700D02*
X131795700Y-53824700D01*
%TO.N,/Deserializer/ROUT11*%
X134256600Y-53824700D02*
X134256600Y-53282300D01*
X134256600Y-53282300D02*
X133747500Y-52773200D01*
X133747500Y-52773200D02*
X133258800Y-52773200D01*
%TO.N,/Deserializer/HSYNC*%
X134756600Y-53382950D02*
X134467600Y-53093950D01*
X134756600Y-53824700D02*
X134756600Y-53382950D01*
X134467600Y-53093950D02*
X134467600Y-52730400D01*
X122407000Y-61821600D02*
X122794000Y-61434600D01*
X122394400Y-61821600D02*
X122407000Y-61821600D01*
%TO.N,/Deserializer/VSYNC*%
X135256600Y-53374000D02*
X134928399Y-53045799D01*
X135256600Y-53824700D02*
X135256600Y-53374000D01*
X134928399Y-53045799D02*
X134928399Y-52537799D01*
X134928399Y-52537799D02*
X134478000Y-52087400D01*
X126782601Y-60633399D02*
X126782601Y-59817801D01*
X126782601Y-59817801D02*
X126781800Y-59817000D01*
X126394400Y-61021600D02*
X126782601Y-60633399D01*
%TO.N,/Deserializer/PCLK*%
X135756600Y-53369922D02*
X135240000Y-52853322D01*
X135240000Y-52189000D02*
X135036800Y-51985800D01*
X135756600Y-53824700D02*
X135756600Y-53369922D01*
X135240000Y-52853322D02*
X135240000Y-52189000D01*
X135036800Y-51985800D02*
X134503400Y-51452400D01*
X124007200Y-61821600D02*
X124394200Y-61434600D01*
X123994400Y-61821600D02*
X124007200Y-61821600D01*
%TO.N,Net-(D1-Pad4)*%
X120843800Y-50308000D02*
X121183400Y-50647600D01*
X120843800Y-50015000D02*
X120843800Y-50308000D01*
%TO.N,Net-(D1-Pad3)*%
X121543800Y-50246000D02*
X121920000Y-50622200D01*
X121543800Y-50015000D02*
X121543800Y-50246000D01*
%TO.N,/MCU/LED_B*%
X123596400Y-58223600D02*
X123596400Y-57429400D01*
X123994400Y-58621600D02*
X123596400Y-58223600D01*
%TO.N,/MCU/LED_G*%
X123153502Y-57821600D02*
X122785197Y-57453295D01*
X123194400Y-57821600D02*
X123153502Y-57821600D01*
%TO.N,/MCU/LED_R*%
X122200800Y-57021600D02*
X121818400Y-57404000D01*
X122394400Y-57021600D02*
X122200800Y-57021600D01*
%TO.N,Net-(C58-Pad2)*%
X123994400Y-55329400D02*
X123622600Y-54957600D01*
X123994400Y-55421600D02*
X123994400Y-55329400D01*
D33*
%TO.N,+5V*%
X139118400Y-50477000D02*
X138070599Y-50477000D01*
X138070599Y-50477000D02*
X137494800Y-49901201D01*
D32*
%TO.N,/MCU/D-*%
X124794400Y-54557398D02*
X124800600Y-54551198D01*
X124794400Y-55421600D02*
X124794400Y-54557398D01*
%TO.N,/MCU/D+*%
X125206199Y-55050487D02*
X125228810Y-55027876D01*
X124794400Y-56221600D02*
X125206199Y-55809801D01*
X125206199Y-55809801D02*
X125206199Y-55050487D01*
%TO.N,/MCU/VDDPLLUSB*%
X126419800Y-58621600D02*
X126807200Y-58234200D01*
X126394400Y-58621600D02*
X126419800Y-58621600D01*
X126394400Y-58621600D02*
X126350799Y-58621600D01*
%TO.N,Net-(R28-Pad1)*%
X137942600Y-52377000D02*
X135392400Y-49826800D01*
X139118400Y-52377000D02*
X137942600Y-52377000D01*
%TO.N,/MCU/CHR_STAT*%
X141318400Y-53908400D02*
X141183600Y-54043200D01*
X141318400Y-52377000D02*
X141318400Y-53908400D01*
X129982601Y-55235263D02*
X130972800Y-54245064D01*
X129594400Y-56221600D02*
X129982601Y-55833399D01*
X130972800Y-54245064D02*
X130972800Y-51731800D01*
X129982601Y-55833399D02*
X129982601Y-55235263D01*
%TO.N,/MCU/VBUS_DET*%
X122394400Y-58621600D02*
X122317800Y-58621600D01*
X122317800Y-58621600D02*
X121905000Y-58208800D01*
%TO.N,/MCU/IR_OUT*%
X121916966Y-61021600D02*
X121610479Y-61328087D01*
X122394400Y-61021600D02*
X121916966Y-61021600D01*
%TD*%
D37*
%TO.N,GND*%
G36*
X125895100Y-48069500D02*
G01*
X120332500Y-48069500D01*
X120332500Y-44488100D01*
X125895100Y-44488100D01*
X125895100Y-48069500D01*
G37*
X125895100Y-48069500D02*
X120332500Y-48069500D01*
X120332500Y-44488100D01*
X125895100Y-44488100D01*
X125895100Y-48069500D01*
G36*
X122770900Y-49923700D02*
G01*
X121935221Y-49923700D01*
X121935221Y-49765000D01*
X121931543Y-49727656D01*
X121920650Y-49691746D01*
X121902961Y-49658652D01*
X121879155Y-49629645D01*
X121850148Y-49605839D01*
X121817054Y-49588150D01*
X121781144Y-49577257D01*
X121743800Y-49573579D01*
X121348500Y-49573579D01*
X121348500Y-48501300D01*
X122770900Y-48501300D01*
X122770900Y-49923700D01*
G37*
X122770900Y-49923700D02*
X121935221Y-49923700D01*
X121935221Y-49765000D01*
X121931543Y-49727656D01*
X121920650Y-49691746D01*
X121902961Y-49658652D01*
X121879155Y-49629645D01*
X121850148Y-49605839D01*
X121817054Y-49588150D01*
X121781144Y-49577257D01*
X121743800Y-49573579D01*
X121348500Y-49573579D01*
X121348500Y-48501300D01*
X122770900Y-48501300D01*
X122770900Y-49923700D01*
%TO.N,+BATT*%
G36*
X124701300Y-49891179D02*
G01*
X124641887Y-49915789D01*
X124630047Y-49923700D01*
X123278900Y-49923700D01*
X123278900Y-48501300D01*
X124701300Y-48501300D01*
X124701300Y-49891179D01*
G37*
X124701300Y-49891179D02*
X124641887Y-49915789D01*
X124630047Y-49923700D01*
X123278900Y-49923700D01*
X123278900Y-48501300D01*
X124701300Y-48501300D01*
X124701300Y-49891179D01*
%TO.N,V_OUT*%
G36*
X146064179Y-54281800D02*
G01*
X146067857Y-54319144D01*
X146078750Y-54355054D01*
X146096439Y-54388148D01*
X146120245Y-54417155D01*
X146149252Y-54440961D01*
X146182346Y-54458650D01*
X146218256Y-54469543D01*
X146255600Y-54473221D01*
X149385600Y-54473221D01*
X149390100Y-54472778D01*
X149390100Y-55745958D01*
X146588244Y-57772300D01*
X145986500Y-57772300D01*
X145986500Y-57302400D01*
X145985280Y-57290012D01*
X145981666Y-57278100D01*
X145975798Y-57267121D01*
X145967901Y-57257499D01*
X145681700Y-56971298D01*
X145681700Y-54991000D01*
X145680480Y-54978612D01*
X145676866Y-54966700D01*
X145670998Y-54955721D01*
X145663101Y-54946099D01*
X144868900Y-54151898D01*
X144868900Y-53911500D01*
X146064179Y-53911500D01*
X146064179Y-54281800D01*
G37*
X146064179Y-54281800D02*
X146067857Y-54319144D01*
X146078750Y-54355054D01*
X146096439Y-54388148D01*
X146120245Y-54417155D01*
X146149252Y-54440961D01*
X146182346Y-54458650D01*
X146218256Y-54469543D01*
X146255600Y-54473221D01*
X149385600Y-54473221D01*
X149390100Y-54472778D01*
X149390100Y-55745958D01*
X146588244Y-57772300D01*
X145986500Y-57772300D01*
X145986500Y-57302400D01*
X145985280Y-57290012D01*
X145981666Y-57278100D01*
X145975798Y-57267121D01*
X145967901Y-57257499D01*
X145681700Y-56971298D01*
X145681700Y-54991000D01*
X145680480Y-54978612D01*
X145676866Y-54966700D01*
X145670998Y-54955721D01*
X145663101Y-54946099D01*
X144868900Y-54151898D01*
X144868900Y-53911500D01*
X146064179Y-53911500D01*
X146064179Y-54281800D01*
%TO.N,+BATT*%
G36*
X145929179Y-49065612D02*
G01*
X145929179Y-49624200D01*
X145932857Y-49661544D01*
X145935700Y-49670916D01*
X145935700Y-52004167D01*
X145882567Y-52057300D01*
X144818100Y-52057300D01*
X144818100Y-51892200D01*
X144816880Y-51879812D01*
X144813266Y-51867900D01*
X144807398Y-51856921D01*
X144799501Y-51847299D01*
X144589500Y-51637298D01*
X144589500Y-48678015D01*
X145525445Y-48661878D01*
X145929179Y-49065612D01*
G37*
X145929179Y-49065612D02*
X145929179Y-49624200D01*
X145932857Y-49661544D01*
X145935700Y-49670916D01*
X145935700Y-52004167D01*
X145882567Y-52057300D01*
X144818100Y-52057300D01*
X144818100Y-51892200D01*
X144816880Y-51879812D01*
X144813266Y-51867900D01*
X144807398Y-51856921D01*
X144799501Y-51847299D01*
X144589500Y-51637298D01*
X144589500Y-48678015D01*
X145525445Y-48661878D01*
X145929179Y-49065612D01*
%TO.N,+3V3*%
G36*
X147053300Y-46126400D02*
G01*
X147054520Y-46138788D01*
X147058134Y-46150700D01*
X147064002Y-46161679D01*
X147071899Y-46171301D01*
X147452899Y-46552301D01*
X147462521Y-46560198D01*
X147473500Y-46566066D01*
X147485412Y-46569680D01*
X147497800Y-46570900D01*
X149491700Y-46570900D01*
X149491700Y-47485300D01*
X146050902Y-47485300D01*
X145199100Y-46633498D01*
X145199100Y-46230876D01*
X145223263Y-46194713D01*
X145254584Y-46119097D01*
X145270552Y-46038823D01*
X145270552Y-45956977D01*
X145254584Y-45876703D01*
X145223263Y-45801087D01*
X145199100Y-45764924D01*
X145199100Y-44945300D01*
X147053300Y-44945300D01*
X147053300Y-46126400D01*
G37*
X147053300Y-46126400D02*
X147054520Y-46138788D01*
X147058134Y-46150700D01*
X147064002Y-46161679D01*
X147071899Y-46171301D01*
X147452899Y-46552301D01*
X147462521Y-46560198D01*
X147473500Y-46566066D01*
X147485412Y-46569680D01*
X147497800Y-46570900D01*
X149491700Y-46570900D01*
X149491700Y-47485300D01*
X146050902Y-47485300D01*
X145199100Y-46633498D01*
X145199100Y-46230876D01*
X145223263Y-46194713D01*
X145254584Y-46119097D01*
X145270552Y-46038823D01*
X145270552Y-45956977D01*
X145254584Y-45876703D01*
X145223263Y-45801087D01*
X145199100Y-45764924D01*
X145199100Y-44945300D01*
X147053300Y-44945300D01*
X147053300Y-46126400D01*
%TO.N,+1V8*%
G36*
X142713991Y-44911811D02*
G01*
X142789607Y-44943132D01*
X142834292Y-44952021D01*
X142935600Y-45053329D01*
X142935600Y-45276842D01*
X142940562Y-45327219D01*
X142957079Y-45381669D01*
X142957079Y-45590000D01*
X142960757Y-45627344D01*
X142971650Y-45663254D01*
X142989339Y-45696348D01*
X143013145Y-45725355D01*
X143042152Y-45749161D01*
X143075246Y-45766850D01*
X143111156Y-45777743D01*
X143148500Y-45781421D01*
X143408500Y-45781421D01*
X143445844Y-45777743D01*
X143481754Y-45766850D01*
X143514848Y-45749161D01*
X143543855Y-45725355D01*
X143567661Y-45696348D01*
X143585350Y-45663254D01*
X143596243Y-45627344D01*
X143599921Y-45590000D01*
X143599921Y-45381670D01*
X143616438Y-45327220D01*
X143621400Y-45276843D01*
X143621400Y-44928139D01*
X143623059Y-44911296D01*
X143621405Y-44894500D01*
X143852900Y-44894500D01*
X143852900Y-46023898D01*
X142416898Y-47459900D01*
X139103100Y-47459900D01*
X139103100Y-46545500D01*
X140919200Y-46545500D01*
X140931588Y-46544280D01*
X140943500Y-46540666D01*
X140954479Y-46534798D01*
X140964101Y-46526901D01*
X141472101Y-46018901D01*
X141479998Y-46009279D01*
X141485866Y-45998300D01*
X141489480Y-45986388D01*
X141490700Y-45974000D01*
X141490700Y-44894500D01*
X142688083Y-44894500D01*
X142713991Y-44911811D01*
G37*
X142713991Y-44911811D02*
X142789607Y-44943132D01*
X142834292Y-44952021D01*
X142935600Y-45053329D01*
X142935600Y-45276842D01*
X142940562Y-45327219D01*
X142957079Y-45381669D01*
X142957079Y-45590000D01*
X142960757Y-45627344D01*
X142971650Y-45663254D01*
X142989339Y-45696348D01*
X143013145Y-45725355D01*
X143042152Y-45749161D01*
X143075246Y-45766850D01*
X143111156Y-45777743D01*
X143148500Y-45781421D01*
X143408500Y-45781421D01*
X143445844Y-45777743D01*
X143481754Y-45766850D01*
X143514848Y-45749161D01*
X143543855Y-45725355D01*
X143567661Y-45696348D01*
X143585350Y-45663254D01*
X143596243Y-45627344D01*
X143599921Y-45590000D01*
X143599921Y-45381670D01*
X143616438Y-45327220D01*
X143621400Y-45276843D01*
X143621400Y-44928139D01*
X143623059Y-44911296D01*
X143621405Y-44894500D01*
X143852900Y-44894500D01*
X143852900Y-46023898D01*
X142416898Y-47459900D01*
X139103100Y-47459900D01*
X139103100Y-46545500D01*
X140919200Y-46545500D01*
X140931588Y-46544280D01*
X140943500Y-46540666D01*
X140954479Y-46534798D01*
X140964101Y-46526901D01*
X141472101Y-46018901D01*
X141479998Y-46009279D01*
X141485866Y-45998300D01*
X141489480Y-45986388D01*
X141490700Y-45974000D01*
X141490700Y-44894500D01*
X142688083Y-44894500D01*
X142713991Y-44911811D01*
%TD*%
M02*
