%TF.GenerationSoftware,KiCad,Pcbnew,(5.1.6)-1*%
%TF.CreationDate,2020-08-10T23:20:37-07:00*%
%TF.ProjectId,Wire-Free-DAQ,57697265-2d46-4726-9565-2d4441512e6b,rev?*%
%TF.SameCoordinates,Original*%
%TF.FileFunction,Copper,L6,Bot*%
%TF.FilePolarity,Positive*%
%FSLAX46Y46*%
G04 Gerber Fmt 4.6, Leading zero omitted, Abs format (unit mm)*
G04 Created by KiCad (PCBNEW (5.1.6)-1) date 2020-08-10 23:20:37*
%MOMM*%
%LPD*%
G01*
G04 APERTURE LIST*
%TA.AperFunction,SMDPad,CuDef*%
%ADD10R,1.000000X2.500000*%
%TD*%
%TA.AperFunction,SMDPad,CuDef*%
%ADD11R,0.400000X1.400000*%
%TD*%
%TA.AperFunction,SMDPad,CuDef*%
%ADD12R,2.300000X1.900000*%
%TD*%
%TA.AperFunction,SMDPad,CuDef*%
%ADD13R,1.800000X1.900000*%
%TD*%
%TA.AperFunction,SMDPad,CuDef*%
%ADD14R,0.560000X0.490000*%
%TD*%
%TA.AperFunction,SMDPad,CuDef*%
%ADD15R,0.490000X0.560000*%
%TD*%
%TA.AperFunction,SMDPad,CuDef*%
%ADD16C,1.500000*%
%TD*%
%TA.AperFunction,ViaPad*%
%ADD17C,0.450000*%
%TD*%
%TA.AperFunction,Conductor*%
%ADD18C,0.152400*%
%TD*%
%TA.AperFunction,Conductor*%
%ADD19C,0.508000*%
%TD*%
%TA.AperFunction,Conductor*%
%ADD20C,0.635000*%
%TD*%
%TA.AperFunction,Conductor*%
%ADD21C,0.304800*%
%TD*%
%TA.AperFunction,Conductor*%
%ADD22C,0.254000*%
%TD*%
%TA.AperFunction,Conductor*%
%ADD23C,0.203200*%
%TD*%
G04 APERTURE END LIST*
D10*
%TO.P,J11,1*%
%TO.N,/MCU/IR_OUT*%
X149083000Y-45559600D03*
%TD*%
%TO.P,J10,1*%
%TO.N,GND*%
X146543000Y-45559600D03*
%TD*%
%TO.P,J9,1*%
%TO.N,+3V3*%
X144003000Y-45559600D03*
%TD*%
D11*
%TO.P,J2,1*%
%TO.N,+5V*%
X130688800Y-48303400D03*
%TO.P,J2,2*%
%TO.N,/MCU/D-*%
X131338800Y-48303400D03*
%TO.P,J2,3*%
%TO.N,/MCU/D+*%
X131988800Y-48303400D03*
%TO.P,J2,4*%
%TO.N,Net-(J2-Pad4)*%
X132638800Y-48303400D03*
%TO.P,J2,5*%
%TO.N,GND*%
X133288800Y-48303400D03*
D12*
%TO.P,J2,6*%
X128238800Y-45453400D03*
X135738800Y-45453400D03*
D13*
X130838800Y-45453400D03*
X133138800Y-45453400D03*
%TD*%
D14*
%TO.P,R32,2*%
%TO.N,GND*%
X124953000Y-47263600D03*
%TO.P,R32,1*%
%TO.N,/MCU/VBUS_DET*%
X124953000Y-48173600D03*
%TD*%
%TO.P,R31,2*%
%TO.N,/MCU/VBUS_DET*%
X125765800Y-48173600D03*
%TO.P,R31,1*%
%TO.N,+5V*%
X125765800Y-47263600D03*
%TD*%
%TO.P,L11,2*%
%TO.N,Net-(L11-Pad2)*%
%TA.AperFunction,SMDPad,CuDef*%
G36*
G01*
X127667000Y-52464300D02*
X127192000Y-52464300D01*
G75*
G02*
X126969500Y-52241800I0J222500D01*
G01*
X126969500Y-51796800D01*
G75*
G02*
X127192000Y-51574300I222500J0D01*
G01*
X127667000Y-51574300D01*
G75*
G02*
X127889500Y-51796800I0J-222500D01*
G01*
X127889500Y-52241800D01*
G75*
G02*
X127667000Y-52464300I-222500J0D01*
G01*
G37*
%TD.AperFunction*%
%TO.P,L11,1*%
%TO.N,/MCU/VDDPLLUSB*%
%TA.AperFunction,SMDPad,CuDef*%
G36*
G01*
X127667000Y-53794300D02*
X127192000Y-53794300D01*
G75*
G02*
X126969500Y-53571800I0J222500D01*
G01*
X126969500Y-53126800D01*
G75*
G02*
X127192000Y-52904300I222500J0D01*
G01*
X127667000Y-52904300D01*
G75*
G02*
X127889500Y-53126800I0J-222500D01*
G01*
X127889500Y-53571800D01*
G75*
G02*
X127667000Y-53794300I-222500J0D01*
G01*
G37*
%TD.AperFunction*%
%TD*%
D15*
%TO.P,R30,2*%
%TO.N,Net-(L11-Pad2)*%
X127643200Y-51033300D03*
%TO.P,R30,1*%
%TO.N,+3V3*%
X126733200Y-51033300D03*
%TD*%
%TO.P,R29,2*%
%TO.N,/MCU/CHR_STAT*%
X141310600Y-53306600D03*
%TO.P,R29,1*%
%TO.N,+3V3*%
X140400600Y-53306600D03*
%TD*%
D14*
%TO.P,R28,2*%
%TO.N,GND*%
X135214600Y-52542400D03*
%TO.P,R28,1*%
%TO.N,Net-(R28-Pad1)*%
X135214600Y-51632400D03*
%TD*%
%TO.P,C61,2*%
%TO.N,GND*%
%TA.AperFunction,SMDPad,CuDef*%
G36*
G01*
X126442800Y-52409300D02*
X125977800Y-52409300D01*
G75*
G02*
X125775300Y-52206800I0J202500D01*
G01*
X125775300Y-51801800D01*
G75*
G02*
X125977800Y-51599300I202500J0D01*
G01*
X126442800Y-51599300D01*
G75*
G02*
X126645300Y-51801800I0J-202500D01*
G01*
X126645300Y-52206800D01*
G75*
G02*
X126442800Y-52409300I-202500J0D01*
G01*
G37*
%TD.AperFunction*%
%TO.P,C61,1*%
%TO.N,/MCU/VDDPLLUSB*%
%TA.AperFunction,SMDPad,CuDef*%
G36*
G01*
X126442800Y-53769300D02*
X125977800Y-53769300D01*
G75*
G02*
X125775300Y-53566800I0J202500D01*
G01*
X125775300Y-53161800D01*
G75*
G02*
X125977800Y-52959300I202500J0D01*
G01*
X126442800Y-52959300D01*
G75*
G02*
X126645300Y-53161800I0J-202500D01*
G01*
X126645300Y-53566800D01*
G75*
G02*
X126442800Y-53769300I-202500J0D01*
G01*
G37*
%TD.AperFunction*%
%TD*%
%TO.P,C60,2*%
%TO.N,GND*%
%TA.AperFunction,SMDPad,CuDef*%
G36*
G01*
X142475100Y-51016200D02*
X142940100Y-51016200D01*
G75*
G02*
X143142600Y-51218700I0J-202500D01*
G01*
X143142600Y-51623700D01*
G75*
G02*
X142940100Y-51826200I-202500J0D01*
G01*
X142475100Y-51826200D01*
G75*
G02*
X142272600Y-51623700I0J202500D01*
G01*
X142272600Y-51218700D01*
G75*
G02*
X142475100Y-51016200I202500J0D01*
G01*
G37*
%TD.AperFunction*%
%TO.P,C60,1*%
%TO.N,+BATT*%
%TA.AperFunction,SMDPad,CuDef*%
G36*
G01*
X142475100Y-49656200D02*
X142940100Y-49656200D01*
G75*
G02*
X143142600Y-49858700I0J-202500D01*
G01*
X143142600Y-50263700D01*
G75*
G02*
X142940100Y-50466200I-202500J0D01*
G01*
X142475100Y-50466200D01*
G75*
G02*
X142272600Y-50263700I0J202500D01*
G01*
X142272600Y-49858700D01*
G75*
G02*
X142475100Y-49656200I202500J0D01*
G01*
G37*
%TD.AperFunction*%
%TD*%
%TO.P,C59,2*%
%TO.N,GND*%
%TA.AperFunction,SMDPad,CuDef*%
G36*
G01*
X136539800Y-50356300D02*
X136539800Y-50821300D01*
G75*
G02*
X136337300Y-51023800I-202500J0D01*
G01*
X135932300Y-51023800D01*
G75*
G02*
X135729800Y-50821300I0J202500D01*
G01*
X135729800Y-50356300D01*
G75*
G02*
X135932300Y-50153800I202500J0D01*
G01*
X136337300Y-50153800D01*
G75*
G02*
X136539800Y-50356300I0J-202500D01*
G01*
G37*
%TD.AperFunction*%
%TO.P,C59,1*%
%TO.N,+5V*%
%TA.AperFunction,SMDPad,CuDef*%
G36*
G01*
X137899800Y-50356300D02*
X137899800Y-50821300D01*
G75*
G02*
X137697300Y-51023800I-202500J0D01*
G01*
X137292300Y-51023800D01*
G75*
G02*
X137089800Y-50821300I0J202500D01*
G01*
X137089800Y-50356300D01*
G75*
G02*
X137292300Y-50153800I202500J0D01*
G01*
X137697300Y-50153800D01*
G75*
G02*
X137899800Y-50356300I0J-202500D01*
G01*
G37*
%TD.AperFunction*%
%TD*%
D15*
%TO.P,R27,2*%
%TO.N,GND*%
X127617800Y-56964200D03*
%TO.P,R27,1*%
%TO.N,Net-(C58-Pad2)*%
X126707800Y-56964200D03*
%TD*%
%TO.P,C58,2*%
%TO.N,Net-(C58-Pad2)*%
%TA.AperFunction,SMDPad,CuDef*%
G36*
G01*
X127007800Y-55956000D02*
X127007800Y-56296000D01*
G75*
G02*
X126862800Y-56441000I-145000J0D01*
G01*
X126572800Y-56441000D01*
G75*
G02*
X126427800Y-56296000I0J145000D01*
G01*
X126427800Y-55956000D01*
G75*
G02*
X126572800Y-55811000I145000J0D01*
G01*
X126862800Y-55811000D01*
G75*
G02*
X127007800Y-55956000I0J-145000D01*
G01*
G37*
%TD.AperFunction*%
%TO.P,C58,1*%
%TO.N,GND*%
%TA.AperFunction,SMDPad,CuDef*%
G36*
G01*
X127897800Y-55956000D02*
X127897800Y-56296000D01*
G75*
G02*
X127752800Y-56441000I-145000J0D01*
G01*
X127462800Y-56441000D01*
G75*
G02*
X127317800Y-56296000I0J145000D01*
G01*
X127317800Y-55956000D01*
G75*
G02*
X127462800Y-55811000I145000J0D01*
G01*
X127752800Y-55811000D01*
G75*
G02*
X127897800Y-55956000I0J-145000D01*
G01*
G37*
%TD.AperFunction*%
%TD*%
D14*
%TO.P,R3,2*%
%TO.N,Net-(D1-Pad2)*%
X121447800Y-52623000D03*
%TO.P,R3,1*%
%TO.N,/MCU/LED_R*%
X121447800Y-53533000D03*
%TD*%
%TO.P,R2,2*%
%TO.N,Net-(D1-Pad4)*%
X122286000Y-52623000D03*
%TO.P,R2,1*%
%TO.N,/MCU/LED_G*%
X122286000Y-53533000D03*
%TD*%
%TO.P,R1,2*%
%TO.N,Net-(D1-Pad3)*%
X123073400Y-52623000D03*
%TO.P,R1,1*%
%TO.N,/MCU/LED_B*%
X123073400Y-53533000D03*
%TD*%
%TO.P,R20,2*%
%TO.N,/Deserializer/I2C_SDA*%
X140012660Y-55391600D03*
%TO.P,R20,1*%
%TO.N,+3V3*%
X140012660Y-56301600D03*
%TD*%
%TO.P,R18,2*%
%TO.N,/Deserializer/I2C_SCL*%
X139202400Y-55391600D03*
%TO.P,R18,1*%
%TO.N,+3V3*%
X139202400Y-56301600D03*
%TD*%
%TO.P,R21,2*%
%TO.N,/MCU/SWDIO*%
X125984000Y-62003600D03*
%TO.P,R21,1*%
%TO.N,+3V3*%
X125984000Y-62913600D03*
%TD*%
%TO.P,R19,2*%
%TO.N,/MCU/SWDCLK*%
X123469400Y-62029000D03*
%TO.P,R19,1*%
%TO.N,+3V3*%
X123469400Y-62939000D03*
%TD*%
D15*
%TO.P,R14,2*%
%TO.N,+3V3*%
X134018600Y-59682000D03*
%TO.P,R14,1*%
%TO.N,/Deserializer/VDD11_DVP*%
X133108600Y-59682000D03*
%TD*%
D14*
%TO.P,R13,2*%
%TO.N,+1V8*%
X141183600Y-51607000D03*
%TO.P,R13,1*%
%TO.N,/Deserializer/VDD11_D*%
X141183600Y-52517000D03*
%TD*%
%TO.P,R11,2*%
%TO.N,GND*%
X143418800Y-62854800D03*
%TO.P,R11,1*%
%TO.N,/Deserializer/IDX*%
X143418800Y-61944800D03*
%TD*%
%TO.P,R10,2*%
%TO.N,/Deserializer/IDX*%
X142606000Y-61944800D03*
%TO.P,R10,1*%
%TO.N,/Deserializer/VDD18*%
X142606000Y-62854800D03*
%TD*%
%TO.P,R7,2*%
%TO.N,/Deserializer/OSS_SEL*%
X137703800Y-52491600D03*
%TO.P,R7,1*%
%TO.N,+1V8*%
X137703800Y-51581600D03*
%TD*%
%TO.P,R6,2*%
%TO.N,/Deserializer/OEN*%
X136891000Y-52491600D03*
%TO.P,R6,1*%
%TO.N,+1V8*%
X136891000Y-51581600D03*
%TD*%
%TO.P,L9,2*%
%TO.N,/MCU/VDDUTMIC*%
%TA.AperFunction,SMDPad,CuDef*%
G36*
G01*
X124766300Y-52891600D02*
X125241300Y-52891600D01*
G75*
G02*
X125463800Y-53114100I0J-222500D01*
G01*
X125463800Y-53559100D01*
G75*
G02*
X125241300Y-53781600I-222500J0D01*
G01*
X124766300Y-53781600D01*
G75*
G02*
X124543800Y-53559100I0J222500D01*
G01*
X124543800Y-53114100D01*
G75*
G02*
X124766300Y-52891600I222500J0D01*
G01*
G37*
%TD.AperFunction*%
%TO.P,L9,1*%
%TO.N,+1V2*%
%TA.AperFunction,SMDPad,CuDef*%
G36*
G01*
X124766300Y-51561600D02*
X125241300Y-51561600D01*
G75*
G02*
X125463800Y-51784100I0J-222500D01*
G01*
X125463800Y-52229100D01*
G75*
G02*
X125241300Y-52451600I-222500J0D01*
G01*
X124766300Y-52451600D01*
G75*
G02*
X124543800Y-52229100I0J222500D01*
G01*
X124543800Y-51784100D01*
G75*
G02*
X124766300Y-51561600I222500J0D01*
G01*
G37*
%TD.AperFunction*%
%TD*%
%TO.P,L3,2*%
%TO.N,/Deserializer/VDD18*%
%TA.AperFunction,SMDPad,CuDef*%
G36*
G01*
X133724600Y-53475500D02*
X133724600Y-53950500D01*
G75*
G02*
X133502100Y-54173000I-222500J0D01*
G01*
X133057100Y-54173000D01*
G75*
G02*
X132834600Y-53950500I0J222500D01*
G01*
X132834600Y-53475500D01*
G75*
G02*
X133057100Y-53253000I222500J0D01*
G01*
X133502100Y-53253000D01*
G75*
G02*
X133724600Y-53475500I0J-222500D01*
G01*
G37*
%TD.AperFunction*%
%TO.P,L3,1*%
%TO.N,+1V8*%
%TA.AperFunction,SMDPad,CuDef*%
G36*
G01*
X135054600Y-53475500D02*
X135054600Y-53950500D01*
G75*
G02*
X134832100Y-54173000I-222500J0D01*
G01*
X134387100Y-54173000D01*
G75*
G02*
X134164600Y-53950500I0J222500D01*
G01*
X134164600Y-53475500D01*
G75*
G02*
X134387100Y-53253000I222500J0D01*
G01*
X134832100Y-53253000D01*
G75*
G02*
X135054600Y-53475500I0J-222500D01*
G01*
G37*
%TD.AperFunction*%
%TD*%
%TO.P,L2,2*%
%TO.N,/Deserializer/VDD18_FPD0*%
%TA.AperFunction,SMDPad,CuDef*%
G36*
G01*
X139998400Y-62416300D02*
X139998400Y-62891300D01*
G75*
G02*
X139775900Y-63113800I-222500J0D01*
G01*
X139330900Y-63113800D01*
G75*
G02*
X139108400Y-62891300I0J222500D01*
G01*
X139108400Y-62416300D01*
G75*
G02*
X139330900Y-62193800I222500J0D01*
G01*
X139775900Y-62193800D01*
G75*
G02*
X139998400Y-62416300I0J-222500D01*
G01*
G37*
%TD.AperFunction*%
%TO.P,L2,1*%
%TO.N,+1V8*%
%TA.AperFunction,SMDPad,CuDef*%
G36*
G01*
X141328400Y-62416300D02*
X141328400Y-62891300D01*
G75*
G02*
X141105900Y-63113800I-222500J0D01*
G01*
X140660900Y-63113800D01*
G75*
G02*
X140438400Y-62891300I0J222500D01*
G01*
X140438400Y-62416300D01*
G75*
G02*
X140660900Y-62193800I222500J0D01*
G01*
X141105900Y-62193800D01*
G75*
G02*
X141328400Y-62416300I0J-222500D01*
G01*
G37*
%TD.AperFunction*%
%TD*%
%TO.P,L1,2*%
%TO.N,/Deserializer/VDD18_P0*%
%TA.AperFunction,SMDPad,CuDef*%
G36*
G01*
X142208200Y-57996700D02*
X142208200Y-58471700D01*
G75*
G02*
X141985700Y-58694200I-222500J0D01*
G01*
X141540700Y-58694200D01*
G75*
G02*
X141318200Y-58471700I0J222500D01*
G01*
X141318200Y-57996700D01*
G75*
G02*
X141540700Y-57774200I222500J0D01*
G01*
X141985700Y-57774200D01*
G75*
G02*
X142208200Y-57996700I0J-222500D01*
G01*
G37*
%TD.AperFunction*%
%TO.P,L1,1*%
%TO.N,+1V8*%
%TA.AperFunction,SMDPad,CuDef*%
G36*
G01*
X143538200Y-57996700D02*
X143538200Y-58471700D01*
G75*
G02*
X143315700Y-58694200I-222500J0D01*
G01*
X142870700Y-58694200D01*
G75*
G02*
X142648200Y-58471700I0J222500D01*
G01*
X142648200Y-57996700D01*
G75*
G02*
X142870700Y-57774200I222500J0D01*
G01*
X143315700Y-57774200D01*
G75*
G02*
X143538200Y-57996700I0J-222500D01*
G01*
G37*
%TD.AperFunction*%
%TD*%
D16*
%TO.P,J7,1*%
%TO.N,GND*%
X129804400Y-62882400D03*
%TD*%
%TO.P,J6,1*%
%TO.N,/MCU/SWDIO*%
X127264400Y-62882400D03*
%TD*%
%TO.P,J5,1*%
%TO.N,/MCU/SWDCLK*%
X124724400Y-62882400D03*
%TD*%
%TO.P,J4,1*%
%TO.N,+3V3*%
X122184400Y-62882400D03*
%TD*%
%TO.P,C57,2*%
%TO.N,GND*%
%TA.AperFunction,SMDPad,CuDef*%
G36*
G01*
X123858200Y-60578800D02*
X123858200Y-60918800D01*
G75*
G02*
X123713200Y-61063800I-145000J0D01*
G01*
X123423200Y-61063800D01*
G75*
G02*
X123278200Y-60918800I0J145000D01*
G01*
X123278200Y-60578800D01*
G75*
G02*
X123423200Y-60433800I145000J0D01*
G01*
X123713200Y-60433800D01*
G75*
G02*
X123858200Y-60578800I0J-145000D01*
G01*
G37*
%TD.AperFunction*%
%TO.P,C57,1*%
%TO.N,+1V2*%
%TA.AperFunction,SMDPad,CuDef*%
G36*
G01*
X124748200Y-60578800D02*
X124748200Y-60918800D01*
G75*
G02*
X124603200Y-61063800I-145000J0D01*
G01*
X124313200Y-61063800D01*
G75*
G02*
X124168200Y-60918800I0J145000D01*
G01*
X124168200Y-60578800D01*
G75*
G02*
X124313200Y-60433800I145000J0D01*
G01*
X124603200Y-60433800D01*
G75*
G02*
X124748200Y-60578800I0J-145000D01*
G01*
G37*
%TD.AperFunction*%
%TD*%
%TO.P,C56,2*%
%TO.N,GND*%
%TA.AperFunction,SMDPad,CuDef*%
G36*
G01*
X120805000Y-55336000D02*
X120465000Y-55336000D01*
G75*
G02*
X120320000Y-55191000I0J145000D01*
G01*
X120320000Y-54901000D01*
G75*
G02*
X120465000Y-54756000I145000J0D01*
G01*
X120805000Y-54756000D01*
G75*
G02*
X120950000Y-54901000I0J-145000D01*
G01*
X120950000Y-55191000D01*
G75*
G02*
X120805000Y-55336000I-145000J0D01*
G01*
G37*
%TD.AperFunction*%
%TO.P,C56,1*%
%TO.N,+1V2*%
%TA.AperFunction,SMDPad,CuDef*%
G36*
G01*
X120805000Y-56226000D02*
X120465000Y-56226000D01*
G75*
G02*
X120320000Y-56081000I0J145000D01*
G01*
X120320000Y-55791000D01*
G75*
G02*
X120465000Y-55646000I145000J0D01*
G01*
X120805000Y-55646000D01*
G75*
G02*
X120950000Y-55791000I0J-145000D01*
G01*
X120950000Y-56081000D01*
G75*
G02*
X120805000Y-56226000I-145000J0D01*
G01*
G37*
%TD.AperFunction*%
%TD*%
%TO.P,C55,2*%
%TO.N,GND*%
%TA.AperFunction,SMDPad,CuDef*%
G36*
G01*
X124609800Y-57742000D02*
X124609800Y-58082000D01*
G75*
G02*
X124464800Y-58227000I-145000J0D01*
G01*
X124174800Y-58227000D01*
G75*
G02*
X124029800Y-58082000I0J145000D01*
G01*
X124029800Y-57742000D01*
G75*
G02*
X124174800Y-57597000I145000J0D01*
G01*
X124464800Y-57597000D01*
G75*
G02*
X124609800Y-57742000I0J-145000D01*
G01*
G37*
%TD.AperFunction*%
%TO.P,C55,1*%
%TO.N,+1V2*%
%TA.AperFunction,SMDPad,CuDef*%
G36*
G01*
X125499800Y-57742000D02*
X125499800Y-58082000D01*
G75*
G02*
X125354800Y-58227000I-145000J0D01*
G01*
X125064800Y-58227000D01*
G75*
G02*
X124919800Y-58082000I0J145000D01*
G01*
X124919800Y-57742000D01*
G75*
G02*
X125064800Y-57597000I145000J0D01*
G01*
X125354800Y-57597000D01*
G75*
G02*
X125499800Y-57742000I0J-145000D01*
G01*
G37*
%TD.AperFunction*%
%TD*%
%TO.P,C52,2*%
%TO.N,GND*%
%TA.AperFunction,SMDPad,CuDef*%
G36*
G01*
X124620200Y-58648400D02*
X124620200Y-58988400D01*
G75*
G02*
X124475200Y-59133400I-145000J0D01*
G01*
X124185200Y-59133400D01*
G75*
G02*
X124040200Y-58988400I0J145000D01*
G01*
X124040200Y-58648400D01*
G75*
G02*
X124185200Y-58503400I145000J0D01*
G01*
X124475200Y-58503400D01*
G75*
G02*
X124620200Y-58648400I0J-145000D01*
G01*
G37*
%TD.AperFunction*%
%TO.P,C52,1*%
%TO.N,+3V3*%
%TA.AperFunction,SMDPad,CuDef*%
G36*
G01*
X125510200Y-58648400D02*
X125510200Y-58988400D01*
G75*
G02*
X125365200Y-59133400I-145000J0D01*
G01*
X125075200Y-59133400D01*
G75*
G02*
X124930200Y-58988400I0J145000D01*
G01*
X124930200Y-58648400D01*
G75*
G02*
X125075200Y-58503400I145000J0D01*
G01*
X125365200Y-58503400D01*
G75*
G02*
X125510200Y-58648400I0J-145000D01*
G01*
G37*
%TD.AperFunction*%
%TD*%
%TO.P,C51,2*%
%TO.N,GND*%
%TA.AperFunction,SMDPad,CuDef*%
G36*
G01*
X124622000Y-55938600D02*
X124622000Y-56278600D01*
G75*
G02*
X124477000Y-56423600I-145000J0D01*
G01*
X124187000Y-56423600D01*
G75*
G02*
X124042000Y-56278600I0J145000D01*
G01*
X124042000Y-55938600D01*
G75*
G02*
X124187000Y-55793600I145000J0D01*
G01*
X124477000Y-55793600D01*
G75*
G02*
X124622000Y-55938600I0J-145000D01*
G01*
G37*
%TD.AperFunction*%
%TO.P,C51,1*%
%TO.N,/MCU/VDDPLL*%
%TA.AperFunction,SMDPad,CuDef*%
G36*
G01*
X125512000Y-55938600D02*
X125512000Y-56278600D01*
G75*
G02*
X125367000Y-56423600I-145000J0D01*
G01*
X125077000Y-56423600D01*
G75*
G02*
X124932000Y-56278600I0J145000D01*
G01*
X124932000Y-55938600D01*
G75*
G02*
X125077000Y-55793600I145000J0D01*
G01*
X125367000Y-55793600D01*
G75*
G02*
X125512000Y-55938600I0J-145000D01*
G01*
G37*
%TD.AperFunction*%
%TD*%
%TO.P,C50,2*%
%TO.N,GND*%
%TA.AperFunction,SMDPad,CuDef*%
G36*
G01*
X128577400Y-58485600D02*
X128237400Y-58485600D01*
G75*
G02*
X128092400Y-58340600I0J145000D01*
G01*
X128092400Y-58050600D01*
G75*
G02*
X128237400Y-57905600I145000J0D01*
G01*
X128577400Y-57905600D01*
G75*
G02*
X128722400Y-58050600I0J-145000D01*
G01*
X128722400Y-58340600D01*
G75*
G02*
X128577400Y-58485600I-145000J0D01*
G01*
G37*
%TD.AperFunction*%
%TO.P,C50,1*%
%TO.N,+3V3*%
%TA.AperFunction,SMDPad,CuDef*%
G36*
G01*
X128577400Y-59375600D02*
X128237400Y-59375600D01*
G75*
G02*
X128092400Y-59230600I0J145000D01*
G01*
X128092400Y-58940600D01*
G75*
G02*
X128237400Y-58795600I145000J0D01*
G01*
X128577400Y-58795600D01*
G75*
G02*
X128722400Y-58940600I0J-145000D01*
G01*
X128722400Y-59230600D01*
G75*
G02*
X128577400Y-59375600I-145000J0D01*
G01*
G37*
%TD.AperFunction*%
%TD*%
%TO.P,C49,2*%
%TO.N,GND*%
%TA.AperFunction,SMDPad,CuDef*%
G36*
G01*
X120465000Y-57398600D02*
X120805000Y-57398600D01*
G75*
G02*
X120950000Y-57543600I0J-145000D01*
G01*
X120950000Y-57833600D01*
G75*
G02*
X120805000Y-57978600I-145000J0D01*
G01*
X120465000Y-57978600D01*
G75*
G02*
X120320000Y-57833600I0J145000D01*
G01*
X120320000Y-57543600D01*
G75*
G02*
X120465000Y-57398600I145000J0D01*
G01*
G37*
%TD.AperFunction*%
%TO.P,C49,1*%
%TO.N,+3V3*%
%TA.AperFunction,SMDPad,CuDef*%
G36*
G01*
X120465000Y-56508600D02*
X120805000Y-56508600D01*
G75*
G02*
X120950000Y-56653600I0J-145000D01*
G01*
X120950000Y-56943600D01*
G75*
G02*
X120805000Y-57088600I-145000J0D01*
G01*
X120465000Y-57088600D01*
G75*
G02*
X120320000Y-56943600I0J145000D01*
G01*
X120320000Y-56653600D01*
G75*
G02*
X120465000Y-56508600I145000J0D01*
G01*
G37*
%TD.AperFunction*%
%TD*%
%TO.P,C48,2*%
%TO.N,GND*%
%TA.AperFunction,SMDPad,CuDef*%
G36*
G01*
X124609300Y-56840300D02*
X124609300Y-57180300D01*
G75*
G02*
X124464300Y-57325300I-145000J0D01*
G01*
X124174300Y-57325300D01*
G75*
G02*
X124029300Y-57180300I0J145000D01*
G01*
X124029300Y-56840300D01*
G75*
G02*
X124174300Y-56695300I145000J0D01*
G01*
X124464300Y-56695300D01*
G75*
G02*
X124609300Y-56840300I0J-145000D01*
G01*
G37*
%TD.AperFunction*%
%TO.P,C48,1*%
%TO.N,+3V3*%
%TA.AperFunction,SMDPad,CuDef*%
G36*
G01*
X125499300Y-56840300D02*
X125499300Y-57180300D01*
G75*
G02*
X125354300Y-57325300I-145000J0D01*
G01*
X125064300Y-57325300D01*
G75*
G02*
X124919300Y-57180300I0J145000D01*
G01*
X124919300Y-56840300D01*
G75*
G02*
X125064300Y-56695300I145000J0D01*
G01*
X125354300Y-56695300D01*
G75*
G02*
X125499300Y-56840300I0J-145000D01*
G01*
G37*
%TD.AperFunction*%
%TD*%
%TO.P,C46,2*%
%TO.N,GND*%
%TA.AperFunction,SMDPad,CuDef*%
G36*
G01*
X124107000Y-52897600D02*
X123767000Y-52897600D01*
G75*
G02*
X123622000Y-52752600I0J145000D01*
G01*
X123622000Y-52462600D01*
G75*
G02*
X123767000Y-52317600I145000J0D01*
G01*
X124107000Y-52317600D01*
G75*
G02*
X124252000Y-52462600I0J-145000D01*
G01*
X124252000Y-52752600D01*
G75*
G02*
X124107000Y-52897600I-145000J0D01*
G01*
G37*
%TD.AperFunction*%
%TO.P,C46,1*%
%TO.N,/MCU/VDDUTMIC*%
%TA.AperFunction,SMDPad,CuDef*%
G36*
G01*
X124107000Y-53787600D02*
X123767000Y-53787600D01*
G75*
G02*
X123622000Y-53642600I0J145000D01*
G01*
X123622000Y-53352600D01*
G75*
G02*
X123767000Y-53207600I145000J0D01*
G01*
X124107000Y-53207600D01*
G75*
G02*
X124252000Y-53352600I0J-145000D01*
G01*
X124252000Y-53642600D01*
G75*
G02*
X124107000Y-53787600I-145000J0D01*
G01*
G37*
%TD.AperFunction*%
%TD*%
%TO.P,C41,2*%
%TO.N,GND*%
%TA.AperFunction,SMDPad,CuDef*%
G36*
G01*
X148619100Y-57895100D02*
X149084100Y-57895100D01*
G75*
G02*
X149286600Y-58097600I0J-202500D01*
G01*
X149286600Y-58502600D01*
G75*
G02*
X149084100Y-58705100I-202500J0D01*
G01*
X148619100Y-58705100D01*
G75*
G02*
X148416600Y-58502600I0J202500D01*
G01*
X148416600Y-58097600D01*
G75*
G02*
X148619100Y-57895100I202500J0D01*
G01*
G37*
%TD.AperFunction*%
%TO.P,C41,1*%
%TO.N,V_OUT*%
%TA.AperFunction,SMDPad,CuDef*%
G36*
G01*
X148619100Y-56535100D02*
X149084100Y-56535100D01*
G75*
G02*
X149286600Y-56737600I0J-202500D01*
G01*
X149286600Y-57142600D01*
G75*
G02*
X149084100Y-57345100I-202500J0D01*
G01*
X148619100Y-57345100D01*
G75*
G02*
X148416600Y-57142600I0J202500D01*
G01*
X148416600Y-56737600D01*
G75*
G02*
X148619100Y-56535100I202500J0D01*
G01*
G37*
%TD.AperFunction*%
%TD*%
%TO.P,C37,2*%
%TO.N,GND*%
%TA.AperFunction,SMDPad,CuDef*%
G36*
G01*
X147127900Y-57913300D02*
X147592900Y-57913300D01*
G75*
G02*
X147795400Y-58115800I0J-202500D01*
G01*
X147795400Y-58520800D01*
G75*
G02*
X147592900Y-58723300I-202500J0D01*
G01*
X147127900Y-58723300D01*
G75*
G02*
X146925400Y-58520800I0J202500D01*
G01*
X146925400Y-58115800D01*
G75*
G02*
X147127900Y-57913300I202500J0D01*
G01*
G37*
%TD.AperFunction*%
%TO.P,C37,1*%
%TO.N,V_OUT*%
%TA.AperFunction,SMDPad,CuDef*%
G36*
G01*
X147127900Y-56553300D02*
X147592900Y-56553300D01*
G75*
G02*
X147795400Y-56755800I0J-202500D01*
G01*
X147795400Y-57160800D01*
G75*
G02*
X147592900Y-57363300I-202500J0D01*
G01*
X147127900Y-57363300D01*
G75*
G02*
X146925400Y-57160800I0J202500D01*
G01*
X146925400Y-56755800D01*
G75*
G02*
X147127900Y-56553300I202500J0D01*
G01*
G37*
%TD.AperFunction*%
%TD*%
%TO.P,C33,2*%
%TO.N,/Deserializer/VDD18*%
%TA.AperFunction,SMDPad,CuDef*%
G36*
G01*
X133434000Y-56362400D02*
X133434000Y-56702400D01*
G75*
G02*
X133289000Y-56847400I-145000J0D01*
G01*
X132999000Y-56847400D01*
G75*
G02*
X132854000Y-56702400I0J145000D01*
G01*
X132854000Y-56362400D01*
G75*
G02*
X132999000Y-56217400I145000J0D01*
G01*
X133289000Y-56217400D01*
G75*
G02*
X133434000Y-56362400I0J-145000D01*
G01*
G37*
%TD.AperFunction*%
%TO.P,C33,1*%
%TO.N,GND*%
%TA.AperFunction,SMDPad,CuDef*%
G36*
G01*
X134324000Y-56362400D02*
X134324000Y-56702400D01*
G75*
G02*
X134179000Y-56847400I-145000J0D01*
G01*
X133889000Y-56847400D01*
G75*
G02*
X133744000Y-56702400I0J145000D01*
G01*
X133744000Y-56362400D01*
G75*
G02*
X133889000Y-56217400I145000J0D01*
G01*
X134179000Y-56217400D01*
G75*
G02*
X134324000Y-56362400I0J-145000D01*
G01*
G37*
%TD.AperFunction*%
%TD*%
%TO.P,C32,2*%
%TO.N,/Deserializer/VDD18_FPD0*%
%TA.AperFunction,SMDPad,CuDef*%
G36*
G01*
X138712000Y-62244800D02*
X138372000Y-62244800D01*
G75*
G02*
X138227000Y-62099800I0J145000D01*
G01*
X138227000Y-61809800D01*
G75*
G02*
X138372000Y-61664800I145000J0D01*
G01*
X138712000Y-61664800D01*
G75*
G02*
X138857000Y-61809800I0J-145000D01*
G01*
X138857000Y-62099800D01*
G75*
G02*
X138712000Y-62244800I-145000J0D01*
G01*
G37*
%TD.AperFunction*%
%TO.P,C32,1*%
%TO.N,GND*%
%TA.AperFunction,SMDPad,CuDef*%
G36*
G01*
X138712000Y-63134800D02*
X138372000Y-63134800D01*
G75*
G02*
X138227000Y-62989800I0J145000D01*
G01*
X138227000Y-62699800D01*
G75*
G02*
X138372000Y-62554800I145000J0D01*
G01*
X138712000Y-62554800D01*
G75*
G02*
X138857000Y-62699800I0J-145000D01*
G01*
X138857000Y-62989800D01*
G75*
G02*
X138712000Y-63134800I-145000J0D01*
G01*
G37*
%TD.AperFunction*%
%TD*%
%TO.P,C31,2*%
%TO.N,/Deserializer/VDD18_P0*%
%TA.AperFunction,SMDPad,CuDef*%
G36*
G01*
X141917600Y-60020000D02*
X141917600Y-60360000D01*
G75*
G02*
X141772600Y-60505000I-145000J0D01*
G01*
X141482600Y-60505000D01*
G75*
G02*
X141337600Y-60360000I0J145000D01*
G01*
X141337600Y-60020000D01*
G75*
G02*
X141482600Y-59875000I145000J0D01*
G01*
X141772600Y-59875000D01*
G75*
G02*
X141917600Y-60020000I0J-145000D01*
G01*
G37*
%TD.AperFunction*%
%TO.P,C31,1*%
%TO.N,GND*%
%TA.AperFunction,SMDPad,CuDef*%
G36*
G01*
X142807600Y-60020000D02*
X142807600Y-60360000D01*
G75*
G02*
X142662600Y-60505000I-145000J0D01*
G01*
X142372600Y-60505000D01*
G75*
G02*
X142227600Y-60360000I0J145000D01*
G01*
X142227600Y-60020000D01*
G75*
G02*
X142372600Y-59875000I145000J0D01*
G01*
X142662600Y-59875000D01*
G75*
G02*
X142807600Y-60020000I0J-145000D01*
G01*
G37*
%TD.AperFunction*%
%TD*%
%TO.P,C29,2*%
%TO.N,/Deserializer/VDD11_DVP*%
%TA.AperFunction,SMDPad,CuDef*%
G36*
G01*
X133408600Y-58673800D02*
X133408600Y-59013800D01*
G75*
G02*
X133263600Y-59158800I-145000J0D01*
G01*
X132973600Y-59158800D01*
G75*
G02*
X132828600Y-59013800I0J145000D01*
G01*
X132828600Y-58673800D01*
G75*
G02*
X132973600Y-58528800I145000J0D01*
G01*
X133263600Y-58528800D01*
G75*
G02*
X133408600Y-58673800I0J-145000D01*
G01*
G37*
%TD.AperFunction*%
%TO.P,C29,1*%
%TO.N,GND*%
%TA.AperFunction,SMDPad,CuDef*%
G36*
G01*
X134298600Y-58673800D02*
X134298600Y-59013800D01*
G75*
G02*
X134153600Y-59158800I-145000J0D01*
G01*
X133863600Y-59158800D01*
G75*
G02*
X133718600Y-59013800I0J145000D01*
G01*
X133718600Y-58673800D01*
G75*
G02*
X133863600Y-58528800I145000J0D01*
G01*
X134153600Y-58528800D01*
G75*
G02*
X134298600Y-58673800I0J-145000D01*
G01*
G37*
%TD.AperFunction*%
%TD*%
%TO.P,C28,2*%
%TO.N,/Deserializer/VDD11_D*%
%TA.AperFunction,SMDPad,CuDef*%
G36*
G01*
X140175400Y-52217000D02*
X140515400Y-52217000D01*
G75*
G02*
X140660400Y-52362000I0J-145000D01*
G01*
X140660400Y-52652000D01*
G75*
G02*
X140515400Y-52797000I-145000J0D01*
G01*
X140175400Y-52797000D01*
G75*
G02*
X140030400Y-52652000I0J145000D01*
G01*
X140030400Y-52362000D01*
G75*
G02*
X140175400Y-52217000I145000J0D01*
G01*
G37*
%TD.AperFunction*%
%TO.P,C28,1*%
%TO.N,GND*%
%TA.AperFunction,SMDPad,CuDef*%
G36*
G01*
X140175400Y-51327000D02*
X140515400Y-51327000D01*
G75*
G02*
X140660400Y-51472000I0J-145000D01*
G01*
X140660400Y-51762000D01*
G75*
G02*
X140515400Y-51907000I-145000J0D01*
G01*
X140175400Y-51907000D01*
G75*
G02*
X140030400Y-51762000I0J145000D01*
G01*
X140030400Y-51472000D01*
G75*
G02*
X140175400Y-51327000I145000J0D01*
G01*
G37*
%TD.AperFunction*%
%TD*%
%TO.P,C26,2*%
%TO.N,/Deserializer/VDD18*%
%TA.AperFunction,SMDPad,CuDef*%
G36*
G01*
X133434000Y-55473400D02*
X133434000Y-55813400D01*
G75*
G02*
X133289000Y-55958400I-145000J0D01*
G01*
X132999000Y-55958400D01*
G75*
G02*
X132854000Y-55813400I0J145000D01*
G01*
X132854000Y-55473400D01*
G75*
G02*
X132999000Y-55328400I145000J0D01*
G01*
X133289000Y-55328400D01*
G75*
G02*
X133434000Y-55473400I0J-145000D01*
G01*
G37*
%TD.AperFunction*%
%TO.P,C26,1*%
%TO.N,GND*%
%TA.AperFunction,SMDPad,CuDef*%
G36*
G01*
X134324000Y-55473400D02*
X134324000Y-55813400D01*
G75*
G02*
X134179000Y-55958400I-145000J0D01*
G01*
X133889000Y-55958400D01*
G75*
G02*
X133744000Y-55813400I0J145000D01*
G01*
X133744000Y-55473400D01*
G75*
G02*
X133889000Y-55328400I145000J0D01*
G01*
X134179000Y-55328400D01*
G75*
G02*
X134324000Y-55473400I0J-145000D01*
G01*
G37*
%TD.AperFunction*%
%TD*%
%TO.P,C25,2*%
%TO.N,/Deserializer/VDD18_FPD0*%
%TA.AperFunction,SMDPad,CuDef*%
G36*
G01*
X137823000Y-62244800D02*
X137483000Y-62244800D01*
G75*
G02*
X137338000Y-62099800I0J145000D01*
G01*
X137338000Y-61809800D01*
G75*
G02*
X137483000Y-61664800I145000J0D01*
G01*
X137823000Y-61664800D01*
G75*
G02*
X137968000Y-61809800I0J-145000D01*
G01*
X137968000Y-62099800D01*
G75*
G02*
X137823000Y-62244800I-145000J0D01*
G01*
G37*
%TD.AperFunction*%
%TO.P,C25,1*%
%TO.N,GND*%
%TA.AperFunction,SMDPad,CuDef*%
G36*
G01*
X137823000Y-63134800D02*
X137483000Y-63134800D01*
G75*
G02*
X137338000Y-62989800I0J145000D01*
G01*
X137338000Y-62699800D01*
G75*
G02*
X137483000Y-62554800I145000J0D01*
G01*
X137823000Y-62554800D01*
G75*
G02*
X137968000Y-62699800I0J-145000D01*
G01*
X137968000Y-62989800D01*
G75*
G02*
X137823000Y-63134800I-145000J0D01*
G01*
G37*
%TD.AperFunction*%
%TD*%
%TO.P,C24,2*%
%TO.N,/Deserializer/VDD18_P0*%
%TA.AperFunction,SMDPad,CuDef*%
G36*
G01*
X141917600Y-59131000D02*
X141917600Y-59471000D01*
G75*
G02*
X141772600Y-59616000I-145000J0D01*
G01*
X141482600Y-59616000D01*
G75*
G02*
X141337600Y-59471000I0J145000D01*
G01*
X141337600Y-59131000D01*
G75*
G02*
X141482600Y-58986000I145000J0D01*
G01*
X141772600Y-58986000D01*
G75*
G02*
X141917600Y-59131000I0J-145000D01*
G01*
G37*
%TD.AperFunction*%
%TO.P,C24,1*%
%TO.N,GND*%
%TA.AperFunction,SMDPad,CuDef*%
G36*
G01*
X142807600Y-59131000D02*
X142807600Y-59471000D01*
G75*
G02*
X142662600Y-59616000I-145000J0D01*
G01*
X142372600Y-59616000D01*
G75*
G02*
X142227600Y-59471000I0J145000D01*
G01*
X142227600Y-59131000D01*
G75*
G02*
X142372600Y-58986000I145000J0D01*
G01*
X142662600Y-58986000D01*
G75*
G02*
X142807600Y-59131000I0J-145000D01*
G01*
G37*
%TD.AperFunction*%
%TD*%
%TO.P,C22,2*%
%TO.N,/Deserializer/VDD11_DVP*%
%TA.AperFunction,SMDPad,CuDef*%
G36*
G01*
X133408600Y-57784800D02*
X133408600Y-58124800D01*
G75*
G02*
X133263600Y-58269800I-145000J0D01*
G01*
X132973600Y-58269800D01*
G75*
G02*
X132828600Y-58124800I0J145000D01*
G01*
X132828600Y-57784800D01*
G75*
G02*
X132973600Y-57639800I145000J0D01*
G01*
X133263600Y-57639800D01*
G75*
G02*
X133408600Y-57784800I0J-145000D01*
G01*
G37*
%TD.AperFunction*%
%TO.P,C22,1*%
%TO.N,GND*%
%TA.AperFunction,SMDPad,CuDef*%
G36*
G01*
X134298600Y-57784800D02*
X134298600Y-58124800D01*
G75*
G02*
X134153600Y-58269800I-145000J0D01*
G01*
X133863600Y-58269800D01*
G75*
G02*
X133718600Y-58124800I0J145000D01*
G01*
X133718600Y-57784800D01*
G75*
G02*
X133863600Y-57639800I145000J0D01*
G01*
X134153600Y-57639800D01*
G75*
G02*
X134298600Y-57784800I0J-145000D01*
G01*
G37*
%TD.AperFunction*%
%TD*%
%TO.P,C21,2*%
%TO.N,/Deserializer/VDD11_D*%
%TA.AperFunction,SMDPad,CuDef*%
G36*
G01*
X139286400Y-52217000D02*
X139626400Y-52217000D01*
G75*
G02*
X139771400Y-52362000I0J-145000D01*
G01*
X139771400Y-52652000D01*
G75*
G02*
X139626400Y-52797000I-145000J0D01*
G01*
X139286400Y-52797000D01*
G75*
G02*
X139141400Y-52652000I0J145000D01*
G01*
X139141400Y-52362000D01*
G75*
G02*
X139286400Y-52217000I145000J0D01*
G01*
G37*
%TD.AperFunction*%
%TO.P,C21,1*%
%TO.N,GND*%
%TA.AperFunction,SMDPad,CuDef*%
G36*
G01*
X139286400Y-51327000D02*
X139626400Y-51327000D01*
G75*
G02*
X139771400Y-51472000I0J-145000D01*
G01*
X139771400Y-51762000D01*
G75*
G02*
X139626400Y-51907000I-145000J0D01*
G01*
X139286400Y-51907000D01*
G75*
G02*
X139141400Y-51762000I0J145000D01*
G01*
X139141400Y-51472000D01*
G75*
G02*
X139286400Y-51327000I145000J0D01*
G01*
G37*
%TD.AperFunction*%
%TD*%
%TO.P,C19,2*%
%TO.N,/Deserializer/VDD18*%
%TA.AperFunction,SMDPad,CuDef*%
G36*
G01*
X133434000Y-54584400D02*
X133434000Y-54924400D01*
G75*
G02*
X133289000Y-55069400I-145000J0D01*
G01*
X132999000Y-55069400D01*
G75*
G02*
X132854000Y-54924400I0J145000D01*
G01*
X132854000Y-54584400D01*
G75*
G02*
X132999000Y-54439400I145000J0D01*
G01*
X133289000Y-54439400D01*
G75*
G02*
X133434000Y-54584400I0J-145000D01*
G01*
G37*
%TD.AperFunction*%
%TO.P,C19,1*%
%TO.N,GND*%
%TA.AperFunction,SMDPad,CuDef*%
G36*
G01*
X134324000Y-54584400D02*
X134324000Y-54924400D01*
G75*
G02*
X134179000Y-55069400I-145000J0D01*
G01*
X133889000Y-55069400D01*
G75*
G02*
X133744000Y-54924400I0J145000D01*
G01*
X133744000Y-54584400D01*
G75*
G02*
X133889000Y-54439400I145000J0D01*
G01*
X134179000Y-54439400D01*
G75*
G02*
X134324000Y-54584400I0J-145000D01*
G01*
G37*
%TD.AperFunction*%
%TD*%
%TO.P,C18,2*%
%TO.N,/Deserializer/VDD18_FPD0*%
%TA.AperFunction,SMDPad,CuDef*%
G36*
G01*
X136934000Y-62244800D02*
X136594000Y-62244800D01*
G75*
G02*
X136449000Y-62099800I0J145000D01*
G01*
X136449000Y-61809800D01*
G75*
G02*
X136594000Y-61664800I145000J0D01*
G01*
X136934000Y-61664800D01*
G75*
G02*
X137079000Y-61809800I0J-145000D01*
G01*
X137079000Y-62099800D01*
G75*
G02*
X136934000Y-62244800I-145000J0D01*
G01*
G37*
%TD.AperFunction*%
%TO.P,C18,1*%
%TO.N,GND*%
%TA.AperFunction,SMDPad,CuDef*%
G36*
G01*
X136934000Y-63134800D02*
X136594000Y-63134800D01*
G75*
G02*
X136449000Y-62989800I0J145000D01*
G01*
X136449000Y-62699800D01*
G75*
G02*
X136594000Y-62554800I145000J0D01*
G01*
X136934000Y-62554800D01*
G75*
G02*
X137079000Y-62699800I0J-145000D01*
G01*
X137079000Y-62989800D01*
G75*
G02*
X136934000Y-63134800I-145000J0D01*
G01*
G37*
%TD.AperFunction*%
%TD*%
%TO.P,C17,2*%
%TO.N,/Deserializer/VDD18_P0*%
%TA.AperFunction,SMDPad,CuDef*%
G36*
G01*
X141905400Y-60909000D02*
X141905400Y-61249000D01*
G75*
G02*
X141760400Y-61394000I-145000J0D01*
G01*
X141470400Y-61394000D01*
G75*
G02*
X141325400Y-61249000I0J145000D01*
G01*
X141325400Y-60909000D01*
G75*
G02*
X141470400Y-60764000I145000J0D01*
G01*
X141760400Y-60764000D01*
G75*
G02*
X141905400Y-60909000I0J-145000D01*
G01*
G37*
%TD.AperFunction*%
%TO.P,C17,1*%
%TO.N,GND*%
%TA.AperFunction,SMDPad,CuDef*%
G36*
G01*
X142795400Y-60909000D02*
X142795400Y-61249000D01*
G75*
G02*
X142650400Y-61394000I-145000J0D01*
G01*
X142360400Y-61394000D01*
G75*
G02*
X142215400Y-61249000I0J145000D01*
G01*
X142215400Y-60909000D01*
G75*
G02*
X142360400Y-60764000I145000J0D01*
G01*
X142650400Y-60764000D01*
G75*
G02*
X142795400Y-60909000I0J-145000D01*
G01*
G37*
%TD.AperFunction*%
%TD*%
%TO.P,C16,2*%
%TO.N,+3V3*%
%TA.AperFunction,SMDPad,CuDef*%
G36*
G01*
X135882800Y-52217000D02*
X136222800Y-52217000D01*
G75*
G02*
X136367800Y-52362000I0J-145000D01*
G01*
X136367800Y-52652000D01*
G75*
G02*
X136222800Y-52797000I-145000J0D01*
G01*
X135882800Y-52797000D01*
G75*
G02*
X135737800Y-52652000I0J145000D01*
G01*
X135737800Y-52362000D01*
G75*
G02*
X135882800Y-52217000I145000J0D01*
G01*
G37*
%TD.AperFunction*%
%TO.P,C16,1*%
%TO.N,GND*%
%TA.AperFunction,SMDPad,CuDef*%
G36*
G01*
X135882800Y-51327000D02*
X136222800Y-51327000D01*
G75*
G02*
X136367800Y-51472000I0J-145000D01*
G01*
X136367800Y-51762000D01*
G75*
G02*
X136222800Y-51907000I-145000J0D01*
G01*
X135882800Y-51907000D01*
G75*
G02*
X135737800Y-51762000I0J145000D01*
G01*
X135737800Y-51472000D01*
G75*
G02*
X135882800Y-51327000I145000J0D01*
G01*
G37*
%TD.AperFunction*%
%TD*%
%TO.P,C14,2*%
%TO.N,/Deserializer/VDD11_D*%
%TA.AperFunction,SMDPad,CuDef*%
G36*
G01*
X138397400Y-52217000D02*
X138737400Y-52217000D01*
G75*
G02*
X138882400Y-52362000I0J-145000D01*
G01*
X138882400Y-52652000D01*
G75*
G02*
X138737400Y-52797000I-145000J0D01*
G01*
X138397400Y-52797000D01*
G75*
G02*
X138252400Y-52652000I0J145000D01*
G01*
X138252400Y-52362000D01*
G75*
G02*
X138397400Y-52217000I145000J0D01*
G01*
G37*
%TD.AperFunction*%
%TO.P,C14,1*%
%TO.N,GND*%
%TA.AperFunction,SMDPad,CuDef*%
G36*
G01*
X138397400Y-51327000D02*
X138737400Y-51327000D01*
G75*
G02*
X138882400Y-51472000I0J-145000D01*
G01*
X138882400Y-51762000D01*
G75*
G02*
X138737400Y-51907000I-145000J0D01*
G01*
X138397400Y-51907000D01*
G75*
G02*
X138252400Y-51762000I0J145000D01*
G01*
X138252400Y-51472000D01*
G75*
G02*
X138397400Y-51327000I145000J0D01*
G01*
G37*
%TD.AperFunction*%
%TD*%
%TO.P,C5,2*%
%TO.N,/Deserializer/IDX*%
%TA.AperFunction,SMDPad,CuDef*%
G36*
G01*
X144452400Y-62244800D02*
X144112400Y-62244800D01*
G75*
G02*
X143967400Y-62099800I0J145000D01*
G01*
X143967400Y-61809800D01*
G75*
G02*
X144112400Y-61664800I145000J0D01*
G01*
X144452400Y-61664800D01*
G75*
G02*
X144597400Y-61809800I0J-145000D01*
G01*
X144597400Y-62099800D01*
G75*
G02*
X144452400Y-62244800I-145000J0D01*
G01*
G37*
%TD.AperFunction*%
%TO.P,C5,1*%
%TO.N,GND*%
%TA.AperFunction,SMDPad,CuDef*%
G36*
G01*
X144452400Y-63134800D02*
X144112400Y-63134800D01*
G75*
G02*
X143967400Y-62989800I0J145000D01*
G01*
X143967400Y-62699800D01*
G75*
G02*
X144112400Y-62554800I145000J0D01*
G01*
X144452400Y-62554800D01*
G75*
G02*
X144597400Y-62699800I0J-145000D01*
G01*
X144597400Y-62989800D01*
G75*
G02*
X144452400Y-63134800I-145000J0D01*
G01*
G37*
%TD.AperFunction*%
%TD*%
D17*
%TO.N,GND*%
X140066000Y-50919000D03*
X141666200Y-54398800D03*
X135468600Y-48683800D03*
X135468600Y-47896400D03*
X124394401Y-59863311D03*
X130007600Y-52417600D03*
X148829000Y-59199400D03*
X147355800Y-59174000D03*
X123560922Y-59829130D03*
X130414000Y-55592600D03*
X143250000Y-59750000D03*
X121716800Y-48768000D03*
X127584200Y-58242200D03*
X124206000Y-50571400D03*
X126796800Y-45339000D03*
X126796800Y-49936400D03*
X137210800Y-45745400D03*
X148818600Y-63246000D03*
X145872200Y-63246000D03*
X143060800Y-56151400D03*
X144170400Y-57327800D03*
X144526000Y-47244000D03*
X143205200Y-61087000D03*
X144272000Y-63500000D03*
X138277600Y-63500000D03*
X133299200Y-63500000D03*
X128375190Y-54991000D03*
X122809000Y-58242200D03*
X120650000Y-54356000D03*
X121310400Y-58140600D03*
X120726200Y-52628800D03*
X125207000Y-59834400D03*
X139304000Y-45458000D03*
X136764000Y-63492000D03*
X143985200Y-52341400D03*
X143959800Y-53509800D03*
X138303000Y-57200800D03*
X136525000Y-57200800D03*
X138303000Y-55422800D03*
X136499600Y-55448200D03*
X134747000Y-55422800D03*
X134721600Y-57226200D03*
X134696200Y-59004200D03*
X136499600Y-59004200D03*
X138303000Y-59029600D03*
X121716800Y-49352200D03*
X147559000Y-44619800D03*
X144855052Y-45997900D03*
X129271000Y-46778800D03*
%TO.N,/Deserializer/IDX*%
X140218400Y-61206000D03*
%TO.N,/Deserializer/VDD18_P0*%
X139812000Y-60596400D03*
X140828000Y-56126000D03*
%TO.N,/Deserializer/VDD18_FPD0*%
X140751800Y-58793000D03*
X136764000Y-61333000D03*
%TO.N,+3V3*%
X130896600Y-49420400D03*
X136129000Y-53128800D03*
X140802600Y-59529600D03*
X128369301Y-51652339D03*
X134706600Y-49763300D03*
X126036098Y-59021599D03*
X134579600Y-61383800D03*
X133121400Y-60477400D03*
X126009400Y-63474600D03*
X123469400Y-63474600D03*
X121332001Y-59033399D03*
X120827800Y-51943000D03*
X121386600Y-56819800D03*
X125966200Y-57416700D03*
X127594600Y-59809000D03*
X145603200Y-46016800D03*
X145603200Y-46804200D03*
X121588654Y-61904686D03*
%TO.N,/Deserializer/VDD18*%
X142595600Y-63474600D03*
X132065000Y-56456200D03*
%TO.N,/Deserializer/VDD11_D*%
X138465800Y-53103400D03*
%TO.N,/Deserializer/VDD11_DVP*%
X132369800Y-57980200D03*
%TO.N,+BATT*%
X140396200Y-50309400D03*
X124358400Y-48818800D03*
X124358400Y-49657000D03*
X145745200Y-49936400D03*
X145008600Y-49911000D03*
X143789400Y-47218600D03*
X142910804Y-44543600D03*
X144917400Y-44543600D03*
%TO.N,V_OUT*%
X148829000Y-56126000D03*
X147355800Y-56126000D03*
X143789400Y-55727600D03*
X145389600Y-54483000D03*
%TO.N,+1V8*%
X141945600Y-53840000D03*
X136814800Y-49892779D03*
X133843000Y-52062000D03*
X143750000Y-59000000D03*
X142875000Y-45974000D03*
X142875000Y-46761400D03*
X140899177Y-63521000D03*
X135051800Y-63474600D03*
%TO.N,/MCU/VDDUTMIC*%
X124089400Y-54551200D03*
%TO.N,/MCU/VDDPLL*%
X126009400Y-56616600D03*
%TO.N,+1V2*%
X128318500Y-52227100D03*
X124838700Y-50284000D03*
X121343800Y-55821200D03*
X126009400Y-58216800D03*
X125180680Y-60594641D03*
%TO.N,Net-(D1-Pad2)*%
X121513600Y-51943000D03*
%TO.N,/MCU/SWDIO*%
X127580214Y-61448078D03*
%TO.N,/MCU/SWDCLK*%
X128377769Y-59797651D03*
%TO.N,/MCU/DAT2*%
X128305800Y-63492000D03*
X133749999Y-49250000D03*
%TO.N,/MCU/DAT3*%
X133169900Y-49407700D03*
X128371600Y-61391800D03*
%TO.N,/MCU/DAT0*%
X127594600Y-54957600D03*
X129042400Y-49445800D03*
%TO.N,/MCU/CMD*%
X129918261Y-53110667D03*
X132369829Y-49395000D03*
%TO.N,/MCU/CLK*%
X129451359Y-53636718D03*
X126807200Y-61409200D03*
%TO.N,/MCU/DAT1*%
X128255000Y-49420402D03*
X126822200Y-55016400D03*
%TO.N,/Deserializer/OEN*%
X137068800Y-53078000D03*
%TO.N,/Deserializer/OSS_SEL*%
X137754600Y-53103400D03*
%TO.N,/Deserializer/I2C_SCL*%
X128382000Y-57421400D03*
X139100800Y-54602000D03*
%TO.N,/Deserializer/I2C_SDA*%
X128352689Y-55821601D03*
X139812000Y-53840000D03*
%TO.N,/Deserializer/LOCK*%
X140665200Y-54424200D03*
X128917721Y-54259100D03*
%TO.N,/Deserializer/GPIO0*%
X135443200Y-59859800D03*
X120635000Y-60215400D03*
%TO.N,/Deserializer/GPIO1*%
X134757400Y-59809000D03*
X121219200Y-60647200D03*
%TO.N,/Deserializer/GPIO2*%
X122819400Y-59783600D03*
X133730988Y-61366400D03*
%TO.N,/Deserializer/GPIO3*%
X133171237Y-61162114D03*
X122819400Y-60621800D03*
%TO.N,/Deserializer/ROUT3*%
X132496800Y-60494798D03*
X132014200Y-58462800D03*
%TO.N,/Deserializer/ROUT4*%
X131744684Y-60480990D03*
X132039600Y-57472200D03*
%TO.N,/Deserializer/ROUT5*%
X131597400Y-61493400D03*
X132369800Y-56964200D03*
%TO.N,/Deserializer/ROUT6*%
X131633212Y-62730000D03*
X132369800Y-55948200D03*
%TO.N,/Deserializer/ROUT7*%
X131074400Y-63209010D03*
X132065000Y-55440200D03*
%TO.N,/Deserializer/ROUT8*%
X130199562Y-61853674D03*
X132373115Y-54952352D03*
%TO.N,/Deserializer/ROUT9*%
X125994400Y-59834400D03*
X132065000Y-54449600D03*
%TO.N,/Deserializer/ROUT10*%
X131785600Y-53814600D03*
%TO.N,/Deserializer/ROUT11*%
X133258800Y-52773200D03*
%TO.N,/Deserializer/HSYNC*%
X134467600Y-52730400D03*
X122794000Y-61434600D03*
%TO.N,/Deserializer/VSYNC*%
X134478000Y-52087400D03*
X126781800Y-59817000D03*
%TO.N,/Deserializer/PCLK*%
X134503400Y-51452400D03*
X124394200Y-61434600D03*
%TO.N,Net-(D1-Pad4)*%
X121183400Y-50647600D03*
%TO.N,Net-(D1-Pad3)*%
X121920000Y-50622200D03*
%TO.N,/MCU/LED_B*%
X123596400Y-57429400D03*
%TO.N,/MCU/LED_G*%
X122785197Y-57453295D03*
%TO.N,/MCU/LED_R*%
X121818400Y-57404000D03*
%TO.N,Net-(C58-Pad2)*%
X123622600Y-54957600D03*
%TO.N,+5V*%
X137494800Y-49883400D03*
X129753600Y-48734600D03*
X129728200Y-47896400D03*
%TO.N,/MCU/D-*%
X124800600Y-54551198D03*
%TO.N,/MCU/D+*%
X125228810Y-55027876D03*
%TO.N,/MCU/VDDPLLUSB*%
X125600700Y-54043200D03*
X126807200Y-58234200D03*
%TO.N,Net-(R28-Pad1)*%
X135392400Y-49826800D03*
%TO.N,/MCU/CHR_STAT*%
X141183600Y-54043200D03*
X130972800Y-51731800D03*
%TO.N,/MCU/VBUS_DET*%
X121905000Y-58208800D03*
X125969000Y-49979200D03*
%TO.N,/MCU/IR_OUT*%
X121610479Y-61328087D03*
X126731000Y-47388400D03*
%TD*%
D18*
%TO.N,GND*%
X139456400Y-51617000D02*
X139456400Y-51528600D01*
X139456400Y-51528600D02*
X140066000Y-50919000D01*
X135214600Y-52542400D02*
X135214600Y-52455200D01*
X135214600Y-52455200D02*
X136052800Y-51617000D01*
D19*
X136134800Y-50588800D02*
X136134800Y-49350000D01*
X136134800Y-49350000D02*
X135468600Y-48683800D01*
D18*
X136052800Y-51617000D02*
X136052800Y-50670800D01*
X136052800Y-50670800D02*
X136134800Y-50588800D01*
X138518800Y-51568400D02*
X138567400Y-51617000D01*
X138567400Y-51617000D02*
X140345400Y-51617000D01*
X126210300Y-52004300D02*
X126210300Y-50522900D01*
X126210300Y-50522900D02*
X126796800Y-49936400D01*
X127584200Y-58242200D02*
X128360800Y-58242200D01*
X128360800Y-58242200D02*
X128407400Y-58195600D01*
X127607800Y-56126000D02*
X127607800Y-55758390D01*
X127607800Y-55758390D02*
X128375190Y-54991000D01*
X127607800Y-56126000D02*
X127607800Y-56954200D01*
X127607800Y-56954200D02*
X127617800Y-56964200D01*
X124319300Y-57010300D02*
X124319300Y-57911500D01*
X124319300Y-57911500D02*
X124319800Y-57912000D01*
D20*
X135738800Y-45453400D02*
X136918800Y-45453400D01*
X136918800Y-45453400D02*
X137210800Y-45745400D01*
X133138800Y-45453400D02*
X135738800Y-45453400D01*
X128238800Y-45453400D02*
X126911200Y-45453400D01*
X126911200Y-45453400D02*
X126796800Y-45339000D01*
X130838800Y-45453400D02*
X128238800Y-45453400D01*
D21*
X148851600Y-59176800D02*
X148829000Y-59199400D01*
X148851600Y-58300100D02*
X148851600Y-59176800D01*
X147360400Y-59169400D02*
X147355800Y-59174000D01*
X147360400Y-58318300D02*
X147360400Y-59169400D01*
D18*
X129804400Y-62907800D02*
X130541000Y-63644400D01*
X129804400Y-62882400D02*
X129804400Y-62907800D01*
X130541000Y-63644400D02*
X133154800Y-63644400D01*
X133154800Y-63644400D02*
X133299200Y-63500000D01*
X123568200Y-59836408D02*
X123560922Y-59829130D01*
X123568200Y-60748800D02*
X123568200Y-59836408D01*
X123937000Y-50840400D02*
X124206000Y-50571400D01*
X123937000Y-52607600D02*
X123937000Y-50840400D01*
X130720600Y-46228000D02*
X130746000Y-46253400D01*
X134034000Y-55643400D02*
X134526400Y-55643400D01*
X134526400Y-55643400D02*
X134747000Y-55422800D01*
X134008600Y-58843800D02*
X134535800Y-58843800D01*
X134535800Y-58843800D02*
X134696200Y-59004200D01*
X142517600Y-59301000D02*
X142517600Y-61066800D01*
X142517600Y-61066800D02*
X142505400Y-61079000D01*
X134008600Y-57954800D02*
X134008600Y-58843800D01*
X134034000Y-54754400D02*
X134034000Y-56532400D01*
X143205200Y-61087000D02*
X142513400Y-61087000D01*
X142513400Y-61087000D02*
X142505400Y-61079000D01*
X144282400Y-63489600D02*
X144272000Y-63500000D01*
X144282400Y-62844800D02*
X144282400Y-63489600D01*
X144282400Y-62844800D02*
X143428800Y-62844800D01*
X143428800Y-62844800D02*
X143418800Y-62854800D01*
X136764000Y-62844800D02*
X136764000Y-63492000D01*
X136764000Y-62844800D02*
X138542000Y-62844800D01*
X124319300Y-57010300D02*
X124319300Y-56121300D01*
X124319300Y-56121300D02*
X124332000Y-56108600D01*
X124319800Y-57912000D02*
X123139200Y-57912000D01*
X123139200Y-57912000D02*
X122809000Y-58242200D01*
X123385200Y-58818400D02*
X122809000Y-58242200D01*
X124330200Y-58818400D02*
X123385200Y-58818400D01*
X120635000Y-54371000D02*
X120650000Y-54356000D01*
X120635000Y-55046000D02*
X120635000Y-54371000D01*
X120635000Y-57688600D02*
X120858400Y-57688600D01*
X120858400Y-57688600D02*
X121310400Y-58140600D01*
D19*
X142267399Y-50980999D02*
X142707600Y-51421200D01*
X140066000Y-50919000D02*
X140127999Y-50980999D01*
X140127999Y-50980999D02*
X142267399Y-50980999D01*
D18*
X128128000Y-45564200D02*
X128238800Y-45453400D01*
X124953000Y-47182800D02*
X126796800Y-45339000D01*
X124953000Y-47263600D02*
X124953000Y-47182800D01*
X147228800Y-44619800D02*
X146543000Y-45305600D01*
X147559000Y-44619800D02*
X147228800Y-44619800D01*
%TO.N,/Deserializer/IDX*%
X142299000Y-61637800D02*
X141285200Y-61637800D01*
X142606000Y-61944800D02*
X142299000Y-61637800D01*
X140853400Y-61206000D02*
X140218400Y-61206000D01*
X141285200Y-61637800D02*
X140853400Y-61206000D01*
X143418800Y-61944800D02*
X144272400Y-61944800D01*
X144272400Y-61944800D02*
X144282400Y-61954800D01*
X142606000Y-61944800D02*
X143418800Y-61944800D01*
%TO.N,/Deserializer/VDD18_P0*%
X141132800Y-60596400D02*
X139812000Y-60596400D01*
X141615400Y-61079000D02*
X141132800Y-60596400D01*
X141763200Y-58234200D02*
X141763200Y-57061200D01*
X141763200Y-57061200D02*
X140828000Y-56126000D01*
X141627600Y-59301000D02*
X141627600Y-58369800D01*
X141627600Y-58369800D02*
X141763200Y-58234200D01*
X141615400Y-61079000D02*
X141615400Y-59313200D01*
X141615400Y-59313200D02*
X141627600Y-59301000D01*
%TO.N,/Deserializer/VDD18_FPD0*%
X136764000Y-61954800D02*
X136764000Y-61333000D01*
X138542000Y-61954800D02*
X138854400Y-61954800D01*
X138854400Y-61954800D02*
X139553400Y-62653800D01*
X136764000Y-61954800D02*
X138542000Y-61954800D01*
%TO.N,+3V3*%
X139583400Y-53306600D02*
X137830800Y-55059200D01*
X140400600Y-53306600D02*
X139583400Y-53306600D01*
X136129000Y-53128800D02*
X136129000Y-52583200D01*
X136129000Y-52583200D02*
X136052800Y-52507000D01*
X140012660Y-58739660D02*
X140802600Y-59529600D01*
X140012660Y-56301600D02*
X140012660Y-58739660D01*
X139202400Y-56301600D02*
X140012660Y-56301600D01*
X127292000Y-50474500D02*
X127975162Y-50474500D01*
X126733200Y-51033300D02*
X127292000Y-50474500D01*
X127975162Y-50474500D02*
X128369301Y-50868639D01*
X128369301Y-50868639D02*
X128369301Y-51652339D01*
X127684000Y-59809000D02*
X128407400Y-59085600D01*
X127628000Y-59842400D02*
X127594600Y-59809000D01*
X127594600Y-59809000D02*
X127684000Y-59809000D01*
X125220200Y-58818400D02*
X125832899Y-58818400D01*
X125832899Y-58818400D02*
X126036098Y-59021599D01*
X133223200Y-60477400D02*
X133121400Y-60477400D01*
X134018600Y-59682000D02*
X133223200Y-60477400D01*
X126009400Y-62888200D02*
X126009400Y-63474600D01*
X123469400Y-62862800D02*
X123469400Y-63474600D01*
X127494800Y-59908800D02*
X127594600Y-59809000D01*
X121386600Y-56819800D02*
X120656200Y-56819800D01*
X120656200Y-56819800D02*
X120635000Y-56798600D01*
X125966200Y-57416700D02*
X125615700Y-57416700D01*
X125615700Y-57416700D02*
X125209300Y-57010300D01*
X138336600Y-56301600D02*
X139202400Y-56301600D01*
X137830800Y-55795800D02*
X138336600Y-56301600D01*
X137830800Y-55059200D02*
X137830800Y-55795800D01*
X144815800Y-46804200D02*
X145603200Y-46804200D01*
X144003000Y-45559600D02*
X144003000Y-45991400D01*
X144003000Y-45991400D02*
X144815800Y-46804200D01*
X122184400Y-62500432D02*
X121588654Y-61904686D01*
X122184400Y-62882400D02*
X122184400Y-62500432D01*
%TO.N,/Deserializer/VDD18*%
X142606000Y-62854800D02*
X142606000Y-63464200D01*
X142606000Y-63464200D02*
X142595600Y-63474600D01*
X136949644Y-59555000D02*
X136416244Y-59555000D01*
X136416244Y-59555000D02*
X134130244Y-57269000D01*
X139385234Y-61990590D02*
X136949644Y-59555000D01*
X133880600Y-57269000D02*
X133144000Y-56532400D01*
X142606000Y-62854800D02*
X141741790Y-61990590D01*
X141741790Y-61990590D02*
X139385234Y-61990590D01*
X134130244Y-57269000D02*
X133880600Y-57269000D01*
X132065000Y-56456200D02*
X133067800Y-56456200D01*
X133067800Y-56456200D02*
X133144000Y-56532400D01*
X133144000Y-56532400D02*
X133144000Y-53848600D01*
X133144000Y-53848600D02*
X133279600Y-53713000D01*
%TO.N,/Deserializer/VDD11_D*%
X138567400Y-52507000D02*
X141173600Y-52507000D01*
X141173600Y-52507000D02*
X141183600Y-52517000D01*
X138465800Y-53103400D02*
X138465800Y-52608600D01*
X138465800Y-52608600D02*
X138567400Y-52507000D01*
%TO.N,/Deserializer/VDD11_DVP*%
X132369800Y-57980200D02*
X133093200Y-57980200D01*
X133093200Y-57980200D02*
X133118600Y-57954800D01*
X133118600Y-57954800D02*
X133118600Y-59672000D01*
X133118600Y-59672000D02*
X133108600Y-59682000D01*
D19*
%TO.N,+BATT*%
X145745200Y-49936400D02*
X145034000Y-49936400D01*
X145034000Y-49936400D02*
X145008600Y-49911000D01*
X142857800Y-49911000D02*
X142707600Y-50061200D01*
X145008600Y-49911000D02*
X142857800Y-49911000D01*
X142688000Y-50080800D02*
X142707600Y-50061200D01*
X140599400Y-50080800D02*
X142688000Y-50080800D01*
X140396200Y-50309400D02*
X140396200Y-50284000D01*
X140396200Y-50284000D02*
X140599400Y-50080800D01*
D21*
%TO.N,V_OUT*%
X148829000Y-56126000D02*
X148829000Y-56917500D01*
X148829000Y-56917500D02*
X148851600Y-56940100D01*
X147355800Y-56126000D02*
X147355800Y-56953700D01*
X147355800Y-56953700D02*
X147360400Y-56958300D01*
D18*
X145034000Y-54483000D02*
X143789400Y-55727600D01*
X145389600Y-54483000D02*
X145034000Y-54483000D01*
%TO.N,+1V8*%
X141945600Y-52369000D02*
X141945600Y-53840000D01*
X141183600Y-51607000D02*
X141945600Y-52369000D01*
X136891000Y-51581600D02*
X137703800Y-51581600D01*
X133843000Y-52946400D02*
X133843000Y-52062000D01*
X134609600Y-53713000D02*
X133843000Y-52946400D01*
D21*
X143093200Y-58343200D02*
X143750000Y-59000000D01*
X143093200Y-58234200D02*
X143093200Y-58343200D01*
D18*
X140883400Y-63505223D02*
X140899177Y-63521000D01*
X140883400Y-62653800D02*
X140883400Y-63505223D01*
X136814800Y-51505400D02*
X136814800Y-49892779D01*
X136891000Y-51581600D02*
X136814800Y-51505400D01*
%TO.N,/MCU/VDDUTMIC*%
X123937000Y-53497600D02*
X123937000Y-54398800D01*
X123937000Y-54398800D02*
X124089400Y-54551200D01*
X123937000Y-53497600D02*
X124842800Y-53497600D01*
X124842800Y-53497600D02*
X125003800Y-53336600D01*
%TO.N,/MCU/VDDPLL*%
X126009400Y-56616600D02*
X125730000Y-56616600D01*
X125730000Y-56616600D02*
X125222000Y-56108600D01*
%TO.N,+1V2*%
X125003800Y-52006600D02*
X125003800Y-50449100D01*
X125003800Y-50449100D02*
X124838700Y-50284000D01*
X126002400Y-58216800D02*
X125689600Y-57904000D01*
X126009400Y-58216800D02*
X126002400Y-58216800D01*
X125689600Y-57904000D02*
X125217800Y-57904000D01*
X125217800Y-57904000D02*
X125209800Y-57912000D01*
X120635000Y-55936000D02*
X121229000Y-55936000D01*
X121229000Y-55936000D02*
X121343800Y-55821200D01*
X124458200Y-60748800D02*
X125026521Y-60748800D01*
X125026521Y-60748800D02*
X125180680Y-60594641D01*
%TO.N,Net-(D1-Pad2)*%
X121513600Y-51943000D02*
X121513600Y-52557200D01*
X121513600Y-52557200D02*
X121447800Y-52623000D01*
%TO.N,/MCU/SWDIO*%
X127580214Y-62665786D02*
X127363600Y-62882400D01*
X127580214Y-61448078D02*
X127580214Y-62665786D01*
X127363600Y-62882400D02*
X127264400Y-62882400D01*
X127264400Y-62882400D02*
X126360200Y-61978200D01*
X126360200Y-61978200D02*
X126009400Y-61978200D01*
%TO.N,/MCU/SWDCLK*%
X126518600Y-60629800D02*
X124724400Y-62424000D01*
X128377769Y-59797651D02*
X127545620Y-60629800D01*
X124724400Y-62424000D02*
X124724400Y-62882400D01*
X127545620Y-60629800D02*
X126518600Y-60629800D01*
X124724400Y-62882400D02*
X123820200Y-61978200D01*
X123820200Y-61978200D02*
X123469400Y-61978200D01*
%TO.N,/MCU/DAT2*%
X129946390Y-60683010D02*
X129946390Y-54914810D01*
X129946390Y-54914810D02*
X133749999Y-51111201D01*
X133749999Y-51111201D02*
X133749999Y-49250000D01*
X128305800Y-62323600D02*
X129946390Y-60683010D01*
X128305800Y-63492000D02*
X128305800Y-62323600D01*
%TO.N,/MCU/DAT3*%
X129666981Y-54635419D02*
X133169900Y-51132500D01*
X128690546Y-61391800D02*
X129666981Y-60415365D01*
X133169900Y-51132500D02*
X133169900Y-49407700D01*
X128371600Y-61391800D02*
X128690546Y-61391800D01*
X129666981Y-60415365D02*
X129666981Y-54635419D01*
%TO.N,/MCU/CMD*%
X130236459Y-53110667D02*
X129918261Y-53110667D01*
X132369829Y-49395000D02*
X132369829Y-50977297D01*
X132369829Y-50977297D02*
X130236459Y-53110667D01*
%TO.N,/MCU/CLK*%
X129345921Y-53742156D02*
X129345921Y-60341279D01*
X127256400Y-60960000D02*
X126807200Y-61409200D01*
X129451359Y-53636718D02*
X129345921Y-53742156D01*
X129345921Y-60341279D02*
X128727200Y-60960000D01*
X128727200Y-60960000D02*
X127256400Y-60960000D01*
%TO.N,/Deserializer/OEN*%
X137068800Y-53078000D02*
X137068800Y-52669400D01*
X137068800Y-52669400D02*
X136891000Y-52491600D01*
%TO.N,/Deserializer/OSS_SEL*%
X137754600Y-53103400D02*
X137754600Y-52542400D01*
X137754600Y-52542400D02*
X137703800Y-52491600D01*
%TO.N,/Deserializer/I2C_SCL*%
X139202400Y-55391600D02*
X139202400Y-54703600D01*
X139202400Y-54703600D02*
X139100800Y-54602000D01*
%TO.N,/Deserializer/I2C_SDA*%
X140012660Y-55391600D02*
X140012660Y-54040660D01*
X140012660Y-54040660D02*
X139812000Y-53840000D01*
%TO.N,/Deserializer/ROUT3*%
X132496800Y-58945400D02*
X132496800Y-60494798D01*
X132014200Y-58462800D02*
X132496800Y-58945400D01*
%TO.N,/Deserializer/ROUT4*%
X132039600Y-57472200D02*
X131585999Y-57925801D01*
X131585999Y-57925801D02*
X131585999Y-60322305D01*
X131585999Y-60322305D02*
X131744684Y-60480990D01*
%TO.N,/Deserializer/ROUT5*%
X131656200Y-56964200D02*
X131267200Y-57353200D01*
X131267200Y-61163200D02*
X131597400Y-61493400D01*
X132369800Y-56964200D02*
X131656200Y-56964200D01*
X131267200Y-57353200D02*
X131267200Y-61163200D01*
%TO.N,/Deserializer/ROUT6*%
X131783200Y-55948200D02*
X130972800Y-56758600D01*
X131633200Y-62730000D02*
X131633212Y-62730000D01*
X132369800Y-55948200D02*
X131783200Y-55948200D01*
X130972800Y-56758600D02*
X130972800Y-62069600D01*
X130972800Y-62069600D02*
X131633200Y-62730000D01*
%TO.N,/Deserializer/ROUT7*%
X131746802Y-55440200D02*
X130642600Y-56544402D01*
X132065000Y-55440200D02*
X131746802Y-55440200D01*
X130642600Y-56544402D02*
X130642600Y-62145800D01*
X131074400Y-62577600D02*
X131074400Y-63209010D01*
X130642600Y-62145800D02*
X131074400Y-62577600D01*
%TO.N,/Deserializer/ROUT8*%
X130225800Y-56413529D02*
X130225800Y-61827436D01*
X130225800Y-61827436D02*
X130199562Y-61853674D01*
X132373115Y-54952352D02*
X131686977Y-54952352D01*
X131686977Y-54952352D02*
X130225800Y-56413529D01*
%TO.N,Net-(D1-Pad4)*%
X122286000Y-52623000D02*
X122286000Y-51750200D01*
X122286000Y-51750200D02*
X121183400Y-50647600D01*
%TO.N,Net-(D1-Pad3)*%
X121920000Y-50622200D02*
X123073400Y-51775600D01*
X123073400Y-51775600D02*
X123073400Y-52623000D01*
%TO.N,/MCU/LED_B*%
X123073400Y-56906400D02*
X123596400Y-57429400D01*
X123073400Y-53533000D02*
X123073400Y-56906400D01*
%TO.N,/MCU/LED_G*%
X122286000Y-53533000D02*
X122286000Y-56954098D01*
X122286000Y-56954098D02*
X122785197Y-57453295D01*
%TO.N,/MCU/LED_R*%
X121447800Y-55153800D02*
X121818400Y-55524400D01*
X121818400Y-55524400D02*
X121818400Y-57404000D01*
X121447800Y-53533000D02*
X121447800Y-55153800D01*
%TO.N,Net-(C58-Pad2)*%
X126120900Y-55529100D02*
X124194100Y-55529100D01*
X126717800Y-56126000D02*
X126120900Y-55529100D01*
X124194100Y-55529100D02*
X123622600Y-54957600D01*
X126707800Y-56964200D02*
X126707800Y-56136000D01*
X126707800Y-56136000D02*
X126717800Y-56126000D01*
D19*
%TO.N,+5V*%
X137494800Y-49883400D02*
X137494800Y-50588800D01*
D18*
X126398600Y-47896400D02*
X125765800Y-47263600D01*
X128964000Y-47896400D02*
X126398600Y-47896400D01*
X128964000Y-47896400D02*
X129728200Y-47896400D01*
D19*
X137494800Y-48474800D02*
X137494800Y-49883400D01*
X136205200Y-47185200D02*
X137494800Y-48474800D01*
X130261600Y-47185200D02*
X136205200Y-47185200D01*
X129728200Y-47896400D02*
X129728200Y-47718600D01*
X129728200Y-47718600D02*
X130261600Y-47185200D01*
D22*
%TO.N,/MCU/D-*%
X131353800Y-48318400D02*
X131338800Y-48303400D01*
D18*
X125923735Y-54529491D02*
X125889050Y-54537280D01*
X125991751Y-54508859D02*
X125957996Y-54520010D01*
X128858812Y-52990794D02*
X128847661Y-53024548D01*
X128890872Y-52557613D02*
X128890000Y-52593152D01*
X128893487Y-52522161D02*
X128890872Y-52557613D01*
X128876082Y-52921848D02*
X128868293Y-52956533D01*
X131482511Y-49468142D02*
X131478160Y-49503423D01*
X125783291Y-54550324D02*
X125747754Y-54551198D01*
X128897838Y-52486880D02*
X128893487Y-52522161D01*
X126057416Y-54481660D02*
X126024917Y-54496065D01*
X128903916Y-52451854D02*
X128897838Y-52486880D01*
X128911705Y-52417169D02*
X128903916Y-52451854D01*
X127837594Y-54012012D02*
X127803333Y-54021493D01*
X128932337Y-52349154D02*
X128921186Y-52382908D01*
X126645508Y-54074385D02*
X126611754Y-54085536D01*
X131464293Y-49573133D02*
X131454812Y-49607394D01*
X126714454Y-54057115D02*
X126679769Y-54064904D01*
X128975519Y-52251735D02*
X128959536Y-52283488D01*
X128834867Y-53057715D02*
X128820461Y-53090214D01*
X128993041Y-52220805D02*
X128975519Y-52251735D01*
X127627352Y-54043200D02*
X126855752Y-54043200D01*
X128945131Y-52315987D02*
X128932337Y-52349154D01*
X126343619Y-54255331D02*
X126259886Y-54339065D01*
X129012060Y-52190771D02*
X128993041Y-52220805D01*
X129032529Y-52161707D02*
X129012060Y-52190771D01*
X128882160Y-52886823D02*
X128876082Y-52921848D01*
X131454812Y-49607394D02*
X131443661Y-49641148D01*
X131472082Y-49538448D02*
X131464293Y-49573133D01*
X131363938Y-49799530D02*
X131343469Y-49828594D01*
X126784761Y-54046686D02*
X126749480Y-54051038D01*
X128847661Y-53024548D02*
X128834867Y-53057715D01*
X131338800Y-48303400D02*
X131338800Y-48872000D01*
X131443661Y-49641148D02*
X131430867Y-49674315D01*
X131486000Y-49019200D02*
X131486000Y-49397152D01*
X128889126Y-52816089D02*
X128886511Y-52851542D01*
X127871349Y-54000861D02*
X127837594Y-54012012D01*
X131485126Y-49432689D02*
X131482511Y-49468142D01*
X131273867Y-49909283D02*
X129102132Y-52081019D01*
X128959536Y-52283488D02*
X128945131Y-52315987D01*
X126396282Y-54207599D02*
X126369364Y-54230818D01*
X125349888Y-54551198D02*
X124800600Y-54551198D01*
X128890000Y-52593152D02*
X128890000Y-52780552D01*
X129077619Y-52106764D02*
X129054400Y-52133682D01*
X126611754Y-54085536D02*
X126578587Y-54098330D01*
X125747754Y-54551198D02*
X125349888Y-54551198D01*
X128890000Y-52780552D02*
X128889126Y-52816089D01*
X131338800Y-48872000D02*
X131486000Y-49019200D01*
X127803333Y-54021493D02*
X127768648Y-54029282D01*
X131400478Y-49738566D02*
X131382956Y-49769497D01*
X131343469Y-49828594D02*
X131321598Y-49856619D01*
X131486000Y-49397152D02*
X131485126Y-49432689D01*
X131298378Y-49883536D02*
X131273867Y-49909283D01*
X127768648Y-54029282D02*
X127733623Y-54035360D01*
X128921186Y-52382908D02*
X128911705Y-52417169D01*
X126578587Y-54098330D02*
X126546088Y-54112736D01*
X128886511Y-52851542D02*
X128882160Y-52886823D01*
X126089169Y-54465676D02*
X126057416Y-54481660D01*
X125957996Y-54520010D02*
X125923735Y-54529491D01*
X131416461Y-49706814D02*
X131400478Y-49738566D01*
X129102132Y-52081019D02*
X129077619Y-52106764D01*
X131382956Y-49769497D02*
X131363938Y-49799530D01*
X131478160Y-49503423D02*
X131472082Y-49538448D01*
X126453371Y-54165259D02*
X126424307Y-54185728D01*
X126207222Y-54386796D02*
X126179197Y-54408667D01*
X128820461Y-53090214D02*
X128804478Y-53121966D01*
X128868293Y-52956533D02*
X128858812Y-52990794D01*
X129054400Y-52133682D02*
X129032529Y-52161707D01*
X128804478Y-53121966D02*
X128786956Y-53152897D01*
X128786956Y-53152897D02*
X128767938Y-53182930D01*
X128767938Y-53182930D02*
X128747469Y-53211994D01*
X128747469Y-53211994D02*
X128725598Y-53240019D01*
X128725598Y-53240019D02*
X128702378Y-53266936D01*
X131430867Y-49674315D02*
X131416461Y-49706814D01*
X126259886Y-54339065D02*
X126234139Y-54363577D01*
X128702378Y-53266936D02*
X128677867Y-53292683D01*
X128677867Y-53292683D02*
X128139484Y-53831067D01*
X125818744Y-54547709D02*
X125783291Y-54550324D01*
X128139484Y-53831067D02*
X128113737Y-53855579D01*
X128113737Y-53855579D02*
X128086820Y-53878798D01*
X125854025Y-54543358D02*
X125818744Y-54547709D01*
X128086820Y-53878798D02*
X128058795Y-53900669D01*
X126369364Y-54230818D02*
X126343619Y-54255331D01*
X128029731Y-53921138D02*
X127999698Y-53940157D01*
X125889050Y-54537280D02*
X125854025Y-54543358D01*
X127999698Y-53940157D02*
X127968767Y-53957678D01*
X127968767Y-53957678D02*
X127937014Y-53973662D01*
X126424307Y-54185728D02*
X126396282Y-54207599D01*
X127937014Y-53973662D02*
X127904515Y-53988067D01*
X126150133Y-54429136D02*
X126120100Y-54448155D01*
X127904515Y-53988067D02*
X127871349Y-54000861D01*
X127733623Y-54035360D02*
X127698342Y-54039711D01*
X127698342Y-54039711D02*
X127662889Y-54042326D01*
X127662889Y-54042326D02*
X127627352Y-54043200D01*
X126855752Y-54043200D02*
X126820213Y-54044071D01*
X126820213Y-54044071D02*
X126784761Y-54046686D01*
X126749480Y-54051038D02*
X126714454Y-54057115D01*
X126679769Y-54064904D02*
X126645508Y-54074385D01*
X126546088Y-54112736D02*
X126514335Y-54128719D01*
X126514335Y-54128719D02*
X126483405Y-54146240D01*
X126483405Y-54146240D02*
X126453371Y-54165259D01*
X126234139Y-54363577D02*
X126207222Y-54386796D01*
X128058795Y-53900669D02*
X128029731Y-53921138D01*
X126179197Y-54408667D02*
X126150133Y-54429136D01*
X126120100Y-54448155D02*
X126089169Y-54465676D01*
X131321598Y-49856619D02*
X131298378Y-49883536D01*
X126024917Y-54496065D02*
X125991751Y-54508859D01*
D22*
%TO.N,/MCU/D+*%
X131890819Y-48401381D02*
X131988800Y-48303400D01*
D18*
X125349888Y-54906798D02*
X125228810Y-55027876D01*
X125895050Y-54906798D02*
X125349888Y-54906798D01*
X125930587Y-54905924D02*
X125895050Y-54906798D01*
X125966040Y-54903309D02*
X125930587Y-54905924D01*
X126001321Y-54898958D02*
X125966040Y-54903309D01*
X126036346Y-54892880D02*
X126001321Y-54898958D01*
X126071031Y-54885091D02*
X126036346Y-54892880D01*
X126105292Y-54875610D02*
X126071031Y-54885091D01*
X126139047Y-54864459D02*
X126105292Y-54875610D01*
X129190467Y-53205011D02*
X129176061Y-53237510D01*
X131677198Y-50003915D02*
X131653978Y-50030832D01*
X129203261Y-53171844D02*
X129190467Y-53205011D01*
X129214412Y-53138090D02*
X129203261Y-53171844D01*
X129231682Y-53069144D02*
X129223893Y-53103829D01*
X129237760Y-53034119D02*
X129231682Y-53069144D01*
X129244726Y-52963385D02*
X129242111Y-52998838D01*
X126326493Y-54764267D02*
X126297429Y-54784736D01*
X129245600Y-52740448D02*
X129245600Y-52927848D01*
X129259516Y-52599150D02*
X129253438Y-52634176D01*
X129287937Y-52496450D02*
X129276786Y-52530204D01*
X129315136Y-52430784D02*
X129300731Y-52463283D01*
X129331119Y-52399031D02*
X129315136Y-52430784D01*
X129246472Y-52704909D02*
X129245600Y-52740448D01*
X131810412Y-49754690D02*
X131799261Y-49788444D01*
X129348641Y-52368101D02*
X129331119Y-52399031D01*
X126236465Y-54821276D02*
X126204712Y-54837260D01*
X129367660Y-52338067D02*
X129348641Y-52368101D01*
X129388129Y-52309003D02*
X129367660Y-52338067D01*
X129223893Y-53103829D02*
X129214412Y-53138090D01*
X126381435Y-54719177D02*
X126354518Y-54742396D01*
X131799261Y-49788444D02*
X131786467Y-49821611D01*
X129142556Y-53300193D02*
X129123538Y-53330226D01*
X131827682Y-49685744D02*
X131819893Y-49720429D01*
X129253438Y-52634176D02*
X129249087Y-52669457D01*
X131629467Y-50056579D02*
X129457732Y-52228315D01*
X127774648Y-54398800D02*
X127003048Y-54398800D01*
X131833760Y-49650719D02*
X131827682Y-49685744D01*
X129267305Y-52564465D02*
X129259516Y-52599150D01*
X131838111Y-49615438D02*
X131833760Y-49650719D01*
X127950629Y-54377093D02*
X127915944Y-54384882D01*
X129249087Y-52669457D02*
X129246472Y-52704909D01*
X131988800Y-48861600D02*
X131841600Y-49008800D01*
X129300731Y-52463283D02*
X129287937Y-52496450D01*
X126516660Y-54586418D02*
X126490915Y-54610931D01*
X131988800Y-48303400D02*
X131988800Y-48861600D01*
X131841600Y-49008800D02*
X131841600Y-49544448D01*
X129276786Y-52530204D02*
X129267305Y-52564465D01*
X131819893Y-49720429D02*
X131810412Y-49754690D01*
X131719538Y-49946826D02*
X131699069Y-49975890D01*
X129245600Y-52927848D02*
X129244726Y-52963385D01*
X131786467Y-49821611D02*
X131772061Y-49854110D01*
X128286780Y-54186667D02*
X128261033Y-54211179D01*
X131841600Y-49544448D02*
X131840726Y-49579985D01*
X126267396Y-54803755D02*
X126236465Y-54821276D01*
X131772061Y-49854110D02*
X131756078Y-49885862D01*
X128177027Y-54276738D02*
X128146994Y-54295757D01*
X129176061Y-53237510D02*
X129160078Y-53269262D01*
X131756078Y-49885862D02*
X131738556Y-49916793D01*
X129242111Y-52998838D02*
X129237760Y-53034119D01*
X131738556Y-49916793D02*
X131719538Y-49946826D01*
X131699069Y-49975890D02*
X131677198Y-50003915D01*
X126861750Y-54412715D02*
X126827065Y-54420504D01*
X131840726Y-49579985D02*
X131838111Y-49615438D01*
X126967509Y-54399671D02*
X126932057Y-54402286D01*
X131653978Y-50030832D02*
X131629467Y-50056579D01*
X129457732Y-52228315D02*
X129433219Y-52254060D01*
X129103069Y-53359290D02*
X129081198Y-53387315D01*
X129433219Y-52254060D02*
X129410000Y-52280978D01*
X127003048Y-54398800D02*
X126967509Y-54399671D01*
X129410000Y-52280978D02*
X129388129Y-52309003D01*
X129160078Y-53269262D02*
X129142556Y-53300193D01*
X129123538Y-53330226D02*
X129103069Y-53359290D01*
X129081198Y-53387315D02*
X129057978Y-53414232D01*
X129057978Y-53414232D02*
X129033467Y-53439979D01*
X129033467Y-53439979D02*
X128286780Y-54186667D01*
X126354518Y-54742396D02*
X126326493Y-54764267D01*
X128261033Y-54211179D02*
X128234116Y-54234398D01*
X128234116Y-54234398D02*
X128206091Y-54256269D01*
X128206091Y-54256269D02*
X128177027Y-54276738D01*
X128146994Y-54295757D02*
X128116063Y-54313278D01*
X128116063Y-54313278D02*
X128084310Y-54329262D01*
X128084310Y-54329262D02*
X128051811Y-54343667D01*
X128051811Y-54343667D02*
X128018645Y-54356461D01*
X128018645Y-54356461D02*
X127984890Y-54367612D01*
X127984890Y-54367612D02*
X127950629Y-54377093D01*
X127915944Y-54384882D02*
X127880919Y-54390960D01*
X127880919Y-54390960D02*
X127845638Y-54395311D01*
X127845638Y-54395311D02*
X127810185Y-54397926D01*
X127810185Y-54397926D02*
X127774648Y-54398800D01*
X126932057Y-54402286D02*
X126896776Y-54406638D01*
X126297429Y-54784736D02*
X126267396Y-54803755D01*
X126896776Y-54406638D02*
X126861750Y-54412715D01*
X126490915Y-54610931D02*
X126407182Y-54694665D01*
X126827065Y-54420504D02*
X126792804Y-54429985D01*
X126792804Y-54429985D02*
X126759050Y-54441136D01*
X126759050Y-54441136D02*
X126725883Y-54453930D01*
X126725883Y-54453930D02*
X126693384Y-54468336D01*
X126693384Y-54468336D02*
X126661631Y-54484319D01*
X126661631Y-54484319D02*
X126630701Y-54501840D01*
X126630701Y-54501840D02*
X126600667Y-54520859D01*
X126204712Y-54837260D02*
X126172213Y-54851665D01*
X126600667Y-54520859D02*
X126571603Y-54541328D01*
X126571603Y-54541328D02*
X126543578Y-54563199D01*
X126543578Y-54563199D02*
X126516660Y-54586418D01*
X126407182Y-54694665D02*
X126381435Y-54719177D01*
X126172213Y-54851665D02*
X126139047Y-54864459D01*
D23*
%TO.N,/MCU/VDDPLLUSB*%
X126210300Y-53433600D02*
X125600700Y-54043200D01*
X126210300Y-53364300D02*
X126210300Y-53433600D01*
D18*
X126210300Y-53364300D02*
X127414500Y-53364300D01*
X127414500Y-53364300D02*
X127429500Y-53349300D01*
%TO.N,Net-(L11-Pad2)*%
X127643200Y-51033300D02*
X127643200Y-51805600D01*
X127643200Y-51805600D02*
X127429500Y-52019300D01*
%TO.N,Net-(R28-Pad1)*%
X135214600Y-51632400D02*
X135214600Y-50004600D01*
X135214600Y-50004600D02*
X135392400Y-49826800D01*
%TO.N,/MCU/CHR_STAT*%
X141183600Y-54043200D02*
X141183600Y-53433600D01*
X141183600Y-53433600D02*
X141310600Y-53306600D01*
%TO.N,/MCU/VBUS_DET*%
X125765800Y-48173600D02*
X124953000Y-48173600D01*
X125765800Y-49776000D02*
X125969000Y-49979200D01*
X125765800Y-48173600D02*
X125765800Y-49776000D01*
%TO.N,/MCU/IR_OUT*%
X149083000Y-45559600D02*
X149083000Y-45686600D01*
X149083000Y-45686600D02*
X146695400Y-48074200D01*
X138313400Y-48074200D02*
X136916400Y-46677200D01*
X146695400Y-48074200D02*
X138313400Y-48074200D01*
X136916400Y-46677200D02*
X130566400Y-46677200D01*
X129295138Y-47388400D02*
X126731000Y-47388400D01*
X130566400Y-46677200D02*
X130006338Y-46677200D01*
X130006338Y-46677200D02*
X129295138Y-47388400D01*
%TD*%
D22*
%TO.N,+5V*%
G36*
X129853800Y-48017650D02*
G01*
X130012550Y-48176400D01*
X130615800Y-48176400D01*
X130615800Y-48156400D01*
X130761800Y-48156400D01*
X130761800Y-48176400D01*
X130769600Y-48176400D01*
X130769600Y-48430400D01*
X130761800Y-48430400D01*
X130761800Y-48450400D01*
X130615800Y-48450400D01*
X130615800Y-48430400D01*
X130012550Y-48430400D01*
X129853800Y-48589150D01*
X129851406Y-48912400D01*
X129601200Y-48912400D01*
X129601200Y-47718600D01*
X129851585Y-47718600D01*
X129853800Y-48017650D01*
G37*
X129853800Y-48017650D02*
X130012550Y-48176400D01*
X130615800Y-48176400D01*
X130615800Y-48156400D01*
X130761800Y-48156400D01*
X130761800Y-48176400D01*
X130769600Y-48176400D01*
X130769600Y-48430400D01*
X130761800Y-48430400D01*
X130761800Y-48450400D01*
X130615800Y-48450400D01*
X130615800Y-48430400D01*
X130012550Y-48430400D01*
X129853800Y-48589150D01*
X129851406Y-48912400D01*
X129601200Y-48912400D01*
X129601200Y-47718600D01*
X129851585Y-47718600D01*
X129853800Y-48017650D01*
%TO.N,GND*%
G36*
X135646400Y-48887000D02*
G01*
X134126006Y-48887000D01*
X134123800Y-48589150D01*
X133965050Y-48430400D01*
X133361800Y-48430400D01*
X133361800Y-48450400D01*
X133215800Y-48450400D01*
X133215800Y-48430400D01*
X133208000Y-48430400D01*
X133208000Y-48176400D01*
X133215800Y-48176400D01*
X133215800Y-48156400D01*
X133361800Y-48156400D01*
X133361800Y-48176400D01*
X133965050Y-48176400D01*
X134123800Y-48017650D01*
X134126203Y-47693200D01*
X135646400Y-47693200D01*
X135646400Y-48887000D01*
G37*
X135646400Y-48887000D02*
X134126006Y-48887000D01*
X134123800Y-48589150D01*
X133965050Y-48430400D01*
X133361800Y-48430400D01*
X133361800Y-48450400D01*
X133215800Y-48450400D01*
X133215800Y-48430400D01*
X133208000Y-48430400D01*
X133208000Y-48176400D01*
X133215800Y-48176400D01*
X133215800Y-48156400D01*
X133361800Y-48156400D01*
X133361800Y-48176400D01*
X133965050Y-48176400D01*
X134123800Y-48017650D01*
X134126203Y-47693200D01*
X135646400Y-47693200D01*
X135646400Y-48887000D01*
%TD*%
M02*
