%TF.GenerationSoftware,KiCad,Pcbnew,(5.1.6)-1*%
%TF.CreationDate,2020-08-10T23:05:38-07:00*%
%TF.ProjectId,Wire-Free-DAQ,57697265-2d46-4726-9565-2d4441512e6b,rev?*%
%TF.SameCoordinates,Original*%
%TF.FileFunction,Soldermask,Top*%
%TF.FilePolarity,Negative*%
%FSLAX46Y46*%
G04 Gerber Fmt 4.6, Leading zero omitted, Abs format (unit mm)*
G04 Created by KiCad (PCBNEW (5.1.6)-1) date 2020-08-10 23:05:38*
%MOMM*%
%LPD*%
G01*
G04 APERTURE LIST*
%ADD10C,1.050800*%
%ADD11R,4.150800X4.150800*%
%ADD12R,0.830800X0.310800*%
%ADD13R,0.310800X0.830800*%
%ADD14R,1.110800X0.700800*%
%ADD15C,0.420800*%
%ADD16R,0.310800X0.710800*%
%ADD17R,0.450800X0.550800*%
%ADD18R,1.100800X2.250800*%
%ADD19R,1.050800X1.100800*%
%ADD20R,1.450800X1.250800*%
%ADD21R,1.250800X2.050800*%
%ADD22R,0.610800X0.540800*%
%ADD23R,0.540800X0.610800*%
%ADD24R,3.450800X1.050800*%
%ADD25R,2.670800X0.920800*%
%ADD26R,3.180800X1.520800*%
%ADD27R,1.450800X0.950800*%
%ADD28R,1.050800X0.750800*%
%ADD29R,1.500800X1.250800*%
%ADD30R,0.750800X1.050800*%
%ADD31R,1.200800X1.250800*%
G04 APERTURE END LIST*
D10*
%TO.C,H2*%
X119000000Y-54000000D03*
%TD*%
%TO.C,H1*%
X151000000Y-54000000D03*
%TD*%
D11*
%TO.C,U1*%
X136506600Y-57209700D03*
D12*
X139891600Y-54459700D03*
X139891600Y-54959700D03*
X139891600Y-55459700D03*
X139891600Y-55959700D03*
X139891600Y-56459700D03*
X139891600Y-56959700D03*
X139891600Y-57459700D03*
X139891600Y-57959700D03*
X139891600Y-58459700D03*
X139891600Y-58959700D03*
X139891600Y-59459700D03*
X139891600Y-59959700D03*
D13*
X139256600Y-60594700D03*
X138756600Y-60594700D03*
X138256600Y-60594700D03*
X137756600Y-60594700D03*
X137256600Y-60594700D03*
X136756600Y-60594700D03*
X136256600Y-60594700D03*
X135756600Y-60594700D03*
X135256600Y-60594700D03*
X134756600Y-60594700D03*
X134256600Y-60594700D03*
X133756600Y-60594700D03*
D12*
X133121600Y-59959700D03*
X133121600Y-59459700D03*
X133121600Y-58959700D03*
X133121600Y-58459700D03*
X133121600Y-57959700D03*
X133121600Y-57459700D03*
X133121600Y-56959700D03*
X133121600Y-56459700D03*
X133121600Y-55959700D03*
X133121600Y-55459700D03*
X133121600Y-54959700D03*
X133121600Y-54459700D03*
D13*
X133756600Y-53824700D03*
X134256600Y-53824700D03*
X134756600Y-53824700D03*
X135256600Y-53824700D03*
X135756600Y-53824700D03*
X136256600Y-53824700D03*
X136756600Y-53824700D03*
X137256600Y-53824700D03*
X137756600Y-53824700D03*
X138256600Y-53824700D03*
X138756600Y-53824700D03*
X139256600Y-53824700D03*
%TD*%
%TO.C,J1*%
G36*
G01*
X121848000Y-44670782D02*
X121848000Y-46000418D01*
G75*
G02*
X121587418Y-46261000I-260582J0D01*
G01*
X120857782Y-46261000D01*
G75*
G02*
X120597200Y-46000418I0J260582D01*
G01*
X120597200Y-44670782D01*
G75*
G02*
X120857782Y-44410200I260582J0D01*
G01*
X121587418Y-44410200D01*
G75*
G02*
X121848000Y-44670782I0J-260582D01*
G01*
G37*
G36*
G01*
X125448000Y-44670782D02*
X125448000Y-46000418D01*
G75*
G02*
X125187418Y-46261000I-260582J0D01*
G01*
X124457782Y-46261000D01*
G75*
G02*
X124197200Y-46000418I0J260582D01*
G01*
X124197200Y-44670782D01*
G75*
G02*
X124457782Y-44410200I260582J0D01*
G01*
X125187418Y-44410200D01*
G75*
G02*
X125448000Y-44670782I0J-260582D01*
G01*
G37*
G36*
G01*
X122848000Y-48572900D02*
X122848000Y-49848300D01*
G75*
G02*
X122685300Y-50011000I-162700J0D01*
G01*
X122359900Y-50011000D01*
G75*
G02*
X122197200Y-49848300I0J162700D01*
G01*
X122197200Y-48572900D01*
G75*
G02*
X122359900Y-48410200I162700J0D01*
G01*
X122685300Y-48410200D01*
G75*
G02*
X122848000Y-48572900I0J-162700D01*
G01*
G37*
G36*
G01*
X123848000Y-48572900D02*
X123848000Y-49848300D01*
G75*
G02*
X123685300Y-50011000I-162700J0D01*
G01*
X123359900Y-50011000D01*
G75*
G02*
X123197200Y-49848300I0J162700D01*
G01*
X123197200Y-48572900D01*
G75*
G02*
X123359900Y-48410200I162700J0D01*
G01*
X123685300Y-48410200D01*
G75*
G02*
X123848000Y-48572900I0J-162700D01*
G01*
G37*
%TD*%
%TO.C,C62*%
G36*
G01*
X129813200Y-51117800D02*
X130303600Y-51117800D01*
G75*
G02*
X130518800Y-51333000I0J-215200D01*
G01*
X130518800Y-51763400D01*
G75*
G02*
X130303600Y-51978600I-215200J0D01*
G01*
X129813200Y-51978600D01*
G75*
G02*
X129598000Y-51763400I0J215200D01*
G01*
X129598000Y-51333000D01*
G75*
G02*
X129813200Y-51117800I215200J0D01*
G01*
G37*
G36*
G01*
X129813200Y-49757800D02*
X130303600Y-49757800D01*
G75*
G02*
X130518800Y-49973000I0J-215200D01*
G01*
X130518800Y-50403400D01*
G75*
G02*
X130303600Y-50618600I-215200J0D01*
G01*
X129813200Y-50618600D01*
G75*
G02*
X129598000Y-50403400I0J215200D01*
G01*
X129598000Y-49973000D01*
G75*
G02*
X129813200Y-49757800I215200J0D01*
G01*
G37*
%TD*%
D14*
%TO.C,U5*%
X139118400Y-52377000D03*
X139118400Y-50477000D03*
X141318400Y-50477000D03*
X141318400Y-51427000D03*
X141318400Y-52377000D03*
%TD*%
D15*
%TO.C,U4*%
X129594400Y-62621600D03*
X128794400Y-62621600D03*
X127994400Y-62621600D03*
X127194400Y-62621600D03*
X126394400Y-62621600D03*
X125594400Y-62621600D03*
X124794400Y-62621600D03*
X123994400Y-62621600D03*
X123194400Y-62621600D03*
X122394400Y-62621600D03*
X129594400Y-61821600D03*
X128794400Y-61821600D03*
X127994400Y-61821600D03*
X127194400Y-61821600D03*
X126394400Y-61821600D03*
X125594400Y-61821600D03*
X124794400Y-61821600D03*
X123994400Y-61821600D03*
X123194400Y-61821600D03*
X122394400Y-61821600D03*
X129594400Y-61021600D03*
X128794400Y-61021600D03*
X127994400Y-61021600D03*
X127194400Y-61021600D03*
X126394400Y-61021600D03*
X125594400Y-61021600D03*
X124794400Y-61021600D03*
X123994400Y-61021600D03*
X123194400Y-61021600D03*
X122394400Y-61021600D03*
X129594400Y-60221600D03*
X128794400Y-60221600D03*
X127994400Y-60221600D03*
X127194400Y-60221600D03*
X126394400Y-60221600D03*
X125594400Y-60221600D03*
X124794400Y-60221600D03*
X123994400Y-60221600D03*
X123194400Y-60221600D03*
X122394400Y-60221600D03*
X129594400Y-59421600D03*
X128794400Y-59421600D03*
X127994400Y-59421600D03*
X127194400Y-59421600D03*
X126394400Y-59421600D03*
X125594400Y-59421600D03*
X124794400Y-59421600D03*
X123994400Y-59421600D03*
X123194400Y-59421600D03*
X122394400Y-59421600D03*
X129594400Y-58621600D03*
X128794400Y-58621600D03*
X127994400Y-58621600D03*
X127194400Y-58621600D03*
X126394400Y-58621600D03*
X125594400Y-58621600D03*
X124794400Y-58621600D03*
X123994400Y-58621600D03*
X123194400Y-58621600D03*
X122394400Y-58621600D03*
X129594400Y-57821600D03*
X128794400Y-57821600D03*
X127994400Y-57821600D03*
X127194400Y-57821600D03*
X126394400Y-57821600D03*
X125594400Y-57821600D03*
X124794400Y-57821600D03*
X123994400Y-57821600D03*
X123194400Y-57821600D03*
X122394400Y-57821600D03*
X129594400Y-57021600D03*
X128794400Y-57021600D03*
X127994400Y-57021600D03*
X127194400Y-57021600D03*
X126394400Y-57021600D03*
X125594400Y-57021600D03*
X124794400Y-57021600D03*
X123994400Y-57021600D03*
X123194400Y-57021600D03*
X122394400Y-57021600D03*
X129594400Y-56221600D03*
X128794400Y-56221600D03*
X127994400Y-56221600D03*
X127194400Y-56221600D03*
X126394400Y-56221600D03*
X125594400Y-56221600D03*
X124794400Y-56221600D03*
X123994400Y-56221600D03*
X123194400Y-56221600D03*
X122394400Y-56221600D03*
X129594400Y-55421600D03*
X128794400Y-55421600D03*
X127994400Y-55421600D03*
X127194400Y-55421600D03*
X126394400Y-55421600D03*
X125594400Y-55421600D03*
X124794400Y-55421600D03*
X123994400Y-55421600D03*
X123194400Y-55421600D03*
X122394400Y-55421600D03*
%TD*%
D16*
%TO.C,U2*%
X145278500Y-47930000D03*
X144778500Y-47930000D03*
X144278500Y-47930000D03*
X143778500Y-47930000D03*
X143278500Y-47930000D03*
X143278500Y-45260000D03*
X143778500Y-45260000D03*
X144278500Y-45260000D03*
X144778500Y-45260000D03*
X145278500Y-45260000D03*
%TD*%
D17*
%TO.C,D1*%
X120843800Y-50015000D03*
X121543800Y-50015000D03*
X121543800Y-51315000D03*
X120843800Y-51315000D03*
%TD*%
D18*
%TO.C,J3*%
X148813000Y-61757200D03*
D19*
X147338000Y-60232200D03*
D18*
X145863000Y-61757200D03*
%TD*%
D20*
%TO.C,Y1*%
X123116400Y-51364400D03*
X125316400Y-51364400D03*
X125316400Y-53064400D03*
X123116400Y-53064400D03*
%TD*%
D21*
%TO.C,U3*%
X143983000Y-52984400D03*
G36*
G01*
X143208400Y-53909200D02*
X143208400Y-54059600D01*
G75*
G02*
X143133200Y-54134800I-75200J0D01*
G01*
X142407800Y-54134800D01*
G75*
G02*
X142332600Y-54059600I0J75200D01*
G01*
X142332600Y-53909200D01*
G75*
G02*
X142407800Y-53834000I75200J0D01*
G01*
X143133200Y-53834000D01*
G75*
G02*
X143208400Y-53909200I0J-75200D01*
G01*
G37*
G36*
G01*
X143208400Y-53409200D02*
X143208400Y-53559600D01*
G75*
G02*
X143133200Y-53634800I-75200J0D01*
G01*
X142407800Y-53634800D01*
G75*
G02*
X142332600Y-53559600I0J75200D01*
G01*
X142332600Y-53409200D01*
G75*
G02*
X142407800Y-53334000I75200J0D01*
G01*
X143133200Y-53334000D01*
G75*
G02*
X143208400Y-53409200I0J-75200D01*
G01*
G37*
G36*
G01*
X143208400Y-52909200D02*
X143208400Y-53059600D01*
G75*
G02*
X143133200Y-53134800I-75200J0D01*
G01*
X142407800Y-53134800D01*
G75*
G02*
X142332600Y-53059600I0J75200D01*
G01*
X142332600Y-52909200D01*
G75*
G02*
X142407800Y-52834000I75200J0D01*
G01*
X143133200Y-52834000D01*
G75*
G02*
X143208400Y-52909200I0J-75200D01*
G01*
G37*
G36*
G01*
X143208400Y-52409200D02*
X143208400Y-52559600D01*
G75*
G02*
X143133200Y-52634800I-75200J0D01*
G01*
X142407800Y-52634800D01*
G75*
G02*
X142332600Y-52559600I0J75200D01*
G01*
X142332600Y-52409200D01*
G75*
G02*
X142407800Y-52334000I75200J0D01*
G01*
X143133200Y-52334000D01*
G75*
G02*
X143208400Y-52409200I0J-75200D01*
G01*
G37*
G36*
G01*
X143208400Y-51909200D02*
X143208400Y-52059600D01*
G75*
G02*
X143133200Y-52134800I-75200J0D01*
G01*
X142407800Y-52134800D01*
G75*
G02*
X142332600Y-52059600I0J75200D01*
G01*
X142332600Y-51909200D01*
G75*
G02*
X142407800Y-51834000I75200J0D01*
G01*
X143133200Y-51834000D01*
G75*
G02*
X143208400Y-51909200I0J-75200D01*
G01*
G37*
G36*
G01*
X145633400Y-51909200D02*
X145633400Y-52059600D01*
G75*
G02*
X145558200Y-52134800I-75200J0D01*
G01*
X144832800Y-52134800D01*
G75*
G02*
X144757600Y-52059600I0J75200D01*
G01*
X144757600Y-51909200D01*
G75*
G02*
X144832800Y-51834000I75200J0D01*
G01*
X145558200Y-51834000D01*
G75*
G02*
X145633400Y-51909200I0J-75200D01*
G01*
G37*
G36*
G01*
X145633400Y-52409200D02*
X145633400Y-52559600D01*
G75*
G02*
X145558200Y-52634800I-75200J0D01*
G01*
X144832800Y-52634800D01*
G75*
G02*
X144757600Y-52559600I0J75200D01*
G01*
X144757600Y-52409200D01*
G75*
G02*
X144832800Y-52334000I75200J0D01*
G01*
X145558200Y-52334000D01*
G75*
G02*
X145633400Y-52409200I0J-75200D01*
G01*
G37*
G36*
G01*
X145633400Y-52909200D02*
X145633400Y-53059600D01*
G75*
G02*
X145558200Y-53134800I-75200J0D01*
G01*
X144832800Y-53134800D01*
G75*
G02*
X144757600Y-53059600I0J75200D01*
G01*
X144757600Y-52909200D01*
G75*
G02*
X144832800Y-52834000I75200J0D01*
G01*
X145558200Y-52834000D01*
G75*
G02*
X145633400Y-52909200I0J-75200D01*
G01*
G37*
G36*
G01*
X145633400Y-53409200D02*
X145633400Y-53559600D01*
G75*
G02*
X145558200Y-53634800I-75200J0D01*
G01*
X144832800Y-53634800D01*
G75*
G02*
X144757600Y-53559600I0J75200D01*
G01*
X144757600Y-53409200D01*
G75*
G02*
X144832800Y-53334000I75200J0D01*
G01*
X145558200Y-53334000D01*
G75*
G02*
X145633400Y-53409200I0J-75200D01*
G01*
G37*
G36*
G01*
X145633400Y-53909200D02*
X145633400Y-54059600D01*
G75*
G02*
X145558200Y-54134800I-75200J0D01*
G01*
X144832800Y-54134800D01*
G75*
G02*
X144757600Y-54059600I0J75200D01*
G01*
X144757600Y-53909200D01*
G75*
G02*
X144832800Y-53834000I75200J0D01*
G01*
X145558200Y-53834000D01*
G75*
G02*
X145633400Y-53909200I0J-75200D01*
G01*
G37*
%TD*%
D22*
%TO.C,R26*%
X128851900Y-50070300D03*
X128851900Y-50980300D03*
%TD*%
%TO.C,R25*%
X128039100Y-50070300D03*
X128039100Y-50980300D03*
%TD*%
%TO.C,R24*%
X133614400Y-50057600D03*
X133614400Y-50967600D03*
%TD*%
%TO.C,R23*%
X132776200Y-50057600D03*
X132776200Y-50967600D03*
%TD*%
%TO.C,R22*%
X131938000Y-50057600D03*
X131938000Y-50967600D03*
%TD*%
D23*
%TO.C,R17*%
X142121200Y-55008400D03*
X141211200Y-55008400D03*
%TD*%
%TO.C,R16*%
X143772200Y-55008400D03*
X142862200Y-55008400D03*
%TD*%
D22*
%TO.C,R15*%
X146220400Y-58486000D03*
X146220400Y-57576000D03*
%TD*%
%TO.C,R12*%
X141793200Y-62854800D03*
X141793200Y-61944800D03*
%TD*%
%TO.C,R9*%
X143418800Y-62854800D03*
X143418800Y-61944800D03*
%TD*%
%TO.C,R8*%
X142606000Y-61944800D03*
X142606000Y-62854800D03*
%TD*%
D23*
%TO.C,R5*%
X142633600Y-57065800D03*
X143543600Y-57065800D03*
%TD*%
D22*
%TO.C,R4*%
X135062200Y-61942600D03*
X135062200Y-62852600D03*
%TD*%
%TO.C,L10*%
G36*
G01*
X127501600Y-53005600D02*
X127501600Y-53506000D01*
G75*
G02*
X127266400Y-53741200I-235200J0D01*
G01*
X126796000Y-53741200D01*
G75*
G02*
X126560800Y-53506000I0J235200D01*
G01*
X126560800Y-53005600D01*
G75*
G02*
X126796000Y-52770400I235200J0D01*
G01*
X127266400Y-52770400D01*
G75*
G02*
X127501600Y-53005600I0J-235200D01*
G01*
G37*
G36*
G01*
X128831600Y-53005600D02*
X128831600Y-53506000D01*
G75*
G02*
X128596400Y-53741200I-235200J0D01*
G01*
X128126000Y-53741200D01*
G75*
G02*
X127890800Y-53506000I0J235200D01*
G01*
X127890800Y-53005600D01*
G75*
G02*
X128126000Y-52770400I235200J0D01*
G01*
X128596400Y-52770400D01*
G75*
G02*
X128831600Y-53005600I0J-235200D01*
G01*
G37*
%TD*%
D24*
%TO.C,L8*%
X147820600Y-47024200D03*
X147820600Y-49124200D03*
%TD*%
%TO.C,L7*%
X140759400Y-46998800D03*
X140759400Y-49098800D03*
%TD*%
D25*
%TO.C,L6*%
X148148400Y-55251600D03*
X148148400Y-58301600D03*
%TD*%
D26*
%TO.C,L5*%
X147820600Y-53546800D03*
X147820600Y-51186800D03*
%TD*%
%TO.C,L4*%
G36*
G01*
X145327600Y-58293600D02*
X144827200Y-58293600D01*
G75*
G02*
X144592000Y-58058400I0J235200D01*
G01*
X144592000Y-57588000D01*
G75*
G02*
X144827200Y-57352800I235200J0D01*
G01*
X145327600Y-57352800D01*
G75*
G02*
X145562800Y-57588000I0J-235200D01*
G01*
X145562800Y-58058400D01*
G75*
G02*
X145327600Y-58293600I-235200J0D01*
G01*
G37*
G36*
G01*
X145327600Y-59623600D02*
X144827200Y-59623600D01*
G75*
G02*
X144592000Y-59388400I0J235200D01*
G01*
X144592000Y-58918000D01*
G75*
G02*
X144827200Y-58682800I235200J0D01*
G01*
X145327600Y-58682800D01*
G75*
G02*
X145562800Y-58918000I0J-235200D01*
G01*
X145562800Y-59388400D01*
G75*
G02*
X145327600Y-59623600I-235200J0D01*
G01*
G37*
%TD*%
D27*
%TO.C,J8*%
X137242400Y-49070200D03*
D28*
X137442400Y-47920200D03*
D29*
X137217400Y-46770200D03*
D30*
X135592400Y-45280200D03*
X134492400Y-45280200D03*
X128992400Y-45280200D03*
X130092400Y-45280200D03*
X133392400Y-45280200D03*
X132292400Y-45280200D03*
X131192400Y-45280200D03*
X127892400Y-45280200D03*
D31*
X126817400Y-46330200D03*
X126817400Y-48920200D03*
%TD*%
%TO.C,C54*%
G36*
G01*
X120817700Y-55373600D02*
X120452300Y-55373600D01*
G75*
G02*
X120294600Y-55215900I0J157700D01*
G01*
X120294600Y-54900500D01*
G75*
G02*
X120452300Y-54742800I157700J0D01*
G01*
X120817700Y-54742800D01*
G75*
G02*
X120975400Y-54900500I0J-157700D01*
G01*
X120975400Y-55215900D01*
G75*
G02*
X120817700Y-55373600I-157700J0D01*
G01*
G37*
G36*
G01*
X120817700Y-56263600D02*
X120452300Y-56263600D01*
G75*
G02*
X120294600Y-56105900I0J157700D01*
G01*
X120294600Y-55790500D01*
G75*
G02*
X120452300Y-55632800I157700J0D01*
G01*
X120817700Y-55632800D01*
G75*
G02*
X120975400Y-55790500I0J-157700D01*
G01*
X120975400Y-56105900D01*
G75*
G02*
X120817700Y-56263600I-157700J0D01*
G01*
G37*
%TD*%
%TO.C,C53*%
G36*
G01*
X130917100Y-50642200D02*
X131282500Y-50642200D01*
G75*
G02*
X131440200Y-50799900I0J-157700D01*
G01*
X131440200Y-51115300D01*
G75*
G02*
X131282500Y-51273000I-157700J0D01*
G01*
X130917100Y-51273000D01*
G75*
G02*
X130759400Y-51115300I0J157700D01*
G01*
X130759400Y-50799900D01*
G75*
G02*
X130917100Y-50642200I157700J0D01*
G01*
G37*
G36*
G01*
X130917100Y-49752200D02*
X131282500Y-49752200D01*
G75*
G02*
X131440200Y-49909900I0J-157700D01*
G01*
X131440200Y-50225300D01*
G75*
G02*
X131282500Y-50383000I-157700J0D01*
G01*
X130917100Y-50383000D01*
G75*
G02*
X130759400Y-50225300I0J157700D01*
G01*
X130759400Y-49909900D01*
G75*
G02*
X130917100Y-49752200I157700J0D01*
G01*
G37*
%TD*%
%TO.C,C47*%
G36*
G01*
X120452300Y-57373200D02*
X120817700Y-57373200D01*
G75*
G02*
X120975400Y-57530900I0J-157700D01*
G01*
X120975400Y-57846300D01*
G75*
G02*
X120817700Y-58004000I-157700J0D01*
G01*
X120452300Y-58004000D01*
G75*
G02*
X120294600Y-57846300I0J157700D01*
G01*
X120294600Y-57530900D01*
G75*
G02*
X120452300Y-57373200I157700J0D01*
G01*
G37*
G36*
G01*
X120452300Y-56483200D02*
X120817700Y-56483200D01*
G75*
G02*
X120975400Y-56640900I0J-157700D01*
G01*
X120975400Y-56956300D01*
G75*
G02*
X120817700Y-57114000I-157700J0D01*
G01*
X120452300Y-57114000D01*
G75*
G02*
X120294600Y-56956300I0J157700D01*
G01*
X120294600Y-56640900D01*
G75*
G02*
X120452300Y-56483200I157700J0D01*
G01*
G37*
%TD*%
%TO.C,C45*%
G36*
G01*
X120817700Y-58854400D02*
X120452300Y-58854400D01*
G75*
G02*
X120294600Y-58696700I0J157700D01*
G01*
X120294600Y-58381300D01*
G75*
G02*
X120452300Y-58223600I157700J0D01*
G01*
X120817700Y-58223600D01*
G75*
G02*
X120975400Y-58381300I0J-157700D01*
G01*
X120975400Y-58696700D01*
G75*
G02*
X120817700Y-58854400I-157700J0D01*
G01*
G37*
G36*
G01*
X120817700Y-59744400D02*
X120452300Y-59744400D01*
G75*
G02*
X120294600Y-59586700I0J157700D01*
G01*
X120294600Y-59271300D01*
G75*
G02*
X120452300Y-59113600I157700J0D01*
G01*
X120817700Y-59113600D01*
G75*
G02*
X120975400Y-59271300I0J-157700D01*
G01*
X120975400Y-59586700D01*
G75*
G02*
X120817700Y-59744400I-157700J0D01*
G01*
G37*
%TD*%
%TO.C,C44*%
G36*
G01*
X127116900Y-51221200D02*
X126751500Y-51221200D01*
G75*
G02*
X126593800Y-51063500I0J157700D01*
G01*
X126593800Y-50748100D01*
G75*
G02*
X126751500Y-50590400I157700J0D01*
G01*
X127116900Y-50590400D01*
G75*
G02*
X127274600Y-50748100I0J-157700D01*
G01*
X127274600Y-51063500D01*
G75*
G02*
X127116900Y-51221200I-157700J0D01*
G01*
G37*
G36*
G01*
X127116900Y-52111200D02*
X126751500Y-52111200D01*
G75*
G02*
X126593800Y-51953500I0J157700D01*
G01*
X126593800Y-51638100D01*
G75*
G02*
X126751500Y-51480400I157700J0D01*
G01*
X127116900Y-51480400D01*
G75*
G02*
X127274600Y-51638100I0J-157700D01*
G01*
X127274600Y-51953500D01*
G75*
G02*
X127116900Y-52111200I-157700J0D01*
G01*
G37*
%TD*%
%TO.C,C43*%
G36*
G01*
X121265100Y-53207600D02*
X121630500Y-53207600D01*
G75*
G02*
X121788200Y-53365300I0J-157700D01*
G01*
X121788200Y-53680700D01*
G75*
G02*
X121630500Y-53838400I-157700J0D01*
G01*
X121265100Y-53838400D01*
G75*
G02*
X121107400Y-53680700I0J157700D01*
G01*
X121107400Y-53365300D01*
G75*
G02*
X121265100Y-53207600I157700J0D01*
G01*
G37*
G36*
G01*
X121265100Y-52317600D02*
X121630500Y-52317600D01*
G75*
G02*
X121788200Y-52475300I0J-157700D01*
G01*
X121788200Y-52790700D01*
G75*
G02*
X121630500Y-52948400I-157700J0D01*
G01*
X121265100Y-52948400D01*
G75*
G02*
X121107400Y-52790700I0J157700D01*
G01*
X121107400Y-52475300D01*
G75*
G02*
X121265100Y-52317600I157700J0D01*
G01*
G37*
%TD*%
%TO.C,C42*%
G36*
G01*
X145105000Y-56269800D02*
X145105000Y-56760200D01*
G75*
G02*
X144889800Y-56975400I-215200J0D01*
G01*
X144459400Y-56975400D01*
G75*
G02*
X144244200Y-56760200I0J215200D01*
G01*
X144244200Y-56269800D01*
G75*
G02*
X144459400Y-56054600I215200J0D01*
G01*
X144889800Y-56054600D01*
G75*
G02*
X145105000Y-56269800I0J-215200D01*
G01*
G37*
G36*
G01*
X146465000Y-56269800D02*
X146465000Y-56760200D01*
G75*
G02*
X146249800Y-56975400I-215200J0D01*
G01*
X145819400Y-56975400D01*
G75*
G02*
X145604200Y-56760200I0J215200D01*
G01*
X145604200Y-56269800D01*
G75*
G02*
X145819400Y-56054600I215200J0D01*
G01*
X146249800Y-56054600D01*
G75*
G02*
X146465000Y-56269800I0J-215200D01*
G01*
G37*
%TD*%
%TO.C,C40*%
G36*
G01*
X145105000Y-54949000D02*
X145105000Y-55439400D01*
G75*
G02*
X144889800Y-55654600I-215200J0D01*
G01*
X144459400Y-55654600D01*
G75*
G02*
X144244200Y-55439400I0J215200D01*
G01*
X144244200Y-54949000D01*
G75*
G02*
X144459400Y-54733800I215200J0D01*
G01*
X144889800Y-54733800D01*
G75*
G02*
X145105000Y-54949000I0J-215200D01*
G01*
G37*
G36*
G01*
X146465000Y-54949000D02*
X146465000Y-55439400D01*
G75*
G02*
X146249800Y-55654600I-215200J0D01*
G01*
X145819400Y-55654600D01*
G75*
G02*
X145604200Y-55439400I0J215200D01*
G01*
X145604200Y-54949000D01*
G75*
G02*
X145819400Y-54733800I215200J0D01*
G01*
X146249800Y-54733800D01*
G75*
G02*
X146465000Y-54949000I0J-215200D01*
G01*
G37*
%TD*%
%TO.C,C39*%
G36*
G01*
X147769200Y-45923600D02*
X147769200Y-45043200D01*
G75*
G02*
X148014400Y-44798000I245200J0D01*
G01*
X148504800Y-44798000D01*
G75*
G02*
X148750000Y-45043200I0J-245200D01*
G01*
X148750000Y-45923600D01*
G75*
G02*
X148504800Y-46168800I-245200J0D01*
G01*
X148014400Y-46168800D01*
G75*
G02*
X147769200Y-45923600I0J245200D01*
G01*
G37*
G36*
G01*
X146129200Y-45923600D02*
X146129200Y-45043200D01*
G75*
G02*
X146374400Y-44798000I245200J0D01*
G01*
X146864800Y-44798000D01*
G75*
G02*
X147110000Y-45043200I0J-245200D01*
G01*
X147110000Y-45923600D01*
G75*
G02*
X146864800Y-46168800I-245200J0D01*
G01*
X146374400Y-46168800D01*
G75*
G02*
X146129200Y-45923600I0J245200D01*
G01*
G37*
%TD*%
%TO.C,C38*%
G36*
G01*
X140760000Y-45017800D02*
X140760000Y-45898200D01*
G75*
G02*
X140514800Y-46143400I-245200J0D01*
G01*
X140024400Y-46143400D01*
G75*
G02*
X139779200Y-45898200I0J245200D01*
G01*
X139779200Y-45017800D01*
G75*
G02*
X140024400Y-44772600I245200J0D01*
G01*
X140514800Y-44772600D01*
G75*
G02*
X140760000Y-45017800I0J-245200D01*
G01*
G37*
G36*
G01*
X142400000Y-45017800D02*
X142400000Y-45898200D01*
G75*
G02*
X142154800Y-46143400I-245200J0D01*
G01*
X141664400Y-46143400D01*
G75*
G02*
X141419200Y-45898200I0J245200D01*
G01*
X141419200Y-45017800D01*
G75*
G02*
X141664400Y-44772600I245200J0D01*
G01*
X142154800Y-44772600D01*
G75*
G02*
X142400000Y-45017800I0J-245200D01*
G01*
G37*
%TD*%
%TO.C,C36*%
G36*
G01*
X142752900Y-50467200D02*
X142387500Y-50467200D01*
G75*
G02*
X142229800Y-50309500I0J157700D01*
G01*
X142229800Y-49994100D01*
G75*
G02*
X142387500Y-49836400I157700J0D01*
G01*
X142752900Y-49836400D01*
G75*
G02*
X142910600Y-49994100I0J-157700D01*
G01*
X142910600Y-50309500D01*
G75*
G02*
X142752900Y-50467200I-157700J0D01*
G01*
G37*
G36*
G01*
X142752900Y-51357200D02*
X142387500Y-51357200D01*
G75*
G02*
X142229800Y-51199500I0J157700D01*
G01*
X142229800Y-50884100D01*
G75*
G02*
X142387500Y-50726400I157700J0D01*
G01*
X142752900Y-50726400D01*
G75*
G02*
X142910600Y-50884100I0J-157700D01*
G01*
X142910600Y-51199500D01*
G75*
G02*
X142752900Y-51357200I-157700J0D01*
G01*
G37*
%TD*%
%TO.C,C35*%
G36*
G01*
X144007400Y-48845000D02*
X144007400Y-49335400D01*
G75*
G02*
X143792200Y-49550600I-215200J0D01*
G01*
X143361800Y-49550600D01*
G75*
G02*
X143146600Y-49335400I0J215200D01*
G01*
X143146600Y-48845000D01*
G75*
G02*
X143361800Y-48629800I215200J0D01*
G01*
X143792200Y-48629800D01*
G75*
G02*
X144007400Y-48845000I0J-215200D01*
G01*
G37*
G36*
G01*
X145367400Y-48845000D02*
X145367400Y-49335400D01*
G75*
G02*
X145152200Y-49550600I-215200J0D01*
G01*
X144721800Y-49550600D01*
G75*
G02*
X144506600Y-49335400I0J215200D01*
G01*
X144506600Y-48845000D01*
G75*
G02*
X144721800Y-48629800I215200J0D01*
G01*
X145152200Y-48629800D01*
G75*
G02*
X145367400Y-48845000I0J-215200D01*
G01*
G37*
%TD*%
%TO.C,C34*%
G36*
G01*
X143982000Y-50521400D02*
X143982000Y-51011800D01*
G75*
G02*
X143766800Y-51227000I-215200J0D01*
G01*
X143336400Y-51227000D01*
G75*
G02*
X143121200Y-51011800I0J215200D01*
G01*
X143121200Y-50521400D01*
G75*
G02*
X143336400Y-50306200I215200J0D01*
G01*
X143766800Y-50306200D01*
G75*
G02*
X143982000Y-50521400I0J-215200D01*
G01*
G37*
G36*
G01*
X145342000Y-50521400D02*
X145342000Y-51011800D01*
G75*
G02*
X145126800Y-51227000I-215200J0D01*
G01*
X144696400Y-51227000D01*
G75*
G02*
X144481200Y-51011800I0J215200D01*
G01*
X144481200Y-50521400D01*
G75*
G02*
X144696400Y-50306200I215200J0D01*
G01*
X145126800Y-50306200D01*
G75*
G02*
X145342000Y-50521400I0J-215200D01*
G01*
G37*
%TD*%
%TO.C,C30*%
G36*
G01*
X132603300Y-62270200D02*
X132237900Y-62270200D01*
G75*
G02*
X132080200Y-62112500I0J157700D01*
G01*
X132080200Y-61797100D01*
G75*
G02*
X132237900Y-61639400I157700J0D01*
G01*
X132603300Y-61639400D01*
G75*
G02*
X132761000Y-61797100I0J-157700D01*
G01*
X132761000Y-62112500D01*
G75*
G02*
X132603300Y-62270200I-157700J0D01*
G01*
G37*
G36*
G01*
X132603300Y-63160200D02*
X132237900Y-63160200D01*
G75*
G02*
X132080200Y-63002500I0J157700D01*
G01*
X132080200Y-62687100D01*
G75*
G02*
X132237900Y-62529400I157700J0D01*
G01*
X132603300Y-62529400D01*
G75*
G02*
X132761000Y-62687100I0J-157700D01*
G01*
X132761000Y-63002500D01*
G75*
G02*
X132603300Y-63160200I-157700J0D01*
G01*
G37*
%TD*%
%TO.C,C27*%
G36*
G01*
X140248700Y-62270200D02*
X139883300Y-62270200D01*
G75*
G02*
X139725600Y-62112500I0J157700D01*
G01*
X139725600Y-61797100D01*
G75*
G02*
X139883300Y-61639400I157700J0D01*
G01*
X140248700Y-61639400D01*
G75*
G02*
X140406400Y-61797100I0J-157700D01*
G01*
X140406400Y-62112500D01*
G75*
G02*
X140248700Y-62270200I-157700J0D01*
G01*
G37*
G36*
G01*
X140248700Y-63160200D02*
X139883300Y-63160200D01*
G75*
G02*
X139725600Y-63002500I0J157700D01*
G01*
X139725600Y-62687100D01*
G75*
G02*
X139883300Y-62529400I157700J0D01*
G01*
X140248700Y-62529400D01*
G75*
G02*
X140406400Y-62687100I0J-157700D01*
G01*
X140406400Y-63002500D01*
G75*
G02*
X140248700Y-63160200I-157700J0D01*
G01*
G37*
%TD*%
%TO.C,C23*%
G36*
G01*
X133492300Y-62270200D02*
X133126900Y-62270200D01*
G75*
G02*
X132969200Y-62112500I0J157700D01*
G01*
X132969200Y-61797100D01*
G75*
G02*
X133126900Y-61639400I157700J0D01*
G01*
X133492300Y-61639400D01*
G75*
G02*
X133650000Y-61797100I0J-157700D01*
G01*
X133650000Y-62112500D01*
G75*
G02*
X133492300Y-62270200I-157700J0D01*
G01*
G37*
G36*
G01*
X133492300Y-63160200D02*
X133126900Y-63160200D01*
G75*
G02*
X132969200Y-63002500I0J157700D01*
G01*
X132969200Y-62687100D01*
G75*
G02*
X133126900Y-62529400I157700J0D01*
G01*
X133492300Y-62529400D01*
G75*
G02*
X133650000Y-62687100I0J-157700D01*
G01*
X133650000Y-63002500D01*
G75*
G02*
X133492300Y-63160200I-157700J0D01*
G01*
G37*
%TD*%
%TO.C,C20*%
G36*
G01*
X139359700Y-62270200D02*
X138994300Y-62270200D01*
G75*
G02*
X138836600Y-62112500I0J157700D01*
G01*
X138836600Y-61797100D01*
G75*
G02*
X138994300Y-61639400I157700J0D01*
G01*
X139359700Y-61639400D01*
G75*
G02*
X139517400Y-61797100I0J-157700D01*
G01*
X139517400Y-62112500D01*
G75*
G02*
X139359700Y-62270200I-157700J0D01*
G01*
G37*
G36*
G01*
X139359700Y-63160200D02*
X138994300Y-63160200D01*
G75*
G02*
X138836600Y-63002500I0J157700D01*
G01*
X138836600Y-62687100D01*
G75*
G02*
X138994300Y-62529400I157700J0D01*
G01*
X139359700Y-62529400D01*
G75*
G02*
X139517400Y-62687100I0J-157700D01*
G01*
X139517400Y-63002500D01*
G75*
G02*
X139359700Y-63160200I-157700J0D01*
G01*
G37*
%TD*%
%TO.C,C15*%
G36*
G01*
X131511100Y-58333200D02*
X131145700Y-58333200D01*
G75*
G02*
X130988000Y-58175500I0J157700D01*
G01*
X130988000Y-57860100D01*
G75*
G02*
X131145700Y-57702400I157700J0D01*
G01*
X131511100Y-57702400D01*
G75*
G02*
X131668800Y-57860100I0J-157700D01*
G01*
X131668800Y-58175500D01*
G75*
G02*
X131511100Y-58333200I-157700J0D01*
G01*
G37*
G36*
G01*
X131511100Y-59223200D02*
X131145700Y-59223200D01*
G75*
G02*
X130988000Y-59065500I0J157700D01*
G01*
X130988000Y-58750100D01*
G75*
G02*
X131145700Y-58592400I157700J0D01*
G01*
X131511100Y-58592400D01*
G75*
G02*
X131668800Y-58750100I0J-157700D01*
G01*
X131668800Y-59065500D01*
G75*
G02*
X131511100Y-59223200I-157700J0D01*
G01*
G37*
%TD*%
%TO.C,C13*%
G36*
G01*
X138470700Y-62270200D02*
X138105300Y-62270200D01*
G75*
G02*
X137947600Y-62112500I0J157700D01*
G01*
X137947600Y-61797100D01*
G75*
G02*
X138105300Y-61639400I157700J0D01*
G01*
X138470700Y-61639400D01*
G75*
G02*
X138628400Y-61797100I0J-157700D01*
G01*
X138628400Y-62112500D01*
G75*
G02*
X138470700Y-62270200I-157700J0D01*
G01*
G37*
G36*
G01*
X138470700Y-63160200D02*
X138105300Y-63160200D01*
G75*
G02*
X137947600Y-63002500I0J157700D01*
G01*
X137947600Y-62687100D01*
G75*
G02*
X138105300Y-62529400I157700J0D01*
G01*
X138470700Y-62529400D01*
G75*
G02*
X138628400Y-62687100I0J-157700D01*
G01*
X138628400Y-63002500D01*
G75*
G02*
X138470700Y-63160200I-157700J0D01*
G01*
G37*
%TD*%
%TO.C,C12*%
G36*
G01*
X141137700Y-62270200D02*
X140772300Y-62270200D01*
G75*
G02*
X140614600Y-62112500I0J157700D01*
G01*
X140614600Y-61797100D01*
G75*
G02*
X140772300Y-61639400I157700J0D01*
G01*
X141137700Y-61639400D01*
G75*
G02*
X141295400Y-61797100I0J-157700D01*
G01*
X141295400Y-62112500D01*
G75*
G02*
X141137700Y-62270200I-157700J0D01*
G01*
G37*
G36*
G01*
X141137700Y-63160200D02*
X140772300Y-63160200D01*
G75*
G02*
X140614600Y-63002500I0J157700D01*
G01*
X140614600Y-62687100D01*
G75*
G02*
X140772300Y-62529400I157700J0D01*
G01*
X141137700Y-62529400D01*
G75*
G02*
X141295400Y-62687100I0J-157700D01*
G01*
X141295400Y-63002500D01*
G75*
G02*
X141137700Y-63160200I-157700J0D01*
G01*
G37*
%TD*%
%TO.C,C11*%
G36*
G01*
X131145700Y-56154000D02*
X131511100Y-56154000D01*
G75*
G02*
X131668800Y-56311700I0J-157700D01*
G01*
X131668800Y-56627100D01*
G75*
G02*
X131511100Y-56784800I-157700J0D01*
G01*
X131145700Y-56784800D01*
G75*
G02*
X130988000Y-56627100I0J157700D01*
G01*
X130988000Y-56311700D01*
G75*
G02*
X131145700Y-56154000I157700J0D01*
G01*
G37*
G36*
G01*
X131145700Y-55264000D02*
X131511100Y-55264000D01*
G75*
G02*
X131668800Y-55421700I0J-157700D01*
G01*
X131668800Y-55737100D01*
G75*
G02*
X131511100Y-55894800I-157700J0D01*
G01*
X131145700Y-55894800D01*
G75*
G02*
X130988000Y-55737100I0J157700D01*
G01*
X130988000Y-55421700D01*
G75*
G02*
X131145700Y-55264000I157700J0D01*
G01*
G37*
%TD*%
%TO.C,C10*%
G36*
G01*
X136946700Y-62270200D02*
X136581300Y-62270200D01*
G75*
G02*
X136423600Y-62112500I0J157700D01*
G01*
X136423600Y-61797100D01*
G75*
G02*
X136581300Y-61639400I157700J0D01*
G01*
X136946700Y-61639400D01*
G75*
G02*
X137104400Y-61797100I0J-157700D01*
G01*
X137104400Y-62112500D01*
G75*
G02*
X136946700Y-62270200I-157700J0D01*
G01*
G37*
G36*
G01*
X136946700Y-63160200D02*
X136581300Y-63160200D01*
G75*
G02*
X136423600Y-63002500I0J157700D01*
G01*
X136423600Y-62687100D01*
G75*
G02*
X136581300Y-62529400I157700J0D01*
G01*
X136946700Y-62529400D01*
G75*
G02*
X137104400Y-62687100I0J-157700D01*
G01*
X137104400Y-63002500D01*
G75*
G02*
X136946700Y-63160200I-157700J0D01*
G01*
G37*
%TD*%
%TO.C,C9*%
G36*
G01*
X141231800Y-60896300D02*
X141231800Y-61261700D01*
G75*
G02*
X141074100Y-61419400I-157700J0D01*
G01*
X140758700Y-61419400D01*
G75*
G02*
X140601000Y-61261700I0J157700D01*
G01*
X140601000Y-60896300D01*
G75*
G02*
X140758700Y-60738600I157700J0D01*
G01*
X141074100Y-60738600D01*
G75*
G02*
X141231800Y-60896300I0J-157700D01*
G01*
G37*
G36*
G01*
X142121800Y-60896300D02*
X142121800Y-61261700D01*
G75*
G02*
X141964100Y-61419400I-157700J0D01*
G01*
X141648700Y-61419400D01*
G75*
G02*
X141491000Y-61261700I0J157700D01*
G01*
X141491000Y-60896300D01*
G75*
G02*
X141648700Y-60738600I157700J0D01*
G01*
X141964100Y-60738600D01*
G75*
G02*
X142121800Y-60896300I0J-157700D01*
G01*
G37*
%TD*%
%TO.C,C8*%
G36*
G01*
X134381300Y-62270200D02*
X134015900Y-62270200D01*
G75*
G02*
X133858200Y-62112500I0J157700D01*
G01*
X133858200Y-61797100D01*
G75*
G02*
X134015900Y-61639400I157700J0D01*
G01*
X134381300Y-61639400D01*
G75*
G02*
X134539000Y-61797100I0J-157700D01*
G01*
X134539000Y-62112500D01*
G75*
G02*
X134381300Y-62270200I-157700J0D01*
G01*
G37*
G36*
G01*
X134381300Y-63160200D02*
X134015900Y-63160200D01*
G75*
G02*
X133858200Y-63002500I0J157700D01*
G01*
X133858200Y-62687100D01*
G75*
G02*
X134015900Y-62529400I157700J0D01*
G01*
X134381300Y-62529400D01*
G75*
G02*
X134539000Y-62687100I0J-157700D01*
G01*
X134539000Y-63002500D01*
G75*
G02*
X134381300Y-63160200I-157700J0D01*
G01*
G37*
%TD*%
%TO.C,C7*%
G36*
G01*
X141714400Y-58661100D02*
X141714400Y-59026500D01*
G75*
G02*
X141556700Y-59184200I-157700J0D01*
G01*
X141241300Y-59184200D01*
G75*
G02*
X141083600Y-59026500I0J157700D01*
G01*
X141083600Y-58661100D01*
G75*
G02*
X141241300Y-58503400I157700J0D01*
G01*
X141556700Y-58503400D01*
G75*
G02*
X141714400Y-58661100I0J-157700D01*
G01*
G37*
G36*
G01*
X142604400Y-58661100D02*
X142604400Y-59026500D01*
G75*
G02*
X142446700Y-59184200I-157700J0D01*
G01*
X142131300Y-59184200D01*
G75*
G02*
X141973600Y-59026500I0J157700D01*
G01*
X141973600Y-58661100D01*
G75*
G02*
X142131300Y-58503400I157700J0D01*
G01*
X142446700Y-58503400D01*
G75*
G02*
X142604400Y-58661100I0J-157700D01*
G01*
G37*
%TD*%
%TO.C,C6*%
G36*
G01*
X141790600Y-55968700D02*
X141790600Y-56334100D01*
G75*
G02*
X141632900Y-56491800I-157700J0D01*
G01*
X141317500Y-56491800D01*
G75*
G02*
X141159800Y-56334100I0J157700D01*
G01*
X141159800Y-55968700D01*
G75*
G02*
X141317500Y-55811000I157700J0D01*
G01*
X141632900Y-55811000D01*
G75*
G02*
X141790600Y-55968700I0J-157700D01*
G01*
G37*
G36*
G01*
X142680600Y-55968700D02*
X142680600Y-56334100D01*
G75*
G02*
X142522900Y-56491800I-157700J0D01*
G01*
X142207500Y-56491800D01*
G75*
G02*
X142049800Y-56334100I0J157700D01*
G01*
X142049800Y-55968700D01*
G75*
G02*
X142207500Y-55811000I157700J0D01*
G01*
X142522900Y-55811000D01*
G75*
G02*
X142680600Y-55968700I0J-157700D01*
G01*
G37*
%TD*%
%TO.C,C4*%
G36*
G01*
X144465100Y-62270200D02*
X144099700Y-62270200D01*
G75*
G02*
X143942000Y-62112500I0J157700D01*
G01*
X143942000Y-61797100D01*
G75*
G02*
X144099700Y-61639400I157700J0D01*
G01*
X144465100Y-61639400D01*
G75*
G02*
X144622800Y-61797100I0J-157700D01*
G01*
X144622800Y-62112500D01*
G75*
G02*
X144465100Y-62270200I-157700J0D01*
G01*
G37*
G36*
G01*
X144465100Y-63160200D02*
X144099700Y-63160200D01*
G75*
G02*
X143942000Y-63002500I0J157700D01*
G01*
X143942000Y-62687100D01*
G75*
G02*
X144099700Y-62529400I157700J0D01*
G01*
X144465100Y-62529400D01*
G75*
G02*
X144622800Y-62687100I0J-157700D01*
G01*
X144622800Y-63002500D01*
G75*
G02*
X144465100Y-63160200I-157700J0D01*
G01*
G37*
%TD*%
%TO.C,C3*%
G36*
G01*
X141516400Y-57248500D02*
X141516400Y-56883100D01*
G75*
G02*
X141674100Y-56725400I157700J0D01*
G01*
X141989500Y-56725400D01*
G75*
G02*
X142147200Y-56883100I0J-157700D01*
G01*
X142147200Y-57248500D01*
G75*
G02*
X141989500Y-57406200I-157700J0D01*
G01*
X141674100Y-57406200D01*
G75*
G02*
X141516400Y-57248500I0J157700D01*
G01*
G37*
G36*
G01*
X140626400Y-57248500D02*
X140626400Y-56883100D01*
G75*
G02*
X140784100Y-56725400I157700J0D01*
G01*
X141099500Y-56725400D01*
G75*
G02*
X141257200Y-56883100I0J-157700D01*
G01*
X141257200Y-57248500D01*
G75*
G02*
X141099500Y-57406200I-157700J0D01*
G01*
X140784100Y-57406200D01*
G75*
G02*
X140626400Y-57248500I0J157700D01*
G01*
G37*
%TD*%
%TO.C,C2*%
G36*
G01*
X141508780Y-58137500D02*
X141508780Y-57772100D01*
G75*
G02*
X141666480Y-57614400I157700J0D01*
G01*
X141981880Y-57614400D01*
G75*
G02*
X142139580Y-57772100I0J-157700D01*
G01*
X142139580Y-58137500D01*
G75*
G02*
X141981880Y-58295200I-157700J0D01*
G01*
X141666480Y-58295200D01*
G75*
G02*
X141508780Y-58137500I0J157700D01*
G01*
G37*
G36*
G01*
X140618780Y-58137500D02*
X140618780Y-57772100D01*
G75*
G02*
X140776480Y-57614400I157700J0D01*
G01*
X141091880Y-57614400D01*
G75*
G02*
X141249580Y-57772100I0J-157700D01*
G01*
X141249580Y-58137500D01*
G75*
G02*
X141091880Y-58295200I-157700J0D01*
G01*
X140776480Y-58295200D01*
G75*
G02*
X140618780Y-58137500I0J157700D01*
G01*
G37*
%TD*%
%TO.C,C1*%
G36*
G01*
X136083100Y-62270200D02*
X135717700Y-62270200D01*
G75*
G02*
X135560000Y-62112500I0J157700D01*
G01*
X135560000Y-61797100D01*
G75*
G02*
X135717700Y-61639400I157700J0D01*
G01*
X136083100Y-61639400D01*
G75*
G02*
X136240800Y-61797100I0J-157700D01*
G01*
X136240800Y-62112500D01*
G75*
G02*
X136083100Y-62270200I-157700J0D01*
G01*
G37*
G36*
G01*
X136083100Y-63160200D02*
X135717700Y-63160200D01*
G75*
G02*
X135560000Y-63002500I0J157700D01*
G01*
X135560000Y-62687100D01*
G75*
G02*
X135717700Y-62529400I157700J0D01*
G01*
X136083100Y-62529400D01*
G75*
G02*
X136240800Y-62687100I0J-157700D01*
G01*
X136240800Y-63002500D01*
G75*
G02*
X136083100Y-63160200I-157700J0D01*
G01*
G37*
%TD*%
M02*
