M48
; DRILL file {KiCad (5.1.6)-1} date 08/10/20 23:20:39
; FORMAT={-:-/ absolute / inch / decimal}
; #@! TF.CreationDate,2020-08-10T23:20:39-07:00
; #@! TF.GenerationSoftware,Kicad,Pcbnew,(5.1.6)-1
; #@! TF.FileFunction,Plated,1,6,PTH
FMAT,2
INCH
T1C0.0079
%
G90
G05
T1
X4.7494Y-2.3707
X4.75Y-2.14
X4.753Y-2.072
X4.757Y-2.045
X4.771Y-1.994
X4.7724Y-2.3877
X4.776Y-2.289
X4.7769Y-2.3241
X4.7773Y-2.1977
X4.779Y-2.237
X4.784Y-2.045
X4.787Y-2.4372
X4.7878Y-2.4145
X4.792Y-1.92
X4.792Y-1.943
X4.796Y-2.26
X4.7994Y-2.2917
X4.8Y-1.993
X4.8341Y-2.2619
X4.8344Y-2.4187
X4.835Y-2.293
X4.8354Y-2.3537
X4.8354Y-2.3867
X4.861Y-2.499
X4.8646Y-2.3555
X4.866Y-2.261
X4.867Y-2.1637
X4.8854Y-2.1477
X4.89Y-1.991
X4.896Y-1.922
X4.896Y-1.955
X4.8974Y-2.4187
X4.8974Y-2.3568
X4.9134Y-2.1477
X4.9149Y-1.9797
X4.9284Y-2.3856
X4.9294Y-2.3557
X4.9303Y-2.1665
X4.9449Y-2.1277
X4.9593Y-2.2605
X4.9594Y-1.9677
X4.9604Y-2.3557
X4.961Y-2.229
X4.961Y-2.292
X4.961Y-2.499
X4.9621Y-2.3237
X4.9894Y-1.8657
X4.9914Y-2.355
X4.992Y-1.785
X4.992Y-1.966
X4.9924Y-2.2927
X4.9924Y-2.4177
X4.993Y-2.166
X5.0228Y-2.4192
X5.023Y-2.293
X5.0234Y-2.1637
X5.0234Y-2.3547
X5.0494Y-1.9457
X5.0514Y-2.4997
X5.0519Y-2.0562
X5.0533Y-2.1977
X5.0539Y-2.0336
X5.054Y-2.417
X5.0541Y-2.165
X5.0542Y-2.3542
X5.0544Y-2.2607
X5.0755Y-2.1362
X5.0804Y-1.9467
X5.0894Y-1.8417
X5.0965Y-2.1117
X5.1074Y-1.8857
X5.1084Y-1.9187
X5.1149Y-2.091
X5.1184Y-2.0637
X5.126Y-2.4352
X5.1344Y-2.1887
X5.1534Y-1.9457
X5.1564Y-2.0367
X5.1604Y-2.4885
X5.181Y-2.421
X5.1824Y-2.4697
X5.1868Y-2.3811
X5.1884Y-2.1187
X5.1974Y-2.3017
X5.1984Y-2.2627
X5.1994Y-2.1437
X5.1994Y-2.1827
X5.1994Y-2.2227
X5.2114Y-2.2027
X5.2114Y-2.2427
X5.2114Y-2.2827
X5.2114Y-1.9447
X5.2115Y-2.1635
X5.2164Y-2.3817
X5.241Y-2.381
X5.2429Y-1.9452
X5.243Y-2.408
X5.2464Y-2.0777
X5.248Y-2.5
X5.265Y-2.416
X5.2657Y-1.939
X5.2694Y-2.0497
X5.294Y-2.076
X5.2944Y-2.0507
X5.2954Y-2.0257
X5.2984Y-2.4167
X5.303Y-2.323
X5.3034Y-1.9592
X5.304Y-2.253
X5.305Y-2.182
X5.3054Y-2.3547
X5.317Y-2.499
X5.3304Y-1.9617
X5.3324Y-2.3567
X5.3334Y-1.8857
X5.3334Y-1.9167
X5.3594Y-2.0917
X5.374Y-2.183
X5.374Y-2.323
X5.375Y-2.252
X5.3844Y-2.4147
X5.3844Y-2.4997
X5.3864Y-1.9643
X5.3964Y-2.0897
X5.402Y-1.801
X5.4132Y-1.9639
X5.4234Y-2.0907
X5.444Y-2.5
X5.445Y-2.182
X5.445Y-2.252
X5.445Y-2.324
X5.4514Y-2.0907
X5.4764Y-2.1497
X5.4844Y-1.7897
X5.5044Y-2.1197
X5.5044Y-2.3857
X5.5144Y-2.0047
X5.5204Y-2.4097
X5.5274Y-1.9807
X5.538Y-2.1427
X5.5414Y-2.3147
X5.5434Y-2.3437
X5.5444Y-2.2097
X5.5472Y-2.5008
X5.5584Y-2.1277
X5.5774Y-2.1417
X5.5884Y-2.1197
X5.614Y-2.499
X5.625Y-1.81
X5.625Y-1.841
X5.6264Y-1.7537
X5.6323Y-2.2107
X5.638Y-2.405
X5.6398Y-2.3524
X5.6594Y-2.3228
X5.661Y-1.859
X5.661Y-2.194
X5.6677Y-2.1067
X5.6687Y-2.0607
X5.676Y-2.257
X5.68Y-2.5
X5.69Y-1.86
X5.703Y-1.8109
X5.7054Y-1.7537
X5.709Y-1.965
X5.724Y-2.145
X5.7324Y-1.8117
X5.7324Y-1.8427
X5.738Y-1.966
X5.743Y-2.49
X5.8014Y-2.2097
X5.8014Y-2.3297
X5.8094Y-1.7567
X5.859Y-2.49
X5.8594Y-2.2097
X5.8594Y-2.3307
T0
M30
