%TF.GenerationSoftware,KiCad,Pcbnew,(5.1.6)-1*%
%TF.CreationDate,2020-08-10T23:20:37-07:00*%
%TF.ProjectId,Wire-Free-DAQ,57697265-2d46-4726-9565-2d4441512e6b,rev?*%
%TF.SameCoordinates,Original*%
%TF.FileFunction,Legend,Bot*%
%TF.FilePolarity,Positive*%
%FSLAX46Y46*%
G04 Gerber Fmt 4.6, Leading zero omitted, Abs format (unit mm)*
G04 Created by KiCad (PCBNEW (5.1.6)-1) date 2020-08-10 23:20:37*
%MOMM*%
%LPD*%
G01*
G04 APERTURE LIST*
%ADD10C,0.100000*%
%ADD11C,0.120000*%
%ADD12C,0.150000*%
%ADD13C,0.010000*%
G04 APERTURE END LIST*
D10*
X148374133Y-46032800D02*
X148374133Y-45899466D01*
X148340800Y-45832800D01*
X148274133Y-45766133D01*
X148140800Y-45732800D01*
X147907466Y-45732800D01*
X147774133Y-45766133D01*
X147707466Y-45832800D01*
X147674133Y-45899466D01*
X147674133Y-46032800D01*
X147707466Y-46099466D01*
X147774133Y-46166133D01*
X147907466Y-46199466D01*
X148140800Y-46199466D01*
X148274133Y-46166133D01*
X148340800Y-46099466D01*
X148374133Y-46032800D01*
X148374133Y-45432800D02*
X147807466Y-45432800D01*
X147740800Y-45399466D01*
X147707466Y-45366133D01*
X147674133Y-45299466D01*
X147674133Y-45166133D01*
X147707466Y-45099466D01*
X147740800Y-45066133D01*
X147807466Y-45032800D01*
X148374133Y-45032800D01*
X148374133Y-44799466D02*
X148374133Y-44399466D01*
X147674133Y-44599466D02*
X148374133Y-44599466D01*
X143294133Y-46537600D02*
X143294133Y-46104266D01*
X143027466Y-46337600D01*
X143027466Y-46237600D01*
X142994133Y-46170933D01*
X142960800Y-46137600D01*
X142894133Y-46104266D01*
X142727466Y-46104266D01*
X142660800Y-46137600D01*
X142627466Y-46170933D01*
X142594133Y-46237600D01*
X142594133Y-46437600D01*
X142627466Y-46504266D01*
X142660800Y-46537600D01*
X142660800Y-45804266D02*
X142627466Y-45770933D01*
X142594133Y-45804266D01*
X142627466Y-45837600D01*
X142660800Y-45804266D01*
X142594133Y-45804266D01*
X143294133Y-45537600D02*
X143294133Y-45104266D01*
X143027466Y-45337600D01*
X143027466Y-45237600D01*
X142994133Y-45170933D01*
X142960800Y-45137600D01*
X142894133Y-45104266D01*
X142727466Y-45104266D01*
X142660800Y-45137600D01*
X142627466Y-45170933D01*
X142594133Y-45237600D01*
X142594133Y-45437600D01*
X142627466Y-45504266D01*
X142660800Y-45537600D01*
X143294133Y-44904266D02*
X142594133Y-44670933D01*
X143294133Y-44437600D01*
X145775400Y-45875666D02*
X145808733Y-45942333D01*
X145808733Y-46042333D01*
X145775400Y-46142333D01*
X145708733Y-46209000D01*
X145642066Y-46242333D01*
X145508733Y-46275666D01*
X145408733Y-46275666D01*
X145275400Y-46242333D01*
X145208733Y-46209000D01*
X145142066Y-46142333D01*
X145108733Y-46042333D01*
X145108733Y-45975666D01*
X145142066Y-45875666D01*
X145175400Y-45842333D01*
X145408733Y-45842333D01*
X145408733Y-45975666D01*
X145108733Y-45542333D02*
X145808733Y-45542333D01*
X145108733Y-45142333D01*
X145808733Y-45142333D01*
X145108733Y-44809000D02*
X145808733Y-44809000D01*
X145808733Y-44642333D01*
X145775400Y-44542333D01*
X145708733Y-44475666D01*
X145642066Y-44442333D01*
X145508733Y-44409000D01*
X145408733Y-44409000D01*
X145275400Y-44442333D01*
X145208733Y-44475666D01*
X145142066Y-44542333D01*
X145108733Y-44642333D01*
X145108733Y-44809000D01*
D11*
X125000000Y-44500000D02*
X121000000Y-44500000D01*
X125000000Y-46750000D02*
X125000000Y-44500000D01*
X121000000Y-46750000D02*
X125000000Y-46750000D01*
X121000000Y-44500000D02*
X121000000Y-46750000D01*
D12*
X124114752Y-45148428D02*
X123352847Y-45148428D01*
X123733800Y-45529380D02*
X123733800Y-44767476D01*
X122666952Y-45148428D02*
X121905047Y-45148428D01*
D10*
X149182200Y-62786800D02*
X148715533Y-62620133D01*
X149182200Y-62453466D01*
X149415533Y-62053466D02*
X149415533Y-61986800D01*
X149382200Y-61920133D01*
X149348866Y-61886800D01*
X149282200Y-61853466D01*
X149148866Y-61820133D01*
X148982200Y-61820133D01*
X148848866Y-61853466D01*
X148782200Y-61886800D01*
X148748866Y-61920133D01*
X148715533Y-61986800D01*
X148715533Y-62053466D01*
X148748866Y-62120133D01*
X148782200Y-62153466D01*
X148848866Y-62186800D01*
X148982200Y-62220133D01*
X149148866Y-62220133D01*
X149282200Y-62186800D01*
X149348866Y-62153466D01*
X149382200Y-62120133D01*
X149415533Y-62053466D01*
X148782200Y-61520133D02*
X148748866Y-61486800D01*
X148715533Y-61520133D01*
X148748866Y-61553466D01*
X148782200Y-61520133D01*
X148715533Y-61520133D01*
X148715533Y-60820133D02*
X148715533Y-61220133D01*
X148715533Y-61020133D02*
X149415533Y-61020133D01*
X149315533Y-61086800D01*
X149248866Y-61153466D01*
X149215533Y-61220133D01*
X149498733Y-55926466D02*
X148798733Y-55759800D01*
X149298733Y-55626466D01*
X148798733Y-55493133D01*
X149498733Y-55326466D01*
X148798733Y-55059800D02*
X149265400Y-55059800D01*
X149498733Y-55059800D02*
X149465400Y-55093133D01*
X149432066Y-55059800D01*
X149465400Y-55026466D01*
X149498733Y-55059800D01*
X149432066Y-55059800D01*
X148798733Y-54726466D02*
X149265400Y-54726466D01*
X149132066Y-54726466D02*
X149198733Y-54693133D01*
X149232066Y-54659800D01*
X149265400Y-54593133D01*
X149265400Y-54526466D01*
X148832066Y-54026466D02*
X148798733Y-54093133D01*
X148798733Y-54226466D01*
X148832066Y-54293133D01*
X148898733Y-54326466D01*
X149165400Y-54326466D01*
X149232066Y-54293133D01*
X149265400Y-54226466D01*
X149265400Y-54093133D01*
X149232066Y-54026466D01*
X149165400Y-53993133D01*
X149098733Y-53993133D01*
X149032066Y-54326466D01*
X149065400Y-53693133D02*
X149065400Y-53159800D01*
X149165400Y-52593133D02*
X149165400Y-52826466D01*
X148798733Y-52826466D02*
X149498733Y-52826466D01*
X149498733Y-52493133D01*
X148798733Y-52226466D02*
X149265400Y-52226466D01*
X149132066Y-52226466D02*
X149198733Y-52193133D01*
X149232066Y-52159800D01*
X149265400Y-52093133D01*
X149265400Y-52026466D01*
X148832066Y-51526466D02*
X148798733Y-51593133D01*
X148798733Y-51726466D01*
X148832066Y-51793133D01*
X148898733Y-51826466D01*
X149165400Y-51826466D01*
X149232066Y-51793133D01*
X149265400Y-51726466D01*
X149265400Y-51593133D01*
X149232066Y-51526466D01*
X149165400Y-51493133D01*
X149098733Y-51493133D01*
X149032066Y-51826466D01*
X148832066Y-50926466D02*
X148798733Y-50993133D01*
X148798733Y-51126466D01*
X148832066Y-51193133D01*
X148898733Y-51226466D01*
X149165400Y-51226466D01*
X149232066Y-51193133D01*
X149265400Y-51126466D01*
X149265400Y-50993133D01*
X149232066Y-50926466D01*
X149165400Y-50893133D01*
X149098733Y-50893133D01*
X149032066Y-51226466D01*
X149065400Y-50593133D02*
X149065400Y-50059800D01*
X148798733Y-49726466D02*
X149498733Y-49726466D01*
X149498733Y-49559800D01*
X149465400Y-49459800D01*
X149398733Y-49393133D01*
X149332066Y-49359800D01*
X149198733Y-49326466D01*
X149098733Y-49326466D01*
X148965400Y-49359800D01*
X148898733Y-49393133D01*
X148832066Y-49459800D01*
X148798733Y-49559800D01*
X148798733Y-49726466D01*
X148998733Y-49059800D02*
X148998733Y-48726466D01*
X148798733Y-49126466D02*
X149498733Y-48893133D01*
X148798733Y-48659800D01*
X148732066Y-47959800D02*
X148765400Y-48026466D01*
X148832066Y-48093133D01*
X148932066Y-48193133D01*
X148965400Y-48259800D01*
X148965400Y-48326466D01*
X148798733Y-48293133D02*
X148832066Y-48359800D01*
X148898733Y-48426466D01*
X149032066Y-48459800D01*
X149265400Y-48459800D01*
X149398733Y-48426466D01*
X149465400Y-48359800D01*
X149498733Y-48293133D01*
X149498733Y-48159800D01*
X149465400Y-48093133D01*
X149398733Y-48026466D01*
X149265400Y-47993133D01*
X149032066Y-47993133D01*
X148898733Y-48026466D01*
X148832066Y-48093133D01*
X148798733Y-48159800D01*
X148798733Y-48293133D01*
X147848733Y-53993133D02*
X147848733Y-53659800D01*
X147648733Y-54059800D02*
X148348733Y-53826466D01*
X147648733Y-53593133D01*
X147648733Y-53359800D02*
X148348733Y-53359800D01*
X147648733Y-53059800D02*
X148015400Y-53059800D01*
X148082066Y-53093133D01*
X148115400Y-53159800D01*
X148115400Y-53259800D01*
X148082066Y-53326466D01*
X148048733Y-53359800D01*
X147648733Y-52426466D02*
X148015400Y-52426466D01*
X148082066Y-52459800D01*
X148115400Y-52526466D01*
X148115400Y-52659800D01*
X148082066Y-52726466D01*
X147682066Y-52426466D02*
X147648733Y-52493133D01*
X147648733Y-52659800D01*
X147682066Y-52726466D01*
X147748733Y-52759800D01*
X147815400Y-52759800D01*
X147882066Y-52726466D01*
X147915400Y-52659800D01*
X147915400Y-52493133D01*
X147948733Y-52426466D01*
X147648733Y-52093133D02*
X148115400Y-52093133D01*
X147982066Y-52093133D02*
X148048733Y-52059800D01*
X148082066Y-52026466D01*
X148115400Y-51959800D01*
X148115400Y-51893133D01*
X147648733Y-51559800D02*
X147682066Y-51626466D01*
X147715400Y-51659800D01*
X147782066Y-51693133D01*
X147982066Y-51693133D01*
X148048733Y-51659800D01*
X148082066Y-51626466D01*
X148115400Y-51559800D01*
X148115400Y-51459800D01*
X148082066Y-51393133D01*
X148048733Y-51359800D01*
X147982066Y-51326466D01*
X147782066Y-51326466D01*
X147715400Y-51359800D01*
X147682066Y-51393133D01*
X147648733Y-51459800D01*
X147648733Y-51559800D01*
X148115400Y-51026466D02*
X147648733Y-51026466D01*
X148048733Y-51026466D02*
X148082066Y-50993133D01*
X148115400Y-50926466D01*
X148115400Y-50826466D01*
X148082066Y-50759800D01*
X148015400Y-50726466D01*
X147648733Y-50726466D01*
X147648733Y-50393133D02*
X148115400Y-50393133D01*
X148348733Y-50393133D02*
X148315400Y-50426466D01*
X148282066Y-50393133D01*
X148315400Y-50359800D01*
X148348733Y-50393133D01*
X148282066Y-50393133D01*
X147648733Y-49193133D02*
X147648733Y-49526466D01*
X148348733Y-49526466D01*
X147648733Y-48659800D02*
X148015400Y-48659800D01*
X148082066Y-48693133D01*
X148115400Y-48759800D01*
X148115400Y-48893133D01*
X148082066Y-48959800D01*
X147682066Y-48659800D02*
X147648733Y-48726466D01*
X147648733Y-48893133D01*
X147682066Y-48959800D01*
X147748733Y-48993133D01*
X147815400Y-48993133D01*
X147882066Y-48959800D01*
X147915400Y-48893133D01*
X147915400Y-48726466D01*
X147948733Y-48659800D01*
X147648733Y-48326466D02*
X148348733Y-48326466D01*
X148082066Y-48326466D02*
X148115400Y-48259800D01*
X148115400Y-48126466D01*
X148082066Y-48059800D01*
X148048733Y-48026466D01*
X147982066Y-47993133D01*
X147782066Y-47993133D01*
X147715400Y-48026466D01*
X147682066Y-48059800D01*
X147648733Y-48126466D01*
X147648733Y-48259800D01*
X147682066Y-48326466D01*
X147198733Y-54359800D02*
X147198733Y-54293133D01*
X147165400Y-54226466D01*
X147132066Y-54193133D01*
X147065400Y-54159800D01*
X146932066Y-54126466D01*
X146765400Y-54126466D01*
X146632066Y-54159800D01*
X146565400Y-54193133D01*
X146532066Y-54226466D01*
X146498733Y-54293133D01*
X146498733Y-54359800D01*
X146532066Y-54426466D01*
X146565400Y-54459800D01*
X146632066Y-54493133D01*
X146765400Y-54526466D01*
X146932066Y-54526466D01*
X147065400Y-54493133D01*
X147132066Y-54459800D01*
X147165400Y-54426466D01*
X147198733Y-54359800D01*
X146898733Y-53726466D02*
X146932066Y-53793133D01*
X146965400Y-53826466D01*
X147032066Y-53859800D01*
X147065400Y-53859800D01*
X147132066Y-53826466D01*
X147165400Y-53793133D01*
X147198733Y-53726466D01*
X147198733Y-53593133D01*
X147165400Y-53526466D01*
X147132066Y-53493133D01*
X147065400Y-53459800D01*
X147032066Y-53459800D01*
X146965400Y-53493133D01*
X146932066Y-53526466D01*
X146898733Y-53593133D01*
X146898733Y-53726466D01*
X146865400Y-53793133D01*
X146832066Y-53826466D01*
X146765400Y-53859800D01*
X146632066Y-53859800D01*
X146565400Y-53826466D01*
X146532066Y-53793133D01*
X146498733Y-53726466D01*
X146498733Y-53593133D01*
X146532066Y-53526466D01*
X146565400Y-53493133D01*
X146632066Y-53459800D01*
X146765400Y-53459800D01*
X146832066Y-53493133D01*
X146865400Y-53526466D01*
X146898733Y-53593133D01*
X147232066Y-52659800D02*
X146332066Y-53259800D01*
X147198733Y-52293133D02*
X147198733Y-52226466D01*
X147165400Y-52159800D01*
X147132066Y-52126466D01*
X147065400Y-52093133D01*
X146932066Y-52059800D01*
X146765400Y-52059800D01*
X146632066Y-52093133D01*
X146565400Y-52126466D01*
X146532066Y-52159800D01*
X146498733Y-52226466D01*
X146498733Y-52293133D01*
X146532066Y-52359800D01*
X146565400Y-52393133D01*
X146632066Y-52426466D01*
X146765400Y-52459800D01*
X146932066Y-52459800D01*
X147065400Y-52426466D01*
X147132066Y-52393133D01*
X147165400Y-52359800D01*
X147198733Y-52293133D01*
X147198733Y-51459800D02*
X147198733Y-51593133D01*
X147165400Y-51659800D01*
X147132066Y-51693133D01*
X147032066Y-51759800D01*
X146898733Y-51793133D01*
X146632066Y-51793133D01*
X146565400Y-51759800D01*
X146532066Y-51726466D01*
X146498733Y-51659800D01*
X146498733Y-51526466D01*
X146532066Y-51459800D01*
X146565400Y-51426466D01*
X146632066Y-51393133D01*
X146798733Y-51393133D01*
X146865400Y-51426466D01*
X146898733Y-51459800D01*
X146932066Y-51526466D01*
X146932066Y-51659800D01*
X146898733Y-51726466D01*
X146865400Y-51759800D01*
X146798733Y-51793133D01*
X147232066Y-50593133D02*
X146332066Y-51193133D01*
X147132066Y-50393133D02*
X147165400Y-50359800D01*
X147198733Y-50293133D01*
X147198733Y-50126466D01*
X147165400Y-50059800D01*
X147132066Y-50026466D01*
X147065400Y-49993133D01*
X146998733Y-49993133D01*
X146898733Y-50026466D01*
X146498733Y-50426466D01*
X146498733Y-49993133D01*
X147198733Y-49559800D02*
X147198733Y-49493133D01*
X147165400Y-49426466D01*
X147132066Y-49393133D01*
X147065400Y-49359800D01*
X146932066Y-49326466D01*
X146765400Y-49326466D01*
X146632066Y-49359800D01*
X146565400Y-49393133D01*
X146532066Y-49426466D01*
X146498733Y-49493133D01*
X146498733Y-49559800D01*
X146532066Y-49626466D01*
X146565400Y-49659800D01*
X146632066Y-49693133D01*
X146765400Y-49726466D01*
X146932066Y-49726466D01*
X147065400Y-49693133D01*
X147132066Y-49659800D01*
X147165400Y-49626466D01*
X147198733Y-49559800D01*
X147132066Y-49059800D02*
X147165400Y-49026466D01*
X147198733Y-48959800D01*
X147198733Y-48793133D01*
X147165400Y-48726466D01*
X147132066Y-48693133D01*
X147065400Y-48659800D01*
X146998733Y-48659800D01*
X146898733Y-48693133D01*
X146498733Y-49093133D01*
X146498733Y-48659800D01*
X147198733Y-48226466D02*
X147198733Y-48159800D01*
X147165400Y-48093133D01*
X147132066Y-48059800D01*
X147065400Y-48026466D01*
X146932066Y-47993133D01*
X146765400Y-47993133D01*
X146632066Y-48026466D01*
X146565400Y-48059800D01*
X146532066Y-48093133D01*
X146498733Y-48159800D01*
X146498733Y-48226466D01*
X146532066Y-48293133D01*
X146565400Y-48326466D01*
X146632066Y-48359800D01*
X146765400Y-48393133D01*
X146932066Y-48393133D01*
X147065400Y-48359800D01*
X147132066Y-48326466D01*
X147165400Y-48293133D01*
X147198733Y-48226466D01*
D11*
X131836400Y-63187200D02*
X131379200Y-62907800D01*
X131836400Y-62603000D02*
X131836400Y-63187200D01*
X131379200Y-62907800D02*
X131836400Y-62603000D01*
X132471400Y-62907800D02*
X131379200Y-62907800D01*
X132471400Y-61739400D02*
X132471400Y-62907800D01*
X128382000Y-61739400D02*
X132471400Y-61739400D01*
D10*
X132489000Y-61090266D02*
X132522333Y-61156933D01*
X132522333Y-61256933D01*
X132489000Y-61356933D01*
X132422333Y-61423600D01*
X132355666Y-61456933D01*
X132222333Y-61490266D01*
X132122333Y-61490266D01*
X131989000Y-61456933D01*
X131922333Y-61423600D01*
X131855666Y-61356933D01*
X131822333Y-61256933D01*
X131822333Y-61190266D01*
X131855666Y-61090266D01*
X131889000Y-61056933D01*
X132122333Y-61056933D01*
X132122333Y-61190266D01*
X131822333Y-60756933D02*
X132522333Y-60756933D01*
X131822333Y-60356933D01*
X132522333Y-60356933D01*
X131822333Y-60023600D02*
X132522333Y-60023600D01*
X132522333Y-59856933D01*
X132489000Y-59756933D01*
X132422333Y-59690266D01*
X132355666Y-59656933D01*
X132222333Y-59623600D01*
X132122333Y-59623600D01*
X131989000Y-59656933D01*
X131922333Y-59690266D01*
X131855666Y-59756933D01*
X131822333Y-59856933D01*
X131822333Y-60023600D01*
X130705666Y-61490266D02*
X130672333Y-61390266D01*
X130672333Y-61223600D01*
X130705666Y-61156933D01*
X130739000Y-61123600D01*
X130805666Y-61090266D01*
X130872333Y-61090266D01*
X130939000Y-61123600D01*
X130972333Y-61156933D01*
X131005666Y-61223600D01*
X131039000Y-61356933D01*
X131072333Y-61423600D01*
X131105666Y-61456933D01*
X131172333Y-61490266D01*
X131239000Y-61490266D01*
X131305666Y-61456933D01*
X131339000Y-61423600D01*
X131372333Y-61356933D01*
X131372333Y-61190266D01*
X131339000Y-61090266D01*
X131372333Y-60856933D02*
X130672333Y-60690266D01*
X131172333Y-60556933D01*
X130672333Y-60423600D01*
X131372333Y-60256933D01*
X130672333Y-59990266D02*
X131372333Y-59990266D01*
X131372333Y-59823600D01*
X131339000Y-59723600D01*
X131272333Y-59656933D01*
X131205666Y-59623600D01*
X131072333Y-59590266D01*
X130972333Y-59590266D01*
X130839000Y-59623600D01*
X130772333Y-59656933D01*
X130705666Y-59723600D01*
X130672333Y-59823600D01*
X130672333Y-59990266D01*
X130672333Y-59290266D02*
X131372333Y-59290266D01*
X131372333Y-58823600D02*
X131372333Y-58690266D01*
X131339000Y-58623600D01*
X131272333Y-58556933D01*
X131139000Y-58523600D01*
X130905666Y-58523600D01*
X130772333Y-58556933D01*
X130705666Y-58623600D01*
X130672333Y-58690266D01*
X130672333Y-58823600D01*
X130705666Y-58890266D01*
X130772333Y-58956933D01*
X130905666Y-58990266D01*
X131139000Y-58990266D01*
X131272333Y-58956933D01*
X131339000Y-58890266D01*
X131372333Y-58823600D01*
X129555666Y-61490266D02*
X129522333Y-61390266D01*
X129522333Y-61223600D01*
X129555666Y-61156933D01*
X129589000Y-61123600D01*
X129655666Y-61090266D01*
X129722333Y-61090266D01*
X129789000Y-61123600D01*
X129822333Y-61156933D01*
X129855666Y-61223600D01*
X129889000Y-61356933D01*
X129922333Y-61423600D01*
X129955666Y-61456933D01*
X130022333Y-61490266D01*
X130089000Y-61490266D01*
X130155666Y-61456933D01*
X130189000Y-61423600D01*
X130222333Y-61356933D01*
X130222333Y-61190266D01*
X130189000Y-61090266D01*
X130222333Y-60856933D02*
X129522333Y-60690266D01*
X130022333Y-60556933D01*
X129522333Y-60423600D01*
X130222333Y-60256933D01*
X129522333Y-59990266D02*
X130222333Y-59990266D01*
X130222333Y-59823600D01*
X130189000Y-59723600D01*
X130122333Y-59656933D01*
X130055666Y-59623600D01*
X129922333Y-59590266D01*
X129822333Y-59590266D01*
X129689000Y-59623600D01*
X129622333Y-59656933D01*
X129555666Y-59723600D01*
X129522333Y-59823600D01*
X129522333Y-59990266D01*
X129589000Y-58890266D02*
X129555666Y-58923600D01*
X129522333Y-59023600D01*
X129522333Y-59090266D01*
X129555666Y-59190266D01*
X129622333Y-59256933D01*
X129689000Y-59290266D01*
X129822333Y-59323600D01*
X129922333Y-59323600D01*
X130055666Y-59290266D01*
X130122333Y-59256933D01*
X130189000Y-59190266D01*
X130222333Y-59090266D01*
X130222333Y-59023600D01*
X130189000Y-58923600D01*
X130155666Y-58890266D01*
X129522333Y-58256933D02*
X129522333Y-58590266D01*
X130222333Y-58590266D01*
X129522333Y-58023600D02*
X130222333Y-58023600D01*
X129522333Y-57623600D02*
X129922333Y-57923600D01*
X130222333Y-57623600D02*
X129822333Y-58023600D01*
X129072333Y-61523600D02*
X129072333Y-61090266D01*
X128805666Y-61323600D01*
X128805666Y-61223600D01*
X128772333Y-61156933D01*
X128739000Y-61123600D01*
X128672333Y-61090266D01*
X128505666Y-61090266D01*
X128439000Y-61123600D01*
X128405666Y-61156933D01*
X128372333Y-61223600D01*
X128372333Y-61423600D01*
X128405666Y-61490266D01*
X128439000Y-61523600D01*
X128439000Y-60790266D02*
X128405666Y-60756933D01*
X128372333Y-60790266D01*
X128405666Y-60823600D01*
X128439000Y-60790266D01*
X128372333Y-60790266D01*
X129072333Y-60523600D02*
X129072333Y-60090266D01*
X128805666Y-60323600D01*
X128805666Y-60223600D01*
X128772333Y-60156933D01*
X128739000Y-60123600D01*
X128672333Y-60090266D01*
X128505666Y-60090266D01*
X128439000Y-60123600D01*
X128405666Y-60156933D01*
X128372333Y-60223600D01*
X128372333Y-60423600D01*
X128405666Y-60490266D01*
X128439000Y-60523600D01*
X129072333Y-59890266D02*
X128372333Y-59656933D01*
X129072333Y-59423600D01*
D11*
%TO.C,J2*%
X130188800Y-48413400D02*
X130188800Y-49003400D01*
X128128800Y-46703400D02*
X128128800Y-48413400D01*
X128128800Y-48413400D02*
X130188800Y-48413400D01*
X135848800Y-46703400D02*
X135848800Y-48413400D01*
X135848800Y-48413400D02*
X133788800Y-48413400D01*
D10*
%TO.C,C61*%
X125730300Y-52809300D02*
X125730300Y-52559300D01*
X126690300Y-52809300D02*
X126690300Y-52559300D01*
%TO.C,C60*%
X143187600Y-50616200D02*
X143187600Y-50866200D01*
X142227600Y-50616200D02*
X142227600Y-50866200D01*
%TO.C,C59*%
X136939800Y-51068800D02*
X136689800Y-51068800D01*
X136939800Y-50108800D02*
X136689800Y-50108800D01*
D13*
%TO.C,G\u002A\u002A\u002A*%
G36*
X140658219Y-46408987D02*
G01*
X140631148Y-46415371D01*
X140606746Y-46427269D01*
X140584474Y-46444875D01*
X140583816Y-46445511D01*
X140565566Y-46467277D01*
X140552644Y-46491360D01*
X140544921Y-46516953D01*
X140542266Y-46543248D01*
X140544549Y-46569436D01*
X140551640Y-46594711D01*
X140563409Y-46618266D01*
X140579725Y-46639291D01*
X140600459Y-46656980D01*
X140619660Y-46667964D01*
X140639588Y-46675695D01*
X140660363Y-46681033D01*
X140679333Y-46683334D01*
X140683178Y-46683366D01*
X140691477Y-46682459D01*
X140703127Y-46680284D01*
X140713700Y-46677789D01*
X140741336Y-46667437D01*
X140765534Y-46652019D01*
X140785775Y-46632107D01*
X140801542Y-46608274D01*
X140812314Y-46581093D01*
X140815925Y-46564907D01*
X140817464Y-46536957D01*
X140813100Y-46509658D01*
X140803276Y-46483853D01*
X140788435Y-46460383D01*
X140769021Y-46440090D01*
X140745478Y-46423816D01*
X140740112Y-46421018D01*
X140726900Y-46414894D01*
X140715957Y-46411155D01*
X140704472Y-46409088D01*
X140689633Y-46407979D01*
X140688498Y-46407923D01*
X140658219Y-46408987D01*
G37*
X140658219Y-46408987D02*
X140631148Y-46415371D01*
X140606746Y-46427269D01*
X140584474Y-46444875D01*
X140583816Y-46445511D01*
X140565566Y-46467277D01*
X140552644Y-46491360D01*
X140544921Y-46516953D01*
X140542266Y-46543248D01*
X140544549Y-46569436D01*
X140551640Y-46594711D01*
X140563409Y-46618266D01*
X140579725Y-46639291D01*
X140600459Y-46656980D01*
X140619660Y-46667964D01*
X140639588Y-46675695D01*
X140660363Y-46681033D01*
X140679333Y-46683334D01*
X140683178Y-46683366D01*
X140691477Y-46682459D01*
X140703127Y-46680284D01*
X140713700Y-46677789D01*
X140741336Y-46667437D01*
X140765534Y-46652019D01*
X140785775Y-46632107D01*
X140801542Y-46608274D01*
X140812314Y-46581093D01*
X140815925Y-46564907D01*
X140817464Y-46536957D01*
X140813100Y-46509658D01*
X140803276Y-46483853D01*
X140788435Y-46460383D01*
X140769021Y-46440090D01*
X140745478Y-46423816D01*
X140740112Y-46421018D01*
X140726900Y-46414894D01*
X140715957Y-46411155D01*
X140704472Y-46409088D01*
X140689633Y-46407979D01*
X140688498Y-46407923D01*
X140658219Y-46408987D01*
G36*
X140204785Y-46504979D02*
G01*
X140191205Y-46508996D01*
X140165774Y-46520926D01*
X140143964Y-46537535D01*
X140126165Y-46558036D01*
X140112767Y-46581642D01*
X140104160Y-46607566D01*
X140100733Y-46635021D01*
X140102875Y-46663219D01*
X140106784Y-46679473D01*
X140117847Y-46705454D01*
X140133982Y-46728516D01*
X140154353Y-46747813D01*
X140178122Y-46762498D01*
X140195518Y-46769331D01*
X140213708Y-46773316D01*
X140234190Y-46775211D01*
X140254501Y-46774962D01*
X140272181Y-46772512D01*
X140277138Y-46771173D01*
X140303418Y-46759773D01*
X140326416Y-46743704D01*
X140345631Y-46723757D01*
X140360563Y-46700726D01*
X140370711Y-46675402D01*
X140375574Y-46648579D01*
X140374651Y-46621049D01*
X140374123Y-46617706D01*
X140367116Y-46590650D01*
X140355675Y-46567199D01*
X140339003Y-46545753D01*
X140337589Y-46544253D01*
X140314756Y-46524582D01*
X140289557Y-46510699D01*
X140262496Y-46502724D01*
X140234071Y-46500777D01*
X140204785Y-46504979D01*
G37*
X140204785Y-46504979D02*
X140191205Y-46508996D01*
X140165774Y-46520926D01*
X140143964Y-46537535D01*
X140126165Y-46558036D01*
X140112767Y-46581642D01*
X140104160Y-46607566D01*
X140100733Y-46635021D01*
X140102875Y-46663219D01*
X140106784Y-46679473D01*
X140117847Y-46705454D01*
X140133982Y-46728516D01*
X140154353Y-46747813D01*
X140178122Y-46762498D01*
X140195518Y-46769331D01*
X140213708Y-46773316D01*
X140234190Y-46775211D01*
X140254501Y-46774962D01*
X140272181Y-46772512D01*
X140277138Y-46771173D01*
X140303418Y-46759773D01*
X140326416Y-46743704D01*
X140345631Y-46723757D01*
X140360563Y-46700726D01*
X140370711Y-46675402D01*
X140375574Y-46648579D01*
X140374651Y-46621049D01*
X140374123Y-46617706D01*
X140367116Y-46590650D01*
X140355675Y-46567199D01*
X140339003Y-46545753D01*
X140337589Y-46544253D01*
X140314756Y-46524582D01*
X140289557Y-46510699D01*
X140262496Y-46502724D01*
X140234071Y-46500777D01*
X140204785Y-46504979D01*
G36*
X140998783Y-46529447D02*
G01*
X140972993Y-46537919D01*
X140949020Y-46551524D01*
X140927713Y-46570208D01*
X140920422Y-46578715D01*
X140905926Y-46601968D01*
X140896449Y-46627962D01*
X140892075Y-46655479D01*
X140892892Y-46683299D01*
X140898986Y-46710202D01*
X140909466Y-46733334D01*
X140926194Y-46755910D01*
X140947001Y-46774345D01*
X140970933Y-46788271D01*
X140997037Y-46797321D01*
X141024360Y-46801126D01*
X141051949Y-46799319D01*
X141069300Y-46795048D01*
X141086769Y-46788693D01*
X141100630Y-46781664D01*
X141113577Y-46772487D01*
X141119350Y-46767673D01*
X141138911Y-46746882D01*
X141153268Y-46723260D01*
X141162397Y-46697651D01*
X141166273Y-46670901D01*
X141164869Y-46643853D01*
X141158161Y-46617354D01*
X141146123Y-46592246D01*
X141128731Y-46569376D01*
X141125383Y-46565915D01*
X141103198Y-46547934D01*
X141078599Y-46535350D01*
X141052433Y-46528109D01*
X141025545Y-46526159D01*
X140998783Y-46529447D01*
G37*
X140998783Y-46529447D02*
X140972993Y-46537919D01*
X140949020Y-46551524D01*
X140927713Y-46570208D01*
X140920422Y-46578715D01*
X140905926Y-46601968D01*
X140896449Y-46627962D01*
X140892075Y-46655479D01*
X140892892Y-46683299D01*
X140898986Y-46710202D01*
X140909466Y-46733334D01*
X140926194Y-46755910D01*
X140947001Y-46774345D01*
X140970933Y-46788271D01*
X140997037Y-46797321D01*
X141024360Y-46801126D01*
X141051949Y-46799319D01*
X141069300Y-46795048D01*
X141086769Y-46788693D01*
X141100630Y-46781664D01*
X141113577Y-46772487D01*
X141119350Y-46767673D01*
X141138911Y-46746882D01*
X141153268Y-46723260D01*
X141162397Y-46697651D01*
X141166273Y-46670901D01*
X141164869Y-46643853D01*
X141158161Y-46617354D01*
X141146123Y-46592246D01*
X141128731Y-46569376D01*
X141125383Y-46565915D01*
X141103198Y-46547934D01*
X141078599Y-46535350D01*
X141052433Y-46528109D01*
X141025545Y-46526159D01*
X140998783Y-46529447D01*
G36*
X141346119Y-46572533D02*
G01*
X141344888Y-46572788D01*
X141317325Y-46581515D01*
X141293307Y-46594903D01*
X141273067Y-46612223D01*
X141256838Y-46632748D01*
X141244850Y-46655748D01*
X141237337Y-46680497D01*
X141234531Y-46706266D01*
X141236663Y-46732327D01*
X141243966Y-46757952D01*
X141256672Y-46782412D01*
X141271892Y-46801743D01*
X141293716Y-46820632D01*
X141318538Y-46834347D01*
X141345426Y-46842653D01*
X141373449Y-46845315D01*
X141401675Y-46842096D01*
X141415832Y-46838121D01*
X141442253Y-46826073D01*
X141464600Y-46809792D01*
X141482699Y-46790029D01*
X141496372Y-46767535D01*
X141505443Y-46743062D01*
X141509735Y-46717361D01*
X141509073Y-46691185D01*
X141503278Y-46665284D01*
X141492176Y-46640411D01*
X141475589Y-46617317D01*
X141469256Y-46610587D01*
X141451720Y-46595338D01*
X141433192Y-46584276D01*
X141411376Y-46576114D01*
X141404359Y-46574170D01*
X141384382Y-46570195D01*
X141366129Y-46569676D01*
X141346119Y-46572533D01*
G37*
X141346119Y-46572533D02*
X141344888Y-46572788D01*
X141317325Y-46581515D01*
X141293307Y-46594903D01*
X141273067Y-46612223D01*
X141256838Y-46632748D01*
X141244850Y-46655748D01*
X141237337Y-46680497D01*
X141234531Y-46706266D01*
X141236663Y-46732327D01*
X141243966Y-46757952D01*
X141256672Y-46782412D01*
X141271892Y-46801743D01*
X141293716Y-46820632D01*
X141318538Y-46834347D01*
X141345426Y-46842653D01*
X141373449Y-46845315D01*
X141401675Y-46842096D01*
X141415832Y-46838121D01*
X141442253Y-46826073D01*
X141464600Y-46809792D01*
X141482699Y-46790029D01*
X141496372Y-46767535D01*
X141505443Y-46743062D01*
X141509735Y-46717361D01*
X141509073Y-46691185D01*
X141503278Y-46665284D01*
X141492176Y-46640411D01*
X141475589Y-46617317D01*
X141469256Y-46610587D01*
X141451720Y-46595338D01*
X141433192Y-46584276D01*
X141411376Y-46576114D01*
X141404359Y-46574170D01*
X141384382Y-46570195D01*
X141366129Y-46569676D01*
X141346119Y-46572533D01*
G36*
X140486601Y-46759396D02*
G01*
X140460649Y-46767413D01*
X140437691Y-46779952D01*
X140418010Y-46796341D01*
X140401888Y-46815907D01*
X140389609Y-46837977D01*
X140381455Y-46861879D01*
X140377710Y-46886941D01*
X140378657Y-46912488D01*
X140384578Y-46937850D01*
X140395757Y-46962353D01*
X140412476Y-46985325D01*
X140416984Y-46990166D01*
X140438925Y-47008328D01*
X140464092Y-47021550D01*
X140491367Y-47029482D01*
X140519631Y-47031772D01*
X140541907Y-47029365D01*
X140564365Y-47022441D01*
X140586804Y-47011087D01*
X140606665Y-46996694D01*
X140613101Y-46990618D01*
X140631214Y-46967794D01*
X140643927Y-46942660D01*
X140651220Y-46916059D01*
X140653074Y-46888835D01*
X140649470Y-46861831D01*
X140640386Y-46835890D01*
X140625804Y-46811856D01*
X140617504Y-46801953D01*
X140595160Y-46781796D01*
X140570674Y-46767590D01*
X140543791Y-46759221D01*
X140515263Y-46756575D01*
X140486601Y-46759396D01*
G37*
X140486601Y-46759396D02*
X140460649Y-46767413D01*
X140437691Y-46779952D01*
X140418010Y-46796341D01*
X140401888Y-46815907D01*
X140389609Y-46837977D01*
X140381455Y-46861879D01*
X140377710Y-46886941D01*
X140378657Y-46912488D01*
X140384578Y-46937850D01*
X140395757Y-46962353D01*
X140412476Y-46985325D01*
X140416984Y-46990166D01*
X140438925Y-47008328D01*
X140464092Y-47021550D01*
X140491367Y-47029482D01*
X140519631Y-47031772D01*
X140541907Y-47029365D01*
X140564365Y-47022441D01*
X140586804Y-47011087D01*
X140606665Y-46996694D01*
X140613101Y-46990618D01*
X140631214Y-46967794D01*
X140643927Y-46942660D01*
X140651220Y-46916059D01*
X140653074Y-46888835D01*
X140649470Y-46861831D01*
X140640386Y-46835890D01*
X140625804Y-46811856D01*
X140617504Y-46801953D01*
X140595160Y-46781796D01*
X140570674Y-46767590D01*
X140543791Y-46759221D01*
X140515263Y-46756575D01*
X140486601Y-46759396D01*
G36*
X140085507Y-46806480D02*
G01*
X140059213Y-46813634D01*
X140034519Y-46826065D01*
X140012289Y-46843782D01*
X140008242Y-46847931D01*
X139990686Y-46871132D01*
X139978619Y-46896830D01*
X139972129Y-46924182D01*
X139971305Y-46952346D01*
X139976235Y-46980479D01*
X139987007Y-47007739D01*
X139990795Y-47014612D01*
X140006719Y-47035746D01*
X140027042Y-47053282D01*
X140050653Y-47066774D01*
X140076438Y-47075772D01*
X140103283Y-47079830D01*
X140130075Y-47078499D01*
X140142795Y-47075758D01*
X140169198Y-47065942D01*
X140191980Y-47051690D01*
X140205913Y-47039325D01*
X140223978Y-47017055D01*
X140236702Y-46992205D01*
X140244064Y-46965663D01*
X140246042Y-46938320D01*
X140242613Y-46911066D01*
X140233754Y-46884789D01*
X140219445Y-46860380D01*
X140210668Y-46849627D01*
X140189363Y-46830500D01*
X140165328Y-46816614D01*
X140139431Y-46807978D01*
X140112535Y-46804597D01*
X140085507Y-46806480D01*
G37*
X140085507Y-46806480D02*
X140059213Y-46813634D01*
X140034519Y-46826065D01*
X140012289Y-46843782D01*
X140008242Y-46847931D01*
X139990686Y-46871132D01*
X139978619Y-46896830D01*
X139972129Y-46924182D01*
X139971305Y-46952346D01*
X139976235Y-46980479D01*
X139987007Y-47007739D01*
X139990795Y-47014612D01*
X140006719Y-47035746D01*
X140027042Y-47053282D01*
X140050653Y-47066774D01*
X140076438Y-47075772D01*
X140103283Y-47079830D01*
X140130075Y-47078499D01*
X140142795Y-47075758D01*
X140169198Y-47065942D01*
X140191980Y-47051690D01*
X140205913Y-47039325D01*
X140223978Y-47017055D01*
X140236702Y-46992205D01*
X140244064Y-46965663D01*
X140246042Y-46938320D01*
X140242613Y-46911066D01*
X140233754Y-46884789D01*
X140219445Y-46860380D01*
X140210668Y-46849627D01*
X140189363Y-46830500D01*
X140165328Y-46816614D01*
X140139431Y-46807978D01*
X140112535Y-46804597D01*
X140085507Y-46806480D01*
G36*
X139741986Y-46822094D02*
G01*
X139730098Y-46824203D01*
X139719050Y-46827882D01*
X139706089Y-46833830D01*
X139705737Y-46834004D01*
X139680795Y-46849555D01*
X139660594Y-46869262D01*
X139645035Y-46893251D01*
X139634020Y-46921646D01*
X139632749Y-46926310D01*
X139629166Y-46943265D01*
X139628195Y-46958245D01*
X139629835Y-46974082D01*
X139632744Y-46988074D01*
X139642462Y-47016148D01*
X139657313Y-47040809D01*
X139676773Y-47061534D01*
X139700323Y-47077803D01*
X139727441Y-47089095D01*
X139736076Y-47091406D01*
X139757684Y-47095156D01*
X139776942Y-47095325D01*
X139786600Y-47094108D01*
X139803491Y-47089911D01*
X139821681Y-47083204D01*
X139838347Y-47075134D01*
X139847603Y-47069285D01*
X139868347Y-47050402D01*
X139884493Y-47028108D01*
X139895898Y-47003325D01*
X139902416Y-46976979D01*
X139903903Y-46949992D01*
X139900215Y-46923289D01*
X139891206Y-46897793D01*
X139877871Y-46875903D01*
X139857387Y-46853538D01*
X139834327Y-46836966D01*
X139808589Y-46826142D01*
X139780075Y-46821020D01*
X139757469Y-46820855D01*
X139741986Y-46822094D01*
G37*
X139741986Y-46822094D02*
X139730098Y-46824203D01*
X139719050Y-46827882D01*
X139706089Y-46833830D01*
X139705737Y-46834004D01*
X139680795Y-46849555D01*
X139660594Y-46869262D01*
X139645035Y-46893251D01*
X139634020Y-46921646D01*
X139632749Y-46926310D01*
X139629166Y-46943265D01*
X139628195Y-46958245D01*
X139629835Y-46974082D01*
X139632744Y-46988074D01*
X139642462Y-47016148D01*
X139657313Y-47040809D01*
X139676773Y-47061534D01*
X139700323Y-47077803D01*
X139727441Y-47089095D01*
X139736076Y-47091406D01*
X139757684Y-47095156D01*
X139776942Y-47095325D01*
X139786600Y-47094108D01*
X139803491Y-47089911D01*
X139821681Y-47083204D01*
X139838347Y-47075134D01*
X139847603Y-47069285D01*
X139868347Y-47050402D01*
X139884493Y-47028108D01*
X139895898Y-47003325D01*
X139902416Y-46976979D01*
X139903903Y-46949992D01*
X139900215Y-46923289D01*
X139891206Y-46897793D01*
X139877871Y-46875903D01*
X139857387Y-46853538D01*
X139834327Y-46836966D01*
X139808589Y-46826142D01*
X139780075Y-46821020D01*
X139757469Y-46820855D01*
X139741986Y-46822094D01*
G36*
X140820513Y-46827388D02*
G01*
X140800693Y-46831105D01*
X140800560Y-46831144D01*
X140778643Y-46840381D01*
X140757354Y-46854310D01*
X140738779Y-46871442D01*
X140731282Y-46880579D01*
X140716678Y-46905356D01*
X140707722Y-46931615D01*
X140704212Y-46958548D01*
X140705943Y-46985349D01*
X140712711Y-47011211D01*
X140724312Y-47035327D01*
X140740541Y-47056890D01*
X140761195Y-47075094D01*
X140783772Y-47088109D01*
X140794303Y-47092077D01*
X140807575Y-47095939D01*
X140821563Y-47099235D01*
X140834237Y-47101503D01*
X140843571Y-47102282D01*
X140845463Y-47102150D01*
X140850700Y-47101432D01*
X140858163Y-47100432D01*
X140886418Y-47093525D01*
X140912644Y-47080748D01*
X140936233Y-47062418D01*
X140942021Y-47056610D01*
X140959435Y-47033965D01*
X140971307Y-47009365D01*
X140977830Y-46983578D01*
X140979198Y-46957374D01*
X140975603Y-46931522D01*
X140967241Y-46906792D01*
X140954304Y-46883953D01*
X140936985Y-46863774D01*
X140915478Y-46847024D01*
X140889977Y-46834473D01*
X140885781Y-46832987D01*
X140865855Y-46828389D01*
X140843166Y-46826503D01*
X140820513Y-46827388D01*
G37*
X140820513Y-46827388D02*
X140800693Y-46831105D01*
X140800560Y-46831144D01*
X140778643Y-46840381D01*
X140757354Y-46854310D01*
X140738779Y-46871442D01*
X140731282Y-46880579D01*
X140716678Y-46905356D01*
X140707722Y-46931615D01*
X140704212Y-46958548D01*
X140705943Y-46985349D01*
X140712711Y-47011211D01*
X140724312Y-47035327D01*
X140740541Y-47056890D01*
X140761195Y-47075094D01*
X140783772Y-47088109D01*
X140794303Y-47092077D01*
X140807575Y-47095939D01*
X140821563Y-47099235D01*
X140834237Y-47101503D01*
X140843571Y-47102282D01*
X140845463Y-47102150D01*
X140850700Y-47101432D01*
X140858163Y-47100432D01*
X140886418Y-47093525D01*
X140912644Y-47080748D01*
X140936233Y-47062418D01*
X140942021Y-47056610D01*
X140959435Y-47033965D01*
X140971307Y-47009365D01*
X140977830Y-46983578D01*
X140979198Y-46957374D01*
X140975603Y-46931522D01*
X140967241Y-46906792D01*
X140954304Y-46883953D01*
X140936985Y-46863774D01*
X140915478Y-46847024D01*
X140889977Y-46834473D01*
X140885781Y-46832987D01*
X140865855Y-46828389D01*
X140843166Y-46826503D01*
X140820513Y-46827388D01*
G36*
X141462798Y-46873953D02*
G01*
X141436909Y-46884393D01*
X141414291Y-46899291D01*
X141395330Y-46917973D01*
X141380414Y-46939766D01*
X141369928Y-46963995D01*
X141364260Y-46989986D01*
X141363795Y-47017067D01*
X141368921Y-47044562D01*
X141377683Y-47067187D01*
X141392654Y-47091025D01*
X141412044Y-47110958D01*
X141434969Y-47126572D01*
X141460545Y-47137453D01*
X141487886Y-47143185D01*
X141516107Y-47143356D01*
X141534043Y-47140397D01*
X141560482Y-47131067D01*
X141583973Y-47116589D01*
X141603936Y-47097711D01*
X141619790Y-47075179D01*
X141630951Y-47049738D01*
X141636840Y-47022135D01*
X141637625Y-47007479D01*
X141635245Y-46978192D01*
X141627868Y-46952400D01*
X141615145Y-46929264D01*
X141596724Y-46907950D01*
X141595252Y-46906543D01*
X141571829Y-46888405D01*
X141546137Y-46875898D01*
X141518832Y-46869260D01*
X141491572Y-46868646D01*
X141462798Y-46873953D01*
G37*
X141462798Y-46873953D02*
X141436909Y-46884393D01*
X141414291Y-46899291D01*
X141395330Y-46917973D01*
X141380414Y-46939766D01*
X141369928Y-46963995D01*
X141364260Y-46989986D01*
X141363795Y-47017067D01*
X141368921Y-47044562D01*
X141377683Y-47067187D01*
X141392654Y-47091025D01*
X141412044Y-47110958D01*
X141434969Y-47126572D01*
X141460545Y-47137453D01*
X141487886Y-47143185D01*
X141516107Y-47143356D01*
X141534043Y-47140397D01*
X141560482Y-47131067D01*
X141583973Y-47116589D01*
X141603936Y-47097711D01*
X141619790Y-47075179D01*
X141630951Y-47049738D01*
X141636840Y-47022135D01*
X141637625Y-47007479D01*
X141635245Y-46978192D01*
X141627868Y-46952400D01*
X141615145Y-46929264D01*
X141596724Y-46907950D01*
X141595252Y-46906543D01*
X141571829Y-46888405D01*
X141546137Y-46875898D01*
X141518832Y-46869260D01*
X141491572Y-46868646D01*
X141462798Y-46873953D01*
G36*
X140285319Y-47083420D02*
G01*
X140277708Y-47085172D01*
X140255022Y-47092762D01*
X140235754Y-47103346D01*
X140217247Y-47118400D01*
X140216324Y-47119268D01*
X140197426Y-47140447D01*
X140184356Y-47163075D01*
X140176791Y-47187981D01*
X140174408Y-47215994D01*
X140174710Y-47226162D01*
X140178826Y-47255642D01*
X140187925Y-47281407D01*
X140202296Y-47304019D01*
X140222230Y-47324042D01*
X140227127Y-47327952D01*
X140248068Y-47340708D01*
X140272202Y-47349867D01*
X140297759Y-47355067D01*
X140322970Y-47355944D01*
X140345759Y-47352226D01*
X140372722Y-47341443D01*
X140396384Y-47325991D01*
X140416255Y-47306614D01*
X140431847Y-47284055D01*
X140442670Y-47259056D01*
X140448236Y-47232361D01*
X140448056Y-47204713D01*
X140447129Y-47198169D01*
X140439469Y-47170126D01*
X140426833Y-47145073D01*
X140409914Y-47123472D01*
X140389404Y-47105785D01*
X140365997Y-47092474D01*
X140340385Y-47084002D01*
X140313261Y-47080830D01*
X140285319Y-47083420D01*
G37*
X140285319Y-47083420D02*
X140277708Y-47085172D01*
X140255022Y-47092762D01*
X140235754Y-47103346D01*
X140217247Y-47118400D01*
X140216324Y-47119268D01*
X140197426Y-47140447D01*
X140184356Y-47163075D01*
X140176791Y-47187981D01*
X140174408Y-47215994D01*
X140174710Y-47226162D01*
X140178826Y-47255642D01*
X140187925Y-47281407D01*
X140202296Y-47304019D01*
X140222230Y-47324042D01*
X140227127Y-47327952D01*
X140248068Y-47340708D01*
X140272202Y-47349867D01*
X140297759Y-47355067D01*
X140322970Y-47355944D01*
X140345759Y-47352226D01*
X140372722Y-47341443D01*
X140396384Y-47325991D01*
X140416255Y-47306614D01*
X140431847Y-47284055D01*
X140442670Y-47259056D01*
X140448236Y-47232361D01*
X140448056Y-47204713D01*
X140447129Y-47198169D01*
X140439469Y-47170126D01*
X140426833Y-47145073D01*
X140409914Y-47123472D01*
X140389404Y-47105785D01*
X140365997Y-47092474D01*
X140340385Y-47084002D01*
X140313261Y-47080830D01*
X140285319Y-47083420D01*
G36*
X141054813Y-47085174D02*
G01*
X141027246Y-47095122D01*
X141024193Y-47096635D01*
X141011305Y-47104935D01*
X140997121Y-47116761D01*
X140983642Y-47130217D01*
X140972872Y-47143402D01*
X140969706Y-47148286D01*
X140959068Y-47172269D01*
X140953212Y-47198678D01*
X140952118Y-47226059D01*
X140955768Y-47252958D01*
X140964142Y-47277921D01*
X140971553Y-47291562D01*
X140989298Y-47313730D01*
X141010888Y-47331691D01*
X141035359Y-47345063D01*
X141061745Y-47353460D01*
X141089083Y-47356501D01*
X141116407Y-47353800D01*
X141123634Y-47352043D01*
X141151139Y-47341304D01*
X141175248Y-47325495D01*
X141195420Y-47305218D01*
X141211112Y-47281074D01*
X141221782Y-47253667D01*
X141224976Y-47239444D01*
X141226488Y-47213030D01*
X141222370Y-47186141D01*
X141213072Y-47160145D01*
X141199041Y-47136409D01*
X141186332Y-47121559D01*
X141163722Y-47103237D01*
X141138409Y-47090305D01*
X141111250Y-47082897D01*
X141083099Y-47081143D01*
X141054813Y-47085174D01*
G37*
X141054813Y-47085174D02*
X141027246Y-47095122D01*
X141024193Y-47096635D01*
X141011305Y-47104935D01*
X140997121Y-47116761D01*
X140983642Y-47130217D01*
X140972872Y-47143402D01*
X140969706Y-47148286D01*
X140959068Y-47172269D01*
X140953212Y-47198678D01*
X140952118Y-47226059D01*
X140955768Y-47252958D01*
X140964142Y-47277921D01*
X140971553Y-47291562D01*
X140989298Y-47313730D01*
X141010888Y-47331691D01*
X141035359Y-47345063D01*
X141061745Y-47353460D01*
X141089083Y-47356501D01*
X141116407Y-47353800D01*
X141123634Y-47352043D01*
X141151139Y-47341304D01*
X141175248Y-47325495D01*
X141195420Y-47305218D01*
X141211112Y-47281074D01*
X141221782Y-47253667D01*
X141224976Y-47239444D01*
X141226488Y-47213030D01*
X141222370Y-47186141D01*
X141213072Y-47160145D01*
X141199041Y-47136409D01*
X141186332Y-47121559D01*
X141163722Y-47103237D01*
X141138409Y-47090305D01*
X141111250Y-47082897D01*
X141083099Y-47081143D01*
X141054813Y-47085174D01*
G36*
X141717469Y-47093613D02*
G01*
X141697099Y-47100309D01*
X141675211Y-47113666D01*
X141656131Y-47131868D01*
X141640858Y-47153672D01*
X141630393Y-47177836D01*
X141628224Y-47185862D01*
X141626118Y-47200267D01*
X141625160Y-47218605D01*
X141625308Y-47238568D01*
X141626523Y-47257849D01*
X141628764Y-47274144D01*
X141629846Y-47278957D01*
X141639619Y-47304230D01*
X141654695Y-47326625D01*
X141674358Y-47345295D01*
X141697569Y-47359245D01*
X141715999Y-47365268D01*
X141737586Y-47368499D01*
X141759859Y-47368822D01*
X141780346Y-47366117D01*
X141789074Y-47363618D01*
X141814639Y-47351498D01*
X141835583Y-47335058D01*
X141851856Y-47314387D01*
X141863407Y-47289574D01*
X141870186Y-47260707D01*
X141872143Y-47227874D01*
X141871806Y-47217697D01*
X141867669Y-47186266D01*
X141858773Y-47159010D01*
X141845137Y-47135957D01*
X141826781Y-47117136D01*
X141803727Y-47102575D01*
X141784098Y-47094702D01*
X141763508Y-47090645D01*
X141740453Y-47090337D01*
X141717469Y-47093613D01*
G37*
X141717469Y-47093613D02*
X141697099Y-47100309D01*
X141675211Y-47113666D01*
X141656131Y-47131868D01*
X141640858Y-47153672D01*
X141630393Y-47177836D01*
X141628224Y-47185862D01*
X141626118Y-47200267D01*
X141625160Y-47218605D01*
X141625308Y-47238568D01*
X141626523Y-47257849D01*
X141628764Y-47274144D01*
X141629846Y-47278957D01*
X141639619Y-47304230D01*
X141654695Y-47326625D01*
X141674358Y-47345295D01*
X141697569Y-47359245D01*
X141715999Y-47365268D01*
X141737586Y-47368499D01*
X141759859Y-47368822D01*
X141780346Y-47366117D01*
X141789074Y-47363618D01*
X141814639Y-47351498D01*
X141835583Y-47335058D01*
X141851856Y-47314387D01*
X141863407Y-47289574D01*
X141870186Y-47260707D01*
X141872143Y-47227874D01*
X141871806Y-47217697D01*
X141867669Y-47186266D01*
X141858773Y-47159010D01*
X141845137Y-47135957D01*
X141826781Y-47117136D01*
X141803727Y-47102575D01*
X141784098Y-47094702D01*
X141763508Y-47090645D01*
X141740453Y-47090337D01*
X141717469Y-47093613D01*
G36*
X143194746Y-47091969D02*
G01*
X143168621Y-47099054D01*
X143145328Y-47111433D01*
X143125454Y-47128731D01*
X143109586Y-47150574D01*
X143101117Y-47168524D01*
X143096832Y-47184005D01*
X143093823Y-47203505D01*
X143092236Y-47224798D01*
X143092217Y-47245656D01*
X143093911Y-47263849D01*
X143094632Y-47267785D01*
X143103085Y-47294546D01*
X143116413Y-47318485D01*
X143133951Y-47338728D01*
X143155035Y-47354402D01*
X143164052Y-47359076D01*
X143180274Y-47364432D01*
X143199908Y-47367766D01*
X143220548Y-47368922D01*
X143239784Y-47367739D01*
X143252792Y-47364922D01*
X143276310Y-47354297D01*
X143297532Y-47338982D01*
X143315228Y-47320107D01*
X143328168Y-47298801D01*
X143330297Y-47293790D01*
X143334606Y-47278370D01*
X143337577Y-47258762D01*
X143339131Y-47237004D01*
X143339188Y-47215132D01*
X143337670Y-47195183D01*
X143334723Y-47179961D01*
X143324100Y-47153566D01*
X143308829Y-47131221D01*
X143289412Y-47113331D01*
X143266351Y-47100299D01*
X143240150Y-47092526D01*
X143223116Y-47090554D01*
X143194746Y-47091969D01*
G37*
X143194746Y-47091969D02*
X143168621Y-47099054D01*
X143145328Y-47111433D01*
X143125454Y-47128731D01*
X143109586Y-47150574D01*
X143101117Y-47168524D01*
X143096832Y-47184005D01*
X143093823Y-47203505D01*
X143092236Y-47224798D01*
X143092217Y-47245656D01*
X143093911Y-47263849D01*
X143094632Y-47267785D01*
X143103085Y-47294546D01*
X143116413Y-47318485D01*
X143133951Y-47338728D01*
X143155035Y-47354402D01*
X143164052Y-47359076D01*
X143180274Y-47364432D01*
X143199908Y-47367766D01*
X143220548Y-47368922D01*
X143239784Y-47367739D01*
X143252792Y-47364922D01*
X143276310Y-47354297D01*
X143297532Y-47338982D01*
X143315228Y-47320107D01*
X143328168Y-47298801D01*
X143330297Y-47293790D01*
X143334606Y-47278370D01*
X143337577Y-47258762D01*
X143339131Y-47237004D01*
X143339188Y-47215132D01*
X143337670Y-47195183D01*
X143334723Y-47179961D01*
X143324100Y-47153566D01*
X143308829Y-47131221D01*
X143289412Y-47113331D01*
X143266351Y-47100299D01*
X143240150Y-47092526D01*
X143223116Y-47090554D01*
X143194746Y-47091969D01*
G36*
X140731625Y-46153535D02*
G01*
X140694712Y-46154067D01*
X140659291Y-46155087D01*
X140626928Y-46156584D01*
X140603880Y-46158152D01*
X140498072Y-46169718D01*
X140394703Y-46187096D01*
X140293472Y-46210369D01*
X140194073Y-46239622D01*
X140096205Y-46274938D01*
X139999565Y-46316404D01*
X139951700Y-46339423D01*
X139858304Y-46389476D01*
X139768497Y-46444720D01*
X139682450Y-46504996D01*
X139600331Y-46570146D01*
X139522310Y-46640009D01*
X139448555Y-46714427D01*
X139379237Y-46793242D01*
X139314524Y-46876293D01*
X139254586Y-46963424D01*
X139210332Y-47035706D01*
X139199502Y-47054919D01*
X139187725Y-47076764D01*
X139175439Y-47100339D01*
X139163081Y-47124743D01*
X139151090Y-47149075D01*
X139139901Y-47172433D01*
X139129954Y-47193916D01*
X139121684Y-47212623D01*
X139115530Y-47227653D01*
X139111929Y-47238104D01*
X139111713Y-47238915D01*
X139108684Y-47263016D01*
X139111504Y-47286809D01*
X139119709Y-47309291D01*
X139132836Y-47329455D01*
X139150422Y-47346296D01*
X139165546Y-47355780D01*
X139185519Y-47362917D01*
X139208169Y-47365944D01*
X139231245Y-47364760D01*
X139251515Y-47359644D01*
X139265738Y-47353158D01*
X139278091Y-47344754D01*
X139289258Y-47333606D01*
X139299924Y-47318889D01*
X139310772Y-47299777D01*
X139322487Y-47275445D01*
X139323876Y-47272375D01*
X139362352Y-47193751D01*
X139406757Y-47115518D01*
X139456678Y-47038341D01*
X139511699Y-46962882D01*
X139538054Y-46929612D01*
X139550479Y-46915004D01*
X139566690Y-46896985D01*
X139585828Y-46876425D01*
X139607035Y-46854194D01*
X139629452Y-46831164D01*
X139652222Y-46808205D01*
X139674485Y-46786187D01*
X139695384Y-46765982D01*
X139714061Y-46748460D01*
X139729656Y-46734492D01*
X139734213Y-46730617D01*
X139814204Y-46667853D01*
X139896950Y-46610793D01*
X139982346Y-46559480D01*
X140070287Y-46513957D01*
X140160670Y-46474266D01*
X140253390Y-46440449D01*
X140348342Y-46412549D01*
X140445423Y-46390609D01*
X140544527Y-46374670D01*
X140631150Y-46365806D01*
X140650353Y-46364736D01*
X140674358Y-46364008D01*
X140701965Y-46363605D01*
X140731971Y-46363514D01*
X140763176Y-46363719D01*
X140794377Y-46364205D01*
X140824372Y-46364959D01*
X140851961Y-46365964D01*
X140875942Y-46367206D01*
X140895113Y-46368671D01*
X140899438Y-46369117D01*
X140991538Y-46381598D01*
X141079529Y-46398209D01*
X141164338Y-46419216D01*
X141246892Y-46444882D01*
X141328117Y-46475470D01*
X141408941Y-46511245D01*
X141423313Y-46518155D01*
X141495312Y-46555111D01*
X141562532Y-46593772D01*
X141626484Y-46635139D01*
X141688681Y-46680211D01*
X141750634Y-46729987D01*
X141774133Y-46750088D01*
X141838810Y-46810100D01*
X141900999Y-46875379D01*
X141960118Y-46945133D01*
X142015589Y-47018574D01*
X142066832Y-47094910D01*
X142113268Y-47173353D01*
X142154316Y-47253111D01*
X142172690Y-47293354D01*
X142181896Y-47313583D01*
X142189913Y-47328953D01*
X142197556Y-47340632D01*
X142205637Y-47349788D01*
X142214969Y-47357588D01*
X142219758Y-47360943D01*
X142242865Y-47373249D01*
X142266453Y-47379315D01*
X142290988Y-47379251D01*
X142294850Y-47378708D01*
X142319477Y-47371802D01*
X142340949Y-47359737D01*
X142358662Y-47343171D01*
X142372013Y-47322762D01*
X142380397Y-47299166D01*
X142382853Y-47283001D01*
X142383195Y-47273307D01*
X142382468Y-47263589D01*
X142380394Y-47252991D01*
X142376697Y-47240656D01*
X142371097Y-47225728D01*
X142363318Y-47207349D01*
X142353081Y-47184664D01*
X142346026Y-47169450D01*
X142300693Y-47079452D01*
X142249642Y-46991538D01*
X142192720Y-46905469D01*
X142129777Y-46821005D01*
X142110817Y-46797320D01*
X142094973Y-46778592D01*
X142075356Y-46756628D01*
X142052838Y-46732309D01*
X142028288Y-46706518D01*
X142002576Y-46680136D01*
X141976573Y-46654044D01*
X141951147Y-46629124D01*
X141927170Y-46606257D01*
X141905510Y-46586326D01*
X141887039Y-46570212D01*
X141885164Y-46568648D01*
X141799589Y-46501664D01*
X141711345Y-46440433D01*
X141620509Y-46384985D01*
X141527158Y-46335351D01*
X141431368Y-46291563D01*
X141333215Y-46253651D01*
X141232777Y-46221646D01*
X141130130Y-46195579D01*
X141025351Y-46175480D01*
X140918516Y-46161381D01*
X140862925Y-46156486D01*
X140835681Y-46154967D01*
X140803674Y-46153975D01*
X140768467Y-46153501D01*
X140731625Y-46153535D01*
G37*
X140731625Y-46153535D02*
X140694712Y-46154067D01*
X140659291Y-46155087D01*
X140626928Y-46156584D01*
X140603880Y-46158152D01*
X140498072Y-46169718D01*
X140394703Y-46187096D01*
X140293472Y-46210369D01*
X140194073Y-46239622D01*
X140096205Y-46274938D01*
X139999565Y-46316404D01*
X139951700Y-46339423D01*
X139858304Y-46389476D01*
X139768497Y-46444720D01*
X139682450Y-46504996D01*
X139600331Y-46570146D01*
X139522310Y-46640009D01*
X139448555Y-46714427D01*
X139379237Y-46793242D01*
X139314524Y-46876293D01*
X139254586Y-46963424D01*
X139210332Y-47035706D01*
X139199502Y-47054919D01*
X139187725Y-47076764D01*
X139175439Y-47100339D01*
X139163081Y-47124743D01*
X139151090Y-47149075D01*
X139139901Y-47172433D01*
X139129954Y-47193916D01*
X139121684Y-47212623D01*
X139115530Y-47227653D01*
X139111929Y-47238104D01*
X139111713Y-47238915D01*
X139108684Y-47263016D01*
X139111504Y-47286809D01*
X139119709Y-47309291D01*
X139132836Y-47329455D01*
X139150422Y-47346296D01*
X139165546Y-47355780D01*
X139185519Y-47362917D01*
X139208169Y-47365944D01*
X139231245Y-47364760D01*
X139251515Y-47359644D01*
X139265738Y-47353158D01*
X139278091Y-47344754D01*
X139289258Y-47333606D01*
X139299924Y-47318889D01*
X139310772Y-47299777D01*
X139322487Y-47275445D01*
X139323876Y-47272375D01*
X139362352Y-47193751D01*
X139406757Y-47115518D01*
X139456678Y-47038341D01*
X139511699Y-46962882D01*
X139538054Y-46929612D01*
X139550479Y-46915004D01*
X139566690Y-46896985D01*
X139585828Y-46876425D01*
X139607035Y-46854194D01*
X139629452Y-46831164D01*
X139652222Y-46808205D01*
X139674485Y-46786187D01*
X139695384Y-46765982D01*
X139714061Y-46748460D01*
X139729656Y-46734492D01*
X139734213Y-46730617D01*
X139814204Y-46667853D01*
X139896950Y-46610793D01*
X139982346Y-46559480D01*
X140070287Y-46513957D01*
X140160670Y-46474266D01*
X140253390Y-46440449D01*
X140348342Y-46412549D01*
X140445423Y-46390609D01*
X140544527Y-46374670D01*
X140631150Y-46365806D01*
X140650353Y-46364736D01*
X140674358Y-46364008D01*
X140701965Y-46363605D01*
X140731971Y-46363514D01*
X140763176Y-46363719D01*
X140794377Y-46364205D01*
X140824372Y-46364959D01*
X140851961Y-46365964D01*
X140875942Y-46367206D01*
X140895113Y-46368671D01*
X140899438Y-46369117D01*
X140991538Y-46381598D01*
X141079529Y-46398209D01*
X141164338Y-46419216D01*
X141246892Y-46444882D01*
X141328117Y-46475470D01*
X141408941Y-46511245D01*
X141423313Y-46518155D01*
X141495312Y-46555111D01*
X141562532Y-46593772D01*
X141626484Y-46635139D01*
X141688681Y-46680211D01*
X141750634Y-46729987D01*
X141774133Y-46750088D01*
X141838810Y-46810100D01*
X141900999Y-46875379D01*
X141960118Y-46945133D01*
X142015589Y-47018574D01*
X142066832Y-47094910D01*
X142113268Y-47173353D01*
X142154316Y-47253111D01*
X142172690Y-47293354D01*
X142181896Y-47313583D01*
X142189913Y-47328953D01*
X142197556Y-47340632D01*
X142205637Y-47349788D01*
X142214969Y-47357588D01*
X142219758Y-47360943D01*
X142242865Y-47373249D01*
X142266453Y-47379315D01*
X142290988Y-47379251D01*
X142294850Y-47378708D01*
X142319477Y-47371802D01*
X142340949Y-47359737D01*
X142358662Y-47343171D01*
X142372013Y-47322762D01*
X142380397Y-47299166D01*
X142382853Y-47283001D01*
X142383195Y-47273307D01*
X142382468Y-47263589D01*
X142380394Y-47252991D01*
X142376697Y-47240656D01*
X142371097Y-47225728D01*
X142363318Y-47207349D01*
X142353081Y-47184664D01*
X142346026Y-47169450D01*
X142300693Y-47079452D01*
X142249642Y-46991538D01*
X142192720Y-46905469D01*
X142129777Y-46821005D01*
X142110817Y-46797320D01*
X142094973Y-46778592D01*
X142075356Y-46756628D01*
X142052838Y-46732309D01*
X142028288Y-46706518D01*
X142002576Y-46680136D01*
X141976573Y-46654044D01*
X141951147Y-46629124D01*
X141927170Y-46606257D01*
X141905510Y-46586326D01*
X141887039Y-46570212D01*
X141885164Y-46568648D01*
X141799589Y-46501664D01*
X141711345Y-46440433D01*
X141620509Y-46384985D01*
X141527158Y-46335351D01*
X141431368Y-46291563D01*
X141333215Y-46253651D01*
X141232777Y-46221646D01*
X141130130Y-46195579D01*
X141025351Y-46175480D01*
X140918516Y-46161381D01*
X140862925Y-46156486D01*
X140835681Y-46154967D01*
X140803674Y-46153975D01*
X140768467Y-46153501D01*
X140731625Y-46153535D01*
G36*
X139872342Y-47130200D02*
G01*
X139846290Y-47139567D01*
X139822475Y-47153794D01*
X139801966Y-47172410D01*
X139789664Y-47188548D01*
X139776833Y-47213909D01*
X139769629Y-47240419D01*
X139767776Y-47267289D01*
X139771000Y-47293730D01*
X139779023Y-47318952D01*
X139791571Y-47342167D01*
X139808368Y-47362586D01*
X139829138Y-47379420D01*
X139853606Y-47391879D01*
X139861675Y-47394661D01*
X139883067Y-47399287D01*
X139906097Y-47400940D01*
X139928342Y-47399602D01*
X139946979Y-47395388D01*
X139974248Y-47383015D01*
X139997284Y-47366105D01*
X140006752Y-47356548D01*
X140023902Y-47333187D01*
X140035393Y-47308205D01*
X140041474Y-47282313D01*
X140042392Y-47256221D01*
X140038396Y-47230639D01*
X140029734Y-47206277D01*
X140016654Y-47183846D01*
X139999404Y-47164055D01*
X139978232Y-47147615D01*
X139953386Y-47135236D01*
X139926886Y-47127934D01*
X139899564Y-47126165D01*
X139872342Y-47130200D01*
G37*
X139872342Y-47130200D02*
X139846290Y-47139567D01*
X139822475Y-47153794D01*
X139801966Y-47172410D01*
X139789664Y-47188548D01*
X139776833Y-47213909D01*
X139769629Y-47240419D01*
X139767776Y-47267289D01*
X139771000Y-47293730D01*
X139779023Y-47318952D01*
X139791571Y-47342167D01*
X139808368Y-47362586D01*
X139829138Y-47379420D01*
X139853606Y-47391879D01*
X139861675Y-47394661D01*
X139883067Y-47399287D01*
X139906097Y-47400940D01*
X139928342Y-47399602D01*
X139946979Y-47395388D01*
X139974248Y-47383015D01*
X139997284Y-47366105D01*
X140006752Y-47356548D01*
X140023902Y-47333187D01*
X140035393Y-47308205D01*
X140041474Y-47282313D01*
X140042392Y-47256221D01*
X140038396Y-47230639D01*
X140029734Y-47206277D01*
X140016654Y-47183846D01*
X139999404Y-47164055D01*
X139978232Y-47147615D01*
X139953386Y-47135236D01*
X139926886Y-47127934D01*
X139899564Y-47126165D01*
X139872342Y-47130200D01*
G36*
X139508226Y-47173255D02*
G01*
X139482112Y-47179611D01*
X139457529Y-47190997D01*
X139435327Y-47207380D01*
X139418213Y-47226201D01*
X139404787Y-47247235D01*
X139396330Y-47268716D01*
X139392204Y-47292585D01*
X139391551Y-47307437D01*
X139392669Y-47331270D01*
X139396929Y-47351622D01*
X139405034Y-47370876D01*
X139415209Y-47387770D01*
X139432423Y-47408057D01*
X139453964Y-47424685D01*
X139478619Y-47437091D01*
X139505173Y-47444714D01*
X139532412Y-47446994D01*
X139542125Y-47446401D01*
X139569452Y-47440540D01*
X139595162Y-47429089D01*
X139618180Y-47412776D01*
X139637431Y-47392327D01*
X139649067Y-47374112D01*
X139659865Y-47347111D01*
X139664911Y-47319082D01*
X139664309Y-47290970D01*
X139658164Y-47263717D01*
X139646578Y-47238267D01*
X139631920Y-47218063D01*
X139610938Y-47198782D01*
X139587225Y-47184693D01*
X139561634Y-47175764D01*
X139535017Y-47171962D01*
X139508226Y-47173255D01*
G37*
X139508226Y-47173255D02*
X139482112Y-47179611D01*
X139457529Y-47190997D01*
X139435327Y-47207380D01*
X139418213Y-47226201D01*
X139404787Y-47247235D01*
X139396330Y-47268716D01*
X139392204Y-47292585D01*
X139391551Y-47307437D01*
X139392669Y-47331270D01*
X139396929Y-47351622D01*
X139405034Y-47370876D01*
X139415209Y-47387770D01*
X139432423Y-47408057D01*
X139453964Y-47424685D01*
X139478619Y-47437091D01*
X139505173Y-47444714D01*
X139532412Y-47446994D01*
X139542125Y-47446401D01*
X139569452Y-47440540D01*
X139595162Y-47429089D01*
X139618180Y-47412776D01*
X139637431Y-47392327D01*
X139649067Y-47374112D01*
X139659865Y-47347111D01*
X139664911Y-47319082D01*
X139664309Y-47290970D01*
X139658164Y-47263717D01*
X139646578Y-47238267D01*
X139631920Y-47218063D01*
X139610938Y-47198782D01*
X139587225Y-47184693D01*
X139561634Y-47175764D01*
X139535017Y-47171962D01*
X139508226Y-47173255D01*
G36*
X140632738Y-47197855D02*
G01*
X140604932Y-47205500D01*
X140579373Y-47218682D01*
X140556941Y-47236736D01*
X140538516Y-47258997D01*
X140528550Y-47276565D01*
X140524138Y-47286278D01*
X140521238Y-47294355D01*
X140519533Y-47302601D01*
X140518710Y-47312817D01*
X140518453Y-47326806D01*
X140518438Y-47334425D01*
X140518547Y-47350578D01*
X140519087Y-47362187D01*
X140520374Y-47371059D01*
X140522724Y-47378997D01*
X140526456Y-47387808D01*
X140528625Y-47392444D01*
X140543308Y-47416419D01*
X140562754Y-47437374D01*
X140585662Y-47454008D01*
X140595356Y-47459091D01*
X140606458Y-47463964D01*
X140616090Y-47467069D01*
X140626476Y-47468870D01*
X140639840Y-47469828D01*
X140648613Y-47470143D01*
X140666387Y-47470287D01*
X140679785Y-47469363D01*
X140690722Y-47467181D01*
X140696279Y-47465413D01*
X140724022Y-47452399D01*
X140747456Y-47434864D01*
X140766265Y-47413189D01*
X140780132Y-47387753D01*
X140788742Y-47358935D01*
X140789714Y-47353386D01*
X140791111Y-47325453D01*
X140786792Y-47298748D01*
X140777359Y-47273868D01*
X140763413Y-47251410D01*
X140745557Y-47231968D01*
X140724393Y-47216141D01*
X140700522Y-47204524D01*
X140674548Y-47197715D01*
X140647071Y-47196309D01*
X140632738Y-47197855D01*
G37*
X140632738Y-47197855D02*
X140604932Y-47205500D01*
X140579373Y-47218682D01*
X140556941Y-47236736D01*
X140538516Y-47258997D01*
X140528550Y-47276565D01*
X140524138Y-47286278D01*
X140521238Y-47294355D01*
X140519533Y-47302601D01*
X140518710Y-47312817D01*
X140518453Y-47326806D01*
X140518438Y-47334425D01*
X140518547Y-47350578D01*
X140519087Y-47362187D01*
X140520374Y-47371059D01*
X140522724Y-47378997D01*
X140526456Y-47387808D01*
X140528625Y-47392444D01*
X140543308Y-47416419D01*
X140562754Y-47437374D01*
X140585662Y-47454008D01*
X140595356Y-47459091D01*
X140606458Y-47463964D01*
X140616090Y-47467069D01*
X140626476Y-47468870D01*
X140639840Y-47469828D01*
X140648613Y-47470143D01*
X140666387Y-47470287D01*
X140679785Y-47469363D01*
X140690722Y-47467181D01*
X140696279Y-47465413D01*
X140724022Y-47452399D01*
X140747456Y-47434864D01*
X140766265Y-47413189D01*
X140780132Y-47387753D01*
X140788742Y-47358935D01*
X140789714Y-47353386D01*
X140791111Y-47325453D01*
X140786792Y-47298748D01*
X140777359Y-47273868D01*
X140763413Y-47251410D01*
X140745557Y-47231968D01*
X140724393Y-47216141D01*
X140700522Y-47204524D01*
X140674548Y-47197715D01*
X140647071Y-47196309D01*
X140632738Y-47197855D01*
G36*
X141426996Y-47204417D02*
G01*
X141398425Y-47211363D01*
X141397084Y-47211837D01*
X141376176Y-47222165D01*
X141356063Y-47237223D01*
X141338408Y-47255465D01*
X141324873Y-47275346D01*
X141321565Y-47282068D01*
X141312242Y-47310370D01*
X141308884Y-47338746D01*
X141311231Y-47366464D01*
X141319025Y-47392792D01*
X141332006Y-47416999D01*
X141349913Y-47438353D01*
X141372487Y-47456122D01*
X141386010Y-47463715D01*
X141397669Y-47469251D01*
X141407004Y-47472792D01*
X141416212Y-47474836D01*
X141427491Y-47475879D01*
X141442074Y-47476395D01*
X141464841Y-47476181D01*
X141481998Y-47474216D01*
X141488939Y-47472466D01*
X141505806Y-47465101D01*
X141523806Y-47454012D01*
X141540653Y-47440828D01*
X141554057Y-47427174D01*
X141555837Y-47424912D01*
X141570364Y-47400899D01*
X141579376Y-47374389D01*
X141582904Y-47349313D01*
X141581878Y-47320177D01*
X141575358Y-47293250D01*
X141563953Y-47268982D01*
X141548272Y-47247823D01*
X141528921Y-47230224D01*
X141506511Y-47216634D01*
X141481647Y-47207503D01*
X141454940Y-47203281D01*
X141426996Y-47204417D01*
G37*
X141426996Y-47204417D02*
X141398425Y-47211363D01*
X141397084Y-47211837D01*
X141376176Y-47222165D01*
X141356063Y-47237223D01*
X141338408Y-47255465D01*
X141324873Y-47275346D01*
X141321565Y-47282068D01*
X141312242Y-47310370D01*
X141308884Y-47338746D01*
X141311231Y-47366464D01*
X141319025Y-47392792D01*
X141332006Y-47416999D01*
X141349913Y-47438353D01*
X141372487Y-47456122D01*
X141386010Y-47463715D01*
X141397669Y-47469251D01*
X141407004Y-47472792D01*
X141416212Y-47474836D01*
X141427491Y-47475879D01*
X141442074Y-47476395D01*
X141464841Y-47476181D01*
X141481998Y-47474216D01*
X141488939Y-47472466D01*
X141505806Y-47465101D01*
X141523806Y-47454012D01*
X141540653Y-47440828D01*
X141554057Y-47427174D01*
X141555837Y-47424912D01*
X141570364Y-47400899D01*
X141579376Y-47374389D01*
X141582904Y-47349313D01*
X141581878Y-47320177D01*
X141575358Y-47293250D01*
X141563953Y-47268982D01*
X141548272Y-47247823D01*
X141528921Y-47230224D01*
X141506511Y-47216634D01*
X141481647Y-47207503D01*
X141454940Y-47203281D01*
X141426996Y-47204417D01*
G36*
X141991137Y-47246456D02*
G01*
X141964417Y-47254770D01*
X141939627Y-47268752D01*
X141919086Y-47286575D01*
X141901002Y-47309731D01*
X141888549Y-47334776D01*
X141881584Y-47360953D01*
X141879965Y-47387506D01*
X141883550Y-47413681D01*
X141892194Y-47438722D01*
X141905757Y-47461874D01*
X141924095Y-47482381D01*
X141947065Y-47499487D01*
X141960655Y-47506723D01*
X141972186Y-47511741D01*
X141982241Y-47514876D01*
X141993210Y-47516635D01*
X142007482Y-47517527D01*
X142012275Y-47517687D01*
X142030205Y-47517752D01*
X142044211Y-47516550D01*
X142056638Y-47513826D01*
X142061180Y-47512423D01*
X142087138Y-47500918D01*
X142108952Y-47485314D01*
X142126580Y-47466340D01*
X142139983Y-47444729D01*
X142149117Y-47421210D01*
X142153944Y-47396514D01*
X142154420Y-47371373D01*
X142150505Y-47346517D01*
X142142159Y-47322677D01*
X142129340Y-47300583D01*
X142112006Y-47280967D01*
X142090117Y-47264560D01*
X142075554Y-47256908D01*
X142047439Y-47247386D01*
X142019055Y-47243948D01*
X141991137Y-47246456D01*
G37*
X141991137Y-47246456D02*
X141964417Y-47254770D01*
X141939627Y-47268752D01*
X141919086Y-47286575D01*
X141901002Y-47309731D01*
X141888549Y-47334776D01*
X141881584Y-47360953D01*
X141879965Y-47387506D01*
X141883550Y-47413681D01*
X141892194Y-47438722D01*
X141905757Y-47461874D01*
X141924095Y-47482381D01*
X141947065Y-47499487D01*
X141960655Y-47506723D01*
X141972186Y-47511741D01*
X141982241Y-47514876D01*
X141993210Y-47516635D01*
X142007482Y-47517527D01*
X142012275Y-47517687D01*
X142030205Y-47517752D01*
X142044211Y-47516550D01*
X142056638Y-47513826D01*
X142061180Y-47512423D01*
X142087138Y-47500918D01*
X142108952Y-47485314D01*
X142126580Y-47466340D01*
X142139983Y-47444729D01*
X142149117Y-47421210D01*
X142153944Y-47396514D01*
X142154420Y-47371373D01*
X142150505Y-47346517D01*
X142142159Y-47322677D01*
X142129340Y-47300583D01*
X142112006Y-47280967D01*
X142090117Y-47264560D01*
X142075554Y-47256908D01*
X142047439Y-47247386D01*
X142019055Y-47243948D01*
X141991137Y-47246456D01*
G36*
X140101917Y-47428038D02*
G01*
X140050453Y-47439410D01*
X140000913Y-47456536D01*
X139970295Y-47470643D01*
X139942462Y-47486345D01*
X139918169Y-47503086D01*
X139898171Y-47520312D01*
X139883223Y-47537465D01*
X139876798Y-47547868D01*
X139868114Y-47571294D01*
X139865231Y-47595210D01*
X139867775Y-47618724D01*
X139875368Y-47640947D01*
X139887635Y-47660988D01*
X139904200Y-47677958D01*
X139924688Y-47690966D01*
X139939669Y-47696795D01*
X139963897Y-47701522D01*
X139987216Y-47700479D01*
X140010289Y-47693530D01*
X140033779Y-47680535D01*
X140040526Y-47675792D01*
X140061272Y-47662791D01*
X140085626Y-47651105D01*
X140110848Y-47642008D01*
X140116800Y-47640332D01*
X140134487Y-47637055D01*
X140156407Y-47635111D01*
X140180585Y-47634500D01*
X140205043Y-47635223D01*
X140227808Y-47637279D01*
X140245388Y-47640310D01*
X140269839Y-47647645D01*
X140296120Y-47658408D01*
X140321697Y-47671413D01*
X140344038Y-47685474D01*
X140347927Y-47688333D01*
X140371084Y-47702699D01*
X140395106Y-47711651D01*
X140419106Y-47714963D01*
X140442202Y-47712408D01*
X140442238Y-47712399D01*
X140465578Y-47703499D01*
X140486500Y-47689505D01*
X140503718Y-47671428D01*
X140512914Y-47656814D01*
X140517995Y-47644718D01*
X140520999Y-47631374D01*
X140522463Y-47615412D01*
X140521963Y-47592937D01*
X140517578Y-47573021D01*
X140508823Y-47554851D01*
X140495211Y-47537615D01*
X140476255Y-47520500D01*
X140457409Y-47506685D01*
X140411446Y-47478968D01*
X140362849Y-47456632D01*
X140312235Y-47439745D01*
X140260218Y-47428374D01*
X140207416Y-47422588D01*
X140154443Y-47422453D01*
X140101917Y-47428038D01*
G37*
X140101917Y-47428038D02*
X140050453Y-47439410D01*
X140000913Y-47456536D01*
X139970295Y-47470643D01*
X139942462Y-47486345D01*
X139918169Y-47503086D01*
X139898171Y-47520312D01*
X139883223Y-47537465D01*
X139876798Y-47547868D01*
X139868114Y-47571294D01*
X139865231Y-47595210D01*
X139867775Y-47618724D01*
X139875368Y-47640947D01*
X139887635Y-47660988D01*
X139904200Y-47677958D01*
X139924688Y-47690966D01*
X139939669Y-47696795D01*
X139963897Y-47701522D01*
X139987216Y-47700479D01*
X140010289Y-47693530D01*
X140033779Y-47680535D01*
X140040526Y-47675792D01*
X140061272Y-47662791D01*
X140085626Y-47651105D01*
X140110848Y-47642008D01*
X140116800Y-47640332D01*
X140134487Y-47637055D01*
X140156407Y-47635111D01*
X140180585Y-47634500D01*
X140205043Y-47635223D01*
X140227808Y-47637279D01*
X140245388Y-47640310D01*
X140269839Y-47647645D01*
X140296120Y-47658408D01*
X140321697Y-47671413D01*
X140344038Y-47685474D01*
X140347927Y-47688333D01*
X140371084Y-47702699D01*
X140395106Y-47711651D01*
X140419106Y-47714963D01*
X140442202Y-47712408D01*
X140442238Y-47712399D01*
X140465578Y-47703499D01*
X140486500Y-47689505D01*
X140503718Y-47671428D01*
X140512914Y-47656814D01*
X140517995Y-47644718D01*
X140520999Y-47631374D01*
X140522463Y-47615412D01*
X140521963Y-47592937D01*
X140517578Y-47573021D01*
X140508823Y-47554851D01*
X140495211Y-47537615D01*
X140476255Y-47520500D01*
X140457409Y-47506685D01*
X140411446Y-47478968D01*
X140362849Y-47456632D01*
X140312235Y-47439745D01*
X140260218Y-47428374D01*
X140207416Y-47422588D01*
X140154443Y-47422453D01*
X140101917Y-47428038D01*
G36*
X141083353Y-47424201D02*
G01*
X141029525Y-47432300D01*
X140973320Y-47446204D01*
X140914673Y-47465921D01*
X140891500Y-47475034D01*
X140874305Y-47482260D01*
X140861601Y-47488236D01*
X140851901Y-47493839D01*
X140843715Y-47499947D01*
X140835553Y-47507441D01*
X140834065Y-47508911D01*
X140819854Y-47525495D01*
X140810932Y-47542405D01*
X140806681Y-47561313D01*
X140806473Y-47583731D01*
X140810977Y-47607999D01*
X140820906Y-47629312D01*
X140835804Y-47647116D01*
X140855216Y-47660855D01*
X140876686Y-47669431D01*
X140891345Y-47672527D01*
X140905511Y-47673033D01*
X140920637Y-47670728D01*
X140938174Y-47665390D01*
X140959572Y-47656798D01*
X140959587Y-47656791D01*
X140996938Y-47641746D01*
X141030845Y-47630580D01*
X141062646Y-47622997D01*
X141093681Y-47618702D01*
X141125290Y-47617399D01*
X141137115Y-47617607D01*
X141155664Y-47618370D01*
X141169351Y-47619444D01*
X141179663Y-47621047D01*
X141188087Y-47623398D01*
X141194673Y-47626057D01*
X141213618Y-47637290D01*
X141227175Y-47651124D01*
X141235172Y-47666902D01*
X141237437Y-47683971D01*
X141233801Y-47701675D01*
X141224091Y-47719358D01*
X141220306Y-47724163D01*
X141209881Y-47734123D01*
X141194893Y-47745234D01*
X141176790Y-47756600D01*
X141157018Y-47767324D01*
X141137026Y-47776508D01*
X141133577Y-47777904D01*
X141114814Y-47786256D01*
X141099120Y-47795069D01*
X141089822Y-47801915D01*
X141074423Y-47819512D01*
X141063885Y-47840231D01*
X141058457Y-47862836D01*
X141058383Y-47886086D01*
X141063912Y-47908744D01*
X141067088Y-47916044D01*
X141080259Y-47936125D01*
X141097588Y-47952040D01*
X141118072Y-47963261D01*
X141140708Y-47969260D01*
X141164495Y-47969508D01*
X141167725Y-47969074D01*
X141184514Y-47965083D01*
X141205033Y-47957935D01*
X141227928Y-47948279D01*
X141251844Y-47936760D01*
X141275425Y-47924024D01*
X141297317Y-47910719D01*
X141313379Y-47899597D01*
X141347600Y-47870788D01*
X141376027Y-47839703D01*
X141398597Y-47806467D01*
X141415246Y-47771207D01*
X141425910Y-47734048D01*
X141430524Y-47695117D01*
X141430289Y-47669603D01*
X141425012Y-47629770D01*
X141414033Y-47592340D01*
X141397664Y-47557684D01*
X141376218Y-47526170D01*
X141350008Y-47498168D01*
X141319348Y-47474046D01*
X141284550Y-47454175D01*
X141245927Y-47438924D01*
X141231225Y-47434656D01*
X141184138Y-47425387D01*
X141134869Y-47421899D01*
X141083353Y-47424201D01*
G37*
X141083353Y-47424201D02*
X141029525Y-47432300D01*
X140973320Y-47446204D01*
X140914673Y-47465921D01*
X140891500Y-47475034D01*
X140874305Y-47482260D01*
X140861601Y-47488236D01*
X140851901Y-47493839D01*
X140843715Y-47499947D01*
X140835553Y-47507441D01*
X140834065Y-47508911D01*
X140819854Y-47525495D01*
X140810932Y-47542405D01*
X140806681Y-47561313D01*
X140806473Y-47583731D01*
X140810977Y-47607999D01*
X140820906Y-47629312D01*
X140835804Y-47647116D01*
X140855216Y-47660855D01*
X140876686Y-47669431D01*
X140891345Y-47672527D01*
X140905511Y-47673033D01*
X140920637Y-47670728D01*
X140938174Y-47665390D01*
X140959572Y-47656798D01*
X140959587Y-47656791D01*
X140996938Y-47641746D01*
X141030845Y-47630580D01*
X141062646Y-47622997D01*
X141093681Y-47618702D01*
X141125290Y-47617399D01*
X141137115Y-47617607D01*
X141155664Y-47618370D01*
X141169351Y-47619444D01*
X141179663Y-47621047D01*
X141188087Y-47623398D01*
X141194673Y-47626057D01*
X141213618Y-47637290D01*
X141227175Y-47651124D01*
X141235172Y-47666902D01*
X141237437Y-47683971D01*
X141233801Y-47701675D01*
X141224091Y-47719358D01*
X141220306Y-47724163D01*
X141209881Y-47734123D01*
X141194893Y-47745234D01*
X141176790Y-47756600D01*
X141157018Y-47767324D01*
X141137026Y-47776508D01*
X141133577Y-47777904D01*
X141114814Y-47786256D01*
X141099120Y-47795069D01*
X141089822Y-47801915D01*
X141074423Y-47819512D01*
X141063885Y-47840231D01*
X141058457Y-47862836D01*
X141058383Y-47886086D01*
X141063912Y-47908744D01*
X141067088Y-47916044D01*
X141080259Y-47936125D01*
X141097588Y-47952040D01*
X141118072Y-47963261D01*
X141140708Y-47969260D01*
X141164495Y-47969508D01*
X141167725Y-47969074D01*
X141184514Y-47965083D01*
X141205033Y-47957935D01*
X141227928Y-47948279D01*
X141251844Y-47936760D01*
X141275425Y-47924024D01*
X141297317Y-47910719D01*
X141313379Y-47899597D01*
X141347600Y-47870788D01*
X141376027Y-47839703D01*
X141398597Y-47806467D01*
X141415246Y-47771207D01*
X141425910Y-47734048D01*
X141430524Y-47695117D01*
X141430289Y-47669603D01*
X141425012Y-47629770D01*
X141414033Y-47592340D01*
X141397664Y-47557684D01*
X141376218Y-47526170D01*
X141350008Y-47498168D01*
X141319348Y-47474046D01*
X141284550Y-47454175D01*
X141245927Y-47438924D01*
X141231225Y-47434656D01*
X141184138Y-47425387D01*
X141134869Y-47421899D01*
X141083353Y-47424201D01*
G36*
X140223194Y-47726896D02*
G01*
X140205241Y-47731220D01*
X140179028Y-47742403D01*
X140156653Y-47757997D01*
X140138324Y-47777232D01*
X140124246Y-47799339D01*
X140114624Y-47823548D01*
X140109665Y-47849091D01*
X140109574Y-47875197D01*
X140114557Y-47901099D01*
X140124819Y-47926025D01*
X140140567Y-47949208D01*
X140145463Y-47954725D01*
X140165127Y-47972917D01*
X140185695Y-47985860D01*
X140208924Y-47994597D01*
X140215501Y-47996281D01*
X140237005Y-48000066D01*
X140256252Y-48000296D01*
X140276232Y-47996995D01*
X140277270Y-47996746D01*
X140305417Y-47986777D01*
X140330201Y-47971548D01*
X140351131Y-47951453D01*
X140367711Y-47926887D01*
X140369847Y-47922731D01*
X140375723Y-47910167D01*
X140379395Y-47899858D01*
X140381488Y-47889263D01*
X140382625Y-47875840D01*
X140382941Y-47869366D01*
X140383298Y-47852985D01*
X140382511Y-47840371D01*
X140380299Y-47829000D01*
X140377353Y-47819221D01*
X140365425Y-47792834D01*
X140348870Y-47770202D01*
X140328445Y-47751710D01*
X140304908Y-47737746D01*
X140279015Y-47728698D01*
X140251525Y-47724952D01*
X140223194Y-47726896D01*
G37*
X140223194Y-47726896D02*
X140205241Y-47731220D01*
X140179028Y-47742403D01*
X140156653Y-47757997D01*
X140138324Y-47777232D01*
X140124246Y-47799339D01*
X140114624Y-47823548D01*
X140109665Y-47849091D01*
X140109574Y-47875197D01*
X140114557Y-47901099D01*
X140124819Y-47926025D01*
X140140567Y-47949208D01*
X140145463Y-47954725D01*
X140165127Y-47972917D01*
X140185695Y-47985860D01*
X140208924Y-47994597D01*
X140215501Y-47996281D01*
X140237005Y-48000066D01*
X140256252Y-48000296D01*
X140276232Y-47996995D01*
X140277270Y-47996746D01*
X140305417Y-47986777D01*
X140330201Y-47971548D01*
X140351131Y-47951453D01*
X140367711Y-47926887D01*
X140369847Y-47922731D01*
X140375723Y-47910167D01*
X140379395Y-47899858D01*
X140381488Y-47889263D01*
X140382625Y-47875840D01*
X140382941Y-47869366D01*
X140383298Y-47852985D01*
X140382511Y-47840371D01*
X140380299Y-47829000D01*
X140377353Y-47819221D01*
X140365425Y-47792834D01*
X140348870Y-47770202D01*
X140328445Y-47751710D01*
X140304908Y-47737746D01*
X140279015Y-47728698D01*
X140251525Y-47724952D01*
X140223194Y-47726896D01*
G36*
X139903865Y-47765470D02*
G01*
X139879857Y-47773321D01*
X139857602Y-47785304D01*
X139837776Y-47801124D01*
X139821056Y-47820483D01*
X139808120Y-47843084D01*
X139799644Y-47868632D01*
X139796306Y-47896827D01*
X139796281Y-47899575D01*
X139799298Y-47928973D01*
X139808126Y-47956281D01*
X139822429Y-47980868D01*
X139841871Y-48002102D01*
X139856981Y-48013724D01*
X139882356Y-48027158D01*
X139909583Y-48035179D01*
X139937382Y-48037489D01*
X139953288Y-48036090D01*
X139981641Y-48028631D01*
X140007230Y-48015805D01*
X140029436Y-47998223D01*
X140047645Y-47976493D01*
X140061239Y-47951225D01*
X140069603Y-47923028D01*
X140070025Y-47920682D01*
X140071712Y-47892589D01*
X140067311Y-47865049D01*
X140057079Y-47838786D01*
X140041276Y-47814528D01*
X140026489Y-47798612D01*
X140003876Y-47781342D01*
X139979630Y-47769689D01*
X139954429Y-47763358D01*
X139928948Y-47762051D01*
X139903865Y-47765470D01*
G37*
X139903865Y-47765470D02*
X139879857Y-47773321D01*
X139857602Y-47785304D01*
X139837776Y-47801124D01*
X139821056Y-47820483D01*
X139808120Y-47843084D01*
X139799644Y-47868632D01*
X139796306Y-47896827D01*
X139796281Y-47899575D01*
X139799298Y-47928973D01*
X139808126Y-47956281D01*
X139822429Y-47980868D01*
X139841871Y-48002102D01*
X139856981Y-48013724D01*
X139882356Y-48027158D01*
X139909583Y-48035179D01*
X139937382Y-48037489D01*
X139953288Y-48036090D01*
X139981641Y-48028631D01*
X140007230Y-48015805D01*
X140029436Y-47998223D01*
X140047645Y-47976493D01*
X140061239Y-47951225D01*
X140069603Y-47923028D01*
X140070025Y-47920682D01*
X140071712Y-47892589D01*
X140067311Y-47865049D01*
X140057079Y-47838786D01*
X140041276Y-47814528D01*
X140026489Y-47798612D01*
X140003876Y-47781342D01*
X139979630Y-47769689D01*
X139954429Y-47763358D01*
X139928948Y-47762051D01*
X139903865Y-47765470D01*
G36*
X139271869Y-47794258D02*
G01*
X139247693Y-47801459D01*
X139225197Y-47812872D01*
X139205048Y-47828212D01*
X139187914Y-47847197D01*
X139174464Y-47869545D01*
X139165364Y-47894973D01*
X139161284Y-47923196D01*
X139161125Y-47930172D01*
X139164044Y-47958507D01*
X139172360Y-47984675D01*
X139185419Y-48008164D01*
X139202563Y-48028464D01*
X139223136Y-48045064D01*
X139246480Y-48057451D01*
X139271941Y-48065117D01*
X139298860Y-48067548D01*
X139326582Y-48064235D01*
X139331736Y-48062955D01*
X139359828Y-48052275D01*
X139384286Y-48036609D01*
X139404632Y-48016478D01*
X139420389Y-47992405D01*
X139431081Y-47964912D01*
X139434276Y-47950644D01*
X139435778Y-47924356D01*
X139431707Y-47897516D01*
X139422530Y-47871528D01*
X139408714Y-47847798D01*
X139394562Y-47831312D01*
X139372008Y-47813217D01*
X139347793Y-47800746D01*
X139322587Y-47793618D01*
X139297056Y-47791550D01*
X139271869Y-47794258D01*
G37*
X139271869Y-47794258D02*
X139247693Y-47801459D01*
X139225197Y-47812872D01*
X139205048Y-47828212D01*
X139187914Y-47847197D01*
X139174464Y-47869545D01*
X139165364Y-47894973D01*
X139161284Y-47923196D01*
X139161125Y-47930172D01*
X139164044Y-47958507D01*
X139172360Y-47984675D01*
X139185419Y-48008164D01*
X139202563Y-48028464D01*
X139223136Y-48045064D01*
X139246480Y-48057451D01*
X139271941Y-48065117D01*
X139298860Y-48067548D01*
X139326582Y-48064235D01*
X139331736Y-48062955D01*
X139359828Y-48052275D01*
X139384286Y-48036609D01*
X139404632Y-48016478D01*
X139420389Y-47992405D01*
X139431081Y-47964912D01*
X139434276Y-47950644D01*
X139435778Y-47924356D01*
X139431707Y-47897516D01*
X139422530Y-47871528D01*
X139408714Y-47847798D01*
X139394562Y-47831312D01*
X139372008Y-47813217D01*
X139347793Y-47800746D01*
X139322587Y-47793618D01*
X139297056Y-47791550D01*
X139271869Y-47794258D01*
G36*
X142746133Y-47438146D02*
G01*
X142722881Y-47444262D01*
X142718713Y-47445772D01*
X142699404Y-47455995D01*
X142681572Y-47470956D01*
X142666806Y-47489045D01*
X142656691Y-47508652D01*
X142656656Y-47508748D01*
X142649711Y-47527794D01*
X142627062Y-47512552D01*
X142581488Y-47484913D01*
X142535374Y-47463116D01*
X142487668Y-47446673D01*
X142481627Y-47444993D01*
X142469843Y-47442073D01*
X142458675Y-47440062D01*
X142446502Y-47438810D01*
X142431704Y-47438166D01*
X142412661Y-47437981D01*
X142405975Y-47437992D01*
X142385543Y-47438200D01*
X142369727Y-47438789D01*
X142356799Y-47439938D01*
X142345030Y-47441829D01*
X142332689Y-47444642D01*
X142326223Y-47446328D01*
X142282457Y-47461192D01*
X142241947Y-47481313D01*
X142205048Y-47506315D01*
X142172114Y-47535824D01*
X142143499Y-47569466D01*
X142119559Y-47606866D01*
X142100647Y-47647650D01*
X142087118Y-47691443D01*
X142084963Y-47701137D01*
X142083890Y-47706644D01*
X142082954Y-47712432D01*
X142082145Y-47718953D01*
X142081455Y-47726659D01*
X142080874Y-47736003D01*
X142080392Y-47747435D01*
X142080001Y-47761409D01*
X142079690Y-47778376D01*
X142079450Y-47798788D01*
X142079273Y-47823097D01*
X142079148Y-47851755D01*
X142079067Y-47885214D01*
X142079020Y-47923927D01*
X142078997Y-47968344D01*
X142078992Y-47989149D01*
X142078987Y-48035779D01*
X142078996Y-48076494D01*
X142079028Y-48111728D01*
X142079095Y-48141917D01*
X142079206Y-48167494D01*
X142079373Y-48188895D01*
X142079605Y-48206554D01*
X142079914Y-48220907D01*
X142080309Y-48232387D01*
X142080802Y-48241430D01*
X142081402Y-48248470D01*
X142082120Y-48253942D01*
X142082968Y-48258280D01*
X142083954Y-48261920D01*
X142085090Y-48265296D01*
X142085695Y-48266962D01*
X142096256Y-48287106D01*
X142111688Y-48304928D01*
X142130589Y-48319106D01*
X142150359Y-48327960D01*
X142168868Y-48332718D01*
X142184712Y-48334175D01*
X142200649Y-48332339D01*
X142216422Y-48328167D01*
X142238543Y-48318115D01*
X142257858Y-48302904D01*
X142273257Y-48283491D01*
X142278022Y-48274868D01*
X142286913Y-48256762D01*
X142288500Y-47997928D01*
X142290088Y-47739093D01*
X142300556Y-47717836D01*
X142315570Y-47693855D01*
X142334640Y-47674183D01*
X142357055Y-47659550D01*
X142357590Y-47659285D01*
X142367617Y-47654833D01*
X142377120Y-47651990D01*
X142388243Y-47650319D01*
X142403129Y-47649384D01*
X142406853Y-47649243D01*
X142433948Y-47649577D01*
X142458949Y-47652902D01*
X142483793Y-47659666D01*
X142510413Y-47670311D01*
X142521863Y-47675693D01*
X142557839Y-47696110D01*
X142588332Y-47719705D01*
X142613374Y-47746508D01*
X142632997Y-47776550D01*
X142637396Y-47785275D01*
X142645688Y-47802737D01*
X142647346Y-48028162D01*
X142647667Y-48072684D01*
X142647957Y-48111326D01*
X142648258Y-48144560D01*
X142648612Y-48172854D01*
X142649059Y-48196680D01*
X142649642Y-48216508D01*
X142650401Y-48232808D01*
X142651378Y-48246050D01*
X142652615Y-48256704D01*
X142654152Y-48265241D01*
X142656032Y-48272131D01*
X142658295Y-48277845D01*
X142660984Y-48282852D01*
X142664139Y-48287622D01*
X142667803Y-48292627D01*
X142671029Y-48296981D01*
X142687799Y-48314824D01*
X142708410Y-48328676D01*
X142731551Y-48338059D01*
X142755913Y-48342497D01*
X142780185Y-48341514D01*
X142788563Y-48339762D01*
X142814386Y-48330008D01*
X142836592Y-48315166D01*
X142854729Y-48295601D01*
X142865701Y-48277421D01*
X142874288Y-48259937D01*
X142875121Y-47894242D01*
X142875246Y-47838306D01*
X142875350Y-47788362D01*
X142875427Y-47744052D01*
X142875472Y-47705018D01*
X142875480Y-47670904D01*
X142875446Y-47641350D01*
X142875364Y-47616000D01*
X142875229Y-47594495D01*
X142875037Y-47576477D01*
X142874781Y-47561590D01*
X142874457Y-47549474D01*
X142874060Y-47539772D01*
X142873584Y-47532127D01*
X142873025Y-47526180D01*
X142872376Y-47521574D01*
X142871633Y-47517951D01*
X142870791Y-47514953D01*
X142869844Y-47512223D01*
X142869577Y-47511503D01*
X142857352Y-47487458D01*
X142840431Y-47467499D01*
X142819332Y-47452089D01*
X142794574Y-47441695D01*
X142790219Y-47440505D01*
X142767913Y-47436943D01*
X142746133Y-47438146D01*
G37*
X142746133Y-47438146D02*
X142722881Y-47444262D01*
X142718713Y-47445772D01*
X142699404Y-47455995D01*
X142681572Y-47470956D01*
X142666806Y-47489045D01*
X142656691Y-47508652D01*
X142656656Y-47508748D01*
X142649711Y-47527794D01*
X142627062Y-47512552D01*
X142581488Y-47484913D01*
X142535374Y-47463116D01*
X142487668Y-47446673D01*
X142481627Y-47444993D01*
X142469843Y-47442073D01*
X142458675Y-47440062D01*
X142446502Y-47438810D01*
X142431704Y-47438166D01*
X142412661Y-47437981D01*
X142405975Y-47437992D01*
X142385543Y-47438200D01*
X142369727Y-47438789D01*
X142356799Y-47439938D01*
X142345030Y-47441829D01*
X142332689Y-47444642D01*
X142326223Y-47446328D01*
X142282457Y-47461192D01*
X142241947Y-47481313D01*
X142205048Y-47506315D01*
X142172114Y-47535824D01*
X142143499Y-47569466D01*
X142119559Y-47606866D01*
X142100647Y-47647650D01*
X142087118Y-47691443D01*
X142084963Y-47701137D01*
X142083890Y-47706644D01*
X142082954Y-47712432D01*
X142082145Y-47718953D01*
X142081455Y-47726659D01*
X142080874Y-47736003D01*
X142080392Y-47747435D01*
X142080001Y-47761409D01*
X142079690Y-47778376D01*
X142079450Y-47798788D01*
X142079273Y-47823097D01*
X142079148Y-47851755D01*
X142079067Y-47885214D01*
X142079020Y-47923927D01*
X142078997Y-47968344D01*
X142078992Y-47989149D01*
X142078987Y-48035779D01*
X142078996Y-48076494D01*
X142079028Y-48111728D01*
X142079095Y-48141917D01*
X142079206Y-48167494D01*
X142079373Y-48188895D01*
X142079605Y-48206554D01*
X142079914Y-48220907D01*
X142080309Y-48232387D01*
X142080802Y-48241430D01*
X142081402Y-48248470D01*
X142082120Y-48253942D01*
X142082968Y-48258280D01*
X142083954Y-48261920D01*
X142085090Y-48265296D01*
X142085695Y-48266962D01*
X142096256Y-48287106D01*
X142111688Y-48304928D01*
X142130589Y-48319106D01*
X142150359Y-48327960D01*
X142168868Y-48332718D01*
X142184712Y-48334175D01*
X142200649Y-48332339D01*
X142216422Y-48328167D01*
X142238543Y-48318115D01*
X142257858Y-48302904D01*
X142273257Y-48283491D01*
X142278022Y-48274868D01*
X142286913Y-48256762D01*
X142288500Y-47997928D01*
X142290088Y-47739093D01*
X142300556Y-47717836D01*
X142315570Y-47693855D01*
X142334640Y-47674183D01*
X142357055Y-47659550D01*
X142357590Y-47659285D01*
X142367617Y-47654833D01*
X142377120Y-47651990D01*
X142388243Y-47650319D01*
X142403129Y-47649384D01*
X142406853Y-47649243D01*
X142433948Y-47649577D01*
X142458949Y-47652902D01*
X142483793Y-47659666D01*
X142510413Y-47670311D01*
X142521863Y-47675693D01*
X142557839Y-47696110D01*
X142588332Y-47719705D01*
X142613374Y-47746508D01*
X142632997Y-47776550D01*
X142637396Y-47785275D01*
X142645688Y-47802737D01*
X142647346Y-48028162D01*
X142647667Y-48072684D01*
X142647957Y-48111326D01*
X142648258Y-48144560D01*
X142648612Y-48172854D01*
X142649059Y-48196680D01*
X142649642Y-48216508D01*
X142650401Y-48232808D01*
X142651378Y-48246050D01*
X142652615Y-48256704D01*
X142654152Y-48265241D01*
X142656032Y-48272131D01*
X142658295Y-48277845D01*
X142660984Y-48282852D01*
X142664139Y-48287622D01*
X142667803Y-48292627D01*
X142671029Y-48296981D01*
X142687799Y-48314824D01*
X142708410Y-48328676D01*
X142731551Y-48338059D01*
X142755913Y-48342497D01*
X142780185Y-48341514D01*
X142788563Y-48339762D01*
X142814386Y-48330008D01*
X142836592Y-48315166D01*
X142854729Y-48295601D01*
X142865701Y-48277421D01*
X142874288Y-48259937D01*
X142875121Y-47894242D01*
X142875246Y-47838306D01*
X142875350Y-47788362D01*
X142875427Y-47744052D01*
X142875472Y-47705018D01*
X142875480Y-47670904D01*
X142875446Y-47641350D01*
X142875364Y-47616000D01*
X142875229Y-47594495D01*
X142875037Y-47576477D01*
X142874781Y-47561590D01*
X142874457Y-47549474D01*
X142874060Y-47539772D01*
X142873584Y-47532127D01*
X142873025Y-47526180D01*
X142872376Y-47521574D01*
X142871633Y-47517951D01*
X142870791Y-47514953D01*
X142869844Y-47512223D01*
X142869577Y-47511503D01*
X142857352Y-47487458D01*
X142840431Y-47467499D01*
X142819332Y-47452089D01*
X142794574Y-47441695D01*
X142790219Y-47440505D01*
X142767913Y-47436943D01*
X142746133Y-47438146D01*
G36*
X141719241Y-47431882D02*
G01*
X141695045Y-47440339D01*
X141692171Y-47441703D01*
X141675640Y-47452364D01*
X141659436Y-47467302D01*
X141645314Y-47484607D01*
X141635035Y-47502368D01*
X141633926Y-47504971D01*
X141626513Y-47523337D01*
X141626513Y-48256762D01*
X141633881Y-48275008D01*
X141645420Y-48295990D01*
X141661834Y-48315256D01*
X141681650Y-48331257D01*
X141694147Y-48338442D01*
X141705579Y-48343690D01*
X141715347Y-48346905D01*
X141725920Y-48348640D01*
X141739768Y-48349446D01*
X141743904Y-48349564D01*
X141761924Y-48349360D01*
X141777130Y-48347906D01*
X141785942Y-48345964D01*
X141811079Y-48334628D01*
X141832641Y-48318335D01*
X141850064Y-48297721D01*
X141862783Y-48273421D01*
X141869006Y-48252637D01*
X141869589Y-48246682D01*
X141870124Y-48234888D01*
X141870609Y-48217766D01*
X141871046Y-48195827D01*
X141871434Y-48169582D01*
X141871773Y-48139542D01*
X141872063Y-48106217D01*
X141872304Y-48070119D01*
X141872496Y-48031758D01*
X141872639Y-47991645D01*
X141872733Y-47950291D01*
X141872778Y-47908207D01*
X141872775Y-47865904D01*
X141872722Y-47823893D01*
X141872621Y-47782684D01*
X141872470Y-47742788D01*
X141872271Y-47704717D01*
X141872023Y-47668980D01*
X141871726Y-47636090D01*
X141871380Y-47606556D01*
X141870985Y-47580891D01*
X141870541Y-47559603D01*
X141870048Y-47543205D01*
X141869507Y-47532208D01*
X141869002Y-47527462D01*
X141860240Y-47500629D01*
X141846348Y-47477193D01*
X141827845Y-47457655D01*
X141805251Y-47442512D01*
X141779087Y-47432266D01*
X141767065Y-47429525D01*
X141743887Y-47428174D01*
X141719241Y-47431882D01*
G37*
X141719241Y-47431882D02*
X141695045Y-47440339D01*
X141692171Y-47441703D01*
X141675640Y-47452364D01*
X141659436Y-47467302D01*
X141645314Y-47484607D01*
X141635035Y-47502368D01*
X141633926Y-47504971D01*
X141626513Y-47523337D01*
X141626513Y-48256762D01*
X141633881Y-48275008D01*
X141645420Y-48295990D01*
X141661834Y-48315256D01*
X141681650Y-48331257D01*
X141694147Y-48338442D01*
X141705579Y-48343690D01*
X141715347Y-48346905D01*
X141725920Y-48348640D01*
X141739768Y-48349446D01*
X141743904Y-48349564D01*
X141761924Y-48349360D01*
X141777130Y-48347906D01*
X141785942Y-48345964D01*
X141811079Y-48334628D01*
X141832641Y-48318335D01*
X141850064Y-48297721D01*
X141862783Y-48273421D01*
X141869006Y-48252637D01*
X141869589Y-48246682D01*
X141870124Y-48234888D01*
X141870609Y-48217766D01*
X141871046Y-48195827D01*
X141871434Y-48169582D01*
X141871773Y-48139542D01*
X141872063Y-48106217D01*
X141872304Y-48070119D01*
X141872496Y-48031758D01*
X141872639Y-47991645D01*
X141872733Y-47950291D01*
X141872778Y-47908207D01*
X141872775Y-47865904D01*
X141872722Y-47823893D01*
X141872621Y-47782684D01*
X141872470Y-47742788D01*
X141872271Y-47704717D01*
X141872023Y-47668980D01*
X141871726Y-47636090D01*
X141871380Y-47606556D01*
X141870985Y-47580891D01*
X141870541Y-47559603D01*
X141870048Y-47543205D01*
X141869507Y-47532208D01*
X141869002Y-47527462D01*
X141860240Y-47500629D01*
X141846348Y-47477193D01*
X141827845Y-47457655D01*
X141805251Y-47442512D01*
X141779087Y-47432266D01*
X141767065Y-47429525D01*
X141743887Y-47428174D01*
X141719241Y-47431882D01*
G36*
X143191040Y-47430999D02*
G01*
X143163780Y-47440122D01*
X143162993Y-47440479D01*
X143141196Y-47453822D01*
X143122445Y-47472024D01*
X143107596Y-47493987D01*
X143097505Y-47518609D01*
X143095296Y-47527462D01*
X143094669Y-47533024D01*
X143094107Y-47543491D01*
X143093610Y-47559006D01*
X143093175Y-47579711D01*
X143092802Y-47605749D01*
X143092489Y-47637263D01*
X143092234Y-47674393D01*
X143092037Y-47717284D01*
X143091896Y-47766077D01*
X143091809Y-47820915D01*
X143091776Y-47881940D01*
X143091775Y-47891126D01*
X143091773Y-47947029D01*
X143091778Y-47996952D01*
X143091807Y-48041266D01*
X143091876Y-48080341D01*
X143092003Y-48114548D01*
X143092205Y-48144256D01*
X143092498Y-48169837D01*
X143092900Y-48191661D01*
X143093426Y-48210097D01*
X143094095Y-48225518D01*
X143094924Y-48238291D01*
X143095928Y-48248790D01*
X143097125Y-48257382D01*
X143098532Y-48264440D01*
X143100165Y-48270333D01*
X143102043Y-48275432D01*
X143104181Y-48280107D01*
X143106596Y-48284728D01*
X143109306Y-48289666D01*
X143110029Y-48290990D01*
X143122922Y-48309041D01*
X143140438Y-48325390D01*
X143160855Y-48338481D01*
X143164800Y-48340417D01*
X143181372Y-48345956D01*
X143201163Y-48349234D01*
X143221927Y-48350152D01*
X143241422Y-48348612D01*
X143257404Y-48344515D01*
X143257468Y-48344489D01*
X143283001Y-48331196D01*
X143304491Y-48313775D01*
X143321268Y-48292864D01*
X143330524Y-48274865D01*
X143337838Y-48256762D01*
X143337838Y-47523337D01*
X143330425Y-47504971D01*
X143320879Y-47487307D01*
X143307225Y-47469811D01*
X143291222Y-47454393D01*
X143274628Y-47442963D01*
X143272180Y-47441703D01*
X143245324Y-47431791D01*
X143218249Y-47428223D01*
X143191040Y-47430999D01*
G37*
X143191040Y-47430999D02*
X143163780Y-47440122D01*
X143162993Y-47440479D01*
X143141196Y-47453822D01*
X143122445Y-47472024D01*
X143107596Y-47493987D01*
X143097505Y-47518609D01*
X143095296Y-47527462D01*
X143094669Y-47533024D01*
X143094107Y-47543491D01*
X143093610Y-47559006D01*
X143093175Y-47579711D01*
X143092802Y-47605749D01*
X143092489Y-47637263D01*
X143092234Y-47674393D01*
X143092037Y-47717284D01*
X143091896Y-47766077D01*
X143091809Y-47820915D01*
X143091776Y-47881940D01*
X143091775Y-47891126D01*
X143091773Y-47947029D01*
X143091778Y-47996952D01*
X143091807Y-48041266D01*
X143091876Y-48080341D01*
X143092003Y-48114548D01*
X143092205Y-48144256D01*
X143092498Y-48169837D01*
X143092900Y-48191661D01*
X143093426Y-48210097D01*
X143094095Y-48225518D01*
X143094924Y-48238291D01*
X143095928Y-48248790D01*
X143097125Y-48257382D01*
X143098532Y-48264440D01*
X143100165Y-48270333D01*
X143102043Y-48275432D01*
X143104181Y-48280107D01*
X143106596Y-48284728D01*
X143109306Y-48289666D01*
X143110029Y-48290990D01*
X143122922Y-48309041D01*
X143140438Y-48325390D01*
X143160855Y-48338481D01*
X143164800Y-48340417D01*
X143181372Y-48345956D01*
X143201163Y-48349234D01*
X143221927Y-48350152D01*
X143241422Y-48348612D01*
X143257404Y-48344515D01*
X143257468Y-48344489D01*
X143283001Y-48331196D01*
X143304491Y-48313775D01*
X143321268Y-48292864D01*
X143330524Y-48274865D01*
X143337838Y-48256762D01*
X143337838Y-47523337D01*
X143330425Y-47504971D01*
X143320879Y-47487307D01*
X143307225Y-47469811D01*
X143291222Y-47454393D01*
X143274628Y-47442963D01*
X143272180Y-47441703D01*
X143245324Y-47431791D01*
X143218249Y-47428223D01*
X143191040Y-47430999D01*
G36*
X140524263Y-47784528D02*
G01*
X140513249Y-47786339D01*
X140502444Y-47790158D01*
X140493431Y-47794369D01*
X140471743Y-47808238D01*
X140454654Y-47826379D01*
X140443571Y-47845167D01*
X140440349Y-47853381D01*
X140437901Y-47863341D01*
X140435997Y-47876397D01*
X140434409Y-47893897D01*
X140433790Y-47902750D01*
X140430229Y-47939463D01*
X140424596Y-47971130D01*
X140416660Y-47998782D01*
X140407271Y-48021267D01*
X140389136Y-48051740D01*
X140366524Y-48077862D01*
X140339318Y-48099723D01*
X140307404Y-48117417D01*
X140270664Y-48131034D01*
X140267613Y-48131922D01*
X140256403Y-48134856D01*
X140245774Y-48136889D01*
X140234150Y-48138173D01*
X140219951Y-48138860D01*
X140201598Y-48139103D01*
X140193000Y-48139110D01*
X140164445Y-48138481D01*
X140139578Y-48136401D01*
X140116953Y-48132460D01*
X140095121Y-48126245D01*
X140072634Y-48117344D01*
X140048046Y-48105344D01*
X140019963Y-48089867D01*
X140010579Y-48084728D01*
X140002922Y-48081521D01*
X139994947Y-48079793D01*
X139984610Y-48079092D01*
X139970750Y-48078964D01*
X139949055Y-48080013D01*
X139931647Y-48083624D01*
X139916743Y-48090501D01*
X139902560Y-48101347D01*
X139894736Y-48108934D01*
X139879691Y-48128178D01*
X139870292Y-48149551D01*
X139866212Y-48173885D01*
X139865975Y-48182150D01*
X139868095Y-48205736D01*
X139874732Y-48226632D01*
X139886310Y-48245461D01*
X139903246Y-48262845D01*
X139925963Y-48279409D01*
X139935483Y-48285201D01*
X139981117Y-48308331D01*
X140030299Y-48326724D01*
X140082136Y-48340181D01*
X140135737Y-48348506D01*
X140190210Y-48351501D01*
X140229513Y-48350243D01*
X140284339Y-48343580D01*
X140336493Y-48331447D01*
X140385700Y-48313966D01*
X140431684Y-48291256D01*
X140474168Y-48263439D01*
X140512876Y-48230633D01*
X140520025Y-48223600D01*
X140553402Y-48185595D01*
X140581554Y-48144112D01*
X140604508Y-48099091D01*
X140622288Y-48050472D01*
X140634920Y-47998194D01*
X140642430Y-47942197D01*
X140643514Y-47927535D01*
X140644251Y-47910578D01*
X140644406Y-47894086D01*
X140643991Y-47880122D01*
X140643208Y-47871835D01*
X140636311Y-47847252D01*
X140623984Y-47825784D01*
X140606537Y-47807832D01*
X140584281Y-47793799D01*
X140581938Y-47792688D01*
X140569798Y-47787722D01*
X140558731Y-47785050D01*
X140545719Y-47784070D01*
X140538542Y-47784021D01*
X140524263Y-47784528D01*
G37*
X140524263Y-47784528D02*
X140513249Y-47786339D01*
X140502444Y-47790158D01*
X140493431Y-47794369D01*
X140471743Y-47808238D01*
X140454654Y-47826379D01*
X140443571Y-47845167D01*
X140440349Y-47853381D01*
X140437901Y-47863341D01*
X140435997Y-47876397D01*
X140434409Y-47893897D01*
X140433790Y-47902750D01*
X140430229Y-47939463D01*
X140424596Y-47971130D01*
X140416660Y-47998782D01*
X140407271Y-48021267D01*
X140389136Y-48051740D01*
X140366524Y-48077862D01*
X140339318Y-48099723D01*
X140307404Y-48117417D01*
X140270664Y-48131034D01*
X140267613Y-48131922D01*
X140256403Y-48134856D01*
X140245774Y-48136889D01*
X140234150Y-48138173D01*
X140219951Y-48138860D01*
X140201598Y-48139103D01*
X140193000Y-48139110D01*
X140164445Y-48138481D01*
X140139578Y-48136401D01*
X140116953Y-48132460D01*
X140095121Y-48126245D01*
X140072634Y-48117344D01*
X140048046Y-48105344D01*
X140019963Y-48089867D01*
X140010579Y-48084728D01*
X140002922Y-48081521D01*
X139994947Y-48079793D01*
X139984610Y-48079092D01*
X139970750Y-48078964D01*
X139949055Y-48080013D01*
X139931647Y-48083624D01*
X139916743Y-48090501D01*
X139902560Y-48101347D01*
X139894736Y-48108934D01*
X139879691Y-48128178D01*
X139870292Y-48149551D01*
X139866212Y-48173885D01*
X139865975Y-48182150D01*
X139868095Y-48205736D01*
X139874732Y-48226632D01*
X139886310Y-48245461D01*
X139903246Y-48262845D01*
X139925963Y-48279409D01*
X139935483Y-48285201D01*
X139981117Y-48308331D01*
X140030299Y-48326724D01*
X140082136Y-48340181D01*
X140135737Y-48348506D01*
X140190210Y-48351501D01*
X140229513Y-48350243D01*
X140284339Y-48343580D01*
X140336493Y-48331447D01*
X140385700Y-48313966D01*
X140431684Y-48291256D01*
X140474168Y-48263439D01*
X140512876Y-48230633D01*
X140520025Y-48223600D01*
X140553402Y-48185595D01*
X140581554Y-48144112D01*
X140604508Y-48099091D01*
X140622288Y-48050472D01*
X140634920Y-47998194D01*
X140642430Y-47942197D01*
X140643514Y-47927535D01*
X140644251Y-47910578D01*
X140644406Y-47894086D01*
X140643991Y-47880122D01*
X140643208Y-47871835D01*
X140636311Y-47847252D01*
X140623984Y-47825784D01*
X140606537Y-47807832D01*
X140584281Y-47793799D01*
X140581938Y-47792688D01*
X140569798Y-47787722D01*
X140558731Y-47785050D01*
X140545719Y-47784070D01*
X140538542Y-47784021D01*
X140524263Y-47784528D01*
G36*
X140901738Y-47876133D02*
G01*
X140880035Y-47886104D01*
X140868498Y-47894291D01*
X140844455Y-47917500D01*
X140822968Y-47945368D01*
X140804953Y-47976419D01*
X140791330Y-48009178D01*
X140786271Y-48026457D01*
X140783278Y-48039759D01*
X140781460Y-48051851D01*
X140780656Y-48064810D01*
X140780705Y-48080711D01*
X140781100Y-48093132D01*
X140782046Y-48111914D01*
X140783484Y-48126572D01*
X140785784Y-48139332D01*
X140789319Y-48152418D01*
X140792772Y-48163100D01*
X140808930Y-48201836D01*
X140829913Y-48236457D01*
X140855661Y-48266903D01*
X140886116Y-48293114D01*
X140921218Y-48315033D01*
X140960907Y-48332600D01*
X140965816Y-48334357D01*
X141003103Y-48344848D01*
X141043920Y-48351768D01*
X141086407Y-48354904D01*
X141128705Y-48354045D01*
X141134551Y-48353590D01*
X141182606Y-48347232D01*
X141233176Y-48336276D01*
X141283613Y-48321428D01*
X141303579Y-48314316D01*
X141325504Y-48305715D01*
X141348212Y-48296162D01*
X141370528Y-48286194D01*
X141391279Y-48276346D01*
X141409289Y-48267155D01*
X141423383Y-48259159D01*
X141430731Y-48254227D01*
X141447182Y-48237800D01*
X141459524Y-48217064D01*
X141464660Y-48203025D01*
X141468513Y-48179379D01*
X141466613Y-48156639D01*
X141459555Y-48135553D01*
X141447936Y-48116869D01*
X141432348Y-48101336D01*
X141413389Y-48089701D01*
X141391653Y-48082712D01*
X141367734Y-48081118D01*
X141367673Y-48081122D01*
X141359340Y-48081857D01*
X141351304Y-48083360D01*
X141342404Y-48086046D01*
X141331480Y-48090330D01*
X141317370Y-48096625D01*
X141298914Y-48105348D01*
X141296235Y-48106633D01*
X141268878Y-48119452D01*
X141245476Y-48129595D01*
X141224511Y-48137607D01*
X141204464Y-48144031D01*
X141183818Y-48149410D01*
X141165639Y-48153369D01*
X141143128Y-48156926D01*
X141118396Y-48159131D01*
X141093413Y-48159935D01*
X141070147Y-48159288D01*
X141050569Y-48157141D01*
X141046438Y-48156355D01*
X141022650Y-48148941D01*
X141003078Y-48137927D01*
X140988173Y-48123769D01*
X140978391Y-48106922D01*
X140974183Y-48087842D01*
X140974050Y-48083618D01*
X140974635Y-48074300D01*
X140976924Y-48066219D01*
X140981716Y-48057846D01*
X140989812Y-48047652D01*
X140997273Y-48039275D01*
X141010762Y-48022862D01*
X141019562Y-48007661D01*
X141024479Y-47991696D01*
X141026318Y-47972993D01*
X141026391Y-47967837D01*
X141025971Y-47952825D01*
X141024334Y-47941617D01*
X141021015Y-47931713D01*
X141018745Y-47926807D01*
X141005364Y-47906190D01*
X140988322Y-47890180D01*
X140968530Y-47878972D01*
X140946895Y-47872764D01*
X140924328Y-47871752D01*
X140901738Y-47876133D01*
G37*
X140901738Y-47876133D02*
X140880035Y-47886104D01*
X140868498Y-47894291D01*
X140844455Y-47917500D01*
X140822968Y-47945368D01*
X140804953Y-47976419D01*
X140791330Y-48009178D01*
X140786271Y-48026457D01*
X140783278Y-48039759D01*
X140781460Y-48051851D01*
X140780656Y-48064810D01*
X140780705Y-48080711D01*
X140781100Y-48093132D01*
X140782046Y-48111914D01*
X140783484Y-48126572D01*
X140785784Y-48139332D01*
X140789319Y-48152418D01*
X140792772Y-48163100D01*
X140808930Y-48201836D01*
X140829913Y-48236457D01*
X140855661Y-48266903D01*
X140886116Y-48293114D01*
X140921218Y-48315033D01*
X140960907Y-48332600D01*
X140965816Y-48334357D01*
X141003103Y-48344848D01*
X141043920Y-48351768D01*
X141086407Y-48354904D01*
X141128705Y-48354045D01*
X141134551Y-48353590D01*
X141182606Y-48347232D01*
X141233176Y-48336276D01*
X141283613Y-48321428D01*
X141303579Y-48314316D01*
X141325504Y-48305715D01*
X141348212Y-48296162D01*
X141370528Y-48286194D01*
X141391279Y-48276346D01*
X141409289Y-48267155D01*
X141423383Y-48259159D01*
X141430731Y-48254227D01*
X141447182Y-48237800D01*
X141459524Y-48217064D01*
X141464660Y-48203025D01*
X141468513Y-48179379D01*
X141466613Y-48156639D01*
X141459555Y-48135553D01*
X141447936Y-48116869D01*
X141432348Y-48101336D01*
X141413389Y-48089701D01*
X141391653Y-48082712D01*
X141367734Y-48081118D01*
X141367673Y-48081122D01*
X141359340Y-48081857D01*
X141351304Y-48083360D01*
X141342404Y-48086046D01*
X141331480Y-48090330D01*
X141317370Y-48096625D01*
X141298914Y-48105348D01*
X141296235Y-48106633D01*
X141268878Y-48119452D01*
X141245476Y-48129595D01*
X141224511Y-48137607D01*
X141204464Y-48144031D01*
X141183818Y-48149410D01*
X141165639Y-48153369D01*
X141143128Y-48156926D01*
X141118396Y-48159131D01*
X141093413Y-48159935D01*
X141070147Y-48159288D01*
X141050569Y-48157141D01*
X141046438Y-48156355D01*
X141022650Y-48148941D01*
X141003078Y-48137927D01*
X140988173Y-48123769D01*
X140978391Y-48106922D01*
X140974183Y-48087842D01*
X140974050Y-48083618D01*
X140974635Y-48074300D01*
X140976924Y-48066219D01*
X140981716Y-48057846D01*
X140989812Y-48047652D01*
X140997273Y-48039275D01*
X141010762Y-48022862D01*
X141019562Y-48007661D01*
X141024479Y-47991696D01*
X141026318Y-47972993D01*
X141026391Y-47967837D01*
X141025971Y-47952825D01*
X141024334Y-47941617D01*
X141021015Y-47931713D01*
X141018745Y-47926807D01*
X141005364Y-47906190D01*
X140988322Y-47890180D01*
X140968530Y-47878972D01*
X140946895Y-47872764D01*
X140924328Y-47871752D01*
X140901738Y-47876133D01*
G36*
X143701122Y-47169544D02*
G01*
X143687023Y-47169938D01*
X143675973Y-47170765D01*
X143666873Y-47172081D01*
X143658624Y-47173942D01*
X143657614Y-47174212D01*
X143634761Y-47183494D01*
X143613790Y-47197995D01*
X143596284Y-47216592D01*
X143594555Y-47218956D01*
X143592043Y-47222346D01*
X143589748Y-47225328D01*
X143587659Y-47228186D01*
X143585768Y-47231206D01*
X143584064Y-47234675D01*
X143582539Y-47238879D01*
X143581181Y-47244104D01*
X143579981Y-47250636D01*
X143578931Y-47258761D01*
X143578019Y-47268764D01*
X143577236Y-47280933D01*
X143576573Y-47295553D01*
X143576019Y-47312909D01*
X143575565Y-47333289D01*
X143575201Y-47356979D01*
X143574917Y-47384263D01*
X143574705Y-47415429D01*
X143574553Y-47450762D01*
X143574452Y-47490549D01*
X143574392Y-47535075D01*
X143574364Y-47584627D01*
X143574358Y-47639490D01*
X143574365Y-47699951D01*
X143574373Y-47766296D01*
X143574375Y-47811251D01*
X143574375Y-48356775D01*
X143802952Y-48356775D01*
X143803757Y-47943934D01*
X143804563Y-47531094D01*
X143934871Y-47730383D01*
X143960365Y-47769368D01*
X143982660Y-47803403D01*
X144002044Y-47832844D01*
X144018802Y-47858051D01*
X144033220Y-47879381D01*
X144045584Y-47897193D01*
X144056179Y-47911845D01*
X144065292Y-47923695D01*
X144073208Y-47933101D01*
X144080213Y-47940421D01*
X144086594Y-47946013D01*
X144092636Y-47950237D01*
X144098625Y-47953448D01*
X144104846Y-47956007D01*
X144111586Y-47958271D01*
X144118472Y-47960395D01*
X144143447Y-47965005D01*
X144168684Y-47964025D01*
X144192940Y-47957760D01*
X144214974Y-47946519D01*
X144231980Y-47932295D01*
X144235602Y-47927667D01*
X144242378Y-47918172D01*
X144251999Y-47904269D01*
X144264159Y-47886414D01*
X144278550Y-47865066D01*
X144294863Y-47840683D01*
X144312793Y-47813721D01*
X144332031Y-47784640D01*
X144352269Y-47753895D01*
X144368121Y-47729712D01*
X144388714Y-47698267D01*
X144408365Y-47668314D01*
X144426787Y-47640287D01*
X144443692Y-47614620D01*
X144458793Y-47591748D01*
X144471804Y-47572106D01*
X144482437Y-47556126D01*
X144490405Y-47544245D01*
X144495422Y-47536895D01*
X144497123Y-47534563D01*
X144497761Y-47534627D01*
X144498335Y-47536450D01*
X144498849Y-47540328D01*
X144499306Y-47546557D01*
X144499709Y-47555434D01*
X144500061Y-47567255D01*
X144500365Y-47582316D01*
X144500625Y-47600914D01*
X144500843Y-47623345D01*
X144501022Y-47649905D01*
X144501167Y-47680890D01*
X144501280Y-47716598D01*
X144501364Y-47757323D01*
X144501422Y-47803363D01*
X144501457Y-47855013D01*
X144501474Y-47912570D01*
X144501475Y-47943344D01*
X144501475Y-48356775D01*
X144730075Y-48356775D01*
X144730075Y-47743708D01*
X144730069Y-47680879D01*
X144730057Y-47623817D01*
X144730033Y-47572233D01*
X144729996Y-47525836D01*
X144729941Y-47484333D01*
X144729865Y-47447435D01*
X144729765Y-47414851D01*
X144729637Y-47386289D01*
X144729479Y-47361459D01*
X144729287Y-47340069D01*
X144729057Y-47321829D01*
X144728787Y-47306448D01*
X144728472Y-47293636D01*
X144728111Y-47283100D01*
X144727698Y-47274550D01*
X144727231Y-47267695D01*
X144726708Y-47262244D01*
X144726123Y-47257907D01*
X144725474Y-47254392D01*
X144724758Y-47251409D01*
X144723972Y-47248666D01*
X144723618Y-47247511D01*
X144713870Y-47226071D01*
X144698962Y-47206518D01*
X144680058Y-47190138D01*
X144662708Y-47180122D01*
X144642763Y-47170912D01*
X144496713Y-47170912D01*
X144476957Y-47180037D01*
X144456447Y-47192484D01*
X144442032Y-47205443D01*
X144437898Y-47210667D01*
X144430606Y-47220770D01*
X144420457Y-47235307D01*
X144407751Y-47253833D01*
X144392788Y-47275901D01*
X144375870Y-47301067D01*
X144357297Y-47328884D01*
X144337370Y-47358906D01*
X144316388Y-47390689D01*
X144294653Y-47423786D01*
X144290338Y-47430378D01*
X144268846Y-47463158D01*
X144248319Y-47494333D01*
X144229028Y-47523503D01*
X144211240Y-47550269D01*
X144195225Y-47574230D01*
X144181250Y-47594985D01*
X144169585Y-47612136D01*
X144160497Y-47625281D01*
X144154257Y-47634020D01*
X144151132Y-47637954D01*
X144150845Y-47638139D01*
X144148684Y-47635403D01*
X144143325Y-47627747D01*
X144135035Y-47615574D01*
X144124081Y-47599285D01*
X144110731Y-47579280D01*
X144095251Y-47555964D01*
X144077908Y-47529736D01*
X144058969Y-47500998D01*
X144038702Y-47470153D01*
X144017374Y-47437601D01*
X144009557Y-47425650D01*
X143987689Y-47392265D01*
X143966608Y-47360216D01*
X143946601Y-47329931D01*
X143927957Y-47301840D01*
X143910963Y-47276371D01*
X143895906Y-47253955D01*
X143883074Y-47235019D01*
X143872755Y-47219994D01*
X143865235Y-47209308D01*
X143860803Y-47203390D01*
X143860125Y-47202616D01*
X143851309Y-47195166D01*
X143839399Y-47187139D01*
X143828454Y-47181045D01*
X143807896Y-47170912D01*
X143742859Y-47169827D01*
X143719368Y-47169526D01*
X143701122Y-47169544D01*
G37*
X143701122Y-47169544D02*
X143687023Y-47169938D01*
X143675973Y-47170765D01*
X143666873Y-47172081D01*
X143658624Y-47173942D01*
X143657614Y-47174212D01*
X143634761Y-47183494D01*
X143613790Y-47197995D01*
X143596284Y-47216592D01*
X143594555Y-47218956D01*
X143592043Y-47222346D01*
X143589748Y-47225328D01*
X143587659Y-47228186D01*
X143585768Y-47231206D01*
X143584064Y-47234675D01*
X143582539Y-47238879D01*
X143581181Y-47244104D01*
X143579981Y-47250636D01*
X143578931Y-47258761D01*
X143578019Y-47268764D01*
X143577236Y-47280933D01*
X143576573Y-47295553D01*
X143576019Y-47312909D01*
X143575565Y-47333289D01*
X143575201Y-47356979D01*
X143574917Y-47384263D01*
X143574705Y-47415429D01*
X143574553Y-47450762D01*
X143574452Y-47490549D01*
X143574392Y-47535075D01*
X143574364Y-47584627D01*
X143574358Y-47639490D01*
X143574365Y-47699951D01*
X143574373Y-47766296D01*
X143574375Y-47811251D01*
X143574375Y-48356775D01*
X143802952Y-48356775D01*
X143803757Y-47943934D01*
X143804563Y-47531094D01*
X143934871Y-47730383D01*
X143960365Y-47769368D01*
X143982660Y-47803403D01*
X144002044Y-47832844D01*
X144018802Y-47858051D01*
X144033220Y-47879381D01*
X144045584Y-47897193D01*
X144056179Y-47911845D01*
X144065292Y-47923695D01*
X144073208Y-47933101D01*
X144080213Y-47940421D01*
X144086594Y-47946013D01*
X144092636Y-47950237D01*
X144098625Y-47953448D01*
X144104846Y-47956007D01*
X144111586Y-47958271D01*
X144118472Y-47960395D01*
X144143447Y-47965005D01*
X144168684Y-47964025D01*
X144192940Y-47957760D01*
X144214974Y-47946519D01*
X144231980Y-47932295D01*
X144235602Y-47927667D01*
X144242378Y-47918172D01*
X144251999Y-47904269D01*
X144264159Y-47886414D01*
X144278550Y-47865066D01*
X144294863Y-47840683D01*
X144312793Y-47813721D01*
X144332031Y-47784640D01*
X144352269Y-47753895D01*
X144368121Y-47729712D01*
X144388714Y-47698267D01*
X144408365Y-47668314D01*
X144426787Y-47640287D01*
X144443692Y-47614620D01*
X144458793Y-47591748D01*
X144471804Y-47572106D01*
X144482437Y-47556126D01*
X144490405Y-47544245D01*
X144495422Y-47536895D01*
X144497123Y-47534563D01*
X144497761Y-47534627D01*
X144498335Y-47536450D01*
X144498849Y-47540328D01*
X144499306Y-47546557D01*
X144499709Y-47555434D01*
X144500061Y-47567255D01*
X144500365Y-47582316D01*
X144500625Y-47600914D01*
X144500843Y-47623345D01*
X144501022Y-47649905D01*
X144501167Y-47680890D01*
X144501280Y-47716598D01*
X144501364Y-47757323D01*
X144501422Y-47803363D01*
X144501457Y-47855013D01*
X144501474Y-47912570D01*
X144501475Y-47943344D01*
X144501475Y-48356775D01*
X144730075Y-48356775D01*
X144730075Y-47743708D01*
X144730069Y-47680879D01*
X144730057Y-47623817D01*
X144730033Y-47572233D01*
X144729996Y-47525836D01*
X144729941Y-47484333D01*
X144729865Y-47447435D01*
X144729765Y-47414851D01*
X144729637Y-47386289D01*
X144729479Y-47361459D01*
X144729287Y-47340069D01*
X144729057Y-47321829D01*
X144728787Y-47306448D01*
X144728472Y-47293636D01*
X144728111Y-47283100D01*
X144727698Y-47274550D01*
X144727231Y-47267695D01*
X144726708Y-47262244D01*
X144726123Y-47257907D01*
X144725474Y-47254392D01*
X144724758Y-47251409D01*
X144723972Y-47248666D01*
X144723618Y-47247511D01*
X144713870Y-47226071D01*
X144698962Y-47206518D01*
X144680058Y-47190138D01*
X144662708Y-47180122D01*
X144642763Y-47170912D01*
X144496713Y-47170912D01*
X144476957Y-47180037D01*
X144456447Y-47192484D01*
X144442032Y-47205443D01*
X144437898Y-47210667D01*
X144430606Y-47220770D01*
X144420457Y-47235307D01*
X144407751Y-47253833D01*
X144392788Y-47275901D01*
X144375870Y-47301067D01*
X144357297Y-47328884D01*
X144337370Y-47358906D01*
X144316388Y-47390689D01*
X144294653Y-47423786D01*
X144290338Y-47430378D01*
X144268846Y-47463158D01*
X144248319Y-47494333D01*
X144229028Y-47523503D01*
X144211240Y-47550269D01*
X144195225Y-47574230D01*
X144181250Y-47594985D01*
X144169585Y-47612136D01*
X144160497Y-47625281D01*
X144154257Y-47634020D01*
X144151132Y-47637954D01*
X144150845Y-47638139D01*
X144148684Y-47635403D01*
X144143325Y-47627747D01*
X144135035Y-47615574D01*
X144124081Y-47599285D01*
X144110731Y-47579280D01*
X144095251Y-47555964D01*
X144077908Y-47529736D01*
X144058969Y-47500998D01*
X144038702Y-47470153D01*
X144017374Y-47437601D01*
X144009557Y-47425650D01*
X143987689Y-47392265D01*
X143966608Y-47360216D01*
X143946601Y-47329931D01*
X143927957Y-47301840D01*
X143910963Y-47276371D01*
X143895906Y-47253955D01*
X143883074Y-47235019D01*
X143872755Y-47219994D01*
X143865235Y-47209308D01*
X143860803Y-47203390D01*
X143860125Y-47202616D01*
X143851309Y-47195166D01*
X143839399Y-47187139D01*
X143828454Y-47181045D01*
X143807896Y-47170912D01*
X143742859Y-47169827D01*
X143719368Y-47169526D01*
X143701122Y-47169544D01*
G36*
X137078291Y-47433212D02*
G01*
X137030192Y-47443712D01*
X136984405Y-47459743D01*
X136941239Y-47481083D01*
X136901006Y-47507509D01*
X136864015Y-47538800D01*
X136830578Y-47574733D01*
X136801004Y-47615085D01*
X136775605Y-47659634D01*
X136754691Y-47708158D01*
X136743449Y-47742412D01*
X136738311Y-47760826D01*
X136734209Y-47777467D01*
X136731008Y-47793475D01*
X136728572Y-47809987D01*
X136726766Y-47828142D01*
X136725454Y-47849080D01*
X136724500Y-47873937D01*
X136723769Y-47903853D01*
X136723681Y-47908306D01*
X136721998Y-47994825D01*
X137046212Y-47994825D01*
X137090997Y-47994847D01*
X137133950Y-47994914D01*
X137174650Y-47995020D01*
X137212676Y-47995165D01*
X137247608Y-47995343D01*
X137279025Y-47995553D01*
X137306507Y-47995791D01*
X137329633Y-47996053D01*
X137347982Y-47996338D01*
X137361134Y-47996641D01*
X137368669Y-47996961D01*
X137370381Y-47997206D01*
X137368656Y-48002347D01*
X137364121Y-48011377D01*
X137357575Y-48022962D01*
X137349821Y-48035766D01*
X137341661Y-48048458D01*
X137333895Y-48059703D01*
X137328811Y-48066385D01*
X137302061Y-48094492D01*
X137271737Y-48117741D01*
X137238520Y-48135987D01*
X137203091Y-48149087D01*
X137166131Y-48156894D01*
X137128320Y-48159266D01*
X137090340Y-48156058D01*
X137052871Y-48147126D01*
X137016981Y-48132517D01*
X137004508Y-48125951D01*
X136992879Y-48119259D01*
X136984423Y-48113786D01*
X136983823Y-48113344D01*
X136960317Y-48099144D01*
X136935803Y-48090986D01*
X136914813Y-48088925D01*
X136889346Y-48091975D01*
X136866433Y-48100270D01*
X136846616Y-48113109D01*
X136830435Y-48129792D01*
X136818430Y-48149616D01*
X136811141Y-48171882D01*
X136809109Y-48195887D01*
X136812875Y-48220932D01*
X136812924Y-48221116D01*
X136819348Y-48238605D01*
X136829010Y-48254713D01*
X136842477Y-48269963D01*
X136860311Y-48284880D01*
X136883078Y-48299989D01*
X136911342Y-48315814D01*
X136919191Y-48319871D01*
X136961430Y-48339051D01*
X137004050Y-48353446D01*
X137048776Y-48363551D01*
X137092613Y-48369419D01*
X137109888Y-48370977D01*
X137123555Y-48371816D01*
X137135866Y-48371929D01*
X137149072Y-48371312D01*
X137165424Y-48369957D01*
X137173417Y-48369201D01*
X137228363Y-48360883D01*
X137280732Y-48346796D01*
X137330390Y-48327000D01*
X137377203Y-48301558D01*
X137421038Y-48270534D01*
X137461060Y-48234690D01*
X137497616Y-48193757D01*
X137528858Y-48149600D01*
X137554676Y-48102635D01*
X137574961Y-48053276D01*
X137589603Y-48001936D01*
X137598495Y-47949031D01*
X137601525Y-47894975D01*
X137598586Y-47840181D01*
X137589567Y-47785065D01*
X137588447Y-47780386D01*
X137367250Y-47780386D01*
X137364163Y-47780680D01*
X137355251Y-47780958D01*
X137341039Y-47781216D01*
X137322054Y-47781449D01*
X137298820Y-47781654D01*
X137271862Y-47781825D01*
X137241706Y-47781959D01*
X137208878Y-47782050D01*
X137173902Y-47782095D01*
X137159367Y-47782100D01*
X136951483Y-47782100D01*
X136954425Y-47774360D01*
X136969615Y-47742564D01*
X136989605Y-47713667D01*
X137013615Y-47688544D01*
X137040863Y-47668071D01*
X137057530Y-47658824D01*
X137087761Y-47647458D01*
X137120485Y-47641159D01*
X137154659Y-47639730D01*
X137189243Y-47642977D01*
X137223193Y-47650706D01*
X137255469Y-47662723D01*
X137285028Y-47678833D01*
X137310829Y-47698841D01*
X137319757Y-47707778D01*
X137329519Y-47719175D01*
X137339603Y-47732374D01*
X137349200Y-47746134D01*
X137357496Y-47759214D01*
X137363682Y-47770375D01*
X137366945Y-47778375D01*
X137367250Y-47780386D01*
X137588447Y-47780386D01*
X137584854Y-47765393D01*
X137568219Y-47713281D01*
X137546314Y-47664595D01*
X137519228Y-47619484D01*
X137487048Y-47578099D01*
X137455898Y-47546093D01*
X137415661Y-47512946D01*
X137372157Y-47485235D01*
X137325377Y-47462955D01*
X137275309Y-47446104D01*
X137221944Y-47434675D01*
X137180179Y-47429695D01*
X137128390Y-47428465D01*
X137078291Y-47433212D01*
G37*
X137078291Y-47433212D02*
X137030192Y-47443712D01*
X136984405Y-47459743D01*
X136941239Y-47481083D01*
X136901006Y-47507509D01*
X136864015Y-47538800D01*
X136830578Y-47574733D01*
X136801004Y-47615085D01*
X136775605Y-47659634D01*
X136754691Y-47708158D01*
X136743449Y-47742412D01*
X136738311Y-47760826D01*
X136734209Y-47777467D01*
X136731008Y-47793475D01*
X136728572Y-47809987D01*
X136726766Y-47828142D01*
X136725454Y-47849080D01*
X136724500Y-47873937D01*
X136723769Y-47903853D01*
X136723681Y-47908306D01*
X136721998Y-47994825D01*
X137046212Y-47994825D01*
X137090997Y-47994847D01*
X137133950Y-47994914D01*
X137174650Y-47995020D01*
X137212676Y-47995165D01*
X137247608Y-47995343D01*
X137279025Y-47995553D01*
X137306507Y-47995791D01*
X137329633Y-47996053D01*
X137347982Y-47996338D01*
X137361134Y-47996641D01*
X137368669Y-47996961D01*
X137370381Y-47997206D01*
X137368656Y-48002347D01*
X137364121Y-48011377D01*
X137357575Y-48022962D01*
X137349821Y-48035766D01*
X137341661Y-48048458D01*
X137333895Y-48059703D01*
X137328811Y-48066385D01*
X137302061Y-48094492D01*
X137271737Y-48117741D01*
X137238520Y-48135987D01*
X137203091Y-48149087D01*
X137166131Y-48156894D01*
X137128320Y-48159266D01*
X137090340Y-48156058D01*
X137052871Y-48147126D01*
X137016981Y-48132517D01*
X137004508Y-48125951D01*
X136992879Y-48119259D01*
X136984423Y-48113786D01*
X136983823Y-48113344D01*
X136960317Y-48099144D01*
X136935803Y-48090986D01*
X136914813Y-48088925D01*
X136889346Y-48091975D01*
X136866433Y-48100270D01*
X136846616Y-48113109D01*
X136830435Y-48129792D01*
X136818430Y-48149616D01*
X136811141Y-48171882D01*
X136809109Y-48195887D01*
X136812875Y-48220932D01*
X136812924Y-48221116D01*
X136819348Y-48238605D01*
X136829010Y-48254713D01*
X136842477Y-48269963D01*
X136860311Y-48284880D01*
X136883078Y-48299989D01*
X136911342Y-48315814D01*
X136919191Y-48319871D01*
X136961430Y-48339051D01*
X137004050Y-48353446D01*
X137048776Y-48363551D01*
X137092613Y-48369419D01*
X137109888Y-48370977D01*
X137123555Y-48371816D01*
X137135866Y-48371929D01*
X137149072Y-48371312D01*
X137165424Y-48369957D01*
X137173417Y-48369201D01*
X137228363Y-48360883D01*
X137280732Y-48346796D01*
X137330390Y-48327000D01*
X137377203Y-48301558D01*
X137421038Y-48270534D01*
X137461060Y-48234690D01*
X137497616Y-48193757D01*
X137528858Y-48149600D01*
X137554676Y-48102635D01*
X137574961Y-48053276D01*
X137589603Y-48001936D01*
X137598495Y-47949031D01*
X137601525Y-47894975D01*
X137598586Y-47840181D01*
X137589567Y-47785065D01*
X137588447Y-47780386D01*
X137367250Y-47780386D01*
X137364163Y-47780680D01*
X137355251Y-47780958D01*
X137341039Y-47781216D01*
X137322054Y-47781449D01*
X137298820Y-47781654D01*
X137271862Y-47781825D01*
X137241706Y-47781959D01*
X137208878Y-47782050D01*
X137173902Y-47782095D01*
X137159367Y-47782100D01*
X136951483Y-47782100D01*
X136954425Y-47774360D01*
X136969615Y-47742564D01*
X136989605Y-47713667D01*
X137013615Y-47688544D01*
X137040863Y-47668071D01*
X137057530Y-47658824D01*
X137087761Y-47647458D01*
X137120485Y-47641159D01*
X137154659Y-47639730D01*
X137189243Y-47642977D01*
X137223193Y-47650706D01*
X137255469Y-47662723D01*
X137285028Y-47678833D01*
X137310829Y-47698841D01*
X137319757Y-47707778D01*
X137329519Y-47719175D01*
X137339603Y-47732374D01*
X137349200Y-47746134D01*
X137357496Y-47759214D01*
X137363682Y-47770375D01*
X137366945Y-47778375D01*
X137367250Y-47780386D01*
X137588447Y-47780386D01*
X137584854Y-47765393D01*
X137568219Y-47713281D01*
X137546314Y-47664595D01*
X137519228Y-47619484D01*
X137487048Y-47578099D01*
X137455898Y-47546093D01*
X137415661Y-47512946D01*
X137372157Y-47485235D01*
X137325377Y-47462955D01*
X137275309Y-47446104D01*
X137221944Y-47434675D01*
X137180179Y-47429695D01*
X137128390Y-47428465D01*
X137078291Y-47433212D01*
G36*
X139219735Y-47431380D02*
G01*
X139167953Y-47440054D01*
X139117516Y-47454435D01*
X139068888Y-47474419D01*
X139022536Y-47499902D01*
X138978923Y-47530779D01*
X138939068Y-47566392D01*
X138903492Y-47606403D01*
X138872591Y-47650398D01*
X138846704Y-47697725D01*
X138826167Y-47747728D01*
X138811321Y-47799754D01*
X138806910Y-47821787D01*
X138803475Y-47848644D01*
X138801651Y-47879309D01*
X138801440Y-47911447D01*
X138802840Y-47942725D01*
X138805852Y-47970808D01*
X138806910Y-47977362D01*
X138819374Y-48030715D01*
X138837378Y-48081359D01*
X138860584Y-48128984D01*
X138888653Y-48173278D01*
X138921244Y-48213929D01*
X138958020Y-48250628D01*
X138998640Y-48283061D01*
X139042765Y-48310919D01*
X139090057Y-48333890D01*
X139140175Y-48351663D01*
X139192781Y-48363926D01*
X139234209Y-48369369D01*
X139250461Y-48370780D01*
X139262625Y-48371657D01*
X139272654Y-48371996D01*
X139282500Y-48371791D01*
X139294117Y-48371038D01*
X139309455Y-48369732D01*
X139315730Y-48369173D01*
X139368157Y-48361383D01*
X139418912Y-48347717D01*
X139467557Y-48328521D01*
X139513651Y-48304142D01*
X139556756Y-48274930D01*
X139596431Y-48241230D01*
X139632238Y-48203390D01*
X139663737Y-48161758D01*
X139690490Y-48116681D01*
X139712055Y-48068506D01*
X139718333Y-48050867D01*
X139726096Y-48026412D01*
X139731871Y-48005063D01*
X139735928Y-47985043D01*
X139738542Y-47964575D01*
X139739983Y-47941879D01*
X139740526Y-47915180D01*
X139740554Y-47905925D01*
X139740521Y-47885127D01*
X139740334Y-47869550D01*
X139739868Y-47858068D01*
X139738999Y-47849551D01*
X139737605Y-47842872D01*
X139735561Y-47836901D01*
X139732744Y-47830513D01*
X139732145Y-47829231D01*
X139719384Y-47808802D01*
X139702169Y-47791220D01*
X139682438Y-47778326D01*
X139673879Y-47774663D01*
X139665107Y-47772439D01*
X139654140Y-47771332D01*
X139638998Y-47771020D01*
X139637375Y-47771020D01*
X139615729Y-47772077D01*
X139598384Y-47775642D01*
X139583564Y-47782395D01*
X139569490Y-47793012D01*
X139562679Y-47799478D01*
X139552901Y-47810052D01*
X139545587Y-47820310D01*
X139540329Y-47831499D01*
X139536715Y-47844867D01*
X139534335Y-47861663D01*
X139532779Y-47883135D01*
X139532369Y-47891637D01*
X139530502Y-47920818D01*
X139527520Y-47945316D01*
X139523089Y-47966751D01*
X139516873Y-47986743D01*
X139508537Y-48006911D01*
X139508488Y-48007017D01*
X139489048Y-48042067D01*
X139464755Y-48073388D01*
X139436182Y-48100539D01*
X139403899Y-48123081D01*
X139368477Y-48140571D01*
X139330488Y-48152569D01*
X139316283Y-48155460D01*
X139276891Y-48159251D01*
X139238240Y-48157035D01*
X139200864Y-48149154D01*
X139165298Y-48135948D01*
X139132076Y-48117759D01*
X139101734Y-48094927D01*
X139074806Y-48067792D01*
X139051827Y-48036696D01*
X139033333Y-48001979D01*
X139020757Y-47967199D01*
X139016154Y-47944817D01*
X139013653Y-47918669D01*
X139013252Y-47890982D01*
X139014952Y-47863985D01*
X139018753Y-47839903D01*
X139020757Y-47831950D01*
X139034721Y-47794210D01*
X139053940Y-47759350D01*
X139077886Y-47727897D01*
X139106030Y-47700380D01*
X139137842Y-47677326D01*
X139172794Y-47659262D01*
X139205120Y-47648077D01*
X139225294Y-47644105D01*
X139249301Y-47641728D01*
X139274980Y-47640967D01*
X139300171Y-47641846D01*
X139322712Y-47644387D01*
X139334163Y-47646743D01*
X139357914Y-47654555D01*
X139383439Y-47665864D01*
X139408288Y-47679425D01*
X139430013Y-47693991D01*
X139435413Y-47698253D01*
X139455437Y-47713371D01*
X139473521Y-47723709D01*
X139491093Y-47729871D01*
X139509581Y-47732460D01*
X139516725Y-47732634D01*
X139541923Y-47729723D01*
X139564547Y-47721535D01*
X139584104Y-47708792D01*
X139600099Y-47692217D01*
X139612039Y-47672532D01*
X139619430Y-47650460D01*
X139621778Y-47626723D01*
X139618589Y-47602044D01*
X139614675Y-47589337D01*
X139606060Y-47573243D01*
X139592111Y-47555969D01*
X139573598Y-47538078D01*
X139551295Y-47520131D01*
X139525974Y-47502687D01*
X139498406Y-47486310D01*
X139469364Y-47471560D01*
X139439620Y-47458997D01*
X139431000Y-47455853D01*
X139378493Y-47440651D01*
X139325470Y-47431574D01*
X139272395Y-47428519D01*
X139219735Y-47431380D01*
G37*
X139219735Y-47431380D02*
X139167953Y-47440054D01*
X139117516Y-47454435D01*
X139068888Y-47474419D01*
X139022536Y-47499902D01*
X138978923Y-47530779D01*
X138939068Y-47566392D01*
X138903492Y-47606403D01*
X138872591Y-47650398D01*
X138846704Y-47697725D01*
X138826167Y-47747728D01*
X138811321Y-47799754D01*
X138806910Y-47821787D01*
X138803475Y-47848644D01*
X138801651Y-47879309D01*
X138801440Y-47911447D01*
X138802840Y-47942725D01*
X138805852Y-47970808D01*
X138806910Y-47977362D01*
X138819374Y-48030715D01*
X138837378Y-48081359D01*
X138860584Y-48128984D01*
X138888653Y-48173278D01*
X138921244Y-48213929D01*
X138958020Y-48250628D01*
X138998640Y-48283061D01*
X139042765Y-48310919D01*
X139090057Y-48333890D01*
X139140175Y-48351663D01*
X139192781Y-48363926D01*
X139234209Y-48369369D01*
X139250461Y-48370780D01*
X139262625Y-48371657D01*
X139272654Y-48371996D01*
X139282500Y-48371791D01*
X139294117Y-48371038D01*
X139309455Y-48369732D01*
X139315730Y-48369173D01*
X139368157Y-48361383D01*
X139418912Y-48347717D01*
X139467557Y-48328521D01*
X139513651Y-48304142D01*
X139556756Y-48274930D01*
X139596431Y-48241230D01*
X139632238Y-48203390D01*
X139663737Y-48161758D01*
X139690490Y-48116681D01*
X139712055Y-48068506D01*
X139718333Y-48050867D01*
X139726096Y-48026412D01*
X139731871Y-48005063D01*
X139735928Y-47985043D01*
X139738542Y-47964575D01*
X139739983Y-47941879D01*
X139740526Y-47915180D01*
X139740554Y-47905925D01*
X139740521Y-47885127D01*
X139740334Y-47869550D01*
X139739868Y-47858068D01*
X139738999Y-47849551D01*
X139737605Y-47842872D01*
X139735561Y-47836901D01*
X139732744Y-47830513D01*
X139732145Y-47829231D01*
X139719384Y-47808802D01*
X139702169Y-47791220D01*
X139682438Y-47778326D01*
X139673879Y-47774663D01*
X139665107Y-47772439D01*
X139654140Y-47771332D01*
X139638998Y-47771020D01*
X139637375Y-47771020D01*
X139615729Y-47772077D01*
X139598384Y-47775642D01*
X139583564Y-47782395D01*
X139569490Y-47793012D01*
X139562679Y-47799478D01*
X139552901Y-47810052D01*
X139545587Y-47820310D01*
X139540329Y-47831499D01*
X139536715Y-47844867D01*
X139534335Y-47861663D01*
X139532779Y-47883135D01*
X139532369Y-47891637D01*
X139530502Y-47920818D01*
X139527520Y-47945316D01*
X139523089Y-47966751D01*
X139516873Y-47986743D01*
X139508537Y-48006911D01*
X139508488Y-48007017D01*
X139489048Y-48042067D01*
X139464755Y-48073388D01*
X139436182Y-48100539D01*
X139403899Y-48123081D01*
X139368477Y-48140571D01*
X139330488Y-48152569D01*
X139316283Y-48155460D01*
X139276891Y-48159251D01*
X139238240Y-48157035D01*
X139200864Y-48149154D01*
X139165298Y-48135948D01*
X139132076Y-48117759D01*
X139101734Y-48094927D01*
X139074806Y-48067792D01*
X139051827Y-48036696D01*
X139033333Y-48001979D01*
X139020757Y-47967199D01*
X139016154Y-47944817D01*
X139013653Y-47918669D01*
X139013252Y-47890982D01*
X139014952Y-47863985D01*
X139018753Y-47839903D01*
X139020757Y-47831950D01*
X139034721Y-47794210D01*
X139053940Y-47759350D01*
X139077886Y-47727897D01*
X139106030Y-47700380D01*
X139137842Y-47677326D01*
X139172794Y-47659262D01*
X139205120Y-47648077D01*
X139225294Y-47644105D01*
X139249301Y-47641728D01*
X139274980Y-47640967D01*
X139300171Y-47641846D01*
X139322712Y-47644387D01*
X139334163Y-47646743D01*
X139357914Y-47654555D01*
X139383439Y-47665864D01*
X139408288Y-47679425D01*
X139430013Y-47693991D01*
X139435413Y-47698253D01*
X139455437Y-47713371D01*
X139473521Y-47723709D01*
X139491093Y-47729871D01*
X139509581Y-47732460D01*
X139516725Y-47732634D01*
X139541923Y-47729723D01*
X139564547Y-47721535D01*
X139584104Y-47708792D01*
X139600099Y-47692217D01*
X139612039Y-47672532D01*
X139619430Y-47650460D01*
X139621778Y-47626723D01*
X139618589Y-47602044D01*
X139614675Y-47589337D01*
X139606060Y-47573243D01*
X139592111Y-47555969D01*
X139573598Y-47538078D01*
X139551295Y-47520131D01*
X139525974Y-47502687D01*
X139498406Y-47486310D01*
X139469364Y-47471560D01*
X139439620Y-47458997D01*
X139431000Y-47455853D01*
X139378493Y-47440651D01*
X139325470Y-47431574D01*
X139272395Y-47428519D01*
X139219735Y-47431380D01*
G36*
X140710337Y-48288592D02*
G01*
X140698906Y-48289069D01*
X140690195Y-48290296D01*
X140682390Y-48292627D01*
X140673675Y-48296416D01*
X140665623Y-48300341D01*
X140640986Y-48315721D01*
X140621003Y-48334721D01*
X140605727Y-48356589D01*
X140595207Y-48380572D01*
X140589497Y-48405916D01*
X140588645Y-48431869D01*
X140592705Y-48457678D01*
X140601726Y-48482590D01*
X140615760Y-48505852D01*
X140634859Y-48526711D01*
X140649460Y-48538242D01*
X140670991Y-48549837D01*
X140695843Y-48557691D01*
X140721904Y-48561349D01*
X140747062Y-48560357D01*
X140750045Y-48559882D01*
X140776199Y-48552217D01*
X140800709Y-48539031D01*
X140822554Y-48521124D01*
X140840711Y-48499295D01*
X140851404Y-48480600D01*
X140858907Y-48458634D01*
X140862641Y-48433917D01*
X140862480Y-48408784D01*
X140858299Y-48385573D01*
X140856788Y-48380843D01*
X140844694Y-48353887D01*
X140828687Y-48331584D01*
X140808112Y-48313201D01*
X140783617Y-48298640D01*
X140774321Y-48294245D01*
X140766572Y-48291347D01*
X140758617Y-48289636D01*
X140748701Y-48288800D01*
X140735068Y-48288531D01*
X140726303Y-48288512D01*
X140710337Y-48288592D01*
G37*
X140710337Y-48288592D02*
X140698906Y-48289069D01*
X140690195Y-48290296D01*
X140682390Y-48292627D01*
X140673675Y-48296416D01*
X140665623Y-48300341D01*
X140640986Y-48315721D01*
X140621003Y-48334721D01*
X140605727Y-48356589D01*
X140595207Y-48380572D01*
X140589497Y-48405916D01*
X140588645Y-48431869D01*
X140592705Y-48457678D01*
X140601726Y-48482590D01*
X140615760Y-48505852D01*
X140634859Y-48526711D01*
X140649460Y-48538242D01*
X140670991Y-48549837D01*
X140695843Y-48557691D01*
X140721904Y-48561349D01*
X140747062Y-48560357D01*
X140750045Y-48559882D01*
X140776199Y-48552217D01*
X140800709Y-48539031D01*
X140822554Y-48521124D01*
X140840711Y-48499295D01*
X140851404Y-48480600D01*
X140858907Y-48458634D01*
X140862641Y-48433917D01*
X140862480Y-48408784D01*
X140858299Y-48385573D01*
X140856788Y-48380843D01*
X140844694Y-48353887D01*
X140828687Y-48331584D01*
X140808112Y-48313201D01*
X140783617Y-48298640D01*
X140774321Y-48294245D01*
X140766572Y-48291347D01*
X140758617Y-48289636D01*
X140748701Y-48288800D01*
X140735068Y-48288531D01*
X140726303Y-48288512D01*
X140710337Y-48288592D01*
G36*
X141494433Y-48288626D02*
G01*
X141482805Y-48289171D01*
X141473956Y-48290456D01*
X141466101Y-48292787D01*
X141457455Y-48296472D01*
X141453475Y-48298346D01*
X141428360Y-48313576D01*
X141407522Y-48332875D01*
X141391275Y-48355466D01*
X141379935Y-48380574D01*
X141373813Y-48407423D01*
X141373226Y-48435237D01*
X141378486Y-48463241D01*
X141382270Y-48474250D01*
X141395276Y-48499214D01*
X141412968Y-48520698D01*
X141434466Y-48538203D01*
X141458891Y-48551233D01*
X141485362Y-48559288D01*
X141513000Y-48561872D01*
X141533755Y-48559956D01*
X141560658Y-48552116D01*
X141585589Y-48538756D01*
X141607555Y-48520628D01*
X141625558Y-48498489D01*
X141633734Y-48484227D01*
X141638826Y-48473673D01*
X141642196Y-48465367D01*
X141644200Y-48457491D01*
X141645193Y-48448225D01*
X141645529Y-48435753D01*
X141645563Y-48423614D01*
X141645455Y-48407428D01*
X141644922Y-48395794D01*
X141643650Y-48386917D01*
X141641323Y-48378998D01*
X141637627Y-48370243D01*
X141635376Y-48365430D01*
X141620671Y-48341440D01*
X141601158Y-48320427D01*
X141578159Y-48303713D01*
X141568645Y-48298699D01*
X141558874Y-48294257D01*
X141550773Y-48291335D01*
X141542536Y-48289618D01*
X141532358Y-48288788D01*
X141518433Y-48288528D01*
X141510625Y-48288512D01*
X141494433Y-48288626D01*
G37*
X141494433Y-48288626D02*
X141482805Y-48289171D01*
X141473956Y-48290456D01*
X141466101Y-48292787D01*
X141457455Y-48296472D01*
X141453475Y-48298346D01*
X141428360Y-48313576D01*
X141407522Y-48332875D01*
X141391275Y-48355466D01*
X141379935Y-48380574D01*
X141373813Y-48407423D01*
X141373226Y-48435237D01*
X141378486Y-48463241D01*
X141382270Y-48474250D01*
X141395276Y-48499214D01*
X141412968Y-48520698D01*
X141434466Y-48538203D01*
X141458891Y-48551233D01*
X141485362Y-48559288D01*
X141513000Y-48561872D01*
X141533755Y-48559956D01*
X141560658Y-48552116D01*
X141585589Y-48538756D01*
X141607555Y-48520628D01*
X141625558Y-48498489D01*
X141633734Y-48484227D01*
X141638826Y-48473673D01*
X141642196Y-48465367D01*
X141644200Y-48457491D01*
X141645193Y-48448225D01*
X141645529Y-48435753D01*
X141645563Y-48423614D01*
X141645455Y-48407428D01*
X141644922Y-48395794D01*
X141643650Y-48386917D01*
X141641323Y-48378998D01*
X141637627Y-48370243D01*
X141635376Y-48365430D01*
X141620671Y-48341440D01*
X141601158Y-48320427D01*
X141578159Y-48303713D01*
X141568645Y-48298699D01*
X141558874Y-48294257D01*
X141550773Y-48291335D01*
X141542536Y-48289618D01*
X141532358Y-48288788D01*
X141518433Y-48288528D01*
X141510625Y-48288512D01*
X141494433Y-48288626D01*
G36*
X138146233Y-47431318D02*
G01*
X138128612Y-47431529D01*
X138114808Y-47432022D01*
X138103553Y-47432908D01*
X138093583Y-47434300D01*
X138083629Y-47436309D01*
X138072427Y-47439048D01*
X138067926Y-47440213D01*
X138039321Y-47448217D01*
X138014688Y-47456464D01*
X137991684Y-47465846D01*
X137967964Y-47477252D01*
X137961382Y-47480663D01*
X137916218Y-47507886D01*
X137874839Y-47539997D01*
X137837553Y-47576570D01*
X137804671Y-47617178D01*
X137776500Y-47661394D01*
X137753351Y-47708793D01*
X137735532Y-47758948D01*
X137723929Y-47808169D01*
X137718985Y-47849655D01*
X137718284Y-47893970D01*
X137721684Y-47939353D01*
X137729045Y-47984039D01*
X137740224Y-48026266D01*
X137741821Y-48031102D01*
X137761721Y-48080298D01*
X137786894Y-48126311D01*
X137816939Y-48168809D01*
X137851457Y-48207461D01*
X137890046Y-48241937D01*
X137932306Y-48271904D01*
X137977837Y-48297033D01*
X138026239Y-48316991D01*
X138077110Y-48331448D01*
X138112920Y-48337969D01*
X138130555Y-48339611D01*
X138152445Y-48340354D01*
X138176768Y-48340257D01*
X138201705Y-48339379D01*
X138225434Y-48337778D01*
X138246133Y-48335513D01*
X138259425Y-48333233D01*
X138291632Y-48324870D01*
X138324679Y-48313804D01*
X138356531Y-48300828D01*
X138385150Y-48286737D01*
X138398332Y-48279075D01*
X138411825Y-48270690D01*
X138411825Y-48386174D01*
X138411926Y-48417943D01*
X138412218Y-48446644D01*
X138412685Y-48471657D01*
X138413312Y-48492364D01*
X138414081Y-48508149D01*
X138414978Y-48518391D01*
X138415276Y-48520325D01*
X138423088Y-48547018D01*
X138435692Y-48570021D01*
X138452583Y-48588881D01*
X138473258Y-48603150D01*
X138497212Y-48612375D01*
X138522362Y-48616049D01*
X138539621Y-48615918D01*
X138554324Y-48614174D01*
X138560142Y-48612706D01*
X138584734Y-48601580D01*
X138606087Y-48585674D01*
X138623292Y-48565820D01*
X138634763Y-48544567D01*
X138642013Y-48526637D01*
X138642866Y-48037930D01*
X138642964Y-47969901D01*
X138643015Y-47906081D01*
X138643017Y-47873223D01*
X138411565Y-47873223D01*
X138411196Y-47887194D01*
X138410299Y-47905751D01*
X138408920Y-47920090D01*
X138406708Y-47932344D01*
X138403310Y-47944642D01*
X138400093Y-47954255D01*
X138386969Y-47986621D01*
X138371314Y-48014774D01*
X138351874Y-48040726D01*
X138334038Y-48059969D01*
X138307285Y-48084071D01*
X138280361Y-48102549D01*
X138252054Y-48116043D01*
X138221149Y-48125194D01*
X138204450Y-48128324D01*
X138189062Y-48129612D01*
X138169877Y-48129590D01*
X138149283Y-48128393D01*
X138129665Y-48126159D01*
X138113815Y-48123127D01*
X138095066Y-48116932D01*
X138073744Y-48107530D01*
X138051945Y-48096018D01*
X138031767Y-48083488D01*
X138017474Y-48072869D01*
X137992190Y-48048268D01*
X137970020Y-48019386D01*
X137951968Y-47987776D01*
X137939036Y-47954989D01*
X137937250Y-47948787D01*
X137932766Y-47925928D01*
X137930354Y-47899719D01*
X137930110Y-47872845D01*
X137932128Y-47847990D01*
X137933387Y-47840268D01*
X137941515Y-47807711D01*
X137953219Y-47778518D01*
X137969237Y-47751331D01*
X137990307Y-47724792D01*
X138003957Y-47710341D01*
X138017692Y-47696914D01*
X138029117Y-47686946D01*
X138040059Y-47679077D01*
X138052345Y-47671949D01*
X138062695Y-47666688D01*
X138085838Y-47656049D01*
X138106054Y-47648679D01*
X138125520Y-47644068D01*
X138146414Y-47641706D01*
X138170914Y-47641085D01*
X138172113Y-47641090D01*
X138198655Y-47642020D01*
X138221206Y-47644854D01*
X138241965Y-47650088D01*
X138263134Y-47658220D01*
X138277108Y-47664776D01*
X138309292Y-47683701D01*
X138337288Y-47706797D01*
X138361561Y-47734541D01*
X138382576Y-47767417D01*
X138389391Y-47780512D01*
X138398708Y-47800535D01*
X138405182Y-47817850D01*
X138409215Y-47834425D01*
X138411208Y-47852227D01*
X138411565Y-47873223D01*
X138643017Y-47873223D01*
X138643019Y-47846649D01*
X138642978Y-47791782D01*
X138642891Y-47741658D01*
X138642760Y-47696455D01*
X138642586Y-47656349D01*
X138642369Y-47621520D01*
X138642110Y-47592144D01*
X138641810Y-47568401D01*
X138641469Y-47550466D01*
X138641089Y-47538518D01*
X138640670Y-47532736D01*
X138640652Y-47532632D01*
X138633166Y-47507796D01*
X138620728Y-47485284D01*
X138604153Y-47466207D01*
X138584257Y-47451677D01*
X138579302Y-47449097D01*
X138553678Y-47439958D01*
X138527951Y-47436897D01*
X138502816Y-47439691D01*
X138478968Y-47448119D01*
X138457100Y-47461957D01*
X138437909Y-47480984D01*
X138425900Y-47498169D01*
X138423715Y-47500870D01*
X138420652Y-47501335D01*
X138415352Y-47499200D01*
X138406454Y-47494101D01*
X138403081Y-47492061D01*
X138369655Y-47474133D01*
X138332077Y-47458131D01*
X138292447Y-47444874D01*
X138261864Y-47437052D01*
X138250655Y-47434918D01*
X138238488Y-47433351D01*
X138224189Y-47432278D01*
X138206583Y-47431626D01*
X138184496Y-47431321D01*
X138168938Y-47431275D01*
X138146233Y-47431318D01*
G37*
X138146233Y-47431318D02*
X138128612Y-47431529D01*
X138114808Y-47432022D01*
X138103553Y-47432908D01*
X138093583Y-47434300D01*
X138083629Y-47436309D01*
X138072427Y-47439048D01*
X138067926Y-47440213D01*
X138039321Y-47448217D01*
X138014688Y-47456464D01*
X137991684Y-47465846D01*
X137967964Y-47477252D01*
X137961382Y-47480663D01*
X137916218Y-47507886D01*
X137874839Y-47539997D01*
X137837553Y-47576570D01*
X137804671Y-47617178D01*
X137776500Y-47661394D01*
X137753351Y-47708793D01*
X137735532Y-47758948D01*
X137723929Y-47808169D01*
X137718985Y-47849655D01*
X137718284Y-47893970D01*
X137721684Y-47939353D01*
X137729045Y-47984039D01*
X137740224Y-48026266D01*
X137741821Y-48031102D01*
X137761721Y-48080298D01*
X137786894Y-48126311D01*
X137816939Y-48168809D01*
X137851457Y-48207461D01*
X137890046Y-48241937D01*
X137932306Y-48271904D01*
X137977837Y-48297033D01*
X138026239Y-48316991D01*
X138077110Y-48331448D01*
X138112920Y-48337969D01*
X138130555Y-48339611D01*
X138152445Y-48340354D01*
X138176768Y-48340257D01*
X138201705Y-48339379D01*
X138225434Y-48337778D01*
X138246133Y-48335513D01*
X138259425Y-48333233D01*
X138291632Y-48324870D01*
X138324679Y-48313804D01*
X138356531Y-48300828D01*
X138385150Y-48286737D01*
X138398332Y-48279075D01*
X138411825Y-48270690D01*
X138411825Y-48386174D01*
X138411926Y-48417943D01*
X138412218Y-48446644D01*
X138412685Y-48471657D01*
X138413312Y-48492364D01*
X138414081Y-48508149D01*
X138414978Y-48518391D01*
X138415276Y-48520325D01*
X138423088Y-48547018D01*
X138435692Y-48570021D01*
X138452583Y-48588881D01*
X138473258Y-48603150D01*
X138497212Y-48612375D01*
X138522362Y-48616049D01*
X138539621Y-48615918D01*
X138554324Y-48614174D01*
X138560142Y-48612706D01*
X138584734Y-48601580D01*
X138606087Y-48585674D01*
X138623292Y-48565820D01*
X138634763Y-48544567D01*
X138642013Y-48526637D01*
X138642866Y-48037930D01*
X138642964Y-47969901D01*
X138643015Y-47906081D01*
X138643017Y-47873223D01*
X138411565Y-47873223D01*
X138411196Y-47887194D01*
X138410299Y-47905751D01*
X138408920Y-47920090D01*
X138406708Y-47932344D01*
X138403310Y-47944642D01*
X138400093Y-47954255D01*
X138386969Y-47986621D01*
X138371314Y-48014774D01*
X138351874Y-48040726D01*
X138334038Y-48059969D01*
X138307285Y-48084071D01*
X138280361Y-48102549D01*
X138252054Y-48116043D01*
X138221149Y-48125194D01*
X138204450Y-48128324D01*
X138189062Y-48129612D01*
X138169877Y-48129590D01*
X138149283Y-48128393D01*
X138129665Y-48126159D01*
X138113815Y-48123127D01*
X138095066Y-48116932D01*
X138073744Y-48107530D01*
X138051945Y-48096018D01*
X138031767Y-48083488D01*
X138017474Y-48072869D01*
X137992190Y-48048268D01*
X137970020Y-48019386D01*
X137951968Y-47987776D01*
X137939036Y-47954989D01*
X137937250Y-47948787D01*
X137932766Y-47925928D01*
X137930354Y-47899719D01*
X137930110Y-47872845D01*
X137932128Y-47847990D01*
X137933387Y-47840268D01*
X137941515Y-47807711D01*
X137953219Y-47778518D01*
X137969237Y-47751331D01*
X137990307Y-47724792D01*
X138003957Y-47710341D01*
X138017692Y-47696914D01*
X138029117Y-47686946D01*
X138040059Y-47679077D01*
X138052345Y-47671949D01*
X138062695Y-47666688D01*
X138085838Y-47656049D01*
X138106054Y-47648679D01*
X138125520Y-47644068D01*
X138146414Y-47641706D01*
X138170914Y-47641085D01*
X138172113Y-47641090D01*
X138198655Y-47642020D01*
X138221206Y-47644854D01*
X138241965Y-47650088D01*
X138263134Y-47658220D01*
X138277108Y-47664776D01*
X138309292Y-47683701D01*
X138337288Y-47706797D01*
X138361561Y-47734541D01*
X138382576Y-47767417D01*
X138389391Y-47780512D01*
X138398708Y-47800535D01*
X138405182Y-47817850D01*
X138409215Y-47834425D01*
X138411208Y-47852227D01*
X138411565Y-47873223D01*
X138643017Y-47873223D01*
X138643019Y-47846649D01*
X138642978Y-47791782D01*
X138642891Y-47741658D01*
X138642760Y-47696455D01*
X138642586Y-47656349D01*
X138642369Y-47621520D01*
X138642110Y-47592144D01*
X138641810Y-47568401D01*
X138641469Y-47550466D01*
X138641089Y-47538518D01*
X138640670Y-47532736D01*
X138640652Y-47532632D01*
X138633166Y-47507796D01*
X138620728Y-47485284D01*
X138604153Y-47466207D01*
X138584257Y-47451677D01*
X138579302Y-47449097D01*
X138553678Y-47439958D01*
X138527951Y-47436897D01*
X138502816Y-47439691D01*
X138478968Y-47448119D01*
X138457100Y-47461957D01*
X138437909Y-47480984D01*
X138425900Y-47498169D01*
X138423715Y-47500870D01*
X138420652Y-47501335D01*
X138415352Y-47499200D01*
X138406454Y-47494101D01*
X138403081Y-47492061D01*
X138369655Y-47474133D01*
X138332077Y-47458131D01*
X138292447Y-47444874D01*
X138261864Y-47437052D01*
X138250655Y-47434918D01*
X138238488Y-47433351D01*
X138224189Y-47432278D01*
X138206583Y-47431626D01*
X138184496Y-47431321D01*
X138168938Y-47431275D01*
X138146233Y-47431318D01*
G36*
X139565058Y-48381133D02*
G01*
X139539919Y-48390832D01*
X139519787Y-48403855D01*
X139501386Y-48421779D01*
X139485838Y-48443187D01*
X139474265Y-48466658D01*
X139470241Y-48479012D01*
X139465837Y-48506812D01*
X139467228Y-48533784D01*
X139473865Y-48559347D01*
X139485197Y-48582922D01*
X139500675Y-48603929D01*
X139519748Y-48621789D01*
X139541867Y-48635920D01*
X139566483Y-48645744D01*
X139593044Y-48650681D01*
X139621002Y-48650150D01*
X139631025Y-48648563D01*
X139655530Y-48640788D01*
X139679008Y-48627776D01*
X139700072Y-48610608D01*
X139717332Y-48590370D01*
X139726999Y-48573713D01*
X139737041Y-48545448D01*
X139741135Y-48516958D01*
X139739409Y-48488976D01*
X139731989Y-48462240D01*
X139719003Y-48437482D01*
X139700578Y-48415439D01*
X139699367Y-48414280D01*
X139675754Y-48396078D01*
X139649813Y-48383558D01*
X139622248Y-48376825D01*
X139593762Y-48375982D01*
X139565058Y-48381133D01*
G37*
X139565058Y-48381133D02*
X139539919Y-48390832D01*
X139519787Y-48403855D01*
X139501386Y-48421779D01*
X139485838Y-48443187D01*
X139474265Y-48466658D01*
X139470241Y-48479012D01*
X139465837Y-48506812D01*
X139467228Y-48533784D01*
X139473865Y-48559347D01*
X139485197Y-48582922D01*
X139500675Y-48603929D01*
X139519748Y-48621789D01*
X139541867Y-48635920D01*
X139566483Y-48645744D01*
X139593044Y-48650681D01*
X139621002Y-48650150D01*
X139631025Y-48648563D01*
X139655530Y-48640788D01*
X139679008Y-48627776D01*
X139700072Y-48610608D01*
X139717332Y-48590370D01*
X139726999Y-48573713D01*
X139737041Y-48545448D01*
X139741135Y-48516958D01*
X139739409Y-48488976D01*
X139731989Y-48462240D01*
X139719003Y-48437482D01*
X139700578Y-48415439D01*
X139699367Y-48414280D01*
X139675754Y-48396078D01*
X139649813Y-48383558D01*
X139622248Y-48376825D01*
X139593762Y-48375982D01*
X139565058Y-48381133D01*
G36*
X140334820Y-48379609D02*
G01*
X140310875Y-48387416D01*
X140288586Y-48399700D01*
X140268686Y-48416514D01*
X140251904Y-48437910D01*
X140243372Y-48453532D01*
X140233399Y-48481735D01*
X140229487Y-48510129D01*
X140231512Y-48538018D01*
X140239349Y-48564708D01*
X140252875Y-48589504D01*
X140271598Y-48611362D01*
X140288947Y-48626233D01*
X140305862Y-48636706D01*
X140324703Y-48644083D01*
X140336569Y-48647254D01*
X140356195Y-48650818D01*
X140373505Y-48651273D01*
X140391438Y-48648750D01*
X140420878Y-48639797D01*
X140446429Y-48625846D01*
X140467984Y-48606981D01*
X140485435Y-48583285D01*
X140492450Y-48569946D01*
X140500856Y-48544967D01*
X140504219Y-48517742D01*
X140502436Y-48490020D01*
X140498292Y-48471976D01*
X140487413Y-48445871D01*
X140472342Y-48423821D01*
X140453809Y-48405877D01*
X140432547Y-48392093D01*
X140409286Y-48382521D01*
X140384757Y-48377215D01*
X140359691Y-48376227D01*
X140334820Y-48379609D01*
G37*
X140334820Y-48379609D02*
X140310875Y-48387416D01*
X140288586Y-48399700D01*
X140268686Y-48416514D01*
X140251904Y-48437910D01*
X140243372Y-48453532D01*
X140233399Y-48481735D01*
X140229487Y-48510129D01*
X140231512Y-48538018D01*
X140239349Y-48564708D01*
X140252875Y-48589504D01*
X140271598Y-48611362D01*
X140288947Y-48626233D01*
X140305862Y-48636706D01*
X140324703Y-48644083D01*
X140336569Y-48647254D01*
X140356195Y-48650818D01*
X140373505Y-48651273D01*
X140391438Y-48648750D01*
X140420878Y-48639797D01*
X140446429Y-48625846D01*
X140467984Y-48606981D01*
X140485435Y-48583285D01*
X140492450Y-48569946D01*
X140500856Y-48544967D01*
X140504219Y-48517742D01*
X140502436Y-48490020D01*
X140498292Y-48471976D01*
X140487413Y-48445871D01*
X140472342Y-48423821D01*
X140453809Y-48405877D01*
X140432547Y-48392093D01*
X140409286Y-48382521D01*
X140384757Y-48377215D01*
X140359691Y-48376227D01*
X140334820Y-48379609D01*
G36*
X139974935Y-48418467D02*
G01*
X139962423Y-48421166D01*
X139959519Y-48422038D01*
X139933238Y-48433245D01*
X139911056Y-48448571D01*
X139893020Y-48467294D01*
X139879180Y-48488693D01*
X139869583Y-48512045D01*
X139864277Y-48536628D01*
X139863311Y-48561720D01*
X139866732Y-48586598D01*
X139874589Y-48610541D01*
X139886931Y-48632827D01*
X139903804Y-48652734D01*
X139925258Y-48669538D01*
X139942397Y-48678784D01*
X139952928Y-48682752D01*
X139966200Y-48686614D01*
X139980188Y-48689910D01*
X139992862Y-48692178D01*
X140002196Y-48692957D01*
X140004088Y-48692825D01*
X140009325Y-48692107D01*
X140016788Y-48691107D01*
X140044369Y-48684474D01*
X140069427Y-48672678D01*
X140091415Y-48656438D01*
X140109786Y-48636473D01*
X140123993Y-48613505D01*
X140133488Y-48588253D01*
X140137724Y-48561437D01*
X140136196Y-48534030D01*
X140128380Y-48504715D01*
X140115307Y-48478794D01*
X140097229Y-48456611D01*
X140074399Y-48438511D01*
X140060582Y-48430753D01*
X140048045Y-48424888D01*
X140037759Y-48421218D01*
X140027194Y-48419123D01*
X140013819Y-48417983D01*
X140007131Y-48417655D01*
X139989068Y-48417368D01*
X139974935Y-48418467D01*
G37*
X139974935Y-48418467D02*
X139962423Y-48421166D01*
X139959519Y-48422038D01*
X139933238Y-48433245D01*
X139911056Y-48448571D01*
X139893020Y-48467294D01*
X139879180Y-48488693D01*
X139869583Y-48512045D01*
X139864277Y-48536628D01*
X139863311Y-48561720D01*
X139866732Y-48586598D01*
X139874589Y-48610541D01*
X139886931Y-48632827D01*
X139903804Y-48652734D01*
X139925258Y-48669538D01*
X139942397Y-48678784D01*
X139952928Y-48682752D01*
X139966200Y-48686614D01*
X139980188Y-48689910D01*
X139992862Y-48692178D01*
X140002196Y-48692957D01*
X140004088Y-48692825D01*
X140009325Y-48692107D01*
X140016788Y-48691107D01*
X140044369Y-48684474D01*
X140069427Y-48672678D01*
X140091415Y-48656438D01*
X140109786Y-48636473D01*
X140123993Y-48613505D01*
X140133488Y-48588253D01*
X140137724Y-48561437D01*
X140136196Y-48534030D01*
X140128380Y-48504715D01*
X140115307Y-48478794D01*
X140097229Y-48456611D01*
X140074399Y-48438511D01*
X140060582Y-48430753D01*
X140048045Y-48424888D01*
X140037759Y-48421218D01*
X140027194Y-48419123D01*
X140013819Y-48417983D01*
X140007131Y-48417655D01*
X139989068Y-48417368D01*
X139974935Y-48418467D01*
G36*
X141929542Y-48418983D02*
G01*
X141911390Y-48423480D01*
X141885419Y-48435570D01*
X141863660Y-48451654D01*
X141846150Y-48471007D01*
X141832928Y-48492903D01*
X141824031Y-48516615D01*
X141819496Y-48541419D01*
X141819360Y-48566589D01*
X141823662Y-48591398D01*
X141832438Y-48615121D01*
X141845726Y-48637031D01*
X141863565Y-48656404D01*
X141885990Y-48672514D01*
X141898197Y-48678784D01*
X141908728Y-48682752D01*
X141922000Y-48686614D01*
X141935988Y-48689910D01*
X141948662Y-48692178D01*
X141957996Y-48692957D01*
X141959888Y-48692825D01*
X141965125Y-48692107D01*
X141972588Y-48691107D01*
X142000843Y-48684200D01*
X142027069Y-48671423D01*
X142050658Y-48653093D01*
X142056446Y-48647285D01*
X142073860Y-48624640D01*
X142085732Y-48600040D01*
X142092255Y-48574253D01*
X142093623Y-48548049D01*
X142090028Y-48522197D01*
X142081666Y-48497467D01*
X142068729Y-48474628D01*
X142051410Y-48454449D01*
X142029903Y-48437699D01*
X142004402Y-48425148D01*
X142000206Y-48423662D01*
X141977917Y-48418568D01*
X141953499Y-48417006D01*
X141929542Y-48418983D01*
G37*
X141929542Y-48418983D02*
X141911390Y-48423480D01*
X141885419Y-48435570D01*
X141863660Y-48451654D01*
X141846150Y-48471007D01*
X141832928Y-48492903D01*
X141824031Y-48516615D01*
X141819496Y-48541419D01*
X141819360Y-48566589D01*
X141823662Y-48591398D01*
X141832438Y-48615121D01*
X141845726Y-48637031D01*
X141863565Y-48656404D01*
X141885990Y-48672514D01*
X141898197Y-48678784D01*
X141908728Y-48682752D01*
X141922000Y-48686614D01*
X141935988Y-48689910D01*
X141948662Y-48692178D01*
X141957996Y-48692957D01*
X141959888Y-48692825D01*
X141965125Y-48692107D01*
X141972588Y-48691107D01*
X142000843Y-48684200D01*
X142027069Y-48671423D01*
X142050658Y-48653093D01*
X142056446Y-48647285D01*
X142073860Y-48624640D01*
X142085732Y-48600040D01*
X142092255Y-48574253D01*
X142093623Y-48548049D01*
X142090028Y-48522197D01*
X142081666Y-48497467D01*
X142068729Y-48474628D01*
X142051410Y-48454449D01*
X142029903Y-48437699D01*
X142004402Y-48425148D01*
X142000206Y-48423662D01*
X141977917Y-48418568D01*
X141953499Y-48417006D01*
X141929542Y-48418983D01*
G36*
X141048862Y-48469116D02*
G01*
X141023154Y-48475179D01*
X140998341Y-48486628D01*
X140975126Y-48503707D01*
X140973169Y-48505500D01*
X140953575Y-48527536D01*
X140939898Y-48551736D01*
X140931968Y-48578489D01*
X140929600Y-48606012D01*
X140932428Y-48635453D01*
X140940984Y-48662253D01*
X140955382Y-48686667D01*
X140974979Y-48708253D01*
X140996982Y-48724482D01*
X141022044Y-48736016D01*
X141048850Y-48742527D01*
X141076087Y-48743690D01*
X141101050Y-48739575D01*
X141127995Y-48729038D01*
X141151661Y-48713766D01*
X141171558Y-48694503D01*
X141187196Y-48671997D01*
X141198082Y-48646993D01*
X141203727Y-48620235D01*
X141203640Y-48592471D01*
X141202632Y-48585263D01*
X141195000Y-48557012D01*
X141182655Y-48532197D01*
X141166297Y-48511062D01*
X141146628Y-48493851D01*
X141124348Y-48480807D01*
X141100160Y-48472174D01*
X141074764Y-48468196D01*
X141048862Y-48469116D01*
G37*
X141048862Y-48469116D02*
X141023154Y-48475179D01*
X140998341Y-48486628D01*
X140975126Y-48503707D01*
X140973169Y-48505500D01*
X140953575Y-48527536D01*
X140939898Y-48551736D01*
X140931968Y-48578489D01*
X140929600Y-48606012D01*
X140932428Y-48635453D01*
X140940984Y-48662253D01*
X140955382Y-48686667D01*
X140974979Y-48708253D01*
X140996982Y-48724482D01*
X141022044Y-48736016D01*
X141048850Y-48742527D01*
X141076087Y-48743690D01*
X141101050Y-48739575D01*
X141127995Y-48729038D01*
X141151661Y-48713766D01*
X141171558Y-48694503D01*
X141187196Y-48671997D01*
X141198082Y-48646993D01*
X141203727Y-48620235D01*
X141203640Y-48592471D01*
X141202632Y-48585263D01*
X141195000Y-48557012D01*
X141182655Y-48532197D01*
X141166297Y-48511062D01*
X141146628Y-48493851D01*
X141124348Y-48480807D01*
X141100160Y-48472174D01*
X141074764Y-48468196D01*
X141048862Y-48469116D01*
G36*
X141340936Y-48593073D02*
G01*
X141315094Y-48601986D01*
X141291392Y-48615578D01*
X141279828Y-48624857D01*
X141260625Y-48646239D01*
X141246678Y-48670372D01*
X141238022Y-48696392D01*
X141234691Y-48723437D01*
X141236722Y-48750642D01*
X141244148Y-48777145D01*
X141257006Y-48802082D01*
X141271892Y-48821043D01*
X141293339Y-48839560D01*
X141317941Y-48853198D01*
X141344637Y-48861672D01*
X141372365Y-48864699D01*
X141400064Y-48861997D01*
X141412843Y-48858644D01*
X141438105Y-48848231D01*
X141459229Y-48834131D01*
X141473602Y-48820223D01*
X141490989Y-48796625D01*
X141502670Y-48771497D01*
X141508887Y-48745531D01*
X141509881Y-48719418D01*
X141505895Y-48693849D01*
X141497172Y-48669516D01*
X141483953Y-48647110D01*
X141466481Y-48627322D01*
X141444997Y-48610844D01*
X141419745Y-48598367D01*
X141393288Y-48590997D01*
X141367481Y-48589267D01*
X141340936Y-48593073D01*
G37*
X141340936Y-48593073D02*
X141315094Y-48601986D01*
X141291392Y-48615578D01*
X141279828Y-48624857D01*
X141260625Y-48646239D01*
X141246678Y-48670372D01*
X141238022Y-48696392D01*
X141234691Y-48723437D01*
X141236722Y-48750642D01*
X141244148Y-48777145D01*
X141257006Y-48802082D01*
X141271892Y-48821043D01*
X141293339Y-48839560D01*
X141317941Y-48853198D01*
X141344637Y-48861672D01*
X141372365Y-48864699D01*
X141400064Y-48861997D01*
X141412843Y-48858644D01*
X141438105Y-48848231D01*
X141459229Y-48834131D01*
X141473602Y-48820223D01*
X141490989Y-48796625D01*
X141502670Y-48771497D01*
X141508887Y-48745531D01*
X141509881Y-48719418D01*
X141505895Y-48693849D01*
X141497172Y-48669516D01*
X141483953Y-48647110D01*
X141466481Y-48627322D01*
X141444997Y-48610844D01*
X141419745Y-48598367D01*
X141393288Y-48590997D01*
X141367481Y-48589267D01*
X141340936Y-48593073D01*
G36*
X140615065Y-48610020D02*
G01*
X140591057Y-48617871D01*
X140568802Y-48629854D01*
X140548976Y-48645674D01*
X140532256Y-48665033D01*
X140519320Y-48687634D01*
X140510844Y-48713182D01*
X140507506Y-48741377D01*
X140507481Y-48744125D01*
X140510460Y-48773013D01*
X140519103Y-48800129D01*
X140532967Y-48824614D01*
X140551611Y-48845608D01*
X140565182Y-48856360D01*
X140590783Y-48870388D01*
X140618364Y-48878965D01*
X140646705Y-48881795D01*
X140664488Y-48880482D01*
X140692405Y-48873362D01*
X140717743Y-48860828D01*
X140739861Y-48843513D01*
X140758119Y-48822049D01*
X140771874Y-48797070D01*
X140780486Y-48769208D01*
X140781225Y-48765232D01*
X140782912Y-48737139D01*
X140778511Y-48709599D01*
X140768279Y-48683336D01*
X140752476Y-48659078D01*
X140737689Y-48643162D01*
X140715076Y-48625892D01*
X140690830Y-48614239D01*
X140665629Y-48607908D01*
X140640148Y-48606601D01*
X140615065Y-48610020D01*
G37*
X140615065Y-48610020D02*
X140591057Y-48617871D01*
X140568802Y-48629854D01*
X140548976Y-48645674D01*
X140532256Y-48665033D01*
X140519320Y-48687634D01*
X140510844Y-48713182D01*
X140507506Y-48741377D01*
X140507481Y-48744125D01*
X140510460Y-48773013D01*
X140519103Y-48800129D01*
X140532967Y-48824614D01*
X140551611Y-48845608D01*
X140565182Y-48856360D01*
X140590783Y-48870388D01*
X140618364Y-48878965D01*
X140646705Y-48881795D01*
X140664488Y-48880482D01*
X140692405Y-48873362D01*
X140717743Y-48860828D01*
X140739861Y-48843513D01*
X140758119Y-48822049D01*
X140771874Y-48797070D01*
X140780486Y-48769208D01*
X140781225Y-48765232D01*
X140782912Y-48737139D01*
X140778511Y-48709599D01*
X140768279Y-48683336D01*
X140752476Y-48659078D01*
X140737689Y-48643162D01*
X140715076Y-48625892D01*
X140690830Y-48614239D01*
X140665629Y-48607908D01*
X140640148Y-48606601D01*
X140615065Y-48610020D01*
G36*
X141641876Y-48698387D02*
G01*
X141615948Y-48708294D01*
X141598716Y-48718712D01*
X141577086Y-48737935D01*
X141560526Y-48760782D01*
X141549256Y-48786782D01*
X141543495Y-48815462D01*
X141542940Y-48838861D01*
X141544188Y-48855072D01*
X141546550Y-48867752D01*
X141550666Y-48879700D01*
X141553946Y-48887054D01*
X141569265Y-48912783D01*
X141588731Y-48933768D01*
X141612210Y-48949871D01*
X141616443Y-48952040D01*
X141640638Y-48962211D01*
X141662846Y-48967608D01*
X141684912Y-48968518D01*
X141705216Y-48965925D01*
X141732469Y-48957501D01*
X141757743Y-48943166D01*
X141774374Y-48929390D01*
X141793230Y-48907313D01*
X141806655Y-48882783D01*
X141814664Y-48856619D01*
X141817272Y-48829634D01*
X141814491Y-48802646D01*
X141806337Y-48776471D01*
X141792823Y-48751925D01*
X141773965Y-48729823D01*
X141770842Y-48726919D01*
X141748631Y-48710970D01*
X141723582Y-48700093D01*
X141696741Y-48694336D01*
X141669156Y-48693751D01*
X141641876Y-48698387D01*
G37*
X141641876Y-48698387D02*
X141615948Y-48708294D01*
X141598716Y-48718712D01*
X141577086Y-48737935D01*
X141560526Y-48760782D01*
X141549256Y-48786782D01*
X141543495Y-48815462D01*
X141542940Y-48838861D01*
X141544188Y-48855072D01*
X141546550Y-48867752D01*
X141550666Y-48879700D01*
X141553946Y-48887054D01*
X141569265Y-48912783D01*
X141588731Y-48933768D01*
X141612210Y-48949871D01*
X141616443Y-48952040D01*
X141640638Y-48962211D01*
X141662846Y-48967608D01*
X141684912Y-48968518D01*
X141705216Y-48965925D01*
X141732469Y-48957501D01*
X141757743Y-48943166D01*
X141774374Y-48929390D01*
X141793230Y-48907313D01*
X141806655Y-48882783D01*
X141814664Y-48856619D01*
X141817272Y-48829634D01*
X141814491Y-48802646D01*
X141806337Y-48776471D01*
X141792823Y-48751925D01*
X141773965Y-48729823D01*
X141770842Y-48726919D01*
X141748631Y-48710970D01*
X141723582Y-48700093D01*
X141696741Y-48694336D01*
X141669156Y-48693751D01*
X141641876Y-48698387D01*
G36*
X139795118Y-48728839D02*
G01*
X139766934Y-48733346D01*
X139740951Y-48743425D01*
X139717814Y-48758494D01*
X139698168Y-48777968D01*
X139682657Y-48801264D01*
X139671926Y-48827800D01*
X139668276Y-48843667D01*
X139666501Y-48871517D01*
X139670448Y-48898206D01*
X139679515Y-48923149D01*
X139693100Y-48945765D01*
X139710603Y-48965469D01*
X139731422Y-48981681D01*
X139754955Y-48993816D01*
X139780600Y-49001291D01*
X139807757Y-49003525D01*
X139830707Y-49001040D01*
X139857509Y-48992688D01*
X139882013Y-48979027D01*
X139903370Y-48960852D01*
X139920730Y-48938956D01*
X139933243Y-48914135D01*
X139937279Y-48901414D01*
X139941947Y-48871697D01*
X139940390Y-48843056D01*
X139932677Y-48815763D01*
X139918882Y-48790086D01*
X139902106Y-48769395D01*
X139880482Y-48750732D01*
X139856532Y-48737812D01*
X139829886Y-48730495D01*
X139800171Y-48728639D01*
X139795118Y-48728839D01*
G37*
X139795118Y-48728839D02*
X139766934Y-48733346D01*
X139740951Y-48743425D01*
X139717814Y-48758494D01*
X139698168Y-48777968D01*
X139682657Y-48801264D01*
X139671926Y-48827800D01*
X139668276Y-48843667D01*
X139666501Y-48871517D01*
X139670448Y-48898206D01*
X139679515Y-48923149D01*
X139693100Y-48945765D01*
X139710603Y-48965469D01*
X139731422Y-48981681D01*
X139754955Y-48993816D01*
X139780600Y-49001291D01*
X139807757Y-49003525D01*
X139830707Y-49001040D01*
X139857509Y-48992688D01*
X139882013Y-48979027D01*
X139903370Y-48960852D01*
X139920730Y-48938956D01*
X139933243Y-48914135D01*
X139937279Y-48901414D01*
X139941947Y-48871697D01*
X139940390Y-48843056D01*
X139932677Y-48815763D01*
X139918882Y-48790086D01*
X139902106Y-48769395D01*
X139880482Y-48750732D01*
X139856532Y-48737812D01*
X139829886Y-48730495D01*
X139800171Y-48728639D01*
X139795118Y-48728839D01*
G36*
X140295608Y-48729017D02*
G01*
X140268588Y-48734769D01*
X140243466Y-48745681D01*
X140220994Y-48761369D01*
X140201922Y-48781449D01*
X140187002Y-48805538D01*
X140180098Y-48822521D01*
X140174657Y-48847769D01*
X140174045Y-48874651D01*
X140178145Y-48901045D01*
X140185619Y-48922316D01*
X140200940Y-48948122D01*
X140220470Y-48969398D01*
X140243815Y-48985786D01*
X140264834Y-48995086D01*
X140286208Y-49000463D01*
X140308995Y-49002873D01*
X140330336Y-49002078D01*
X140336791Y-49001029D01*
X140364048Y-48992494D01*
X140388371Y-48979001D01*
X140409260Y-48961286D01*
X140426214Y-48940089D01*
X140438732Y-48916150D01*
X140446314Y-48890205D01*
X140448459Y-48862995D01*
X140445797Y-48840192D01*
X140436787Y-48810858D01*
X140422938Y-48785400D01*
X140404526Y-48764132D01*
X140381826Y-48747364D01*
X140355114Y-48735408D01*
X140352344Y-48734524D01*
X140323778Y-48728807D01*
X140295608Y-48729017D01*
G37*
X140295608Y-48729017D02*
X140268588Y-48734769D01*
X140243466Y-48745681D01*
X140220994Y-48761369D01*
X140201922Y-48781449D01*
X140187002Y-48805538D01*
X140180098Y-48822521D01*
X140174657Y-48847769D01*
X140174045Y-48874651D01*
X140178145Y-48901045D01*
X140185619Y-48922316D01*
X140200940Y-48948122D01*
X140220470Y-48969398D01*
X140243815Y-48985786D01*
X140264834Y-48995086D01*
X140286208Y-49000463D01*
X140308995Y-49002873D01*
X140330336Y-49002078D01*
X140336791Y-49001029D01*
X140364048Y-48992494D01*
X140388371Y-48979001D01*
X140409260Y-48961286D01*
X140426214Y-48940089D01*
X140438732Y-48916150D01*
X140446314Y-48890205D01*
X140448459Y-48862995D01*
X140445797Y-48840192D01*
X140436787Y-48810858D01*
X140422938Y-48785400D01*
X140404526Y-48764132D01*
X140381826Y-48747364D01*
X140355114Y-48735408D01*
X140352344Y-48734524D01*
X140323778Y-48728807D01*
X140295608Y-48729017D01*
G36*
X140919424Y-48789092D02*
G01*
X140892005Y-48797031D01*
X140885976Y-48799627D01*
X140860472Y-48814617D01*
X140839313Y-48834209D01*
X140827939Y-48849380D01*
X140815152Y-48874530D01*
X140807987Y-48900896D01*
X140806162Y-48927677D01*
X140809399Y-48954075D01*
X140817417Y-48979290D01*
X140829936Y-49002524D01*
X140846677Y-49022977D01*
X140867360Y-49039850D01*
X140891704Y-49052343D01*
X140900025Y-49055225D01*
X140921302Y-49059819D01*
X140944257Y-49061463D01*
X140966454Y-49060138D01*
X140985204Y-49055913D01*
X141011970Y-49043623D01*
X141035044Y-49026915D01*
X141053977Y-49006510D01*
X141068324Y-48983126D01*
X141077637Y-48957481D01*
X141081468Y-48930296D01*
X141079675Y-48903992D01*
X141071909Y-48875796D01*
X141059242Y-48850801D01*
X141042372Y-48829381D01*
X141021997Y-48811914D01*
X140998817Y-48798775D01*
X140973529Y-48790341D01*
X140946832Y-48786988D01*
X140919424Y-48789092D01*
G37*
X140919424Y-48789092D02*
X140892005Y-48797031D01*
X140885976Y-48799627D01*
X140860472Y-48814617D01*
X140839313Y-48834209D01*
X140827939Y-48849380D01*
X140815152Y-48874530D01*
X140807987Y-48900896D01*
X140806162Y-48927677D01*
X140809399Y-48954075D01*
X140817417Y-48979290D01*
X140829936Y-49002524D01*
X140846677Y-49022977D01*
X140867360Y-49039850D01*
X140891704Y-49052343D01*
X140900025Y-49055225D01*
X140921302Y-49059819D01*
X140944257Y-49061463D01*
X140966454Y-49060138D01*
X140985204Y-49055913D01*
X141011970Y-49043623D01*
X141035044Y-49026915D01*
X141053977Y-49006510D01*
X141068324Y-48983126D01*
X141077637Y-48957481D01*
X141081468Y-48930296D01*
X141079675Y-48903992D01*
X141071909Y-48875796D01*
X141059242Y-48850801D01*
X141042372Y-48829381D01*
X141021997Y-48811914D01*
X140998817Y-48798775D01*
X140973529Y-48790341D01*
X140946832Y-48786988D01*
X140919424Y-48789092D01*
G36*
X141349487Y-48929931D02*
G01*
X141324416Y-48939175D01*
X141301520Y-48953032D01*
X141281565Y-48971206D01*
X141265316Y-48993398D01*
X141253537Y-49019308D01*
X141251805Y-49024840D01*
X141247402Y-49049898D01*
X141247736Y-49076542D01*
X141252631Y-49102468D01*
X141259001Y-49119650D01*
X141273923Y-49144660D01*
X141292953Y-49165564D01*
X141315303Y-49181979D01*
X141340187Y-49193526D01*
X141366817Y-49199824D01*
X141394404Y-49200491D01*
X141417711Y-49196430D01*
X141445850Y-49185748D01*
X141470295Y-49170103D01*
X141490600Y-49149988D01*
X141506318Y-49125896D01*
X141517001Y-49098321D01*
X141520377Y-49083018D01*
X141521842Y-49055867D01*
X141517540Y-49028801D01*
X141507977Y-49002906D01*
X141493657Y-48979266D01*
X141475084Y-48958967D01*
X141456213Y-48945078D01*
X141430095Y-48932876D01*
X141403092Y-48926483D01*
X141375967Y-48925601D01*
X141349487Y-48929931D01*
G37*
X141349487Y-48929931D02*
X141324416Y-48939175D01*
X141301520Y-48953032D01*
X141281565Y-48971206D01*
X141265316Y-48993398D01*
X141253537Y-49019308D01*
X141251805Y-49024840D01*
X141247402Y-49049898D01*
X141247736Y-49076542D01*
X141252631Y-49102468D01*
X141259001Y-49119650D01*
X141273923Y-49144660D01*
X141292953Y-49165564D01*
X141315303Y-49181979D01*
X141340187Y-49193526D01*
X141366817Y-49199824D01*
X141394404Y-49200491D01*
X141417711Y-49196430D01*
X141445850Y-49185748D01*
X141470295Y-49170103D01*
X141490600Y-49149988D01*
X141506318Y-49125896D01*
X141517001Y-49098321D01*
X141520377Y-49083018D01*
X141521842Y-49055867D01*
X141517540Y-49028801D01*
X141507977Y-49002906D01*
X141493657Y-48979266D01*
X141475084Y-48958967D01*
X141456213Y-48945078D01*
X141430095Y-48932876D01*
X141403092Y-48926483D01*
X141375967Y-48925601D01*
X141349487Y-48929931D01*
G36*
X140065152Y-48952789D02*
G01*
X140038963Y-48960222D01*
X140014425Y-48973082D01*
X140004584Y-48980331D01*
X139984558Y-49000485D01*
X139969177Y-49024176D01*
X139958761Y-49050371D01*
X139953628Y-49078033D01*
X139954097Y-49106127D01*
X139958865Y-49128688D01*
X139969891Y-49154168D01*
X139986152Y-49177184D01*
X140006702Y-49196742D01*
X140030599Y-49211847D01*
X140042897Y-49217192D01*
X140061639Y-49222266D01*
X140082875Y-49224954D01*
X140103881Y-49225072D01*
X140121695Y-49222498D01*
X140150158Y-49212156D01*
X140175039Y-49196756D01*
X140195892Y-49176655D01*
X140212271Y-49152210D01*
X140214046Y-49148737D01*
X140219876Y-49136194D01*
X140223533Y-49125699D01*
X140225651Y-49114688D01*
X140226865Y-49100597D01*
X140227124Y-49095847D01*
X140226334Y-49067227D01*
X140220644Y-49041715D01*
X140209743Y-49018032D01*
X140207243Y-49013929D01*
X140189792Y-48991887D01*
X140168665Y-48974390D01*
X140144749Y-48961585D01*
X140118933Y-48953618D01*
X140092105Y-48950637D01*
X140065152Y-48952789D01*
G37*
X140065152Y-48952789D02*
X140038963Y-48960222D01*
X140014425Y-48973082D01*
X140004584Y-48980331D01*
X139984558Y-49000485D01*
X139969177Y-49024176D01*
X139958761Y-49050371D01*
X139953628Y-49078033D01*
X139954097Y-49106127D01*
X139958865Y-49128688D01*
X139969891Y-49154168D01*
X139986152Y-49177184D01*
X140006702Y-49196742D01*
X140030599Y-49211847D01*
X140042897Y-49217192D01*
X140061639Y-49222266D01*
X140082875Y-49224954D01*
X140103881Y-49225072D01*
X140121695Y-49222498D01*
X140150158Y-49212156D01*
X140175039Y-49196756D01*
X140195892Y-49176655D01*
X140212271Y-49152210D01*
X140214046Y-49148737D01*
X140219876Y-49136194D01*
X140223533Y-49125699D01*
X140225651Y-49114688D01*
X140226865Y-49100597D01*
X140227124Y-49095847D01*
X140226334Y-49067227D01*
X140220644Y-49041715D01*
X140209743Y-49018032D01*
X140207243Y-49013929D01*
X140189792Y-48991887D01*
X140168665Y-48974390D01*
X140144749Y-48961585D01*
X140118933Y-48953618D01*
X140092105Y-48950637D01*
X140065152Y-48952789D01*
G36*
X140374287Y-49101419D02*
G01*
X140349267Y-49109877D01*
X140325815Y-49123392D01*
X140304675Y-49142023D01*
X140290892Y-49159237D01*
X140277782Y-49183622D01*
X140270229Y-49209789D01*
X140268049Y-49236808D01*
X140271059Y-49263747D01*
X140279076Y-49289676D01*
X140291915Y-49313662D01*
X140309393Y-49334775D01*
X140328577Y-49350313D01*
X140351992Y-49362287D01*
X140378370Y-49369764D01*
X140405961Y-49372505D01*
X140433017Y-49370272D01*
X140447756Y-49366609D01*
X140474528Y-49355078D01*
X140497264Y-49338787D01*
X140516238Y-49317498D01*
X140530550Y-49293400D01*
X140534953Y-49284034D01*
X140537851Y-49276226D01*
X140539557Y-49268206D01*
X140540384Y-49258202D01*
X140540646Y-49244446D01*
X140540663Y-49236250D01*
X140540550Y-49220066D01*
X140540005Y-49208436D01*
X140538717Y-49199563D01*
X140536374Y-49191652D01*
X140532665Y-49182907D01*
X140530699Y-49178708D01*
X140515578Y-49153465D01*
X140496806Y-49132856D01*
X140475131Y-49116940D01*
X140451295Y-49105777D01*
X140426046Y-49099430D01*
X140400128Y-49097956D01*
X140374287Y-49101419D01*
G37*
X140374287Y-49101419D02*
X140349267Y-49109877D01*
X140325815Y-49123392D01*
X140304675Y-49142023D01*
X140290892Y-49159237D01*
X140277782Y-49183622D01*
X140270229Y-49209789D01*
X140268049Y-49236808D01*
X140271059Y-49263747D01*
X140279076Y-49289676D01*
X140291915Y-49313662D01*
X140309393Y-49334775D01*
X140328577Y-49350313D01*
X140351992Y-49362287D01*
X140378370Y-49369764D01*
X140405961Y-49372505D01*
X140433017Y-49370272D01*
X140447756Y-49366609D01*
X140474528Y-49355078D01*
X140497264Y-49338787D01*
X140516238Y-49317498D01*
X140530550Y-49293400D01*
X140534953Y-49284034D01*
X140537851Y-49276226D01*
X140539557Y-49268206D01*
X140540384Y-49258202D01*
X140540646Y-49244446D01*
X140540663Y-49236250D01*
X140540550Y-49220066D01*
X140540005Y-49208436D01*
X140538717Y-49199563D01*
X140536374Y-49191652D01*
X140532665Y-49182907D01*
X140530699Y-49178708D01*
X140515578Y-49153465D01*
X140496806Y-49132856D01*
X140475131Y-49116940D01*
X140451295Y-49105777D01*
X140426046Y-49099430D01*
X140400128Y-49097956D01*
X140374287Y-49101419D01*
G36*
X141056914Y-49101452D02*
G01*
X141031851Y-49110068D01*
X141008672Y-49123567D01*
X140988137Y-49141806D01*
X140971009Y-49164638D01*
X140963526Y-49178653D01*
X140955120Y-49203632D01*
X140951757Y-49230857D01*
X140953540Y-49258579D01*
X140957684Y-49276623D01*
X140968747Y-49302604D01*
X140984882Y-49325666D01*
X141005253Y-49344963D01*
X141029022Y-49359648D01*
X141046418Y-49366481D01*
X141064608Y-49370466D01*
X141085090Y-49372361D01*
X141105401Y-49372112D01*
X141123081Y-49369662D01*
X141128038Y-49368323D01*
X141155076Y-49356541D01*
X141178683Y-49339747D01*
X141198290Y-49318600D01*
X141213326Y-49293756D01*
X141223221Y-49265873D01*
X141225259Y-49256131D01*
X141226826Y-49229241D01*
X141222543Y-49202257D01*
X141212795Y-49176290D01*
X141197968Y-49152450D01*
X141183824Y-49136709D01*
X141160768Y-49118730D01*
X141135787Y-49106359D01*
X141109644Y-49099453D01*
X141083099Y-49097866D01*
X141056914Y-49101452D01*
G37*
X141056914Y-49101452D02*
X141031851Y-49110068D01*
X141008672Y-49123567D01*
X140988137Y-49141806D01*
X140971009Y-49164638D01*
X140963526Y-49178653D01*
X140955120Y-49203632D01*
X140951757Y-49230857D01*
X140953540Y-49258579D01*
X140957684Y-49276623D01*
X140968747Y-49302604D01*
X140984882Y-49325666D01*
X141005253Y-49344963D01*
X141029022Y-49359648D01*
X141046418Y-49366481D01*
X141064608Y-49370466D01*
X141085090Y-49372361D01*
X141105401Y-49372112D01*
X141123081Y-49369662D01*
X141128038Y-49368323D01*
X141155076Y-49356541D01*
X141178683Y-49339747D01*
X141198290Y-49318600D01*
X141213326Y-49293756D01*
X141223221Y-49265873D01*
X141225259Y-49256131D01*
X141226826Y-49229241D01*
X141222543Y-49202257D01*
X141212795Y-49176290D01*
X141197968Y-49152450D01*
X141183824Y-49136709D01*
X141160768Y-49118730D01*
X141135787Y-49106359D01*
X141109644Y-49099453D01*
X141083099Y-49097866D01*
X141056914Y-49101452D01*
G36*
X140724859Y-49125684D02*
G01*
X140709666Y-49126619D01*
X140698281Y-49128269D01*
X140688163Y-49131259D01*
X140676771Y-49136211D01*
X140671494Y-49138778D01*
X140646819Y-49154298D01*
X140626544Y-49173859D01*
X140610946Y-49196674D01*
X140600302Y-49221954D01*
X140594888Y-49248913D01*
X140594981Y-49276762D01*
X140600857Y-49304714D01*
X140607369Y-49321414D01*
X140616359Y-49336584D01*
X140629038Y-49352563D01*
X140643483Y-49367183D01*
X140657774Y-49378279D01*
X140657801Y-49378296D01*
X140681577Y-49390003D01*
X140707913Y-49397185D01*
X140734909Y-49399499D01*
X140760091Y-49396733D01*
X140788340Y-49387398D01*
X140813155Y-49373096D01*
X140834047Y-49354430D01*
X140850532Y-49332003D01*
X140862122Y-49306415D01*
X140868331Y-49278270D01*
X140869275Y-49261650D01*
X140866260Y-49232542D01*
X140857532Y-49205512D01*
X140843565Y-49181215D01*
X140824835Y-49160305D01*
X140801816Y-49143437D01*
X140774984Y-49131266D01*
X140774569Y-49131127D01*
X140762509Y-49127649D01*
X140751022Y-49125806D01*
X140737608Y-49125322D01*
X140724859Y-49125684D01*
G37*
X140724859Y-49125684D02*
X140709666Y-49126619D01*
X140698281Y-49128269D01*
X140688163Y-49131259D01*
X140676771Y-49136211D01*
X140671494Y-49138778D01*
X140646819Y-49154298D01*
X140626544Y-49173859D01*
X140610946Y-49196674D01*
X140600302Y-49221954D01*
X140594888Y-49248913D01*
X140594981Y-49276762D01*
X140600857Y-49304714D01*
X140607369Y-49321414D01*
X140616359Y-49336584D01*
X140629038Y-49352563D01*
X140643483Y-49367183D01*
X140657774Y-49378279D01*
X140657801Y-49378296D01*
X140681577Y-49390003D01*
X140707913Y-49397185D01*
X140734909Y-49399499D01*
X140760091Y-49396733D01*
X140788340Y-49387398D01*
X140813155Y-49373096D01*
X140834047Y-49354430D01*
X140850532Y-49332003D01*
X140862122Y-49306415D01*
X140868331Y-49278270D01*
X140869275Y-49261650D01*
X140866260Y-49232542D01*
X140857532Y-49205512D01*
X140843565Y-49181215D01*
X140824835Y-49160305D01*
X140801816Y-49143437D01*
X140774984Y-49131266D01*
X140774569Y-49131127D01*
X140762509Y-49127649D01*
X140751022Y-49125806D01*
X140737608Y-49125322D01*
X140724859Y-49125684D01*
G36*
X139180312Y-48486923D02*
G01*
X139159046Y-48496665D01*
X139140374Y-48511125D01*
X139125202Y-48530066D01*
X139119668Y-48540176D01*
X139113530Y-48558774D01*
X139110770Y-48580286D01*
X139111481Y-48602186D01*
X139115760Y-48621952D01*
X139116499Y-48624009D01*
X139121164Y-48635216D01*
X139128332Y-48650970D01*
X139137483Y-48670235D01*
X139148095Y-48691972D01*
X139159648Y-48715146D01*
X139171620Y-48738720D01*
X139183492Y-48761656D01*
X139194741Y-48782919D01*
X139204847Y-48801470D01*
X139211940Y-48813975D01*
X139268107Y-48904150D01*
X139329170Y-48990337D01*
X139394968Y-49072385D01*
X139465339Y-49150144D01*
X139540123Y-49223464D01*
X139619157Y-49292194D01*
X139702281Y-49356183D01*
X139789332Y-49415281D01*
X139880150Y-49469338D01*
X139959638Y-49510941D01*
X140055722Y-49555027D01*
X140152286Y-49592919D01*
X140249640Y-49624685D01*
X140348099Y-49650391D01*
X140447975Y-49670105D01*
X140549582Y-49683894D01*
X140653231Y-49691825D01*
X140759236Y-49693965D01*
X140808950Y-49693020D01*
X140910926Y-49686710D01*
X141012942Y-49674138D01*
X141114618Y-49655382D01*
X141215573Y-49630516D01*
X141315428Y-49599615D01*
X141359960Y-49583740D01*
X141457848Y-49544031D01*
X141552760Y-49498777D01*
X141644504Y-49448139D01*
X141732888Y-49392280D01*
X141817719Y-49331361D01*
X141898806Y-49265544D01*
X141975955Y-49194992D01*
X142048975Y-49119865D01*
X142117674Y-49040327D01*
X142181859Y-48956539D01*
X142241338Y-48868662D01*
X142275656Y-48812387D01*
X142285426Y-48795202D01*
X142296390Y-48775091D01*
X142308047Y-48753053D01*
X142319894Y-48730091D01*
X142331431Y-48707204D01*
X142342155Y-48685393D01*
X142351565Y-48665659D01*
X142359161Y-48649002D01*
X142364439Y-48636423D01*
X142366014Y-48632095D01*
X142370888Y-48607817D01*
X142369899Y-48583551D01*
X142363460Y-48560268D01*
X142351987Y-48538935D01*
X142335892Y-48520521D01*
X142315591Y-48505996D01*
X142311121Y-48503672D01*
X142290047Y-48496604D01*
X142266868Y-48494380D01*
X142243594Y-48497007D01*
X142224531Y-48503384D01*
X142214458Y-48508468D01*
X142205711Y-48514073D01*
X142197752Y-48520921D01*
X142190043Y-48529730D01*
X142182048Y-48541220D01*
X142173229Y-48556111D01*
X142163047Y-48575124D01*
X142150967Y-48598977D01*
X142146635Y-48607704D01*
X142135004Y-48630779D01*
X142122383Y-48655078D01*
X142109625Y-48679010D01*
X142097582Y-48700981D01*
X142087110Y-48719399D01*
X142083831Y-48724948D01*
X142030218Y-48808329D01*
X141971771Y-48887735D01*
X141908723Y-48962994D01*
X141841310Y-49033931D01*
X141769767Y-49100372D01*
X141694329Y-49162143D01*
X141615232Y-49219070D01*
X141532709Y-49270980D01*
X141446997Y-49317697D01*
X141358331Y-49359048D01*
X141266945Y-49394859D01*
X141173075Y-49424956D01*
X141118513Y-49439496D01*
X141021246Y-49460325D01*
X140923678Y-49474889D01*
X140826060Y-49483251D01*
X140728646Y-49485473D01*
X140631686Y-49481615D01*
X140535433Y-49471740D01*
X140440139Y-49455910D01*
X140346056Y-49434185D01*
X140253436Y-49406628D01*
X140162532Y-49373301D01*
X140073594Y-49334265D01*
X139986876Y-49289581D01*
X139902629Y-49239312D01*
X139821106Y-49183519D01*
X139742558Y-49122265D01*
X139710400Y-49094823D01*
X139691500Y-49077657D01*
X139669758Y-49056901D01*
X139646244Y-49033659D01*
X139622025Y-49009031D01*
X139598169Y-48984119D01*
X139575744Y-48960026D01*
X139555816Y-48937852D01*
X139539455Y-48918699D01*
X139538106Y-48917053D01*
X139482063Y-48844316D01*
X139430314Y-48768842D01*
X139383451Y-48691574D01*
X139342068Y-48613458D01*
X139326095Y-48579816D01*
X139315590Y-48557400D01*
X139306784Y-48539988D01*
X139299071Y-48526667D01*
X139291847Y-48516524D01*
X139284508Y-48508645D01*
X139276449Y-48502118D01*
X139273205Y-48499890D01*
X139250618Y-48488383D01*
X139227003Y-48482544D01*
X139203266Y-48482137D01*
X139180312Y-48486923D01*
G37*
X139180312Y-48486923D02*
X139159046Y-48496665D01*
X139140374Y-48511125D01*
X139125202Y-48530066D01*
X139119668Y-48540176D01*
X139113530Y-48558774D01*
X139110770Y-48580286D01*
X139111481Y-48602186D01*
X139115760Y-48621952D01*
X139116499Y-48624009D01*
X139121164Y-48635216D01*
X139128332Y-48650970D01*
X139137483Y-48670235D01*
X139148095Y-48691972D01*
X139159648Y-48715146D01*
X139171620Y-48738720D01*
X139183492Y-48761656D01*
X139194741Y-48782919D01*
X139204847Y-48801470D01*
X139211940Y-48813975D01*
X139268107Y-48904150D01*
X139329170Y-48990337D01*
X139394968Y-49072385D01*
X139465339Y-49150144D01*
X139540123Y-49223464D01*
X139619157Y-49292194D01*
X139702281Y-49356183D01*
X139789332Y-49415281D01*
X139880150Y-49469338D01*
X139959638Y-49510941D01*
X140055722Y-49555027D01*
X140152286Y-49592919D01*
X140249640Y-49624685D01*
X140348099Y-49650391D01*
X140447975Y-49670105D01*
X140549582Y-49683894D01*
X140653231Y-49691825D01*
X140759236Y-49693965D01*
X140808950Y-49693020D01*
X140910926Y-49686710D01*
X141012942Y-49674138D01*
X141114618Y-49655382D01*
X141215573Y-49630516D01*
X141315428Y-49599615D01*
X141359960Y-49583740D01*
X141457848Y-49544031D01*
X141552760Y-49498777D01*
X141644504Y-49448139D01*
X141732888Y-49392280D01*
X141817719Y-49331361D01*
X141898806Y-49265544D01*
X141975955Y-49194992D01*
X142048975Y-49119865D01*
X142117674Y-49040327D01*
X142181859Y-48956539D01*
X142241338Y-48868662D01*
X142275656Y-48812387D01*
X142285426Y-48795202D01*
X142296390Y-48775091D01*
X142308047Y-48753053D01*
X142319894Y-48730091D01*
X142331431Y-48707204D01*
X142342155Y-48685393D01*
X142351565Y-48665659D01*
X142359161Y-48649002D01*
X142364439Y-48636423D01*
X142366014Y-48632095D01*
X142370888Y-48607817D01*
X142369899Y-48583551D01*
X142363460Y-48560268D01*
X142351987Y-48538935D01*
X142335892Y-48520521D01*
X142315591Y-48505996D01*
X142311121Y-48503672D01*
X142290047Y-48496604D01*
X142266868Y-48494380D01*
X142243594Y-48497007D01*
X142224531Y-48503384D01*
X142214458Y-48508468D01*
X142205711Y-48514073D01*
X142197752Y-48520921D01*
X142190043Y-48529730D01*
X142182048Y-48541220D01*
X142173229Y-48556111D01*
X142163047Y-48575124D01*
X142150967Y-48598977D01*
X142146635Y-48607704D01*
X142135004Y-48630779D01*
X142122383Y-48655078D01*
X142109625Y-48679010D01*
X142097582Y-48700981D01*
X142087110Y-48719399D01*
X142083831Y-48724948D01*
X142030218Y-48808329D01*
X141971771Y-48887735D01*
X141908723Y-48962994D01*
X141841310Y-49033931D01*
X141769767Y-49100372D01*
X141694329Y-49162143D01*
X141615232Y-49219070D01*
X141532709Y-49270980D01*
X141446997Y-49317697D01*
X141358331Y-49359048D01*
X141266945Y-49394859D01*
X141173075Y-49424956D01*
X141118513Y-49439496D01*
X141021246Y-49460325D01*
X140923678Y-49474889D01*
X140826060Y-49483251D01*
X140728646Y-49485473D01*
X140631686Y-49481615D01*
X140535433Y-49471740D01*
X140440139Y-49455910D01*
X140346056Y-49434185D01*
X140253436Y-49406628D01*
X140162532Y-49373301D01*
X140073594Y-49334265D01*
X139986876Y-49289581D01*
X139902629Y-49239312D01*
X139821106Y-49183519D01*
X139742558Y-49122265D01*
X139710400Y-49094823D01*
X139691500Y-49077657D01*
X139669758Y-49056901D01*
X139646244Y-49033659D01*
X139622025Y-49009031D01*
X139598169Y-48984119D01*
X139575744Y-48960026D01*
X139555816Y-48937852D01*
X139539455Y-48918699D01*
X139538106Y-48917053D01*
X139482063Y-48844316D01*
X139430314Y-48768842D01*
X139383451Y-48691574D01*
X139342068Y-48613458D01*
X139326095Y-48579816D01*
X139315590Y-48557400D01*
X139306784Y-48539988D01*
X139299071Y-48526667D01*
X139291847Y-48516524D01*
X139284508Y-48508645D01*
X139276449Y-48502118D01*
X139273205Y-48499890D01*
X139250618Y-48488383D01*
X139227003Y-48482544D01*
X139203266Y-48482137D01*
X139180312Y-48486923D01*
D10*
%TO.C,C41*%
X149331600Y-57495100D02*
X149331600Y-57745100D01*
X148371600Y-57495100D02*
X148371600Y-57745100D01*
%TO.C,C37*%
X147840400Y-57513300D02*
X147840400Y-57763300D01*
X146880400Y-57513300D02*
X146880400Y-57763300D01*
%TD*%
M02*
