%TF.GenerationSoftware,KiCad,Pcbnew,(5.1.6)-1*%
%TF.CreationDate,2020-08-10T23:05:38-07:00*%
%TF.ProjectId,Wire-Free-DAQ,57697265-2d46-4726-9565-2d4441512e6b,rev?*%
%TF.SameCoordinates,Original*%
%TF.FileFunction,Copper,L3,Inr*%
%TF.FilePolarity,Positive*%
%FSLAX46Y46*%
G04 Gerber Fmt 4.6, Leading zero omitted, Abs format (unit mm)*
G04 Created by KiCad (PCBNEW (5.1.6)-1) date 2020-08-10 23:05:38*
%MOMM*%
%LPD*%
G01*
G04 APERTURE LIST*
%TA.AperFunction,ViaPad*%
%ADD10C,0.450000*%
%TD*%
%TA.AperFunction,Conductor*%
%ADD11C,0.152400*%
%TD*%
%TA.AperFunction,Conductor*%
%ADD12C,0.127000*%
%TD*%
G04 APERTURE END LIST*
D10*
%TO.N,GND*%
X140066000Y-50919000D03*
X129601196Y-46728000D03*
X141666200Y-54398800D03*
X135468600Y-48683800D03*
X135468600Y-47896400D03*
X124394401Y-59863311D03*
X130007600Y-52417600D03*
X148829000Y-59199400D03*
X147355800Y-59174000D03*
X123560922Y-59829130D03*
X130414000Y-55592600D03*
X143250000Y-59750000D03*
X121716800Y-48768000D03*
X127584200Y-58242200D03*
X124206000Y-50571400D03*
X126796800Y-45339000D03*
X126796800Y-49936400D03*
X137210800Y-45745400D03*
X148818600Y-63246000D03*
X145872200Y-63246000D03*
X143060800Y-56151400D03*
X144170400Y-57327800D03*
X144526000Y-47244000D03*
X143205200Y-61087000D03*
X144272000Y-63500000D03*
X138277600Y-63500000D03*
X133299200Y-63500000D03*
X128375190Y-54991000D03*
X122809000Y-58242200D03*
X120650000Y-54356000D03*
X121310400Y-58140600D03*
X120726200Y-52628800D03*
X125207000Y-59834400D03*
X139304000Y-45458000D03*
X136764000Y-63492000D03*
X143985200Y-52341400D03*
X143959800Y-53509800D03*
X138303000Y-57200800D03*
X136525000Y-57200800D03*
X138303000Y-55422800D03*
X136499600Y-55448200D03*
X134747000Y-55422800D03*
X134721600Y-57226200D03*
X134696200Y-59004200D03*
X136499600Y-59004200D03*
X138303000Y-59029600D03*
X121716800Y-49352200D03*
X147559000Y-44619800D03*
X144855052Y-45997900D03*
%TO.N,/Deserializer/IDX*%
X140218400Y-61206000D03*
%TO.N,/Deserializer/VDD18_P0*%
X139812000Y-60596400D03*
X140828000Y-56126000D03*
%TO.N,/Deserializer/VDD18_FPD0*%
X140751800Y-58793000D03*
X136764000Y-61333000D03*
%TO.N,+3V3*%
X130896600Y-49420400D03*
X136129000Y-53128800D03*
X140802600Y-59529600D03*
X128369301Y-51652339D03*
X134706600Y-49763300D03*
X126036098Y-59021599D03*
X134579600Y-61383800D03*
X121589800Y-61874400D03*
X133121400Y-60477400D03*
X126009400Y-63474600D03*
X123469400Y-63474600D03*
X121332001Y-59033399D03*
X120827800Y-51943000D03*
X121386600Y-56819800D03*
X125966200Y-57416700D03*
X127594600Y-59809000D03*
X145603200Y-46016800D03*
X145603200Y-46804200D03*
%TO.N,/Deserializer/VDD18*%
X142595600Y-63474600D03*
X132065000Y-56456200D03*
%TO.N,/Deserializer/VDD11_D*%
X138465800Y-53103400D03*
%TO.N,/Deserializer/VDD11_DVP*%
X132369800Y-57980200D03*
%TO.N,+BATT*%
X140396200Y-50309400D03*
X124358400Y-48818800D03*
X124358400Y-49657000D03*
X145745200Y-49936400D03*
X145008600Y-49911000D03*
X143789400Y-47218600D03*
X142910804Y-44543600D03*
X144917400Y-44543600D03*
%TO.N,V_OUT*%
X148829000Y-56126000D03*
X147355800Y-56126000D03*
X143789400Y-55727600D03*
X145389600Y-54483000D03*
%TO.N,+1V8*%
X141945600Y-53840000D03*
X136814800Y-49892779D03*
X133843000Y-52062000D03*
X143750000Y-59000000D03*
X142875000Y-45974000D03*
X142875000Y-46761400D03*
X140899177Y-63521000D03*
X135051800Y-63474600D03*
%TO.N,/MCU/VDDUTMIC*%
X124089400Y-54551200D03*
%TO.N,/MCU/VDDPLL*%
X126009400Y-56616600D03*
%TO.N,+1V2*%
X128318500Y-52227100D03*
X124838700Y-50284000D03*
X121343800Y-55821200D03*
X126009400Y-58216800D03*
X125180680Y-60594641D03*
%TO.N,Net-(D1-Pad2)*%
X121513600Y-51943000D03*
%TO.N,/MCU/SWDIO*%
X127580214Y-61448078D03*
%TO.N,/MCU/SWDCLK*%
X128377769Y-59797651D03*
%TO.N,/MCU/DAT2*%
X128305800Y-63492000D03*
X133749999Y-49250000D03*
%TO.N,/MCU/DAT3*%
X133169900Y-49407700D03*
X128371600Y-61391800D03*
%TO.N,/MCU/DAT0*%
X127594600Y-54957600D03*
X129042400Y-49445800D03*
%TO.N,/MCU/CMD*%
X129918261Y-53110667D03*
X132369829Y-49395000D03*
%TO.N,/MCU/CLK*%
X129451359Y-53636718D03*
X126807200Y-61409200D03*
%TO.N,/MCU/DAT1*%
X128255000Y-49420402D03*
X126822200Y-55016400D03*
%TO.N,/Deserializer/OEN*%
X137068800Y-53078000D03*
%TO.N,/Deserializer/OSS_SEL*%
X137754600Y-53103400D03*
%TO.N,/Deserializer/I2C_SCL*%
X128382000Y-57421400D03*
X139100800Y-54602000D03*
%TO.N,/Deserializer/I2C_SDA*%
X128352689Y-55821601D03*
X139812000Y-53840000D03*
%TO.N,/Deserializer/LOCK*%
X140665200Y-54424200D03*
X128917721Y-54259100D03*
%TO.N,/Deserializer/GPIO0*%
X121168400Y-60139200D03*
X135443200Y-59859800D03*
%TO.N,/Deserializer/GPIO1*%
X121463403Y-60713603D03*
X134757400Y-59809000D03*
%TO.N,/Deserializer/GPIO2*%
X122819400Y-59783600D03*
X133730988Y-61366400D03*
%TO.N,/Deserializer/GPIO3*%
X133171237Y-61162114D03*
X122819400Y-60621800D03*
%TO.N,/Deserializer/ROUT3*%
X132496800Y-60494798D03*
X132014200Y-58462800D03*
%TO.N,/Deserializer/ROUT4*%
X131744684Y-60480990D03*
X132039600Y-57472200D03*
%TO.N,/Deserializer/ROUT5*%
X131597400Y-61493400D03*
X132369800Y-56964200D03*
%TO.N,/Deserializer/ROUT6*%
X131633212Y-62730000D03*
X132369800Y-55948200D03*
%TO.N,/Deserializer/ROUT7*%
X131074400Y-63209010D03*
X132065000Y-55440200D03*
%TO.N,/Deserializer/ROUT8*%
X130199562Y-61853674D03*
X132373115Y-54952352D03*
%TO.N,/Deserializer/ROUT9*%
X125994400Y-59834400D03*
X132065000Y-54449600D03*
%TO.N,/Deserializer/ROUT10*%
X131785600Y-53814600D03*
%TO.N,/Deserializer/ROUT11*%
X133258800Y-52773200D03*
%TO.N,/Deserializer/HSYNC*%
X134467600Y-52730400D03*
X122794000Y-61434600D03*
%TO.N,/Deserializer/VSYNC*%
X134478000Y-52087400D03*
X126781800Y-59817000D03*
%TO.N,/Deserializer/PCLK*%
X134503400Y-51452400D03*
X124394200Y-61434600D03*
%TO.N,Net-(D1-Pad4)*%
X121183400Y-50647600D03*
%TO.N,Net-(D1-Pad3)*%
X121920000Y-50622200D03*
%TO.N,/MCU/LED_B*%
X123596400Y-57429400D03*
%TO.N,/MCU/LED_G*%
X122785197Y-57453295D03*
%TO.N,/MCU/LED_R*%
X121818400Y-57404000D03*
%TO.N,Net-(C58-Pad2)*%
X123622600Y-54957600D03*
%TO.N,+5V*%
X137494800Y-49883400D03*
X129753600Y-48734600D03*
X129728200Y-47896400D03*
%TO.N,/MCU/D-*%
X124800600Y-54551198D03*
%TO.N,/MCU/D+*%
X125228810Y-55027876D03*
%TO.N,/MCU/VDDPLLUSB*%
X125600700Y-54043200D03*
X126807200Y-58234200D03*
%TO.N,Net-(R28-Pad1)*%
X135392400Y-49826800D03*
%TO.N,/MCU/CHR_STAT*%
X141183600Y-54043200D03*
X130972800Y-51731800D03*
%TO.N,/MCU/VBUS_DET*%
X121905000Y-58208800D03*
X125969000Y-49979200D03*
%TD*%
D11*
%TO.N,/Deserializer/VDD18_FPD0*%
X140751800Y-58793000D02*
X139304000Y-58793000D01*
X139304000Y-58793000D02*
X136764000Y-61333000D01*
%TO.N,/MCU/DAT0*%
X129169400Y-53064602D02*
X127594600Y-54639402D01*
X129042400Y-49445800D02*
X129169400Y-49572800D01*
X127594600Y-54639402D02*
X127594600Y-54957600D01*
X129169400Y-49572800D02*
X129169400Y-53064602D01*
%TO.N,/MCU/DAT1*%
X128839200Y-50004602D02*
X128479999Y-49645401D01*
X128479999Y-49645401D02*
X128255000Y-49420402D01*
X126822200Y-55016400D02*
X128839200Y-52999400D01*
X128839200Y-52999400D02*
X128839200Y-50004602D01*
%TO.N,/Deserializer/I2C_SCL*%
X139100800Y-53128800D02*
X136851799Y-50879799D01*
X139100800Y-54602000D02*
X139100800Y-53128800D01*
X136851799Y-50879799D02*
X134086663Y-50879799D01*
X128382000Y-56584462D02*
X128382000Y-57421400D01*
X134086663Y-50879799D02*
X128382000Y-56584462D01*
%TO.N,/Deserializer/I2C_SDA*%
X139812000Y-53382800D02*
X137029589Y-50600389D01*
X139812000Y-53840000D02*
X139812000Y-53382800D01*
X137029589Y-50600389D02*
X133679011Y-50600389D01*
X128457799Y-55821601D02*
X128352689Y-55821601D01*
X133679011Y-50600389D02*
X128457799Y-55821601D01*
%TO.N,/Deserializer/LOCK*%
X140665200Y-53816202D02*
X140665200Y-54424200D01*
X137169977Y-50320979D02*
X140665200Y-53816202D01*
X129537700Y-54259100D02*
X133475821Y-50320979D01*
X133475821Y-50320979D02*
X137169977Y-50320979D01*
X128917721Y-54259100D02*
X129537700Y-54259100D01*
%TO.N,/Deserializer/GPIO0*%
X131359739Y-63637211D02*
X129086011Y-63637211D01*
X131925151Y-63071799D02*
X131359739Y-63637211D01*
X120812800Y-62126283D02*
X120812800Y-60494800D01*
X133920483Y-63071799D02*
X131925151Y-63071799D01*
X135443200Y-59859800D02*
X135443200Y-61549082D01*
X121695927Y-63009410D02*
X120812800Y-62126283D01*
X135443200Y-61549082D02*
X133920483Y-63071799D01*
X129086011Y-63637211D02*
X128458210Y-63009410D01*
X128458210Y-63009410D02*
X121695927Y-63009410D01*
X120812800Y-60494800D02*
X121168400Y-60139200D01*
%TO.N,/Deserializer/GPIO1*%
X134295339Y-62301799D02*
X130780319Y-62301799D01*
X130352118Y-62730000D02*
X121811662Y-62730000D01*
X135007801Y-61589337D02*
X134295339Y-62301799D01*
X130780319Y-62301799D02*
X130352118Y-62730000D01*
X134757400Y-59809000D02*
X135007801Y-60059401D01*
X135007801Y-60059401D02*
X135007801Y-61589337D01*
X121811662Y-62730000D02*
X121143000Y-62061338D01*
X121143000Y-62061338D02*
X121143000Y-61034006D01*
X121143000Y-61034006D02*
X121463403Y-60713603D01*
%TO.N,/Deserializer/GPIO2*%
X122551255Y-62450600D02*
X122031990Y-61931335D01*
X130236374Y-62450600D02*
X122551255Y-62450600D01*
X130765373Y-61921601D02*
X130236374Y-62450600D01*
X133730988Y-61366400D02*
X133175787Y-61921601D01*
X133175787Y-61921601D02*
X130765373Y-61921601D01*
X122031990Y-61931335D02*
X122031990Y-60571010D01*
X122031990Y-60571010D02*
X122819400Y-59783600D01*
%TO.N,/Deserializer/GPIO3*%
X128723944Y-62171200D02*
X129958029Y-60937115D01*
X122667000Y-62171200D02*
X128723944Y-62171200D01*
X122311400Y-61815600D02*
X122667000Y-62171200D01*
X129958029Y-60937115D02*
X132946238Y-60937115D01*
X132946238Y-60937115D02*
X133171237Y-61162114D01*
X122819400Y-60621800D02*
X122311400Y-61129800D01*
X122311400Y-61129800D02*
X122311400Y-61815600D01*
%TO.N,/Deserializer/ROUT9*%
X131572000Y-54942600D02*
X131572000Y-58521600D01*
X131572000Y-58521600D02*
X131003560Y-59090040D01*
X132065000Y-54449600D02*
X131572000Y-54942600D01*
X131003560Y-59090040D02*
X126738760Y-59090040D01*
X126738760Y-59090040D02*
X125994400Y-59834400D01*
%TO.N,/Deserializer/HSYNC*%
X124599737Y-61006399D02*
X123222201Y-61006399D01*
X124616180Y-61022842D02*
X124599737Y-61006399D01*
X131857023Y-59648860D02*
X130419340Y-59648860D01*
X125386217Y-61022842D02*
X124616180Y-61022842D01*
X130419340Y-59648860D02*
X129108200Y-60960000D01*
X133197600Y-55878556D02*
X133197600Y-58308283D01*
X129108200Y-60960000D02*
X125449059Y-60960000D01*
X134467600Y-52730400D02*
X134467600Y-54608556D01*
X134467600Y-54608556D02*
X133197600Y-55878556D01*
X125449059Y-60960000D02*
X125386217Y-61022842D01*
X133197600Y-58308283D02*
X131857023Y-59648860D01*
X123222201Y-61006399D02*
X122794000Y-61434600D01*
%TO.N,/Deserializer/VSYNC*%
X133995400Y-54685611D02*
X132892800Y-55788211D01*
X132892800Y-58217938D02*
X131741288Y-59369450D01*
X132892800Y-55788211D02*
X132892800Y-58217938D01*
X134478000Y-52087400D02*
X133995400Y-52570000D01*
X133995400Y-52570000D02*
X133995400Y-54685611D01*
X131741288Y-59369450D02*
X127229350Y-59369450D01*
X127229350Y-59369450D02*
X126781800Y-59817000D01*
%TO.N,/Deserializer/PCLK*%
X133527800Y-58373227D02*
X131848238Y-60052789D01*
X133527800Y-55943500D02*
X133527800Y-58373227D01*
X134909800Y-54561500D02*
X133527800Y-55943500D01*
X134503400Y-51452400D02*
X134909800Y-51858800D01*
X134909800Y-51858800D02*
X134909800Y-54561500D01*
X131848238Y-60052789D02*
X130447211Y-60052789D01*
X130447211Y-60052789D02*
X128608200Y-61891800D01*
X128608200Y-61891800D02*
X124851400Y-61891800D01*
X124851400Y-61891800D02*
X124394200Y-61434600D01*
%TO.N,/MCU/VDDPLLUSB*%
X126807200Y-55719600D02*
X125600700Y-54513100D01*
X126807200Y-58234200D02*
X126807200Y-55719600D01*
X125600700Y-54513100D02*
X125600700Y-54043200D01*
%TO.N,/MCU/CHR_STAT*%
X131582400Y-51731800D02*
X130972800Y-51731800D01*
X133411200Y-49903000D02*
X131582400Y-51731800D01*
X141183600Y-52938462D02*
X137580237Y-49335099D01*
X137580237Y-49335099D02*
X134410901Y-49335099D01*
X134410901Y-49335099D02*
X133843000Y-49903000D01*
X141183600Y-54043200D02*
X141183600Y-52938462D01*
X133843000Y-49903000D02*
X133411200Y-49903000D01*
%TO.N,/MCU/VBUS_DET*%
X122246601Y-53701599D02*
X125969000Y-49979200D01*
X121905000Y-58208800D02*
X122246601Y-57867199D01*
X122246601Y-57867199D02*
X122246601Y-53701599D01*
%TD*%
D12*
%TO.N,+BATT*%
G36*
X146170824Y-44393094D02*
G01*
X146186500Y-44512165D01*
X146186500Y-50737835D01*
X146170824Y-50856906D01*
X146126476Y-50963973D01*
X146055921Y-51055921D01*
X145963973Y-51126476D01*
X145856906Y-51170824D01*
X145737835Y-51186500D01*
X140386106Y-51186500D01*
X140388740Y-51183866D01*
X140434211Y-51115813D01*
X140465532Y-51040197D01*
X140481500Y-50959923D01*
X140481500Y-50878077D01*
X140465532Y-50797803D01*
X140434211Y-50722187D01*
X140388740Y-50654134D01*
X140330866Y-50596260D01*
X140262813Y-50550789D01*
X140187197Y-50519468D01*
X140106923Y-50503500D01*
X140025077Y-50503500D01*
X139944803Y-50519468D01*
X139869187Y-50550789D01*
X139801134Y-50596260D01*
X139743260Y-50654134D01*
X139697789Y-50722187D01*
X139666468Y-50797803D01*
X139650500Y-50878077D01*
X139650500Y-50959923D01*
X139666468Y-51040197D01*
X139669270Y-51046961D01*
X137778091Y-49155783D01*
X137769735Y-49145601D01*
X137729124Y-49112273D01*
X137682792Y-49087509D01*
X137632519Y-49072258D01*
X137593335Y-49068399D01*
X137593333Y-49068399D01*
X137580237Y-49067109D01*
X137567141Y-49068399D01*
X135625849Y-49068399D01*
X135665413Y-49052011D01*
X135733466Y-49006540D01*
X135791340Y-48948666D01*
X135836811Y-48880613D01*
X135868132Y-48804997D01*
X135884100Y-48724723D01*
X135884100Y-48642877D01*
X135868132Y-48562603D01*
X135836811Y-48486987D01*
X135791340Y-48418934D01*
X135733466Y-48361060D01*
X135665413Y-48315589D01*
X135603877Y-48290100D01*
X135665413Y-48264611D01*
X135733466Y-48219140D01*
X135791340Y-48161266D01*
X135836811Y-48093213D01*
X135868132Y-48017597D01*
X135884100Y-47937323D01*
X135884100Y-47855477D01*
X135868132Y-47775203D01*
X135836811Y-47699587D01*
X135791340Y-47631534D01*
X135733466Y-47573660D01*
X135665413Y-47528189D01*
X135589797Y-47496868D01*
X135509523Y-47480900D01*
X135427677Y-47480900D01*
X135347403Y-47496868D01*
X135271787Y-47528189D01*
X135203734Y-47573660D01*
X135145860Y-47631534D01*
X135100389Y-47699587D01*
X135069068Y-47775203D01*
X135053100Y-47855477D01*
X135053100Y-47937323D01*
X135069068Y-48017597D01*
X135100389Y-48093213D01*
X135145860Y-48161266D01*
X135203734Y-48219140D01*
X135271787Y-48264611D01*
X135333323Y-48290100D01*
X135271787Y-48315589D01*
X135203734Y-48361060D01*
X135145860Y-48418934D01*
X135100389Y-48486987D01*
X135069068Y-48562603D01*
X135053100Y-48642877D01*
X135053100Y-48724723D01*
X135069068Y-48804997D01*
X135100389Y-48880613D01*
X135145860Y-48948666D01*
X135203734Y-49006540D01*
X135271787Y-49052011D01*
X135311351Y-49068399D01*
X134423996Y-49068399D01*
X134410900Y-49067109D01*
X134397804Y-49068399D01*
X134397803Y-49068399D01*
X134358619Y-49072258D01*
X134308346Y-49087509D01*
X134262014Y-49112273D01*
X134221403Y-49145601D01*
X134213047Y-49155783D01*
X134164546Y-49204284D01*
X134149531Y-49128803D01*
X134118210Y-49053187D01*
X134072739Y-48985134D01*
X134014865Y-48927260D01*
X133946812Y-48881789D01*
X133871196Y-48850468D01*
X133790922Y-48834500D01*
X133709076Y-48834500D01*
X133628802Y-48850468D01*
X133553186Y-48881789D01*
X133485133Y-48927260D01*
X133427259Y-48985134D01*
X133383463Y-49050681D01*
X133366713Y-49039489D01*
X133291097Y-49008168D01*
X133210823Y-48992200D01*
X133128977Y-48992200D01*
X133048703Y-49008168D01*
X132973087Y-49039489D01*
X132905034Y-49084960D01*
X132847160Y-49142834D01*
X132801689Y-49210887D01*
X132771394Y-49284025D01*
X132769361Y-49273803D01*
X132738040Y-49198187D01*
X132692569Y-49130134D01*
X132634695Y-49072260D01*
X132566642Y-49026789D01*
X132491026Y-48995468D01*
X132410752Y-48979500D01*
X132328906Y-48979500D01*
X132248632Y-48995468D01*
X132173016Y-49026789D01*
X132104963Y-49072260D01*
X132047089Y-49130134D01*
X132001618Y-49198187D01*
X131970297Y-49273803D01*
X131954329Y-49354077D01*
X131954329Y-49435923D01*
X131970297Y-49516197D01*
X132001618Y-49591813D01*
X132047089Y-49659866D01*
X132104963Y-49717740D01*
X132173016Y-49763211D01*
X132248632Y-49794532D01*
X132328906Y-49810500D01*
X132410752Y-49810500D01*
X132491026Y-49794532D01*
X132566642Y-49763211D01*
X132634695Y-49717740D01*
X132692569Y-49659866D01*
X132738040Y-49591813D01*
X132768335Y-49518675D01*
X132770368Y-49528897D01*
X132801689Y-49604513D01*
X132847160Y-49672566D01*
X132905034Y-49730440D01*
X132973087Y-49775911D01*
X133048703Y-49807232D01*
X133116342Y-49820687D01*
X131750530Y-51186500D01*
X129436100Y-51186500D01*
X129436100Y-49585895D01*
X129436723Y-49579573D01*
X129441932Y-49566997D01*
X129457900Y-49486723D01*
X129457900Y-49404877D01*
X129452848Y-49379477D01*
X130481100Y-49379477D01*
X130481100Y-49461323D01*
X130497068Y-49541597D01*
X130528389Y-49617213D01*
X130573860Y-49685266D01*
X130631734Y-49743140D01*
X130699787Y-49788611D01*
X130775403Y-49819932D01*
X130855677Y-49835900D01*
X130937523Y-49835900D01*
X131017797Y-49819932D01*
X131093413Y-49788611D01*
X131161466Y-49743140D01*
X131219340Y-49685266D01*
X131264811Y-49617213D01*
X131296132Y-49541597D01*
X131312100Y-49461323D01*
X131312100Y-49379477D01*
X131296132Y-49299203D01*
X131264811Y-49223587D01*
X131219340Y-49155534D01*
X131161466Y-49097660D01*
X131093413Y-49052189D01*
X131017797Y-49020868D01*
X130937523Y-49004900D01*
X130855677Y-49004900D01*
X130775403Y-49020868D01*
X130699787Y-49052189D01*
X130631734Y-49097660D01*
X130573860Y-49155534D01*
X130528389Y-49223587D01*
X130497068Y-49299203D01*
X130481100Y-49379477D01*
X129452848Y-49379477D01*
X129441932Y-49324603D01*
X129410611Y-49248987D01*
X129365140Y-49180934D01*
X129307266Y-49123060D01*
X129239213Y-49077589D01*
X129163597Y-49046268D01*
X129083323Y-49030300D01*
X129001477Y-49030300D01*
X128921203Y-49046268D01*
X128845587Y-49077589D01*
X128777534Y-49123060D01*
X128719660Y-49180934D01*
X128674189Y-49248987D01*
X128653960Y-49297824D01*
X128623211Y-49223589D01*
X128577740Y-49155536D01*
X128519866Y-49097662D01*
X128451813Y-49052191D01*
X128376197Y-49020870D01*
X128295923Y-49004902D01*
X128214077Y-49004902D01*
X128133803Y-49020870D01*
X128058187Y-49052191D01*
X127990134Y-49097662D01*
X127932260Y-49155536D01*
X127886789Y-49223589D01*
X127855468Y-49299205D01*
X127839500Y-49379479D01*
X127839500Y-49461325D01*
X127855468Y-49541599D01*
X127886789Y-49617215D01*
X127932260Y-49685268D01*
X127990134Y-49743142D01*
X128058187Y-49788613D01*
X128133803Y-49819934D01*
X128214077Y-49835902D01*
X128293329Y-49835902D01*
X128300675Y-49843248D01*
X128300680Y-49843252D01*
X128572501Y-50115074D01*
X128572501Y-51186500D01*
X125138870Y-51186500D01*
X125930670Y-50394700D01*
X126009923Y-50394700D01*
X126090197Y-50378732D01*
X126165813Y-50347411D01*
X126233866Y-50301940D01*
X126291740Y-50244066D01*
X126337211Y-50176013D01*
X126368532Y-50100397D01*
X126384500Y-50020123D01*
X126384500Y-49993410D01*
X126397268Y-50057597D01*
X126428589Y-50133213D01*
X126474060Y-50201266D01*
X126531934Y-50259140D01*
X126599987Y-50304611D01*
X126675603Y-50335932D01*
X126755877Y-50351900D01*
X126837723Y-50351900D01*
X126917997Y-50335932D01*
X126993613Y-50304611D01*
X127061666Y-50259140D01*
X127119540Y-50201266D01*
X127165011Y-50133213D01*
X127196332Y-50057597D01*
X127212300Y-49977323D01*
X127212300Y-49895477D01*
X127196332Y-49815203D01*
X127165011Y-49739587D01*
X127119540Y-49671534D01*
X127061666Y-49613660D01*
X126993613Y-49568189D01*
X126917997Y-49536868D01*
X126837723Y-49520900D01*
X126755877Y-49520900D01*
X126675603Y-49536868D01*
X126599987Y-49568189D01*
X126531934Y-49613660D01*
X126474060Y-49671534D01*
X126428589Y-49739587D01*
X126397268Y-49815203D01*
X126381300Y-49895477D01*
X126381300Y-49922190D01*
X126368532Y-49858003D01*
X126337211Y-49782387D01*
X126291740Y-49714334D01*
X126233866Y-49656460D01*
X126165813Y-49610989D01*
X126090197Y-49579668D01*
X126009923Y-49563700D01*
X125928077Y-49563700D01*
X125847803Y-49579668D01*
X125772187Y-49610989D01*
X125704134Y-49656460D01*
X125646260Y-49714334D01*
X125600789Y-49782387D01*
X125569468Y-49858003D01*
X125553500Y-49938277D01*
X125553500Y-50017530D01*
X125254200Y-50316830D01*
X125254200Y-50243077D01*
X125238232Y-50162803D01*
X125206911Y-50087187D01*
X125161440Y-50019134D01*
X125103566Y-49961260D01*
X125035513Y-49915789D01*
X124959897Y-49884468D01*
X124879623Y-49868500D01*
X124797777Y-49868500D01*
X124717503Y-49884468D01*
X124641887Y-49915789D01*
X124573834Y-49961260D01*
X124515960Y-50019134D01*
X124470489Y-50087187D01*
X124439168Y-50162803D01*
X124427812Y-50219892D01*
X124402813Y-50203189D01*
X124327197Y-50171868D01*
X124246923Y-50155900D01*
X124165077Y-50155900D01*
X124084803Y-50171868D01*
X124009187Y-50203189D01*
X123941134Y-50248660D01*
X123883260Y-50306534D01*
X123837789Y-50374587D01*
X123813500Y-50433226D01*
X123813500Y-48693677D01*
X129338100Y-48693677D01*
X129338100Y-48775523D01*
X129354068Y-48855797D01*
X129385389Y-48931413D01*
X129430860Y-48999466D01*
X129488734Y-49057340D01*
X129556787Y-49102811D01*
X129632403Y-49134132D01*
X129712677Y-49150100D01*
X129794523Y-49150100D01*
X129874797Y-49134132D01*
X129950413Y-49102811D01*
X130018466Y-49057340D01*
X130076340Y-48999466D01*
X130121811Y-48931413D01*
X130153132Y-48855797D01*
X130169100Y-48775523D01*
X130169100Y-48693677D01*
X130153132Y-48613403D01*
X130121811Y-48537787D01*
X130076340Y-48469734D01*
X130018466Y-48411860D01*
X129950413Y-48366389D01*
X129874797Y-48335068D01*
X129794523Y-48319100D01*
X129712677Y-48319100D01*
X129632403Y-48335068D01*
X129556787Y-48366389D01*
X129488734Y-48411860D01*
X129430860Y-48469734D01*
X129385389Y-48537787D01*
X129354068Y-48613403D01*
X129338100Y-48693677D01*
X123813500Y-48693677D01*
X123813500Y-47855477D01*
X129312700Y-47855477D01*
X129312700Y-47937323D01*
X129328668Y-48017597D01*
X129359989Y-48093213D01*
X129405460Y-48161266D01*
X129463334Y-48219140D01*
X129531387Y-48264611D01*
X129607003Y-48295932D01*
X129687277Y-48311900D01*
X129769123Y-48311900D01*
X129849397Y-48295932D01*
X129925013Y-48264611D01*
X129993066Y-48219140D01*
X130050940Y-48161266D01*
X130096411Y-48093213D01*
X130127732Y-48017597D01*
X130143700Y-47937323D01*
X130143700Y-47855477D01*
X130127732Y-47775203D01*
X130096411Y-47699587D01*
X130050940Y-47631534D01*
X129993066Y-47573660D01*
X129925013Y-47528189D01*
X129849397Y-47496868D01*
X129769123Y-47480900D01*
X129687277Y-47480900D01*
X129607003Y-47496868D01*
X129531387Y-47528189D01*
X129463334Y-47573660D01*
X129405460Y-47631534D01*
X129359989Y-47699587D01*
X129328668Y-47775203D01*
X129312700Y-47855477D01*
X123813500Y-47855477D01*
X123813500Y-47203077D01*
X144110500Y-47203077D01*
X144110500Y-47284923D01*
X144126468Y-47365197D01*
X144157789Y-47440813D01*
X144203260Y-47508866D01*
X144261134Y-47566740D01*
X144329187Y-47612211D01*
X144404803Y-47643532D01*
X144485077Y-47659500D01*
X144566923Y-47659500D01*
X144647197Y-47643532D01*
X144722813Y-47612211D01*
X144790866Y-47566740D01*
X144848740Y-47508866D01*
X144894211Y-47440813D01*
X144925532Y-47365197D01*
X144941500Y-47284923D01*
X144941500Y-47203077D01*
X144925532Y-47122803D01*
X144894211Y-47047187D01*
X144848740Y-46979134D01*
X144790866Y-46921260D01*
X144722813Y-46875789D01*
X144647197Y-46844468D01*
X144566923Y-46828500D01*
X144485077Y-46828500D01*
X144404803Y-46844468D01*
X144329187Y-46875789D01*
X144261134Y-46921260D01*
X144203260Y-46979134D01*
X144157789Y-47047187D01*
X144126468Y-47122803D01*
X144110500Y-47203077D01*
X123813500Y-47203077D01*
X123813500Y-46687077D01*
X129185696Y-46687077D01*
X129185696Y-46768923D01*
X129201664Y-46849197D01*
X129232985Y-46924813D01*
X129278456Y-46992866D01*
X129336330Y-47050740D01*
X129404383Y-47096211D01*
X129479999Y-47127532D01*
X129560273Y-47143500D01*
X129642119Y-47143500D01*
X129722393Y-47127532D01*
X129798009Y-47096211D01*
X129866062Y-47050740D01*
X129923936Y-46992866D01*
X129969407Y-46924813D01*
X130000728Y-46849197D01*
X130016696Y-46768923D01*
X130016696Y-46687077D01*
X130000728Y-46606803D01*
X129969407Y-46531187D01*
X129923936Y-46463134D01*
X129866062Y-46405260D01*
X129798009Y-46359789D01*
X129722393Y-46328468D01*
X129642119Y-46312500D01*
X129560273Y-46312500D01*
X129479999Y-46328468D01*
X129404383Y-46359789D01*
X129336330Y-46405260D01*
X129278456Y-46463134D01*
X129232985Y-46531187D01*
X129201664Y-46606803D01*
X129185696Y-46687077D01*
X123813500Y-46687077D01*
X123813500Y-45298077D01*
X126381300Y-45298077D01*
X126381300Y-45379923D01*
X126397268Y-45460197D01*
X126428589Y-45535813D01*
X126474060Y-45603866D01*
X126531934Y-45661740D01*
X126599987Y-45707211D01*
X126675603Y-45738532D01*
X126755877Y-45754500D01*
X126837723Y-45754500D01*
X126917997Y-45738532D01*
X126993613Y-45707211D01*
X126997704Y-45704477D01*
X136795300Y-45704477D01*
X136795300Y-45786323D01*
X136811268Y-45866597D01*
X136842589Y-45942213D01*
X136888060Y-46010266D01*
X136945934Y-46068140D01*
X137013987Y-46113611D01*
X137089603Y-46144932D01*
X137169877Y-46160900D01*
X137251723Y-46160900D01*
X137331997Y-46144932D01*
X137407613Y-46113611D01*
X137475666Y-46068140D01*
X137533540Y-46010266D01*
X137579011Y-45942213D01*
X137582795Y-45933077D01*
X142459500Y-45933077D01*
X142459500Y-46014923D01*
X142475468Y-46095197D01*
X142506789Y-46170813D01*
X142552260Y-46238866D01*
X142610134Y-46296740D01*
X142678187Y-46342211D01*
X142739723Y-46367700D01*
X142678187Y-46393189D01*
X142610134Y-46438660D01*
X142552260Y-46496534D01*
X142506789Y-46564587D01*
X142475468Y-46640203D01*
X142459500Y-46720477D01*
X142459500Y-46802323D01*
X142475468Y-46882597D01*
X142506789Y-46958213D01*
X142552260Y-47026266D01*
X142610134Y-47084140D01*
X142678187Y-47129611D01*
X142753803Y-47160932D01*
X142834077Y-47176900D01*
X142915923Y-47176900D01*
X142996197Y-47160932D01*
X143071813Y-47129611D01*
X143139866Y-47084140D01*
X143197740Y-47026266D01*
X143243211Y-46958213D01*
X143274532Y-46882597D01*
X143290500Y-46802323D01*
X143290500Y-46720477D01*
X143274532Y-46640203D01*
X143243211Y-46564587D01*
X143197740Y-46496534D01*
X143139866Y-46438660D01*
X143071813Y-46393189D01*
X143010277Y-46367700D01*
X143071813Y-46342211D01*
X143139866Y-46296740D01*
X143197740Y-46238866D01*
X143243211Y-46170813D01*
X143274532Y-46095197D01*
X143290500Y-46014923D01*
X143290500Y-45956977D01*
X144439552Y-45956977D01*
X144439552Y-46038823D01*
X144455520Y-46119097D01*
X144486841Y-46194713D01*
X144532312Y-46262766D01*
X144590186Y-46320640D01*
X144658239Y-46366111D01*
X144733855Y-46397432D01*
X144814129Y-46413400D01*
X144895975Y-46413400D01*
X144976249Y-46397432D01*
X145051865Y-46366111D01*
X145119918Y-46320640D01*
X145177792Y-46262766D01*
X145223263Y-46194713D01*
X145225212Y-46190008D01*
X145234989Y-46213613D01*
X145280460Y-46281666D01*
X145338334Y-46339540D01*
X145406387Y-46385011D01*
X145467923Y-46410500D01*
X145406387Y-46435989D01*
X145338334Y-46481460D01*
X145280460Y-46539334D01*
X145234989Y-46607387D01*
X145203668Y-46683003D01*
X145187700Y-46763277D01*
X145187700Y-46845123D01*
X145203668Y-46925397D01*
X145234989Y-47001013D01*
X145280460Y-47069066D01*
X145338334Y-47126940D01*
X145406387Y-47172411D01*
X145482003Y-47203732D01*
X145562277Y-47219700D01*
X145644123Y-47219700D01*
X145724397Y-47203732D01*
X145800013Y-47172411D01*
X145868066Y-47126940D01*
X145925940Y-47069066D01*
X145971411Y-47001013D01*
X146002732Y-46925397D01*
X146018700Y-46845123D01*
X146018700Y-46763277D01*
X146002732Y-46683003D01*
X145971411Y-46607387D01*
X145925940Y-46539334D01*
X145868066Y-46481460D01*
X145800013Y-46435989D01*
X145738477Y-46410500D01*
X145800013Y-46385011D01*
X145868066Y-46339540D01*
X145925940Y-46281666D01*
X145971411Y-46213613D01*
X146002732Y-46137997D01*
X146018700Y-46057723D01*
X146018700Y-45975877D01*
X146002732Y-45895603D01*
X145971411Y-45819987D01*
X145925940Y-45751934D01*
X145868066Y-45694060D01*
X145800013Y-45648589D01*
X145724397Y-45617268D01*
X145644123Y-45601300D01*
X145562277Y-45601300D01*
X145482003Y-45617268D01*
X145406387Y-45648589D01*
X145338334Y-45694060D01*
X145280460Y-45751934D01*
X145234989Y-45819987D01*
X145233040Y-45824692D01*
X145223263Y-45801087D01*
X145177792Y-45733034D01*
X145119918Y-45675160D01*
X145051865Y-45629689D01*
X144976249Y-45598368D01*
X144895975Y-45582400D01*
X144814129Y-45582400D01*
X144733855Y-45598368D01*
X144658239Y-45629689D01*
X144590186Y-45675160D01*
X144532312Y-45733034D01*
X144486841Y-45801087D01*
X144455520Y-45876703D01*
X144439552Y-45956977D01*
X143290500Y-45956977D01*
X143290500Y-45933077D01*
X143274532Y-45852803D01*
X143243211Y-45777187D01*
X143197740Y-45709134D01*
X143139866Y-45651260D01*
X143071813Y-45605789D01*
X142996197Y-45574468D01*
X142915923Y-45558500D01*
X142834077Y-45558500D01*
X142753803Y-45574468D01*
X142678187Y-45605789D01*
X142610134Y-45651260D01*
X142552260Y-45709134D01*
X142506789Y-45777187D01*
X142475468Y-45852803D01*
X142459500Y-45933077D01*
X137582795Y-45933077D01*
X137610332Y-45866597D01*
X137626300Y-45786323D01*
X137626300Y-45704477D01*
X137610332Y-45624203D01*
X137579011Y-45548587D01*
X137533540Y-45480534D01*
X137475666Y-45422660D01*
X137467311Y-45417077D01*
X138888500Y-45417077D01*
X138888500Y-45498923D01*
X138904468Y-45579197D01*
X138935789Y-45654813D01*
X138981260Y-45722866D01*
X139039134Y-45780740D01*
X139107187Y-45826211D01*
X139182803Y-45857532D01*
X139263077Y-45873500D01*
X139344923Y-45873500D01*
X139425197Y-45857532D01*
X139500813Y-45826211D01*
X139568866Y-45780740D01*
X139626740Y-45722866D01*
X139672211Y-45654813D01*
X139703532Y-45579197D01*
X139719500Y-45498923D01*
X139719500Y-45417077D01*
X139703532Y-45336803D01*
X139672211Y-45261187D01*
X139626740Y-45193134D01*
X139568866Y-45135260D01*
X139500813Y-45089789D01*
X139425197Y-45058468D01*
X139344923Y-45042500D01*
X139263077Y-45042500D01*
X139182803Y-45058468D01*
X139107187Y-45089789D01*
X139039134Y-45135260D01*
X138981260Y-45193134D01*
X138935789Y-45261187D01*
X138904468Y-45336803D01*
X138888500Y-45417077D01*
X137467311Y-45417077D01*
X137407613Y-45377189D01*
X137331997Y-45345868D01*
X137251723Y-45329900D01*
X137169877Y-45329900D01*
X137089603Y-45345868D01*
X137013987Y-45377189D01*
X136945934Y-45422660D01*
X136888060Y-45480534D01*
X136842589Y-45548587D01*
X136811268Y-45624203D01*
X136795300Y-45704477D01*
X126997704Y-45704477D01*
X127061666Y-45661740D01*
X127119540Y-45603866D01*
X127165011Y-45535813D01*
X127196332Y-45460197D01*
X127212300Y-45379923D01*
X127212300Y-45298077D01*
X127196332Y-45217803D01*
X127165011Y-45142187D01*
X127119540Y-45074134D01*
X127061666Y-45016260D01*
X126993613Y-44970789D01*
X126917997Y-44939468D01*
X126837723Y-44923500D01*
X126755877Y-44923500D01*
X126675603Y-44939468D01*
X126599987Y-44970789D01*
X126531934Y-45016260D01*
X126474060Y-45074134D01*
X126428589Y-45142187D01*
X126397268Y-45217803D01*
X126381300Y-45298077D01*
X123813500Y-45298077D01*
X123813500Y-44512165D01*
X123829176Y-44393094D01*
X123860488Y-44317500D01*
X146139512Y-44317500D01*
X146170824Y-44393094D01*
G37*
X146170824Y-44393094D02*
X146186500Y-44512165D01*
X146186500Y-50737835D01*
X146170824Y-50856906D01*
X146126476Y-50963973D01*
X146055921Y-51055921D01*
X145963973Y-51126476D01*
X145856906Y-51170824D01*
X145737835Y-51186500D01*
X140386106Y-51186500D01*
X140388740Y-51183866D01*
X140434211Y-51115813D01*
X140465532Y-51040197D01*
X140481500Y-50959923D01*
X140481500Y-50878077D01*
X140465532Y-50797803D01*
X140434211Y-50722187D01*
X140388740Y-50654134D01*
X140330866Y-50596260D01*
X140262813Y-50550789D01*
X140187197Y-50519468D01*
X140106923Y-50503500D01*
X140025077Y-50503500D01*
X139944803Y-50519468D01*
X139869187Y-50550789D01*
X139801134Y-50596260D01*
X139743260Y-50654134D01*
X139697789Y-50722187D01*
X139666468Y-50797803D01*
X139650500Y-50878077D01*
X139650500Y-50959923D01*
X139666468Y-51040197D01*
X139669270Y-51046961D01*
X137778091Y-49155783D01*
X137769735Y-49145601D01*
X137729124Y-49112273D01*
X137682792Y-49087509D01*
X137632519Y-49072258D01*
X137593335Y-49068399D01*
X137593333Y-49068399D01*
X137580237Y-49067109D01*
X137567141Y-49068399D01*
X135625849Y-49068399D01*
X135665413Y-49052011D01*
X135733466Y-49006540D01*
X135791340Y-48948666D01*
X135836811Y-48880613D01*
X135868132Y-48804997D01*
X135884100Y-48724723D01*
X135884100Y-48642877D01*
X135868132Y-48562603D01*
X135836811Y-48486987D01*
X135791340Y-48418934D01*
X135733466Y-48361060D01*
X135665413Y-48315589D01*
X135603877Y-48290100D01*
X135665413Y-48264611D01*
X135733466Y-48219140D01*
X135791340Y-48161266D01*
X135836811Y-48093213D01*
X135868132Y-48017597D01*
X135884100Y-47937323D01*
X135884100Y-47855477D01*
X135868132Y-47775203D01*
X135836811Y-47699587D01*
X135791340Y-47631534D01*
X135733466Y-47573660D01*
X135665413Y-47528189D01*
X135589797Y-47496868D01*
X135509523Y-47480900D01*
X135427677Y-47480900D01*
X135347403Y-47496868D01*
X135271787Y-47528189D01*
X135203734Y-47573660D01*
X135145860Y-47631534D01*
X135100389Y-47699587D01*
X135069068Y-47775203D01*
X135053100Y-47855477D01*
X135053100Y-47937323D01*
X135069068Y-48017597D01*
X135100389Y-48093213D01*
X135145860Y-48161266D01*
X135203734Y-48219140D01*
X135271787Y-48264611D01*
X135333323Y-48290100D01*
X135271787Y-48315589D01*
X135203734Y-48361060D01*
X135145860Y-48418934D01*
X135100389Y-48486987D01*
X135069068Y-48562603D01*
X135053100Y-48642877D01*
X135053100Y-48724723D01*
X135069068Y-48804997D01*
X135100389Y-48880613D01*
X135145860Y-48948666D01*
X135203734Y-49006540D01*
X135271787Y-49052011D01*
X135311351Y-49068399D01*
X134423996Y-49068399D01*
X134410900Y-49067109D01*
X134397804Y-49068399D01*
X134397803Y-49068399D01*
X134358619Y-49072258D01*
X134308346Y-49087509D01*
X134262014Y-49112273D01*
X134221403Y-49145601D01*
X134213047Y-49155783D01*
X134164546Y-49204284D01*
X134149531Y-49128803D01*
X134118210Y-49053187D01*
X134072739Y-48985134D01*
X134014865Y-48927260D01*
X133946812Y-48881789D01*
X133871196Y-48850468D01*
X133790922Y-48834500D01*
X133709076Y-48834500D01*
X133628802Y-48850468D01*
X133553186Y-48881789D01*
X133485133Y-48927260D01*
X133427259Y-48985134D01*
X133383463Y-49050681D01*
X133366713Y-49039489D01*
X133291097Y-49008168D01*
X133210823Y-48992200D01*
X133128977Y-48992200D01*
X133048703Y-49008168D01*
X132973087Y-49039489D01*
X132905034Y-49084960D01*
X132847160Y-49142834D01*
X132801689Y-49210887D01*
X132771394Y-49284025D01*
X132769361Y-49273803D01*
X132738040Y-49198187D01*
X132692569Y-49130134D01*
X132634695Y-49072260D01*
X132566642Y-49026789D01*
X132491026Y-48995468D01*
X132410752Y-48979500D01*
X132328906Y-48979500D01*
X132248632Y-48995468D01*
X132173016Y-49026789D01*
X132104963Y-49072260D01*
X132047089Y-49130134D01*
X132001618Y-49198187D01*
X131970297Y-49273803D01*
X131954329Y-49354077D01*
X131954329Y-49435923D01*
X131970297Y-49516197D01*
X132001618Y-49591813D01*
X132047089Y-49659866D01*
X132104963Y-49717740D01*
X132173016Y-49763211D01*
X132248632Y-49794532D01*
X132328906Y-49810500D01*
X132410752Y-49810500D01*
X132491026Y-49794532D01*
X132566642Y-49763211D01*
X132634695Y-49717740D01*
X132692569Y-49659866D01*
X132738040Y-49591813D01*
X132768335Y-49518675D01*
X132770368Y-49528897D01*
X132801689Y-49604513D01*
X132847160Y-49672566D01*
X132905034Y-49730440D01*
X132973087Y-49775911D01*
X133048703Y-49807232D01*
X133116342Y-49820687D01*
X131750530Y-51186500D01*
X129436100Y-51186500D01*
X129436100Y-49585895D01*
X129436723Y-49579573D01*
X129441932Y-49566997D01*
X129457900Y-49486723D01*
X129457900Y-49404877D01*
X129452848Y-49379477D01*
X130481100Y-49379477D01*
X130481100Y-49461323D01*
X130497068Y-49541597D01*
X130528389Y-49617213D01*
X130573860Y-49685266D01*
X130631734Y-49743140D01*
X130699787Y-49788611D01*
X130775403Y-49819932D01*
X130855677Y-49835900D01*
X130937523Y-49835900D01*
X131017797Y-49819932D01*
X131093413Y-49788611D01*
X131161466Y-49743140D01*
X131219340Y-49685266D01*
X131264811Y-49617213D01*
X131296132Y-49541597D01*
X131312100Y-49461323D01*
X131312100Y-49379477D01*
X131296132Y-49299203D01*
X131264811Y-49223587D01*
X131219340Y-49155534D01*
X131161466Y-49097660D01*
X131093413Y-49052189D01*
X131017797Y-49020868D01*
X130937523Y-49004900D01*
X130855677Y-49004900D01*
X130775403Y-49020868D01*
X130699787Y-49052189D01*
X130631734Y-49097660D01*
X130573860Y-49155534D01*
X130528389Y-49223587D01*
X130497068Y-49299203D01*
X130481100Y-49379477D01*
X129452848Y-49379477D01*
X129441932Y-49324603D01*
X129410611Y-49248987D01*
X129365140Y-49180934D01*
X129307266Y-49123060D01*
X129239213Y-49077589D01*
X129163597Y-49046268D01*
X129083323Y-49030300D01*
X129001477Y-49030300D01*
X128921203Y-49046268D01*
X128845587Y-49077589D01*
X128777534Y-49123060D01*
X128719660Y-49180934D01*
X128674189Y-49248987D01*
X128653960Y-49297824D01*
X128623211Y-49223589D01*
X128577740Y-49155536D01*
X128519866Y-49097662D01*
X128451813Y-49052191D01*
X128376197Y-49020870D01*
X128295923Y-49004902D01*
X128214077Y-49004902D01*
X128133803Y-49020870D01*
X128058187Y-49052191D01*
X127990134Y-49097662D01*
X127932260Y-49155536D01*
X127886789Y-49223589D01*
X127855468Y-49299205D01*
X127839500Y-49379479D01*
X127839500Y-49461325D01*
X127855468Y-49541599D01*
X127886789Y-49617215D01*
X127932260Y-49685268D01*
X127990134Y-49743142D01*
X128058187Y-49788613D01*
X128133803Y-49819934D01*
X128214077Y-49835902D01*
X128293329Y-49835902D01*
X128300675Y-49843248D01*
X128300680Y-49843252D01*
X128572501Y-50115074D01*
X128572501Y-51186500D01*
X125138870Y-51186500D01*
X125930670Y-50394700D01*
X126009923Y-50394700D01*
X126090197Y-50378732D01*
X126165813Y-50347411D01*
X126233866Y-50301940D01*
X126291740Y-50244066D01*
X126337211Y-50176013D01*
X126368532Y-50100397D01*
X126384500Y-50020123D01*
X126384500Y-49993410D01*
X126397268Y-50057597D01*
X126428589Y-50133213D01*
X126474060Y-50201266D01*
X126531934Y-50259140D01*
X126599987Y-50304611D01*
X126675603Y-50335932D01*
X126755877Y-50351900D01*
X126837723Y-50351900D01*
X126917997Y-50335932D01*
X126993613Y-50304611D01*
X127061666Y-50259140D01*
X127119540Y-50201266D01*
X127165011Y-50133213D01*
X127196332Y-50057597D01*
X127212300Y-49977323D01*
X127212300Y-49895477D01*
X127196332Y-49815203D01*
X127165011Y-49739587D01*
X127119540Y-49671534D01*
X127061666Y-49613660D01*
X126993613Y-49568189D01*
X126917997Y-49536868D01*
X126837723Y-49520900D01*
X126755877Y-49520900D01*
X126675603Y-49536868D01*
X126599987Y-49568189D01*
X126531934Y-49613660D01*
X126474060Y-49671534D01*
X126428589Y-49739587D01*
X126397268Y-49815203D01*
X126381300Y-49895477D01*
X126381300Y-49922190D01*
X126368532Y-49858003D01*
X126337211Y-49782387D01*
X126291740Y-49714334D01*
X126233866Y-49656460D01*
X126165813Y-49610989D01*
X126090197Y-49579668D01*
X126009923Y-49563700D01*
X125928077Y-49563700D01*
X125847803Y-49579668D01*
X125772187Y-49610989D01*
X125704134Y-49656460D01*
X125646260Y-49714334D01*
X125600789Y-49782387D01*
X125569468Y-49858003D01*
X125553500Y-49938277D01*
X125553500Y-50017530D01*
X125254200Y-50316830D01*
X125254200Y-50243077D01*
X125238232Y-50162803D01*
X125206911Y-50087187D01*
X125161440Y-50019134D01*
X125103566Y-49961260D01*
X125035513Y-49915789D01*
X124959897Y-49884468D01*
X124879623Y-49868500D01*
X124797777Y-49868500D01*
X124717503Y-49884468D01*
X124641887Y-49915789D01*
X124573834Y-49961260D01*
X124515960Y-50019134D01*
X124470489Y-50087187D01*
X124439168Y-50162803D01*
X124427812Y-50219892D01*
X124402813Y-50203189D01*
X124327197Y-50171868D01*
X124246923Y-50155900D01*
X124165077Y-50155900D01*
X124084803Y-50171868D01*
X124009187Y-50203189D01*
X123941134Y-50248660D01*
X123883260Y-50306534D01*
X123837789Y-50374587D01*
X123813500Y-50433226D01*
X123813500Y-48693677D01*
X129338100Y-48693677D01*
X129338100Y-48775523D01*
X129354068Y-48855797D01*
X129385389Y-48931413D01*
X129430860Y-48999466D01*
X129488734Y-49057340D01*
X129556787Y-49102811D01*
X129632403Y-49134132D01*
X129712677Y-49150100D01*
X129794523Y-49150100D01*
X129874797Y-49134132D01*
X129950413Y-49102811D01*
X130018466Y-49057340D01*
X130076340Y-48999466D01*
X130121811Y-48931413D01*
X130153132Y-48855797D01*
X130169100Y-48775523D01*
X130169100Y-48693677D01*
X130153132Y-48613403D01*
X130121811Y-48537787D01*
X130076340Y-48469734D01*
X130018466Y-48411860D01*
X129950413Y-48366389D01*
X129874797Y-48335068D01*
X129794523Y-48319100D01*
X129712677Y-48319100D01*
X129632403Y-48335068D01*
X129556787Y-48366389D01*
X129488734Y-48411860D01*
X129430860Y-48469734D01*
X129385389Y-48537787D01*
X129354068Y-48613403D01*
X129338100Y-48693677D01*
X123813500Y-48693677D01*
X123813500Y-47855477D01*
X129312700Y-47855477D01*
X129312700Y-47937323D01*
X129328668Y-48017597D01*
X129359989Y-48093213D01*
X129405460Y-48161266D01*
X129463334Y-48219140D01*
X129531387Y-48264611D01*
X129607003Y-48295932D01*
X129687277Y-48311900D01*
X129769123Y-48311900D01*
X129849397Y-48295932D01*
X129925013Y-48264611D01*
X129993066Y-48219140D01*
X130050940Y-48161266D01*
X130096411Y-48093213D01*
X130127732Y-48017597D01*
X130143700Y-47937323D01*
X130143700Y-47855477D01*
X130127732Y-47775203D01*
X130096411Y-47699587D01*
X130050940Y-47631534D01*
X129993066Y-47573660D01*
X129925013Y-47528189D01*
X129849397Y-47496868D01*
X129769123Y-47480900D01*
X129687277Y-47480900D01*
X129607003Y-47496868D01*
X129531387Y-47528189D01*
X129463334Y-47573660D01*
X129405460Y-47631534D01*
X129359989Y-47699587D01*
X129328668Y-47775203D01*
X129312700Y-47855477D01*
X123813500Y-47855477D01*
X123813500Y-47203077D01*
X144110500Y-47203077D01*
X144110500Y-47284923D01*
X144126468Y-47365197D01*
X144157789Y-47440813D01*
X144203260Y-47508866D01*
X144261134Y-47566740D01*
X144329187Y-47612211D01*
X144404803Y-47643532D01*
X144485077Y-47659500D01*
X144566923Y-47659500D01*
X144647197Y-47643532D01*
X144722813Y-47612211D01*
X144790866Y-47566740D01*
X144848740Y-47508866D01*
X144894211Y-47440813D01*
X144925532Y-47365197D01*
X144941500Y-47284923D01*
X144941500Y-47203077D01*
X144925532Y-47122803D01*
X144894211Y-47047187D01*
X144848740Y-46979134D01*
X144790866Y-46921260D01*
X144722813Y-46875789D01*
X144647197Y-46844468D01*
X144566923Y-46828500D01*
X144485077Y-46828500D01*
X144404803Y-46844468D01*
X144329187Y-46875789D01*
X144261134Y-46921260D01*
X144203260Y-46979134D01*
X144157789Y-47047187D01*
X144126468Y-47122803D01*
X144110500Y-47203077D01*
X123813500Y-47203077D01*
X123813500Y-46687077D01*
X129185696Y-46687077D01*
X129185696Y-46768923D01*
X129201664Y-46849197D01*
X129232985Y-46924813D01*
X129278456Y-46992866D01*
X129336330Y-47050740D01*
X129404383Y-47096211D01*
X129479999Y-47127532D01*
X129560273Y-47143500D01*
X129642119Y-47143500D01*
X129722393Y-47127532D01*
X129798009Y-47096211D01*
X129866062Y-47050740D01*
X129923936Y-46992866D01*
X129969407Y-46924813D01*
X130000728Y-46849197D01*
X130016696Y-46768923D01*
X130016696Y-46687077D01*
X130000728Y-46606803D01*
X129969407Y-46531187D01*
X129923936Y-46463134D01*
X129866062Y-46405260D01*
X129798009Y-46359789D01*
X129722393Y-46328468D01*
X129642119Y-46312500D01*
X129560273Y-46312500D01*
X129479999Y-46328468D01*
X129404383Y-46359789D01*
X129336330Y-46405260D01*
X129278456Y-46463134D01*
X129232985Y-46531187D01*
X129201664Y-46606803D01*
X129185696Y-46687077D01*
X123813500Y-46687077D01*
X123813500Y-45298077D01*
X126381300Y-45298077D01*
X126381300Y-45379923D01*
X126397268Y-45460197D01*
X126428589Y-45535813D01*
X126474060Y-45603866D01*
X126531934Y-45661740D01*
X126599987Y-45707211D01*
X126675603Y-45738532D01*
X126755877Y-45754500D01*
X126837723Y-45754500D01*
X126917997Y-45738532D01*
X126993613Y-45707211D01*
X126997704Y-45704477D01*
X136795300Y-45704477D01*
X136795300Y-45786323D01*
X136811268Y-45866597D01*
X136842589Y-45942213D01*
X136888060Y-46010266D01*
X136945934Y-46068140D01*
X137013987Y-46113611D01*
X137089603Y-46144932D01*
X137169877Y-46160900D01*
X137251723Y-46160900D01*
X137331997Y-46144932D01*
X137407613Y-46113611D01*
X137475666Y-46068140D01*
X137533540Y-46010266D01*
X137579011Y-45942213D01*
X137582795Y-45933077D01*
X142459500Y-45933077D01*
X142459500Y-46014923D01*
X142475468Y-46095197D01*
X142506789Y-46170813D01*
X142552260Y-46238866D01*
X142610134Y-46296740D01*
X142678187Y-46342211D01*
X142739723Y-46367700D01*
X142678187Y-46393189D01*
X142610134Y-46438660D01*
X142552260Y-46496534D01*
X142506789Y-46564587D01*
X142475468Y-46640203D01*
X142459500Y-46720477D01*
X142459500Y-46802323D01*
X142475468Y-46882597D01*
X142506789Y-46958213D01*
X142552260Y-47026266D01*
X142610134Y-47084140D01*
X142678187Y-47129611D01*
X142753803Y-47160932D01*
X142834077Y-47176900D01*
X142915923Y-47176900D01*
X142996197Y-47160932D01*
X143071813Y-47129611D01*
X143139866Y-47084140D01*
X143197740Y-47026266D01*
X143243211Y-46958213D01*
X143274532Y-46882597D01*
X143290500Y-46802323D01*
X143290500Y-46720477D01*
X143274532Y-46640203D01*
X143243211Y-46564587D01*
X143197740Y-46496534D01*
X143139866Y-46438660D01*
X143071813Y-46393189D01*
X143010277Y-46367700D01*
X143071813Y-46342211D01*
X143139866Y-46296740D01*
X143197740Y-46238866D01*
X143243211Y-46170813D01*
X143274532Y-46095197D01*
X143290500Y-46014923D01*
X143290500Y-45956977D01*
X144439552Y-45956977D01*
X144439552Y-46038823D01*
X144455520Y-46119097D01*
X144486841Y-46194713D01*
X144532312Y-46262766D01*
X144590186Y-46320640D01*
X144658239Y-46366111D01*
X144733855Y-46397432D01*
X144814129Y-46413400D01*
X144895975Y-46413400D01*
X144976249Y-46397432D01*
X145051865Y-46366111D01*
X145119918Y-46320640D01*
X145177792Y-46262766D01*
X145223263Y-46194713D01*
X145225212Y-46190008D01*
X145234989Y-46213613D01*
X145280460Y-46281666D01*
X145338334Y-46339540D01*
X145406387Y-46385011D01*
X145467923Y-46410500D01*
X145406387Y-46435989D01*
X145338334Y-46481460D01*
X145280460Y-46539334D01*
X145234989Y-46607387D01*
X145203668Y-46683003D01*
X145187700Y-46763277D01*
X145187700Y-46845123D01*
X145203668Y-46925397D01*
X145234989Y-47001013D01*
X145280460Y-47069066D01*
X145338334Y-47126940D01*
X145406387Y-47172411D01*
X145482003Y-47203732D01*
X145562277Y-47219700D01*
X145644123Y-47219700D01*
X145724397Y-47203732D01*
X145800013Y-47172411D01*
X145868066Y-47126940D01*
X145925940Y-47069066D01*
X145971411Y-47001013D01*
X146002732Y-46925397D01*
X146018700Y-46845123D01*
X146018700Y-46763277D01*
X146002732Y-46683003D01*
X145971411Y-46607387D01*
X145925940Y-46539334D01*
X145868066Y-46481460D01*
X145800013Y-46435989D01*
X145738477Y-46410500D01*
X145800013Y-46385011D01*
X145868066Y-46339540D01*
X145925940Y-46281666D01*
X145971411Y-46213613D01*
X146002732Y-46137997D01*
X146018700Y-46057723D01*
X146018700Y-45975877D01*
X146002732Y-45895603D01*
X145971411Y-45819987D01*
X145925940Y-45751934D01*
X145868066Y-45694060D01*
X145800013Y-45648589D01*
X145724397Y-45617268D01*
X145644123Y-45601300D01*
X145562277Y-45601300D01*
X145482003Y-45617268D01*
X145406387Y-45648589D01*
X145338334Y-45694060D01*
X145280460Y-45751934D01*
X145234989Y-45819987D01*
X145233040Y-45824692D01*
X145223263Y-45801087D01*
X145177792Y-45733034D01*
X145119918Y-45675160D01*
X145051865Y-45629689D01*
X144976249Y-45598368D01*
X144895975Y-45582400D01*
X144814129Y-45582400D01*
X144733855Y-45598368D01*
X144658239Y-45629689D01*
X144590186Y-45675160D01*
X144532312Y-45733034D01*
X144486841Y-45801087D01*
X144455520Y-45876703D01*
X144439552Y-45956977D01*
X143290500Y-45956977D01*
X143290500Y-45933077D01*
X143274532Y-45852803D01*
X143243211Y-45777187D01*
X143197740Y-45709134D01*
X143139866Y-45651260D01*
X143071813Y-45605789D01*
X142996197Y-45574468D01*
X142915923Y-45558500D01*
X142834077Y-45558500D01*
X142753803Y-45574468D01*
X142678187Y-45605789D01*
X142610134Y-45651260D01*
X142552260Y-45709134D01*
X142506789Y-45777187D01*
X142475468Y-45852803D01*
X142459500Y-45933077D01*
X137582795Y-45933077D01*
X137610332Y-45866597D01*
X137626300Y-45786323D01*
X137626300Y-45704477D01*
X137610332Y-45624203D01*
X137579011Y-45548587D01*
X137533540Y-45480534D01*
X137475666Y-45422660D01*
X137467311Y-45417077D01*
X138888500Y-45417077D01*
X138888500Y-45498923D01*
X138904468Y-45579197D01*
X138935789Y-45654813D01*
X138981260Y-45722866D01*
X139039134Y-45780740D01*
X139107187Y-45826211D01*
X139182803Y-45857532D01*
X139263077Y-45873500D01*
X139344923Y-45873500D01*
X139425197Y-45857532D01*
X139500813Y-45826211D01*
X139568866Y-45780740D01*
X139626740Y-45722866D01*
X139672211Y-45654813D01*
X139703532Y-45579197D01*
X139719500Y-45498923D01*
X139719500Y-45417077D01*
X139703532Y-45336803D01*
X139672211Y-45261187D01*
X139626740Y-45193134D01*
X139568866Y-45135260D01*
X139500813Y-45089789D01*
X139425197Y-45058468D01*
X139344923Y-45042500D01*
X139263077Y-45042500D01*
X139182803Y-45058468D01*
X139107187Y-45089789D01*
X139039134Y-45135260D01*
X138981260Y-45193134D01*
X138935789Y-45261187D01*
X138904468Y-45336803D01*
X138888500Y-45417077D01*
X137467311Y-45417077D01*
X137407613Y-45377189D01*
X137331997Y-45345868D01*
X137251723Y-45329900D01*
X137169877Y-45329900D01*
X137089603Y-45345868D01*
X137013987Y-45377189D01*
X136945934Y-45422660D01*
X136888060Y-45480534D01*
X136842589Y-45548587D01*
X136811268Y-45624203D01*
X136795300Y-45704477D01*
X126997704Y-45704477D01*
X127061666Y-45661740D01*
X127119540Y-45603866D01*
X127165011Y-45535813D01*
X127196332Y-45460197D01*
X127212300Y-45379923D01*
X127212300Y-45298077D01*
X127196332Y-45217803D01*
X127165011Y-45142187D01*
X127119540Y-45074134D01*
X127061666Y-45016260D01*
X126993613Y-44970789D01*
X126917997Y-44939468D01*
X126837723Y-44923500D01*
X126755877Y-44923500D01*
X126675603Y-44939468D01*
X126599987Y-44970789D01*
X126531934Y-45016260D01*
X126474060Y-45074134D01*
X126428589Y-45142187D01*
X126397268Y-45217803D01*
X126381300Y-45298077D01*
X123813500Y-45298077D01*
X123813500Y-44512165D01*
X123829176Y-44393094D01*
X123860488Y-44317500D01*
X146139512Y-44317500D01*
X146170824Y-44393094D01*
%TD*%
M02*
