%TF.GenerationSoftware,KiCad,Pcbnew,(5.1.6)-1*%
%TF.CreationDate,2020-08-10T23:05:38-07:00*%
%TF.ProjectId,Wire-Free-DAQ,57697265-2d46-4726-9565-2d4441512e6b,rev?*%
%TF.SameCoordinates,Original*%
%TF.FileFunction,Copper,L4,Inr*%
%TF.FilePolarity,Positive*%
%FSLAX46Y46*%
G04 Gerber Fmt 4.6, Leading zero omitted, Abs format (unit mm)*
G04 Created by KiCad (PCBNEW (5.1.6)-1) date 2020-08-10 23:05:38*
%MOMM*%
%LPD*%
G01*
G04 APERTURE LIST*
%TA.AperFunction,ViaPad*%
%ADD10C,0.450000*%
%TD*%
%TA.AperFunction,Conductor*%
%ADD11C,0.254000*%
%TD*%
%TA.AperFunction,Conductor*%
%ADD12C,0.127000*%
%TD*%
G04 APERTURE END LIST*
D10*
%TO.N,GND*%
X140066000Y-50919000D03*
X129601196Y-46728000D03*
X141666200Y-54398800D03*
X135468600Y-48683800D03*
X135468600Y-47896400D03*
X124394401Y-59863311D03*
X130007600Y-52417600D03*
X148829000Y-59199400D03*
X147355800Y-59174000D03*
X123560922Y-59829130D03*
X130414000Y-55592600D03*
X143250000Y-59750000D03*
X121716800Y-48768000D03*
X127584200Y-58242200D03*
X124206000Y-50571400D03*
X126796800Y-45339000D03*
X126796800Y-49936400D03*
X137210800Y-45745400D03*
X148818600Y-63246000D03*
X145872200Y-63246000D03*
X143060800Y-56151400D03*
X144170400Y-57327800D03*
X144526000Y-47244000D03*
X143205200Y-61087000D03*
X144272000Y-63500000D03*
X138277600Y-63500000D03*
X133299200Y-63500000D03*
X128375190Y-54991000D03*
X122809000Y-58242200D03*
X120650000Y-54356000D03*
X121310400Y-58140600D03*
X120726200Y-52628800D03*
X125207000Y-59834400D03*
X139304000Y-45458000D03*
X136764000Y-63492000D03*
X143985200Y-52341400D03*
X143959800Y-53509800D03*
X138303000Y-57200800D03*
X136525000Y-57200800D03*
X138303000Y-55422800D03*
X136499600Y-55448200D03*
X134747000Y-55422800D03*
X134721600Y-57226200D03*
X134696200Y-59004200D03*
X136499600Y-59004200D03*
X138303000Y-59029600D03*
X121716800Y-49352200D03*
X147559000Y-44619800D03*
X144855052Y-45997900D03*
%TO.N,/Deserializer/IDX*%
X140218400Y-61206000D03*
%TO.N,/Deserializer/VDD18_P0*%
X139812000Y-60596400D03*
X140828000Y-56126000D03*
%TO.N,/Deserializer/VDD18_FPD0*%
X140751800Y-58793000D03*
X136764000Y-61333000D03*
%TO.N,+3V3*%
X130896600Y-49420400D03*
X136129000Y-53128800D03*
X140802600Y-59529600D03*
X128369301Y-51652339D03*
X134706600Y-49763300D03*
X126036098Y-59021599D03*
X134579600Y-61383800D03*
X121589800Y-61874400D03*
X133121400Y-60477400D03*
X126009400Y-63474600D03*
X123469400Y-63474600D03*
X121332001Y-59033399D03*
X120827800Y-51943000D03*
X121386600Y-56819800D03*
X125966200Y-57416700D03*
X127594600Y-59809000D03*
X145603200Y-46016800D03*
X145603200Y-46804200D03*
%TO.N,/Deserializer/VDD18*%
X142595600Y-63474600D03*
X132065000Y-56456200D03*
%TO.N,/Deserializer/VDD11_D*%
X138465800Y-53103400D03*
%TO.N,/Deserializer/VDD11_DVP*%
X132369800Y-57980200D03*
%TO.N,+BATT*%
X140396200Y-50309400D03*
X124358400Y-48818800D03*
X124358400Y-49657000D03*
X145745200Y-49936400D03*
X145008600Y-49911000D03*
X143789400Y-47218600D03*
X142910804Y-44543600D03*
X144917400Y-44543600D03*
%TO.N,V_OUT*%
X148829000Y-56126000D03*
X147355800Y-56126000D03*
X143789400Y-55727600D03*
X145389600Y-54483000D03*
%TO.N,+1V8*%
X141945600Y-53840000D03*
X136814800Y-49892779D03*
X133843000Y-52062000D03*
X143750000Y-59000000D03*
X142875000Y-45974000D03*
X142875000Y-46761400D03*
X140899177Y-63521000D03*
X135051800Y-63474600D03*
%TO.N,/MCU/VDDUTMIC*%
X124089400Y-54551200D03*
%TO.N,/MCU/VDDPLL*%
X126009400Y-56616600D03*
%TO.N,+1V2*%
X128318500Y-52227100D03*
X124838700Y-50284000D03*
X121343800Y-55821200D03*
X126009400Y-58216800D03*
X125180680Y-60594641D03*
%TO.N,Net-(D1-Pad2)*%
X121513600Y-51943000D03*
%TO.N,/MCU/SWDIO*%
X127580214Y-61448078D03*
%TO.N,/MCU/SWDCLK*%
X128377769Y-59797651D03*
%TO.N,/MCU/DAT2*%
X128305800Y-63492000D03*
X133749999Y-49250000D03*
%TO.N,/MCU/DAT3*%
X133169900Y-49407700D03*
X128371600Y-61391800D03*
%TO.N,/MCU/DAT0*%
X127594600Y-54957600D03*
X129042400Y-49445800D03*
%TO.N,/MCU/CMD*%
X129918261Y-53110667D03*
X132369829Y-49395000D03*
%TO.N,/MCU/CLK*%
X129451359Y-53636718D03*
X126807200Y-61409200D03*
%TO.N,/MCU/DAT1*%
X128255000Y-49420402D03*
X126822200Y-55016400D03*
%TO.N,/Deserializer/OEN*%
X137068800Y-53078000D03*
%TO.N,/Deserializer/OSS_SEL*%
X137754600Y-53103400D03*
%TO.N,/Deserializer/I2C_SCL*%
X128382000Y-57421400D03*
X139100800Y-54602000D03*
%TO.N,/Deserializer/I2C_SDA*%
X128352689Y-55821601D03*
X139812000Y-53840000D03*
%TO.N,/Deserializer/LOCK*%
X140665200Y-54424200D03*
X128917721Y-54259100D03*
%TO.N,/Deserializer/GPIO0*%
X121168400Y-60139200D03*
X135443200Y-59859800D03*
%TO.N,/Deserializer/GPIO1*%
X121463403Y-60713603D03*
X134757400Y-59809000D03*
%TO.N,/Deserializer/GPIO2*%
X122819400Y-59783600D03*
X133730988Y-61366400D03*
%TO.N,/Deserializer/GPIO3*%
X133171237Y-61162114D03*
X122819400Y-60621800D03*
%TO.N,/Deserializer/ROUT3*%
X132496800Y-60494798D03*
X132014200Y-58462800D03*
%TO.N,/Deserializer/ROUT4*%
X131744684Y-60480990D03*
X132039600Y-57472200D03*
%TO.N,/Deserializer/ROUT5*%
X131597400Y-61493400D03*
X132369800Y-56964200D03*
%TO.N,/Deserializer/ROUT6*%
X131633212Y-62730000D03*
X132369800Y-55948200D03*
%TO.N,/Deserializer/ROUT7*%
X131074400Y-63209010D03*
X132065000Y-55440200D03*
%TO.N,/Deserializer/ROUT8*%
X130199562Y-61853674D03*
X132373115Y-54952352D03*
%TO.N,/Deserializer/ROUT9*%
X125994400Y-59834400D03*
X132065000Y-54449600D03*
%TO.N,/Deserializer/ROUT10*%
X131785600Y-53814600D03*
%TO.N,/Deserializer/ROUT11*%
X133258800Y-52773200D03*
%TO.N,/Deserializer/HSYNC*%
X134467600Y-52730400D03*
X122794000Y-61434600D03*
%TO.N,/Deserializer/VSYNC*%
X134478000Y-52087400D03*
X126781800Y-59817000D03*
%TO.N,/Deserializer/PCLK*%
X134503400Y-51452400D03*
X124394200Y-61434600D03*
%TO.N,Net-(D1-Pad4)*%
X121183400Y-50647600D03*
%TO.N,Net-(D1-Pad3)*%
X121920000Y-50622200D03*
%TO.N,/MCU/LED_B*%
X123596400Y-57429400D03*
%TO.N,/MCU/LED_G*%
X122785197Y-57453295D03*
%TO.N,/MCU/LED_R*%
X121818400Y-57404000D03*
%TO.N,Net-(C58-Pad2)*%
X123622600Y-54957600D03*
%TO.N,+5V*%
X137494800Y-49883400D03*
X129753600Y-48734600D03*
X129728200Y-47896400D03*
%TO.N,/MCU/D-*%
X124800600Y-54551198D03*
%TO.N,/MCU/D+*%
X125228810Y-55027876D03*
%TO.N,/MCU/VDDPLLUSB*%
X125600700Y-54043200D03*
X126807200Y-58234200D03*
%TO.N,Net-(R28-Pad1)*%
X135392400Y-49826800D03*
%TO.N,/MCU/CHR_STAT*%
X141183600Y-54043200D03*
X130972800Y-51731800D03*
%TO.N,/MCU/VBUS_DET*%
X121905000Y-58208800D03*
X125969000Y-49979200D03*
%TD*%
D11*
%TO.N,+1V2*%
G36*
X121237800Y-49399377D02*
G01*
X121256207Y-49491919D01*
X121292315Y-49579092D01*
X121344736Y-49657545D01*
X121411455Y-49724264D01*
X121489908Y-49776685D01*
X121577081Y-49812793D01*
X121669623Y-49831200D01*
X121763977Y-49831200D01*
X121856519Y-49812793D01*
X121943692Y-49776685D01*
X122022145Y-49724264D01*
X122088864Y-49657545D01*
X122141285Y-49579092D01*
X122177393Y-49491919D01*
X122195800Y-49399377D01*
X122195800Y-49377000D01*
X123969401Y-49377000D01*
X123933915Y-49430108D01*
X123897807Y-49517281D01*
X123879400Y-49609823D01*
X123879400Y-49704177D01*
X123897807Y-49796719D01*
X123933915Y-49883892D01*
X123986336Y-49962345D01*
X124053055Y-50029064D01*
X124131508Y-50081485D01*
X124158172Y-50092529D01*
X124066281Y-50110807D01*
X123979108Y-50146915D01*
X123900655Y-50199336D01*
X123833936Y-50266055D01*
X123781515Y-50344508D01*
X123745407Y-50431681D01*
X123727000Y-50524223D01*
X123727000Y-50618577D01*
X123745407Y-50711119D01*
X123781515Y-50798292D01*
X123833936Y-50876745D01*
X123900655Y-50943464D01*
X123979108Y-50995885D01*
X124066281Y-51031993D01*
X124158823Y-51050400D01*
X124253177Y-51050400D01*
X124345719Y-51031993D01*
X124432892Y-50995885D01*
X124511345Y-50943464D01*
X124578064Y-50876745D01*
X124630485Y-50798292D01*
X124666593Y-50711119D01*
X124685000Y-50618577D01*
X124685000Y-50524223D01*
X124666593Y-50431681D01*
X124630485Y-50344508D01*
X124578064Y-50266055D01*
X124511345Y-50199336D01*
X124432892Y-50146915D01*
X124406228Y-50135871D01*
X124498119Y-50117593D01*
X124585292Y-50081485D01*
X124663745Y-50029064D01*
X124730464Y-49962345D01*
X124750724Y-49932023D01*
X125490000Y-49932023D01*
X125490000Y-50026377D01*
X125508407Y-50118919D01*
X125544515Y-50206092D01*
X125596936Y-50284545D01*
X125663655Y-50351264D01*
X125742108Y-50403685D01*
X125829281Y-50439793D01*
X125921823Y-50458200D01*
X126016177Y-50458200D01*
X126108719Y-50439793D01*
X126195892Y-50403685D01*
X126274345Y-50351264D01*
X126341064Y-50284545D01*
X126393485Y-50206092D01*
X126396328Y-50199229D01*
X126424736Y-50241745D01*
X126491455Y-50308464D01*
X126569908Y-50360885D01*
X126657081Y-50396993D01*
X126749623Y-50415400D01*
X126843977Y-50415400D01*
X126936519Y-50396993D01*
X127023692Y-50360885D01*
X127102145Y-50308464D01*
X127168864Y-50241745D01*
X127221285Y-50163292D01*
X127257393Y-50076119D01*
X127275800Y-49983577D01*
X127275800Y-49889223D01*
X127257393Y-49796681D01*
X127221285Y-49709508D01*
X127168864Y-49631055D01*
X127102145Y-49564336D01*
X127023692Y-49511915D01*
X126936519Y-49475807D01*
X126843977Y-49457400D01*
X126749623Y-49457400D01*
X126657081Y-49475807D01*
X126569908Y-49511915D01*
X126491455Y-49564336D01*
X126424736Y-49631055D01*
X126372315Y-49709508D01*
X126369472Y-49716371D01*
X126341064Y-49673855D01*
X126274345Y-49607136D01*
X126195892Y-49554715D01*
X126108719Y-49518607D01*
X126016177Y-49500200D01*
X125921823Y-49500200D01*
X125829281Y-49518607D01*
X125742108Y-49554715D01*
X125663655Y-49607136D01*
X125596936Y-49673855D01*
X125544515Y-49752308D01*
X125508407Y-49839481D01*
X125490000Y-49932023D01*
X124750724Y-49932023D01*
X124782885Y-49883892D01*
X124818993Y-49796719D01*
X124837400Y-49704177D01*
X124837400Y-49609823D01*
X124818993Y-49517281D01*
X124782885Y-49430108D01*
X124747399Y-49377000D01*
X127776000Y-49377000D01*
X127776000Y-49467579D01*
X127794407Y-49560121D01*
X127830515Y-49647294D01*
X127882936Y-49725747D01*
X127949655Y-49792466D01*
X128028108Y-49844887D01*
X128115281Y-49880995D01*
X128207823Y-49899402D01*
X128302177Y-49899402D01*
X128394719Y-49880995D01*
X128481892Y-49844887D01*
X128560345Y-49792466D01*
X128627064Y-49725747D01*
X128640215Y-49706066D01*
X128670336Y-49751145D01*
X128737055Y-49817864D01*
X128815508Y-49870285D01*
X128902681Y-49906393D01*
X128995223Y-49924800D01*
X129089577Y-49924800D01*
X129182119Y-49906393D01*
X129269292Y-49870285D01*
X129347745Y-49817864D01*
X129373000Y-49792609D01*
X129373000Y-53163920D01*
X129311640Y-53176125D01*
X129224467Y-53212233D01*
X129146014Y-53264654D01*
X129079295Y-53331373D01*
X129026874Y-53409826D01*
X128990766Y-53496999D01*
X128972359Y-53589541D01*
X128972359Y-53683895D01*
X128990766Y-53776437D01*
X128994742Y-53786036D01*
X128964898Y-53780100D01*
X128870544Y-53780100D01*
X128778002Y-53798507D01*
X128690829Y-53834615D01*
X128612376Y-53887036D01*
X128545657Y-53953755D01*
X128493236Y-54032208D01*
X128457128Y-54119381D01*
X128438721Y-54211923D01*
X128438721Y-54306277D01*
X128457128Y-54398819D01*
X128493236Y-54485992D01*
X128525977Y-54534991D01*
X128514909Y-54530407D01*
X128422367Y-54512000D01*
X128328013Y-54512000D01*
X128235471Y-54530407D01*
X128148298Y-54566515D01*
X128069845Y-54618936D01*
X128003126Y-54685655D01*
X127996054Y-54696239D01*
X127966664Y-54652255D01*
X127899945Y-54585536D01*
X127821492Y-54533115D01*
X127734319Y-54497007D01*
X127641777Y-54478600D01*
X127547423Y-54478600D01*
X127454881Y-54497007D01*
X127367708Y-54533115D01*
X127289255Y-54585536D01*
X127222536Y-54652255D01*
X127187660Y-54704451D01*
X127127545Y-54644336D01*
X127049092Y-54591915D01*
X126961919Y-54555807D01*
X126869377Y-54537400D01*
X126775023Y-54537400D01*
X126682481Y-54555807D01*
X126595308Y-54591915D01*
X126516855Y-54644336D01*
X126450136Y-54711055D01*
X126397715Y-54789508D01*
X126361607Y-54876681D01*
X126343200Y-54969223D01*
X126343200Y-55063577D01*
X126361607Y-55156119D01*
X126397715Y-55243292D01*
X126450136Y-55321745D01*
X126516855Y-55388464D01*
X126595308Y-55440885D01*
X126682481Y-55476993D01*
X126775023Y-55495400D01*
X126869377Y-55495400D01*
X126961919Y-55476993D01*
X127049092Y-55440885D01*
X127127545Y-55388464D01*
X127194264Y-55321745D01*
X127229140Y-55269549D01*
X127289255Y-55329664D01*
X127367708Y-55382085D01*
X127454881Y-55418193D01*
X127547423Y-55436600D01*
X127641777Y-55436600D01*
X127734319Y-55418193D01*
X127821492Y-55382085D01*
X127899945Y-55329664D01*
X127966664Y-55262945D01*
X127973736Y-55252361D01*
X128003126Y-55296345D01*
X128069845Y-55363064D01*
X128123302Y-55398783D01*
X128047344Y-55449537D01*
X127980625Y-55516256D01*
X127928204Y-55594709D01*
X127892096Y-55681882D01*
X127873689Y-55774424D01*
X127873689Y-55868778D01*
X127892096Y-55961320D01*
X127928204Y-56048493D01*
X127980625Y-56126946D01*
X128047344Y-56193665D01*
X128125797Y-56246086D01*
X128212970Y-56282194D01*
X128305512Y-56300601D01*
X128399866Y-56300601D01*
X128492408Y-56282194D01*
X128579581Y-56246086D01*
X128658034Y-56193665D01*
X128724753Y-56126946D01*
X128777174Y-56048493D01*
X128813282Y-55961320D01*
X128831689Y-55868778D01*
X128831689Y-55774424D01*
X128813282Y-55681882D01*
X128777174Y-55594709D01*
X128724753Y-55516256D01*
X128658034Y-55449537D01*
X128604577Y-55413818D01*
X128680535Y-55363064D01*
X128747254Y-55296345D01*
X128799675Y-55217892D01*
X128835783Y-55130719D01*
X128854190Y-55038177D01*
X128854190Y-54943823D01*
X128835783Y-54851281D01*
X128799675Y-54764108D01*
X128766934Y-54715109D01*
X128778002Y-54719693D01*
X128870544Y-54738100D01*
X128964898Y-54738100D01*
X129057440Y-54719693D01*
X129144613Y-54683585D01*
X129223066Y-54631164D01*
X129289785Y-54564445D01*
X129342206Y-54485992D01*
X129373000Y-54411648D01*
X129373000Y-63619000D01*
X128768923Y-63619000D01*
X128784800Y-63539177D01*
X128784800Y-63444823D01*
X128766393Y-63352281D01*
X128730285Y-63265108D01*
X128677864Y-63186655D01*
X128611145Y-63119936D01*
X128532692Y-63067515D01*
X128445519Y-63031407D01*
X128352977Y-63013000D01*
X128258623Y-63013000D01*
X128166081Y-63031407D01*
X128078908Y-63067515D01*
X128000455Y-63119936D01*
X127933736Y-63186655D01*
X127881315Y-63265108D01*
X127845207Y-63352281D01*
X127826800Y-63444823D01*
X127826800Y-63539177D01*
X127842677Y-63619000D01*
X126468054Y-63619000D01*
X126469993Y-63614319D01*
X126488400Y-63521777D01*
X126488400Y-63427423D01*
X126469993Y-63334881D01*
X126433885Y-63247708D01*
X126381464Y-63169255D01*
X126314745Y-63102536D01*
X126236292Y-63050115D01*
X126149119Y-63014007D01*
X126056577Y-62995600D01*
X125962223Y-62995600D01*
X125869681Y-63014007D01*
X125782508Y-63050115D01*
X125704055Y-63102536D01*
X125637336Y-63169255D01*
X125584915Y-63247708D01*
X125548807Y-63334881D01*
X125530400Y-63427423D01*
X125530400Y-63521777D01*
X125548807Y-63614319D01*
X125550746Y-63619000D01*
X123928054Y-63619000D01*
X123929993Y-63614319D01*
X123948400Y-63521777D01*
X123948400Y-63427423D01*
X123929993Y-63334881D01*
X123893885Y-63247708D01*
X123841464Y-63169255D01*
X123774745Y-63102536D01*
X123696292Y-63050115D01*
X123609119Y-63014007D01*
X123516577Y-62995600D01*
X123422223Y-62995600D01*
X123329681Y-63014007D01*
X123242508Y-63050115D01*
X123164055Y-63102536D01*
X123097336Y-63169255D01*
X123044915Y-63247708D01*
X123008807Y-63334881D01*
X122990400Y-63427423D01*
X122990400Y-63521777D01*
X123008807Y-63614319D01*
X123010746Y-63619000D01*
X120381000Y-63619000D01*
X120381000Y-61827223D01*
X121110800Y-61827223D01*
X121110800Y-61921577D01*
X121129207Y-62014119D01*
X121165315Y-62101292D01*
X121217736Y-62179745D01*
X121284455Y-62246464D01*
X121362908Y-62298885D01*
X121450081Y-62334993D01*
X121542623Y-62353400D01*
X121636977Y-62353400D01*
X121729519Y-62334993D01*
X121816692Y-62298885D01*
X121895145Y-62246464D01*
X121961864Y-62179745D01*
X122014285Y-62101292D01*
X122050393Y-62014119D01*
X122068800Y-61921577D01*
X122068800Y-61827223D01*
X122050393Y-61734681D01*
X122014285Y-61647508D01*
X121961864Y-61569055D01*
X121895145Y-61502336D01*
X121816692Y-61449915D01*
X121729519Y-61413807D01*
X121636977Y-61395400D01*
X121542623Y-61395400D01*
X121450081Y-61413807D01*
X121362908Y-61449915D01*
X121284455Y-61502336D01*
X121217736Y-61569055D01*
X121165315Y-61647508D01*
X121129207Y-61734681D01*
X121110800Y-61827223D01*
X120381000Y-61827223D01*
X120381000Y-61387423D01*
X122315000Y-61387423D01*
X122315000Y-61481777D01*
X122333407Y-61574319D01*
X122369515Y-61661492D01*
X122421936Y-61739945D01*
X122488655Y-61806664D01*
X122567108Y-61859085D01*
X122654281Y-61895193D01*
X122746823Y-61913600D01*
X122841177Y-61913600D01*
X122933719Y-61895193D01*
X123020892Y-61859085D01*
X123099345Y-61806664D01*
X123166064Y-61739945D01*
X123218485Y-61661492D01*
X123254593Y-61574319D01*
X123273000Y-61481777D01*
X123273000Y-61387423D01*
X123915200Y-61387423D01*
X123915200Y-61481777D01*
X123933607Y-61574319D01*
X123969715Y-61661492D01*
X124022136Y-61739945D01*
X124088855Y-61806664D01*
X124167308Y-61859085D01*
X124254481Y-61895193D01*
X124347023Y-61913600D01*
X124441377Y-61913600D01*
X124533919Y-61895193D01*
X124621092Y-61859085D01*
X124699545Y-61806664D01*
X124766264Y-61739945D01*
X124818685Y-61661492D01*
X124854793Y-61574319D01*
X124873200Y-61481777D01*
X124873200Y-61387423D01*
X124868148Y-61362023D01*
X126328200Y-61362023D01*
X126328200Y-61456377D01*
X126346607Y-61548919D01*
X126382715Y-61636092D01*
X126435136Y-61714545D01*
X126501855Y-61781264D01*
X126580308Y-61833685D01*
X126667481Y-61869793D01*
X126760023Y-61888200D01*
X126854377Y-61888200D01*
X126946919Y-61869793D01*
X127034092Y-61833685D01*
X127112545Y-61781264D01*
X127179264Y-61714545D01*
X127180718Y-61712369D01*
X127208150Y-61753423D01*
X127274869Y-61820142D01*
X127353322Y-61872563D01*
X127440495Y-61908671D01*
X127533037Y-61927078D01*
X127627391Y-61927078D01*
X127719933Y-61908671D01*
X127807106Y-61872563D01*
X127885559Y-61820142D01*
X127952278Y-61753423D01*
X127994709Y-61689921D01*
X127999536Y-61697145D01*
X128066255Y-61763864D01*
X128144708Y-61816285D01*
X128231881Y-61852393D01*
X128324423Y-61870800D01*
X128418777Y-61870800D01*
X128511319Y-61852393D01*
X128598492Y-61816285D01*
X128676945Y-61763864D01*
X128743664Y-61697145D01*
X128796085Y-61618692D01*
X128832193Y-61531519D01*
X128850600Y-61438977D01*
X128850600Y-61344623D01*
X128832193Y-61252081D01*
X128796085Y-61164908D01*
X128743664Y-61086455D01*
X128676945Y-61019736D01*
X128598492Y-60967315D01*
X128511319Y-60931207D01*
X128418777Y-60912800D01*
X128324423Y-60912800D01*
X128231881Y-60931207D01*
X128144708Y-60967315D01*
X128066255Y-61019736D01*
X127999536Y-61086455D01*
X127957105Y-61149957D01*
X127952278Y-61142733D01*
X127885559Y-61076014D01*
X127807106Y-61023593D01*
X127719933Y-60987485D01*
X127627391Y-60969078D01*
X127533037Y-60969078D01*
X127440495Y-60987485D01*
X127353322Y-61023593D01*
X127274869Y-61076014D01*
X127208150Y-61142733D01*
X127206696Y-61144909D01*
X127179264Y-61103855D01*
X127112545Y-61037136D01*
X127034092Y-60984715D01*
X126946919Y-60948607D01*
X126854377Y-60930200D01*
X126760023Y-60930200D01*
X126667481Y-60948607D01*
X126580308Y-60984715D01*
X126501855Y-61037136D01*
X126435136Y-61103855D01*
X126382715Y-61182308D01*
X126346607Y-61269481D01*
X126328200Y-61362023D01*
X124868148Y-61362023D01*
X124854793Y-61294881D01*
X124818685Y-61207708D01*
X124766264Y-61129255D01*
X124699545Y-61062536D01*
X124621092Y-61010115D01*
X124533919Y-60974007D01*
X124441377Y-60955600D01*
X124347023Y-60955600D01*
X124254481Y-60974007D01*
X124167308Y-61010115D01*
X124088855Y-61062536D01*
X124022136Y-61129255D01*
X123969715Y-61207708D01*
X123933607Y-61294881D01*
X123915200Y-61387423D01*
X123273000Y-61387423D01*
X123254593Y-61294881D01*
X123218485Y-61207708D01*
X123166064Y-61129255D01*
X123099345Y-61062536D01*
X123060658Y-61036686D01*
X123124745Y-60993864D01*
X123191464Y-60927145D01*
X123243885Y-60848692D01*
X123279993Y-60761519D01*
X123298400Y-60668977D01*
X123298400Y-60574623D01*
X123279993Y-60482081D01*
X123243885Y-60394908D01*
X123191464Y-60316455D01*
X123124745Y-60249736D01*
X123054351Y-60202700D01*
X123124745Y-60155664D01*
X123171665Y-60108744D01*
X123188858Y-60134475D01*
X123255577Y-60201194D01*
X123334030Y-60253615D01*
X123421203Y-60289723D01*
X123513745Y-60308130D01*
X123608099Y-60308130D01*
X123700641Y-60289723D01*
X123787814Y-60253615D01*
X123866267Y-60201194D01*
X123932986Y-60134475D01*
X123967104Y-60083414D01*
X123969916Y-60090203D01*
X124022337Y-60168656D01*
X124089056Y-60235375D01*
X124167509Y-60287796D01*
X124254682Y-60323904D01*
X124347224Y-60342311D01*
X124441578Y-60342311D01*
X124534120Y-60323904D01*
X124621293Y-60287796D01*
X124699746Y-60235375D01*
X124766465Y-60168656D01*
X124810359Y-60102964D01*
X124834936Y-60139745D01*
X124901655Y-60206464D01*
X124980108Y-60258885D01*
X125067281Y-60294993D01*
X125159823Y-60313400D01*
X125254177Y-60313400D01*
X125346719Y-60294993D01*
X125433892Y-60258885D01*
X125512345Y-60206464D01*
X125579064Y-60139745D01*
X125600700Y-60107365D01*
X125622336Y-60139745D01*
X125689055Y-60206464D01*
X125767508Y-60258885D01*
X125854681Y-60294993D01*
X125947223Y-60313400D01*
X126041577Y-60313400D01*
X126134119Y-60294993D01*
X126221292Y-60258885D01*
X126299745Y-60206464D01*
X126366464Y-60139745D01*
X126393913Y-60098665D01*
X126409736Y-60122345D01*
X126476455Y-60189064D01*
X126554908Y-60241485D01*
X126642081Y-60277593D01*
X126734623Y-60296000D01*
X126828977Y-60296000D01*
X126921519Y-60277593D01*
X127008692Y-60241485D01*
X127087145Y-60189064D01*
X127153864Y-60122345D01*
X127190873Y-60066958D01*
X127222536Y-60114345D01*
X127289255Y-60181064D01*
X127367708Y-60233485D01*
X127454881Y-60269593D01*
X127547423Y-60288000D01*
X127641777Y-60288000D01*
X127734319Y-60269593D01*
X127821492Y-60233485D01*
X127899945Y-60181064D01*
X127966664Y-60114345D01*
X127989976Y-60079456D01*
X128005705Y-60102996D01*
X128072424Y-60169715D01*
X128150877Y-60222136D01*
X128238050Y-60258244D01*
X128330592Y-60276651D01*
X128424946Y-60276651D01*
X128517488Y-60258244D01*
X128604661Y-60222136D01*
X128683114Y-60169715D01*
X128749833Y-60102996D01*
X128802254Y-60024543D01*
X128838362Y-59937370D01*
X128856769Y-59844828D01*
X128856769Y-59750474D01*
X128838362Y-59657932D01*
X128802254Y-59570759D01*
X128749833Y-59492306D01*
X128683114Y-59425587D01*
X128604661Y-59373166D01*
X128517488Y-59337058D01*
X128424946Y-59318651D01*
X128330592Y-59318651D01*
X128238050Y-59337058D01*
X128150877Y-59373166D01*
X128072424Y-59425587D01*
X128005705Y-59492306D01*
X127982393Y-59527195D01*
X127966664Y-59503655D01*
X127899945Y-59436936D01*
X127821492Y-59384515D01*
X127734319Y-59348407D01*
X127641777Y-59330000D01*
X127547423Y-59330000D01*
X127454881Y-59348407D01*
X127367708Y-59384515D01*
X127289255Y-59436936D01*
X127222536Y-59503655D01*
X127185527Y-59559042D01*
X127153864Y-59511655D01*
X127087145Y-59444936D01*
X127008692Y-59392515D01*
X126921519Y-59356407D01*
X126828977Y-59338000D01*
X126734623Y-59338000D01*
X126642081Y-59356407D01*
X126554908Y-59392515D01*
X126476455Y-59444936D01*
X126409736Y-59511655D01*
X126382287Y-59552735D01*
X126366464Y-59529055D01*
X126299745Y-59462336D01*
X126269206Y-59441930D01*
X126341443Y-59393663D01*
X126408162Y-59326944D01*
X126460583Y-59248491D01*
X126496691Y-59161318D01*
X126515098Y-59068776D01*
X126515098Y-58974422D01*
X126496691Y-58881880D01*
X126460583Y-58794707D01*
X126408162Y-58716254D01*
X126341443Y-58649535D01*
X126262990Y-58597114D01*
X126175817Y-58561006D01*
X126083275Y-58542599D01*
X125988921Y-58542599D01*
X125896379Y-58561006D01*
X125809206Y-58597114D01*
X125730753Y-58649535D01*
X125664034Y-58716254D01*
X125611613Y-58794707D01*
X125575505Y-58881880D01*
X125557098Y-58974422D01*
X125557098Y-59068776D01*
X125575505Y-59161318D01*
X125611613Y-59248491D01*
X125664034Y-59326944D01*
X125730753Y-59393663D01*
X125761292Y-59414069D01*
X125689055Y-59462336D01*
X125622336Y-59529055D01*
X125600700Y-59561435D01*
X125579064Y-59529055D01*
X125512345Y-59462336D01*
X125433892Y-59409915D01*
X125346719Y-59373807D01*
X125254177Y-59355400D01*
X125159823Y-59355400D01*
X125067281Y-59373807D01*
X124980108Y-59409915D01*
X124901655Y-59462336D01*
X124834936Y-59529055D01*
X124791042Y-59594747D01*
X124766465Y-59557966D01*
X124699746Y-59491247D01*
X124621293Y-59438826D01*
X124534120Y-59402718D01*
X124441578Y-59384311D01*
X124347224Y-59384311D01*
X124254682Y-59402718D01*
X124167509Y-59438826D01*
X124089056Y-59491247D01*
X124022337Y-59557966D01*
X123988219Y-59609027D01*
X123985407Y-59602238D01*
X123932986Y-59523785D01*
X123866267Y-59457066D01*
X123787814Y-59404645D01*
X123700641Y-59368537D01*
X123608099Y-59350130D01*
X123513745Y-59350130D01*
X123421203Y-59368537D01*
X123334030Y-59404645D01*
X123255577Y-59457066D01*
X123208657Y-59503986D01*
X123191464Y-59478255D01*
X123124745Y-59411536D01*
X123046292Y-59359115D01*
X122959119Y-59323007D01*
X122866577Y-59304600D01*
X122772223Y-59304600D01*
X122679681Y-59323007D01*
X122592508Y-59359115D01*
X122514055Y-59411536D01*
X122447336Y-59478255D01*
X122394915Y-59556708D01*
X122358807Y-59643881D01*
X122340400Y-59736423D01*
X122340400Y-59830777D01*
X122358807Y-59923319D01*
X122394915Y-60010492D01*
X122447336Y-60088945D01*
X122514055Y-60155664D01*
X122584449Y-60202700D01*
X122514055Y-60249736D01*
X122447336Y-60316455D01*
X122394915Y-60394908D01*
X122358807Y-60482081D01*
X122340400Y-60574623D01*
X122340400Y-60668977D01*
X122358807Y-60761519D01*
X122394915Y-60848692D01*
X122447336Y-60927145D01*
X122514055Y-60993864D01*
X122552742Y-61019714D01*
X122488655Y-61062536D01*
X122421936Y-61129255D01*
X122369515Y-61207708D01*
X122333407Y-61294881D01*
X122315000Y-61387423D01*
X120381000Y-61387423D01*
X120381000Y-60092023D01*
X120689400Y-60092023D01*
X120689400Y-60186377D01*
X120707807Y-60278919D01*
X120743915Y-60366092D01*
X120796336Y-60444545D01*
X120863055Y-60511264D01*
X120941508Y-60563685D01*
X121000018Y-60587921D01*
X120984403Y-60666426D01*
X120984403Y-60760780D01*
X121002810Y-60853322D01*
X121038918Y-60940495D01*
X121091339Y-61018948D01*
X121158058Y-61085667D01*
X121236511Y-61138088D01*
X121323684Y-61174196D01*
X121416226Y-61192603D01*
X121510580Y-61192603D01*
X121603122Y-61174196D01*
X121690295Y-61138088D01*
X121768748Y-61085667D01*
X121835467Y-61018948D01*
X121887888Y-60940495D01*
X121923996Y-60853322D01*
X121942403Y-60760780D01*
X121942403Y-60666426D01*
X121923996Y-60573884D01*
X121887888Y-60486711D01*
X121835467Y-60408258D01*
X121768748Y-60341539D01*
X121690295Y-60289118D01*
X121631785Y-60264882D01*
X121647400Y-60186377D01*
X121647400Y-60092023D01*
X121628993Y-59999481D01*
X121592885Y-59912308D01*
X121540464Y-59833855D01*
X121473745Y-59767136D01*
X121395292Y-59714715D01*
X121308119Y-59678607D01*
X121215577Y-59660200D01*
X121121223Y-59660200D01*
X121028681Y-59678607D01*
X120941508Y-59714715D01*
X120863055Y-59767136D01*
X120796336Y-59833855D01*
X120743915Y-59912308D01*
X120707807Y-59999481D01*
X120689400Y-60092023D01*
X120381000Y-60092023D01*
X120381000Y-58093423D01*
X120831400Y-58093423D01*
X120831400Y-58187777D01*
X120849807Y-58280319D01*
X120885915Y-58367492D01*
X120938336Y-58445945D01*
X121005055Y-58512664D01*
X121083508Y-58565085D01*
X121147215Y-58591473D01*
X121105109Y-58608914D01*
X121026656Y-58661335D01*
X120959937Y-58728054D01*
X120907516Y-58806507D01*
X120871408Y-58893680D01*
X120853001Y-58986222D01*
X120853001Y-59080576D01*
X120871408Y-59173118D01*
X120907516Y-59260291D01*
X120959937Y-59338744D01*
X121026656Y-59405463D01*
X121105109Y-59457884D01*
X121192282Y-59493992D01*
X121284824Y-59512399D01*
X121379178Y-59512399D01*
X121471720Y-59493992D01*
X121558893Y-59457884D01*
X121637346Y-59405463D01*
X121704065Y-59338744D01*
X121756486Y-59260291D01*
X121792594Y-59173118D01*
X121811001Y-59080576D01*
X121811001Y-58986222D01*
X121792594Y-58893680D01*
X121756486Y-58806507D01*
X121704065Y-58728054D01*
X121637346Y-58661335D01*
X121558893Y-58608914D01*
X121495186Y-58582526D01*
X121537292Y-58565085D01*
X121565217Y-58546426D01*
X121599655Y-58580864D01*
X121678108Y-58633285D01*
X121765281Y-58669393D01*
X121857823Y-58687800D01*
X121952177Y-58687800D01*
X122044719Y-58669393D01*
X122131892Y-58633285D01*
X122210345Y-58580864D01*
X122277064Y-58514145D01*
X122329485Y-58435692D01*
X122350083Y-58385964D01*
X122384515Y-58469092D01*
X122436936Y-58547545D01*
X122503655Y-58614264D01*
X122582108Y-58666685D01*
X122669281Y-58702793D01*
X122761823Y-58721200D01*
X122856177Y-58721200D01*
X122948719Y-58702793D01*
X123035892Y-58666685D01*
X123114345Y-58614264D01*
X123181064Y-58547545D01*
X123233485Y-58469092D01*
X123269593Y-58381919D01*
X123288000Y-58289377D01*
X123288000Y-58195023D01*
X123286409Y-58187023D01*
X126328200Y-58187023D01*
X126328200Y-58281377D01*
X126346607Y-58373919D01*
X126382715Y-58461092D01*
X126435136Y-58539545D01*
X126501855Y-58606264D01*
X126580308Y-58658685D01*
X126667481Y-58694793D01*
X126760023Y-58713200D01*
X126854377Y-58713200D01*
X126946919Y-58694793D01*
X127034092Y-58658685D01*
X127112545Y-58606264D01*
X127179264Y-58539545D01*
X127193027Y-58518947D01*
X127212136Y-58547545D01*
X127278855Y-58614264D01*
X127357308Y-58666685D01*
X127444481Y-58702793D01*
X127537023Y-58721200D01*
X127631377Y-58721200D01*
X127723919Y-58702793D01*
X127811092Y-58666685D01*
X127889545Y-58614264D01*
X127956264Y-58547545D01*
X128008685Y-58469092D01*
X128044793Y-58381919D01*
X128063200Y-58289377D01*
X128063200Y-58195023D01*
X128044793Y-58102481D01*
X128008685Y-58015308D01*
X127956264Y-57936855D01*
X127889545Y-57870136D01*
X127811092Y-57817715D01*
X127723919Y-57781607D01*
X127631377Y-57763200D01*
X127537023Y-57763200D01*
X127444481Y-57781607D01*
X127357308Y-57817715D01*
X127278855Y-57870136D01*
X127212136Y-57936855D01*
X127198373Y-57957453D01*
X127179264Y-57928855D01*
X127112545Y-57862136D01*
X127034092Y-57809715D01*
X126946919Y-57773607D01*
X126854377Y-57755200D01*
X126760023Y-57755200D01*
X126667481Y-57773607D01*
X126580308Y-57809715D01*
X126501855Y-57862136D01*
X126435136Y-57928855D01*
X126382715Y-58007308D01*
X126346607Y-58094481D01*
X126328200Y-58187023D01*
X123286409Y-58187023D01*
X123269593Y-58102481D01*
X123233485Y-58015308D01*
X123181064Y-57936855D01*
X123114345Y-57870136D01*
X123068937Y-57839795D01*
X123090542Y-57825359D01*
X123157261Y-57758640D01*
X123198782Y-57696500D01*
X123224336Y-57734745D01*
X123291055Y-57801464D01*
X123369508Y-57853885D01*
X123456681Y-57889993D01*
X123549223Y-57908400D01*
X123643577Y-57908400D01*
X123736119Y-57889993D01*
X123823292Y-57853885D01*
X123901745Y-57801464D01*
X123968464Y-57734745D01*
X124020885Y-57656292D01*
X124056993Y-57569119D01*
X124075400Y-57476577D01*
X124075400Y-57382223D01*
X124072874Y-57369523D01*
X125487200Y-57369523D01*
X125487200Y-57463877D01*
X125505607Y-57556419D01*
X125541715Y-57643592D01*
X125594136Y-57722045D01*
X125660855Y-57788764D01*
X125739308Y-57841185D01*
X125826481Y-57877293D01*
X125919023Y-57895700D01*
X126013377Y-57895700D01*
X126105919Y-57877293D01*
X126193092Y-57841185D01*
X126271545Y-57788764D01*
X126338264Y-57722045D01*
X126390685Y-57643592D01*
X126426793Y-57556419D01*
X126445200Y-57463877D01*
X126445200Y-57374223D01*
X127903000Y-57374223D01*
X127903000Y-57468577D01*
X127921407Y-57561119D01*
X127957515Y-57648292D01*
X128009936Y-57726745D01*
X128076655Y-57793464D01*
X128155108Y-57845885D01*
X128242281Y-57881993D01*
X128334823Y-57900400D01*
X128429177Y-57900400D01*
X128521719Y-57881993D01*
X128608892Y-57845885D01*
X128687345Y-57793464D01*
X128754064Y-57726745D01*
X128806485Y-57648292D01*
X128842593Y-57561119D01*
X128861000Y-57468577D01*
X128861000Y-57374223D01*
X128842593Y-57281681D01*
X128806485Y-57194508D01*
X128754064Y-57116055D01*
X128687345Y-57049336D01*
X128608892Y-56996915D01*
X128521719Y-56960807D01*
X128429177Y-56942400D01*
X128334823Y-56942400D01*
X128242281Y-56960807D01*
X128155108Y-56996915D01*
X128076655Y-57049336D01*
X128009936Y-57116055D01*
X127957515Y-57194508D01*
X127921407Y-57281681D01*
X127903000Y-57374223D01*
X126445200Y-57374223D01*
X126445200Y-57369523D01*
X126426793Y-57276981D01*
X126390685Y-57189808D01*
X126338264Y-57111355D01*
X126271545Y-57044636D01*
X126251261Y-57031083D01*
X126314745Y-56988664D01*
X126381464Y-56921945D01*
X126433885Y-56843492D01*
X126469993Y-56756319D01*
X126488400Y-56663777D01*
X126488400Y-56569423D01*
X126469993Y-56476881D01*
X126433885Y-56389708D01*
X126381464Y-56311255D01*
X126314745Y-56244536D01*
X126236292Y-56192115D01*
X126149119Y-56156007D01*
X126056577Y-56137600D01*
X125962223Y-56137600D01*
X125869681Y-56156007D01*
X125782508Y-56192115D01*
X125704055Y-56244536D01*
X125637336Y-56311255D01*
X125584915Y-56389708D01*
X125548807Y-56476881D01*
X125530400Y-56569423D01*
X125530400Y-56663777D01*
X125548807Y-56756319D01*
X125584915Y-56843492D01*
X125637336Y-56921945D01*
X125704055Y-56988664D01*
X125724339Y-57002217D01*
X125660855Y-57044636D01*
X125594136Y-57111355D01*
X125541715Y-57189808D01*
X125505607Y-57276981D01*
X125487200Y-57369523D01*
X124072874Y-57369523D01*
X124056993Y-57289681D01*
X124020885Y-57202508D01*
X123968464Y-57124055D01*
X123901745Y-57057336D01*
X123823292Y-57004915D01*
X123736119Y-56968807D01*
X123643577Y-56950400D01*
X123549223Y-56950400D01*
X123456681Y-56968807D01*
X123369508Y-57004915D01*
X123291055Y-57057336D01*
X123224336Y-57124055D01*
X123182815Y-57186195D01*
X123157261Y-57147950D01*
X123090542Y-57081231D01*
X123012089Y-57028810D01*
X122924916Y-56992702D01*
X122832374Y-56974295D01*
X122738020Y-56974295D01*
X122645478Y-56992702D01*
X122558305Y-57028810D01*
X122479852Y-57081231D01*
X122413133Y-57147950D01*
X122360712Y-57226403D01*
X122324604Y-57313576D01*
X122306197Y-57406118D01*
X122306197Y-57500472D01*
X122324604Y-57593014D01*
X122360712Y-57680187D01*
X122413133Y-57758640D01*
X122479852Y-57825359D01*
X122525260Y-57855700D01*
X122503655Y-57870136D01*
X122436936Y-57936855D01*
X122384515Y-58015308D01*
X122363917Y-58065036D01*
X122329485Y-57981908D01*
X122277064Y-57903455D01*
X122210345Y-57836736D01*
X122131892Y-57784315D01*
X122119240Y-57779074D01*
X122123745Y-57776064D01*
X122190464Y-57709345D01*
X122242885Y-57630892D01*
X122278993Y-57543719D01*
X122297400Y-57451177D01*
X122297400Y-57356823D01*
X122278993Y-57264281D01*
X122242885Y-57177108D01*
X122190464Y-57098655D01*
X122123745Y-57031936D01*
X122045292Y-56979515D01*
X121958119Y-56943407D01*
X121865577Y-56925000D01*
X121854059Y-56925000D01*
X121865600Y-56866977D01*
X121865600Y-56772623D01*
X121847193Y-56680081D01*
X121811085Y-56592908D01*
X121758664Y-56514455D01*
X121691945Y-56447736D01*
X121613492Y-56395315D01*
X121526319Y-56359207D01*
X121433777Y-56340800D01*
X121339423Y-56340800D01*
X121246881Y-56359207D01*
X121159708Y-56395315D01*
X121081255Y-56447736D01*
X121014536Y-56514455D01*
X120962115Y-56592908D01*
X120926007Y-56680081D01*
X120907600Y-56772623D01*
X120907600Y-56866977D01*
X120926007Y-56959519D01*
X120962115Y-57046692D01*
X121014536Y-57125145D01*
X121081255Y-57191864D01*
X121159708Y-57244285D01*
X121246881Y-57280393D01*
X121339423Y-57298800D01*
X121350941Y-57298800D01*
X121339400Y-57356823D01*
X121339400Y-57451177D01*
X121357807Y-57543719D01*
X121393915Y-57630892D01*
X121423148Y-57674642D01*
X121357577Y-57661600D01*
X121263223Y-57661600D01*
X121170681Y-57680007D01*
X121083508Y-57716115D01*
X121005055Y-57768536D01*
X120938336Y-57835255D01*
X120885915Y-57913708D01*
X120849807Y-58000881D01*
X120831400Y-58093423D01*
X120381000Y-58093423D01*
X120381000Y-56481287D01*
X120379365Y-56464684D01*
X120379408Y-56458487D01*
X120378889Y-56453192D01*
X120358488Y-56259096D01*
X120351543Y-56225260D01*
X120345074Y-56191351D01*
X120343536Y-56186258D01*
X120343536Y-56186256D01*
X120343534Y-56186250D01*
X120285824Y-55999820D01*
X120272446Y-55967996D01*
X120259507Y-55935969D01*
X120257009Y-55931272D01*
X120164184Y-55759595D01*
X120144885Y-55730983D01*
X120127000Y-55703652D01*
X120127000Y-54910423D01*
X123143600Y-54910423D01*
X123143600Y-55004777D01*
X123162007Y-55097319D01*
X123198115Y-55184492D01*
X123250536Y-55262945D01*
X123317255Y-55329664D01*
X123395708Y-55382085D01*
X123482881Y-55418193D01*
X123575423Y-55436600D01*
X123669777Y-55436600D01*
X123762319Y-55418193D01*
X123849492Y-55382085D01*
X123927945Y-55329664D01*
X123994664Y-55262945D01*
X124047085Y-55184492D01*
X124083193Y-55097319D01*
X124096543Y-55030200D01*
X124136577Y-55030200D01*
X124229119Y-55011793D01*
X124316292Y-54975685D01*
X124394745Y-54923264D01*
X124445001Y-54873008D01*
X124495255Y-54923262D01*
X124573708Y-54975683D01*
X124660881Y-55011791D01*
X124749810Y-55029479D01*
X124749810Y-55075053D01*
X124768217Y-55167595D01*
X124804325Y-55254768D01*
X124856746Y-55333221D01*
X124923465Y-55399940D01*
X125001918Y-55452361D01*
X125089091Y-55488469D01*
X125181633Y-55506876D01*
X125275987Y-55506876D01*
X125368529Y-55488469D01*
X125455702Y-55452361D01*
X125534155Y-55399940D01*
X125600874Y-55333221D01*
X125653295Y-55254768D01*
X125689403Y-55167595D01*
X125707810Y-55075053D01*
X125707810Y-54980699D01*
X125689403Y-54888157D01*
X125653295Y-54800984D01*
X125600874Y-54722531D01*
X125534155Y-54655812D01*
X125455702Y-54603391D01*
X125368529Y-54567283D01*
X125279600Y-54549595D01*
X125279600Y-54504021D01*
X125261193Y-54411479D01*
X125239713Y-54359622D01*
X125295355Y-54415264D01*
X125373808Y-54467685D01*
X125460981Y-54503793D01*
X125553523Y-54522200D01*
X125647877Y-54522200D01*
X125740419Y-54503793D01*
X125827592Y-54467685D01*
X125906045Y-54415264D01*
X125972764Y-54348545D01*
X126025185Y-54270092D01*
X126061293Y-54182919D01*
X126079700Y-54090377D01*
X126079700Y-53996023D01*
X126061293Y-53903481D01*
X126025185Y-53816308D01*
X125972764Y-53737855D01*
X125906045Y-53671136D01*
X125827592Y-53618715D01*
X125740419Y-53582607D01*
X125647877Y-53564200D01*
X125553523Y-53564200D01*
X125460981Y-53582607D01*
X125373808Y-53618715D01*
X125295355Y-53671136D01*
X125228636Y-53737855D01*
X125176215Y-53816308D01*
X125140107Y-53903481D01*
X125121700Y-53996023D01*
X125121700Y-54090377D01*
X125140107Y-54182919D01*
X125161587Y-54234776D01*
X125105945Y-54179134D01*
X125027492Y-54126713D01*
X124940319Y-54090605D01*
X124847777Y-54072198D01*
X124753423Y-54072198D01*
X124660881Y-54090605D01*
X124573708Y-54126713D01*
X124495255Y-54179134D01*
X124444999Y-54229390D01*
X124394745Y-54179136D01*
X124316292Y-54126715D01*
X124229119Y-54090607D01*
X124136577Y-54072200D01*
X124042223Y-54072200D01*
X123949681Y-54090607D01*
X123862508Y-54126715D01*
X123784055Y-54179136D01*
X123717336Y-54245855D01*
X123664915Y-54324308D01*
X123628807Y-54411481D01*
X123615457Y-54478600D01*
X123575423Y-54478600D01*
X123482881Y-54497007D01*
X123395708Y-54533115D01*
X123317255Y-54585536D01*
X123250536Y-54652255D01*
X123198115Y-54730708D01*
X123162007Y-54817881D01*
X123143600Y-54910423D01*
X120127000Y-54910423D01*
X120127000Y-54308823D01*
X120171000Y-54308823D01*
X120171000Y-54403177D01*
X120189407Y-54495719D01*
X120225515Y-54582892D01*
X120277936Y-54661345D01*
X120344655Y-54728064D01*
X120423108Y-54780485D01*
X120510281Y-54816593D01*
X120602823Y-54835000D01*
X120697177Y-54835000D01*
X120789719Y-54816593D01*
X120876892Y-54780485D01*
X120955345Y-54728064D01*
X121022064Y-54661345D01*
X121074485Y-54582892D01*
X121110593Y-54495719D01*
X121129000Y-54403177D01*
X121129000Y-54308823D01*
X121110593Y-54216281D01*
X121074485Y-54129108D01*
X121022064Y-54050655D01*
X120955345Y-53983936D01*
X120876892Y-53931515D01*
X120789719Y-53895407D01*
X120697177Y-53877000D01*
X120602823Y-53877000D01*
X120510281Y-53895407D01*
X120423108Y-53931515D01*
X120344655Y-53983936D01*
X120277936Y-54050655D01*
X120225515Y-54129108D01*
X120189407Y-54216281D01*
X120171000Y-54308823D01*
X120127000Y-54308823D01*
X120127000Y-52581623D01*
X120247200Y-52581623D01*
X120247200Y-52675977D01*
X120265607Y-52768519D01*
X120301715Y-52855692D01*
X120354136Y-52934145D01*
X120420855Y-53000864D01*
X120499308Y-53053285D01*
X120586481Y-53089393D01*
X120679023Y-53107800D01*
X120773377Y-53107800D01*
X120865919Y-53089393D01*
X120953092Y-53053285D01*
X121031545Y-53000864D01*
X121098264Y-52934145D01*
X121150685Y-52855692D01*
X121186793Y-52768519D01*
X121205200Y-52675977D01*
X121205200Y-52581623D01*
X121186793Y-52489081D01*
X121150685Y-52401908D01*
X121105154Y-52333767D01*
X121133145Y-52315064D01*
X121170700Y-52277509D01*
X121208255Y-52315064D01*
X121286708Y-52367485D01*
X121373881Y-52403593D01*
X121466423Y-52422000D01*
X121560777Y-52422000D01*
X121653319Y-52403593D01*
X121740492Y-52367485D01*
X121818945Y-52315064D01*
X121885664Y-52248345D01*
X121938085Y-52169892D01*
X121974193Y-52082719D01*
X121992600Y-51990177D01*
X121992600Y-51895823D01*
X121974193Y-51803281D01*
X121938085Y-51716108D01*
X121885664Y-51637655D01*
X121853171Y-51605162D01*
X127890301Y-51605162D01*
X127890301Y-51699516D01*
X127908708Y-51792058D01*
X127944816Y-51879231D01*
X127997237Y-51957684D01*
X128063956Y-52024403D01*
X128142409Y-52076824D01*
X128229582Y-52112932D01*
X128322124Y-52131339D01*
X128416478Y-52131339D01*
X128509020Y-52112932D01*
X128596193Y-52076824D01*
X128674646Y-52024403D01*
X128741365Y-51957684D01*
X128793786Y-51879231D01*
X128829894Y-51792058D01*
X128848301Y-51699516D01*
X128848301Y-51605162D01*
X128829894Y-51512620D01*
X128793786Y-51425447D01*
X128741365Y-51346994D01*
X128674646Y-51280275D01*
X128596193Y-51227854D01*
X128509020Y-51191746D01*
X128416478Y-51173339D01*
X128322124Y-51173339D01*
X128229582Y-51191746D01*
X128142409Y-51227854D01*
X128063956Y-51280275D01*
X127997237Y-51346994D01*
X127944816Y-51425447D01*
X127908708Y-51512620D01*
X127890301Y-51605162D01*
X121853171Y-51605162D01*
X121818945Y-51570936D01*
X121740492Y-51518515D01*
X121653319Y-51482407D01*
X121560777Y-51464000D01*
X121466423Y-51464000D01*
X121373881Y-51482407D01*
X121286708Y-51518515D01*
X121208255Y-51570936D01*
X121170700Y-51608491D01*
X121133145Y-51570936D01*
X121054692Y-51518515D01*
X120967519Y-51482407D01*
X120874977Y-51464000D01*
X120780623Y-51464000D01*
X120688081Y-51482407D01*
X120600908Y-51518515D01*
X120522455Y-51570936D01*
X120455736Y-51637655D01*
X120403315Y-51716108D01*
X120367207Y-51803281D01*
X120348800Y-51895823D01*
X120348800Y-51990177D01*
X120367207Y-52082719D01*
X120403315Y-52169892D01*
X120448846Y-52238033D01*
X120420855Y-52256736D01*
X120354136Y-52323455D01*
X120301715Y-52401908D01*
X120265607Y-52489081D01*
X120247200Y-52581623D01*
X120127000Y-52581623D01*
X120127000Y-52295636D01*
X120128175Y-52294195D01*
X120147297Y-52265413D01*
X120166794Y-52236940D01*
X120169321Y-52232265D01*
X120169324Y-52232261D01*
X120169326Y-52232257D01*
X120260949Y-52059938D01*
X120274100Y-52028031D01*
X120287712Y-51996273D01*
X120289285Y-51991191D01*
X120345694Y-51804355D01*
X120352406Y-51770459D01*
X120359581Y-51736704D01*
X120360137Y-51731413D01*
X120379182Y-51537180D01*
X120379182Y-51537172D01*
X120381000Y-51518713D01*
X120381000Y-50600423D01*
X120704400Y-50600423D01*
X120704400Y-50694777D01*
X120722807Y-50787319D01*
X120758915Y-50874492D01*
X120811336Y-50952945D01*
X120878055Y-51019664D01*
X120956508Y-51072085D01*
X121043681Y-51108193D01*
X121136223Y-51126600D01*
X121230577Y-51126600D01*
X121323119Y-51108193D01*
X121410292Y-51072085D01*
X121488745Y-51019664D01*
X121555464Y-50952945D01*
X121562623Y-50942232D01*
X121614655Y-50994264D01*
X121693108Y-51046685D01*
X121780281Y-51082793D01*
X121872823Y-51101200D01*
X121967177Y-51101200D01*
X122059719Y-51082793D01*
X122146892Y-51046685D01*
X122225345Y-50994264D01*
X122292064Y-50927545D01*
X122344485Y-50849092D01*
X122380593Y-50761919D01*
X122399000Y-50669377D01*
X122399000Y-50575023D01*
X122380593Y-50482481D01*
X122344485Y-50395308D01*
X122292064Y-50316855D01*
X122225345Y-50250136D01*
X122146892Y-50197715D01*
X122059719Y-50161607D01*
X121967177Y-50143200D01*
X121872823Y-50143200D01*
X121780281Y-50161607D01*
X121693108Y-50197715D01*
X121614655Y-50250136D01*
X121547936Y-50316855D01*
X121540777Y-50327568D01*
X121488745Y-50275536D01*
X121410292Y-50223115D01*
X121323119Y-50187007D01*
X121230577Y-50168600D01*
X121136223Y-50168600D01*
X121043681Y-50187007D01*
X120956508Y-50223115D01*
X120878055Y-50275536D01*
X120811336Y-50342255D01*
X120758915Y-50420708D01*
X120722807Y-50507881D01*
X120704400Y-50600423D01*
X120381000Y-50600423D01*
X120381000Y-49377000D01*
X121237800Y-49377000D01*
X121237800Y-49399377D01*
G37*
X121237800Y-49399377D02*
X121256207Y-49491919D01*
X121292315Y-49579092D01*
X121344736Y-49657545D01*
X121411455Y-49724264D01*
X121489908Y-49776685D01*
X121577081Y-49812793D01*
X121669623Y-49831200D01*
X121763977Y-49831200D01*
X121856519Y-49812793D01*
X121943692Y-49776685D01*
X122022145Y-49724264D01*
X122088864Y-49657545D01*
X122141285Y-49579092D01*
X122177393Y-49491919D01*
X122195800Y-49399377D01*
X122195800Y-49377000D01*
X123969401Y-49377000D01*
X123933915Y-49430108D01*
X123897807Y-49517281D01*
X123879400Y-49609823D01*
X123879400Y-49704177D01*
X123897807Y-49796719D01*
X123933915Y-49883892D01*
X123986336Y-49962345D01*
X124053055Y-50029064D01*
X124131508Y-50081485D01*
X124158172Y-50092529D01*
X124066281Y-50110807D01*
X123979108Y-50146915D01*
X123900655Y-50199336D01*
X123833936Y-50266055D01*
X123781515Y-50344508D01*
X123745407Y-50431681D01*
X123727000Y-50524223D01*
X123727000Y-50618577D01*
X123745407Y-50711119D01*
X123781515Y-50798292D01*
X123833936Y-50876745D01*
X123900655Y-50943464D01*
X123979108Y-50995885D01*
X124066281Y-51031993D01*
X124158823Y-51050400D01*
X124253177Y-51050400D01*
X124345719Y-51031993D01*
X124432892Y-50995885D01*
X124511345Y-50943464D01*
X124578064Y-50876745D01*
X124630485Y-50798292D01*
X124666593Y-50711119D01*
X124685000Y-50618577D01*
X124685000Y-50524223D01*
X124666593Y-50431681D01*
X124630485Y-50344508D01*
X124578064Y-50266055D01*
X124511345Y-50199336D01*
X124432892Y-50146915D01*
X124406228Y-50135871D01*
X124498119Y-50117593D01*
X124585292Y-50081485D01*
X124663745Y-50029064D01*
X124730464Y-49962345D01*
X124750724Y-49932023D01*
X125490000Y-49932023D01*
X125490000Y-50026377D01*
X125508407Y-50118919D01*
X125544515Y-50206092D01*
X125596936Y-50284545D01*
X125663655Y-50351264D01*
X125742108Y-50403685D01*
X125829281Y-50439793D01*
X125921823Y-50458200D01*
X126016177Y-50458200D01*
X126108719Y-50439793D01*
X126195892Y-50403685D01*
X126274345Y-50351264D01*
X126341064Y-50284545D01*
X126393485Y-50206092D01*
X126396328Y-50199229D01*
X126424736Y-50241745D01*
X126491455Y-50308464D01*
X126569908Y-50360885D01*
X126657081Y-50396993D01*
X126749623Y-50415400D01*
X126843977Y-50415400D01*
X126936519Y-50396993D01*
X127023692Y-50360885D01*
X127102145Y-50308464D01*
X127168864Y-50241745D01*
X127221285Y-50163292D01*
X127257393Y-50076119D01*
X127275800Y-49983577D01*
X127275800Y-49889223D01*
X127257393Y-49796681D01*
X127221285Y-49709508D01*
X127168864Y-49631055D01*
X127102145Y-49564336D01*
X127023692Y-49511915D01*
X126936519Y-49475807D01*
X126843977Y-49457400D01*
X126749623Y-49457400D01*
X126657081Y-49475807D01*
X126569908Y-49511915D01*
X126491455Y-49564336D01*
X126424736Y-49631055D01*
X126372315Y-49709508D01*
X126369472Y-49716371D01*
X126341064Y-49673855D01*
X126274345Y-49607136D01*
X126195892Y-49554715D01*
X126108719Y-49518607D01*
X126016177Y-49500200D01*
X125921823Y-49500200D01*
X125829281Y-49518607D01*
X125742108Y-49554715D01*
X125663655Y-49607136D01*
X125596936Y-49673855D01*
X125544515Y-49752308D01*
X125508407Y-49839481D01*
X125490000Y-49932023D01*
X124750724Y-49932023D01*
X124782885Y-49883892D01*
X124818993Y-49796719D01*
X124837400Y-49704177D01*
X124837400Y-49609823D01*
X124818993Y-49517281D01*
X124782885Y-49430108D01*
X124747399Y-49377000D01*
X127776000Y-49377000D01*
X127776000Y-49467579D01*
X127794407Y-49560121D01*
X127830515Y-49647294D01*
X127882936Y-49725747D01*
X127949655Y-49792466D01*
X128028108Y-49844887D01*
X128115281Y-49880995D01*
X128207823Y-49899402D01*
X128302177Y-49899402D01*
X128394719Y-49880995D01*
X128481892Y-49844887D01*
X128560345Y-49792466D01*
X128627064Y-49725747D01*
X128640215Y-49706066D01*
X128670336Y-49751145D01*
X128737055Y-49817864D01*
X128815508Y-49870285D01*
X128902681Y-49906393D01*
X128995223Y-49924800D01*
X129089577Y-49924800D01*
X129182119Y-49906393D01*
X129269292Y-49870285D01*
X129347745Y-49817864D01*
X129373000Y-49792609D01*
X129373000Y-53163920D01*
X129311640Y-53176125D01*
X129224467Y-53212233D01*
X129146014Y-53264654D01*
X129079295Y-53331373D01*
X129026874Y-53409826D01*
X128990766Y-53496999D01*
X128972359Y-53589541D01*
X128972359Y-53683895D01*
X128990766Y-53776437D01*
X128994742Y-53786036D01*
X128964898Y-53780100D01*
X128870544Y-53780100D01*
X128778002Y-53798507D01*
X128690829Y-53834615D01*
X128612376Y-53887036D01*
X128545657Y-53953755D01*
X128493236Y-54032208D01*
X128457128Y-54119381D01*
X128438721Y-54211923D01*
X128438721Y-54306277D01*
X128457128Y-54398819D01*
X128493236Y-54485992D01*
X128525977Y-54534991D01*
X128514909Y-54530407D01*
X128422367Y-54512000D01*
X128328013Y-54512000D01*
X128235471Y-54530407D01*
X128148298Y-54566515D01*
X128069845Y-54618936D01*
X128003126Y-54685655D01*
X127996054Y-54696239D01*
X127966664Y-54652255D01*
X127899945Y-54585536D01*
X127821492Y-54533115D01*
X127734319Y-54497007D01*
X127641777Y-54478600D01*
X127547423Y-54478600D01*
X127454881Y-54497007D01*
X127367708Y-54533115D01*
X127289255Y-54585536D01*
X127222536Y-54652255D01*
X127187660Y-54704451D01*
X127127545Y-54644336D01*
X127049092Y-54591915D01*
X126961919Y-54555807D01*
X126869377Y-54537400D01*
X126775023Y-54537400D01*
X126682481Y-54555807D01*
X126595308Y-54591915D01*
X126516855Y-54644336D01*
X126450136Y-54711055D01*
X126397715Y-54789508D01*
X126361607Y-54876681D01*
X126343200Y-54969223D01*
X126343200Y-55063577D01*
X126361607Y-55156119D01*
X126397715Y-55243292D01*
X126450136Y-55321745D01*
X126516855Y-55388464D01*
X126595308Y-55440885D01*
X126682481Y-55476993D01*
X126775023Y-55495400D01*
X126869377Y-55495400D01*
X126961919Y-55476993D01*
X127049092Y-55440885D01*
X127127545Y-55388464D01*
X127194264Y-55321745D01*
X127229140Y-55269549D01*
X127289255Y-55329664D01*
X127367708Y-55382085D01*
X127454881Y-55418193D01*
X127547423Y-55436600D01*
X127641777Y-55436600D01*
X127734319Y-55418193D01*
X127821492Y-55382085D01*
X127899945Y-55329664D01*
X127966664Y-55262945D01*
X127973736Y-55252361D01*
X128003126Y-55296345D01*
X128069845Y-55363064D01*
X128123302Y-55398783D01*
X128047344Y-55449537D01*
X127980625Y-55516256D01*
X127928204Y-55594709D01*
X127892096Y-55681882D01*
X127873689Y-55774424D01*
X127873689Y-55868778D01*
X127892096Y-55961320D01*
X127928204Y-56048493D01*
X127980625Y-56126946D01*
X128047344Y-56193665D01*
X128125797Y-56246086D01*
X128212970Y-56282194D01*
X128305512Y-56300601D01*
X128399866Y-56300601D01*
X128492408Y-56282194D01*
X128579581Y-56246086D01*
X128658034Y-56193665D01*
X128724753Y-56126946D01*
X128777174Y-56048493D01*
X128813282Y-55961320D01*
X128831689Y-55868778D01*
X128831689Y-55774424D01*
X128813282Y-55681882D01*
X128777174Y-55594709D01*
X128724753Y-55516256D01*
X128658034Y-55449537D01*
X128604577Y-55413818D01*
X128680535Y-55363064D01*
X128747254Y-55296345D01*
X128799675Y-55217892D01*
X128835783Y-55130719D01*
X128854190Y-55038177D01*
X128854190Y-54943823D01*
X128835783Y-54851281D01*
X128799675Y-54764108D01*
X128766934Y-54715109D01*
X128778002Y-54719693D01*
X128870544Y-54738100D01*
X128964898Y-54738100D01*
X129057440Y-54719693D01*
X129144613Y-54683585D01*
X129223066Y-54631164D01*
X129289785Y-54564445D01*
X129342206Y-54485992D01*
X129373000Y-54411648D01*
X129373000Y-63619000D01*
X128768923Y-63619000D01*
X128784800Y-63539177D01*
X128784800Y-63444823D01*
X128766393Y-63352281D01*
X128730285Y-63265108D01*
X128677864Y-63186655D01*
X128611145Y-63119936D01*
X128532692Y-63067515D01*
X128445519Y-63031407D01*
X128352977Y-63013000D01*
X128258623Y-63013000D01*
X128166081Y-63031407D01*
X128078908Y-63067515D01*
X128000455Y-63119936D01*
X127933736Y-63186655D01*
X127881315Y-63265108D01*
X127845207Y-63352281D01*
X127826800Y-63444823D01*
X127826800Y-63539177D01*
X127842677Y-63619000D01*
X126468054Y-63619000D01*
X126469993Y-63614319D01*
X126488400Y-63521777D01*
X126488400Y-63427423D01*
X126469993Y-63334881D01*
X126433885Y-63247708D01*
X126381464Y-63169255D01*
X126314745Y-63102536D01*
X126236292Y-63050115D01*
X126149119Y-63014007D01*
X126056577Y-62995600D01*
X125962223Y-62995600D01*
X125869681Y-63014007D01*
X125782508Y-63050115D01*
X125704055Y-63102536D01*
X125637336Y-63169255D01*
X125584915Y-63247708D01*
X125548807Y-63334881D01*
X125530400Y-63427423D01*
X125530400Y-63521777D01*
X125548807Y-63614319D01*
X125550746Y-63619000D01*
X123928054Y-63619000D01*
X123929993Y-63614319D01*
X123948400Y-63521777D01*
X123948400Y-63427423D01*
X123929993Y-63334881D01*
X123893885Y-63247708D01*
X123841464Y-63169255D01*
X123774745Y-63102536D01*
X123696292Y-63050115D01*
X123609119Y-63014007D01*
X123516577Y-62995600D01*
X123422223Y-62995600D01*
X123329681Y-63014007D01*
X123242508Y-63050115D01*
X123164055Y-63102536D01*
X123097336Y-63169255D01*
X123044915Y-63247708D01*
X123008807Y-63334881D01*
X122990400Y-63427423D01*
X122990400Y-63521777D01*
X123008807Y-63614319D01*
X123010746Y-63619000D01*
X120381000Y-63619000D01*
X120381000Y-61827223D01*
X121110800Y-61827223D01*
X121110800Y-61921577D01*
X121129207Y-62014119D01*
X121165315Y-62101292D01*
X121217736Y-62179745D01*
X121284455Y-62246464D01*
X121362908Y-62298885D01*
X121450081Y-62334993D01*
X121542623Y-62353400D01*
X121636977Y-62353400D01*
X121729519Y-62334993D01*
X121816692Y-62298885D01*
X121895145Y-62246464D01*
X121961864Y-62179745D01*
X122014285Y-62101292D01*
X122050393Y-62014119D01*
X122068800Y-61921577D01*
X122068800Y-61827223D01*
X122050393Y-61734681D01*
X122014285Y-61647508D01*
X121961864Y-61569055D01*
X121895145Y-61502336D01*
X121816692Y-61449915D01*
X121729519Y-61413807D01*
X121636977Y-61395400D01*
X121542623Y-61395400D01*
X121450081Y-61413807D01*
X121362908Y-61449915D01*
X121284455Y-61502336D01*
X121217736Y-61569055D01*
X121165315Y-61647508D01*
X121129207Y-61734681D01*
X121110800Y-61827223D01*
X120381000Y-61827223D01*
X120381000Y-61387423D01*
X122315000Y-61387423D01*
X122315000Y-61481777D01*
X122333407Y-61574319D01*
X122369515Y-61661492D01*
X122421936Y-61739945D01*
X122488655Y-61806664D01*
X122567108Y-61859085D01*
X122654281Y-61895193D01*
X122746823Y-61913600D01*
X122841177Y-61913600D01*
X122933719Y-61895193D01*
X123020892Y-61859085D01*
X123099345Y-61806664D01*
X123166064Y-61739945D01*
X123218485Y-61661492D01*
X123254593Y-61574319D01*
X123273000Y-61481777D01*
X123273000Y-61387423D01*
X123915200Y-61387423D01*
X123915200Y-61481777D01*
X123933607Y-61574319D01*
X123969715Y-61661492D01*
X124022136Y-61739945D01*
X124088855Y-61806664D01*
X124167308Y-61859085D01*
X124254481Y-61895193D01*
X124347023Y-61913600D01*
X124441377Y-61913600D01*
X124533919Y-61895193D01*
X124621092Y-61859085D01*
X124699545Y-61806664D01*
X124766264Y-61739945D01*
X124818685Y-61661492D01*
X124854793Y-61574319D01*
X124873200Y-61481777D01*
X124873200Y-61387423D01*
X124868148Y-61362023D01*
X126328200Y-61362023D01*
X126328200Y-61456377D01*
X126346607Y-61548919D01*
X126382715Y-61636092D01*
X126435136Y-61714545D01*
X126501855Y-61781264D01*
X126580308Y-61833685D01*
X126667481Y-61869793D01*
X126760023Y-61888200D01*
X126854377Y-61888200D01*
X126946919Y-61869793D01*
X127034092Y-61833685D01*
X127112545Y-61781264D01*
X127179264Y-61714545D01*
X127180718Y-61712369D01*
X127208150Y-61753423D01*
X127274869Y-61820142D01*
X127353322Y-61872563D01*
X127440495Y-61908671D01*
X127533037Y-61927078D01*
X127627391Y-61927078D01*
X127719933Y-61908671D01*
X127807106Y-61872563D01*
X127885559Y-61820142D01*
X127952278Y-61753423D01*
X127994709Y-61689921D01*
X127999536Y-61697145D01*
X128066255Y-61763864D01*
X128144708Y-61816285D01*
X128231881Y-61852393D01*
X128324423Y-61870800D01*
X128418777Y-61870800D01*
X128511319Y-61852393D01*
X128598492Y-61816285D01*
X128676945Y-61763864D01*
X128743664Y-61697145D01*
X128796085Y-61618692D01*
X128832193Y-61531519D01*
X128850600Y-61438977D01*
X128850600Y-61344623D01*
X128832193Y-61252081D01*
X128796085Y-61164908D01*
X128743664Y-61086455D01*
X128676945Y-61019736D01*
X128598492Y-60967315D01*
X128511319Y-60931207D01*
X128418777Y-60912800D01*
X128324423Y-60912800D01*
X128231881Y-60931207D01*
X128144708Y-60967315D01*
X128066255Y-61019736D01*
X127999536Y-61086455D01*
X127957105Y-61149957D01*
X127952278Y-61142733D01*
X127885559Y-61076014D01*
X127807106Y-61023593D01*
X127719933Y-60987485D01*
X127627391Y-60969078D01*
X127533037Y-60969078D01*
X127440495Y-60987485D01*
X127353322Y-61023593D01*
X127274869Y-61076014D01*
X127208150Y-61142733D01*
X127206696Y-61144909D01*
X127179264Y-61103855D01*
X127112545Y-61037136D01*
X127034092Y-60984715D01*
X126946919Y-60948607D01*
X126854377Y-60930200D01*
X126760023Y-60930200D01*
X126667481Y-60948607D01*
X126580308Y-60984715D01*
X126501855Y-61037136D01*
X126435136Y-61103855D01*
X126382715Y-61182308D01*
X126346607Y-61269481D01*
X126328200Y-61362023D01*
X124868148Y-61362023D01*
X124854793Y-61294881D01*
X124818685Y-61207708D01*
X124766264Y-61129255D01*
X124699545Y-61062536D01*
X124621092Y-61010115D01*
X124533919Y-60974007D01*
X124441377Y-60955600D01*
X124347023Y-60955600D01*
X124254481Y-60974007D01*
X124167308Y-61010115D01*
X124088855Y-61062536D01*
X124022136Y-61129255D01*
X123969715Y-61207708D01*
X123933607Y-61294881D01*
X123915200Y-61387423D01*
X123273000Y-61387423D01*
X123254593Y-61294881D01*
X123218485Y-61207708D01*
X123166064Y-61129255D01*
X123099345Y-61062536D01*
X123060658Y-61036686D01*
X123124745Y-60993864D01*
X123191464Y-60927145D01*
X123243885Y-60848692D01*
X123279993Y-60761519D01*
X123298400Y-60668977D01*
X123298400Y-60574623D01*
X123279993Y-60482081D01*
X123243885Y-60394908D01*
X123191464Y-60316455D01*
X123124745Y-60249736D01*
X123054351Y-60202700D01*
X123124745Y-60155664D01*
X123171665Y-60108744D01*
X123188858Y-60134475D01*
X123255577Y-60201194D01*
X123334030Y-60253615D01*
X123421203Y-60289723D01*
X123513745Y-60308130D01*
X123608099Y-60308130D01*
X123700641Y-60289723D01*
X123787814Y-60253615D01*
X123866267Y-60201194D01*
X123932986Y-60134475D01*
X123967104Y-60083414D01*
X123969916Y-60090203D01*
X124022337Y-60168656D01*
X124089056Y-60235375D01*
X124167509Y-60287796D01*
X124254682Y-60323904D01*
X124347224Y-60342311D01*
X124441578Y-60342311D01*
X124534120Y-60323904D01*
X124621293Y-60287796D01*
X124699746Y-60235375D01*
X124766465Y-60168656D01*
X124810359Y-60102964D01*
X124834936Y-60139745D01*
X124901655Y-60206464D01*
X124980108Y-60258885D01*
X125067281Y-60294993D01*
X125159823Y-60313400D01*
X125254177Y-60313400D01*
X125346719Y-60294993D01*
X125433892Y-60258885D01*
X125512345Y-60206464D01*
X125579064Y-60139745D01*
X125600700Y-60107365D01*
X125622336Y-60139745D01*
X125689055Y-60206464D01*
X125767508Y-60258885D01*
X125854681Y-60294993D01*
X125947223Y-60313400D01*
X126041577Y-60313400D01*
X126134119Y-60294993D01*
X126221292Y-60258885D01*
X126299745Y-60206464D01*
X126366464Y-60139745D01*
X126393913Y-60098665D01*
X126409736Y-60122345D01*
X126476455Y-60189064D01*
X126554908Y-60241485D01*
X126642081Y-60277593D01*
X126734623Y-60296000D01*
X126828977Y-60296000D01*
X126921519Y-60277593D01*
X127008692Y-60241485D01*
X127087145Y-60189064D01*
X127153864Y-60122345D01*
X127190873Y-60066958D01*
X127222536Y-60114345D01*
X127289255Y-60181064D01*
X127367708Y-60233485D01*
X127454881Y-60269593D01*
X127547423Y-60288000D01*
X127641777Y-60288000D01*
X127734319Y-60269593D01*
X127821492Y-60233485D01*
X127899945Y-60181064D01*
X127966664Y-60114345D01*
X127989976Y-60079456D01*
X128005705Y-60102996D01*
X128072424Y-60169715D01*
X128150877Y-60222136D01*
X128238050Y-60258244D01*
X128330592Y-60276651D01*
X128424946Y-60276651D01*
X128517488Y-60258244D01*
X128604661Y-60222136D01*
X128683114Y-60169715D01*
X128749833Y-60102996D01*
X128802254Y-60024543D01*
X128838362Y-59937370D01*
X128856769Y-59844828D01*
X128856769Y-59750474D01*
X128838362Y-59657932D01*
X128802254Y-59570759D01*
X128749833Y-59492306D01*
X128683114Y-59425587D01*
X128604661Y-59373166D01*
X128517488Y-59337058D01*
X128424946Y-59318651D01*
X128330592Y-59318651D01*
X128238050Y-59337058D01*
X128150877Y-59373166D01*
X128072424Y-59425587D01*
X128005705Y-59492306D01*
X127982393Y-59527195D01*
X127966664Y-59503655D01*
X127899945Y-59436936D01*
X127821492Y-59384515D01*
X127734319Y-59348407D01*
X127641777Y-59330000D01*
X127547423Y-59330000D01*
X127454881Y-59348407D01*
X127367708Y-59384515D01*
X127289255Y-59436936D01*
X127222536Y-59503655D01*
X127185527Y-59559042D01*
X127153864Y-59511655D01*
X127087145Y-59444936D01*
X127008692Y-59392515D01*
X126921519Y-59356407D01*
X126828977Y-59338000D01*
X126734623Y-59338000D01*
X126642081Y-59356407D01*
X126554908Y-59392515D01*
X126476455Y-59444936D01*
X126409736Y-59511655D01*
X126382287Y-59552735D01*
X126366464Y-59529055D01*
X126299745Y-59462336D01*
X126269206Y-59441930D01*
X126341443Y-59393663D01*
X126408162Y-59326944D01*
X126460583Y-59248491D01*
X126496691Y-59161318D01*
X126515098Y-59068776D01*
X126515098Y-58974422D01*
X126496691Y-58881880D01*
X126460583Y-58794707D01*
X126408162Y-58716254D01*
X126341443Y-58649535D01*
X126262990Y-58597114D01*
X126175817Y-58561006D01*
X126083275Y-58542599D01*
X125988921Y-58542599D01*
X125896379Y-58561006D01*
X125809206Y-58597114D01*
X125730753Y-58649535D01*
X125664034Y-58716254D01*
X125611613Y-58794707D01*
X125575505Y-58881880D01*
X125557098Y-58974422D01*
X125557098Y-59068776D01*
X125575505Y-59161318D01*
X125611613Y-59248491D01*
X125664034Y-59326944D01*
X125730753Y-59393663D01*
X125761292Y-59414069D01*
X125689055Y-59462336D01*
X125622336Y-59529055D01*
X125600700Y-59561435D01*
X125579064Y-59529055D01*
X125512345Y-59462336D01*
X125433892Y-59409915D01*
X125346719Y-59373807D01*
X125254177Y-59355400D01*
X125159823Y-59355400D01*
X125067281Y-59373807D01*
X124980108Y-59409915D01*
X124901655Y-59462336D01*
X124834936Y-59529055D01*
X124791042Y-59594747D01*
X124766465Y-59557966D01*
X124699746Y-59491247D01*
X124621293Y-59438826D01*
X124534120Y-59402718D01*
X124441578Y-59384311D01*
X124347224Y-59384311D01*
X124254682Y-59402718D01*
X124167509Y-59438826D01*
X124089056Y-59491247D01*
X124022337Y-59557966D01*
X123988219Y-59609027D01*
X123985407Y-59602238D01*
X123932986Y-59523785D01*
X123866267Y-59457066D01*
X123787814Y-59404645D01*
X123700641Y-59368537D01*
X123608099Y-59350130D01*
X123513745Y-59350130D01*
X123421203Y-59368537D01*
X123334030Y-59404645D01*
X123255577Y-59457066D01*
X123208657Y-59503986D01*
X123191464Y-59478255D01*
X123124745Y-59411536D01*
X123046292Y-59359115D01*
X122959119Y-59323007D01*
X122866577Y-59304600D01*
X122772223Y-59304600D01*
X122679681Y-59323007D01*
X122592508Y-59359115D01*
X122514055Y-59411536D01*
X122447336Y-59478255D01*
X122394915Y-59556708D01*
X122358807Y-59643881D01*
X122340400Y-59736423D01*
X122340400Y-59830777D01*
X122358807Y-59923319D01*
X122394915Y-60010492D01*
X122447336Y-60088945D01*
X122514055Y-60155664D01*
X122584449Y-60202700D01*
X122514055Y-60249736D01*
X122447336Y-60316455D01*
X122394915Y-60394908D01*
X122358807Y-60482081D01*
X122340400Y-60574623D01*
X122340400Y-60668977D01*
X122358807Y-60761519D01*
X122394915Y-60848692D01*
X122447336Y-60927145D01*
X122514055Y-60993864D01*
X122552742Y-61019714D01*
X122488655Y-61062536D01*
X122421936Y-61129255D01*
X122369515Y-61207708D01*
X122333407Y-61294881D01*
X122315000Y-61387423D01*
X120381000Y-61387423D01*
X120381000Y-60092023D01*
X120689400Y-60092023D01*
X120689400Y-60186377D01*
X120707807Y-60278919D01*
X120743915Y-60366092D01*
X120796336Y-60444545D01*
X120863055Y-60511264D01*
X120941508Y-60563685D01*
X121000018Y-60587921D01*
X120984403Y-60666426D01*
X120984403Y-60760780D01*
X121002810Y-60853322D01*
X121038918Y-60940495D01*
X121091339Y-61018948D01*
X121158058Y-61085667D01*
X121236511Y-61138088D01*
X121323684Y-61174196D01*
X121416226Y-61192603D01*
X121510580Y-61192603D01*
X121603122Y-61174196D01*
X121690295Y-61138088D01*
X121768748Y-61085667D01*
X121835467Y-61018948D01*
X121887888Y-60940495D01*
X121923996Y-60853322D01*
X121942403Y-60760780D01*
X121942403Y-60666426D01*
X121923996Y-60573884D01*
X121887888Y-60486711D01*
X121835467Y-60408258D01*
X121768748Y-60341539D01*
X121690295Y-60289118D01*
X121631785Y-60264882D01*
X121647400Y-60186377D01*
X121647400Y-60092023D01*
X121628993Y-59999481D01*
X121592885Y-59912308D01*
X121540464Y-59833855D01*
X121473745Y-59767136D01*
X121395292Y-59714715D01*
X121308119Y-59678607D01*
X121215577Y-59660200D01*
X121121223Y-59660200D01*
X121028681Y-59678607D01*
X120941508Y-59714715D01*
X120863055Y-59767136D01*
X120796336Y-59833855D01*
X120743915Y-59912308D01*
X120707807Y-59999481D01*
X120689400Y-60092023D01*
X120381000Y-60092023D01*
X120381000Y-58093423D01*
X120831400Y-58093423D01*
X120831400Y-58187777D01*
X120849807Y-58280319D01*
X120885915Y-58367492D01*
X120938336Y-58445945D01*
X121005055Y-58512664D01*
X121083508Y-58565085D01*
X121147215Y-58591473D01*
X121105109Y-58608914D01*
X121026656Y-58661335D01*
X120959937Y-58728054D01*
X120907516Y-58806507D01*
X120871408Y-58893680D01*
X120853001Y-58986222D01*
X120853001Y-59080576D01*
X120871408Y-59173118D01*
X120907516Y-59260291D01*
X120959937Y-59338744D01*
X121026656Y-59405463D01*
X121105109Y-59457884D01*
X121192282Y-59493992D01*
X121284824Y-59512399D01*
X121379178Y-59512399D01*
X121471720Y-59493992D01*
X121558893Y-59457884D01*
X121637346Y-59405463D01*
X121704065Y-59338744D01*
X121756486Y-59260291D01*
X121792594Y-59173118D01*
X121811001Y-59080576D01*
X121811001Y-58986222D01*
X121792594Y-58893680D01*
X121756486Y-58806507D01*
X121704065Y-58728054D01*
X121637346Y-58661335D01*
X121558893Y-58608914D01*
X121495186Y-58582526D01*
X121537292Y-58565085D01*
X121565217Y-58546426D01*
X121599655Y-58580864D01*
X121678108Y-58633285D01*
X121765281Y-58669393D01*
X121857823Y-58687800D01*
X121952177Y-58687800D01*
X122044719Y-58669393D01*
X122131892Y-58633285D01*
X122210345Y-58580864D01*
X122277064Y-58514145D01*
X122329485Y-58435692D01*
X122350083Y-58385964D01*
X122384515Y-58469092D01*
X122436936Y-58547545D01*
X122503655Y-58614264D01*
X122582108Y-58666685D01*
X122669281Y-58702793D01*
X122761823Y-58721200D01*
X122856177Y-58721200D01*
X122948719Y-58702793D01*
X123035892Y-58666685D01*
X123114345Y-58614264D01*
X123181064Y-58547545D01*
X123233485Y-58469092D01*
X123269593Y-58381919D01*
X123288000Y-58289377D01*
X123288000Y-58195023D01*
X123286409Y-58187023D01*
X126328200Y-58187023D01*
X126328200Y-58281377D01*
X126346607Y-58373919D01*
X126382715Y-58461092D01*
X126435136Y-58539545D01*
X126501855Y-58606264D01*
X126580308Y-58658685D01*
X126667481Y-58694793D01*
X126760023Y-58713200D01*
X126854377Y-58713200D01*
X126946919Y-58694793D01*
X127034092Y-58658685D01*
X127112545Y-58606264D01*
X127179264Y-58539545D01*
X127193027Y-58518947D01*
X127212136Y-58547545D01*
X127278855Y-58614264D01*
X127357308Y-58666685D01*
X127444481Y-58702793D01*
X127537023Y-58721200D01*
X127631377Y-58721200D01*
X127723919Y-58702793D01*
X127811092Y-58666685D01*
X127889545Y-58614264D01*
X127956264Y-58547545D01*
X128008685Y-58469092D01*
X128044793Y-58381919D01*
X128063200Y-58289377D01*
X128063200Y-58195023D01*
X128044793Y-58102481D01*
X128008685Y-58015308D01*
X127956264Y-57936855D01*
X127889545Y-57870136D01*
X127811092Y-57817715D01*
X127723919Y-57781607D01*
X127631377Y-57763200D01*
X127537023Y-57763200D01*
X127444481Y-57781607D01*
X127357308Y-57817715D01*
X127278855Y-57870136D01*
X127212136Y-57936855D01*
X127198373Y-57957453D01*
X127179264Y-57928855D01*
X127112545Y-57862136D01*
X127034092Y-57809715D01*
X126946919Y-57773607D01*
X126854377Y-57755200D01*
X126760023Y-57755200D01*
X126667481Y-57773607D01*
X126580308Y-57809715D01*
X126501855Y-57862136D01*
X126435136Y-57928855D01*
X126382715Y-58007308D01*
X126346607Y-58094481D01*
X126328200Y-58187023D01*
X123286409Y-58187023D01*
X123269593Y-58102481D01*
X123233485Y-58015308D01*
X123181064Y-57936855D01*
X123114345Y-57870136D01*
X123068937Y-57839795D01*
X123090542Y-57825359D01*
X123157261Y-57758640D01*
X123198782Y-57696500D01*
X123224336Y-57734745D01*
X123291055Y-57801464D01*
X123369508Y-57853885D01*
X123456681Y-57889993D01*
X123549223Y-57908400D01*
X123643577Y-57908400D01*
X123736119Y-57889993D01*
X123823292Y-57853885D01*
X123901745Y-57801464D01*
X123968464Y-57734745D01*
X124020885Y-57656292D01*
X124056993Y-57569119D01*
X124075400Y-57476577D01*
X124075400Y-57382223D01*
X124072874Y-57369523D01*
X125487200Y-57369523D01*
X125487200Y-57463877D01*
X125505607Y-57556419D01*
X125541715Y-57643592D01*
X125594136Y-57722045D01*
X125660855Y-57788764D01*
X125739308Y-57841185D01*
X125826481Y-57877293D01*
X125919023Y-57895700D01*
X126013377Y-57895700D01*
X126105919Y-57877293D01*
X126193092Y-57841185D01*
X126271545Y-57788764D01*
X126338264Y-57722045D01*
X126390685Y-57643592D01*
X126426793Y-57556419D01*
X126445200Y-57463877D01*
X126445200Y-57374223D01*
X127903000Y-57374223D01*
X127903000Y-57468577D01*
X127921407Y-57561119D01*
X127957515Y-57648292D01*
X128009936Y-57726745D01*
X128076655Y-57793464D01*
X128155108Y-57845885D01*
X128242281Y-57881993D01*
X128334823Y-57900400D01*
X128429177Y-57900400D01*
X128521719Y-57881993D01*
X128608892Y-57845885D01*
X128687345Y-57793464D01*
X128754064Y-57726745D01*
X128806485Y-57648292D01*
X128842593Y-57561119D01*
X128861000Y-57468577D01*
X128861000Y-57374223D01*
X128842593Y-57281681D01*
X128806485Y-57194508D01*
X128754064Y-57116055D01*
X128687345Y-57049336D01*
X128608892Y-56996915D01*
X128521719Y-56960807D01*
X128429177Y-56942400D01*
X128334823Y-56942400D01*
X128242281Y-56960807D01*
X128155108Y-56996915D01*
X128076655Y-57049336D01*
X128009936Y-57116055D01*
X127957515Y-57194508D01*
X127921407Y-57281681D01*
X127903000Y-57374223D01*
X126445200Y-57374223D01*
X126445200Y-57369523D01*
X126426793Y-57276981D01*
X126390685Y-57189808D01*
X126338264Y-57111355D01*
X126271545Y-57044636D01*
X126251261Y-57031083D01*
X126314745Y-56988664D01*
X126381464Y-56921945D01*
X126433885Y-56843492D01*
X126469993Y-56756319D01*
X126488400Y-56663777D01*
X126488400Y-56569423D01*
X126469993Y-56476881D01*
X126433885Y-56389708D01*
X126381464Y-56311255D01*
X126314745Y-56244536D01*
X126236292Y-56192115D01*
X126149119Y-56156007D01*
X126056577Y-56137600D01*
X125962223Y-56137600D01*
X125869681Y-56156007D01*
X125782508Y-56192115D01*
X125704055Y-56244536D01*
X125637336Y-56311255D01*
X125584915Y-56389708D01*
X125548807Y-56476881D01*
X125530400Y-56569423D01*
X125530400Y-56663777D01*
X125548807Y-56756319D01*
X125584915Y-56843492D01*
X125637336Y-56921945D01*
X125704055Y-56988664D01*
X125724339Y-57002217D01*
X125660855Y-57044636D01*
X125594136Y-57111355D01*
X125541715Y-57189808D01*
X125505607Y-57276981D01*
X125487200Y-57369523D01*
X124072874Y-57369523D01*
X124056993Y-57289681D01*
X124020885Y-57202508D01*
X123968464Y-57124055D01*
X123901745Y-57057336D01*
X123823292Y-57004915D01*
X123736119Y-56968807D01*
X123643577Y-56950400D01*
X123549223Y-56950400D01*
X123456681Y-56968807D01*
X123369508Y-57004915D01*
X123291055Y-57057336D01*
X123224336Y-57124055D01*
X123182815Y-57186195D01*
X123157261Y-57147950D01*
X123090542Y-57081231D01*
X123012089Y-57028810D01*
X122924916Y-56992702D01*
X122832374Y-56974295D01*
X122738020Y-56974295D01*
X122645478Y-56992702D01*
X122558305Y-57028810D01*
X122479852Y-57081231D01*
X122413133Y-57147950D01*
X122360712Y-57226403D01*
X122324604Y-57313576D01*
X122306197Y-57406118D01*
X122306197Y-57500472D01*
X122324604Y-57593014D01*
X122360712Y-57680187D01*
X122413133Y-57758640D01*
X122479852Y-57825359D01*
X122525260Y-57855700D01*
X122503655Y-57870136D01*
X122436936Y-57936855D01*
X122384515Y-58015308D01*
X122363917Y-58065036D01*
X122329485Y-57981908D01*
X122277064Y-57903455D01*
X122210345Y-57836736D01*
X122131892Y-57784315D01*
X122119240Y-57779074D01*
X122123745Y-57776064D01*
X122190464Y-57709345D01*
X122242885Y-57630892D01*
X122278993Y-57543719D01*
X122297400Y-57451177D01*
X122297400Y-57356823D01*
X122278993Y-57264281D01*
X122242885Y-57177108D01*
X122190464Y-57098655D01*
X122123745Y-57031936D01*
X122045292Y-56979515D01*
X121958119Y-56943407D01*
X121865577Y-56925000D01*
X121854059Y-56925000D01*
X121865600Y-56866977D01*
X121865600Y-56772623D01*
X121847193Y-56680081D01*
X121811085Y-56592908D01*
X121758664Y-56514455D01*
X121691945Y-56447736D01*
X121613492Y-56395315D01*
X121526319Y-56359207D01*
X121433777Y-56340800D01*
X121339423Y-56340800D01*
X121246881Y-56359207D01*
X121159708Y-56395315D01*
X121081255Y-56447736D01*
X121014536Y-56514455D01*
X120962115Y-56592908D01*
X120926007Y-56680081D01*
X120907600Y-56772623D01*
X120907600Y-56866977D01*
X120926007Y-56959519D01*
X120962115Y-57046692D01*
X121014536Y-57125145D01*
X121081255Y-57191864D01*
X121159708Y-57244285D01*
X121246881Y-57280393D01*
X121339423Y-57298800D01*
X121350941Y-57298800D01*
X121339400Y-57356823D01*
X121339400Y-57451177D01*
X121357807Y-57543719D01*
X121393915Y-57630892D01*
X121423148Y-57674642D01*
X121357577Y-57661600D01*
X121263223Y-57661600D01*
X121170681Y-57680007D01*
X121083508Y-57716115D01*
X121005055Y-57768536D01*
X120938336Y-57835255D01*
X120885915Y-57913708D01*
X120849807Y-58000881D01*
X120831400Y-58093423D01*
X120381000Y-58093423D01*
X120381000Y-56481287D01*
X120379365Y-56464684D01*
X120379408Y-56458487D01*
X120378889Y-56453192D01*
X120358488Y-56259096D01*
X120351543Y-56225260D01*
X120345074Y-56191351D01*
X120343536Y-56186258D01*
X120343536Y-56186256D01*
X120343534Y-56186250D01*
X120285824Y-55999820D01*
X120272446Y-55967996D01*
X120259507Y-55935969D01*
X120257009Y-55931272D01*
X120164184Y-55759595D01*
X120144885Y-55730983D01*
X120127000Y-55703652D01*
X120127000Y-54910423D01*
X123143600Y-54910423D01*
X123143600Y-55004777D01*
X123162007Y-55097319D01*
X123198115Y-55184492D01*
X123250536Y-55262945D01*
X123317255Y-55329664D01*
X123395708Y-55382085D01*
X123482881Y-55418193D01*
X123575423Y-55436600D01*
X123669777Y-55436600D01*
X123762319Y-55418193D01*
X123849492Y-55382085D01*
X123927945Y-55329664D01*
X123994664Y-55262945D01*
X124047085Y-55184492D01*
X124083193Y-55097319D01*
X124096543Y-55030200D01*
X124136577Y-55030200D01*
X124229119Y-55011793D01*
X124316292Y-54975685D01*
X124394745Y-54923264D01*
X124445001Y-54873008D01*
X124495255Y-54923262D01*
X124573708Y-54975683D01*
X124660881Y-55011791D01*
X124749810Y-55029479D01*
X124749810Y-55075053D01*
X124768217Y-55167595D01*
X124804325Y-55254768D01*
X124856746Y-55333221D01*
X124923465Y-55399940D01*
X125001918Y-55452361D01*
X125089091Y-55488469D01*
X125181633Y-55506876D01*
X125275987Y-55506876D01*
X125368529Y-55488469D01*
X125455702Y-55452361D01*
X125534155Y-55399940D01*
X125600874Y-55333221D01*
X125653295Y-55254768D01*
X125689403Y-55167595D01*
X125707810Y-55075053D01*
X125707810Y-54980699D01*
X125689403Y-54888157D01*
X125653295Y-54800984D01*
X125600874Y-54722531D01*
X125534155Y-54655812D01*
X125455702Y-54603391D01*
X125368529Y-54567283D01*
X125279600Y-54549595D01*
X125279600Y-54504021D01*
X125261193Y-54411479D01*
X125239713Y-54359622D01*
X125295355Y-54415264D01*
X125373808Y-54467685D01*
X125460981Y-54503793D01*
X125553523Y-54522200D01*
X125647877Y-54522200D01*
X125740419Y-54503793D01*
X125827592Y-54467685D01*
X125906045Y-54415264D01*
X125972764Y-54348545D01*
X126025185Y-54270092D01*
X126061293Y-54182919D01*
X126079700Y-54090377D01*
X126079700Y-53996023D01*
X126061293Y-53903481D01*
X126025185Y-53816308D01*
X125972764Y-53737855D01*
X125906045Y-53671136D01*
X125827592Y-53618715D01*
X125740419Y-53582607D01*
X125647877Y-53564200D01*
X125553523Y-53564200D01*
X125460981Y-53582607D01*
X125373808Y-53618715D01*
X125295355Y-53671136D01*
X125228636Y-53737855D01*
X125176215Y-53816308D01*
X125140107Y-53903481D01*
X125121700Y-53996023D01*
X125121700Y-54090377D01*
X125140107Y-54182919D01*
X125161587Y-54234776D01*
X125105945Y-54179134D01*
X125027492Y-54126713D01*
X124940319Y-54090605D01*
X124847777Y-54072198D01*
X124753423Y-54072198D01*
X124660881Y-54090605D01*
X124573708Y-54126713D01*
X124495255Y-54179134D01*
X124444999Y-54229390D01*
X124394745Y-54179136D01*
X124316292Y-54126715D01*
X124229119Y-54090607D01*
X124136577Y-54072200D01*
X124042223Y-54072200D01*
X123949681Y-54090607D01*
X123862508Y-54126715D01*
X123784055Y-54179136D01*
X123717336Y-54245855D01*
X123664915Y-54324308D01*
X123628807Y-54411481D01*
X123615457Y-54478600D01*
X123575423Y-54478600D01*
X123482881Y-54497007D01*
X123395708Y-54533115D01*
X123317255Y-54585536D01*
X123250536Y-54652255D01*
X123198115Y-54730708D01*
X123162007Y-54817881D01*
X123143600Y-54910423D01*
X120127000Y-54910423D01*
X120127000Y-54308823D01*
X120171000Y-54308823D01*
X120171000Y-54403177D01*
X120189407Y-54495719D01*
X120225515Y-54582892D01*
X120277936Y-54661345D01*
X120344655Y-54728064D01*
X120423108Y-54780485D01*
X120510281Y-54816593D01*
X120602823Y-54835000D01*
X120697177Y-54835000D01*
X120789719Y-54816593D01*
X120876892Y-54780485D01*
X120955345Y-54728064D01*
X121022064Y-54661345D01*
X121074485Y-54582892D01*
X121110593Y-54495719D01*
X121129000Y-54403177D01*
X121129000Y-54308823D01*
X121110593Y-54216281D01*
X121074485Y-54129108D01*
X121022064Y-54050655D01*
X120955345Y-53983936D01*
X120876892Y-53931515D01*
X120789719Y-53895407D01*
X120697177Y-53877000D01*
X120602823Y-53877000D01*
X120510281Y-53895407D01*
X120423108Y-53931515D01*
X120344655Y-53983936D01*
X120277936Y-54050655D01*
X120225515Y-54129108D01*
X120189407Y-54216281D01*
X120171000Y-54308823D01*
X120127000Y-54308823D01*
X120127000Y-52581623D01*
X120247200Y-52581623D01*
X120247200Y-52675977D01*
X120265607Y-52768519D01*
X120301715Y-52855692D01*
X120354136Y-52934145D01*
X120420855Y-53000864D01*
X120499308Y-53053285D01*
X120586481Y-53089393D01*
X120679023Y-53107800D01*
X120773377Y-53107800D01*
X120865919Y-53089393D01*
X120953092Y-53053285D01*
X121031545Y-53000864D01*
X121098264Y-52934145D01*
X121150685Y-52855692D01*
X121186793Y-52768519D01*
X121205200Y-52675977D01*
X121205200Y-52581623D01*
X121186793Y-52489081D01*
X121150685Y-52401908D01*
X121105154Y-52333767D01*
X121133145Y-52315064D01*
X121170700Y-52277509D01*
X121208255Y-52315064D01*
X121286708Y-52367485D01*
X121373881Y-52403593D01*
X121466423Y-52422000D01*
X121560777Y-52422000D01*
X121653319Y-52403593D01*
X121740492Y-52367485D01*
X121818945Y-52315064D01*
X121885664Y-52248345D01*
X121938085Y-52169892D01*
X121974193Y-52082719D01*
X121992600Y-51990177D01*
X121992600Y-51895823D01*
X121974193Y-51803281D01*
X121938085Y-51716108D01*
X121885664Y-51637655D01*
X121853171Y-51605162D01*
X127890301Y-51605162D01*
X127890301Y-51699516D01*
X127908708Y-51792058D01*
X127944816Y-51879231D01*
X127997237Y-51957684D01*
X128063956Y-52024403D01*
X128142409Y-52076824D01*
X128229582Y-52112932D01*
X128322124Y-52131339D01*
X128416478Y-52131339D01*
X128509020Y-52112932D01*
X128596193Y-52076824D01*
X128674646Y-52024403D01*
X128741365Y-51957684D01*
X128793786Y-51879231D01*
X128829894Y-51792058D01*
X128848301Y-51699516D01*
X128848301Y-51605162D01*
X128829894Y-51512620D01*
X128793786Y-51425447D01*
X128741365Y-51346994D01*
X128674646Y-51280275D01*
X128596193Y-51227854D01*
X128509020Y-51191746D01*
X128416478Y-51173339D01*
X128322124Y-51173339D01*
X128229582Y-51191746D01*
X128142409Y-51227854D01*
X128063956Y-51280275D01*
X127997237Y-51346994D01*
X127944816Y-51425447D01*
X127908708Y-51512620D01*
X127890301Y-51605162D01*
X121853171Y-51605162D01*
X121818945Y-51570936D01*
X121740492Y-51518515D01*
X121653319Y-51482407D01*
X121560777Y-51464000D01*
X121466423Y-51464000D01*
X121373881Y-51482407D01*
X121286708Y-51518515D01*
X121208255Y-51570936D01*
X121170700Y-51608491D01*
X121133145Y-51570936D01*
X121054692Y-51518515D01*
X120967519Y-51482407D01*
X120874977Y-51464000D01*
X120780623Y-51464000D01*
X120688081Y-51482407D01*
X120600908Y-51518515D01*
X120522455Y-51570936D01*
X120455736Y-51637655D01*
X120403315Y-51716108D01*
X120367207Y-51803281D01*
X120348800Y-51895823D01*
X120348800Y-51990177D01*
X120367207Y-52082719D01*
X120403315Y-52169892D01*
X120448846Y-52238033D01*
X120420855Y-52256736D01*
X120354136Y-52323455D01*
X120301715Y-52401908D01*
X120265607Y-52489081D01*
X120247200Y-52581623D01*
X120127000Y-52581623D01*
X120127000Y-52295636D01*
X120128175Y-52294195D01*
X120147297Y-52265413D01*
X120166794Y-52236940D01*
X120169321Y-52232265D01*
X120169324Y-52232261D01*
X120169326Y-52232257D01*
X120260949Y-52059938D01*
X120274100Y-52028031D01*
X120287712Y-51996273D01*
X120289285Y-51991191D01*
X120345694Y-51804355D01*
X120352406Y-51770459D01*
X120359581Y-51736704D01*
X120360137Y-51731413D01*
X120379182Y-51537180D01*
X120379182Y-51537172D01*
X120381000Y-51518713D01*
X120381000Y-50600423D01*
X120704400Y-50600423D01*
X120704400Y-50694777D01*
X120722807Y-50787319D01*
X120758915Y-50874492D01*
X120811336Y-50952945D01*
X120878055Y-51019664D01*
X120956508Y-51072085D01*
X121043681Y-51108193D01*
X121136223Y-51126600D01*
X121230577Y-51126600D01*
X121323119Y-51108193D01*
X121410292Y-51072085D01*
X121488745Y-51019664D01*
X121555464Y-50952945D01*
X121562623Y-50942232D01*
X121614655Y-50994264D01*
X121693108Y-51046685D01*
X121780281Y-51082793D01*
X121872823Y-51101200D01*
X121967177Y-51101200D01*
X122059719Y-51082793D01*
X122146892Y-51046685D01*
X122225345Y-50994264D01*
X122292064Y-50927545D01*
X122344485Y-50849092D01*
X122380593Y-50761919D01*
X122399000Y-50669377D01*
X122399000Y-50575023D01*
X122380593Y-50482481D01*
X122344485Y-50395308D01*
X122292064Y-50316855D01*
X122225345Y-50250136D01*
X122146892Y-50197715D01*
X122059719Y-50161607D01*
X121967177Y-50143200D01*
X121872823Y-50143200D01*
X121780281Y-50161607D01*
X121693108Y-50197715D01*
X121614655Y-50250136D01*
X121547936Y-50316855D01*
X121540777Y-50327568D01*
X121488745Y-50275536D01*
X121410292Y-50223115D01*
X121323119Y-50187007D01*
X121230577Y-50168600D01*
X121136223Y-50168600D01*
X121043681Y-50187007D01*
X120956508Y-50223115D01*
X120878055Y-50275536D01*
X120811336Y-50342255D01*
X120758915Y-50420708D01*
X120722807Y-50507881D01*
X120704400Y-50600423D01*
X120381000Y-50600423D01*
X120381000Y-49377000D01*
X121237800Y-49377000D01*
X121237800Y-49399377D01*
D12*
%TO.N,+1V8*%
G36*
X142542593Y-44346787D02*
G01*
X142511272Y-44422403D01*
X142495304Y-44502677D01*
X142495304Y-44584523D01*
X142511272Y-44664797D01*
X142542593Y-44740413D01*
X142588064Y-44808466D01*
X142645938Y-44866340D01*
X142713991Y-44911811D01*
X142789607Y-44943132D01*
X142869881Y-44959100D01*
X142951727Y-44959100D01*
X143032001Y-44943132D01*
X143107617Y-44911811D01*
X143175670Y-44866340D01*
X143233544Y-44808466D01*
X143279015Y-44740413D01*
X143310336Y-44664797D01*
X143326304Y-44584523D01*
X143326304Y-44502677D01*
X143310336Y-44422403D01*
X143279015Y-44346787D01*
X143259446Y-44317500D01*
X143936500Y-44317500D01*
X143936500Y-46829797D01*
X143910597Y-46819068D01*
X143830323Y-46803100D01*
X143748477Y-46803100D01*
X143668203Y-46819068D01*
X143592587Y-46850389D01*
X143524534Y-46895860D01*
X143466660Y-46953734D01*
X143421189Y-47021787D01*
X143389868Y-47097403D01*
X143373900Y-47177677D01*
X143373900Y-47259523D01*
X143389868Y-47339797D01*
X143421189Y-47415413D01*
X143466660Y-47483466D01*
X143524534Y-47541340D01*
X143592587Y-47586811D01*
X143668203Y-47618132D01*
X143748477Y-47634100D01*
X143830323Y-47634100D01*
X143910597Y-47618132D01*
X143936500Y-47607403D01*
X143936500Y-51927447D01*
X143864003Y-51941868D01*
X143788387Y-51973189D01*
X143720334Y-52018660D01*
X143662460Y-52076534D01*
X143616989Y-52144587D01*
X143585668Y-52220203D01*
X143569700Y-52300477D01*
X143569700Y-52382323D01*
X143585668Y-52462597D01*
X143616989Y-52538213D01*
X143662460Y-52606266D01*
X143720334Y-52664140D01*
X143788387Y-52709611D01*
X143864003Y-52740932D01*
X143936500Y-52755353D01*
X143936500Y-53094300D01*
X143918877Y-53094300D01*
X143838603Y-53110268D01*
X143762987Y-53141589D01*
X143694934Y-53187060D01*
X143637060Y-53244934D01*
X143591589Y-53312987D01*
X143560268Y-53388603D01*
X143544300Y-53468877D01*
X143544300Y-53550723D01*
X143560268Y-53630997D01*
X143591589Y-53706613D01*
X143637060Y-53774666D01*
X143694934Y-53832540D01*
X143762987Y-53878011D01*
X143838603Y-53909332D01*
X143918877Y-53925300D01*
X143936500Y-53925300D01*
X143936500Y-55338797D01*
X143910597Y-55328068D01*
X143830323Y-55312100D01*
X143748477Y-55312100D01*
X143668203Y-55328068D01*
X143592587Y-55359389D01*
X143524534Y-55404860D01*
X143466660Y-55462734D01*
X143421189Y-55530787D01*
X143389868Y-55606403D01*
X143373900Y-55686677D01*
X143373900Y-55768523D01*
X143389868Y-55848797D01*
X143421189Y-55924413D01*
X143466660Y-55992466D01*
X143524534Y-56050340D01*
X143592587Y-56095811D01*
X143668203Y-56127132D01*
X143748477Y-56143100D01*
X143830323Y-56143100D01*
X143910597Y-56127132D01*
X143936500Y-56116403D01*
X143936500Y-56984369D01*
X143905534Y-57005060D01*
X143847660Y-57062934D01*
X143802189Y-57130987D01*
X143770868Y-57206603D01*
X143754900Y-57286877D01*
X143754900Y-57368723D01*
X143770868Y-57448997D01*
X143802189Y-57524613D01*
X143847660Y-57592666D01*
X143905534Y-57650540D01*
X143936500Y-57671231D01*
X143936500Y-63254231D01*
X143903789Y-63303187D01*
X143872468Y-63378803D01*
X143856500Y-63459077D01*
X143856500Y-63540923D01*
X143872468Y-63621197D01*
X143897860Y-63682500D01*
X142956403Y-63682500D01*
X142963811Y-63671413D01*
X142995132Y-63595797D01*
X143011100Y-63515523D01*
X143011100Y-63433677D01*
X142995132Y-63353403D01*
X142963811Y-63277787D01*
X142918340Y-63209734D01*
X142860466Y-63151860D01*
X142792413Y-63106389D01*
X142716797Y-63075068D01*
X142636523Y-63059100D01*
X142554677Y-63059100D01*
X142474403Y-63075068D01*
X142398787Y-63106389D01*
X142330734Y-63151860D01*
X142272860Y-63209734D01*
X142227389Y-63277787D01*
X142196068Y-63353403D01*
X142180100Y-63433677D01*
X142180100Y-63515523D01*
X142196068Y-63595797D01*
X142227389Y-63671413D01*
X142234797Y-63682500D01*
X138651740Y-63682500D01*
X138677132Y-63621197D01*
X138693100Y-63540923D01*
X138693100Y-63459077D01*
X138677132Y-63378803D01*
X138645811Y-63303187D01*
X138600340Y-63235134D01*
X138542466Y-63177260D01*
X138474413Y-63131789D01*
X138398797Y-63100468D01*
X138318523Y-63084500D01*
X138236677Y-63084500D01*
X138156403Y-63100468D01*
X138080787Y-63131789D01*
X138012734Y-63177260D01*
X137954860Y-63235134D01*
X137909389Y-63303187D01*
X137878068Y-63378803D01*
X137862100Y-63459077D01*
X137862100Y-63540923D01*
X137878068Y-63621197D01*
X137903460Y-63682500D01*
X137134826Y-63682500D01*
X137163532Y-63613197D01*
X137179500Y-63532923D01*
X137179500Y-63451077D01*
X137163532Y-63370803D01*
X137132211Y-63295187D01*
X137086740Y-63227134D01*
X137028866Y-63169260D01*
X136960813Y-63123789D01*
X136885197Y-63092468D01*
X136804923Y-63076500D01*
X136723077Y-63076500D01*
X136642803Y-63092468D01*
X136567187Y-63123789D01*
X136499134Y-63169260D01*
X136441260Y-63227134D01*
X136395789Y-63295187D01*
X136364468Y-63370803D01*
X136348500Y-63451077D01*
X136348500Y-63532923D01*
X136364468Y-63613197D01*
X136393174Y-63682500D01*
X133673340Y-63682500D01*
X133698732Y-63621197D01*
X133714700Y-63540923D01*
X133714700Y-63459077D01*
X133698732Y-63378803D01*
X133667411Y-63303187D01*
X133621940Y-63235134D01*
X133564066Y-63177260D01*
X133563500Y-63176882D01*
X133563500Y-61746758D01*
X133609791Y-61765932D01*
X133690065Y-61781900D01*
X133771911Y-61781900D01*
X133852185Y-61765932D01*
X133927801Y-61734611D01*
X133995854Y-61689140D01*
X134053728Y-61631266D01*
X134099199Y-61563213D01*
X134130520Y-61487597D01*
X134146488Y-61407323D01*
X134146488Y-61342877D01*
X134164100Y-61342877D01*
X134164100Y-61424723D01*
X134180068Y-61504997D01*
X134211389Y-61580613D01*
X134256860Y-61648666D01*
X134314734Y-61706540D01*
X134382787Y-61752011D01*
X134458403Y-61783332D01*
X134538677Y-61799300D01*
X134620523Y-61799300D01*
X134700797Y-61783332D01*
X134776413Y-61752011D01*
X134844466Y-61706540D01*
X134902340Y-61648666D01*
X134947811Y-61580613D01*
X134979132Y-61504997D01*
X134995100Y-61424723D01*
X134995100Y-61342877D01*
X134984995Y-61292077D01*
X136348500Y-61292077D01*
X136348500Y-61373923D01*
X136364468Y-61454197D01*
X136395789Y-61529813D01*
X136441260Y-61597866D01*
X136499134Y-61655740D01*
X136567187Y-61701211D01*
X136642803Y-61732532D01*
X136723077Y-61748500D01*
X136804923Y-61748500D01*
X136885197Y-61732532D01*
X136960813Y-61701211D01*
X137028866Y-61655740D01*
X137086740Y-61597866D01*
X137132211Y-61529813D01*
X137163532Y-61454197D01*
X137179500Y-61373923D01*
X137179500Y-61292077D01*
X137163532Y-61211803D01*
X137132211Y-61136187D01*
X137086740Y-61068134D01*
X137028866Y-61010260D01*
X136960813Y-60964789D01*
X136885197Y-60933468D01*
X136804923Y-60917500D01*
X136723077Y-60917500D01*
X136642803Y-60933468D01*
X136567187Y-60964789D01*
X136499134Y-61010260D01*
X136441260Y-61068134D01*
X136395789Y-61136187D01*
X136364468Y-61211803D01*
X136348500Y-61292077D01*
X134984995Y-61292077D01*
X134979132Y-61262603D01*
X134947811Y-61186987D01*
X134902340Y-61118934D01*
X134844466Y-61061060D01*
X134776413Y-61015589D01*
X134700797Y-60984268D01*
X134620523Y-60968300D01*
X134538677Y-60968300D01*
X134458403Y-60984268D01*
X134382787Y-61015589D01*
X134314734Y-61061060D01*
X134256860Y-61118934D01*
X134211389Y-61186987D01*
X134180068Y-61262603D01*
X134164100Y-61342877D01*
X134146488Y-61342877D01*
X134146488Y-61325477D01*
X134130520Y-61245203D01*
X134099199Y-61169587D01*
X134053728Y-61101534D01*
X133995854Y-61043660D01*
X133927801Y-60998189D01*
X133852185Y-60966868D01*
X133771911Y-60950900D01*
X133690065Y-60950900D01*
X133609791Y-60966868D01*
X133563500Y-60986042D01*
X133563500Y-60555477D01*
X139396500Y-60555477D01*
X139396500Y-60637323D01*
X139412468Y-60717597D01*
X139443789Y-60793213D01*
X139489260Y-60861266D01*
X139547134Y-60919140D01*
X139615187Y-60964611D01*
X139690803Y-60995932D01*
X139771077Y-61011900D01*
X139849065Y-61011900D01*
X139818868Y-61084803D01*
X139802900Y-61165077D01*
X139802900Y-61246923D01*
X139818868Y-61327197D01*
X139850189Y-61402813D01*
X139895660Y-61470866D01*
X139953534Y-61528740D01*
X140021587Y-61574211D01*
X140097203Y-61605532D01*
X140177477Y-61621500D01*
X140259323Y-61621500D01*
X140339597Y-61605532D01*
X140415213Y-61574211D01*
X140483266Y-61528740D01*
X140541140Y-61470866D01*
X140586611Y-61402813D01*
X140617932Y-61327197D01*
X140633900Y-61246923D01*
X140633900Y-61165077D01*
X140617932Y-61084803D01*
X140601892Y-61046077D01*
X142789700Y-61046077D01*
X142789700Y-61127923D01*
X142805668Y-61208197D01*
X142836989Y-61283813D01*
X142882460Y-61351866D01*
X142940334Y-61409740D01*
X143008387Y-61455211D01*
X143084003Y-61486532D01*
X143164277Y-61502500D01*
X143246123Y-61502500D01*
X143326397Y-61486532D01*
X143402013Y-61455211D01*
X143470066Y-61409740D01*
X143527940Y-61351866D01*
X143573411Y-61283813D01*
X143604732Y-61208197D01*
X143620700Y-61127923D01*
X143620700Y-61046077D01*
X143604732Y-60965803D01*
X143573411Y-60890187D01*
X143527940Y-60822134D01*
X143470066Y-60764260D01*
X143402013Y-60718789D01*
X143326397Y-60687468D01*
X143246123Y-60671500D01*
X143164277Y-60671500D01*
X143084003Y-60687468D01*
X143008387Y-60718789D01*
X142940334Y-60764260D01*
X142882460Y-60822134D01*
X142836989Y-60890187D01*
X142805668Y-60965803D01*
X142789700Y-61046077D01*
X140601892Y-61046077D01*
X140586611Y-61009187D01*
X140541140Y-60941134D01*
X140483266Y-60883260D01*
X140415213Y-60837789D01*
X140339597Y-60806468D01*
X140259323Y-60790500D01*
X140181335Y-60790500D01*
X140211532Y-60717597D01*
X140227500Y-60637323D01*
X140227500Y-60555477D01*
X140211532Y-60475203D01*
X140180211Y-60399587D01*
X140134740Y-60331534D01*
X140076866Y-60273660D01*
X140008813Y-60228189D01*
X139933197Y-60196868D01*
X139852923Y-60180900D01*
X139771077Y-60180900D01*
X139690803Y-60196868D01*
X139615187Y-60228189D01*
X139547134Y-60273660D01*
X139489260Y-60331534D01*
X139443789Y-60399587D01*
X139412468Y-60475203D01*
X139396500Y-60555477D01*
X133563500Y-60555477D01*
X133563500Y-58963277D01*
X134280700Y-58963277D01*
X134280700Y-59045123D01*
X134296668Y-59125397D01*
X134327989Y-59201013D01*
X134373460Y-59269066D01*
X134431334Y-59326940D01*
X134499387Y-59372411D01*
X134575003Y-59403732D01*
X134625703Y-59413817D01*
X134560587Y-59440789D01*
X134492534Y-59486260D01*
X134434660Y-59544134D01*
X134389189Y-59612187D01*
X134357868Y-59687803D01*
X134341900Y-59768077D01*
X134341900Y-59849923D01*
X134357868Y-59930197D01*
X134389189Y-60005813D01*
X134434660Y-60073866D01*
X134492534Y-60131740D01*
X134560587Y-60177211D01*
X134636203Y-60208532D01*
X134716477Y-60224500D01*
X134798323Y-60224500D01*
X134878597Y-60208532D01*
X134954213Y-60177211D01*
X135022266Y-60131740D01*
X135080140Y-60073866D01*
X135083328Y-60069094D01*
X135120460Y-60124666D01*
X135178334Y-60182540D01*
X135246387Y-60228011D01*
X135322003Y-60259332D01*
X135402277Y-60275300D01*
X135484123Y-60275300D01*
X135564397Y-60259332D01*
X135640013Y-60228011D01*
X135708066Y-60182540D01*
X135765940Y-60124666D01*
X135811411Y-60056613D01*
X135842732Y-59980997D01*
X135858700Y-59900723D01*
X135858700Y-59818877D01*
X135842732Y-59738603D01*
X135811411Y-59662987D01*
X135765940Y-59594934D01*
X135708066Y-59537060D01*
X135640013Y-59491589D01*
X135564397Y-59460268D01*
X135484123Y-59444300D01*
X135402277Y-59444300D01*
X135322003Y-59460268D01*
X135246387Y-59491589D01*
X135178334Y-59537060D01*
X135120460Y-59594934D01*
X135117272Y-59599706D01*
X135080140Y-59544134D01*
X135022266Y-59486260D01*
X134954213Y-59440789D01*
X134878597Y-59409468D01*
X134827897Y-59399383D01*
X134893013Y-59372411D01*
X134961066Y-59326940D01*
X135018940Y-59269066D01*
X135064411Y-59201013D01*
X135095732Y-59125397D01*
X135111700Y-59045123D01*
X135111700Y-58963277D01*
X136084100Y-58963277D01*
X136084100Y-59045123D01*
X136100068Y-59125397D01*
X136131389Y-59201013D01*
X136176860Y-59269066D01*
X136234734Y-59326940D01*
X136302787Y-59372411D01*
X136378403Y-59403732D01*
X136458677Y-59419700D01*
X136540523Y-59419700D01*
X136620797Y-59403732D01*
X136696413Y-59372411D01*
X136764466Y-59326940D01*
X136822340Y-59269066D01*
X136867811Y-59201013D01*
X136899132Y-59125397D01*
X136915100Y-59045123D01*
X136915100Y-58988677D01*
X137887500Y-58988677D01*
X137887500Y-59070523D01*
X137903468Y-59150797D01*
X137934789Y-59226413D01*
X137980260Y-59294466D01*
X138038134Y-59352340D01*
X138106187Y-59397811D01*
X138181803Y-59429132D01*
X138262077Y-59445100D01*
X138343923Y-59445100D01*
X138424197Y-59429132D01*
X138499813Y-59397811D01*
X138567866Y-59352340D01*
X138625740Y-59294466D01*
X138671211Y-59226413D01*
X138702532Y-59150797D01*
X138718500Y-59070523D01*
X138718500Y-58988677D01*
X138702532Y-58908403D01*
X138671211Y-58832787D01*
X138625740Y-58764734D01*
X138613083Y-58752077D01*
X140336300Y-58752077D01*
X140336300Y-58833923D01*
X140352268Y-58914197D01*
X140383589Y-58989813D01*
X140429060Y-59057866D01*
X140486934Y-59115740D01*
X140554987Y-59161211D01*
X140586511Y-59174269D01*
X140537734Y-59206860D01*
X140479860Y-59264734D01*
X140434389Y-59332787D01*
X140403068Y-59408403D01*
X140387100Y-59488677D01*
X140387100Y-59570523D01*
X140403068Y-59650797D01*
X140434389Y-59726413D01*
X140479860Y-59794466D01*
X140537734Y-59852340D01*
X140605787Y-59897811D01*
X140681403Y-59929132D01*
X140761677Y-59945100D01*
X140843523Y-59945100D01*
X140923797Y-59929132D01*
X140999413Y-59897811D01*
X141067466Y-59852340D01*
X141125340Y-59794466D01*
X141170811Y-59726413D01*
X141177991Y-59709077D01*
X142834500Y-59709077D01*
X142834500Y-59790923D01*
X142850468Y-59871197D01*
X142881789Y-59946813D01*
X142927260Y-60014866D01*
X142985134Y-60072740D01*
X143053187Y-60118211D01*
X143128803Y-60149532D01*
X143209077Y-60165500D01*
X143290923Y-60165500D01*
X143371197Y-60149532D01*
X143446813Y-60118211D01*
X143514866Y-60072740D01*
X143572740Y-60014866D01*
X143618211Y-59946813D01*
X143649532Y-59871197D01*
X143665500Y-59790923D01*
X143665500Y-59709077D01*
X143649532Y-59628803D01*
X143618211Y-59553187D01*
X143572740Y-59485134D01*
X143514866Y-59427260D01*
X143446813Y-59381789D01*
X143371197Y-59350468D01*
X143290923Y-59334500D01*
X143209077Y-59334500D01*
X143128803Y-59350468D01*
X143053187Y-59381789D01*
X142985134Y-59427260D01*
X142927260Y-59485134D01*
X142881789Y-59553187D01*
X142850468Y-59628803D01*
X142834500Y-59709077D01*
X141177991Y-59709077D01*
X141202132Y-59650797D01*
X141218100Y-59570523D01*
X141218100Y-59488677D01*
X141202132Y-59408403D01*
X141170811Y-59332787D01*
X141125340Y-59264734D01*
X141067466Y-59206860D01*
X140999413Y-59161389D01*
X140967889Y-59148331D01*
X141016666Y-59115740D01*
X141074540Y-59057866D01*
X141120011Y-58989813D01*
X141151332Y-58914197D01*
X141167300Y-58833923D01*
X141167300Y-58752077D01*
X141151332Y-58671803D01*
X141120011Y-58596187D01*
X141074540Y-58528134D01*
X141016666Y-58470260D01*
X140948613Y-58424789D01*
X140872997Y-58393468D01*
X140792723Y-58377500D01*
X140710877Y-58377500D01*
X140630603Y-58393468D01*
X140554987Y-58424789D01*
X140486934Y-58470260D01*
X140429060Y-58528134D01*
X140383589Y-58596187D01*
X140352268Y-58671803D01*
X140336300Y-58752077D01*
X138613083Y-58752077D01*
X138567866Y-58706860D01*
X138499813Y-58661389D01*
X138424197Y-58630068D01*
X138343923Y-58614100D01*
X138262077Y-58614100D01*
X138181803Y-58630068D01*
X138106187Y-58661389D01*
X138038134Y-58706860D01*
X137980260Y-58764734D01*
X137934789Y-58832787D01*
X137903468Y-58908403D01*
X137887500Y-58988677D01*
X136915100Y-58988677D01*
X136915100Y-58963277D01*
X136899132Y-58883003D01*
X136867811Y-58807387D01*
X136822340Y-58739334D01*
X136764466Y-58681460D01*
X136696413Y-58635989D01*
X136620797Y-58604668D01*
X136540523Y-58588700D01*
X136458677Y-58588700D01*
X136378403Y-58604668D01*
X136302787Y-58635989D01*
X136234734Y-58681460D01*
X136176860Y-58739334D01*
X136131389Y-58807387D01*
X136100068Y-58883003D01*
X136084100Y-58963277D01*
X135111700Y-58963277D01*
X135095732Y-58883003D01*
X135064411Y-58807387D01*
X135018940Y-58739334D01*
X134961066Y-58681460D01*
X134893013Y-58635989D01*
X134817397Y-58604668D01*
X134737123Y-58588700D01*
X134655277Y-58588700D01*
X134575003Y-58604668D01*
X134499387Y-58635989D01*
X134431334Y-58681460D01*
X134373460Y-58739334D01*
X134327989Y-58807387D01*
X134296668Y-58883003D01*
X134280700Y-58963277D01*
X133563500Y-58963277D01*
X133563500Y-57185277D01*
X134306100Y-57185277D01*
X134306100Y-57267123D01*
X134322068Y-57347397D01*
X134353389Y-57423013D01*
X134398860Y-57491066D01*
X134456734Y-57548940D01*
X134524787Y-57594411D01*
X134600403Y-57625732D01*
X134680677Y-57641700D01*
X134762523Y-57641700D01*
X134842797Y-57625732D01*
X134918413Y-57594411D01*
X134986466Y-57548940D01*
X135044340Y-57491066D01*
X135089811Y-57423013D01*
X135121132Y-57347397D01*
X135137100Y-57267123D01*
X135137100Y-57185277D01*
X135132048Y-57159877D01*
X136109500Y-57159877D01*
X136109500Y-57241723D01*
X136125468Y-57321997D01*
X136156789Y-57397613D01*
X136202260Y-57465666D01*
X136260134Y-57523540D01*
X136328187Y-57569011D01*
X136403803Y-57600332D01*
X136484077Y-57616300D01*
X136565923Y-57616300D01*
X136646197Y-57600332D01*
X136721813Y-57569011D01*
X136789866Y-57523540D01*
X136847740Y-57465666D01*
X136893211Y-57397613D01*
X136924532Y-57321997D01*
X136940500Y-57241723D01*
X136940500Y-57159877D01*
X137887500Y-57159877D01*
X137887500Y-57241723D01*
X137903468Y-57321997D01*
X137934789Y-57397613D01*
X137980260Y-57465666D01*
X138038134Y-57523540D01*
X138106187Y-57569011D01*
X138181803Y-57600332D01*
X138262077Y-57616300D01*
X138343923Y-57616300D01*
X138424197Y-57600332D01*
X138499813Y-57569011D01*
X138567866Y-57523540D01*
X138625740Y-57465666D01*
X138671211Y-57397613D01*
X138702532Y-57321997D01*
X138718500Y-57241723D01*
X138718500Y-57159877D01*
X138702532Y-57079603D01*
X138671211Y-57003987D01*
X138625740Y-56935934D01*
X138567866Y-56878060D01*
X138499813Y-56832589D01*
X138424197Y-56801268D01*
X138343923Y-56785300D01*
X138262077Y-56785300D01*
X138181803Y-56801268D01*
X138106187Y-56832589D01*
X138038134Y-56878060D01*
X137980260Y-56935934D01*
X137934789Y-57003987D01*
X137903468Y-57079603D01*
X137887500Y-57159877D01*
X136940500Y-57159877D01*
X136924532Y-57079603D01*
X136893211Y-57003987D01*
X136847740Y-56935934D01*
X136789866Y-56878060D01*
X136721813Y-56832589D01*
X136646197Y-56801268D01*
X136565923Y-56785300D01*
X136484077Y-56785300D01*
X136403803Y-56801268D01*
X136328187Y-56832589D01*
X136260134Y-56878060D01*
X136202260Y-56935934D01*
X136156789Y-57003987D01*
X136125468Y-57079603D01*
X136109500Y-57159877D01*
X135132048Y-57159877D01*
X135121132Y-57105003D01*
X135089811Y-57029387D01*
X135044340Y-56961334D01*
X134986466Y-56903460D01*
X134918413Y-56857989D01*
X134842797Y-56826668D01*
X134762523Y-56810700D01*
X134680677Y-56810700D01*
X134600403Y-56826668D01*
X134524787Y-56857989D01*
X134456734Y-56903460D01*
X134398860Y-56961334D01*
X134353389Y-57029387D01*
X134322068Y-57105003D01*
X134306100Y-57185277D01*
X133563500Y-57185277D01*
X133563500Y-56085077D01*
X140412500Y-56085077D01*
X140412500Y-56166923D01*
X140428468Y-56247197D01*
X140459789Y-56322813D01*
X140505260Y-56390866D01*
X140563134Y-56448740D01*
X140631187Y-56494211D01*
X140706803Y-56525532D01*
X140787077Y-56541500D01*
X140868923Y-56541500D01*
X140949197Y-56525532D01*
X141024813Y-56494211D01*
X141092866Y-56448740D01*
X141150740Y-56390866D01*
X141196211Y-56322813D01*
X141227532Y-56247197D01*
X141243500Y-56166923D01*
X141243500Y-56110477D01*
X142645300Y-56110477D01*
X142645300Y-56192323D01*
X142661268Y-56272597D01*
X142692589Y-56348213D01*
X142738060Y-56416266D01*
X142795934Y-56474140D01*
X142863987Y-56519611D01*
X142939603Y-56550932D01*
X143019877Y-56566900D01*
X143101723Y-56566900D01*
X143181997Y-56550932D01*
X143257613Y-56519611D01*
X143325666Y-56474140D01*
X143383540Y-56416266D01*
X143429011Y-56348213D01*
X143460332Y-56272597D01*
X143476300Y-56192323D01*
X143476300Y-56110477D01*
X143460332Y-56030203D01*
X143429011Y-55954587D01*
X143383540Y-55886534D01*
X143325666Y-55828660D01*
X143257613Y-55783189D01*
X143181997Y-55751868D01*
X143101723Y-55735900D01*
X143019877Y-55735900D01*
X142939603Y-55751868D01*
X142863987Y-55783189D01*
X142795934Y-55828660D01*
X142738060Y-55886534D01*
X142692589Y-55954587D01*
X142661268Y-56030203D01*
X142645300Y-56110477D01*
X141243500Y-56110477D01*
X141243500Y-56085077D01*
X141227532Y-56004803D01*
X141196211Y-55929187D01*
X141150740Y-55861134D01*
X141092866Y-55803260D01*
X141024813Y-55757789D01*
X140949197Y-55726468D01*
X140868923Y-55710500D01*
X140787077Y-55710500D01*
X140706803Y-55726468D01*
X140631187Y-55757789D01*
X140563134Y-55803260D01*
X140505260Y-55861134D01*
X140459789Y-55929187D01*
X140428468Y-56004803D01*
X140412500Y-56085077D01*
X133563500Y-56085077D01*
X133563500Y-55381877D01*
X134331500Y-55381877D01*
X134331500Y-55463723D01*
X134347468Y-55543997D01*
X134378789Y-55619613D01*
X134424260Y-55687666D01*
X134482134Y-55745540D01*
X134550187Y-55791011D01*
X134625803Y-55822332D01*
X134706077Y-55838300D01*
X134787923Y-55838300D01*
X134868197Y-55822332D01*
X134943813Y-55791011D01*
X135011866Y-55745540D01*
X135069740Y-55687666D01*
X135115211Y-55619613D01*
X135146532Y-55543997D01*
X135162500Y-55463723D01*
X135162500Y-55407277D01*
X136084100Y-55407277D01*
X136084100Y-55489123D01*
X136100068Y-55569397D01*
X136131389Y-55645013D01*
X136176860Y-55713066D01*
X136234734Y-55770940D01*
X136302787Y-55816411D01*
X136378403Y-55847732D01*
X136458677Y-55863700D01*
X136540523Y-55863700D01*
X136620797Y-55847732D01*
X136696413Y-55816411D01*
X136764466Y-55770940D01*
X136822340Y-55713066D01*
X136867811Y-55645013D01*
X136899132Y-55569397D01*
X136915100Y-55489123D01*
X136915100Y-55407277D01*
X136910048Y-55381877D01*
X137887500Y-55381877D01*
X137887500Y-55463723D01*
X137903468Y-55543997D01*
X137934789Y-55619613D01*
X137980260Y-55687666D01*
X138038134Y-55745540D01*
X138106187Y-55791011D01*
X138181803Y-55822332D01*
X138262077Y-55838300D01*
X138343923Y-55838300D01*
X138424197Y-55822332D01*
X138499813Y-55791011D01*
X138567866Y-55745540D01*
X138625740Y-55687666D01*
X138671211Y-55619613D01*
X138702532Y-55543997D01*
X138718500Y-55463723D01*
X138718500Y-55381877D01*
X138702532Y-55301603D01*
X138671211Y-55225987D01*
X138625740Y-55157934D01*
X138567866Y-55100060D01*
X138499813Y-55054589D01*
X138424197Y-55023268D01*
X138343923Y-55007300D01*
X138262077Y-55007300D01*
X138181803Y-55023268D01*
X138106187Y-55054589D01*
X138038134Y-55100060D01*
X137980260Y-55157934D01*
X137934789Y-55225987D01*
X137903468Y-55301603D01*
X137887500Y-55381877D01*
X136910048Y-55381877D01*
X136899132Y-55327003D01*
X136867811Y-55251387D01*
X136822340Y-55183334D01*
X136764466Y-55125460D01*
X136696413Y-55079989D01*
X136620797Y-55048668D01*
X136540523Y-55032700D01*
X136458677Y-55032700D01*
X136378403Y-55048668D01*
X136302787Y-55079989D01*
X136234734Y-55125460D01*
X136176860Y-55183334D01*
X136131389Y-55251387D01*
X136100068Y-55327003D01*
X136084100Y-55407277D01*
X135162500Y-55407277D01*
X135162500Y-55381877D01*
X135146532Y-55301603D01*
X135115211Y-55225987D01*
X135069740Y-55157934D01*
X135011866Y-55100060D01*
X134943813Y-55054589D01*
X134868197Y-55023268D01*
X134787923Y-55007300D01*
X134706077Y-55007300D01*
X134625803Y-55023268D01*
X134550187Y-55054589D01*
X134482134Y-55100060D01*
X134424260Y-55157934D01*
X134378789Y-55225987D01*
X134347468Y-55301603D01*
X134331500Y-55381877D01*
X133563500Y-55381877D01*
X133563500Y-54561077D01*
X138685300Y-54561077D01*
X138685300Y-54642923D01*
X138701268Y-54723197D01*
X138732589Y-54798813D01*
X138778060Y-54866866D01*
X138835934Y-54924740D01*
X138903987Y-54970211D01*
X138979603Y-55001532D01*
X139059877Y-55017500D01*
X139141723Y-55017500D01*
X139221997Y-55001532D01*
X139297613Y-54970211D01*
X139365666Y-54924740D01*
X139423540Y-54866866D01*
X139469011Y-54798813D01*
X139500332Y-54723197D01*
X139516300Y-54642923D01*
X139516300Y-54561077D01*
X139500332Y-54480803D01*
X139469011Y-54405187D01*
X139454372Y-54383277D01*
X140249700Y-54383277D01*
X140249700Y-54465123D01*
X140265668Y-54545397D01*
X140296989Y-54621013D01*
X140342460Y-54689066D01*
X140400334Y-54746940D01*
X140468387Y-54792411D01*
X140544003Y-54823732D01*
X140624277Y-54839700D01*
X140706123Y-54839700D01*
X140786397Y-54823732D01*
X140862013Y-54792411D01*
X140930066Y-54746940D01*
X140987940Y-54689066D01*
X141033411Y-54621013D01*
X141064732Y-54545397D01*
X141080700Y-54465123D01*
X141080700Y-54446372D01*
X141142677Y-54458700D01*
X141224523Y-54458700D01*
X141253335Y-54452969D01*
X141266668Y-54519997D01*
X141297989Y-54595613D01*
X141343460Y-54663666D01*
X141401334Y-54721540D01*
X141469387Y-54767011D01*
X141545003Y-54798332D01*
X141625277Y-54814300D01*
X141707123Y-54814300D01*
X141787397Y-54798332D01*
X141863013Y-54767011D01*
X141931066Y-54721540D01*
X141988940Y-54663666D01*
X142034411Y-54595613D01*
X142065732Y-54519997D01*
X142081700Y-54439723D01*
X142081700Y-54357877D01*
X142065732Y-54277603D01*
X142034411Y-54201987D01*
X141988940Y-54133934D01*
X141931066Y-54076060D01*
X141863013Y-54030589D01*
X141787397Y-53999268D01*
X141707123Y-53983300D01*
X141625277Y-53983300D01*
X141596465Y-53989031D01*
X141583132Y-53922003D01*
X141551811Y-53846387D01*
X141506340Y-53778334D01*
X141448466Y-53720460D01*
X141380413Y-53674989D01*
X141304797Y-53643668D01*
X141224523Y-53627700D01*
X141142677Y-53627700D01*
X141062403Y-53643668D01*
X140986787Y-53674989D01*
X140918734Y-53720460D01*
X140860860Y-53778334D01*
X140815389Y-53846387D01*
X140784068Y-53922003D01*
X140768100Y-54002277D01*
X140768100Y-54021028D01*
X140706123Y-54008700D01*
X140624277Y-54008700D01*
X140544003Y-54024668D01*
X140468387Y-54055989D01*
X140400334Y-54101460D01*
X140342460Y-54159334D01*
X140296989Y-54227387D01*
X140265668Y-54303003D01*
X140249700Y-54383277D01*
X139454372Y-54383277D01*
X139423540Y-54337134D01*
X139365666Y-54279260D01*
X139297613Y-54233789D01*
X139221997Y-54202468D01*
X139141723Y-54186500D01*
X139059877Y-54186500D01*
X138979603Y-54202468D01*
X138903987Y-54233789D01*
X138835934Y-54279260D01*
X138778060Y-54337134D01*
X138732589Y-54405187D01*
X138701268Y-54480803D01*
X138685300Y-54561077D01*
X133563500Y-54561077D01*
X133563500Y-53799077D01*
X139396500Y-53799077D01*
X139396500Y-53880923D01*
X139412468Y-53961197D01*
X139443789Y-54036813D01*
X139489260Y-54104866D01*
X139547134Y-54162740D01*
X139615187Y-54208211D01*
X139690803Y-54239532D01*
X139771077Y-54255500D01*
X139852923Y-54255500D01*
X139933197Y-54239532D01*
X140008813Y-54208211D01*
X140076866Y-54162740D01*
X140134740Y-54104866D01*
X140180211Y-54036813D01*
X140211532Y-53961197D01*
X140227500Y-53880923D01*
X140227500Y-53799077D01*
X140211532Y-53718803D01*
X140180211Y-53643187D01*
X140134740Y-53575134D01*
X140076866Y-53517260D01*
X140008813Y-53471789D01*
X139933197Y-53440468D01*
X139852923Y-53424500D01*
X139771077Y-53424500D01*
X139690803Y-53440468D01*
X139615187Y-53471789D01*
X139547134Y-53517260D01*
X139489260Y-53575134D01*
X139443789Y-53643187D01*
X139412468Y-53718803D01*
X139396500Y-53799077D01*
X133563500Y-53799077D01*
X133563500Y-53056106D01*
X133581540Y-53038066D01*
X133627011Y-52970013D01*
X133658332Y-52894397D01*
X133674300Y-52814123D01*
X133674300Y-52732277D01*
X133665787Y-52689477D01*
X134052100Y-52689477D01*
X134052100Y-52771323D01*
X134068068Y-52851597D01*
X134099389Y-52927213D01*
X134144860Y-52995266D01*
X134202734Y-53053140D01*
X134270787Y-53098611D01*
X134346403Y-53129932D01*
X134426677Y-53145900D01*
X134508523Y-53145900D01*
X134588797Y-53129932D01*
X134664413Y-53098611D01*
X134680477Y-53087877D01*
X135713500Y-53087877D01*
X135713500Y-53169723D01*
X135729468Y-53249997D01*
X135760789Y-53325613D01*
X135806260Y-53393666D01*
X135864134Y-53451540D01*
X135932187Y-53497011D01*
X136007803Y-53528332D01*
X136088077Y-53544300D01*
X136169923Y-53544300D01*
X136250197Y-53528332D01*
X136325813Y-53497011D01*
X136393866Y-53451540D01*
X136451740Y-53393666D01*
X136497211Y-53325613D01*
X136528532Y-53249997D01*
X136544500Y-53169723D01*
X136544500Y-53087877D01*
X136534395Y-53037077D01*
X136653300Y-53037077D01*
X136653300Y-53118923D01*
X136669268Y-53199197D01*
X136700589Y-53274813D01*
X136746060Y-53342866D01*
X136803934Y-53400740D01*
X136871987Y-53446211D01*
X136947603Y-53477532D01*
X137027877Y-53493500D01*
X137109723Y-53493500D01*
X137189997Y-53477532D01*
X137265613Y-53446211D01*
X137333666Y-53400740D01*
X137391540Y-53342866D01*
X137403214Y-53325394D01*
X137431860Y-53368266D01*
X137489734Y-53426140D01*
X137557787Y-53471611D01*
X137633403Y-53502932D01*
X137713677Y-53518900D01*
X137795523Y-53518900D01*
X137875797Y-53502932D01*
X137951413Y-53471611D01*
X138019466Y-53426140D01*
X138077340Y-53368266D01*
X138110200Y-53319087D01*
X138143060Y-53368266D01*
X138200934Y-53426140D01*
X138268987Y-53471611D01*
X138344603Y-53502932D01*
X138424877Y-53518900D01*
X138506723Y-53518900D01*
X138586997Y-53502932D01*
X138662613Y-53471611D01*
X138730666Y-53426140D01*
X138788540Y-53368266D01*
X138834011Y-53300213D01*
X138865332Y-53224597D01*
X138881300Y-53144323D01*
X138881300Y-53062477D01*
X138865332Y-52982203D01*
X138834011Y-52906587D01*
X138788540Y-52838534D01*
X138730666Y-52780660D01*
X138662613Y-52735189D01*
X138586997Y-52703868D01*
X138506723Y-52687900D01*
X138424877Y-52687900D01*
X138344603Y-52703868D01*
X138268987Y-52735189D01*
X138200934Y-52780660D01*
X138143060Y-52838534D01*
X138110200Y-52887713D01*
X138077340Y-52838534D01*
X138019466Y-52780660D01*
X137951413Y-52735189D01*
X137875797Y-52703868D01*
X137795523Y-52687900D01*
X137713677Y-52687900D01*
X137633403Y-52703868D01*
X137557787Y-52735189D01*
X137489734Y-52780660D01*
X137431860Y-52838534D01*
X137420186Y-52856006D01*
X137391540Y-52813134D01*
X137333666Y-52755260D01*
X137265613Y-52709789D01*
X137189997Y-52678468D01*
X137109723Y-52662500D01*
X137027877Y-52662500D01*
X136947603Y-52678468D01*
X136871987Y-52709789D01*
X136803934Y-52755260D01*
X136746060Y-52813134D01*
X136700589Y-52881187D01*
X136669268Y-52956803D01*
X136653300Y-53037077D01*
X136534395Y-53037077D01*
X136528532Y-53007603D01*
X136497211Y-52931987D01*
X136451740Y-52863934D01*
X136393866Y-52806060D01*
X136325813Y-52760589D01*
X136250197Y-52729268D01*
X136169923Y-52713300D01*
X136088077Y-52713300D01*
X136007803Y-52729268D01*
X135932187Y-52760589D01*
X135864134Y-52806060D01*
X135806260Y-52863934D01*
X135760789Y-52931987D01*
X135729468Y-53007603D01*
X135713500Y-53087877D01*
X134680477Y-53087877D01*
X134732466Y-53053140D01*
X134790340Y-52995266D01*
X134835811Y-52927213D01*
X134867132Y-52851597D01*
X134883100Y-52771323D01*
X134883100Y-52689477D01*
X134867132Y-52609203D01*
X134835811Y-52533587D01*
X134790340Y-52465534D01*
X134738118Y-52413312D01*
X134742866Y-52410140D01*
X134800740Y-52352266D01*
X134846211Y-52284213D01*
X134877532Y-52208597D01*
X134893500Y-52128323D01*
X134893500Y-52046477D01*
X134877532Y-51966203D01*
X134846211Y-51890587D01*
X134800740Y-51822534D01*
X134759322Y-51781116D01*
X134768266Y-51775140D01*
X134826140Y-51717266D01*
X134871611Y-51649213D01*
X134902932Y-51573597D01*
X134918900Y-51493323D01*
X134918900Y-51411477D01*
X134902932Y-51331203D01*
X134871611Y-51255587D01*
X134826140Y-51187534D01*
X134768266Y-51129660D01*
X134700213Y-51084189D01*
X134624597Y-51052868D01*
X134544323Y-51036900D01*
X134462477Y-51036900D01*
X134382203Y-51052868D01*
X134306587Y-51084189D01*
X134238534Y-51129660D01*
X134180660Y-51187534D01*
X134135189Y-51255587D01*
X134103868Y-51331203D01*
X134087900Y-51411477D01*
X134087900Y-51493323D01*
X134103868Y-51573597D01*
X134135189Y-51649213D01*
X134180660Y-51717266D01*
X134222078Y-51758684D01*
X134213134Y-51764660D01*
X134155260Y-51822534D01*
X134109789Y-51890587D01*
X134078468Y-51966203D01*
X134062500Y-52046477D01*
X134062500Y-52128323D01*
X134078468Y-52208597D01*
X134109789Y-52284213D01*
X134155260Y-52352266D01*
X134207482Y-52404488D01*
X134202734Y-52407660D01*
X134144860Y-52465534D01*
X134099389Y-52533587D01*
X134068068Y-52609203D01*
X134052100Y-52689477D01*
X133665787Y-52689477D01*
X133658332Y-52652003D01*
X133627011Y-52576387D01*
X133581540Y-52508334D01*
X133563500Y-52490294D01*
X133563500Y-50878077D01*
X139650500Y-50878077D01*
X139650500Y-50959923D01*
X139666468Y-51040197D01*
X139697789Y-51115813D01*
X139743260Y-51183866D01*
X139801134Y-51241740D01*
X139869187Y-51287211D01*
X139944803Y-51318532D01*
X140025077Y-51334500D01*
X140106923Y-51334500D01*
X140187197Y-51318532D01*
X140262813Y-51287211D01*
X140330866Y-51241740D01*
X140388740Y-51183866D01*
X140434211Y-51115813D01*
X140465532Y-51040197D01*
X140481500Y-50959923D01*
X140481500Y-50878077D01*
X140465532Y-50797803D01*
X140435335Y-50724900D01*
X140437123Y-50724900D01*
X140517397Y-50708932D01*
X140593013Y-50677611D01*
X140661066Y-50632140D01*
X140718940Y-50574266D01*
X140764411Y-50506213D01*
X140795732Y-50430597D01*
X140811700Y-50350323D01*
X140811700Y-50268477D01*
X140795732Y-50188203D01*
X140764411Y-50112587D01*
X140718940Y-50044534D01*
X140661066Y-49986660D01*
X140593013Y-49941189D01*
X140517397Y-49909868D01*
X140437123Y-49893900D01*
X140355277Y-49893900D01*
X140275003Y-49909868D01*
X140199387Y-49941189D01*
X140131334Y-49986660D01*
X140073460Y-50044534D01*
X140027989Y-50112587D01*
X139996668Y-50188203D01*
X139980700Y-50268477D01*
X139980700Y-50350323D01*
X139996668Y-50430597D01*
X140026865Y-50503500D01*
X140025077Y-50503500D01*
X139944803Y-50519468D01*
X139869187Y-50550789D01*
X139801134Y-50596260D01*
X139743260Y-50654134D01*
X139697789Y-50722187D01*
X139666468Y-50797803D01*
X139650500Y-50878077D01*
X133563500Y-50878077D01*
X133563500Y-49722377D01*
X134291100Y-49722377D01*
X134291100Y-49804223D01*
X134307068Y-49884497D01*
X134338389Y-49960113D01*
X134383860Y-50028166D01*
X134441734Y-50086040D01*
X134509787Y-50131511D01*
X134585403Y-50162832D01*
X134665677Y-50178800D01*
X134747523Y-50178800D01*
X134827797Y-50162832D01*
X134903413Y-50131511D01*
X134971466Y-50086040D01*
X135028076Y-50029430D01*
X135069660Y-50091666D01*
X135127534Y-50149540D01*
X135195587Y-50195011D01*
X135271203Y-50226332D01*
X135351477Y-50242300D01*
X135433323Y-50242300D01*
X135513597Y-50226332D01*
X135589213Y-50195011D01*
X135657266Y-50149540D01*
X135715140Y-50091666D01*
X135760611Y-50023613D01*
X135791932Y-49947997D01*
X135807900Y-49867723D01*
X135807900Y-49842477D01*
X137079300Y-49842477D01*
X137079300Y-49924323D01*
X137095268Y-50004597D01*
X137126589Y-50080213D01*
X137172060Y-50148266D01*
X137229934Y-50206140D01*
X137297987Y-50251611D01*
X137373603Y-50282932D01*
X137453877Y-50298900D01*
X137535723Y-50298900D01*
X137615997Y-50282932D01*
X137691613Y-50251611D01*
X137759666Y-50206140D01*
X137817540Y-50148266D01*
X137863011Y-50080213D01*
X137894332Y-50004597D01*
X137910300Y-49924323D01*
X137910300Y-49842477D01*
X137894332Y-49762203D01*
X137863011Y-49686587D01*
X137817540Y-49618534D01*
X137759666Y-49560660D01*
X137691613Y-49515189D01*
X137615997Y-49483868D01*
X137535723Y-49467900D01*
X137453877Y-49467900D01*
X137373603Y-49483868D01*
X137297987Y-49515189D01*
X137229934Y-49560660D01*
X137172060Y-49618534D01*
X137126589Y-49686587D01*
X137095268Y-49762203D01*
X137079300Y-49842477D01*
X135807900Y-49842477D01*
X135807900Y-49785877D01*
X135791932Y-49705603D01*
X135760611Y-49629987D01*
X135715140Y-49561934D01*
X135657266Y-49504060D01*
X135589213Y-49458589D01*
X135513597Y-49427268D01*
X135433323Y-49411300D01*
X135351477Y-49411300D01*
X135271203Y-49427268D01*
X135195587Y-49458589D01*
X135127534Y-49504060D01*
X135070924Y-49560670D01*
X135029340Y-49498434D01*
X134971466Y-49440560D01*
X134903413Y-49395089D01*
X134827797Y-49363768D01*
X134747523Y-49347800D01*
X134665677Y-49347800D01*
X134585403Y-49363768D01*
X134509787Y-49395089D01*
X134441734Y-49440560D01*
X134383860Y-49498434D01*
X134338389Y-49566487D01*
X134307068Y-49642103D01*
X134291100Y-49722377D01*
X133563500Y-49722377D01*
X133563500Y-49622483D01*
X133628802Y-49649532D01*
X133709076Y-49665500D01*
X133790922Y-49665500D01*
X133871196Y-49649532D01*
X133946812Y-49618211D01*
X134014865Y-49572740D01*
X134072739Y-49514866D01*
X134118210Y-49446813D01*
X134149531Y-49371197D01*
X134165499Y-49290923D01*
X134165499Y-49209077D01*
X134149531Y-49128803D01*
X134118210Y-49053187D01*
X134072739Y-48985134D01*
X134014865Y-48927260D01*
X133946812Y-48881789D01*
X133871196Y-48850468D01*
X133790922Y-48834500D01*
X133709076Y-48834500D01*
X133628802Y-48850468D01*
X133563500Y-48877517D01*
X133563500Y-47855477D01*
X135053100Y-47855477D01*
X135053100Y-47937323D01*
X135069068Y-48017597D01*
X135100389Y-48093213D01*
X135145860Y-48161266D01*
X135203734Y-48219140D01*
X135271787Y-48264611D01*
X135333323Y-48290100D01*
X135271787Y-48315589D01*
X135203734Y-48361060D01*
X135145860Y-48418934D01*
X135100389Y-48486987D01*
X135069068Y-48562603D01*
X135053100Y-48642877D01*
X135053100Y-48724723D01*
X135069068Y-48804997D01*
X135100389Y-48880613D01*
X135145860Y-48948666D01*
X135203734Y-49006540D01*
X135271787Y-49052011D01*
X135347403Y-49083332D01*
X135427677Y-49099300D01*
X135509523Y-49099300D01*
X135589797Y-49083332D01*
X135665413Y-49052011D01*
X135733466Y-49006540D01*
X135791340Y-48948666D01*
X135836811Y-48880613D01*
X135868132Y-48804997D01*
X135884100Y-48724723D01*
X135884100Y-48642877D01*
X135868132Y-48562603D01*
X135836811Y-48486987D01*
X135791340Y-48418934D01*
X135733466Y-48361060D01*
X135665413Y-48315589D01*
X135603877Y-48290100D01*
X135665413Y-48264611D01*
X135733466Y-48219140D01*
X135791340Y-48161266D01*
X135836811Y-48093213D01*
X135868132Y-48017597D01*
X135884100Y-47937323D01*
X135884100Y-47855477D01*
X135868132Y-47775203D01*
X135836811Y-47699587D01*
X135791340Y-47631534D01*
X135733466Y-47573660D01*
X135665413Y-47528189D01*
X135589797Y-47496868D01*
X135509523Y-47480900D01*
X135427677Y-47480900D01*
X135347403Y-47496868D01*
X135271787Y-47528189D01*
X135203734Y-47573660D01*
X135145860Y-47631534D01*
X135100389Y-47699587D01*
X135069068Y-47775203D01*
X135053100Y-47855477D01*
X133563500Y-47855477D01*
X133563500Y-45704477D01*
X136795300Y-45704477D01*
X136795300Y-45786323D01*
X136811268Y-45866597D01*
X136842589Y-45942213D01*
X136888060Y-46010266D01*
X136945934Y-46068140D01*
X137013987Y-46113611D01*
X137089603Y-46144932D01*
X137169877Y-46160900D01*
X137251723Y-46160900D01*
X137331997Y-46144932D01*
X137407613Y-46113611D01*
X137475666Y-46068140D01*
X137533540Y-46010266D01*
X137579011Y-45942213D01*
X137610332Y-45866597D01*
X137626300Y-45786323D01*
X137626300Y-45704477D01*
X137610332Y-45624203D01*
X137579011Y-45548587D01*
X137533540Y-45480534D01*
X137475666Y-45422660D01*
X137467311Y-45417077D01*
X138888500Y-45417077D01*
X138888500Y-45498923D01*
X138904468Y-45579197D01*
X138935789Y-45654813D01*
X138981260Y-45722866D01*
X139039134Y-45780740D01*
X139107187Y-45826211D01*
X139182803Y-45857532D01*
X139263077Y-45873500D01*
X139344923Y-45873500D01*
X139425197Y-45857532D01*
X139500813Y-45826211D01*
X139568866Y-45780740D01*
X139626740Y-45722866D01*
X139672211Y-45654813D01*
X139703532Y-45579197D01*
X139719500Y-45498923D01*
X139719500Y-45417077D01*
X139703532Y-45336803D01*
X139672211Y-45261187D01*
X139626740Y-45193134D01*
X139568866Y-45135260D01*
X139500813Y-45089789D01*
X139425197Y-45058468D01*
X139344923Y-45042500D01*
X139263077Y-45042500D01*
X139182803Y-45058468D01*
X139107187Y-45089789D01*
X139039134Y-45135260D01*
X138981260Y-45193134D01*
X138935789Y-45261187D01*
X138904468Y-45336803D01*
X138888500Y-45417077D01*
X137467311Y-45417077D01*
X137407613Y-45377189D01*
X137331997Y-45345868D01*
X137251723Y-45329900D01*
X137169877Y-45329900D01*
X137089603Y-45345868D01*
X137013987Y-45377189D01*
X136945934Y-45422660D01*
X136888060Y-45480534D01*
X136842589Y-45548587D01*
X136811268Y-45624203D01*
X136795300Y-45704477D01*
X133563500Y-45704477D01*
X133563500Y-44317500D01*
X142562162Y-44317500D01*
X142542593Y-44346787D01*
G37*
X142542593Y-44346787D02*
X142511272Y-44422403D01*
X142495304Y-44502677D01*
X142495304Y-44584523D01*
X142511272Y-44664797D01*
X142542593Y-44740413D01*
X142588064Y-44808466D01*
X142645938Y-44866340D01*
X142713991Y-44911811D01*
X142789607Y-44943132D01*
X142869881Y-44959100D01*
X142951727Y-44959100D01*
X143032001Y-44943132D01*
X143107617Y-44911811D01*
X143175670Y-44866340D01*
X143233544Y-44808466D01*
X143279015Y-44740413D01*
X143310336Y-44664797D01*
X143326304Y-44584523D01*
X143326304Y-44502677D01*
X143310336Y-44422403D01*
X143279015Y-44346787D01*
X143259446Y-44317500D01*
X143936500Y-44317500D01*
X143936500Y-46829797D01*
X143910597Y-46819068D01*
X143830323Y-46803100D01*
X143748477Y-46803100D01*
X143668203Y-46819068D01*
X143592587Y-46850389D01*
X143524534Y-46895860D01*
X143466660Y-46953734D01*
X143421189Y-47021787D01*
X143389868Y-47097403D01*
X143373900Y-47177677D01*
X143373900Y-47259523D01*
X143389868Y-47339797D01*
X143421189Y-47415413D01*
X143466660Y-47483466D01*
X143524534Y-47541340D01*
X143592587Y-47586811D01*
X143668203Y-47618132D01*
X143748477Y-47634100D01*
X143830323Y-47634100D01*
X143910597Y-47618132D01*
X143936500Y-47607403D01*
X143936500Y-51927447D01*
X143864003Y-51941868D01*
X143788387Y-51973189D01*
X143720334Y-52018660D01*
X143662460Y-52076534D01*
X143616989Y-52144587D01*
X143585668Y-52220203D01*
X143569700Y-52300477D01*
X143569700Y-52382323D01*
X143585668Y-52462597D01*
X143616989Y-52538213D01*
X143662460Y-52606266D01*
X143720334Y-52664140D01*
X143788387Y-52709611D01*
X143864003Y-52740932D01*
X143936500Y-52755353D01*
X143936500Y-53094300D01*
X143918877Y-53094300D01*
X143838603Y-53110268D01*
X143762987Y-53141589D01*
X143694934Y-53187060D01*
X143637060Y-53244934D01*
X143591589Y-53312987D01*
X143560268Y-53388603D01*
X143544300Y-53468877D01*
X143544300Y-53550723D01*
X143560268Y-53630997D01*
X143591589Y-53706613D01*
X143637060Y-53774666D01*
X143694934Y-53832540D01*
X143762987Y-53878011D01*
X143838603Y-53909332D01*
X143918877Y-53925300D01*
X143936500Y-53925300D01*
X143936500Y-55338797D01*
X143910597Y-55328068D01*
X143830323Y-55312100D01*
X143748477Y-55312100D01*
X143668203Y-55328068D01*
X143592587Y-55359389D01*
X143524534Y-55404860D01*
X143466660Y-55462734D01*
X143421189Y-55530787D01*
X143389868Y-55606403D01*
X143373900Y-55686677D01*
X143373900Y-55768523D01*
X143389868Y-55848797D01*
X143421189Y-55924413D01*
X143466660Y-55992466D01*
X143524534Y-56050340D01*
X143592587Y-56095811D01*
X143668203Y-56127132D01*
X143748477Y-56143100D01*
X143830323Y-56143100D01*
X143910597Y-56127132D01*
X143936500Y-56116403D01*
X143936500Y-56984369D01*
X143905534Y-57005060D01*
X143847660Y-57062934D01*
X143802189Y-57130987D01*
X143770868Y-57206603D01*
X143754900Y-57286877D01*
X143754900Y-57368723D01*
X143770868Y-57448997D01*
X143802189Y-57524613D01*
X143847660Y-57592666D01*
X143905534Y-57650540D01*
X143936500Y-57671231D01*
X143936500Y-63254231D01*
X143903789Y-63303187D01*
X143872468Y-63378803D01*
X143856500Y-63459077D01*
X143856500Y-63540923D01*
X143872468Y-63621197D01*
X143897860Y-63682500D01*
X142956403Y-63682500D01*
X142963811Y-63671413D01*
X142995132Y-63595797D01*
X143011100Y-63515523D01*
X143011100Y-63433677D01*
X142995132Y-63353403D01*
X142963811Y-63277787D01*
X142918340Y-63209734D01*
X142860466Y-63151860D01*
X142792413Y-63106389D01*
X142716797Y-63075068D01*
X142636523Y-63059100D01*
X142554677Y-63059100D01*
X142474403Y-63075068D01*
X142398787Y-63106389D01*
X142330734Y-63151860D01*
X142272860Y-63209734D01*
X142227389Y-63277787D01*
X142196068Y-63353403D01*
X142180100Y-63433677D01*
X142180100Y-63515523D01*
X142196068Y-63595797D01*
X142227389Y-63671413D01*
X142234797Y-63682500D01*
X138651740Y-63682500D01*
X138677132Y-63621197D01*
X138693100Y-63540923D01*
X138693100Y-63459077D01*
X138677132Y-63378803D01*
X138645811Y-63303187D01*
X138600340Y-63235134D01*
X138542466Y-63177260D01*
X138474413Y-63131789D01*
X138398797Y-63100468D01*
X138318523Y-63084500D01*
X138236677Y-63084500D01*
X138156403Y-63100468D01*
X138080787Y-63131789D01*
X138012734Y-63177260D01*
X137954860Y-63235134D01*
X137909389Y-63303187D01*
X137878068Y-63378803D01*
X137862100Y-63459077D01*
X137862100Y-63540923D01*
X137878068Y-63621197D01*
X137903460Y-63682500D01*
X137134826Y-63682500D01*
X137163532Y-63613197D01*
X137179500Y-63532923D01*
X137179500Y-63451077D01*
X137163532Y-63370803D01*
X137132211Y-63295187D01*
X137086740Y-63227134D01*
X137028866Y-63169260D01*
X136960813Y-63123789D01*
X136885197Y-63092468D01*
X136804923Y-63076500D01*
X136723077Y-63076500D01*
X136642803Y-63092468D01*
X136567187Y-63123789D01*
X136499134Y-63169260D01*
X136441260Y-63227134D01*
X136395789Y-63295187D01*
X136364468Y-63370803D01*
X136348500Y-63451077D01*
X136348500Y-63532923D01*
X136364468Y-63613197D01*
X136393174Y-63682500D01*
X133673340Y-63682500D01*
X133698732Y-63621197D01*
X133714700Y-63540923D01*
X133714700Y-63459077D01*
X133698732Y-63378803D01*
X133667411Y-63303187D01*
X133621940Y-63235134D01*
X133564066Y-63177260D01*
X133563500Y-63176882D01*
X133563500Y-61746758D01*
X133609791Y-61765932D01*
X133690065Y-61781900D01*
X133771911Y-61781900D01*
X133852185Y-61765932D01*
X133927801Y-61734611D01*
X133995854Y-61689140D01*
X134053728Y-61631266D01*
X134099199Y-61563213D01*
X134130520Y-61487597D01*
X134146488Y-61407323D01*
X134146488Y-61342877D01*
X134164100Y-61342877D01*
X134164100Y-61424723D01*
X134180068Y-61504997D01*
X134211389Y-61580613D01*
X134256860Y-61648666D01*
X134314734Y-61706540D01*
X134382787Y-61752011D01*
X134458403Y-61783332D01*
X134538677Y-61799300D01*
X134620523Y-61799300D01*
X134700797Y-61783332D01*
X134776413Y-61752011D01*
X134844466Y-61706540D01*
X134902340Y-61648666D01*
X134947811Y-61580613D01*
X134979132Y-61504997D01*
X134995100Y-61424723D01*
X134995100Y-61342877D01*
X134984995Y-61292077D01*
X136348500Y-61292077D01*
X136348500Y-61373923D01*
X136364468Y-61454197D01*
X136395789Y-61529813D01*
X136441260Y-61597866D01*
X136499134Y-61655740D01*
X136567187Y-61701211D01*
X136642803Y-61732532D01*
X136723077Y-61748500D01*
X136804923Y-61748500D01*
X136885197Y-61732532D01*
X136960813Y-61701211D01*
X137028866Y-61655740D01*
X137086740Y-61597866D01*
X137132211Y-61529813D01*
X137163532Y-61454197D01*
X137179500Y-61373923D01*
X137179500Y-61292077D01*
X137163532Y-61211803D01*
X137132211Y-61136187D01*
X137086740Y-61068134D01*
X137028866Y-61010260D01*
X136960813Y-60964789D01*
X136885197Y-60933468D01*
X136804923Y-60917500D01*
X136723077Y-60917500D01*
X136642803Y-60933468D01*
X136567187Y-60964789D01*
X136499134Y-61010260D01*
X136441260Y-61068134D01*
X136395789Y-61136187D01*
X136364468Y-61211803D01*
X136348500Y-61292077D01*
X134984995Y-61292077D01*
X134979132Y-61262603D01*
X134947811Y-61186987D01*
X134902340Y-61118934D01*
X134844466Y-61061060D01*
X134776413Y-61015589D01*
X134700797Y-60984268D01*
X134620523Y-60968300D01*
X134538677Y-60968300D01*
X134458403Y-60984268D01*
X134382787Y-61015589D01*
X134314734Y-61061060D01*
X134256860Y-61118934D01*
X134211389Y-61186987D01*
X134180068Y-61262603D01*
X134164100Y-61342877D01*
X134146488Y-61342877D01*
X134146488Y-61325477D01*
X134130520Y-61245203D01*
X134099199Y-61169587D01*
X134053728Y-61101534D01*
X133995854Y-61043660D01*
X133927801Y-60998189D01*
X133852185Y-60966868D01*
X133771911Y-60950900D01*
X133690065Y-60950900D01*
X133609791Y-60966868D01*
X133563500Y-60986042D01*
X133563500Y-60555477D01*
X139396500Y-60555477D01*
X139396500Y-60637323D01*
X139412468Y-60717597D01*
X139443789Y-60793213D01*
X139489260Y-60861266D01*
X139547134Y-60919140D01*
X139615187Y-60964611D01*
X139690803Y-60995932D01*
X139771077Y-61011900D01*
X139849065Y-61011900D01*
X139818868Y-61084803D01*
X139802900Y-61165077D01*
X139802900Y-61246923D01*
X139818868Y-61327197D01*
X139850189Y-61402813D01*
X139895660Y-61470866D01*
X139953534Y-61528740D01*
X140021587Y-61574211D01*
X140097203Y-61605532D01*
X140177477Y-61621500D01*
X140259323Y-61621500D01*
X140339597Y-61605532D01*
X140415213Y-61574211D01*
X140483266Y-61528740D01*
X140541140Y-61470866D01*
X140586611Y-61402813D01*
X140617932Y-61327197D01*
X140633900Y-61246923D01*
X140633900Y-61165077D01*
X140617932Y-61084803D01*
X140601892Y-61046077D01*
X142789700Y-61046077D01*
X142789700Y-61127923D01*
X142805668Y-61208197D01*
X142836989Y-61283813D01*
X142882460Y-61351866D01*
X142940334Y-61409740D01*
X143008387Y-61455211D01*
X143084003Y-61486532D01*
X143164277Y-61502500D01*
X143246123Y-61502500D01*
X143326397Y-61486532D01*
X143402013Y-61455211D01*
X143470066Y-61409740D01*
X143527940Y-61351866D01*
X143573411Y-61283813D01*
X143604732Y-61208197D01*
X143620700Y-61127923D01*
X143620700Y-61046077D01*
X143604732Y-60965803D01*
X143573411Y-60890187D01*
X143527940Y-60822134D01*
X143470066Y-60764260D01*
X143402013Y-60718789D01*
X143326397Y-60687468D01*
X143246123Y-60671500D01*
X143164277Y-60671500D01*
X143084003Y-60687468D01*
X143008387Y-60718789D01*
X142940334Y-60764260D01*
X142882460Y-60822134D01*
X142836989Y-60890187D01*
X142805668Y-60965803D01*
X142789700Y-61046077D01*
X140601892Y-61046077D01*
X140586611Y-61009187D01*
X140541140Y-60941134D01*
X140483266Y-60883260D01*
X140415213Y-60837789D01*
X140339597Y-60806468D01*
X140259323Y-60790500D01*
X140181335Y-60790500D01*
X140211532Y-60717597D01*
X140227500Y-60637323D01*
X140227500Y-60555477D01*
X140211532Y-60475203D01*
X140180211Y-60399587D01*
X140134740Y-60331534D01*
X140076866Y-60273660D01*
X140008813Y-60228189D01*
X139933197Y-60196868D01*
X139852923Y-60180900D01*
X139771077Y-60180900D01*
X139690803Y-60196868D01*
X139615187Y-60228189D01*
X139547134Y-60273660D01*
X139489260Y-60331534D01*
X139443789Y-60399587D01*
X139412468Y-60475203D01*
X139396500Y-60555477D01*
X133563500Y-60555477D01*
X133563500Y-58963277D01*
X134280700Y-58963277D01*
X134280700Y-59045123D01*
X134296668Y-59125397D01*
X134327989Y-59201013D01*
X134373460Y-59269066D01*
X134431334Y-59326940D01*
X134499387Y-59372411D01*
X134575003Y-59403732D01*
X134625703Y-59413817D01*
X134560587Y-59440789D01*
X134492534Y-59486260D01*
X134434660Y-59544134D01*
X134389189Y-59612187D01*
X134357868Y-59687803D01*
X134341900Y-59768077D01*
X134341900Y-59849923D01*
X134357868Y-59930197D01*
X134389189Y-60005813D01*
X134434660Y-60073866D01*
X134492534Y-60131740D01*
X134560587Y-60177211D01*
X134636203Y-60208532D01*
X134716477Y-60224500D01*
X134798323Y-60224500D01*
X134878597Y-60208532D01*
X134954213Y-60177211D01*
X135022266Y-60131740D01*
X135080140Y-60073866D01*
X135083328Y-60069094D01*
X135120460Y-60124666D01*
X135178334Y-60182540D01*
X135246387Y-60228011D01*
X135322003Y-60259332D01*
X135402277Y-60275300D01*
X135484123Y-60275300D01*
X135564397Y-60259332D01*
X135640013Y-60228011D01*
X135708066Y-60182540D01*
X135765940Y-60124666D01*
X135811411Y-60056613D01*
X135842732Y-59980997D01*
X135858700Y-59900723D01*
X135858700Y-59818877D01*
X135842732Y-59738603D01*
X135811411Y-59662987D01*
X135765940Y-59594934D01*
X135708066Y-59537060D01*
X135640013Y-59491589D01*
X135564397Y-59460268D01*
X135484123Y-59444300D01*
X135402277Y-59444300D01*
X135322003Y-59460268D01*
X135246387Y-59491589D01*
X135178334Y-59537060D01*
X135120460Y-59594934D01*
X135117272Y-59599706D01*
X135080140Y-59544134D01*
X135022266Y-59486260D01*
X134954213Y-59440789D01*
X134878597Y-59409468D01*
X134827897Y-59399383D01*
X134893013Y-59372411D01*
X134961066Y-59326940D01*
X135018940Y-59269066D01*
X135064411Y-59201013D01*
X135095732Y-59125397D01*
X135111700Y-59045123D01*
X135111700Y-58963277D01*
X136084100Y-58963277D01*
X136084100Y-59045123D01*
X136100068Y-59125397D01*
X136131389Y-59201013D01*
X136176860Y-59269066D01*
X136234734Y-59326940D01*
X136302787Y-59372411D01*
X136378403Y-59403732D01*
X136458677Y-59419700D01*
X136540523Y-59419700D01*
X136620797Y-59403732D01*
X136696413Y-59372411D01*
X136764466Y-59326940D01*
X136822340Y-59269066D01*
X136867811Y-59201013D01*
X136899132Y-59125397D01*
X136915100Y-59045123D01*
X136915100Y-58988677D01*
X137887500Y-58988677D01*
X137887500Y-59070523D01*
X137903468Y-59150797D01*
X137934789Y-59226413D01*
X137980260Y-59294466D01*
X138038134Y-59352340D01*
X138106187Y-59397811D01*
X138181803Y-59429132D01*
X138262077Y-59445100D01*
X138343923Y-59445100D01*
X138424197Y-59429132D01*
X138499813Y-59397811D01*
X138567866Y-59352340D01*
X138625740Y-59294466D01*
X138671211Y-59226413D01*
X138702532Y-59150797D01*
X138718500Y-59070523D01*
X138718500Y-58988677D01*
X138702532Y-58908403D01*
X138671211Y-58832787D01*
X138625740Y-58764734D01*
X138613083Y-58752077D01*
X140336300Y-58752077D01*
X140336300Y-58833923D01*
X140352268Y-58914197D01*
X140383589Y-58989813D01*
X140429060Y-59057866D01*
X140486934Y-59115740D01*
X140554987Y-59161211D01*
X140586511Y-59174269D01*
X140537734Y-59206860D01*
X140479860Y-59264734D01*
X140434389Y-59332787D01*
X140403068Y-59408403D01*
X140387100Y-59488677D01*
X140387100Y-59570523D01*
X140403068Y-59650797D01*
X140434389Y-59726413D01*
X140479860Y-59794466D01*
X140537734Y-59852340D01*
X140605787Y-59897811D01*
X140681403Y-59929132D01*
X140761677Y-59945100D01*
X140843523Y-59945100D01*
X140923797Y-59929132D01*
X140999413Y-59897811D01*
X141067466Y-59852340D01*
X141125340Y-59794466D01*
X141170811Y-59726413D01*
X141177991Y-59709077D01*
X142834500Y-59709077D01*
X142834500Y-59790923D01*
X142850468Y-59871197D01*
X142881789Y-59946813D01*
X142927260Y-60014866D01*
X142985134Y-60072740D01*
X143053187Y-60118211D01*
X143128803Y-60149532D01*
X143209077Y-60165500D01*
X143290923Y-60165500D01*
X143371197Y-60149532D01*
X143446813Y-60118211D01*
X143514866Y-60072740D01*
X143572740Y-60014866D01*
X143618211Y-59946813D01*
X143649532Y-59871197D01*
X143665500Y-59790923D01*
X143665500Y-59709077D01*
X143649532Y-59628803D01*
X143618211Y-59553187D01*
X143572740Y-59485134D01*
X143514866Y-59427260D01*
X143446813Y-59381789D01*
X143371197Y-59350468D01*
X143290923Y-59334500D01*
X143209077Y-59334500D01*
X143128803Y-59350468D01*
X143053187Y-59381789D01*
X142985134Y-59427260D01*
X142927260Y-59485134D01*
X142881789Y-59553187D01*
X142850468Y-59628803D01*
X142834500Y-59709077D01*
X141177991Y-59709077D01*
X141202132Y-59650797D01*
X141218100Y-59570523D01*
X141218100Y-59488677D01*
X141202132Y-59408403D01*
X141170811Y-59332787D01*
X141125340Y-59264734D01*
X141067466Y-59206860D01*
X140999413Y-59161389D01*
X140967889Y-59148331D01*
X141016666Y-59115740D01*
X141074540Y-59057866D01*
X141120011Y-58989813D01*
X141151332Y-58914197D01*
X141167300Y-58833923D01*
X141167300Y-58752077D01*
X141151332Y-58671803D01*
X141120011Y-58596187D01*
X141074540Y-58528134D01*
X141016666Y-58470260D01*
X140948613Y-58424789D01*
X140872997Y-58393468D01*
X140792723Y-58377500D01*
X140710877Y-58377500D01*
X140630603Y-58393468D01*
X140554987Y-58424789D01*
X140486934Y-58470260D01*
X140429060Y-58528134D01*
X140383589Y-58596187D01*
X140352268Y-58671803D01*
X140336300Y-58752077D01*
X138613083Y-58752077D01*
X138567866Y-58706860D01*
X138499813Y-58661389D01*
X138424197Y-58630068D01*
X138343923Y-58614100D01*
X138262077Y-58614100D01*
X138181803Y-58630068D01*
X138106187Y-58661389D01*
X138038134Y-58706860D01*
X137980260Y-58764734D01*
X137934789Y-58832787D01*
X137903468Y-58908403D01*
X137887500Y-58988677D01*
X136915100Y-58988677D01*
X136915100Y-58963277D01*
X136899132Y-58883003D01*
X136867811Y-58807387D01*
X136822340Y-58739334D01*
X136764466Y-58681460D01*
X136696413Y-58635989D01*
X136620797Y-58604668D01*
X136540523Y-58588700D01*
X136458677Y-58588700D01*
X136378403Y-58604668D01*
X136302787Y-58635989D01*
X136234734Y-58681460D01*
X136176860Y-58739334D01*
X136131389Y-58807387D01*
X136100068Y-58883003D01*
X136084100Y-58963277D01*
X135111700Y-58963277D01*
X135095732Y-58883003D01*
X135064411Y-58807387D01*
X135018940Y-58739334D01*
X134961066Y-58681460D01*
X134893013Y-58635989D01*
X134817397Y-58604668D01*
X134737123Y-58588700D01*
X134655277Y-58588700D01*
X134575003Y-58604668D01*
X134499387Y-58635989D01*
X134431334Y-58681460D01*
X134373460Y-58739334D01*
X134327989Y-58807387D01*
X134296668Y-58883003D01*
X134280700Y-58963277D01*
X133563500Y-58963277D01*
X133563500Y-57185277D01*
X134306100Y-57185277D01*
X134306100Y-57267123D01*
X134322068Y-57347397D01*
X134353389Y-57423013D01*
X134398860Y-57491066D01*
X134456734Y-57548940D01*
X134524787Y-57594411D01*
X134600403Y-57625732D01*
X134680677Y-57641700D01*
X134762523Y-57641700D01*
X134842797Y-57625732D01*
X134918413Y-57594411D01*
X134986466Y-57548940D01*
X135044340Y-57491066D01*
X135089811Y-57423013D01*
X135121132Y-57347397D01*
X135137100Y-57267123D01*
X135137100Y-57185277D01*
X135132048Y-57159877D01*
X136109500Y-57159877D01*
X136109500Y-57241723D01*
X136125468Y-57321997D01*
X136156789Y-57397613D01*
X136202260Y-57465666D01*
X136260134Y-57523540D01*
X136328187Y-57569011D01*
X136403803Y-57600332D01*
X136484077Y-57616300D01*
X136565923Y-57616300D01*
X136646197Y-57600332D01*
X136721813Y-57569011D01*
X136789866Y-57523540D01*
X136847740Y-57465666D01*
X136893211Y-57397613D01*
X136924532Y-57321997D01*
X136940500Y-57241723D01*
X136940500Y-57159877D01*
X137887500Y-57159877D01*
X137887500Y-57241723D01*
X137903468Y-57321997D01*
X137934789Y-57397613D01*
X137980260Y-57465666D01*
X138038134Y-57523540D01*
X138106187Y-57569011D01*
X138181803Y-57600332D01*
X138262077Y-57616300D01*
X138343923Y-57616300D01*
X138424197Y-57600332D01*
X138499813Y-57569011D01*
X138567866Y-57523540D01*
X138625740Y-57465666D01*
X138671211Y-57397613D01*
X138702532Y-57321997D01*
X138718500Y-57241723D01*
X138718500Y-57159877D01*
X138702532Y-57079603D01*
X138671211Y-57003987D01*
X138625740Y-56935934D01*
X138567866Y-56878060D01*
X138499813Y-56832589D01*
X138424197Y-56801268D01*
X138343923Y-56785300D01*
X138262077Y-56785300D01*
X138181803Y-56801268D01*
X138106187Y-56832589D01*
X138038134Y-56878060D01*
X137980260Y-56935934D01*
X137934789Y-57003987D01*
X137903468Y-57079603D01*
X137887500Y-57159877D01*
X136940500Y-57159877D01*
X136924532Y-57079603D01*
X136893211Y-57003987D01*
X136847740Y-56935934D01*
X136789866Y-56878060D01*
X136721813Y-56832589D01*
X136646197Y-56801268D01*
X136565923Y-56785300D01*
X136484077Y-56785300D01*
X136403803Y-56801268D01*
X136328187Y-56832589D01*
X136260134Y-56878060D01*
X136202260Y-56935934D01*
X136156789Y-57003987D01*
X136125468Y-57079603D01*
X136109500Y-57159877D01*
X135132048Y-57159877D01*
X135121132Y-57105003D01*
X135089811Y-57029387D01*
X135044340Y-56961334D01*
X134986466Y-56903460D01*
X134918413Y-56857989D01*
X134842797Y-56826668D01*
X134762523Y-56810700D01*
X134680677Y-56810700D01*
X134600403Y-56826668D01*
X134524787Y-56857989D01*
X134456734Y-56903460D01*
X134398860Y-56961334D01*
X134353389Y-57029387D01*
X134322068Y-57105003D01*
X134306100Y-57185277D01*
X133563500Y-57185277D01*
X133563500Y-56085077D01*
X140412500Y-56085077D01*
X140412500Y-56166923D01*
X140428468Y-56247197D01*
X140459789Y-56322813D01*
X140505260Y-56390866D01*
X140563134Y-56448740D01*
X140631187Y-56494211D01*
X140706803Y-56525532D01*
X140787077Y-56541500D01*
X140868923Y-56541500D01*
X140949197Y-56525532D01*
X141024813Y-56494211D01*
X141092866Y-56448740D01*
X141150740Y-56390866D01*
X141196211Y-56322813D01*
X141227532Y-56247197D01*
X141243500Y-56166923D01*
X141243500Y-56110477D01*
X142645300Y-56110477D01*
X142645300Y-56192323D01*
X142661268Y-56272597D01*
X142692589Y-56348213D01*
X142738060Y-56416266D01*
X142795934Y-56474140D01*
X142863987Y-56519611D01*
X142939603Y-56550932D01*
X143019877Y-56566900D01*
X143101723Y-56566900D01*
X143181997Y-56550932D01*
X143257613Y-56519611D01*
X143325666Y-56474140D01*
X143383540Y-56416266D01*
X143429011Y-56348213D01*
X143460332Y-56272597D01*
X143476300Y-56192323D01*
X143476300Y-56110477D01*
X143460332Y-56030203D01*
X143429011Y-55954587D01*
X143383540Y-55886534D01*
X143325666Y-55828660D01*
X143257613Y-55783189D01*
X143181997Y-55751868D01*
X143101723Y-55735900D01*
X143019877Y-55735900D01*
X142939603Y-55751868D01*
X142863987Y-55783189D01*
X142795934Y-55828660D01*
X142738060Y-55886534D01*
X142692589Y-55954587D01*
X142661268Y-56030203D01*
X142645300Y-56110477D01*
X141243500Y-56110477D01*
X141243500Y-56085077D01*
X141227532Y-56004803D01*
X141196211Y-55929187D01*
X141150740Y-55861134D01*
X141092866Y-55803260D01*
X141024813Y-55757789D01*
X140949197Y-55726468D01*
X140868923Y-55710500D01*
X140787077Y-55710500D01*
X140706803Y-55726468D01*
X140631187Y-55757789D01*
X140563134Y-55803260D01*
X140505260Y-55861134D01*
X140459789Y-55929187D01*
X140428468Y-56004803D01*
X140412500Y-56085077D01*
X133563500Y-56085077D01*
X133563500Y-55381877D01*
X134331500Y-55381877D01*
X134331500Y-55463723D01*
X134347468Y-55543997D01*
X134378789Y-55619613D01*
X134424260Y-55687666D01*
X134482134Y-55745540D01*
X134550187Y-55791011D01*
X134625803Y-55822332D01*
X134706077Y-55838300D01*
X134787923Y-55838300D01*
X134868197Y-55822332D01*
X134943813Y-55791011D01*
X135011866Y-55745540D01*
X135069740Y-55687666D01*
X135115211Y-55619613D01*
X135146532Y-55543997D01*
X135162500Y-55463723D01*
X135162500Y-55407277D01*
X136084100Y-55407277D01*
X136084100Y-55489123D01*
X136100068Y-55569397D01*
X136131389Y-55645013D01*
X136176860Y-55713066D01*
X136234734Y-55770940D01*
X136302787Y-55816411D01*
X136378403Y-55847732D01*
X136458677Y-55863700D01*
X136540523Y-55863700D01*
X136620797Y-55847732D01*
X136696413Y-55816411D01*
X136764466Y-55770940D01*
X136822340Y-55713066D01*
X136867811Y-55645013D01*
X136899132Y-55569397D01*
X136915100Y-55489123D01*
X136915100Y-55407277D01*
X136910048Y-55381877D01*
X137887500Y-55381877D01*
X137887500Y-55463723D01*
X137903468Y-55543997D01*
X137934789Y-55619613D01*
X137980260Y-55687666D01*
X138038134Y-55745540D01*
X138106187Y-55791011D01*
X138181803Y-55822332D01*
X138262077Y-55838300D01*
X138343923Y-55838300D01*
X138424197Y-55822332D01*
X138499813Y-55791011D01*
X138567866Y-55745540D01*
X138625740Y-55687666D01*
X138671211Y-55619613D01*
X138702532Y-55543997D01*
X138718500Y-55463723D01*
X138718500Y-55381877D01*
X138702532Y-55301603D01*
X138671211Y-55225987D01*
X138625740Y-55157934D01*
X138567866Y-55100060D01*
X138499813Y-55054589D01*
X138424197Y-55023268D01*
X138343923Y-55007300D01*
X138262077Y-55007300D01*
X138181803Y-55023268D01*
X138106187Y-55054589D01*
X138038134Y-55100060D01*
X137980260Y-55157934D01*
X137934789Y-55225987D01*
X137903468Y-55301603D01*
X137887500Y-55381877D01*
X136910048Y-55381877D01*
X136899132Y-55327003D01*
X136867811Y-55251387D01*
X136822340Y-55183334D01*
X136764466Y-55125460D01*
X136696413Y-55079989D01*
X136620797Y-55048668D01*
X136540523Y-55032700D01*
X136458677Y-55032700D01*
X136378403Y-55048668D01*
X136302787Y-55079989D01*
X136234734Y-55125460D01*
X136176860Y-55183334D01*
X136131389Y-55251387D01*
X136100068Y-55327003D01*
X136084100Y-55407277D01*
X135162500Y-55407277D01*
X135162500Y-55381877D01*
X135146532Y-55301603D01*
X135115211Y-55225987D01*
X135069740Y-55157934D01*
X135011866Y-55100060D01*
X134943813Y-55054589D01*
X134868197Y-55023268D01*
X134787923Y-55007300D01*
X134706077Y-55007300D01*
X134625803Y-55023268D01*
X134550187Y-55054589D01*
X134482134Y-55100060D01*
X134424260Y-55157934D01*
X134378789Y-55225987D01*
X134347468Y-55301603D01*
X134331500Y-55381877D01*
X133563500Y-55381877D01*
X133563500Y-54561077D01*
X138685300Y-54561077D01*
X138685300Y-54642923D01*
X138701268Y-54723197D01*
X138732589Y-54798813D01*
X138778060Y-54866866D01*
X138835934Y-54924740D01*
X138903987Y-54970211D01*
X138979603Y-55001532D01*
X139059877Y-55017500D01*
X139141723Y-55017500D01*
X139221997Y-55001532D01*
X139297613Y-54970211D01*
X139365666Y-54924740D01*
X139423540Y-54866866D01*
X139469011Y-54798813D01*
X139500332Y-54723197D01*
X139516300Y-54642923D01*
X139516300Y-54561077D01*
X139500332Y-54480803D01*
X139469011Y-54405187D01*
X139454372Y-54383277D01*
X140249700Y-54383277D01*
X140249700Y-54465123D01*
X140265668Y-54545397D01*
X140296989Y-54621013D01*
X140342460Y-54689066D01*
X140400334Y-54746940D01*
X140468387Y-54792411D01*
X140544003Y-54823732D01*
X140624277Y-54839700D01*
X140706123Y-54839700D01*
X140786397Y-54823732D01*
X140862013Y-54792411D01*
X140930066Y-54746940D01*
X140987940Y-54689066D01*
X141033411Y-54621013D01*
X141064732Y-54545397D01*
X141080700Y-54465123D01*
X141080700Y-54446372D01*
X141142677Y-54458700D01*
X141224523Y-54458700D01*
X141253335Y-54452969D01*
X141266668Y-54519997D01*
X141297989Y-54595613D01*
X141343460Y-54663666D01*
X141401334Y-54721540D01*
X141469387Y-54767011D01*
X141545003Y-54798332D01*
X141625277Y-54814300D01*
X141707123Y-54814300D01*
X141787397Y-54798332D01*
X141863013Y-54767011D01*
X141931066Y-54721540D01*
X141988940Y-54663666D01*
X142034411Y-54595613D01*
X142065732Y-54519997D01*
X142081700Y-54439723D01*
X142081700Y-54357877D01*
X142065732Y-54277603D01*
X142034411Y-54201987D01*
X141988940Y-54133934D01*
X141931066Y-54076060D01*
X141863013Y-54030589D01*
X141787397Y-53999268D01*
X141707123Y-53983300D01*
X141625277Y-53983300D01*
X141596465Y-53989031D01*
X141583132Y-53922003D01*
X141551811Y-53846387D01*
X141506340Y-53778334D01*
X141448466Y-53720460D01*
X141380413Y-53674989D01*
X141304797Y-53643668D01*
X141224523Y-53627700D01*
X141142677Y-53627700D01*
X141062403Y-53643668D01*
X140986787Y-53674989D01*
X140918734Y-53720460D01*
X140860860Y-53778334D01*
X140815389Y-53846387D01*
X140784068Y-53922003D01*
X140768100Y-54002277D01*
X140768100Y-54021028D01*
X140706123Y-54008700D01*
X140624277Y-54008700D01*
X140544003Y-54024668D01*
X140468387Y-54055989D01*
X140400334Y-54101460D01*
X140342460Y-54159334D01*
X140296989Y-54227387D01*
X140265668Y-54303003D01*
X140249700Y-54383277D01*
X139454372Y-54383277D01*
X139423540Y-54337134D01*
X139365666Y-54279260D01*
X139297613Y-54233789D01*
X139221997Y-54202468D01*
X139141723Y-54186500D01*
X139059877Y-54186500D01*
X138979603Y-54202468D01*
X138903987Y-54233789D01*
X138835934Y-54279260D01*
X138778060Y-54337134D01*
X138732589Y-54405187D01*
X138701268Y-54480803D01*
X138685300Y-54561077D01*
X133563500Y-54561077D01*
X133563500Y-53799077D01*
X139396500Y-53799077D01*
X139396500Y-53880923D01*
X139412468Y-53961197D01*
X139443789Y-54036813D01*
X139489260Y-54104866D01*
X139547134Y-54162740D01*
X139615187Y-54208211D01*
X139690803Y-54239532D01*
X139771077Y-54255500D01*
X139852923Y-54255500D01*
X139933197Y-54239532D01*
X140008813Y-54208211D01*
X140076866Y-54162740D01*
X140134740Y-54104866D01*
X140180211Y-54036813D01*
X140211532Y-53961197D01*
X140227500Y-53880923D01*
X140227500Y-53799077D01*
X140211532Y-53718803D01*
X140180211Y-53643187D01*
X140134740Y-53575134D01*
X140076866Y-53517260D01*
X140008813Y-53471789D01*
X139933197Y-53440468D01*
X139852923Y-53424500D01*
X139771077Y-53424500D01*
X139690803Y-53440468D01*
X139615187Y-53471789D01*
X139547134Y-53517260D01*
X139489260Y-53575134D01*
X139443789Y-53643187D01*
X139412468Y-53718803D01*
X139396500Y-53799077D01*
X133563500Y-53799077D01*
X133563500Y-53056106D01*
X133581540Y-53038066D01*
X133627011Y-52970013D01*
X133658332Y-52894397D01*
X133674300Y-52814123D01*
X133674300Y-52732277D01*
X133665787Y-52689477D01*
X134052100Y-52689477D01*
X134052100Y-52771323D01*
X134068068Y-52851597D01*
X134099389Y-52927213D01*
X134144860Y-52995266D01*
X134202734Y-53053140D01*
X134270787Y-53098611D01*
X134346403Y-53129932D01*
X134426677Y-53145900D01*
X134508523Y-53145900D01*
X134588797Y-53129932D01*
X134664413Y-53098611D01*
X134680477Y-53087877D01*
X135713500Y-53087877D01*
X135713500Y-53169723D01*
X135729468Y-53249997D01*
X135760789Y-53325613D01*
X135806260Y-53393666D01*
X135864134Y-53451540D01*
X135932187Y-53497011D01*
X136007803Y-53528332D01*
X136088077Y-53544300D01*
X136169923Y-53544300D01*
X136250197Y-53528332D01*
X136325813Y-53497011D01*
X136393866Y-53451540D01*
X136451740Y-53393666D01*
X136497211Y-53325613D01*
X136528532Y-53249997D01*
X136544500Y-53169723D01*
X136544500Y-53087877D01*
X136534395Y-53037077D01*
X136653300Y-53037077D01*
X136653300Y-53118923D01*
X136669268Y-53199197D01*
X136700589Y-53274813D01*
X136746060Y-53342866D01*
X136803934Y-53400740D01*
X136871987Y-53446211D01*
X136947603Y-53477532D01*
X137027877Y-53493500D01*
X137109723Y-53493500D01*
X137189997Y-53477532D01*
X137265613Y-53446211D01*
X137333666Y-53400740D01*
X137391540Y-53342866D01*
X137403214Y-53325394D01*
X137431860Y-53368266D01*
X137489734Y-53426140D01*
X137557787Y-53471611D01*
X137633403Y-53502932D01*
X137713677Y-53518900D01*
X137795523Y-53518900D01*
X137875797Y-53502932D01*
X137951413Y-53471611D01*
X138019466Y-53426140D01*
X138077340Y-53368266D01*
X138110200Y-53319087D01*
X138143060Y-53368266D01*
X138200934Y-53426140D01*
X138268987Y-53471611D01*
X138344603Y-53502932D01*
X138424877Y-53518900D01*
X138506723Y-53518900D01*
X138586997Y-53502932D01*
X138662613Y-53471611D01*
X138730666Y-53426140D01*
X138788540Y-53368266D01*
X138834011Y-53300213D01*
X138865332Y-53224597D01*
X138881300Y-53144323D01*
X138881300Y-53062477D01*
X138865332Y-52982203D01*
X138834011Y-52906587D01*
X138788540Y-52838534D01*
X138730666Y-52780660D01*
X138662613Y-52735189D01*
X138586997Y-52703868D01*
X138506723Y-52687900D01*
X138424877Y-52687900D01*
X138344603Y-52703868D01*
X138268987Y-52735189D01*
X138200934Y-52780660D01*
X138143060Y-52838534D01*
X138110200Y-52887713D01*
X138077340Y-52838534D01*
X138019466Y-52780660D01*
X137951413Y-52735189D01*
X137875797Y-52703868D01*
X137795523Y-52687900D01*
X137713677Y-52687900D01*
X137633403Y-52703868D01*
X137557787Y-52735189D01*
X137489734Y-52780660D01*
X137431860Y-52838534D01*
X137420186Y-52856006D01*
X137391540Y-52813134D01*
X137333666Y-52755260D01*
X137265613Y-52709789D01*
X137189997Y-52678468D01*
X137109723Y-52662500D01*
X137027877Y-52662500D01*
X136947603Y-52678468D01*
X136871987Y-52709789D01*
X136803934Y-52755260D01*
X136746060Y-52813134D01*
X136700589Y-52881187D01*
X136669268Y-52956803D01*
X136653300Y-53037077D01*
X136534395Y-53037077D01*
X136528532Y-53007603D01*
X136497211Y-52931987D01*
X136451740Y-52863934D01*
X136393866Y-52806060D01*
X136325813Y-52760589D01*
X136250197Y-52729268D01*
X136169923Y-52713300D01*
X136088077Y-52713300D01*
X136007803Y-52729268D01*
X135932187Y-52760589D01*
X135864134Y-52806060D01*
X135806260Y-52863934D01*
X135760789Y-52931987D01*
X135729468Y-53007603D01*
X135713500Y-53087877D01*
X134680477Y-53087877D01*
X134732466Y-53053140D01*
X134790340Y-52995266D01*
X134835811Y-52927213D01*
X134867132Y-52851597D01*
X134883100Y-52771323D01*
X134883100Y-52689477D01*
X134867132Y-52609203D01*
X134835811Y-52533587D01*
X134790340Y-52465534D01*
X134738118Y-52413312D01*
X134742866Y-52410140D01*
X134800740Y-52352266D01*
X134846211Y-52284213D01*
X134877532Y-52208597D01*
X134893500Y-52128323D01*
X134893500Y-52046477D01*
X134877532Y-51966203D01*
X134846211Y-51890587D01*
X134800740Y-51822534D01*
X134759322Y-51781116D01*
X134768266Y-51775140D01*
X134826140Y-51717266D01*
X134871611Y-51649213D01*
X134902932Y-51573597D01*
X134918900Y-51493323D01*
X134918900Y-51411477D01*
X134902932Y-51331203D01*
X134871611Y-51255587D01*
X134826140Y-51187534D01*
X134768266Y-51129660D01*
X134700213Y-51084189D01*
X134624597Y-51052868D01*
X134544323Y-51036900D01*
X134462477Y-51036900D01*
X134382203Y-51052868D01*
X134306587Y-51084189D01*
X134238534Y-51129660D01*
X134180660Y-51187534D01*
X134135189Y-51255587D01*
X134103868Y-51331203D01*
X134087900Y-51411477D01*
X134087900Y-51493323D01*
X134103868Y-51573597D01*
X134135189Y-51649213D01*
X134180660Y-51717266D01*
X134222078Y-51758684D01*
X134213134Y-51764660D01*
X134155260Y-51822534D01*
X134109789Y-51890587D01*
X134078468Y-51966203D01*
X134062500Y-52046477D01*
X134062500Y-52128323D01*
X134078468Y-52208597D01*
X134109789Y-52284213D01*
X134155260Y-52352266D01*
X134207482Y-52404488D01*
X134202734Y-52407660D01*
X134144860Y-52465534D01*
X134099389Y-52533587D01*
X134068068Y-52609203D01*
X134052100Y-52689477D01*
X133665787Y-52689477D01*
X133658332Y-52652003D01*
X133627011Y-52576387D01*
X133581540Y-52508334D01*
X133563500Y-52490294D01*
X133563500Y-50878077D01*
X139650500Y-50878077D01*
X139650500Y-50959923D01*
X139666468Y-51040197D01*
X139697789Y-51115813D01*
X139743260Y-51183866D01*
X139801134Y-51241740D01*
X139869187Y-51287211D01*
X139944803Y-51318532D01*
X140025077Y-51334500D01*
X140106923Y-51334500D01*
X140187197Y-51318532D01*
X140262813Y-51287211D01*
X140330866Y-51241740D01*
X140388740Y-51183866D01*
X140434211Y-51115813D01*
X140465532Y-51040197D01*
X140481500Y-50959923D01*
X140481500Y-50878077D01*
X140465532Y-50797803D01*
X140435335Y-50724900D01*
X140437123Y-50724900D01*
X140517397Y-50708932D01*
X140593013Y-50677611D01*
X140661066Y-50632140D01*
X140718940Y-50574266D01*
X140764411Y-50506213D01*
X140795732Y-50430597D01*
X140811700Y-50350323D01*
X140811700Y-50268477D01*
X140795732Y-50188203D01*
X140764411Y-50112587D01*
X140718940Y-50044534D01*
X140661066Y-49986660D01*
X140593013Y-49941189D01*
X140517397Y-49909868D01*
X140437123Y-49893900D01*
X140355277Y-49893900D01*
X140275003Y-49909868D01*
X140199387Y-49941189D01*
X140131334Y-49986660D01*
X140073460Y-50044534D01*
X140027989Y-50112587D01*
X139996668Y-50188203D01*
X139980700Y-50268477D01*
X139980700Y-50350323D01*
X139996668Y-50430597D01*
X140026865Y-50503500D01*
X140025077Y-50503500D01*
X139944803Y-50519468D01*
X139869187Y-50550789D01*
X139801134Y-50596260D01*
X139743260Y-50654134D01*
X139697789Y-50722187D01*
X139666468Y-50797803D01*
X139650500Y-50878077D01*
X133563500Y-50878077D01*
X133563500Y-49722377D01*
X134291100Y-49722377D01*
X134291100Y-49804223D01*
X134307068Y-49884497D01*
X134338389Y-49960113D01*
X134383860Y-50028166D01*
X134441734Y-50086040D01*
X134509787Y-50131511D01*
X134585403Y-50162832D01*
X134665677Y-50178800D01*
X134747523Y-50178800D01*
X134827797Y-50162832D01*
X134903413Y-50131511D01*
X134971466Y-50086040D01*
X135028076Y-50029430D01*
X135069660Y-50091666D01*
X135127534Y-50149540D01*
X135195587Y-50195011D01*
X135271203Y-50226332D01*
X135351477Y-50242300D01*
X135433323Y-50242300D01*
X135513597Y-50226332D01*
X135589213Y-50195011D01*
X135657266Y-50149540D01*
X135715140Y-50091666D01*
X135760611Y-50023613D01*
X135791932Y-49947997D01*
X135807900Y-49867723D01*
X135807900Y-49842477D01*
X137079300Y-49842477D01*
X137079300Y-49924323D01*
X137095268Y-50004597D01*
X137126589Y-50080213D01*
X137172060Y-50148266D01*
X137229934Y-50206140D01*
X137297987Y-50251611D01*
X137373603Y-50282932D01*
X137453877Y-50298900D01*
X137535723Y-50298900D01*
X137615997Y-50282932D01*
X137691613Y-50251611D01*
X137759666Y-50206140D01*
X137817540Y-50148266D01*
X137863011Y-50080213D01*
X137894332Y-50004597D01*
X137910300Y-49924323D01*
X137910300Y-49842477D01*
X137894332Y-49762203D01*
X137863011Y-49686587D01*
X137817540Y-49618534D01*
X137759666Y-49560660D01*
X137691613Y-49515189D01*
X137615997Y-49483868D01*
X137535723Y-49467900D01*
X137453877Y-49467900D01*
X137373603Y-49483868D01*
X137297987Y-49515189D01*
X137229934Y-49560660D01*
X137172060Y-49618534D01*
X137126589Y-49686587D01*
X137095268Y-49762203D01*
X137079300Y-49842477D01*
X135807900Y-49842477D01*
X135807900Y-49785877D01*
X135791932Y-49705603D01*
X135760611Y-49629987D01*
X135715140Y-49561934D01*
X135657266Y-49504060D01*
X135589213Y-49458589D01*
X135513597Y-49427268D01*
X135433323Y-49411300D01*
X135351477Y-49411300D01*
X135271203Y-49427268D01*
X135195587Y-49458589D01*
X135127534Y-49504060D01*
X135070924Y-49560670D01*
X135029340Y-49498434D01*
X134971466Y-49440560D01*
X134903413Y-49395089D01*
X134827797Y-49363768D01*
X134747523Y-49347800D01*
X134665677Y-49347800D01*
X134585403Y-49363768D01*
X134509787Y-49395089D01*
X134441734Y-49440560D01*
X134383860Y-49498434D01*
X134338389Y-49566487D01*
X134307068Y-49642103D01*
X134291100Y-49722377D01*
X133563500Y-49722377D01*
X133563500Y-49622483D01*
X133628802Y-49649532D01*
X133709076Y-49665500D01*
X133790922Y-49665500D01*
X133871196Y-49649532D01*
X133946812Y-49618211D01*
X134014865Y-49572740D01*
X134072739Y-49514866D01*
X134118210Y-49446813D01*
X134149531Y-49371197D01*
X134165499Y-49290923D01*
X134165499Y-49209077D01*
X134149531Y-49128803D01*
X134118210Y-49053187D01*
X134072739Y-48985134D01*
X134014865Y-48927260D01*
X133946812Y-48881789D01*
X133871196Y-48850468D01*
X133790922Y-48834500D01*
X133709076Y-48834500D01*
X133628802Y-48850468D01*
X133563500Y-48877517D01*
X133563500Y-47855477D01*
X135053100Y-47855477D01*
X135053100Y-47937323D01*
X135069068Y-48017597D01*
X135100389Y-48093213D01*
X135145860Y-48161266D01*
X135203734Y-48219140D01*
X135271787Y-48264611D01*
X135333323Y-48290100D01*
X135271787Y-48315589D01*
X135203734Y-48361060D01*
X135145860Y-48418934D01*
X135100389Y-48486987D01*
X135069068Y-48562603D01*
X135053100Y-48642877D01*
X135053100Y-48724723D01*
X135069068Y-48804997D01*
X135100389Y-48880613D01*
X135145860Y-48948666D01*
X135203734Y-49006540D01*
X135271787Y-49052011D01*
X135347403Y-49083332D01*
X135427677Y-49099300D01*
X135509523Y-49099300D01*
X135589797Y-49083332D01*
X135665413Y-49052011D01*
X135733466Y-49006540D01*
X135791340Y-48948666D01*
X135836811Y-48880613D01*
X135868132Y-48804997D01*
X135884100Y-48724723D01*
X135884100Y-48642877D01*
X135868132Y-48562603D01*
X135836811Y-48486987D01*
X135791340Y-48418934D01*
X135733466Y-48361060D01*
X135665413Y-48315589D01*
X135603877Y-48290100D01*
X135665413Y-48264611D01*
X135733466Y-48219140D01*
X135791340Y-48161266D01*
X135836811Y-48093213D01*
X135868132Y-48017597D01*
X135884100Y-47937323D01*
X135884100Y-47855477D01*
X135868132Y-47775203D01*
X135836811Y-47699587D01*
X135791340Y-47631534D01*
X135733466Y-47573660D01*
X135665413Y-47528189D01*
X135589797Y-47496868D01*
X135509523Y-47480900D01*
X135427677Y-47480900D01*
X135347403Y-47496868D01*
X135271787Y-47528189D01*
X135203734Y-47573660D01*
X135145860Y-47631534D01*
X135100389Y-47699587D01*
X135069068Y-47775203D01*
X135053100Y-47855477D01*
X133563500Y-47855477D01*
X133563500Y-45704477D01*
X136795300Y-45704477D01*
X136795300Y-45786323D01*
X136811268Y-45866597D01*
X136842589Y-45942213D01*
X136888060Y-46010266D01*
X136945934Y-46068140D01*
X137013987Y-46113611D01*
X137089603Y-46144932D01*
X137169877Y-46160900D01*
X137251723Y-46160900D01*
X137331997Y-46144932D01*
X137407613Y-46113611D01*
X137475666Y-46068140D01*
X137533540Y-46010266D01*
X137579011Y-45942213D01*
X137610332Y-45866597D01*
X137626300Y-45786323D01*
X137626300Y-45704477D01*
X137610332Y-45624203D01*
X137579011Y-45548587D01*
X137533540Y-45480534D01*
X137475666Y-45422660D01*
X137467311Y-45417077D01*
X138888500Y-45417077D01*
X138888500Y-45498923D01*
X138904468Y-45579197D01*
X138935789Y-45654813D01*
X138981260Y-45722866D01*
X139039134Y-45780740D01*
X139107187Y-45826211D01*
X139182803Y-45857532D01*
X139263077Y-45873500D01*
X139344923Y-45873500D01*
X139425197Y-45857532D01*
X139500813Y-45826211D01*
X139568866Y-45780740D01*
X139626740Y-45722866D01*
X139672211Y-45654813D01*
X139703532Y-45579197D01*
X139719500Y-45498923D01*
X139719500Y-45417077D01*
X139703532Y-45336803D01*
X139672211Y-45261187D01*
X139626740Y-45193134D01*
X139568866Y-45135260D01*
X139500813Y-45089789D01*
X139425197Y-45058468D01*
X139344923Y-45042500D01*
X139263077Y-45042500D01*
X139182803Y-45058468D01*
X139107187Y-45089789D01*
X139039134Y-45135260D01*
X138981260Y-45193134D01*
X138935789Y-45261187D01*
X138904468Y-45336803D01*
X138888500Y-45417077D01*
X137467311Y-45417077D01*
X137407613Y-45377189D01*
X137331997Y-45345868D01*
X137251723Y-45329900D01*
X137169877Y-45329900D01*
X137089603Y-45345868D01*
X137013987Y-45377189D01*
X136945934Y-45422660D01*
X136888060Y-45480534D01*
X136842589Y-45548587D01*
X136811268Y-45624203D01*
X136795300Y-45704477D01*
X133563500Y-45704477D01*
X133563500Y-44317500D01*
X142562162Y-44317500D01*
X142542593Y-44346787D01*
%TD*%
M02*
